%TF.GenerationSoftware,KiCad,Pcbnew,(7.0.0)*%
%TF.CreationDate,2024-01-25T16:24:15+01:00*%
%TF.ProjectId,Sensorbox,53656e73-6f72-4626-9f78-2e6b69636164,rev?*%
%TF.SameCoordinates,PX62b48e0PY7ffbac0*%
%TF.FileFunction,Drillmap*%
%TF.FilePolarity,Positive*%
%FSLAX45Y45*%
G04 Gerber Fmt 4.5, Leading zero omitted, Abs format (unit mm)*
G04 Created by KiCad (PCBNEW (7.0.0)) date 2024-01-25 16:24:15*
%MOMM*%
%LPD*%
G01*
G04 APERTURE LIST*
%ADD10C,0.100000*%
%ADD11C,0.200000*%
%ADD12C,0.065000*%
%ADD13C,0.075000*%
%ADD14C,0.080000*%
%ADD15C,0.110000*%
%ADD16C,0.120000*%
G04 APERTURE END LIST*
D10*
X0Y7000000D02*
X11000000Y7000000D01*
X11000000Y7000000D02*
X11000000Y0D01*
X11000000Y0D02*
X0Y0D01*
X0Y0D02*
X0Y7000000D01*
D11*
D12*
X4707500Y6492500D02*
X4772500Y6427500D01*
X4772500Y6492500D02*
X4707500Y6427500D01*
X4707500Y6365500D02*
X4772500Y6300500D01*
X4772500Y6365500D02*
X4707500Y6300500D01*
D13*
X4951500Y2172500D02*
G75*
G03*
X4951500Y2172500I-37500J0D01*
G01*
X4951500Y2045500D02*
G75*
G03*
X4951500Y2045500I-37500J0D01*
G01*
X4951500Y1918500D02*
G75*
G03*
X4951500Y1918500I-37500J0D01*
G01*
D14*
X2160000Y4360000D02*
X2160000Y4280000D01*
X2120000Y4320000D02*
X2200000Y4320000D01*
X2270000Y5360000D02*
X2270000Y5280000D01*
X2230000Y5320000D02*
X2310000Y5320000D01*
X5320000Y4670000D02*
X5320000Y4590000D01*
X5280000Y4630000D02*
X5360000Y4630000D01*
X8630000Y5570000D02*
X8630000Y5490000D01*
X8590000Y5530000D02*
X8670000Y5530000D01*
X9380000Y6110000D02*
X9380000Y6030000D01*
X9340000Y6070000D02*
X9420000Y6070000D01*
X9870000Y5570000D02*
X9870000Y5490000D01*
X9830000Y5530000D02*
X9910000Y5530000D01*
X5964284Y1576215D02*
X5964284Y1632784D01*
X5907715Y1632784D01*
X5907715Y1576215D01*
X5964284Y1576215D01*
X5988284Y6051715D02*
X5988284Y6108284D01*
X5931715Y6108284D01*
X5931715Y6051715D01*
X5988284Y6051715D01*
X6218284Y2084215D02*
X6218284Y2140785D01*
X6161715Y2140785D01*
X6161715Y2084215D01*
X6218284Y2084215D01*
X6328284Y6051715D02*
X6328284Y6108284D01*
X6271715Y6108284D01*
X6271715Y6051715D01*
X6328284Y6051715D01*
X6472284Y1576215D02*
X6472284Y1632784D01*
X6415715Y1632784D01*
X6415715Y1576215D01*
X6472284Y1576215D01*
D10*
X3655000Y1365000D02*
X3705000Y1415000D01*
X3655000Y1465000D01*
X3605000Y1415000D01*
X3655000Y1365000D01*
D11*
X3525000Y1365000D02*
X3785000Y1365000D01*
X3785000Y1365000D02*
G75*
G03*
X3785000Y1465000I0J50000D01*
G01*
X3785000Y1465000D02*
X3525000Y1465000D01*
X3525000Y1465000D02*
G75*
G03*
X3525000Y1365000I0J-50000D01*
G01*
D10*
X3655000Y735000D02*
X3705000Y785000D01*
X3655000Y835000D01*
X3605000Y785000D01*
X3655000Y735000D01*
D11*
X3545000Y735000D02*
X3765000Y735000D01*
X3765000Y735000D02*
G75*
G03*
X3765000Y835000I0J50000D01*
G01*
X3765000Y835000D02*
X3545000Y835000D01*
X3545000Y835000D02*
G75*
G03*
X3545000Y735000I0J-50000D01*
G01*
D10*
X4135000Y1075000D02*
X4185000Y1125000D01*
X4135000Y1175000D01*
X4085000Y1125000D01*
X4135000Y1075000D01*
D11*
X4085000Y1235000D02*
X4085000Y1015000D01*
X4085000Y1015000D02*
G75*
G03*
X4185000Y1015000I50000J0D01*
G01*
X4185000Y1015000D02*
X4185000Y1235000D01*
X4185000Y1235000D02*
G75*
G03*
X4085000Y1235000I-50000J0D01*
G01*
D15*
X3641000Y2120500D02*
X3751000Y2010500D01*
X3751000Y2120500D02*
X3641000Y2010500D01*
X3751000Y2065500D02*
G75*
G03*
X3751000Y2065500I-55000J0D01*
G01*
X3895000Y2120500D02*
X4005000Y2010500D01*
X4005000Y2120500D02*
X3895000Y2010500D01*
X4005000Y2065500D02*
G75*
G03*
X4005000Y2065500I-55000J0D01*
G01*
X4149000Y2120500D02*
X4259000Y2010500D01*
X4259000Y2120500D02*
X4149000Y2010500D01*
X4259000Y2065500D02*
G75*
G03*
X4259000Y2065500I-55000J0D01*
G01*
D16*
X1141682Y4761052D02*
X1261682Y4641052D01*
X1261682Y4761052D02*
X1141682Y4641052D01*
X1201682Y4761052D02*
X1201682Y4641052D01*
X1141682Y4701052D02*
X1261682Y4701052D01*
X1283500Y6850500D02*
X1403500Y6730500D01*
X1403500Y6850500D02*
X1283500Y6730500D01*
X1343500Y6850500D02*
X1343500Y6730500D01*
X1283500Y6790500D02*
X1403500Y6790500D01*
X1298051Y5512163D02*
X1418050Y5392163D01*
X1418050Y5512163D02*
X1298051Y5392163D01*
X1358051Y5512163D02*
X1358051Y5392163D01*
X1298051Y5452163D02*
X1418050Y5452163D01*
X1400682Y4761052D02*
X1520682Y4641052D01*
X1520682Y4761052D02*
X1400682Y4641052D01*
X1460682Y4761052D02*
X1460682Y4641052D01*
X1400682Y4701052D02*
X1520682Y4701052D01*
X1660682Y4763052D02*
X1780682Y4643052D01*
X1780682Y4763052D02*
X1660682Y4643052D01*
X1720682Y4763052D02*
X1720682Y4643052D01*
X1660682Y4703052D02*
X1780682Y4703052D01*
X1748502Y6844656D02*
X1868502Y6724656D01*
X1868502Y6844656D02*
X1748502Y6724656D01*
X1808502Y6844656D02*
X1808502Y6724656D01*
X1748502Y6784656D02*
X1868502Y6784656D01*
X1763052Y5506318D02*
X1883052Y5386318D01*
X1883052Y5506318D02*
X1763052Y5386318D01*
X1823052Y5506318D02*
X1823052Y5386318D01*
X1763052Y5446318D02*
X1883052Y5446318D01*
X5310000Y4970000D02*
X5430000Y4850000D01*
X5430000Y4970000D02*
X5310000Y4850000D01*
X5370000Y4970000D02*
X5370000Y4850000D01*
X5310000Y4910000D02*
X5430000Y4910000D01*
X5315844Y5435002D02*
X5435844Y5315002D01*
X5435844Y5435002D02*
X5315844Y5315002D01*
X5375844Y5435002D02*
X5375844Y5315002D01*
X5315844Y5375002D02*
X5435844Y5375002D01*
X6648337Y4984551D02*
X6768337Y4864551D01*
X6768337Y4984551D02*
X6648337Y4864551D01*
X6708337Y4984551D02*
X6708337Y4864551D01*
X6648337Y4924551D02*
X6768337Y4924551D01*
X6654182Y5449552D02*
X6774182Y5329552D01*
X6774182Y5449552D02*
X6654182Y5329552D01*
X6714182Y5449552D02*
X6714182Y5329552D01*
X6654182Y5389552D02*
X6774182Y5389552D01*
X7296000Y2118000D02*
X7416000Y1998000D01*
X7416000Y2118000D02*
X7296000Y1998000D01*
X7356000Y2118000D02*
X7356000Y1998000D01*
X7296000Y2058000D02*
X7416000Y2058000D01*
X7556000Y2120000D02*
X7676000Y2000000D01*
X7676000Y2120000D02*
X7556000Y2000000D01*
X7616000Y2120000D02*
X7616000Y2000000D01*
X7556000Y2060000D02*
X7676000Y2060000D01*
X7815000Y2120000D02*
X7935000Y2000000D01*
X7935000Y2120000D02*
X7815000Y2000000D01*
X7875000Y2120000D02*
X7875000Y2000000D01*
X7815000Y2060000D02*
X7935000Y2060000D01*
X9121000Y4102000D02*
X9241000Y3982000D01*
X9241000Y4102000D02*
X9121000Y3982000D01*
X9181000Y4102000D02*
X9181000Y3982000D01*
X9121000Y4042000D02*
X9241000Y4042000D01*
X9380000Y4102000D02*
X9500000Y3982000D01*
X9500000Y4102000D02*
X9380000Y3982000D01*
X9440000Y4102000D02*
X9440000Y3982000D01*
X9380000Y4042000D02*
X9500000Y4042000D01*
X9640000Y4100000D02*
X9760000Y3980000D01*
X9760000Y4100000D02*
X9640000Y3980000D01*
X9700000Y4100000D02*
X9700000Y3980000D01*
X9640000Y4040000D02*
X9760000Y4040000D01*
X9813000Y5770000D02*
X9933000Y5650000D01*
X9933000Y5770000D02*
X9813000Y5650000D01*
X9873000Y5770000D02*
X9873000Y5650000D01*
X9813000Y5710000D02*
X9933000Y5710000D01*
X9898000Y4100000D02*
X10018000Y3980000D01*
X10018000Y4100000D02*
X9898000Y3980000D01*
X9958000Y4100000D02*
X9958000Y3980000D01*
X9898000Y4040000D02*
X10018000Y4040000D01*
X10072000Y5770000D02*
X10192000Y5650000D01*
X10192000Y5770000D02*
X10072000Y5650000D01*
X10132000Y5770000D02*
X10132000Y5650000D01*
X10072000Y5710000D02*
X10192000Y5710000D01*
X10332000Y5772000D02*
X10452000Y5652000D01*
X10452000Y5772000D02*
X10332000Y5652000D01*
X10392000Y5772000D02*
X10392000Y5652000D01*
X10332000Y5712000D02*
X10452000Y5712000D01*
X10590000Y5772000D02*
X10710000Y5652000D01*
X10710000Y5772000D02*
X10590000Y5652000D01*
X10650000Y5772000D02*
X10650000Y5652000D01*
X10590000Y5712000D02*
X10710000Y5712000D01*
D11*
X242619Y-298476D02*
X242619Y-98476D01*
X242619Y-98476D02*
X290238Y-98476D01*
X290238Y-98476D02*
X318810Y-108000D01*
X318810Y-108000D02*
X337857Y-127048D01*
X337857Y-127048D02*
X347381Y-146095D01*
X347381Y-146095D02*
X356905Y-184190D01*
X356905Y-184190D02*
X356905Y-212762D01*
X356905Y-212762D02*
X347381Y-250857D01*
X347381Y-250857D02*
X337857Y-269905D01*
X337857Y-269905D02*
X318810Y-288952D01*
X318810Y-288952D02*
X290238Y-298476D01*
X290238Y-298476D02*
X242619Y-298476D01*
X442619Y-298476D02*
X442619Y-165143D01*
X442619Y-203238D02*
X452143Y-184190D01*
X452143Y-184190D02*
X461667Y-174667D01*
X461667Y-174667D02*
X480714Y-165143D01*
X480714Y-165143D02*
X499762Y-165143D01*
X566429Y-298476D02*
X566429Y-165143D01*
X566429Y-98476D02*
X556905Y-108000D01*
X556905Y-108000D02*
X566429Y-117524D01*
X566429Y-117524D02*
X575952Y-108000D01*
X575952Y-108000D02*
X566429Y-98476D01*
X566429Y-98476D02*
X566429Y-117524D01*
X690238Y-298476D02*
X671190Y-288952D01*
X671190Y-288952D02*
X661667Y-269905D01*
X661667Y-269905D02*
X661667Y-98476D01*
X795000Y-298476D02*
X775952Y-288952D01*
X775952Y-288952D02*
X766428Y-269905D01*
X766428Y-269905D02*
X766428Y-98476D01*
X991190Y-298476D02*
X991190Y-98476D01*
X991190Y-98476D02*
X1057857Y-241333D01*
X1057857Y-241333D02*
X1124524Y-98476D01*
X1124524Y-98476D02*
X1124524Y-298476D01*
X1305476Y-298476D02*
X1305476Y-193714D01*
X1305476Y-193714D02*
X1295952Y-174667D01*
X1295952Y-174667D02*
X1276905Y-165143D01*
X1276905Y-165143D02*
X1238809Y-165143D01*
X1238809Y-165143D02*
X1219762Y-174667D01*
X1305476Y-288952D02*
X1286429Y-298476D01*
X1286429Y-298476D02*
X1238809Y-298476D01*
X1238809Y-298476D02*
X1219762Y-288952D01*
X1219762Y-288952D02*
X1210238Y-269905D01*
X1210238Y-269905D02*
X1210238Y-250857D01*
X1210238Y-250857D02*
X1219762Y-231809D01*
X1219762Y-231809D02*
X1238809Y-222286D01*
X1238809Y-222286D02*
X1286429Y-222286D01*
X1286429Y-222286D02*
X1305476Y-212762D01*
X1400714Y-165143D02*
X1400714Y-365143D01*
X1400714Y-174667D02*
X1419762Y-165143D01*
X1419762Y-165143D02*
X1457857Y-165143D01*
X1457857Y-165143D02*
X1476905Y-174667D01*
X1476905Y-174667D02*
X1486428Y-184190D01*
X1486428Y-184190D02*
X1495952Y-203238D01*
X1495952Y-203238D02*
X1495952Y-260381D01*
X1495952Y-260381D02*
X1486428Y-279429D01*
X1486428Y-279429D02*
X1476905Y-288952D01*
X1476905Y-288952D02*
X1457857Y-298476D01*
X1457857Y-298476D02*
X1419762Y-298476D01*
X1419762Y-298476D02*
X1400714Y-288952D01*
X1581667Y-279429D02*
X1591190Y-288952D01*
X1591190Y-288952D02*
X1581667Y-298476D01*
X1581667Y-298476D02*
X1572143Y-288952D01*
X1572143Y-288952D02*
X1581667Y-279429D01*
X1581667Y-279429D02*
X1581667Y-298476D01*
X1581667Y-174667D02*
X1591190Y-184190D01*
X1591190Y-184190D02*
X1581667Y-193714D01*
X1581667Y-193714D02*
X1572143Y-184190D01*
X1572143Y-184190D02*
X1581667Y-174667D01*
X1581667Y-174667D02*
X1581667Y-193714D01*
D12*
X-70000Y-612500D02*
X-5000Y-677500D01*
X-5000Y-612500D02*
X-70000Y-677500D01*
D11*
X280714Y-518476D02*
X299762Y-518476D01*
X299762Y-518476D02*
X318810Y-528000D01*
X318810Y-528000D02*
X328333Y-537524D01*
X328333Y-537524D02*
X337857Y-556571D01*
X337857Y-556571D02*
X347381Y-594667D01*
X347381Y-594667D02*
X347381Y-642286D01*
X347381Y-642286D02*
X337857Y-680381D01*
X337857Y-680381D02*
X328333Y-699428D01*
X328333Y-699428D02*
X318810Y-708952D01*
X318810Y-708952D02*
X299762Y-718476D01*
X299762Y-718476D02*
X280714Y-718476D01*
X280714Y-718476D02*
X261667Y-708952D01*
X261667Y-708952D02*
X252143Y-699428D01*
X252143Y-699428D02*
X242619Y-680381D01*
X242619Y-680381D02*
X233095Y-642286D01*
X233095Y-642286D02*
X233095Y-594667D01*
X233095Y-594667D02*
X242619Y-556571D01*
X242619Y-556571D02*
X252143Y-537524D01*
X252143Y-537524D02*
X261667Y-528000D01*
X261667Y-528000D02*
X280714Y-518476D01*
X433095Y-699428D02*
X442619Y-708952D01*
X442619Y-708952D02*
X433095Y-718476D01*
X433095Y-718476D02*
X423571Y-708952D01*
X423571Y-708952D02*
X433095Y-699428D01*
X433095Y-699428D02*
X433095Y-718476D01*
X614048Y-518476D02*
X575952Y-518476D01*
X575952Y-518476D02*
X556905Y-528000D01*
X556905Y-528000D02*
X547381Y-537524D01*
X547381Y-537524D02*
X528333Y-566095D01*
X528333Y-566095D02*
X518809Y-604190D01*
X518809Y-604190D02*
X518809Y-680381D01*
X518809Y-680381D02*
X528333Y-699428D01*
X528333Y-699428D02*
X537857Y-708952D01*
X537857Y-708952D02*
X556905Y-718476D01*
X556905Y-718476D02*
X595000Y-718476D01*
X595000Y-718476D02*
X614048Y-708952D01*
X614048Y-708952D02*
X623571Y-699428D01*
X623571Y-699428D02*
X633095Y-680381D01*
X633095Y-680381D02*
X633095Y-632762D01*
X633095Y-632762D02*
X623571Y-613714D01*
X623571Y-613714D02*
X614048Y-604190D01*
X614048Y-604190D02*
X595000Y-594667D01*
X595000Y-594667D02*
X556905Y-594667D01*
X556905Y-594667D02*
X537857Y-604190D01*
X537857Y-604190D02*
X528333Y-613714D01*
X528333Y-613714D02*
X518809Y-632762D01*
X814048Y-518476D02*
X718809Y-518476D01*
X718809Y-518476D02*
X709286Y-613714D01*
X709286Y-613714D02*
X718809Y-604190D01*
X718809Y-604190D02*
X737857Y-594667D01*
X737857Y-594667D02*
X785476Y-594667D01*
X785476Y-594667D02*
X804524Y-604190D01*
X804524Y-604190D02*
X814048Y-613714D01*
X814048Y-613714D02*
X823571Y-632762D01*
X823571Y-632762D02*
X823571Y-680381D01*
X823571Y-680381D02*
X814048Y-699428D01*
X814048Y-699428D02*
X804524Y-708952D01*
X804524Y-708952D02*
X785476Y-718476D01*
X785476Y-718476D02*
X737857Y-718476D01*
X737857Y-718476D02*
X718809Y-708952D01*
X718809Y-708952D02*
X709286Y-699428D01*
X947381Y-518476D02*
X966429Y-518476D01*
X966429Y-518476D02*
X985476Y-528000D01*
X985476Y-528000D02*
X995000Y-537524D01*
X995000Y-537524D02*
X1004524Y-556571D01*
X1004524Y-556571D02*
X1014048Y-594667D01*
X1014048Y-594667D02*
X1014048Y-642286D01*
X1014048Y-642286D02*
X1004524Y-680381D01*
X1004524Y-680381D02*
X995000Y-699428D01*
X995000Y-699428D02*
X985476Y-708952D01*
X985476Y-708952D02*
X966429Y-718476D01*
X966429Y-718476D02*
X947381Y-718476D01*
X947381Y-718476D02*
X928333Y-708952D01*
X928333Y-708952D02*
X918809Y-699428D01*
X918809Y-699428D02*
X909286Y-680381D01*
X909286Y-680381D02*
X899762Y-642286D01*
X899762Y-642286D02*
X899762Y-594667D01*
X899762Y-594667D02*
X909286Y-556571D01*
X909286Y-556571D02*
X918809Y-537524D01*
X918809Y-537524D02*
X928333Y-528000D01*
X928333Y-528000D02*
X947381Y-518476D01*
X1099762Y-718476D02*
X1099762Y-585143D01*
X1099762Y-604190D02*
X1109286Y-594667D01*
X1109286Y-594667D02*
X1128333Y-585143D01*
X1128333Y-585143D02*
X1156905Y-585143D01*
X1156905Y-585143D02*
X1175952Y-594667D01*
X1175952Y-594667D02*
X1185476Y-613714D01*
X1185476Y-613714D02*
X1185476Y-718476D01*
X1185476Y-613714D02*
X1195000Y-594667D01*
X1195000Y-594667D02*
X1214048Y-585143D01*
X1214048Y-585143D02*
X1242619Y-585143D01*
X1242619Y-585143D02*
X1261667Y-594667D01*
X1261667Y-594667D02*
X1271191Y-613714D01*
X1271191Y-613714D02*
X1271191Y-718476D01*
X1366429Y-718476D02*
X1366429Y-585143D01*
X1366429Y-604190D02*
X1375952Y-594667D01*
X1375952Y-594667D02*
X1395000Y-585143D01*
X1395000Y-585143D02*
X1423571Y-585143D01*
X1423571Y-585143D02*
X1442619Y-594667D01*
X1442619Y-594667D02*
X1452143Y-613714D01*
X1452143Y-613714D02*
X1452143Y-718476D01*
X1452143Y-613714D02*
X1461667Y-594667D01*
X1461667Y-594667D02*
X1480714Y-585143D01*
X1480714Y-585143D02*
X1509286Y-585143D01*
X1509286Y-585143D02*
X1528333Y-594667D01*
X1528333Y-594667D02*
X1537857Y-613714D01*
X1537857Y-613714D02*
X1537857Y-718476D01*
X1895952Y-508952D02*
X1724524Y-766095D01*
X2120714Y-518476D02*
X2139762Y-518476D01*
X2139762Y-518476D02*
X2158810Y-528000D01*
X2158810Y-528000D02*
X2168333Y-537524D01*
X2168333Y-537524D02*
X2177857Y-556571D01*
X2177857Y-556571D02*
X2187381Y-594667D01*
X2187381Y-594667D02*
X2187381Y-642286D01*
X2187381Y-642286D02*
X2177857Y-680381D01*
X2177857Y-680381D02*
X2168333Y-699428D01*
X2168333Y-699428D02*
X2158810Y-708952D01*
X2158810Y-708952D02*
X2139762Y-718476D01*
X2139762Y-718476D02*
X2120714Y-718476D01*
X2120714Y-718476D02*
X2101667Y-708952D01*
X2101667Y-708952D02*
X2092143Y-699428D01*
X2092143Y-699428D02*
X2082619Y-680381D01*
X2082619Y-680381D02*
X2073095Y-642286D01*
X2073095Y-642286D02*
X2073095Y-594667D01*
X2073095Y-594667D02*
X2082619Y-556571D01*
X2082619Y-556571D02*
X2092143Y-537524D01*
X2092143Y-537524D02*
X2101667Y-528000D01*
X2101667Y-528000D02*
X2120714Y-518476D01*
X2273095Y-699428D02*
X2282619Y-708952D01*
X2282619Y-708952D02*
X2273095Y-718476D01*
X2273095Y-718476D02*
X2263572Y-708952D01*
X2263572Y-708952D02*
X2273095Y-699428D01*
X2273095Y-699428D02*
X2273095Y-718476D01*
X2406429Y-518476D02*
X2425476Y-518476D01*
X2425476Y-518476D02*
X2444524Y-528000D01*
X2444524Y-528000D02*
X2454048Y-537524D01*
X2454048Y-537524D02*
X2463572Y-556571D01*
X2463572Y-556571D02*
X2473095Y-594667D01*
X2473095Y-594667D02*
X2473095Y-642286D01*
X2473095Y-642286D02*
X2463572Y-680381D01*
X2463572Y-680381D02*
X2454048Y-699428D01*
X2454048Y-699428D02*
X2444524Y-708952D01*
X2444524Y-708952D02*
X2425476Y-718476D01*
X2425476Y-718476D02*
X2406429Y-718476D01*
X2406429Y-718476D02*
X2387381Y-708952D01*
X2387381Y-708952D02*
X2377857Y-699428D01*
X2377857Y-699428D02*
X2368333Y-680381D01*
X2368333Y-680381D02*
X2358810Y-642286D01*
X2358810Y-642286D02*
X2358810Y-594667D01*
X2358810Y-594667D02*
X2368333Y-556571D01*
X2368333Y-556571D02*
X2377857Y-537524D01*
X2377857Y-537524D02*
X2387381Y-528000D01*
X2387381Y-528000D02*
X2406429Y-518476D01*
X2549286Y-537524D02*
X2558810Y-528000D01*
X2558810Y-528000D02*
X2577857Y-518476D01*
X2577857Y-518476D02*
X2625476Y-518476D01*
X2625476Y-518476D02*
X2644524Y-528000D01*
X2644524Y-528000D02*
X2654048Y-537524D01*
X2654048Y-537524D02*
X2663572Y-556571D01*
X2663572Y-556571D02*
X2663572Y-575619D01*
X2663572Y-575619D02*
X2654048Y-604190D01*
X2654048Y-604190D02*
X2539762Y-718476D01*
X2539762Y-718476D02*
X2663572Y-718476D01*
X2844524Y-518476D02*
X2749286Y-518476D01*
X2749286Y-518476D02*
X2739762Y-613714D01*
X2739762Y-613714D02*
X2749286Y-604190D01*
X2749286Y-604190D02*
X2768333Y-594667D01*
X2768333Y-594667D02*
X2815952Y-594667D01*
X2815952Y-594667D02*
X2835000Y-604190D01*
X2835000Y-604190D02*
X2844524Y-613714D01*
X2844524Y-613714D02*
X2854048Y-632762D01*
X2854048Y-632762D02*
X2854048Y-680381D01*
X2854048Y-680381D02*
X2844524Y-699428D01*
X2844524Y-699428D02*
X2835000Y-708952D01*
X2835000Y-708952D02*
X2815952Y-718476D01*
X2815952Y-718476D02*
X2768333Y-718476D01*
X2768333Y-718476D02*
X2749286Y-708952D01*
X2749286Y-708952D02*
X2739762Y-699428D01*
X3025476Y-518476D02*
X2987381Y-518476D01*
X2987381Y-518476D02*
X2968333Y-528000D01*
X2968333Y-528000D02*
X2958810Y-537524D01*
X2958810Y-537524D02*
X2939762Y-566095D01*
X2939762Y-566095D02*
X2930238Y-604190D01*
X2930238Y-604190D02*
X2930238Y-680381D01*
X2930238Y-680381D02*
X2939762Y-699428D01*
X2939762Y-699428D02*
X2949286Y-708952D01*
X2949286Y-708952D02*
X2968333Y-718476D01*
X2968333Y-718476D02*
X3006429Y-718476D01*
X3006429Y-718476D02*
X3025476Y-708952D01*
X3025476Y-708952D02*
X3035000Y-699428D01*
X3035000Y-699428D02*
X3044524Y-680381D01*
X3044524Y-680381D02*
X3044524Y-632762D01*
X3044524Y-632762D02*
X3035000Y-613714D01*
X3035000Y-613714D02*
X3025476Y-604190D01*
X3025476Y-604190D02*
X3006429Y-594667D01*
X3006429Y-594667D02*
X2968333Y-594667D01*
X2968333Y-594667D02*
X2949286Y-604190D01*
X2949286Y-604190D02*
X2939762Y-613714D01*
X2939762Y-613714D02*
X2930238Y-632762D01*
X3120714Y-518476D02*
X3120714Y-556571D01*
X3196905Y-518476D02*
X3196905Y-556571D01*
X3459762Y-794667D02*
X3450238Y-785143D01*
X3450238Y-785143D02*
X3431191Y-756571D01*
X3431191Y-756571D02*
X3421667Y-737524D01*
X3421667Y-737524D02*
X3412143Y-708952D01*
X3412143Y-708952D02*
X3402619Y-661333D01*
X3402619Y-661333D02*
X3402619Y-623238D01*
X3402619Y-623238D02*
X3412143Y-575619D01*
X3412143Y-575619D02*
X3421667Y-547048D01*
X3421667Y-547048D02*
X3431191Y-528000D01*
X3431191Y-528000D02*
X3450238Y-499428D01*
X3450238Y-499428D02*
X3459762Y-489905D01*
X3526429Y-537524D02*
X3535952Y-528000D01*
X3535952Y-528000D02*
X3555000Y-518476D01*
X3555000Y-518476D02*
X3602619Y-518476D01*
X3602619Y-518476D02*
X3621667Y-528000D01*
X3621667Y-528000D02*
X3631191Y-537524D01*
X3631191Y-537524D02*
X3640714Y-556571D01*
X3640714Y-556571D02*
X3640714Y-575619D01*
X3640714Y-575619D02*
X3631191Y-604190D01*
X3631191Y-604190D02*
X3516905Y-718476D01*
X3516905Y-718476D02*
X3640714Y-718476D01*
X3846429Y-718476D02*
X3846429Y-518476D01*
X3932143Y-718476D02*
X3932143Y-613714D01*
X3932143Y-613714D02*
X3922619Y-594667D01*
X3922619Y-594667D02*
X3903572Y-585143D01*
X3903572Y-585143D02*
X3875000Y-585143D01*
X3875000Y-585143D02*
X3855952Y-594667D01*
X3855952Y-594667D02*
X3846429Y-604190D01*
X4055952Y-718476D02*
X4036905Y-708952D01*
X4036905Y-708952D02*
X4027381Y-699428D01*
X4027381Y-699428D02*
X4017857Y-680381D01*
X4017857Y-680381D02*
X4017857Y-623238D01*
X4017857Y-623238D02*
X4027381Y-604190D01*
X4027381Y-604190D02*
X4036905Y-594667D01*
X4036905Y-594667D02*
X4055952Y-585143D01*
X4055952Y-585143D02*
X4084524Y-585143D01*
X4084524Y-585143D02*
X4103572Y-594667D01*
X4103572Y-594667D02*
X4113095Y-604190D01*
X4113095Y-604190D02*
X4122619Y-623238D01*
X4122619Y-623238D02*
X4122619Y-680381D01*
X4122619Y-680381D02*
X4113095Y-699428D01*
X4113095Y-699428D02*
X4103572Y-708952D01*
X4103572Y-708952D02*
X4084524Y-718476D01*
X4084524Y-718476D02*
X4055952Y-718476D01*
X4236905Y-718476D02*
X4217857Y-708952D01*
X4217857Y-708952D02*
X4208334Y-689905D01*
X4208334Y-689905D02*
X4208334Y-518476D01*
X4389286Y-708952D02*
X4370238Y-718476D01*
X4370238Y-718476D02*
X4332143Y-718476D01*
X4332143Y-718476D02*
X4313095Y-708952D01*
X4313095Y-708952D02*
X4303572Y-689905D01*
X4303572Y-689905D02*
X4303572Y-613714D01*
X4303572Y-613714D02*
X4313095Y-594667D01*
X4313095Y-594667D02*
X4332143Y-585143D01*
X4332143Y-585143D02*
X4370238Y-585143D01*
X4370238Y-585143D02*
X4389286Y-594667D01*
X4389286Y-594667D02*
X4398810Y-613714D01*
X4398810Y-613714D02*
X4398810Y-632762D01*
X4398810Y-632762D02*
X4303572Y-651810D01*
X4475000Y-708952D02*
X4494048Y-718476D01*
X4494048Y-718476D02*
X4532143Y-718476D01*
X4532143Y-718476D02*
X4551191Y-708952D01*
X4551191Y-708952D02*
X4560715Y-689905D01*
X4560715Y-689905D02*
X4560715Y-680381D01*
X4560715Y-680381D02*
X4551191Y-661333D01*
X4551191Y-661333D02*
X4532143Y-651810D01*
X4532143Y-651810D02*
X4503572Y-651810D01*
X4503572Y-651810D02*
X4484524Y-642286D01*
X4484524Y-642286D02*
X4475000Y-623238D01*
X4475000Y-623238D02*
X4475000Y-613714D01*
X4475000Y-613714D02*
X4484524Y-594667D01*
X4484524Y-594667D02*
X4503572Y-585143D01*
X4503572Y-585143D02*
X4532143Y-585143D01*
X4532143Y-585143D02*
X4551191Y-594667D01*
X4627381Y-794667D02*
X4636905Y-785143D01*
X4636905Y-785143D02*
X4655953Y-756571D01*
X4655953Y-756571D02*
X4665476Y-737524D01*
X4665476Y-737524D02*
X4675000Y-708952D01*
X4675000Y-708952D02*
X4684524Y-661333D01*
X4684524Y-661333D02*
X4684524Y-623238D01*
X4684524Y-623238D02*
X4675000Y-575619D01*
X4675000Y-575619D02*
X4665476Y-547048D01*
X4665476Y-547048D02*
X4655953Y-528000D01*
X4655953Y-528000D02*
X4636905Y-499428D01*
X4636905Y-499428D02*
X4627381Y-489905D01*
D13*
X-5000Y-909000D02*
G75*
G03*
X-5000Y-909000I-37500J0D01*
G01*
D11*
X280714Y-782476D02*
X299762Y-782476D01*
X299762Y-782476D02*
X318810Y-792000D01*
X318810Y-792000D02*
X328333Y-801524D01*
X328333Y-801524D02*
X337857Y-820571D01*
X337857Y-820571D02*
X347381Y-858667D01*
X347381Y-858667D02*
X347381Y-906286D01*
X347381Y-906286D02*
X337857Y-944381D01*
X337857Y-944381D02*
X328333Y-963428D01*
X328333Y-963428D02*
X318810Y-972952D01*
X318810Y-972952D02*
X299762Y-982476D01*
X299762Y-982476D02*
X280714Y-982476D01*
X280714Y-982476D02*
X261667Y-972952D01*
X261667Y-972952D02*
X252143Y-963428D01*
X252143Y-963428D02*
X242619Y-944381D01*
X242619Y-944381D02*
X233095Y-906286D01*
X233095Y-906286D02*
X233095Y-858667D01*
X233095Y-858667D02*
X242619Y-820571D01*
X242619Y-820571D02*
X252143Y-801524D01*
X252143Y-801524D02*
X261667Y-792000D01*
X261667Y-792000D02*
X280714Y-782476D01*
X433095Y-963428D02*
X442619Y-972952D01*
X442619Y-972952D02*
X433095Y-982476D01*
X433095Y-982476D02*
X423571Y-972952D01*
X423571Y-972952D02*
X433095Y-963428D01*
X433095Y-963428D02*
X433095Y-982476D01*
X509286Y-782476D02*
X642619Y-782476D01*
X642619Y-782476D02*
X556905Y-982476D01*
X814048Y-782476D02*
X718809Y-782476D01*
X718809Y-782476D02*
X709286Y-877714D01*
X709286Y-877714D02*
X718809Y-868190D01*
X718809Y-868190D02*
X737857Y-858667D01*
X737857Y-858667D02*
X785476Y-858667D01*
X785476Y-858667D02*
X804524Y-868190D01*
X804524Y-868190D02*
X814048Y-877714D01*
X814048Y-877714D02*
X823571Y-896762D01*
X823571Y-896762D02*
X823571Y-944381D01*
X823571Y-944381D02*
X814048Y-963428D01*
X814048Y-963428D02*
X804524Y-972952D01*
X804524Y-972952D02*
X785476Y-982476D01*
X785476Y-982476D02*
X737857Y-982476D01*
X737857Y-982476D02*
X718809Y-972952D01*
X718809Y-972952D02*
X709286Y-963428D01*
X947381Y-782476D02*
X966429Y-782476D01*
X966429Y-782476D02*
X985476Y-792000D01*
X985476Y-792000D02*
X995000Y-801524D01*
X995000Y-801524D02*
X1004524Y-820571D01*
X1004524Y-820571D02*
X1014048Y-858667D01*
X1014048Y-858667D02*
X1014048Y-906286D01*
X1014048Y-906286D02*
X1004524Y-944381D01*
X1004524Y-944381D02*
X995000Y-963428D01*
X995000Y-963428D02*
X985476Y-972952D01*
X985476Y-972952D02*
X966429Y-982476D01*
X966429Y-982476D02*
X947381Y-982476D01*
X947381Y-982476D02*
X928333Y-972952D01*
X928333Y-972952D02*
X918809Y-963428D01*
X918809Y-963428D02*
X909286Y-944381D01*
X909286Y-944381D02*
X899762Y-906286D01*
X899762Y-906286D02*
X899762Y-858667D01*
X899762Y-858667D02*
X909286Y-820571D01*
X909286Y-820571D02*
X918809Y-801524D01*
X918809Y-801524D02*
X928333Y-792000D01*
X928333Y-792000D02*
X947381Y-782476D01*
X1099762Y-982476D02*
X1099762Y-849143D01*
X1099762Y-868190D02*
X1109286Y-858667D01*
X1109286Y-858667D02*
X1128333Y-849143D01*
X1128333Y-849143D02*
X1156905Y-849143D01*
X1156905Y-849143D02*
X1175952Y-858667D01*
X1175952Y-858667D02*
X1185476Y-877714D01*
X1185476Y-877714D02*
X1185476Y-982476D01*
X1185476Y-877714D02*
X1195000Y-858667D01*
X1195000Y-858667D02*
X1214048Y-849143D01*
X1214048Y-849143D02*
X1242619Y-849143D01*
X1242619Y-849143D02*
X1261667Y-858667D01*
X1261667Y-858667D02*
X1271191Y-877714D01*
X1271191Y-877714D02*
X1271191Y-982476D01*
X1366429Y-982476D02*
X1366429Y-849143D01*
X1366429Y-868190D02*
X1375952Y-858667D01*
X1375952Y-858667D02*
X1395000Y-849143D01*
X1395000Y-849143D02*
X1423571Y-849143D01*
X1423571Y-849143D02*
X1442619Y-858667D01*
X1442619Y-858667D02*
X1452143Y-877714D01*
X1452143Y-877714D02*
X1452143Y-982476D01*
X1452143Y-877714D02*
X1461667Y-858667D01*
X1461667Y-858667D02*
X1480714Y-849143D01*
X1480714Y-849143D02*
X1509286Y-849143D01*
X1509286Y-849143D02*
X1528333Y-858667D01*
X1528333Y-858667D02*
X1537857Y-877714D01*
X1537857Y-877714D02*
X1537857Y-982476D01*
X1895952Y-772952D02*
X1724524Y-1030095D01*
X2120714Y-782476D02*
X2139762Y-782476D01*
X2139762Y-782476D02*
X2158810Y-792000D01*
X2158810Y-792000D02*
X2168333Y-801524D01*
X2168333Y-801524D02*
X2177857Y-820571D01*
X2177857Y-820571D02*
X2187381Y-858667D01*
X2187381Y-858667D02*
X2187381Y-906286D01*
X2187381Y-906286D02*
X2177857Y-944381D01*
X2177857Y-944381D02*
X2168333Y-963428D01*
X2168333Y-963428D02*
X2158810Y-972952D01*
X2158810Y-972952D02*
X2139762Y-982476D01*
X2139762Y-982476D02*
X2120714Y-982476D01*
X2120714Y-982476D02*
X2101667Y-972952D01*
X2101667Y-972952D02*
X2092143Y-963428D01*
X2092143Y-963428D02*
X2082619Y-944381D01*
X2082619Y-944381D02*
X2073095Y-906286D01*
X2073095Y-906286D02*
X2073095Y-858667D01*
X2073095Y-858667D02*
X2082619Y-820571D01*
X2082619Y-820571D02*
X2092143Y-801524D01*
X2092143Y-801524D02*
X2101667Y-792000D01*
X2101667Y-792000D02*
X2120714Y-782476D01*
X2273095Y-963428D02*
X2282619Y-972952D01*
X2282619Y-972952D02*
X2273095Y-982476D01*
X2273095Y-982476D02*
X2263572Y-972952D01*
X2263572Y-972952D02*
X2273095Y-963428D01*
X2273095Y-963428D02*
X2273095Y-982476D01*
X2406429Y-782476D02*
X2425476Y-782476D01*
X2425476Y-782476D02*
X2444524Y-792000D01*
X2444524Y-792000D02*
X2454048Y-801524D01*
X2454048Y-801524D02*
X2463572Y-820571D01*
X2463572Y-820571D02*
X2473095Y-858667D01*
X2473095Y-858667D02*
X2473095Y-906286D01*
X2473095Y-906286D02*
X2463572Y-944381D01*
X2463572Y-944381D02*
X2454048Y-963428D01*
X2454048Y-963428D02*
X2444524Y-972952D01*
X2444524Y-972952D02*
X2425476Y-982476D01*
X2425476Y-982476D02*
X2406429Y-982476D01*
X2406429Y-982476D02*
X2387381Y-972952D01*
X2387381Y-972952D02*
X2377857Y-963428D01*
X2377857Y-963428D02*
X2368333Y-944381D01*
X2368333Y-944381D02*
X2358810Y-906286D01*
X2358810Y-906286D02*
X2358810Y-858667D01*
X2358810Y-858667D02*
X2368333Y-820571D01*
X2368333Y-820571D02*
X2377857Y-801524D01*
X2377857Y-801524D02*
X2387381Y-792000D01*
X2387381Y-792000D02*
X2406429Y-782476D01*
X2549286Y-801524D02*
X2558810Y-792000D01*
X2558810Y-792000D02*
X2577857Y-782476D01*
X2577857Y-782476D02*
X2625476Y-782476D01*
X2625476Y-782476D02*
X2644524Y-792000D01*
X2644524Y-792000D02*
X2654048Y-801524D01*
X2654048Y-801524D02*
X2663572Y-820571D01*
X2663572Y-820571D02*
X2663572Y-839619D01*
X2663572Y-839619D02*
X2654048Y-868190D01*
X2654048Y-868190D02*
X2539762Y-982476D01*
X2539762Y-982476D02*
X2663572Y-982476D01*
X2758810Y-982476D02*
X2796905Y-982476D01*
X2796905Y-982476D02*
X2815952Y-972952D01*
X2815952Y-972952D02*
X2825476Y-963428D01*
X2825476Y-963428D02*
X2844524Y-934857D01*
X2844524Y-934857D02*
X2854048Y-896762D01*
X2854048Y-896762D02*
X2854048Y-820571D01*
X2854048Y-820571D02*
X2844524Y-801524D01*
X2844524Y-801524D02*
X2835000Y-792000D01*
X2835000Y-792000D02*
X2815952Y-782476D01*
X2815952Y-782476D02*
X2777857Y-782476D01*
X2777857Y-782476D02*
X2758810Y-792000D01*
X2758810Y-792000D02*
X2749286Y-801524D01*
X2749286Y-801524D02*
X2739762Y-820571D01*
X2739762Y-820571D02*
X2739762Y-868190D01*
X2739762Y-868190D02*
X2749286Y-887238D01*
X2749286Y-887238D02*
X2758810Y-896762D01*
X2758810Y-896762D02*
X2777857Y-906286D01*
X2777857Y-906286D02*
X2815952Y-906286D01*
X2815952Y-906286D02*
X2835000Y-896762D01*
X2835000Y-896762D02*
X2844524Y-887238D01*
X2844524Y-887238D02*
X2854048Y-868190D01*
X3035000Y-782476D02*
X2939762Y-782476D01*
X2939762Y-782476D02*
X2930238Y-877714D01*
X2930238Y-877714D02*
X2939762Y-868190D01*
X2939762Y-868190D02*
X2958810Y-858667D01*
X2958810Y-858667D02*
X3006429Y-858667D01*
X3006429Y-858667D02*
X3025476Y-868190D01*
X3025476Y-868190D02*
X3035000Y-877714D01*
X3035000Y-877714D02*
X3044524Y-896762D01*
X3044524Y-896762D02*
X3044524Y-944381D01*
X3044524Y-944381D02*
X3035000Y-963428D01*
X3035000Y-963428D02*
X3025476Y-972952D01*
X3025476Y-972952D02*
X3006429Y-982476D01*
X3006429Y-982476D02*
X2958810Y-982476D01*
X2958810Y-982476D02*
X2939762Y-972952D01*
X2939762Y-972952D02*
X2930238Y-963428D01*
X3120714Y-782476D02*
X3120714Y-820571D01*
X3196905Y-782476D02*
X3196905Y-820571D01*
X3459762Y-1058667D02*
X3450238Y-1049143D01*
X3450238Y-1049143D02*
X3431191Y-1020571D01*
X3431191Y-1020571D02*
X3421667Y-1001524D01*
X3421667Y-1001524D02*
X3412143Y-972952D01*
X3412143Y-972952D02*
X3402619Y-925333D01*
X3402619Y-925333D02*
X3402619Y-887238D01*
X3402619Y-887238D02*
X3412143Y-839619D01*
X3412143Y-839619D02*
X3421667Y-811048D01*
X3421667Y-811048D02*
X3431191Y-792000D01*
X3431191Y-792000D02*
X3450238Y-763428D01*
X3450238Y-763428D02*
X3459762Y-753905D01*
X3516905Y-782476D02*
X3640714Y-782476D01*
X3640714Y-782476D02*
X3574048Y-858667D01*
X3574048Y-858667D02*
X3602619Y-858667D01*
X3602619Y-858667D02*
X3621667Y-868190D01*
X3621667Y-868190D02*
X3631191Y-877714D01*
X3631191Y-877714D02*
X3640714Y-896762D01*
X3640714Y-896762D02*
X3640714Y-944381D01*
X3640714Y-944381D02*
X3631191Y-963428D01*
X3631191Y-963428D02*
X3621667Y-972952D01*
X3621667Y-972952D02*
X3602619Y-982476D01*
X3602619Y-982476D02*
X3545476Y-982476D01*
X3545476Y-982476D02*
X3526429Y-972952D01*
X3526429Y-972952D02*
X3516905Y-963428D01*
X3846429Y-982476D02*
X3846429Y-782476D01*
X3932143Y-982476D02*
X3932143Y-877714D01*
X3932143Y-877714D02*
X3922619Y-858667D01*
X3922619Y-858667D02*
X3903572Y-849143D01*
X3903572Y-849143D02*
X3875000Y-849143D01*
X3875000Y-849143D02*
X3855952Y-858667D01*
X3855952Y-858667D02*
X3846429Y-868190D01*
X4055952Y-982476D02*
X4036905Y-972952D01*
X4036905Y-972952D02*
X4027381Y-963428D01*
X4027381Y-963428D02*
X4017857Y-944381D01*
X4017857Y-944381D02*
X4017857Y-887238D01*
X4017857Y-887238D02*
X4027381Y-868190D01*
X4027381Y-868190D02*
X4036905Y-858667D01*
X4036905Y-858667D02*
X4055952Y-849143D01*
X4055952Y-849143D02*
X4084524Y-849143D01*
X4084524Y-849143D02*
X4103572Y-858667D01*
X4103572Y-858667D02*
X4113095Y-868190D01*
X4113095Y-868190D02*
X4122619Y-887238D01*
X4122619Y-887238D02*
X4122619Y-944381D01*
X4122619Y-944381D02*
X4113095Y-963428D01*
X4113095Y-963428D02*
X4103572Y-972952D01*
X4103572Y-972952D02*
X4084524Y-982476D01*
X4084524Y-982476D02*
X4055952Y-982476D01*
X4236905Y-982476D02*
X4217857Y-972952D01*
X4217857Y-972952D02*
X4208334Y-953905D01*
X4208334Y-953905D02*
X4208334Y-782476D01*
X4389286Y-972952D02*
X4370238Y-982476D01*
X4370238Y-982476D02*
X4332143Y-982476D01*
X4332143Y-982476D02*
X4313095Y-972952D01*
X4313095Y-972952D02*
X4303572Y-953905D01*
X4303572Y-953905D02*
X4303572Y-877714D01*
X4303572Y-877714D02*
X4313095Y-858667D01*
X4313095Y-858667D02*
X4332143Y-849143D01*
X4332143Y-849143D02*
X4370238Y-849143D01*
X4370238Y-849143D02*
X4389286Y-858667D01*
X4389286Y-858667D02*
X4398810Y-877714D01*
X4398810Y-877714D02*
X4398810Y-896762D01*
X4398810Y-896762D02*
X4303572Y-915809D01*
X4475000Y-972952D02*
X4494048Y-982476D01*
X4494048Y-982476D02*
X4532143Y-982476D01*
X4532143Y-982476D02*
X4551191Y-972952D01*
X4551191Y-972952D02*
X4560715Y-953905D01*
X4560715Y-953905D02*
X4560715Y-944381D01*
X4560715Y-944381D02*
X4551191Y-925333D01*
X4551191Y-925333D02*
X4532143Y-915809D01*
X4532143Y-915809D02*
X4503572Y-915809D01*
X4503572Y-915809D02*
X4484524Y-906286D01*
X4484524Y-906286D02*
X4475000Y-887238D01*
X4475000Y-887238D02*
X4475000Y-877714D01*
X4475000Y-877714D02*
X4484524Y-858667D01*
X4484524Y-858667D02*
X4503572Y-849143D01*
X4503572Y-849143D02*
X4532143Y-849143D01*
X4532143Y-849143D02*
X4551191Y-858667D01*
X4627381Y-1058667D02*
X4636905Y-1049143D01*
X4636905Y-1049143D02*
X4655953Y-1020571D01*
X4655953Y-1020571D02*
X4665476Y-1001524D01*
X4665476Y-1001524D02*
X4675000Y-972952D01*
X4675000Y-972952D02*
X4684524Y-925333D01*
X4684524Y-925333D02*
X4684524Y-887238D01*
X4684524Y-887238D02*
X4675000Y-839619D01*
X4675000Y-839619D02*
X4665476Y-811048D01*
X4665476Y-811048D02*
X4655953Y-792000D01*
X4655953Y-792000D02*
X4636905Y-763428D01*
X4636905Y-763428D02*
X4627381Y-753905D01*
D14*
X-45000Y-1133000D02*
X-45000Y-1213000D01*
X-85000Y-1173000D02*
X-5000Y-1173000D01*
D11*
X280714Y-1046476D02*
X299762Y-1046476D01*
X299762Y-1046476D02*
X318810Y-1056000D01*
X318810Y-1056000D02*
X328333Y-1065524D01*
X328333Y-1065524D02*
X337857Y-1084571D01*
X337857Y-1084571D02*
X347381Y-1122667D01*
X347381Y-1122667D02*
X347381Y-1170286D01*
X347381Y-1170286D02*
X337857Y-1208381D01*
X337857Y-1208381D02*
X328333Y-1227429D01*
X328333Y-1227429D02*
X318810Y-1236952D01*
X318810Y-1236952D02*
X299762Y-1246476D01*
X299762Y-1246476D02*
X280714Y-1246476D01*
X280714Y-1246476D02*
X261667Y-1236952D01*
X261667Y-1236952D02*
X252143Y-1227429D01*
X252143Y-1227429D02*
X242619Y-1208381D01*
X242619Y-1208381D02*
X233095Y-1170286D01*
X233095Y-1170286D02*
X233095Y-1122667D01*
X233095Y-1122667D02*
X242619Y-1084571D01*
X242619Y-1084571D02*
X252143Y-1065524D01*
X252143Y-1065524D02*
X261667Y-1056000D01*
X261667Y-1056000D02*
X280714Y-1046476D01*
X433095Y-1227429D02*
X442619Y-1236952D01*
X442619Y-1236952D02*
X433095Y-1246476D01*
X433095Y-1246476D02*
X423571Y-1236952D01*
X423571Y-1236952D02*
X433095Y-1227429D01*
X433095Y-1227429D02*
X433095Y-1246476D01*
X556905Y-1132190D02*
X537857Y-1122667D01*
X537857Y-1122667D02*
X528333Y-1113143D01*
X528333Y-1113143D02*
X518809Y-1094095D01*
X518809Y-1094095D02*
X518809Y-1084571D01*
X518809Y-1084571D02*
X528333Y-1065524D01*
X528333Y-1065524D02*
X537857Y-1056000D01*
X537857Y-1056000D02*
X556905Y-1046476D01*
X556905Y-1046476D02*
X595000Y-1046476D01*
X595000Y-1046476D02*
X614048Y-1056000D01*
X614048Y-1056000D02*
X623571Y-1065524D01*
X623571Y-1065524D02*
X633095Y-1084571D01*
X633095Y-1084571D02*
X633095Y-1094095D01*
X633095Y-1094095D02*
X623571Y-1113143D01*
X623571Y-1113143D02*
X614048Y-1122667D01*
X614048Y-1122667D02*
X595000Y-1132190D01*
X595000Y-1132190D02*
X556905Y-1132190D01*
X556905Y-1132190D02*
X537857Y-1141714D01*
X537857Y-1141714D02*
X528333Y-1151238D01*
X528333Y-1151238D02*
X518809Y-1170286D01*
X518809Y-1170286D02*
X518809Y-1208381D01*
X518809Y-1208381D02*
X528333Y-1227429D01*
X528333Y-1227429D02*
X537857Y-1236952D01*
X537857Y-1236952D02*
X556905Y-1246476D01*
X556905Y-1246476D02*
X595000Y-1246476D01*
X595000Y-1246476D02*
X614048Y-1236952D01*
X614048Y-1236952D02*
X623571Y-1227429D01*
X623571Y-1227429D02*
X633095Y-1208381D01*
X633095Y-1208381D02*
X633095Y-1170286D01*
X633095Y-1170286D02*
X623571Y-1151238D01*
X623571Y-1151238D02*
X614048Y-1141714D01*
X614048Y-1141714D02*
X595000Y-1132190D01*
X756905Y-1046476D02*
X775952Y-1046476D01*
X775952Y-1046476D02*
X795000Y-1056000D01*
X795000Y-1056000D02*
X804524Y-1065524D01*
X804524Y-1065524D02*
X814048Y-1084571D01*
X814048Y-1084571D02*
X823571Y-1122667D01*
X823571Y-1122667D02*
X823571Y-1170286D01*
X823571Y-1170286D02*
X814048Y-1208381D01*
X814048Y-1208381D02*
X804524Y-1227429D01*
X804524Y-1227429D02*
X795000Y-1236952D01*
X795000Y-1236952D02*
X775952Y-1246476D01*
X775952Y-1246476D02*
X756905Y-1246476D01*
X756905Y-1246476D02*
X737857Y-1236952D01*
X737857Y-1236952D02*
X728333Y-1227429D01*
X728333Y-1227429D02*
X718809Y-1208381D01*
X718809Y-1208381D02*
X709286Y-1170286D01*
X709286Y-1170286D02*
X709286Y-1122667D01*
X709286Y-1122667D02*
X718809Y-1084571D01*
X718809Y-1084571D02*
X728333Y-1065524D01*
X728333Y-1065524D02*
X737857Y-1056000D01*
X737857Y-1056000D02*
X756905Y-1046476D01*
X947381Y-1046476D02*
X966429Y-1046476D01*
X966429Y-1046476D02*
X985476Y-1056000D01*
X985476Y-1056000D02*
X995000Y-1065524D01*
X995000Y-1065524D02*
X1004524Y-1084571D01*
X1004524Y-1084571D02*
X1014048Y-1122667D01*
X1014048Y-1122667D02*
X1014048Y-1170286D01*
X1014048Y-1170286D02*
X1004524Y-1208381D01*
X1004524Y-1208381D02*
X995000Y-1227429D01*
X995000Y-1227429D02*
X985476Y-1236952D01*
X985476Y-1236952D02*
X966429Y-1246476D01*
X966429Y-1246476D02*
X947381Y-1246476D01*
X947381Y-1246476D02*
X928333Y-1236952D01*
X928333Y-1236952D02*
X918809Y-1227429D01*
X918809Y-1227429D02*
X909286Y-1208381D01*
X909286Y-1208381D02*
X899762Y-1170286D01*
X899762Y-1170286D02*
X899762Y-1122667D01*
X899762Y-1122667D02*
X909286Y-1084571D01*
X909286Y-1084571D02*
X918809Y-1065524D01*
X918809Y-1065524D02*
X928333Y-1056000D01*
X928333Y-1056000D02*
X947381Y-1046476D01*
X1099762Y-1246476D02*
X1099762Y-1113143D01*
X1099762Y-1132190D02*
X1109286Y-1122667D01*
X1109286Y-1122667D02*
X1128333Y-1113143D01*
X1128333Y-1113143D02*
X1156905Y-1113143D01*
X1156905Y-1113143D02*
X1175952Y-1122667D01*
X1175952Y-1122667D02*
X1185476Y-1141714D01*
X1185476Y-1141714D02*
X1185476Y-1246476D01*
X1185476Y-1141714D02*
X1195000Y-1122667D01*
X1195000Y-1122667D02*
X1214048Y-1113143D01*
X1214048Y-1113143D02*
X1242619Y-1113143D01*
X1242619Y-1113143D02*
X1261667Y-1122667D01*
X1261667Y-1122667D02*
X1271191Y-1141714D01*
X1271191Y-1141714D02*
X1271191Y-1246476D01*
X1366429Y-1246476D02*
X1366429Y-1113143D01*
X1366429Y-1132190D02*
X1375952Y-1122667D01*
X1375952Y-1122667D02*
X1395000Y-1113143D01*
X1395000Y-1113143D02*
X1423571Y-1113143D01*
X1423571Y-1113143D02*
X1442619Y-1122667D01*
X1442619Y-1122667D02*
X1452143Y-1141714D01*
X1452143Y-1141714D02*
X1452143Y-1246476D01*
X1452143Y-1141714D02*
X1461667Y-1122667D01*
X1461667Y-1122667D02*
X1480714Y-1113143D01*
X1480714Y-1113143D02*
X1509286Y-1113143D01*
X1509286Y-1113143D02*
X1528333Y-1122667D01*
X1528333Y-1122667D02*
X1537857Y-1141714D01*
X1537857Y-1141714D02*
X1537857Y-1246476D01*
X1895952Y-1036952D02*
X1724524Y-1294095D01*
X2120714Y-1046476D02*
X2139762Y-1046476D01*
X2139762Y-1046476D02*
X2158810Y-1056000D01*
X2158810Y-1056000D02*
X2168333Y-1065524D01*
X2168333Y-1065524D02*
X2177857Y-1084571D01*
X2177857Y-1084571D02*
X2187381Y-1122667D01*
X2187381Y-1122667D02*
X2187381Y-1170286D01*
X2187381Y-1170286D02*
X2177857Y-1208381D01*
X2177857Y-1208381D02*
X2168333Y-1227429D01*
X2168333Y-1227429D02*
X2158810Y-1236952D01*
X2158810Y-1236952D02*
X2139762Y-1246476D01*
X2139762Y-1246476D02*
X2120714Y-1246476D01*
X2120714Y-1246476D02*
X2101667Y-1236952D01*
X2101667Y-1236952D02*
X2092143Y-1227429D01*
X2092143Y-1227429D02*
X2082619Y-1208381D01*
X2082619Y-1208381D02*
X2073095Y-1170286D01*
X2073095Y-1170286D02*
X2073095Y-1122667D01*
X2073095Y-1122667D02*
X2082619Y-1084571D01*
X2082619Y-1084571D02*
X2092143Y-1065524D01*
X2092143Y-1065524D02*
X2101667Y-1056000D01*
X2101667Y-1056000D02*
X2120714Y-1046476D01*
X2273095Y-1227429D02*
X2282619Y-1236952D01*
X2282619Y-1236952D02*
X2273095Y-1246476D01*
X2273095Y-1246476D02*
X2263572Y-1236952D01*
X2263572Y-1236952D02*
X2273095Y-1227429D01*
X2273095Y-1227429D02*
X2273095Y-1246476D01*
X2406429Y-1046476D02*
X2425476Y-1046476D01*
X2425476Y-1046476D02*
X2444524Y-1056000D01*
X2444524Y-1056000D02*
X2454048Y-1065524D01*
X2454048Y-1065524D02*
X2463572Y-1084571D01*
X2463572Y-1084571D02*
X2473095Y-1122667D01*
X2473095Y-1122667D02*
X2473095Y-1170286D01*
X2473095Y-1170286D02*
X2463572Y-1208381D01*
X2463572Y-1208381D02*
X2454048Y-1227429D01*
X2454048Y-1227429D02*
X2444524Y-1236952D01*
X2444524Y-1236952D02*
X2425476Y-1246476D01*
X2425476Y-1246476D02*
X2406429Y-1246476D01*
X2406429Y-1246476D02*
X2387381Y-1236952D01*
X2387381Y-1236952D02*
X2377857Y-1227429D01*
X2377857Y-1227429D02*
X2368333Y-1208381D01*
X2368333Y-1208381D02*
X2358810Y-1170286D01*
X2358810Y-1170286D02*
X2358810Y-1122667D01*
X2358810Y-1122667D02*
X2368333Y-1084571D01*
X2368333Y-1084571D02*
X2377857Y-1065524D01*
X2377857Y-1065524D02*
X2387381Y-1056000D01*
X2387381Y-1056000D02*
X2406429Y-1046476D01*
X2539762Y-1046476D02*
X2663572Y-1046476D01*
X2663572Y-1046476D02*
X2596905Y-1122667D01*
X2596905Y-1122667D02*
X2625476Y-1122667D01*
X2625476Y-1122667D02*
X2644524Y-1132190D01*
X2644524Y-1132190D02*
X2654048Y-1141714D01*
X2654048Y-1141714D02*
X2663572Y-1160762D01*
X2663572Y-1160762D02*
X2663572Y-1208381D01*
X2663572Y-1208381D02*
X2654048Y-1227429D01*
X2654048Y-1227429D02*
X2644524Y-1236952D01*
X2644524Y-1236952D02*
X2625476Y-1246476D01*
X2625476Y-1246476D02*
X2568333Y-1246476D01*
X2568333Y-1246476D02*
X2549286Y-1236952D01*
X2549286Y-1236952D02*
X2539762Y-1227429D01*
X2854048Y-1246476D02*
X2739762Y-1246476D01*
X2796905Y-1246476D02*
X2796905Y-1046476D01*
X2796905Y-1046476D02*
X2777857Y-1075048D01*
X2777857Y-1075048D02*
X2758810Y-1094095D01*
X2758810Y-1094095D02*
X2739762Y-1103619D01*
X3035000Y-1046476D02*
X2939762Y-1046476D01*
X2939762Y-1046476D02*
X2930238Y-1141714D01*
X2930238Y-1141714D02*
X2939762Y-1132190D01*
X2939762Y-1132190D02*
X2958810Y-1122667D01*
X2958810Y-1122667D02*
X3006429Y-1122667D01*
X3006429Y-1122667D02*
X3025476Y-1132190D01*
X3025476Y-1132190D02*
X3035000Y-1141714D01*
X3035000Y-1141714D02*
X3044524Y-1160762D01*
X3044524Y-1160762D02*
X3044524Y-1208381D01*
X3044524Y-1208381D02*
X3035000Y-1227429D01*
X3035000Y-1227429D02*
X3025476Y-1236952D01*
X3025476Y-1236952D02*
X3006429Y-1246476D01*
X3006429Y-1246476D02*
X2958810Y-1246476D01*
X2958810Y-1246476D02*
X2939762Y-1236952D01*
X2939762Y-1236952D02*
X2930238Y-1227429D01*
X3120714Y-1046476D02*
X3120714Y-1084571D01*
X3196905Y-1046476D02*
X3196905Y-1084571D01*
X3459762Y-1322667D02*
X3450238Y-1313143D01*
X3450238Y-1313143D02*
X3431191Y-1284571D01*
X3431191Y-1284571D02*
X3421667Y-1265524D01*
X3421667Y-1265524D02*
X3412143Y-1236952D01*
X3412143Y-1236952D02*
X3402619Y-1189333D01*
X3402619Y-1189333D02*
X3402619Y-1151238D01*
X3402619Y-1151238D02*
X3412143Y-1103619D01*
X3412143Y-1103619D02*
X3421667Y-1075048D01*
X3421667Y-1075048D02*
X3431191Y-1056000D01*
X3431191Y-1056000D02*
X3450238Y-1027428D01*
X3450238Y-1027428D02*
X3459762Y-1017905D01*
X3621667Y-1046476D02*
X3583571Y-1046476D01*
X3583571Y-1046476D02*
X3564524Y-1056000D01*
X3564524Y-1056000D02*
X3555000Y-1065524D01*
X3555000Y-1065524D02*
X3535952Y-1094095D01*
X3535952Y-1094095D02*
X3526429Y-1132190D01*
X3526429Y-1132190D02*
X3526429Y-1208381D01*
X3526429Y-1208381D02*
X3535952Y-1227429D01*
X3535952Y-1227429D02*
X3545476Y-1236952D01*
X3545476Y-1236952D02*
X3564524Y-1246476D01*
X3564524Y-1246476D02*
X3602619Y-1246476D01*
X3602619Y-1246476D02*
X3621667Y-1236952D01*
X3621667Y-1236952D02*
X3631191Y-1227429D01*
X3631191Y-1227429D02*
X3640714Y-1208381D01*
X3640714Y-1208381D02*
X3640714Y-1160762D01*
X3640714Y-1160762D02*
X3631191Y-1141714D01*
X3631191Y-1141714D02*
X3621667Y-1132190D01*
X3621667Y-1132190D02*
X3602619Y-1122667D01*
X3602619Y-1122667D02*
X3564524Y-1122667D01*
X3564524Y-1122667D02*
X3545476Y-1132190D01*
X3545476Y-1132190D02*
X3535952Y-1141714D01*
X3535952Y-1141714D02*
X3526429Y-1160762D01*
X3846429Y-1246476D02*
X3846429Y-1046476D01*
X3932143Y-1246476D02*
X3932143Y-1141714D01*
X3932143Y-1141714D02*
X3922619Y-1122667D01*
X3922619Y-1122667D02*
X3903572Y-1113143D01*
X3903572Y-1113143D02*
X3875000Y-1113143D01*
X3875000Y-1113143D02*
X3855952Y-1122667D01*
X3855952Y-1122667D02*
X3846429Y-1132190D01*
X4055952Y-1246476D02*
X4036905Y-1236952D01*
X4036905Y-1236952D02*
X4027381Y-1227429D01*
X4027381Y-1227429D02*
X4017857Y-1208381D01*
X4017857Y-1208381D02*
X4017857Y-1151238D01*
X4017857Y-1151238D02*
X4027381Y-1132190D01*
X4027381Y-1132190D02*
X4036905Y-1122667D01*
X4036905Y-1122667D02*
X4055952Y-1113143D01*
X4055952Y-1113143D02*
X4084524Y-1113143D01*
X4084524Y-1113143D02*
X4103572Y-1122667D01*
X4103572Y-1122667D02*
X4113095Y-1132190D01*
X4113095Y-1132190D02*
X4122619Y-1151238D01*
X4122619Y-1151238D02*
X4122619Y-1208381D01*
X4122619Y-1208381D02*
X4113095Y-1227429D01*
X4113095Y-1227429D02*
X4103572Y-1236952D01*
X4103572Y-1236952D02*
X4084524Y-1246476D01*
X4084524Y-1246476D02*
X4055952Y-1246476D01*
X4236905Y-1246476D02*
X4217857Y-1236952D01*
X4217857Y-1236952D02*
X4208334Y-1217905D01*
X4208334Y-1217905D02*
X4208334Y-1046476D01*
X4389286Y-1236952D02*
X4370238Y-1246476D01*
X4370238Y-1246476D02*
X4332143Y-1246476D01*
X4332143Y-1246476D02*
X4313095Y-1236952D01*
X4313095Y-1236952D02*
X4303572Y-1217905D01*
X4303572Y-1217905D02*
X4303572Y-1141714D01*
X4303572Y-1141714D02*
X4313095Y-1122667D01*
X4313095Y-1122667D02*
X4332143Y-1113143D01*
X4332143Y-1113143D02*
X4370238Y-1113143D01*
X4370238Y-1113143D02*
X4389286Y-1122667D01*
X4389286Y-1122667D02*
X4398810Y-1141714D01*
X4398810Y-1141714D02*
X4398810Y-1160762D01*
X4398810Y-1160762D02*
X4303572Y-1179810D01*
X4475000Y-1236952D02*
X4494048Y-1246476D01*
X4494048Y-1246476D02*
X4532143Y-1246476D01*
X4532143Y-1246476D02*
X4551191Y-1236952D01*
X4551191Y-1236952D02*
X4560715Y-1217905D01*
X4560715Y-1217905D02*
X4560715Y-1208381D01*
X4560715Y-1208381D02*
X4551191Y-1189333D01*
X4551191Y-1189333D02*
X4532143Y-1179810D01*
X4532143Y-1179810D02*
X4503572Y-1179810D01*
X4503572Y-1179810D02*
X4484524Y-1170286D01*
X4484524Y-1170286D02*
X4475000Y-1151238D01*
X4475000Y-1151238D02*
X4475000Y-1141714D01*
X4475000Y-1141714D02*
X4484524Y-1122667D01*
X4484524Y-1122667D02*
X4503572Y-1113143D01*
X4503572Y-1113143D02*
X4532143Y-1113143D01*
X4532143Y-1113143D02*
X4551191Y-1122667D01*
X4627381Y-1322667D02*
X4636905Y-1313143D01*
X4636905Y-1313143D02*
X4655953Y-1284571D01*
X4655953Y-1284571D02*
X4665476Y-1265524D01*
X4665476Y-1265524D02*
X4675000Y-1236952D01*
X4675000Y-1236952D02*
X4684524Y-1189333D01*
X4684524Y-1189333D02*
X4684524Y-1151238D01*
X4684524Y-1151238D02*
X4675000Y-1103619D01*
X4675000Y-1103619D02*
X4665476Y-1075048D01*
X4665476Y-1075048D02*
X4655953Y-1056000D01*
X4655953Y-1056000D02*
X4636905Y-1027428D01*
X4636905Y-1027428D02*
X4627381Y-1017905D01*
D14*
X-16716Y-1465284D02*
X-16716Y-1408715D01*
X-73285Y-1408715D01*
X-73285Y-1465284D01*
X-16716Y-1465284D01*
D11*
X280714Y-1310476D02*
X299762Y-1310476D01*
X299762Y-1310476D02*
X318810Y-1320000D01*
X318810Y-1320000D02*
X328333Y-1329524D01*
X328333Y-1329524D02*
X337857Y-1348571D01*
X337857Y-1348571D02*
X347381Y-1386667D01*
X347381Y-1386667D02*
X347381Y-1434286D01*
X347381Y-1434286D02*
X337857Y-1472381D01*
X337857Y-1472381D02*
X328333Y-1491428D01*
X328333Y-1491428D02*
X318810Y-1500952D01*
X318810Y-1500952D02*
X299762Y-1510476D01*
X299762Y-1510476D02*
X280714Y-1510476D01*
X280714Y-1510476D02*
X261667Y-1500952D01*
X261667Y-1500952D02*
X252143Y-1491428D01*
X252143Y-1491428D02*
X242619Y-1472381D01*
X242619Y-1472381D02*
X233095Y-1434286D01*
X233095Y-1434286D02*
X233095Y-1386667D01*
X233095Y-1386667D02*
X242619Y-1348571D01*
X242619Y-1348571D02*
X252143Y-1329524D01*
X252143Y-1329524D02*
X261667Y-1320000D01*
X261667Y-1320000D02*
X280714Y-1310476D01*
X433095Y-1491428D02*
X442619Y-1500952D01*
X442619Y-1500952D02*
X433095Y-1510476D01*
X433095Y-1510476D02*
X423571Y-1500952D01*
X423571Y-1500952D02*
X433095Y-1491428D01*
X433095Y-1491428D02*
X433095Y-1510476D01*
X556905Y-1396190D02*
X537857Y-1386667D01*
X537857Y-1386667D02*
X528333Y-1377143D01*
X528333Y-1377143D02*
X518809Y-1358095D01*
X518809Y-1358095D02*
X518809Y-1348571D01*
X518809Y-1348571D02*
X528333Y-1329524D01*
X528333Y-1329524D02*
X537857Y-1320000D01*
X537857Y-1320000D02*
X556905Y-1310476D01*
X556905Y-1310476D02*
X595000Y-1310476D01*
X595000Y-1310476D02*
X614048Y-1320000D01*
X614048Y-1320000D02*
X623571Y-1329524D01*
X623571Y-1329524D02*
X633095Y-1348571D01*
X633095Y-1348571D02*
X633095Y-1358095D01*
X633095Y-1358095D02*
X623571Y-1377143D01*
X623571Y-1377143D02*
X614048Y-1386667D01*
X614048Y-1386667D02*
X595000Y-1396190D01*
X595000Y-1396190D02*
X556905Y-1396190D01*
X556905Y-1396190D02*
X537857Y-1405714D01*
X537857Y-1405714D02*
X528333Y-1415238D01*
X528333Y-1415238D02*
X518809Y-1434286D01*
X518809Y-1434286D02*
X518809Y-1472381D01*
X518809Y-1472381D02*
X528333Y-1491428D01*
X528333Y-1491428D02*
X537857Y-1500952D01*
X537857Y-1500952D02*
X556905Y-1510476D01*
X556905Y-1510476D02*
X595000Y-1510476D01*
X595000Y-1510476D02*
X614048Y-1500952D01*
X614048Y-1500952D02*
X623571Y-1491428D01*
X623571Y-1491428D02*
X633095Y-1472381D01*
X633095Y-1472381D02*
X633095Y-1434286D01*
X633095Y-1434286D02*
X623571Y-1415238D01*
X623571Y-1415238D02*
X614048Y-1405714D01*
X614048Y-1405714D02*
X595000Y-1396190D01*
X756905Y-1310476D02*
X775952Y-1310476D01*
X775952Y-1310476D02*
X795000Y-1320000D01*
X795000Y-1320000D02*
X804524Y-1329524D01*
X804524Y-1329524D02*
X814048Y-1348571D01*
X814048Y-1348571D02*
X823571Y-1386667D01*
X823571Y-1386667D02*
X823571Y-1434286D01*
X823571Y-1434286D02*
X814048Y-1472381D01*
X814048Y-1472381D02*
X804524Y-1491428D01*
X804524Y-1491428D02*
X795000Y-1500952D01*
X795000Y-1500952D02*
X775952Y-1510476D01*
X775952Y-1510476D02*
X756905Y-1510476D01*
X756905Y-1510476D02*
X737857Y-1500952D01*
X737857Y-1500952D02*
X728333Y-1491428D01*
X728333Y-1491428D02*
X718809Y-1472381D01*
X718809Y-1472381D02*
X709286Y-1434286D01*
X709286Y-1434286D02*
X709286Y-1386667D01*
X709286Y-1386667D02*
X718809Y-1348571D01*
X718809Y-1348571D02*
X728333Y-1329524D01*
X728333Y-1329524D02*
X737857Y-1320000D01*
X737857Y-1320000D02*
X756905Y-1310476D01*
X947381Y-1310476D02*
X966429Y-1310476D01*
X966429Y-1310476D02*
X985476Y-1320000D01*
X985476Y-1320000D02*
X995000Y-1329524D01*
X995000Y-1329524D02*
X1004524Y-1348571D01*
X1004524Y-1348571D02*
X1014048Y-1386667D01*
X1014048Y-1386667D02*
X1014048Y-1434286D01*
X1014048Y-1434286D02*
X1004524Y-1472381D01*
X1004524Y-1472381D02*
X995000Y-1491428D01*
X995000Y-1491428D02*
X985476Y-1500952D01*
X985476Y-1500952D02*
X966429Y-1510476D01*
X966429Y-1510476D02*
X947381Y-1510476D01*
X947381Y-1510476D02*
X928333Y-1500952D01*
X928333Y-1500952D02*
X918809Y-1491428D01*
X918809Y-1491428D02*
X909286Y-1472381D01*
X909286Y-1472381D02*
X899762Y-1434286D01*
X899762Y-1434286D02*
X899762Y-1386667D01*
X899762Y-1386667D02*
X909286Y-1348571D01*
X909286Y-1348571D02*
X918809Y-1329524D01*
X918809Y-1329524D02*
X928333Y-1320000D01*
X928333Y-1320000D02*
X947381Y-1310476D01*
X1099762Y-1510476D02*
X1099762Y-1377143D01*
X1099762Y-1396190D02*
X1109286Y-1386667D01*
X1109286Y-1386667D02*
X1128333Y-1377143D01*
X1128333Y-1377143D02*
X1156905Y-1377143D01*
X1156905Y-1377143D02*
X1175952Y-1386667D01*
X1175952Y-1386667D02*
X1185476Y-1405714D01*
X1185476Y-1405714D02*
X1185476Y-1510476D01*
X1185476Y-1405714D02*
X1195000Y-1386667D01*
X1195000Y-1386667D02*
X1214048Y-1377143D01*
X1214048Y-1377143D02*
X1242619Y-1377143D01*
X1242619Y-1377143D02*
X1261667Y-1386667D01*
X1261667Y-1386667D02*
X1271191Y-1405714D01*
X1271191Y-1405714D02*
X1271191Y-1510476D01*
X1366429Y-1510476D02*
X1366429Y-1377143D01*
X1366429Y-1396190D02*
X1375952Y-1386667D01*
X1375952Y-1386667D02*
X1395000Y-1377143D01*
X1395000Y-1377143D02*
X1423571Y-1377143D01*
X1423571Y-1377143D02*
X1442619Y-1386667D01*
X1442619Y-1386667D02*
X1452143Y-1405714D01*
X1452143Y-1405714D02*
X1452143Y-1510476D01*
X1452143Y-1405714D02*
X1461667Y-1386667D01*
X1461667Y-1386667D02*
X1480714Y-1377143D01*
X1480714Y-1377143D02*
X1509286Y-1377143D01*
X1509286Y-1377143D02*
X1528333Y-1386667D01*
X1528333Y-1386667D02*
X1537857Y-1405714D01*
X1537857Y-1405714D02*
X1537857Y-1510476D01*
X1895952Y-1300952D02*
X1724524Y-1558095D01*
X2120714Y-1310476D02*
X2139762Y-1310476D01*
X2139762Y-1310476D02*
X2158810Y-1320000D01*
X2158810Y-1320000D02*
X2168333Y-1329524D01*
X2168333Y-1329524D02*
X2177857Y-1348571D01*
X2177857Y-1348571D02*
X2187381Y-1386667D01*
X2187381Y-1386667D02*
X2187381Y-1434286D01*
X2187381Y-1434286D02*
X2177857Y-1472381D01*
X2177857Y-1472381D02*
X2168333Y-1491428D01*
X2168333Y-1491428D02*
X2158810Y-1500952D01*
X2158810Y-1500952D02*
X2139762Y-1510476D01*
X2139762Y-1510476D02*
X2120714Y-1510476D01*
X2120714Y-1510476D02*
X2101667Y-1500952D01*
X2101667Y-1500952D02*
X2092143Y-1491428D01*
X2092143Y-1491428D02*
X2082619Y-1472381D01*
X2082619Y-1472381D02*
X2073095Y-1434286D01*
X2073095Y-1434286D02*
X2073095Y-1386667D01*
X2073095Y-1386667D02*
X2082619Y-1348571D01*
X2082619Y-1348571D02*
X2092143Y-1329524D01*
X2092143Y-1329524D02*
X2101667Y-1320000D01*
X2101667Y-1320000D02*
X2120714Y-1310476D01*
X2273095Y-1491428D02*
X2282619Y-1500952D01*
X2282619Y-1500952D02*
X2273095Y-1510476D01*
X2273095Y-1510476D02*
X2263572Y-1500952D01*
X2263572Y-1500952D02*
X2273095Y-1491428D01*
X2273095Y-1491428D02*
X2273095Y-1510476D01*
X2406429Y-1310476D02*
X2425476Y-1310476D01*
X2425476Y-1310476D02*
X2444524Y-1320000D01*
X2444524Y-1320000D02*
X2454048Y-1329524D01*
X2454048Y-1329524D02*
X2463572Y-1348571D01*
X2463572Y-1348571D02*
X2473095Y-1386667D01*
X2473095Y-1386667D02*
X2473095Y-1434286D01*
X2473095Y-1434286D02*
X2463572Y-1472381D01*
X2463572Y-1472381D02*
X2454048Y-1491428D01*
X2454048Y-1491428D02*
X2444524Y-1500952D01*
X2444524Y-1500952D02*
X2425476Y-1510476D01*
X2425476Y-1510476D02*
X2406429Y-1510476D01*
X2406429Y-1510476D02*
X2387381Y-1500952D01*
X2387381Y-1500952D02*
X2377857Y-1491428D01*
X2377857Y-1491428D02*
X2368333Y-1472381D01*
X2368333Y-1472381D02*
X2358810Y-1434286D01*
X2358810Y-1434286D02*
X2358810Y-1386667D01*
X2358810Y-1386667D02*
X2368333Y-1348571D01*
X2368333Y-1348571D02*
X2377857Y-1329524D01*
X2377857Y-1329524D02*
X2387381Y-1320000D01*
X2387381Y-1320000D02*
X2406429Y-1310476D01*
X2539762Y-1310476D02*
X2663572Y-1310476D01*
X2663572Y-1310476D02*
X2596905Y-1386667D01*
X2596905Y-1386667D02*
X2625476Y-1386667D01*
X2625476Y-1386667D02*
X2644524Y-1396190D01*
X2644524Y-1396190D02*
X2654048Y-1405714D01*
X2654048Y-1405714D02*
X2663572Y-1424762D01*
X2663572Y-1424762D02*
X2663572Y-1472381D01*
X2663572Y-1472381D02*
X2654048Y-1491428D01*
X2654048Y-1491428D02*
X2644524Y-1500952D01*
X2644524Y-1500952D02*
X2625476Y-1510476D01*
X2625476Y-1510476D02*
X2568333Y-1510476D01*
X2568333Y-1510476D02*
X2549286Y-1500952D01*
X2549286Y-1500952D02*
X2539762Y-1491428D01*
X2854048Y-1510476D02*
X2739762Y-1510476D01*
X2796905Y-1510476D02*
X2796905Y-1310476D01*
X2796905Y-1310476D02*
X2777857Y-1339048D01*
X2777857Y-1339048D02*
X2758810Y-1358095D01*
X2758810Y-1358095D02*
X2739762Y-1367619D01*
X3035000Y-1310476D02*
X2939762Y-1310476D01*
X2939762Y-1310476D02*
X2930238Y-1405714D01*
X2930238Y-1405714D02*
X2939762Y-1396190D01*
X2939762Y-1396190D02*
X2958810Y-1386667D01*
X2958810Y-1386667D02*
X3006429Y-1386667D01*
X3006429Y-1386667D02*
X3025476Y-1396190D01*
X3025476Y-1396190D02*
X3035000Y-1405714D01*
X3035000Y-1405714D02*
X3044524Y-1424762D01*
X3044524Y-1424762D02*
X3044524Y-1472381D01*
X3044524Y-1472381D02*
X3035000Y-1491428D01*
X3035000Y-1491428D02*
X3025476Y-1500952D01*
X3025476Y-1500952D02*
X3006429Y-1510476D01*
X3006429Y-1510476D02*
X2958810Y-1510476D01*
X2958810Y-1510476D02*
X2939762Y-1500952D01*
X2939762Y-1500952D02*
X2930238Y-1491428D01*
X3120714Y-1310476D02*
X3120714Y-1348571D01*
X3196905Y-1310476D02*
X3196905Y-1348571D01*
X3459762Y-1586667D02*
X3450238Y-1577143D01*
X3450238Y-1577143D02*
X3431191Y-1548571D01*
X3431191Y-1548571D02*
X3421667Y-1529524D01*
X3421667Y-1529524D02*
X3412143Y-1500952D01*
X3412143Y-1500952D02*
X3402619Y-1453333D01*
X3402619Y-1453333D02*
X3402619Y-1415238D01*
X3402619Y-1415238D02*
X3412143Y-1367619D01*
X3412143Y-1367619D02*
X3421667Y-1339048D01*
X3421667Y-1339048D02*
X3431191Y-1320000D01*
X3431191Y-1320000D02*
X3450238Y-1291429D01*
X3450238Y-1291429D02*
X3459762Y-1281905D01*
X3631191Y-1310476D02*
X3535952Y-1310476D01*
X3535952Y-1310476D02*
X3526429Y-1405714D01*
X3526429Y-1405714D02*
X3535952Y-1396190D01*
X3535952Y-1396190D02*
X3555000Y-1386667D01*
X3555000Y-1386667D02*
X3602619Y-1386667D01*
X3602619Y-1386667D02*
X3621667Y-1396190D01*
X3621667Y-1396190D02*
X3631191Y-1405714D01*
X3631191Y-1405714D02*
X3640714Y-1424762D01*
X3640714Y-1424762D02*
X3640714Y-1472381D01*
X3640714Y-1472381D02*
X3631191Y-1491428D01*
X3631191Y-1491428D02*
X3621667Y-1500952D01*
X3621667Y-1500952D02*
X3602619Y-1510476D01*
X3602619Y-1510476D02*
X3555000Y-1510476D01*
X3555000Y-1510476D02*
X3535952Y-1500952D01*
X3535952Y-1500952D02*
X3526429Y-1491428D01*
X3846429Y-1510476D02*
X3846429Y-1310476D01*
X3932143Y-1510476D02*
X3932143Y-1405714D01*
X3932143Y-1405714D02*
X3922619Y-1386667D01*
X3922619Y-1386667D02*
X3903572Y-1377143D01*
X3903572Y-1377143D02*
X3875000Y-1377143D01*
X3875000Y-1377143D02*
X3855952Y-1386667D01*
X3855952Y-1386667D02*
X3846429Y-1396190D01*
X4055952Y-1510476D02*
X4036905Y-1500952D01*
X4036905Y-1500952D02*
X4027381Y-1491428D01*
X4027381Y-1491428D02*
X4017857Y-1472381D01*
X4017857Y-1472381D02*
X4017857Y-1415238D01*
X4017857Y-1415238D02*
X4027381Y-1396190D01*
X4027381Y-1396190D02*
X4036905Y-1386667D01*
X4036905Y-1386667D02*
X4055952Y-1377143D01*
X4055952Y-1377143D02*
X4084524Y-1377143D01*
X4084524Y-1377143D02*
X4103572Y-1386667D01*
X4103572Y-1386667D02*
X4113095Y-1396190D01*
X4113095Y-1396190D02*
X4122619Y-1415238D01*
X4122619Y-1415238D02*
X4122619Y-1472381D01*
X4122619Y-1472381D02*
X4113095Y-1491428D01*
X4113095Y-1491428D02*
X4103572Y-1500952D01*
X4103572Y-1500952D02*
X4084524Y-1510476D01*
X4084524Y-1510476D02*
X4055952Y-1510476D01*
X4236905Y-1510476D02*
X4217857Y-1500952D01*
X4217857Y-1500952D02*
X4208334Y-1481905D01*
X4208334Y-1481905D02*
X4208334Y-1310476D01*
X4389286Y-1500952D02*
X4370238Y-1510476D01*
X4370238Y-1510476D02*
X4332143Y-1510476D01*
X4332143Y-1510476D02*
X4313095Y-1500952D01*
X4313095Y-1500952D02*
X4303572Y-1481905D01*
X4303572Y-1481905D02*
X4303572Y-1405714D01*
X4303572Y-1405714D02*
X4313095Y-1386667D01*
X4313095Y-1386667D02*
X4332143Y-1377143D01*
X4332143Y-1377143D02*
X4370238Y-1377143D01*
X4370238Y-1377143D02*
X4389286Y-1386667D01*
X4389286Y-1386667D02*
X4398810Y-1405714D01*
X4398810Y-1405714D02*
X4398810Y-1424762D01*
X4398810Y-1424762D02*
X4303572Y-1443809D01*
X4475000Y-1500952D02*
X4494048Y-1510476D01*
X4494048Y-1510476D02*
X4532143Y-1510476D01*
X4532143Y-1510476D02*
X4551191Y-1500952D01*
X4551191Y-1500952D02*
X4560715Y-1481905D01*
X4560715Y-1481905D02*
X4560715Y-1472381D01*
X4560715Y-1472381D02*
X4551191Y-1453333D01*
X4551191Y-1453333D02*
X4532143Y-1443809D01*
X4532143Y-1443809D02*
X4503572Y-1443809D01*
X4503572Y-1443809D02*
X4484524Y-1434286D01*
X4484524Y-1434286D02*
X4475000Y-1415238D01*
X4475000Y-1415238D02*
X4475000Y-1405714D01*
X4475000Y-1405714D02*
X4484524Y-1386667D01*
X4484524Y-1386667D02*
X4503572Y-1377143D01*
X4503572Y-1377143D02*
X4532143Y-1377143D01*
X4532143Y-1377143D02*
X4551191Y-1386667D01*
X4627381Y-1586667D02*
X4636905Y-1577143D01*
X4636905Y-1577143D02*
X4655953Y-1548571D01*
X4655953Y-1548571D02*
X4665476Y-1529524D01*
X4665476Y-1529524D02*
X4675000Y-1500952D01*
X4675000Y-1500952D02*
X4684524Y-1453333D01*
X4684524Y-1453333D02*
X4684524Y-1415238D01*
X4684524Y-1415238D02*
X4675000Y-1367619D01*
X4675000Y-1367619D02*
X4665476Y-1339048D01*
X4665476Y-1339048D02*
X4655953Y-1320000D01*
X4655953Y-1320000D02*
X4636905Y-1291429D01*
X4636905Y-1291429D02*
X4627381Y-1281905D01*
D10*
X-55000Y-1751000D02*
X-5000Y-1701000D01*
X-55000Y-1651000D01*
X-105000Y-1701000D01*
X-55000Y-1751000D01*
D11*
X347381Y-1774476D02*
X233095Y-1774476D01*
X290238Y-1774476D02*
X290238Y-1574476D01*
X290238Y-1574476D02*
X271190Y-1603048D01*
X271190Y-1603048D02*
X252143Y-1622095D01*
X252143Y-1622095D02*
X233095Y-1631619D01*
X433095Y-1755428D02*
X442619Y-1764952D01*
X442619Y-1764952D02*
X433095Y-1774476D01*
X433095Y-1774476D02*
X423571Y-1764952D01*
X423571Y-1764952D02*
X433095Y-1755428D01*
X433095Y-1755428D02*
X433095Y-1774476D01*
X566429Y-1574476D02*
X585476Y-1574476D01*
X585476Y-1574476D02*
X604524Y-1584000D01*
X604524Y-1584000D02*
X614048Y-1593524D01*
X614048Y-1593524D02*
X623571Y-1612571D01*
X623571Y-1612571D02*
X633095Y-1650667D01*
X633095Y-1650667D02*
X633095Y-1698286D01*
X633095Y-1698286D02*
X623571Y-1736381D01*
X623571Y-1736381D02*
X614048Y-1755428D01*
X614048Y-1755428D02*
X604524Y-1764952D01*
X604524Y-1764952D02*
X585476Y-1774476D01*
X585476Y-1774476D02*
X566429Y-1774476D01*
X566429Y-1774476D02*
X547381Y-1764952D01*
X547381Y-1764952D02*
X537857Y-1755428D01*
X537857Y-1755428D02*
X528333Y-1736381D01*
X528333Y-1736381D02*
X518809Y-1698286D01*
X518809Y-1698286D02*
X518809Y-1650667D01*
X518809Y-1650667D02*
X528333Y-1612571D01*
X528333Y-1612571D02*
X537857Y-1593524D01*
X537857Y-1593524D02*
X547381Y-1584000D01*
X547381Y-1584000D02*
X566429Y-1574476D01*
X756905Y-1574476D02*
X775952Y-1574476D01*
X775952Y-1574476D02*
X795000Y-1584000D01*
X795000Y-1584000D02*
X804524Y-1593524D01*
X804524Y-1593524D02*
X814048Y-1612571D01*
X814048Y-1612571D02*
X823571Y-1650667D01*
X823571Y-1650667D02*
X823571Y-1698286D01*
X823571Y-1698286D02*
X814048Y-1736381D01*
X814048Y-1736381D02*
X804524Y-1755428D01*
X804524Y-1755428D02*
X795000Y-1764952D01*
X795000Y-1764952D02*
X775952Y-1774476D01*
X775952Y-1774476D02*
X756905Y-1774476D01*
X756905Y-1774476D02*
X737857Y-1764952D01*
X737857Y-1764952D02*
X728333Y-1755428D01*
X728333Y-1755428D02*
X718809Y-1736381D01*
X718809Y-1736381D02*
X709286Y-1698286D01*
X709286Y-1698286D02*
X709286Y-1650667D01*
X709286Y-1650667D02*
X718809Y-1612571D01*
X718809Y-1612571D02*
X728333Y-1593524D01*
X728333Y-1593524D02*
X737857Y-1584000D01*
X737857Y-1584000D02*
X756905Y-1574476D01*
X947381Y-1574476D02*
X966429Y-1574476D01*
X966429Y-1574476D02*
X985476Y-1584000D01*
X985476Y-1584000D02*
X995000Y-1593524D01*
X995000Y-1593524D02*
X1004524Y-1612571D01*
X1004524Y-1612571D02*
X1014048Y-1650667D01*
X1014048Y-1650667D02*
X1014048Y-1698286D01*
X1014048Y-1698286D02*
X1004524Y-1736381D01*
X1004524Y-1736381D02*
X995000Y-1755428D01*
X995000Y-1755428D02*
X985476Y-1764952D01*
X985476Y-1764952D02*
X966429Y-1774476D01*
X966429Y-1774476D02*
X947381Y-1774476D01*
X947381Y-1774476D02*
X928333Y-1764952D01*
X928333Y-1764952D02*
X918809Y-1755428D01*
X918809Y-1755428D02*
X909286Y-1736381D01*
X909286Y-1736381D02*
X899762Y-1698286D01*
X899762Y-1698286D02*
X899762Y-1650667D01*
X899762Y-1650667D02*
X909286Y-1612571D01*
X909286Y-1612571D02*
X918809Y-1593524D01*
X918809Y-1593524D02*
X928333Y-1584000D01*
X928333Y-1584000D02*
X947381Y-1574476D01*
X1099762Y-1774476D02*
X1099762Y-1641143D01*
X1099762Y-1660190D02*
X1109286Y-1650667D01*
X1109286Y-1650667D02*
X1128333Y-1641143D01*
X1128333Y-1641143D02*
X1156905Y-1641143D01*
X1156905Y-1641143D02*
X1175952Y-1650667D01*
X1175952Y-1650667D02*
X1185476Y-1669714D01*
X1185476Y-1669714D02*
X1185476Y-1774476D01*
X1185476Y-1669714D02*
X1195000Y-1650667D01*
X1195000Y-1650667D02*
X1214048Y-1641143D01*
X1214048Y-1641143D02*
X1242619Y-1641143D01*
X1242619Y-1641143D02*
X1261667Y-1650667D01*
X1261667Y-1650667D02*
X1271191Y-1669714D01*
X1271191Y-1669714D02*
X1271191Y-1774476D01*
X1366429Y-1774476D02*
X1366429Y-1641143D01*
X1366429Y-1660190D02*
X1375952Y-1650667D01*
X1375952Y-1650667D02*
X1395000Y-1641143D01*
X1395000Y-1641143D02*
X1423571Y-1641143D01*
X1423571Y-1641143D02*
X1442619Y-1650667D01*
X1442619Y-1650667D02*
X1452143Y-1669714D01*
X1452143Y-1669714D02*
X1452143Y-1774476D01*
X1452143Y-1669714D02*
X1461667Y-1650667D01*
X1461667Y-1650667D02*
X1480714Y-1641143D01*
X1480714Y-1641143D02*
X1509286Y-1641143D01*
X1509286Y-1641143D02*
X1528333Y-1650667D01*
X1528333Y-1650667D02*
X1537857Y-1669714D01*
X1537857Y-1669714D02*
X1537857Y-1774476D01*
X1895952Y-1564952D02*
X1724524Y-1822095D01*
X2120714Y-1574476D02*
X2139762Y-1574476D01*
X2139762Y-1574476D02*
X2158810Y-1584000D01*
X2158810Y-1584000D02*
X2168333Y-1593524D01*
X2168333Y-1593524D02*
X2177857Y-1612571D01*
X2177857Y-1612571D02*
X2187381Y-1650667D01*
X2187381Y-1650667D02*
X2187381Y-1698286D01*
X2187381Y-1698286D02*
X2177857Y-1736381D01*
X2177857Y-1736381D02*
X2168333Y-1755428D01*
X2168333Y-1755428D02*
X2158810Y-1764952D01*
X2158810Y-1764952D02*
X2139762Y-1774476D01*
X2139762Y-1774476D02*
X2120714Y-1774476D01*
X2120714Y-1774476D02*
X2101667Y-1764952D01*
X2101667Y-1764952D02*
X2092143Y-1755428D01*
X2092143Y-1755428D02*
X2082619Y-1736381D01*
X2082619Y-1736381D02*
X2073095Y-1698286D01*
X2073095Y-1698286D02*
X2073095Y-1650667D01*
X2073095Y-1650667D02*
X2082619Y-1612571D01*
X2082619Y-1612571D02*
X2092143Y-1593524D01*
X2092143Y-1593524D02*
X2101667Y-1584000D01*
X2101667Y-1584000D02*
X2120714Y-1574476D01*
X2273095Y-1755428D02*
X2282619Y-1764952D01*
X2282619Y-1764952D02*
X2273095Y-1774476D01*
X2273095Y-1774476D02*
X2263572Y-1764952D01*
X2263572Y-1764952D02*
X2273095Y-1755428D01*
X2273095Y-1755428D02*
X2273095Y-1774476D01*
X2406429Y-1574476D02*
X2425476Y-1574476D01*
X2425476Y-1574476D02*
X2444524Y-1584000D01*
X2444524Y-1584000D02*
X2454048Y-1593524D01*
X2454048Y-1593524D02*
X2463572Y-1612571D01*
X2463572Y-1612571D02*
X2473095Y-1650667D01*
X2473095Y-1650667D02*
X2473095Y-1698286D01*
X2473095Y-1698286D02*
X2463572Y-1736381D01*
X2463572Y-1736381D02*
X2454048Y-1755428D01*
X2454048Y-1755428D02*
X2444524Y-1764952D01*
X2444524Y-1764952D02*
X2425476Y-1774476D01*
X2425476Y-1774476D02*
X2406429Y-1774476D01*
X2406429Y-1774476D02*
X2387381Y-1764952D01*
X2387381Y-1764952D02*
X2377857Y-1755428D01*
X2377857Y-1755428D02*
X2368333Y-1736381D01*
X2368333Y-1736381D02*
X2358810Y-1698286D01*
X2358810Y-1698286D02*
X2358810Y-1650667D01*
X2358810Y-1650667D02*
X2368333Y-1612571D01*
X2368333Y-1612571D02*
X2377857Y-1593524D01*
X2377857Y-1593524D02*
X2387381Y-1584000D01*
X2387381Y-1584000D02*
X2406429Y-1574476D01*
X2539762Y-1574476D02*
X2663572Y-1574476D01*
X2663572Y-1574476D02*
X2596905Y-1650667D01*
X2596905Y-1650667D02*
X2625476Y-1650667D01*
X2625476Y-1650667D02*
X2644524Y-1660190D01*
X2644524Y-1660190D02*
X2654048Y-1669714D01*
X2654048Y-1669714D02*
X2663572Y-1688762D01*
X2663572Y-1688762D02*
X2663572Y-1736381D01*
X2663572Y-1736381D02*
X2654048Y-1755428D01*
X2654048Y-1755428D02*
X2644524Y-1764952D01*
X2644524Y-1764952D02*
X2625476Y-1774476D01*
X2625476Y-1774476D02*
X2568333Y-1774476D01*
X2568333Y-1774476D02*
X2549286Y-1764952D01*
X2549286Y-1764952D02*
X2539762Y-1755428D01*
X2758810Y-1774476D02*
X2796905Y-1774476D01*
X2796905Y-1774476D02*
X2815952Y-1764952D01*
X2815952Y-1764952D02*
X2825476Y-1755428D01*
X2825476Y-1755428D02*
X2844524Y-1726857D01*
X2844524Y-1726857D02*
X2854048Y-1688762D01*
X2854048Y-1688762D02*
X2854048Y-1612571D01*
X2854048Y-1612571D02*
X2844524Y-1593524D01*
X2844524Y-1593524D02*
X2835000Y-1584000D01*
X2835000Y-1584000D02*
X2815952Y-1574476D01*
X2815952Y-1574476D02*
X2777857Y-1574476D01*
X2777857Y-1574476D02*
X2758810Y-1584000D01*
X2758810Y-1584000D02*
X2749286Y-1593524D01*
X2749286Y-1593524D02*
X2739762Y-1612571D01*
X2739762Y-1612571D02*
X2739762Y-1660190D01*
X2739762Y-1660190D02*
X2749286Y-1679238D01*
X2749286Y-1679238D02*
X2758810Y-1688762D01*
X2758810Y-1688762D02*
X2777857Y-1698286D01*
X2777857Y-1698286D02*
X2815952Y-1698286D01*
X2815952Y-1698286D02*
X2835000Y-1688762D01*
X2835000Y-1688762D02*
X2844524Y-1679238D01*
X2844524Y-1679238D02*
X2854048Y-1660190D01*
X3025476Y-1641143D02*
X3025476Y-1774476D01*
X2977857Y-1564952D02*
X2930238Y-1707809D01*
X2930238Y-1707809D02*
X3054048Y-1707809D01*
X3120714Y-1574476D02*
X3120714Y-1612571D01*
X3196905Y-1574476D02*
X3196905Y-1612571D01*
X3459762Y-1850667D02*
X3450238Y-1841143D01*
X3450238Y-1841143D02*
X3431191Y-1812571D01*
X3431191Y-1812571D02*
X3421667Y-1793524D01*
X3421667Y-1793524D02*
X3412143Y-1764952D01*
X3412143Y-1764952D02*
X3402619Y-1717333D01*
X3402619Y-1717333D02*
X3402619Y-1679238D01*
X3402619Y-1679238D02*
X3412143Y-1631619D01*
X3412143Y-1631619D02*
X3421667Y-1603048D01*
X3421667Y-1603048D02*
X3431191Y-1584000D01*
X3431191Y-1584000D02*
X3450238Y-1555428D01*
X3450238Y-1555428D02*
X3459762Y-1545905D01*
X3574048Y-1574476D02*
X3593095Y-1574476D01*
X3593095Y-1574476D02*
X3612143Y-1584000D01*
X3612143Y-1584000D02*
X3621667Y-1593524D01*
X3621667Y-1593524D02*
X3631191Y-1612571D01*
X3631191Y-1612571D02*
X3640714Y-1650667D01*
X3640714Y-1650667D02*
X3640714Y-1698286D01*
X3640714Y-1698286D02*
X3631191Y-1736381D01*
X3631191Y-1736381D02*
X3621667Y-1755428D01*
X3621667Y-1755428D02*
X3612143Y-1764952D01*
X3612143Y-1764952D02*
X3593095Y-1774476D01*
X3593095Y-1774476D02*
X3574048Y-1774476D01*
X3574048Y-1774476D02*
X3555000Y-1764952D01*
X3555000Y-1764952D02*
X3545476Y-1755428D01*
X3545476Y-1755428D02*
X3535952Y-1736381D01*
X3535952Y-1736381D02*
X3526429Y-1698286D01*
X3526429Y-1698286D02*
X3526429Y-1650667D01*
X3526429Y-1650667D02*
X3535952Y-1612571D01*
X3535952Y-1612571D02*
X3545476Y-1593524D01*
X3545476Y-1593524D02*
X3555000Y-1584000D01*
X3555000Y-1584000D02*
X3574048Y-1574476D01*
X3846429Y-1774476D02*
X3846429Y-1574476D01*
X3932143Y-1774476D02*
X3932143Y-1669714D01*
X3932143Y-1669714D02*
X3922619Y-1650667D01*
X3922619Y-1650667D02*
X3903572Y-1641143D01*
X3903572Y-1641143D02*
X3875000Y-1641143D01*
X3875000Y-1641143D02*
X3855952Y-1650667D01*
X3855952Y-1650667D02*
X3846429Y-1660190D01*
X4055952Y-1774476D02*
X4036905Y-1764952D01*
X4036905Y-1764952D02*
X4027381Y-1755428D01*
X4027381Y-1755428D02*
X4017857Y-1736381D01*
X4017857Y-1736381D02*
X4017857Y-1679238D01*
X4017857Y-1679238D02*
X4027381Y-1660190D01*
X4027381Y-1660190D02*
X4036905Y-1650667D01*
X4036905Y-1650667D02*
X4055952Y-1641143D01*
X4055952Y-1641143D02*
X4084524Y-1641143D01*
X4084524Y-1641143D02*
X4103572Y-1650667D01*
X4103572Y-1650667D02*
X4113095Y-1660190D01*
X4113095Y-1660190D02*
X4122619Y-1679238D01*
X4122619Y-1679238D02*
X4122619Y-1736381D01*
X4122619Y-1736381D02*
X4113095Y-1755428D01*
X4113095Y-1755428D02*
X4103572Y-1764952D01*
X4103572Y-1764952D02*
X4084524Y-1774476D01*
X4084524Y-1774476D02*
X4055952Y-1774476D01*
X4236905Y-1774476D02*
X4217857Y-1764952D01*
X4217857Y-1764952D02*
X4208334Y-1745905D01*
X4208334Y-1745905D02*
X4208334Y-1574476D01*
X4389286Y-1764952D02*
X4370238Y-1774476D01*
X4370238Y-1774476D02*
X4332143Y-1774476D01*
X4332143Y-1774476D02*
X4313095Y-1764952D01*
X4313095Y-1764952D02*
X4303572Y-1745905D01*
X4303572Y-1745905D02*
X4303572Y-1669714D01*
X4303572Y-1669714D02*
X4313095Y-1650667D01*
X4313095Y-1650667D02*
X4332143Y-1641143D01*
X4332143Y-1641143D02*
X4370238Y-1641143D01*
X4370238Y-1641143D02*
X4389286Y-1650667D01*
X4389286Y-1650667D02*
X4398810Y-1669714D01*
X4398810Y-1669714D02*
X4398810Y-1688762D01*
X4398810Y-1688762D02*
X4303572Y-1707809D01*
X4475000Y-1764952D02*
X4494048Y-1774476D01*
X4494048Y-1774476D02*
X4532143Y-1774476D01*
X4532143Y-1774476D02*
X4551191Y-1764952D01*
X4551191Y-1764952D02*
X4560715Y-1745905D01*
X4560715Y-1745905D02*
X4560715Y-1736381D01*
X4560715Y-1736381D02*
X4551191Y-1717333D01*
X4551191Y-1717333D02*
X4532143Y-1707809D01*
X4532143Y-1707809D02*
X4503572Y-1707809D01*
X4503572Y-1707809D02*
X4484524Y-1698286D01*
X4484524Y-1698286D02*
X4475000Y-1679238D01*
X4475000Y-1679238D02*
X4475000Y-1669714D01*
X4475000Y-1669714D02*
X4484524Y-1650667D01*
X4484524Y-1650667D02*
X4503572Y-1641143D01*
X4503572Y-1641143D02*
X4532143Y-1641143D01*
X4532143Y-1641143D02*
X4551191Y-1650667D01*
X4766429Y-1698286D02*
X4918810Y-1698286D01*
X4842619Y-1774476D02*
X4842619Y-1622095D01*
X5115000Y-1574476D02*
X5238810Y-1574476D01*
X5238810Y-1574476D02*
X5172143Y-1650667D01*
X5172143Y-1650667D02*
X5200715Y-1650667D01*
X5200715Y-1650667D02*
X5219762Y-1660190D01*
X5219762Y-1660190D02*
X5229286Y-1669714D01*
X5229286Y-1669714D02*
X5238810Y-1688762D01*
X5238810Y-1688762D02*
X5238810Y-1736381D01*
X5238810Y-1736381D02*
X5229286Y-1755428D01*
X5229286Y-1755428D02*
X5219762Y-1764952D01*
X5219762Y-1764952D02*
X5200715Y-1774476D01*
X5200715Y-1774476D02*
X5143572Y-1774476D01*
X5143572Y-1774476D02*
X5124524Y-1764952D01*
X5124524Y-1764952D02*
X5115000Y-1755428D01*
X5435000Y-1764952D02*
X5454048Y-1774476D01*
X5454048Y-1774476D02*
X5492143Y-1774476D01*
X5492143Y-1774476D02*
X5511191Y-1764952D01*
X5511191Y-1764952D02*
X5520715Y-1745905D01*
X5520715Y-1745905D02*
X5520715Y-1736381D01*
X5520715Y-1736381D02*
X5511191Y-1717333D01*
X5511191Y-1717333D02*
X5492143Y-1707809D01*
X5492143Y-1707809D02*
X5463572Y-1707809D01*
X5463572Y-1707809D02*
X5444524Y-1698286D01*
X5444524Y-1698286D02*
X5435000Y-1679238D01*
X5435000Y-1679238D02*
X5435000Y-1669714D01*
X5435000Y-1669714D02*
X5444524Y-1650667D01*
X5444524Y-1650667D02*
X5463572Y-1641143D01*
X5463572Y-1641143D02*
X5492143Y-1641143D01*
X5492143Y-1641143D02*
X5511191Y-1650667D01*
X5635000Y-1774476D02*
X5615953Y-1764952D01*
X5615953Y-1764952D02*
X5606429Y-1745905D01*
X5606429Y-1745905D02*
X5606429Y-1574476D01*
X5739762Y-1774476D02*
X5720714Y-1764952D01*
X5720714Y-1764952D02*
X5711191Y-1755428D01*
X5711191Y-1755428D02*
X5701667Y-1736381D01*
X5701667Y-1736381D02*
X5701667Y-1679238D01*
X5701667Y-1679238D02*
X5711191Y-1660190D01*
X5711191Y-1660190D02*
X5720714Y-1650667D01*
X5720714Y-1650667D02*
X5739762Y-1641143D01*
X5739762Y-1641143D02*
X5768334Y-1641143D01*
X5768334Y-1641143D02*
X5787381Y-1650667D01*
X5787381Y-1650667D02*
X5796905Y-1660190D01*
X5796905Y-1660190D02*
X5806429Y-1679238D01*
X5806429Y-1679238D02*
X5806429Y-1736381D01*
X5806429Y-1736381D02*
X5796905Y-1755428D01*
X5796905Y-1755428D02*
X5787381Y-1764952D01*
X5787381Y-1764952D02*
X5768334Y-1774476D01*
X5768334Y-1774476D02*
X5739762Y-1774476D01*
X5863572Y-1641143D02*
X5939762Y-1641143D01*
X5892143Y-1574476D02*
X5892143Y-1745905D01*
X5892143Y-1745905D02*
X5901667Y-1764952D01*
X5901667Y-1764952D02*
X5920714Y-1774476D01*
X5920714Y-1774476D02*
X5939762Y-1774476D01*
X5996905Y-1764952D02*
X6015953Y-1774476D01*
X6015953Y-1774476D02*
X6054048Y-1774476D01*
X6054048Y-1774476D02*
X6073095Y-1764952D01*
X6073095Y-1764952D02*
X6082619Y-1745905D01*
X6082619Y-1745905D02*
X6082619Y-1736381D01*
X6082619Y-1736381D02*
X6073095Y-1717333D01*
X6073095Y-1717333D02*
X6054048Y-1707809D01*
X6054048Y-1707809D02*
X6025476Y-1707809D01*
X6025476Y-1707809D02*
X6006429Y-1698286D01*
X6006429Y-1698286D02*
X5996905Y-1679238D01*
X5996905Y-1679238D02*
X5996905Y-1669714D01*
X5996905Y-1669714D02*
X6006429Y-1650667D01*
X6006429Y-1650667D02*
X6025476Y-1641143D01*
X6025476Y-1641143D02*
X6054048Y-1641143D01*
X6054048Y-1641143D02*
X6073095Y-1650667D01*
X6149286Y-1850667D02*
X6158810Y-1841143D01*
X6158810Y-1841143D02*
X6177857Y-1812571D01*
X6177857Y-1812571D02*
X6187381Y-1793524D01*
X6187381Y-1793524D02*
X6196905Y-1764952D01*
X6196905Y-1764952D02*
X6206429Y-1717333D01*
X6206429Y-1717333D02*
X6206429Y-1679238D01*
X6206429Y-1679238D02*
X6196905Y-1631619D01*
X6196905Y-1631619D02*
X6187381Y-1603048D01*
X6187381Y-1603048D02*
X6177857Y-1584000D01*
X6177857Y-1584000D02*
X6158810Y-1555428D01*
X6158810Y-1555428D02*
X6149286Y-1545905D01*
D15*
X-115000Y-1910000D02*
X-5000Y-2020000D01*
X-5000Y-1910000D02*
X-115000Y-2020000D01*
X-5000Y-1965000D02*
G75*
G03*
X-5000Y-1965000I-55000J0D01*
G01*
D11*
X347381Y-2038476D02*
X233095Y-2038476D01*
X290238Y-2038476D02*
X290238Y-1838476D01*
X290238Y-1838476D02*
X271190Y-1867048D01*
X271190Y-1867048D02*
X252143Y-1886095D01*
X252143Y-1886095D02*
X233095Y-1895619D01*
X433095Y-2019428D02*
X442619Y-2028952D01*
X442619Y-2028952D02*
X433095Y-2038476D01*
X433095Y-2038476D02*
X423571Y-2028952D01*
X423571Y-2028952D02*
X433095Y-2019428D01*
X433095Y-2019428D02*
X433095Y-2038476D01*
X633095Y-2038476D02*
X518809Y-2038476D01*
X575952Y-2038476D02*
X575952Y-1838476D01*
X575952Y-1838476D02*
X556905Y-1867048D01*
X556905Y-1867048D02*
X537857Y-1886095D01*
X537857Y-1886095D02*
X518809Y-1895619D01*
X756905Y-1838476D02*
X775952Y-1838476D01*
X775952Y-1838476D02*
X795000Y-1848000D01*
X795000Y-1848000D02*
X804524Y-1857524D01*
X804524Y-1857524D02*
X814048Y-1876571D01*
X814048Y-1876571D02*
X823571Y-1914667D01*
X823571Y-1914667D02*
X823571Y-1962286D01*
X823571Y-1962286D02*
X814048Y-2000381D01*
X814048Y-2000381D02*
X804524Y-2019428D01*
X804524Y-2019428D02*
X795000Y-2028952D01*
X795000Y-2028952D02*
X775952Y-2038476D01*
X775952Y-2038476D02*
X756905Y-2038476D01*
X756905Y-2038476D02*
X737857Y-2028952D01*
X737857Y-2028952D02*
X728333Y-2019428D01*
X728333Y-2019428D02*
X718809Y-2000381D01*
X718809Y-2000381D02*
X709286Y-1962286D01*
X709286Y-1962286D02*
X709286Y-1914667D01*
X709286Y-1914667D02*
X718809Y-1876571D01*
X718809Y-1876571D02*
X728333Y-1857524D01*
X728333Y-1857524D02*
X737857Y-1848000D01*
X737857Y-1848000D02*
X756905Y-1838476D01*
X947381Y-1838476D02*
X966429Y-1838476D01*
X966429Y-1838476D02*
X985476Y-1848000D01*
X985476Y-1848000D02*
X995000Y-1857524D01*
X995000Y-1857524D02*
X1004524Y-1876571D01*
X1004524Y-1876571D02*
X1014048Y-1914667D01*
X1014048Y-1914667D02*
X1014048Y-1962286D01*
X1014048Y-1962286D02*
X1004524Y-2000381D01*
X1004524Y-2000381D02*
X995000Y-2019428D01*
X995000Y-2019428D02*
X985476Y-2028952D01*
X985476Y-2028952D02*
X966429Y-2038476D01*
X966429Y-2038476D02*
X947381Y-2038476D01*
X947381Y-2038476D02*
X928333Y-2028952D01*
X928333Y-2028952D02*
X918809Y-2019428D01*
X918809Y-2019428D02*
X909286Y-2000381D01*
X909286Y-2000381D02*
X899762Y-1962286D01*
X899762Y-1962286D02*
X899762Y-1914667D01*
X899762Y-1914667D02*
X909286Y-1876571D01*
X909286Y-1876571D02*
X918809Y-1857524D01*
X918809Y-1857524D02*
X928333Y-1848000D01*
X928333Y-1848000D02*
X947381Y-1838476D01*
X1099762Y-2038476D02*
X1099762Y-1905143D01*
X1099762Y-1924190D02*
X1109286Y-1914667D01*
X1109286Y-1914667D02*
X1128333Y-1905143D01*
X1128333Y-1905143D02*
X1156905Y-1905143D01*
X1156905Y-1905143D02*
X1175952Y-1914667D01*
X1175952Y-1914667D02*
X1185476Y-1933714D01*
X1185476Y-1933714D02*
X1185476Y-2038476D01*
X1185476Y-1933714D02*
X1195000Y-1914667D01*
X1195000Y-1914667D02*
X1214048Y-1905143D01*
X1214048Y-1905143D02*
X1242619Y-1905143D01*
X1242619Y-1905143D02*
X1261667Y-1914667D01*
X1261667Y-1914667D02*
X1271191Y-1933714D01*
X1271191Y-1933714D02*
X1271191Y-2038476D01*
X1366429Y-2038476D02*
X1366429Y-1905143D01*
X1366429Y-1924190D02*
X1375952Y-1914667D01*
X1375952Y-1914667D02*
X1395000Y-1905143D01*
X1395000Y-1905143D02*
X1423571Y-1905143D01*
X1423571Y-1905143D02*
X1442619Y-1914667D01*
X1442619Y-1914667D02*
X1452143Y-1933714D01*
X1452143Y-1933714D02*
X1452143Y-2038476D01*
X1452143Y-1933714D02*
X1461667Y-1914667D01*
X1461667Y-1914667D02*
X1480714Y-1905143D01*
X1480714Y-1905143D02*
X1509286Y-1905143D01*
X1509286Y-1905143D02*
X1528333Y-1914667D01*
X1528333Y-1914667D02*
X1537857Y-1933714D01*
X1537857Y-1933714D02*
X1537857Y-2038476D01*
X1895952Y-1828952D02*
X1724524Y-2086095D01*
X2120714Y-1838476D02*
X2139762Y-1838476D01*
X2139762Y-1838476D02*
X2158810Y-1848000D01*
X2158810Y-1848000D02*
X2168333Y-1857524D01*
X2168333Y-1857524D02*
X2177857Y-1876571D01*
X2177857Y-1876571D02*
X2187381Y-1914667D01*
X2187381Y-1914667D02*
X2187381Y-1962286D01*
X2187381Y-1962286D02*
X2177857Y-2000381D01*
X2177857Y-2000381D02*
X2168333Y-2019428D01*
X2168333Y-2019428D02*
X2158810Y-2028952D01*
X2158810Y-2028952D02*
X2139762Y-2038476D01*
X2139762Y-2038476D02*
X2120714Y-2038476D01*
X2120714Y-2038476D02*
X2101667Y-2028952D01*
X2101667Y-2028952D02*
X2092143Y-2019428D01*
X2092143Y-2019428D02*
X2082619Y-2000381D01*
X2082619Y-2000381D02*
X2073095Y-1962286D01*
X2073095Y-1962286D02*
X2073095Y-1914667D01*
X2073095Y-1914667D02*
X2082619Y-1876571D01*
X2082619Y-1876571D02*
X2092143Y-1857524D01*
X2092143Y-1857524D02*
X2101667Y-1848000D01*
X2101667Y-1848000D02*
X2120714Y-1838476D01*
X2273095Y-2019428D02*
X2282619Y-2028952D01*
X2282619Y-2028952D02*
X2273095Y-2038476D01*
X2273095Y-2038476D02*
X2263572Y-2028952D01*
X2263572Y-2028952D02*
X2273095Y-2019428D01*
X2273095Y-2019428D02*
X2273095Y-2038476D01*
X2406429Y-1838476D02*
X2425476Y-1838476D01*
X2425476Y-1838476D02*
X2444524Y-1848000D01*
X2444524Y-1848000D02*
X2454048Y-1857524D01*
X2454048Y-1857524D02*
X2463572Y-1876571D01*
X2463572Y-1876571D02*
X2473095Y-1914667D01*
X2473095Y-1914667D02*
X2473095Y-1962286D01*
X2473095Y-1962286D02*
X2463572Y-2000381D01*
X2463572Y-2000381D02*
X2454048Y-2019428D01*
X2454048Y-2019428D02*
X2444524Y-2028952D01*
X2444524Y-2028952D02*
X2425476Y-2038476D01*
X2425476Y-2038476D02*
X2406429Y-2038476D01*
X2406429Y-2038476D02*
X2387381Y-2028952D01*
X2387381Y-2028952D02*
X2377857Y-2019428D01*
X2377857Y-2019428D02*
X2368333Y-2000381D01*
X2368333Y-2000381D02*
X2358810Y-1962286D01*
X2358810Y-1962286D02*
X2358810Y-1914667D01*
X2358810Y-1914667D02*
X2368333Y-1876571D01*
X2368333Y-1876571D02*
X2377857Y-1857524D01*
X2377857Y-1857524D02*
X2387381Y-1848000D01*
X2387381Y-1848000D02*
X2406429Y-1838476D01*
X2644524Y-1905143D02*
X2644524Y-2038476D01*
X2596905Y-1828952D02*
X2549286Y-1971809D01*
X2549286Y-1971809D02*
X2673095Y-1971809D01*
X2730238Y-1838476D02*
X2854048Y-1838476D01*
X2854048Y-1838476D02*
X2787381Y-1914667D01*
X2787381Y-1914667D02*
X2815952Y-1914667D01*
X2815952Y-1914667D02*
X2835000Y-1924190D01*
X2835000Y-1924190D02*
X2844524Y-1933714D01*
X2844524Y-1933714D02*
X2854048Y-1952762D01*
X2854048Y-1952762D02*
X2854048Y-2000381D01*
X2854048Y-2000381D02*
X2844524Y-2019428D01*
X2844524Y-2019428D02*
X2835000Y-2028952D01*
X2835000Y-2028952D02*
X2815952Y-2038476D01*
X2815952Y-2038476D02*
X2758810Y-2038476D01*
X2758810Y-2038476D02*
X2739762Y-2028952D01*
X2739762Y-2028952D02*
X2730238Y-2019428D01*
X2920714Y-1838476D02*
X3044524Y-1838476D01*
X3044524Y-1838476D02*
X2977857Y-1914667D01*
X2977857Y-1914667D02*
X3006429Y-1914667D01*
X3006429Y-1914667D02*
X3025476Y-1924190D01*
X3025476Y-1924190D02*
X3035000Y-1933714D01*
X3035000Y-1933714D02*
X3044524Y-1952762D01*
X3044524Y-1952762D02*
X3044524Y-2000381D01*
X3044524Y-2000381D02*
X3035000Y-2019428D01*
X3035000Y-2019428D02*
X3025476Y-2028952D01*
X3025476Y-2028952D02*
X3006429Y-2038476D01*
X3006429Y-2038476D02*
X2949286Y-2038476D01*
X2949286Y-2038476D02*
X2930238Y-2028952D01*
X2930238Y-2028952D02*
X2920714Y-2019428D01*
X3120714Y-1838476D02*
X3120714Y-1876571D01*
X3196905Y-1838476D02*
X3196905Y-1876571D01*
X3459762Y-2114667D02*
X3450238Y-2105143D01*
X3450238Y-2105143D02*
X3431191Y-2076571D01*
X3431191Y-2076571D02*
X3421667Y-2057524D01*
X3421667Y-2057524D02*
X3412143Y-2028952D01*
X3412143Y-2028952D02*
X3402619Y-1981333D01*
X3402619Y-1981333D02*
X3402619Y-1943238D01*
X3402619Y-1943238D02*
X3412143Y-1895619D01*
X3412143Y-1895619D02*
X3421667Y-1867048D01*
X3421667Y-1867048D02*
X3431191Y-1848000D01*
X3431191Y-1848000D02*
X3450238Y-1819428D01*
X3450238Y-1819428D02*
X3459762Y-1809905D01*
X3516905Y-1838476D02*
X3640714Y-1838476D01*
X3640714Y-1838476D02*
X3574048Y-1914667D01*
X3574048Y-1914667D02*
X3602619Y-1914667D01*
X3602619Y-1914667D02*
X3621667Y-1924190D01*
X3621667Y-1924190D02*
X3631191Y-1933714D01*
X3631191Y-1933714D02*
X3640714Y-1952762D01*
X3640714Y-1952762D02*
X3640714Y-2000381D01*
X3640714Y-2000381D02*
X3631191Y-2019428D01*
X3631191Y-2019428D02*
X3621667Y-2028952D01*
X3621667Y-2028952D02*
X3602619Y-2038476D01*
X3602619Y-2038476D02*
X3545476Y-2038476D01*
X3545476Y-2038476D02*
X3526429Y-2028952D01*
X3526429Y-2028952D02*
X3516905Y-2019428D01*
X3846429Y-2038476D02*
X3846429Y-1838476D01*
X3932143Y-2038476D02*
X3932143Y-1933714D01*
X3932143Y-1933714D02*
X3922619Y-1914667D01*
X3922619Y-1914667D02*
X3903572Y-1905143D01*
X3903572Y-1905143D02*
X3875000Y-1905143D01*
X3875000Y-1905143D02*
X3855952Y-1914667D01*
X3855952Y-1914667D02*
X3846429Y-1924190D01*
X4055952Y-2038476D02*
X4036905Y-2028952D01*
X4036905Y-2028952D02*
X4027381Y-2019428D01*
X4027381Y-2019428D02*
X4017857Y-2000381D01*
X4017857Y-2000381D02*
X4017857Y-1943238D01*
X4017857Y-1943238D02*
X4027381Y-1924190D01*
X4027381Y-1924190D02*
X4036905Y-1914667D01*
X4036905Y-1914667D02*
X4055952Y-1905143D01*
X4055952Y-1905143D02*
X4084524Y-1905143D01*
X4084524Y-1905143D02*
X4103572Y-1914667D01*
X4103572Y-1914667D02*
X4113095Y-1924190D01*
X4113095Y-1924190D02*
X4122619Y-1943238D01*
X4122619Y-1943238D02*
X4122619Y-2000381D01*
X4122619Y-2000381D02*
X4113095Y-2019428D01*
X4113095Y-2019428D02*
X4103572Y-2028952D01*
X4103572Y-2028952D02*
X4084524Y-2038476D01*
X4084524Y-2038476D02*
X4055952Y-2038476D01*
X4236905Y-2038476D02*
X4217857Y-2028952D01*
X4217857Y-2028952D02*
X4208334Y-2009905D01*
X4208334Y-2009905D02*
X4208334Y-1838476D01*
X4389286Y-2028952D02*
X4370238Y-2038476D01*
X4370238Y-2038476D02*
X4332143Y-2038476D01*
X4332143Y-2038476D02*
X4313095Y-2028952D01*
X4313095Y-2028952D02*
X4303572Y-2009905D01*
X4303572Y-2009905D02*
X4303572Y-1933714D01*
X4303572Y-1933714D02*
X4313095Y-1914667D01*
X4313095Y-1914667D02*
X4332143Y-1905143D01*
X4332143Y-1905143D02*
X4370238Y-1905143D01*
X4370238Y-1905143D02*
X4389286Y-1914667D01*
X4389286Y-1914667D02*
X4398810Y-1933714D01*
X4398810Y-1933714D02*
X4398810Y-1952762D01*
X4398810Y-1952762D02*
X4303572Y-1971809D01*
X4475000Y-2028952D02*
X4494048Y-2038476D01*
X4494048Y-2038476D02*
X4532143Y-2038476D01*
X4532143Y-2038476D02*
X4551191Y-2028952D01*
X4551191Y-2028952D02*
X4560715Y-2009905D01*
X4560715Y-2009905D02*
X4560715Y-2000381D01*
X4560715Y-2000381D02*
X4551191Y-1981333D01*
X4551191Y-1981333D02*
X4532143Y-1971809D01*
X4532143Y-1971809D02*
X4503572Y-1971809D01*
X4503572Y-1971809D02*
X4484524Y-1962286D01*
X4484524Y-1962286D02*
X4475000Y-1943238D01*
X4475000Y-1943238D02*
X4475000Y-1933714D01*
X4475000Y-1933714D02*
X4484524Y-1914667D01*
X4484524Y-1914667D02*
X4503572Y-1905143D01*
X4503572Y-1905143D02*
X4532143Y-1905143D01*
X4532143Y-1905143D02*
X4551191Y-1914667D01*
X4627381Y-2114667D02*
X4636905Y-2105143D01*
X4636905Y-2105143D02*
X4655953Y-2076571D01*
X4655953Y-2076571D02*
X4665476Y-2057524D01*
X4665476Y-2057524D02*
X4675000Y-2028952D01*
X4675000Y-2028952D02*
X4684524Y-1981333D01*
X4684524Y-1981333D02*
X4684524Y-1943238D01*
X4684524Y-1943238D02*
X4675000Y-1895619D01*
X4675000Y-1895619D02*
X4665476Y-1867048D01*
X4665476Y-1867048D02*
X4655953Y-1848000D01*
X4655953Y-1848000D02*
X4636905Y-1819428D01*
X4636905Y-1819428D02*
X4627381Y-1809905D01*
D16*
X-125000Y-2169000D02*
X-5000Y-2289000D01*
X-5000Y-2169000D02*
X-125000Y-2289000D01*
X-65000Y-2169000D02*
X-65000Y-2289000D01*
X-125000Y-2229000D02*
X-5000Y-2229000D01*
D11*
X347381Y-2302476D02*
X233095Y-2302476D01*
X290238Y-2302476D02*
X290238Y-2102476D01*
X290238Y-2102476D02*
X271190Y-2131048D01*
X271190Y-2131048D02*
X252143Y-2150095D01*
X252143Y-2150095D02*
X233095Y-2159619D01*
X433095Y-2283429D02*
X442619Y-2292952D01*
X442619Y-2292952D02*
X433095Y-2302476D01*
X433095Y-2302476D02*
X423571Y-2292952D01*
X423571Y-2292952D02*
X433095Y-2283429D01*
X433095Y-2283429D02*
X433095Y-2302476D01*
X518809Y-2121524D02*
X528333Y-2112000D01*
X528333Y-2112000D02*
X547381Y-2102476D01*
X547381Y-2102476D02*
X595000Y-2102476D01*
X595000Y-2102476D02*
X614048Y-2112000D01*
X614048Y-2112000D02*
X623571Y-2121524D01*
X623571Y-2121524D02*
X633095Y-2140571D01*
X633095Y-2140571D02*
X633095Y-2159619D01*
X633095Y-2159619D02*
X623571Y-2188190D01*
X623571Y-2188190D02*
X509286Y-2302476D01*
X509286Y-2302476D02*
X633095Y-2302476D01*
X756905Y-2102476D02*
X775952Y-2102476D01*
X775952Y-2102476D02*
X795000Y-2112000D01*
X795000Y-2112000D02*
X804524Y-2121524D01*
X804524Y-2121524D02*
X814048Y-2140571D01*
X814048Y-2140571D02*
X823571Y-2178667D01*
X823571Y-2178667D02*
X823571Y-2226286D01*
X823571Y-2226286D02*
X814048Y-2264381D01*
X814048Y-2264381D02*
X804524Y-2283429D01*
X804524Y-2283429D02*
X795000Y-2292952D01*
X795000Y-2292952D02*
X775952Y-2302476D01*
X775952Y-2302476D02*
X756905Y-2302476D01*
X756905Y-2302476D02*
X737857Y-2292952D01*
X737857Y-2292952D02*
X728333Y-2283429D01*
X728333Y-2283429D02*
X718809Y-2264381D01*
X718809Y-2264381D02*
X709286Y-2226286D01*
X709286Y-2226286D02*
X709286Y-2178667D01*
X709286Y-2178667D02*
X718809Y-2140571D01*
X718809Y-2140571D02*
X728333Y-2121524D01*
X728333Y-2121524D02*
X737857Y-2112000D01*
X737857Y-2112000D02*
X756905Y-2102476D01*
X947381Y-2102476D02*
X966429Y-2102476D01*
X966429Y-2102476D02*
X985476Y-2112000D01*
X985476Y-2112000D02*
X995000Y-2121524D01*
X995000Y-2121524D02*
X1004524Y-2140571D01*
X1004524Y-2140571D02*
X1014048Y-2178667D01*
X1014048Y-2178667D02*
X1014048Y-2226286D01*
X1014048Y-2226286D02*
X1004524Y-2264381D01*
X1004524Y-2264381D02*
X995000Y-2283429D01*
X995000Y-2283429D02*
X985476Y-2292952D01*
X985476Y-2292952D02*
X966429Y-2302476D01*
X966429Y-2302476D02*
X947381Y-2302476D01*
X947381Y-2302476D02*
X928333Y-2292952D01*
X928333Y-2292952D02*
X918809Y-2283429D01*
X918809Y-2283429D02*
X909286Y-2264381D01*
X909286Y-2264381D02*
X899762Y-2226286D01*
X899762Y-2226286D02*
X899762Y-2178667D01*
X899762Y-2178667D02*
X909286Y-2140571D01*
X909286Y-2140571D02*
X918809Y-2121524D01*
X918809Y-2121524D02*
X928333Y-2112000D01*
X928333Y-2112000D02*
X947381Y-2102476D01*
X1099762Y-2302476D02*
X1099762Y-2169143D01*
X1099762Y-2188190D02*
X1109286Y-2178667D01*
X1109286Y-2178667D02*
X1128333Y-2169143D01*
X1128333Y-2169143D02*
X1156905Y-2169143D01*
X1156905Y-2169143D02*
X1175952Y-2178667D01*
X1175952Y-2178667D02*
X1185476Y-2197714D01*
X1185476Y-2197714D02*
X1185476Y-2302476D01*
X1185476Y-2197714D02*
X1195000Y-2178667D01*
X1195000Y-2178667D02*
X1214048Y-2169143D01*
X1214048Y-2169143D02*
X1242619Y-2169143D01*
X1242619Y-2169143D02*
X1261667Y-2178667D01*
X1261667Y-2178667D02*
X1271191Y-2197714D01*
X1271191Y-2197714D02*
X1271191Y-2302476D01*
X1366429Y-2302476D02*
X1366429Y-2169143D01*
X1366429Y-2188190D02*
X1375952Y-2178667D01*
X1375952Y-2178667D02*
X1395000Y-2169143D01*
X1395000Y-2169143D02*
X1423571Y-2169143D01*
X1423571Y-2169143D02*
X1442619Y-2178667D01*
X1442619Y-2178667D02*
X1452143Y-2197714D01*
X1452143Y-2197714D02*
X1452143Y-2302476D01*
X1452143Y-2197714D02*
X1461667Y-2178667D01*
X1461667Y-2178667D02*
X1480714Y-2169143D01*
X1480714Y-2169143D02*
X1509286Y-2169143D01*
X1509286Y-2169143D02*
X1528333Y-2178667D01*
X1528333Y-2178667D02*
X1537857Y-2197714D01*
X1537857Y-2197714D02*
X1537857Y-2302476D01*
X1895952Y-2092952D02*
X1724524Y-2350095D01*
X2120714Y-2102476D02*
X2139762Y-2102476D01*
X2139762Y-2102476D02*
X2158810Y-2112000D01*
X2158810Y-2112000D02*
X2168333Y-2121524D01*
X2168333Y-2121524D02*
X2177857Y-2140571D01*
X2177857Y-2140571D02*
X2187381Y-2178667D01*
X2187381Y-2178667D02*
X2187381Y-2226286D01*
X2187381Y-2226286D02*
X2177857Y-2264381D01*
X2177857Y-2264381D02*
X2168333Y-2283429D01*
X2168333Y-2283429D02*
X2158810Y-2292952D01*
X2158810Y-2292952D02*
X2139762Y-2302476D01*
X2139762Y-2302476D02*
X2120714Y-2302476D01*
X2120714Y-2302476D02*
X2101667Y-2292952D01*
X2101667Y-2292952D02*
X2092143Y-2283429D01*
X2092143Y-2283429D02*
X2082619Y-2264381D01*
X2082619Y-2264381D02*
X2073095Y-2226286D01*
X2073095Y-2226286D02*
X2073095Y-2178667D01*
X2073095Y-2178667D02*
X2082619Y-2140571D01*
X2082619Y-2140571D02*
X2092143Y-2121524D01*
X2092143Y-2121524D02*
X2101667Y-2112000D01*
X2101667Y-2112000D02*
X2120714Y-2102476D01*
X2273095Y-2283429D02*
X2282619Y-2292952D01*
X2282619Y-2292952D02*
X2273095Y-2302476D01*
X2273095Y-2302476D02*
X2263572Y-2292952D01*
X2263572Y-2292952D02*
X2273095Y-2283429D01*
X2273095Y-2283429D02*
X2273095Y-2302476D01*
X2406429Y-2102476D02*
X2425476Y-2102476D01*
X2425476Y-2102476D02*
X2444524Y-2112000D01*
X2444524Y-2112000D02*
X2454048Y-2121524D01*
X2454048Y-2121524D02*
X2463572Y-2140571D01*
X2463572Y-2140571D02*
X2473095Y-2178667D01*
X2473095Y-2178667D02*
X2473095Y-2226286D01*
X2473095Y-2226286D02*
X2463572Y-2264381D01*
X2463572Y-2264381D02*
X2454048Y-2283429D01*
X2454048Y-2283429D02*
X2444524Y-2292952D01*
X2444524Y-2292952D02*
X2425476Y-2302476D01*
X2425476Y-2302476D02*
X2406429Y-2302476D01*
X2406429Y-2302476D02*
X2387381Y-2292952D01*
X2387381Y-2292952D02*
X2377857Y-2283429D01*
X2377857Y-2283429D02*
X2368333Y-2264381D01*
X2368333Y-2264381D02*
X2358810Y-2226286D01*
X2358810Y-2226286D02*
X2358810Y-2178667D01*
X2358810Y-2178667D02*
X2368333Y-2140571D01*
X2368333Y-2140571D02*
X2377857Y-2121524D01*
X2377857Y-2121524D02*
X2387381Y-2112000D01*
X2387381Y-2112000D02*
X2406429Y-2102476D01*
X2644524Y-2169143D02*
X2644524Y-2302476D01*
X2596905Y-2092952D02*
X2549286Y-2235810D01*
X2549286Y-2235810D02*
X2673095Y-2235810D01*
X2730238Y-2102476D02*
X2863571Y-2102476D01*
X2863571Y-2102476D02*
X2777857Y-2302476D01*
X2930238Y-2121524D02*
X2939762Y-2112000D01*
X2939762Y-2112000D02*
X2958810Y-2102476D01*
X2958810Y-2102476D02*
X3006429Y-2102476D01*
X3006429Y-2102476D02*
X3025476Y-2112000D01*
X3025476Y-2112000D02*
X3035000Y-2121524D01*
X3035000Y-2121524D02*
X3044524Y-2140571D01*
X3044524Y-2140571D02*
X3044524Y-2159619D01*
X3044524Y-2159619D02*
X3035000Y-2188190D01*
X3035000Y-2188190D02*
X2920714Y-2302476D01*
X2920714Y-2302476D02*
X3044524Y-2302476D01*
X3120714Y-2102476D02*
X3120714Y-2140571D01*
X3196905Y-2102476D02*
X3196905Y-2140571D01*
X3459762Y-2378667D02*
X3450238Y-2369143D01*
X3450238Y-2369143D02*
X3431191Y-2340571D01*
X3431191Y-2340571D02*
X3421667Y-2321524D01*
X3421667Y-2321524D02*
X3412143Y-2292952D01*
X3412143Y-2292952D02*
X3402619Y-2245333D01*
X3402619Y-2245333D02*
X3402619Y-2207238D01*
X3402619Y-2207238D02*
X3412143Y-2159619D01*
X3412143Y-2159619D02*
X3421667Y-2131048D01*
X3421667Y-2131048D02*
X3431191Y-2112000D01*
X3431191Y-2112000D02*
X3450238Y-2083428D01*
X3450238Y-2083428D02*
X3459762Y-2073905D01*
X3526429Y-2121524D02*
X3535952Y-2112000D01*
X3535952Y-2112000D02*
X3555000Y-2102476D01*
X3555000Y-2102476D02*
X3602619Y-2102476D01*
X3602619Y-2102476D02*
X3621667Y-2112000D01*
X3621667Y-2112000D02*
X3631191Y-2121524D01*
X3631191Y-2121524D02*
X3640714Y-2140571D01*
X3640714Y-2140571D02*
X3640714Y-2159619D01*
X3640714Y-2159619D02*
X3631191Y-2188190D01*
X3631191Y-2188190D02*
X3516905Y-2302476D01*
X3516905Y-2302476D02*
X3640714Y-2302476D01*
X3716905Y-2121524D02*
X3726429Y-2112000D01*
X3726429Y-2112000D02*
X3745476Y-2102476D01*
X3745476Y-2102476D02*
X3793095Y-2102476D01*
X3793095Y-2102476D02*
X3812143Y-2112000D01*
X3812143Y-2112000D02*
X3821667Y-2121524D01*
X3821667Y-2121524D02*
X3831191Y-2140571D01*
X3831191Y-2140571D02*
X3831191Y-2159619D01*
X3831191Y-2159619D02*
X3821667Y-2188190D01*
X3821667Y-2188190D02*
X3707381Y-2302476D01*
X3707381Y-2302476D02*
X3831191Y-2302476D01*
X4036905Y-2302476D02*
X4036905Y-2102476D01*
X4122619Y-2302476D02*
X4122619Y-2197714D01*
X4122619Y-2197714D02*
X4113095Y-2178667D01*
X4113095Y-2178667D02*
X4094048Y-2169143D01*
X4094048Y-2169143D02*
X4065476Y-2169143D01*
X4065476Y-2169143D02*
X4046429Y-2178667D01*
X4046429Y-2178667D02*
X4036905Y-2188190D01*
X4246429Y-2302476D02*
X4227381Y-2292952D01*
X4227381Y-2292952D02*
X4217857Y-2283429D01*
X4217857Y-2283429D02*
X4208334Y-2264381D01*
X4208334Y-2264381D02*
X4208334Y-2207238D01*
X4208334Y-2207238D02*
X4217857Y-2188190D01*
X4217857Y-2188190D02*
X4227381Y-2178667D01*
X4227381Y-2178667D02*
X4246429Y-2169143D01*
X4246429Y-2169143D02*
X4275000Y-2169143D01*
X4275000Y-2169143D02*
X4294048Y-2178667D01*
X4294048Y-2178667D02*
X4303572Y-2188190D01*
X4303572Y-2188190D02*
X4313095Y-2207238D01*
X4313095Y-2207238D02*
X4313095Y-2264381D01*
X4313095Y-2264381D02*
X4303572Y-2283429D01*
X4303572Y-2283429D02*
X4294048Y-2292952D01*
X4294048Y-2292952D02*
X4275000Y-2302476D01*
X4275000Y-2302476D02*
X4246429Y-2302476D01*
X4427381Y-2302476D02*
X4408334Y-2292952D01*
X4408334Y-2292952D02*
X4398810Y-2273905D01*
X4398810Y-2273905D02*
X4398810Y-2102476D01*
X4579762Y-2292952D02*
X4560715Y-2302476D01*
X4560715Y-2302476D02*
X4522619Y-2302476D01*
X4522619Y-2302476D02*
X4503572Y-2292952D01*
X4503572Y-2292952D02*
X4494048Y-2273905D01*
X4494048Y-2273905D02*
X4494048Y-2197714D01*
X4494048Y-2197714D02*
X4503572Y-2178667D01*
X4503572Y-2178667D02*
X4522619Y-2169143D01*
X4522619Y-2169143D02*
X4560715Y-2169143D01*
X4560715Y-2169143D02*
X4579762Y-2178667D01*
X4579762Y-2178667D02*
X4589286Y-2197714D01*
X4589286Y-2197714D02*
X4589286Y-2216762D01*
X4589286Y-2216762D02*
X4494048Y-2235810D01*
X4665476Y-2292952D02*
X4684524Y-2302476D01*
X4684524Y-2302476D02*
X4722619Y-2302476D01*
X4722619Y-2302476D02*
X4741667Y-2292952D01*
X4741667Y-2292952D02*
X4751191Y-2273905D01*
X4751191Y-2273905D02*
X4751191Y-2264381D01*
X4751191Y-2264381D02*
X4741667Y-2245333D01*
X4741667Y-2245333D02*
X4722619Y-2235810D01*
X4722619Y-2235810D02*
X4694048Y-2235810D01*
X4694048Y-2235810D02*
X4675000Y-2226286D01*
X4675000Y-2226286D02*
X4665476Y-2207238D01*
X4665476Y-2207238D02*
X4665476Y-2197714D01*
X4665476Y-2197714D02*
X4675000Y-2178667D01*
X4675000Y-2178667D02*
X4694048Y-2169143D01*
X4694048Y-2169143D02*
X4722619Y-2169143D01*
X4722619Y-2169143D02*
X4741667Y-2178667D01*
X4817857Y-2378667D02*
X4827381Y-2369143D01*
X4827381Y-2369143D02*
X4846429Y-2340571D01*
X4846429Y-2340571D02*
X4855953Y-2321524D01*
X4855953Y-2321524D02*
X4865476Y-2292952D01*
X4865476Y-2292952D02*
X4875000Y-2245333D01*
X4875000Y-2245333D02*
X4875000Y-2207238D01*
X4875000Y-2207238D02*
X4865476Y-2159619D01*
X4865476Y-2159619D02*
X4855953Y-2131048D01*
X4855953Y-2131048D02*
X4846429Y-2112000D01*
X4846429Y-2112000D02*
X4827381Y-2083428D01*
X4827381Y-2083428D02*
X4817857Y-2073905D01*
M02*
