M48
; DRILL file {KiCad (7.0.0)} date Tue Feb  6 12:52:23 2024
; FORMAT={-:-/ absolute / metric / decimal}
; #@! TF.CreationDate,2024-02-06T12:52:23+01:00
; #@! TF.GenerationSoftware,Kicad,Pcbnew,(7.0.0)
; #@! TF.FileFunction,NonPlated,1,2,NPTH
FMAT,2
METRIC
; #@! TA.AperFunction,NonPlated,NPTH,ComponentDrill
T1C1.820
; #@! TA.AperFunction,NonPlated,NPTH,ComponentDrill
T2C3.198
; #@! TA.AperFunction,NonPlated,NPTH,ComponentDrill
T3C3.200
; #@! TA.AperFunction,NonPlated,NPTH,ComponentDrill
T4C3.340
; #@! TA.AperFunction,NonPlated,NPTH,ComponentDrill
T5C7.710
; #@! TA.AperFunction,NonPlated,NPTH,ComponentDrill
T6C11.300
; #@! TA.AperFunction,NonPlated,NPTH,ComponentDrill
T7C12.340
%
G90
G05
T1
X48.609Y40.488
X48.609Y25.798
X66.709Y25.718
X66.719Y40.478
X81.699Y40.438
X81.739Y25.698
T2
X70.9Y44.95
X93.29Y45.2
X105.39Y47.83
T3
X5.0Y65.0
X5.0Y5.0
X105.0Y65.0
X105.0Y5.0
T4
X88.09Y39.89
X88.2Y12.1
X103.06Y40.02
X103.75Y12.06
T5
X101.52Y34.18
T6
X71.849Y33.008
T7
X95.57Y22.59
T0
M30
