  0
SECTION
  2
HEADER
  9
$ANGBASE
  50
0.0
  9
$ANGDIR
  70
1
  9
$MEASUREMENT
  70
1
  0
ENDSEC
  0
SECTION
  2
TABLES
  0
TABLE
  2
LTYPE
  70
4
  0
LTYPE
  5
40F
  2
CONTINUOUS
  70
0
  3
Solid line
  72
65
  73
0
  40
0.0
  0
LTYPE
  5
410
  2
DASHDOT
 70
0
  3
Dash Dot ____ _ ____ _
 72
65
 73
4
 40
2.0
 49
1.25
 49
-0.25
 49
0.25
 49
-0.25
  0
LTYPE
  5
411
  2
DASHED
 70
0
  3
Dashed __ __ __ __ __
 72
65
 73
2
 40
0.75
 49
0.5
 49
-0.25
  0
LTYPE
  5
43B
  2
DOTTED
 70
0
  3
Dotted .  .  .  .
 72
65
 73
2
 40
0.2
 49
0.0
 49
-0.2
  0
ENDTAB
  0
TABLE
  2
STYLE
  70
4
  0
STYLE
  2
KICAD
  70
0
  40
0
  41
1
  42
1
  50
0
  71
0
  3
isocp.shx
  0
STYLE
  2
KICADB
  70
0
  40
0
  41
1
  42
1
  50
0
  71
0
  3
isocp.shx
  0
STYLE
  2
KICADI
  70
0
  40
0
  41
1
  42
1
  50
15
  71
0
  3
isocp.shx
  0
STYLE
  2
KICADBI
  70
0
  40
0
  41
1
  42
1
  50
15
  71
0
  3
isocp.shx
  0
ENDTAB
  0
TABLE
  2
LAYER
  70
1
  0
LAYER
  2
BLACK
  70
0
  62
7
  6
CONTINUOUS
  0
ENDTAB
  0
ENDSEC
  0
SECTION
  2
ENTITIES
0
LINE
8
BLACK
6
CONTINUOUS
10
141.251
20
-125.355
11
141.449
21
-125.396
0
LINE
8
BLACK
6
CONTINUOUS
10
141.449
20
-125.396
11
141.635
21
-125.476
0
LINE
8
BLACK
6
CONTINUOUS
10
141.635
20
-125.476
11
141.801
21
-125.591
0
LINE
8
BLACK
6
CONTINUOUS
10
141.801
20
-125.591
11
141.941
21
-125.738
0
LINE
8
BLACK
6
CONTINUOUS
10
141.941
20
-125.738
11
142.048
21
-125.91
0
LINE
8
BLACK
6
CONTINUOUS
10
142.048
20
-125.91
11
142.118
21
-126.099
0
LINE
8
BLACK
6
CONTINUOUS
10
142.118
20
-126.099
11
142.149
21
-126.299
0
LINE
8
BLACK
6
CONTINUOUS
10
142.149
20
-126.299
11
142.138
21
-126.501
0
LINE
8
BLACK
6
CONTINUOUS
10
142.138
20
-126.501
11
142.088
21
-126.697
0
LINE
8
BLACK
6
CONTINUOUS
10
142.088
20
-126.697
11
141.999
21
-126.879
0
LINE
8
BLACK
6
CONTINUOUS
10
141.999
20
-126.879
11
141.875
21
-127.039
0
LINE
8
BLACK
6
CONTINUOUS
10
141.875
20
-127.039
11
141.721
21
-127.171
0
LINE
8
BLACK
6
CONTINUOUS
10
141.721
20
-127.171
11
141.544
21
-127.269
0
LINE
8
BLACK
6
CONTINUOUS
10
141.544
20
-127.269
11
141.351
21
-127.33
0
LINE
8
BLACK
6
CONTINUOUS
10
141.351
20
-127.33
11
141.15
21
-127.35
0
LINE
8
BLACK
6
CONTINUOUS
10
141.15
20
-127.35
11
138.95
21
-127.35
0
LINE
8
BLACK
6
CONTINUOUS
10
138.95
20
-127.35
11
138.849
21
-127.345
0
LINE
8
BLACK
6
CONTINUOUS
10
138.849
20
-127.345
11
138.651
21
-127.304
0
LINE
8
BLACK
6
CONTINUOUS
10
138.651
20
-127.304
11
138.465
21
-127.224
0
LINE
8
BLACK
6
CONTINUOUS
10
138.465
20
-127.224
11
138.299
21
-127.109
0
LINE
8
BLACK
6
CONTINUOUS
10
138.299
20
-127.109
11
138.159
21
-126.962
0
LINE
8
BLACK
6
CONTINUOUS
10
138.159
20
-126.962
11
138.052
21
-126.79
0
LINE
8
BLACK
6
CONTINUOUS
10
138.052
20
-126.79
11
137.982
21
-126.601
0
LINE
8
BLACK
6
CONTINUOUS
10
137.982
20
-126.601
11
137.951
21
-126.401
0
LINE
8
BLACK
6
CONTINUOUS
10
137.951
20
-126.401
11
137.962
21
-126.199
0
LINE
8
BLACK
6
CONTINUOUS
10
137.962
20
-126.199
11
138.012
21
-126.003
0
LINE
8
BLACK
6
CONTINUOUS
10
138.012
20
-126.003
11
138.101
21
-125.821
0
LINE
8
BLACK
6
CONTINUOUS
10
138.101
20
-125.821
11
138.225
21
-125.661
0
LINE
8
BLACK
6
CONTINUOUS
10
138.225
20
-125.661
11
138.379
21
-125.529
0
LINE
8
BLACK
6
CONTINUOUS
10
138.379
20
-125.529
11
138.556
21
-125.431
0
LINE
8
BLACK
6
CONTINUOUS
10
138.556
20
-125.431
11
138.749
21
-125.37
0
LINE
8
BLACK
6
CONTINUOUS
10
138.749
20
-125.37
11
138.95
21
-125.35
0
LINE
8
BLACK
6
CONTINUOUS
10
138.95
20
-125.35
11
141.15
21
-125.35
0
LINE
8
BLACK
6
CONTINUOUS
10
141.15
20
-125.35
11
141.251
21
-125.355
0
LINE
8
BLACK
6
CONTINUOUS
10
145.001
20
-120.862
11
145.197
21
-120.912
0
LINE
8
BLACK
6
CONTINUOUS
10
145.197
20
-120.912
11
145.379
21
-121.001
0
LINE
8
BLACK
6
CONTINUOUS
10
145.379
20
-121.001
11
145.539
21
-121.125
0
LINE
8
BLACK
6
CONTINUOUS
10
145.539
20
-121.125
11
145.671
21
-121.279
0
LINE
8
BLACK
6
CONTINUOUS
10
145.671
20
-121.279
11
145.769
21
-121.456
0
LINE
8
BLACK
6
CONTINUOUS
10
145.769
20
-121.456
11
145.83
21
-121.649
0
LINE
8
BLACK
6
CONTINUOUS
10
145.83
20
-121.649
11
145.85
21
-121.85
0
LINE
8
BLACK
6
CONTINUOUS
10
145.85
20
-121.85
11
145.85
21
-124.05
0
LINE
8
BLACK
6
CONTINUOUS
10
145.85
20
-124.05
11
145.845
21
-124.151
0
LINE
8
BLACK
6
CONTINUOUS
10
145.845
20
-124.151
11
145.804
21
-124.349
0
LINE
8
BLACK
6
CONTINUOUS
10
145.804
20
-124.349
11
145.724
21
-124.535
0
LINE
8
BLACK
6
CONTINUOUS
10
145.724
20
-124.535
11
145.609
21
-124.701
0
LINE
8
BLACK
6
CONTINUOUS
10
145.609
20
-124.701
11
145.462
21
-124.841
0
LINE
8
BLACK
6
CONTINUOUS
10
145.462
20
-124.841
11
145.29
21
-124.948
0
LINE
8
BLACK
6
CONTINUOUS
10
145.29
20
-124.948
11
145.101
21
-125.018
0
LINE
8
BLACK
6
CONTINUOUS
10
145.101
20
-125.018
11
144.901
21
-125.049
0
LINE
8
BLACK
6
CONTINUOUS
10
144.901
20
-125.049
11
144.699
21
-125.038
0
LINE
8
BLACK
6
CONTINUOUS
10
144.699
20
-125.038
11
144.503
21
-124.988
0
LINE
8
BLACK
6
CONTINUOUS
10
144.503
20
-124.988
11
144.321
21
-124.899
0
LINE
8
BLACK
6
CONTINUOUS
10
144.321
20
-124.899
11
144.161
21
-124.775
0
LINE
8
BLACK
6
CONTINUOUS
10
144.161
20
-124.775
11
144.029
21
-124.621
0
LINE
8
BLACK
6
CONTINUOUS
10
144.029
20
-124.621
11
143.931
21
-124.444
0
LINE
8
BLACK
6
CONTINUOUS
10
143.931
20
-124.444
11
143.87
21
-124.251
0
LINE
8
BLACK
6
CONTINUOUS
10
143.87
20
-124.251
11
143.85
21
-124.05
0
LINE
8
BLACK
6
CONTINUOUS
10
143.85
20
-124.05
11
143.85
21
-121.85
0
LINE
8
BLACK
6
CONTINUOUS
10
143.85
20
-121.85
11
143.855
21
-121.749
0
LINE
8
BLACK
6
CONTINUOUS
10
143.855
20
-121.749
11
143.896
21
-121.551
0
LINE
8
BLACK
6
CONTINUOUS
10
143.896
20
-121.551
11
143.976
21
-121.365
0
LINE
8
BLACK
6
CONTINUOUS
10
143.976
20
-121.365
11
144.091
21
-121.199
0
LINE
8
BLACK
6
CONTINUOUS
10
144.091
20
-121.199
11
144.238
21
-121.059
0
LINE
8
BLACK
6
CONTINUOUS
10
144.238
20
-121.059
11
144.41
21
-120.952
0
LINE
8
BLACK
6
CONTINUOUS
10
144.41
20
-120.952
11
144.599
21
-120.882
0
LINE
8
BLACK
6
CONTINUOUS
10
144.599
20
-120.882
11
144.799
21
-120.851
0
LINE
8
BLACK
6
CONTINUOUS
10
144.799
20
-120.851
11
145.001
21
-120.862
0
LINE
8
BLACK
6
CONTINUOUS
10
142.35
20
-121.05
11
137.75
21
-121.05
0
LINE
8
BLACK
6
CONTINUOUS
10
137.75
20
-121.05
11
137.75
21
-119.05
0
LINE
8
BLACK
6
CONTINUOUS
10
137.75
20
-119.05
11
142.35
21
-119.05
0
LINE
8
BLACK
6
CONTINUOUS
10
142.35
20
-119.05
11
142.35
21
-121.05
0
LINE
8
BLACK
6
CONTINUOUS
10
168.1
20
-117.453
11
168.252
21
-117.506
0
LINE
8
BLACK
6
CONTINUOUS
10
168.252
20
-117.506
11
168.389
21
-117.592
0
LINE
8
BLACK
6
CONTINUOUS
10
168.389
20
-117.592
11
168.503
21
-117.706
0
LINE
8
BLACK
6
CONTINUOUS
10
168.503
20
-117.706
11
168.589
21
-117.843
0
LINE
8
BLACK
6
CONTINUOUS
10
168.589
20
-117.843
11
168.642
21
-117.995
0
LINE
8
BLACK
6
CONTINUOUS
10
168.642
20
-117.995
11
168.66
21
-118.155
0
LINE
8
BLACK
6
CONTINUOUS
10
168.66
20
-118.155
11
168.642
21
-118.315
0
LINE
8
BLACK
6
CONTINUOUS
10
168.642
20
-118.315
11
168.589
21
-118.467
0
LINE
8
BLACK
6
CONTINUOUS
10
168.589
20
-118.467
11
168.503
21
-118.604
0
LINE
8
BLACK
6
CONTINUOUS
10
168.503
20
-118.604
11
168.389
21
-118.718
0
LINE
8
BLACK
6
CONTINUOUS
10
168.389
20
-118.718
11
168.252
21
-118.804
0
LINE
8
BLACK
6
CONTINUOUS
10
168.252
20
-118.804
11
168.1
21
-118.857
0
LINE
8
BLACK
6
CONTINUOUS
10
168.1
20
-118.857
11
167.94
21
-118.875
0
LINE
8
BLACK
6
CONTINUOUS
10
167.94
20
-118.875
11
167.78
21
-118.857
0
LINE
8
BLACK
6
CONTINUOUS
10
167.78
20
-118.857
11
167.628
21
-118.804
0
LINE
8
BLACK
6
CONTINUOUS
10
167.628
20
-118.804
11
167.491
21
-118.718
0
LINE
8
BLACK
6
CONTINUOUS
10
167.491
20
-118.718
11
167.377
21
-118.604
0
LINE
8
BLACK
6
CONTINUOUS
10
167.377
20
-118.604
11
167.291
21
-118.467
0
LINE
8
BLACK
6
CONTINUOUS
10
167.291
20
-118.467
11
167.238
21
-118.315
0
LINE
8
BLACK
6
CONTINUOUS
10
167.238
20
-118.315
11
167.22
21
-118.155
0
LINE
8
BLACK
6
CONTINUOUS
10
167.22
20
-118.155
11
167.238
21
-117.995
0
LINE
8
BLACK
6
CONTINUOUS
10
167.238
20
-117.995
11
167.291
21
-117.843
0
LINE
8
BLACK
6
CONTINUOUS
10
167.291
20
-117.843
11
167.377
21
-117.706
0
LINE
8
BLACK
6
CONTINUOUS
10
167.377
20
-117.706
11
167.491
21
-117.592
0
LINE
8
BLACK
6
CONTINUOUS
10
167.491
20
-117.592
11
167.628
21
-117.506
0
LINE
8
BLACK
6
CONTINUOUS
10
167.628
20
-117.506
11
167.78
21
-117.453
0
LINE
8
BLACK
6
CONTINUOUS
10
167.78
20
-117.453
11
167.94
21
-117.435
0
LINE
8
BLACK
6
CONTINUOUS
10
167.94
20
-117.435
11
168.1
21
-117.453
0
LINE
8
BLACK
6
CONTINUOUS
10
163.02
20
-117.453
11
163.172
21
-117.506
0
LINE
8
BLACK
6
CONTINUOUS
10
163.172
20
-117.506
11
163.309
21
-117.592
0
LINE
8
BLACK
6
CONTINUOUS
10
163.309
20
-117.592
11
163.423
21
-117.706
0
LINE
8
BLACK
6
CONTINUOUS
10
163.423
20
-117.706
11
163.509
21
-117.843
0
LINE
8
BLACK
6
CONTINUOUS
10
163.509
20
-117.843
11
163.562
21
-117.995
0
LINE
8
BLACK
6
CONTINUOUS
10
163.562
20
-117.995
11
163.58
21
-118.155
0
LINE
8
BLACK
6
CONTINUOUS
10
163.58
20
-118.155
11
163.562
21
-118.315
0
LINE
8
BLACK
6
CONTINUOUS
10
163.562
20
-118.315
11
163.509
21
-118.467
0
LINE
8
BLACK
6
CONTINUOUS
10
163.509
20
-118.467
11
163.423
21
-118.604
0
LINE
8
BLACK
6
CONTINUOUS
10
163.423
20
-118.604
11
163.309
21
-118.718
0
LINE
8
BLACK
6
CONTINUOUS
10
163.309
20
-118.718
11
163.172
21
-118.804
0
LINE
8
BLACK
6
CONTINUOUS
10
163.172
20
-118.804
11
163.02
21
-118.857
0
LINE
8
BLACK
6
CONTINUOUS
10
163.02
20
-118.857
11
162.86
21
-118.875
0
LINE
8
BLACK
6
CONTINUOUS
10
162.86
20
-118.875
11
162.7
21
-118.857
0
LINE
8
BLACK
6
CONTINUOUS
10
162.7
20
-118.857
11
162.548
21
-118.804
0
LINE
8
BLACK
6
CONTINUOUS
10
162.548
20
-118.804
11
162.411
21
-118.718
0
LINE
8
BLACK
6
CONTINUOUS
10
162.411
20
-118.718
11
162.297
21
-118.604
0
LINE
8
BLACK
6
CONTINUOUS
10
162.297
20
-118.604
11
162.211
21
-118.467
0
LINE
8
BLACK
6
CONTINUOUS
10
162.211
20
-118.467
11
162.158
21
-118.315
0
LINE
8
BLACK
6
CONTINUOUS
10
162.158
20
-118.315
11
162.14
21
-118.155
0
LINE
8
BLACK
6
CONTINUOUS
10
162.14
20
-118.155
11
162.158
21
-117.995
0
LINE
8
BLACK
6
CONTINUOUS
10
162.158
20
-117.995
11
162.211
21
-117.843
0
LINE
8
BLACK
6
CONTINUOUS
10
162.211
20
-117.843
11
162.297
21
-117.706
0
LINE
8
BLACK
6
CONTINUOUS
10
162.297
20
-117.706
11
162.411
21
-117.592
0
LINE
8
BLACK
6
CONTINUOUS
10
162.411
20
-117.592
11
162.548
21
-117.506
0
LINE
8
BLACK
6
CONTINUOUS
10
162.548
20
-117.506
11
162.7
21
-117.453
0
LINE
8
BLACK
6
CONTINUOUS
10
162.7
20
-117.453
11
162.86
21
-117.435
0
LINE
8
BLACK
6
CONTINUOUS
10
162.86
20
-117.435
11
163.02
21
-117.453
0
LINE
8
BLACK
6
CONTINUOUS
10
152.936
20
-114.495
11
153.074
21
-114.533
0
LINE
8
BLACK
6
CONTINUOUS
10
153.074
20
-114.533
11
153.196
21
-114.608
0
LINE
8
BLACK
6
CONTINUOUS
10
153.196
20
-114.608
11
153.294
21
-114.712
0
LINE
8
BLACK
6
CONTINUOUS
10
153.294
20
-114.712
11
153.36
21
-114.839
0
LINE
8
BLACK
6
CONTINUOUS
10
153.36
20
-114.839
11
153.389
21
-114.979
0
LINE
8
BLACK
6
CONTINUOUS
10
153.389
20
-114.979
11
153.379
21
-115.122
0
LINE
8
BLACK
6
CONTINUOUS
10
153.379
20
-115.122
11
153.331
21
-115.257
0
LINE
8
BLACK
6
CONTINUOUS
10
153.331
20
-115.257
11
153.249
21
-115.373
0
LINE
8
BLACK
6
CONTINUOUS
10
153.249
20
-115.373
11
153.138
21
-115.464
0
LINE
8
BLACK
6
CONTINUOUS
10
153.138
20
-115.464
11
153.007
21
-115.521
0
LINE
8
BLACK
6
CONTINUOUS
10
153.007
20
-115.521
11
152.865
21
-115.54
0
LINE
8
BLACK
6
CONTINUOUS
10
152.865
20
-115.54
11
152.415
21
-115.54
0
LINE
8
BLACK
6
CONTINUOUS
10
152.415
20
-115.54
11
152.344
21
-115.535
0
LINE
8
BLACK
6
CONTINUOUS
10
152.344
20
-115.535
11
152.206
21
-115.497
0
LINE
8
BLACK
6
CONTINUOUS
10
152.206
20
-115.497
11
152.084
21
-115.422
0
LINE
8
BLACK
6
CONTINUOUS
10
152.084
20
-115.422
11
151.986
21
-115.318
0
LINE
8
BLACK
6
CONTINUOUS
10
151.986
20
-115.318
11
151.92
21
-115.191
0
LINE
8
BLACK
6
CONTINUOUS
10
151.92
20
-115.191
11
151.891
21
-115.051
0
LINE
8
BLACK
6
CONTINUOUS
10
151.891
20
-115.051
11
151.901
21
-114.908
0
LINE
8
BLACK
6
CONTINUOUS
10
151.901
20
-114.908
11
151.949
21
-114.773
0
LINE
8
BLACK
6
CONTINUOUS
10
151.949
20
-114.773
11
152.031
21
-114.657
0
LINE
8
BLACK
6
CONTINUOUS
10
152.031
20
-114.657
11
152.142
21
-114.566
0
LINE
8
BLACK
6
CONTINUOUS
10
152.142
20
-114.566
11
152.273
21
-114.509
0
LINE
8
BLACK
6
CONTINUOUS
10
152.273
20
-114.509
11
152.415
21
-114.49
0
LINE
8
BLACK
6
CONTINUOUS
10
152.415
20
-114.49
11
152.865
21
-114.49
0
LINE
8
BLACK
6
CONTINUOUS
10
152.865
20
-114.49
11
152.936
21
-114.495
0
LINE
8
BLACK
6
CONTINUOUS
10
177.255
20
-112.639
11
177.443
21
-112.696
0
LINE
8
BLACK
6
CONTINUOUS
10
177.443
20
-112.696
11
177.616
21
-112.789
0
LINE
8
BLACK
6
CONTINUOUS
10
177.616
20
-112.789
11
177.767
21
-112.913
0
LINE
8
BLACK
6
CONTINUOUS
10
177.767
20
-112.913
11
177.891
21
-113.064
0
LINE
8
BLACK
6
CONTINUOUS
10
177.891
20
-113.064
11
177.984
21
-113.237
0
LINE
8
BLACK
6
CONTINUOUS
10
177.984
20
-113.237
11
178.041
21
-113.425
0
LINE
8
BLACK
6
CONTINUOUS
10
178.041
20
-113.425
11
178.06
21
-113.62
0
LINE
8
BLACK
6
CONTINUOUS
10
178.06
20
-113.62
11
178.041
21
-113.815
0
LINE
8
BLACK
6
CONTINUOUS
10
178.041
20
-113.815
11
177.984
21
-114.003
0
LINE
8
BLACK
6
CONTINUOUS
10
177.984
20
-114.003
11
177.891
21
-114.176
0
LINE
8
BLACK
6
CONTINUOUS
10
177.891
20
-114.176
11
177.767
21
-114.327
0
LINE
8
BLACK
6
CONTINUOUS
10
177.767
20
-114.327
11
177.616
21
-114.451
0
LINE
8
BLACK
6
CONTINUOUS
10
177.616
20
-114.451
11
177.443
21
-114.544
0
LINE
8
BLACK
6
CONTINUOUS
10
177.443
20
-114.544
11
177.255
21
-114.601
0
LINE
8
BLACK
6
CONTINUOUS
10
177.255
20
-114.601
11
177.06
21
-114.62
0
LINE
8
BLACK
6
CONTINUOUS
10
177.06
20
-114.62
11
176.865
21
-114.601
0
LINE
8
BLACK
6
CONTINUOUS
10
176.865
20
-114.601
11
176.677
21
-114.544
0
LINE
8
BLACK
6
CONTINUOUS
10
176.677
20
-114.544
11
176.504
21
-114.451
0
LINE
8
BLACK
6
CONTINUOUS
10
176.504
20
-114.451
11
176.353
21
-114.327
0
LINE
8
BLACK
6
CONTINUOUS
10
176.353
20
-114.327
11
176.229
21
-114.176
0
LINE
8
BLACK
6
CONTINUOUS
10
176.229
20
-114.176
11
176.136
21
-114.003
0
LINE
8
BLACK
6
CONTINUOUS
10
176.136
20
-114.003
11
176.079
21
-113.815
0
LINE
8
BLACK
6
CONTINUOUS
10
176.079
20
-113.815
11
176.06
21
-113.62
0
LINE
8
BLACK
6
CONTINUOUS
10
176.06
20
-113.62
11
176.079
21
-113.425
0
LINE
8
BLACK
6
CONTINUOUS
10
176.079
20
-113.425
11
176.136
21
-113.237
0
LINE
8
BLACK
6
CONTINUOUS
10
176.136
20
-113.237
11
176.229
21
-113.064
0
LINE
8
BLACK
6
CONTINUOUS
10
176.229
20
-113.064
11
176.353
21
-112.913
0
LINE
8
BLACK
6
CONTINUOUS
10
176.353
20
-112.913
11
176.504
21
-112.789
0
LINE
8
BLACK
6
CONTINUOUS
10
176.504
20
-112.789
11
176.677
21
-112.696
0
LINE
8
BLACK
6
CONTINUOUS
10
176.677
20
-112.696
11
176.865
21
-112.639
0
LINE
8
BLACK
6
CONTINUOUS
10
176.865
20
-112.639
11
177.06
21
-112.62
0
LINE
8
BLACK
6
CONTINUOUS
10
177.06
20
-112.62
11
177.255
21
-112.639
0
LINE
8
BLACK
6
CONTINUOUS
10
183.25
20
-114.6
11
181.25
21
-114.6
0
LINE
8
BLACK
6
CONTINUOUS
10
181.25
20
-114.6
11
181.25
21
-112.6
0
LINE
8
BLACK
6
CONTINUOUS
10
181.25
20
-112.6
11
183.25
21
-112.6
0
LINE
8
BLACK
6
CONTINUOUS
10
183.25
20
-112.6
11
183.25
21
-114.6
0
LINE
8
BLACK
6
CONTINUOUS
10
179.855
20
-112.619
11
180.043
21
-112.676
0
LINE
8
BLACK
6
CONTINUOUS
10
180.043
20
-112.676
11
180.216
21
-112.769
0
LINE
8
BLACK
6
CONTINUOUS
10
180.216
20
-112.769
11
180.367
21
-112.893
0
LINE
8
BLACK
6
CONTINUOUS
10
180.367
20
-112.893
11
180.491
21
-113.044
0
LINE
8
BLACK
6
CONTINUOUS
10
180.491
20
-113.044
11
180.584
21
-113.217
0
LINE
8
BLACK
6
CONTINUOUS
10
180.584
20
-113.217
11
180.641
21
-113.405
0
LINE
8
BLACK
6
CONTINUOUS
10
180.641
20
-113.405
11
180.66
21
-113.6
0
LINE
8
BLACK
6
CONTINUOUS
10
180.66
20
-113.6
11
180.641
21
-113.795
0
LINE
8
BLACK
6
CONTINUOUS
10
180.641
20
-113.795
11
180.584
21
-113.983
0
LINE
8
BLACK
6
CONTINUOUS
10
180.584
20
-113.983
11
180.491
21
-114.156
0
LINE
8
BLACK
6
CONTINUOUS
10
180.491
20
-114.156
11
180.367
21
-114.307
0
LINE
8
BLACK
6
CONTINUOUS
10
180.367
20
-114.307
11
180.216
21
-114.431
0
LINE
8
BLACK
6
CONTINUOUS
10
180.216
20
-114.431
11
180.043
21
-114.524
0
LINE
8
BLACK
6
CONTINUOUS
10
180.043
20
-114.524
11
179.855
21
-114.581
0
LINE
8
BLACK
6
CONTINUOUS
10
179.855
20
-114.581
11
179.66
21
-114.6
0
LINE
8
BLACK
6
CONTINUOUS
10
179.66
20
-114.6
11
179.465
21
-114.581
0
LINE
8
BLACK
6
CONTINUOUS
10
179.465
20
-114.581
11
179.277
21
-114.524
0
LINE
8
BLACK
6
CONTINUOUS
10
179.277
20
-114.524
11
179.104
21
-114.431
0
LINE
8
BLACK
6
CONTINUOUS
10
179.104
20
-114.431
11
178.953
21
-114.307
0
LINE
8
BLACK
6
CONTINUOUS
10
178.953
20
-114.307
11
178.829
21
-114.156
0
LINE
8
BLACK
6
CONTINUOUS
10
178.829
20
-114.156
11
178.736
21
-113.983
0
LINE
8
BLACK
6
CONTINUOUS
10
178.736
20
-113.983
11
178.679
21
-113.795
0
LINE
8
BLACK
6
CONTINUOUS
10
178.679
20
-113.795
11
178.66
21
-113.6
0
LINE
8
BLACK
6
CONTINUOUS
10
178.66
20
-113.6
11
178.679
21
-113.405
0
LINE
8
BLACK
6
CONTINUOUS
10
178.679
20
-113.405
11
178.736
21
-113.217
0
LINE
8
BLACK
6
CONTINUOUS
10
178.736
20
-113.217
11
178.829
21
-113.044
0
LINE
8
BLACK
6
CONTINUOUS
10
178.829
20
-113.044
11
178.953
21
-112.893
0
LINE
8
BLACK
6
CONTINUOUS
10
178.953
20
-112.893
11
179.104
21
-112.769
0
LINE
8
BLACK
6
CONTINUOUS
10
179.104
20
-112.769
11
179.277
21
-112.676
0
LINE
8
BLACK
6
CONTINUOUS
10
179.277
20
-112.676
11
179.465
21
-112.619
0
LINE
8
BLACK
6
CONTINUOUS
10
179.465
20
-112.619
11
179.66
21
-112.6
0
LINE
8
BLACK
6
CONTINUOUS
10
179.66
20
-112.6
11
179.855
21
-112.619
0
LINE
8
BLACK
6
CONTINUOUS
10
141.412
20
-114.545
11
139.507
21
-114.545
0
LINE
8
BLACK
6
CONTINUOUS
10
139.507
20
-114.545
11
139.507
21
-112.545
0
LINE
8
BLACK
6
CONTINUOUS
10
139.507
20
-112.545
11
141.412
21
-112.545
0
LINE
8
BLACK
6
CONTINUOUS
10
141.412
20
-112.545
11
141.412
21
-114.545
0
LINE
8
BLACK
6
CONTINUOUS
10
145.684
20
-112.556
11
145.871
21
-112.604
0
LINE
8
BLACK
6
CONTINUOUS
10
145.871
20
-112.604
11
146.044
21
-112.689
0
LINE
8
BLACK
6
CONTINUOUS
10
146.044
20
-112.689
11
146.196
21
-112.807
0
LINE
8
BLACK
6
CONTINUOUS
10
146.196
20
-112.807
11
146.322
21
-112.953
0
LINE
8
BLACK
6
CONTINUOUS
10
146.322
20
-112.953
11
146.415
21
-113.122
0
LINE
8
BLACK
6
CONTINUOUS
10
146.415
20
-113.122
11
146.473
21
-113.306
0
LINE
8
BLACK
6
CONTINUOUS
10
146.473
20
-113.306
11
146.493
21
-113.497
0
LINE
8
BLACK
6
CONTINUOUS
10
146.493
20
-113.497
11
146.493
21
-113.593
0
LINE
8
BLACK
6
CONTINUOUS
10
146.493
20
-113.593
11
146.488
21
-113.689
0
LINE
8
BLACK
6
CONTINUOUS
10
146.488
20
-113.689
11
146.449
21
-113.878
0
LINE
8
BLACK
6
CONTINUOUS
10
146.449
20
-113.878
11
146.373
21
-114.055
0
LINE
8
BLACK
6
CONTINUOUS
10
146.373
20
-114.055
11
146.263
21
-114.213
0
LINE
8
BLACK
6
CONTINUOUS
10
146.263
20
-114.213
11
146.123
21
-114.346
0
LINE
8
BLACK
6
CONTINUOUS
10
146.123
20
-114.346
11
145.959
21
-114.448
0
LINE
8
BLACK
6
CONTINUOUS
10
145.959
20
-114.448
11
145.779
21
-114.515
0
LINE
8
BLACK
6
CONTINUOUS
10
145.779
20
-114.515
11
145.588
21
-114.544
0
LINE
8
BLACK
6
CONTINUOUS
10
145.588
20
-114.544
11
145.396
21
-114.534
0
LINE
8
BLACK
6
CONTINUOUS
10
145.396
20
-114.534
11
145.209
21
-114.486
0
LINE
8
BLACK
6
CONTINUOUS
10
145.209
20
-114.486
11
145.036
21
-114.401
0
LINE
8
BLACK
6
CONTINUOUS
10
145.036
20
-114.401
11
144.884
21
-114.283
0
LINE
8
BLACK
6
CONTINUOUS
10
144.884
20
-114.283
11
144.758
21
-114.137
0
LINE
8
BLACK
6
CONTINUOUS
10
144.758
20
-114.137
11
144.665
21
-113.968
0
LINE
8
BLACK
6
CONTINUOUS
10
144.665
20
-113.968
11
144.607
21
-113.784
0
LINE
8
BLACK
6
CONTINUOUS
10
144.607
20
-113.784
11
144.588
21
-113.593
0
LINE
8
BLACK
6
CONTINUOUS
10
144.588
20
-113.593
11
144.588
21
-113.497
0
LINE
8
BLACK
6
CONTINUOUS
10
144.588
20
-113.497
11
144.592
21
-113.401
0
LINE
8
BLACK
6
CONTINUOUS
10
144.592
20
-113.401
11
144.631
21
-113.212
0
LINE
8
BLACK
6
CONTINUOUS
10
144.631
20
-113.212
11
144.707
21
-113.035
0
LINE
8
BLACK
6
CONTINUOUS
10
144.707
20
-113.035
11
144.817
21
-112.877
0
LINE
8
BLACK
6
CONTINUOUS
10
144.817
20
-112.877
11
144.957
21
-112.744
0
LINE
8
BLACK
6
CONTINUOUS
10
144.957
20
-112.744
11
145.121
21
-112.642
0
LINE
8
BLACK
6
CONTINUOUS
10
145.121
20
-112.642
11
145.301
21
-112.575
0
LINE
8
BLACK
6
CONTINUOUS
10
145.301
20
-112.575
11
145.492
21
-112.546
0
LINE
8
BLACK
6
CONTINUOUS
10
145.492
20
-112.546
11
145.684
21
-112.556
0
LINE
8
BLACK
6
CONTINUOUS
10
143.144
20
-112.556
11
143.331
21
-112.604
0
LINE
8
BLACK
6
CONTINUOUS
10
143.331
20
-112.604
11
143.504
21
-112.689
0
LINE
8
BLACK
6
CONTINUOUS
10
143.504
20
-112.689
11
143.656
21
-112.807
0
LINE
8
BLACK
6
CONTINUOUS
10
143.656
20
-112.807
11
143.782
21
-112.953
0
LINE
8
BLACK
6
CONTINUOUS
10
143.782
20
-112.953
11
143.875
21
-113.122
0
LINE
8
BLACK
6
CONTINUOUS
10
143.875
20
-113.122
11
143.933
21
-113.306
0
LINE
8
BLACK
6
CONTINUOUS
10
143.933
20
-113.306
11
143.952
21
-113.497
0
LINE
8
BLACK
6
CONTINUOUS
10
143.952
20
-113.497
11
143.952
21
-113.593
0
LINE
8
BLACK
6
CONTINUOUS
10
143.952
20
-113.593
11
143.948
21
-113.689
0
LINE
8
BLACK
6
CONTINUOUS
10
143.948
20
-113.689
11
143.909
21
-113.878
0
LINE
8
BLACK
6
CONTINUOUS
10
143.909
20
-113.878
11
143.833
21
-114.055
0
LINE
8
BLACK
6
CONTINUOUS
10
143.833
20
-114.055
11
143.723
21
-114.213
0
LINE
8
BLACK
6
CONTINUOUS
10
143.723
20
-114.213
11
143.583
21
-114.346
0
LINE
8
BLACK
6
CONTINUOUS
10
143.583
20
-114.346
11
143.419
21
-114.448
0
LINE
8
BLACK
6
CONTINUOUS
10
143.419
20
-114.448
11
143.239
21
-114.515
0
LINE
8
BLACK
6
CONTINUOUS
10
143.239
20
-114.515
11
143.048
21
-114.544
0
LINE
8
BLACK
6
CONTINUOUS
10
143.048
20
-114.544
11
142.856
21
-114.534
0
LINE
8
BLACK
6
CONTINUOUS
10
142.856
20
-114.534
11
142.669
21
-114.486
0
LINE
8
BLACK
6
CONTINUOUS
10
142.669
20
-114.486
11
142.496
21
-114.401
0
LINE
8
BLACK
6
CONTINUOUS
10
142.496
20
-114.401
11
142.344
21
-114.283
0
LINE
8
BLACK
6
CONTINUOUS
10
142.344
20
-114.283
11
142.218
21
-114.137
0
LINE
8
BLACK
6
CONTINUOUS
10
142.218
20
-114.137
11
142.125
21
-113.968
0
LINE
8
BLACK
6
CONTINUOUS
10
142.125
20
-113.968
11
142.067
21
-113.784
0
LINE
8
BLACK
6
CONTINUOUS
10
142.067
20
-113.784
11
142.047
21
-113.593
0
LINE
8
BLACK
6
CONTINUOUS
10
142.047
20
-113.593
11
142.047
21
-113.497
0
LINE
8
BLACK
6
CONTINUOUS
10
142.047
20
-113.497
11
142.052
21
-113.401
0
LINE
8
BLACK
6
CONTINUOUS
10
142.052
20
-113.401
11
142.091
21
-113.212
0
LINE
8
BLACK
6
CONTINUOUS
10
142.091
20
-113.212
11
142.167
21
-113.035
0
LINE
8
BLACK
6
CONTINUOUS
10
142.167
20
-113.035
11
142.277
21
-112.877
0
LINE
8
BLACK
6
CONTINUOUS
10
142.277
20
-112.877
11
142.417
21
-112.744
0
LINE
8
BLACK
6
CONTINUOUS
10
142.417
20
-112.744
11
142.581
21
-112.642
0
LINE
8
BLACK
6
CONTINUOUS
10
142.581
20
-112.642
11
142.761
21
-112.575
0
LINE
8
BLACK
6
CONTINUOUS
10
142.761
20
-112.575
11
142.952
21
-112.546
0
LINE
8
BLACK
6
CONTINUOUS
10
142.952
20
-112.546
11
143.144
21
-112.556
0
LINE
8
BLACK
6
CONTINUOUS
10
152.936
20
-113.225
11
153.074
21
-113.263
0
LINE
8
BLACK
6
CONTINUOUS
10
153.074
20
-113.263
11
153.196
21
-113.338
0
LINE
8
BLACK
6
CONTINUOUS
10
153.196
20
-113.338
11
153.294
21
-113.442
0
LINE
8
BLACK
6
CONTINUOUS
10
153.294
20
-113.442
11
153.36
21
-113.569
0
LINE
8
BLACK
6
CONTINUOUS
10
153.36
20
-113.569
11
153.389
21
-113.709
0
LINE
8
BLACK
6
CONTINUOUS
10
153.389
20
-113.709
11
153.379
21
-113.852
0
LINE
8
BLACK
6
CONTINUOUS
10
153.379
20
-113.852
11
153.331
21
-113.987
0
LINE
8
BLACK
6
CONTINUOUS
10
153.331
20
-113.987
11
153.249
21
-114.103
0
LINE
8
BLACK
6
CONTINUOUS
10
153.249
20
-114.103
11
153.138
21
-114.194
0
LINE
8
BLACK
6
CONTINUOUS
10
153.138
20
-114.194
11
153.007
21
-114.251
0
LINE
8
BLACK
6
CONTINUOUS
10
153.007
20
-114.251
11
152.865
21
-114.27
0
LINE
8
BLACK
6
CONTINUOUS
10
152.865
20
-114.27
11
152.415
21
-114.27
0
LINE
8
BLACK
6
CONTINUOUS
10
152.415
20
-114.27
11
152.344
21
-114.265
0
LINE
8
BLACK
6
CONTINUOUS
10
152.344
20
-114.265
11
152.206
21
-114.227
0
LINE
8
BLACK
6
CONTINUOUS
10
152.206
20
-114.227
11
152.084
21
-114.152
0
LINE
8
BLACK
6
CONTINUOUS
10
152.084
20
-114.152
11
151.986
21
-114.048
0
LINE
8
BLACK
6
CONTINUOUS
10
151.986
20
-114.048
11
151.92
21
-113.921
0
LINE
8
BLACK
6
CONTINUOUS
10
151.92
20
-113.921
11
151.891
21
-113.781
0
LINE
8
BLACK
6
CONTINUOUS
10
151.891
20
-113.781
11
151.901
21
-113.638
0
LINE
8
BLACK
6
CONTINUOUS
10
151.901
20
-113.638
11
151.949
21
-113.503
0
LINE
8
BLACK
6
CONTINUOUS
10
151.949
20
-113.503
11
152.031
21
-113.387
0
LINE
8
BLACK
6
CONTINUOUS
10
152.031
20
-113.387
11
152.142
21
-113.296
0
LINE
8
BLACK
6
CONTINUOUS
10
152.142
20
-113.296
11
152.273
21
-113.239
0
LINE
8
BLACK
6
CONTINUOUS
10
152.273
20
-113.239
11
152.415
21
-113.22
0
LINE
8
BLACK
6
CONTINUOUS
10
152.415
20
-113.22
11
152.865
21
-113.22
0
LINE
8
BLACK
6
CONTINUOUS
10
152.865
20
-113.22
11
152.936
21
-113.225
0
LINE
8
BLACK
6
CONTINUOUS
10
165.56
20
-112.373
11
165.712
21
-112.426
0
LINE
8
BLACK
6
CONTINUOUS
10
165.712
20
-112.426
11
165.849
21
-112.512
0
LINE
8
BLACK
6
CONTINUOUS
10
165.849
20
-112.512
11
165.963
21
-112.626
0
LINE
8
BLACK
6
CONTINUOUS
10
165.963
20
-112.626
11
166.049
21
-112.763
0
LINE
8
BLACK
6
CONTINUOUS
10
166.049
20
-112.763
11
166.102
21
-112.915
0
LINE
8
BLACK
6
CONTINUOUS
10
166.102
20
-112.915
11
166.12
21
-113.075
0
LINE
8
BLACK
6
CONTINUOUS
10
166.12
20
-113.075
11
166.102
21
-113.235
0
LINE
8
BLACK
6
CONTINUOUS
10
166.102
20
-113.235
11
166.049
21
-113.387
0
LINE
8
BLACK
6
CONTINUOUS
10
166.049
20
-113.387
11
165.963
21
-113.524
0
LINE
8
BLACK
6
CONTINUOUS
10
165.963
20
-113.524
11
165.849
21
-113.638
0
LINE
8
BLACK
6
CONTINUOUS
10
165.849
20
-113.638
11
165.712
21
-113.724
0
LINE
8
BLACK
6
CONTINUOUS
10
165.712
20
-113.724
11
165.56
21
-113.777
0
LINE
8
BLACK
6
CONTINUOUS
10
165.56
20
-113.777
11
165.4
21
-113.795
0
LINE
8
BLACK
6
CONTINUOUS
10
165.4
20
-113.795
11
165.24
21
-113.777
0
LINE
8
BLACK
6
CONTINUOUS
10
165.24
20
-113.777
11
165.088
21
-113.724
0
LINE
8
BLACK
6
CONTINUOUS
10
165.088
20
-113.724
11
164.951
21
-113.638
0
LINE
8
BLACK
6
CONTINUOUS
10
164.951
20
-113.638
11
164.837
21
-113.524
0
LINE
8
BLACK
6
CONTINUOUS
10
164.837
20
-113.524
11
164.751
21
-113.387
0
LINE
8
BLACK
6
CONTINUOUS
10
164.751
20
-113.387
11
164.698
21
-113.235
0
LINE
8
BLACK
6
CONTINUOUS
10
164.698
20
-113.235
11
164.68
21
-113.075
0
LINE
8
BLACK
6
CONTINUOUS
10
164.68
20
-113.075
11
164.698
21
-112.915
0
LINE
8
BLACK
6
CONTINUOUS
10
164.698
20
-112.915
11
164.751
21
-112.763
0
LINE
8
BLACK
6
CONTINUOUS
10
164.751
20
-112.763
11
164.837
21
-112.626
0
LINE
8
BLACK
6
CONTINUOUS
10
164.837
20
-112.626
11
164.951
21
-112.512
0
LINE
8
BLACK
6
CONTINUOUS
10
164.951
20
-112.512
11
165.088
21
-112.426
0
LINE
8
BLACK
6
CONTINUOUS
10
165.088
20
-112.426
11
165.24
21
-112.373
0
LINE
8
BLACK
6
CONTINUOUS
10
165.24
20
-112.373
11
165.4
21
-112.355
0
LINE
8
BLACK
6
CONTINUOUS
10
165.4
20
-112.355
11
165.56
21
-112.373
0
LINE
8
BLACK
6
CONTINUOUS
10
153.39
20
-113
11
151.89
21
-113
0
LINE
8
BLACK
6
CONTINUOUS
10
151.89
20
-113
11
151.89
21
-111.95
0
LINE
8
BLACK
6
CONTINUOUS
10
151.89
20
-111.95
11
153.39
21
-111.95
0
LINE
8
BLACK
6
CONTINUOUS
10
153.39
20
-111.95
11
153.39
21
-113
0
LINE
8
BLACK
6
CONTINUOUS
10
203.365
20
-93.5392
11
203.553
21
-93.5961
0
LINE
8
BLACK
6
CONTINUOUS
10
203.553
20
-93.5961
11
203.726
21
-93.6885
0
LINE
8
BLACK
6
CONTINUOUS
10
203.726
20
-93.6885
11
203.877
21
-93.8129
0
LINE
8
BLACK
6
CONTINUOUS
10
203.877
20
-93.8129
11
204.001
21
-93.9644
0
LINE
8
BLACK
6
CONTINUOUS
10
204.001
20
-93.9644
11
204.094
21
-94.1373
0
LINE
8
BLACK
6
CONTINUOUS
10
204.094
20
-94.1373
11
204.151
21
-94.3249
0
LINE
8
BLACK
6
CONTINUOUS
10
204.151
20
-94.3249
11
204.17
21
-94.52
0
LINE
8
BLACK
6
CONTINUOUS
10
204.17
20
-94.52
11
204.151
21
-94.7151
0
LINE
8
BLACK
6
CONTINUOUS
10
204.151
20
-94.7151
11
204.094
21
-94.9027
0
LINE
8
BLACK
6
CONTINUOUS
10
204.094
20
-94.9027
11
204.001
21
-95.0756
0
LINE
8
BLACK
6
CONTINUOUS
10
204.001
20
-95.0756
11
203.877
21
-95.2271
0
LINE
8
BLACK
6
CONTINUOUS
10
203.877
20
-95.2271
11
203.726
21
-95.3515
0
LINE
8
BLACK
6
CONTINUOUS
10
203.726
20
-95.3515
11
203.553
21
-95.4439
0
LINE
8
BLACK
6
CONTINUOUS
10
203.553
20
-95.4439
11
203.365
21
-95.5008
0
LINE
8
BLACK
6
CONTINUOUS
10
203.365
20
-95.5008
11
203.17
21
-95.52
0
LINE
8
BLACK
6
CONTINUOUS
10
203.17
20
-95.52
11
202.975
21
-95.5008
0
LINE
8
BLACK
6
CONTINUOUS
10
202.975
20
-95.5008
11
202.787
21
-95.4439
0
LINE
8
BLACK
6
CONTINUOUS
10
202.787
20
-95.4439
11
202.614
21
-95.3515
0
LINE
8
BLACK
6
CONTINUOUS
10
202.614
20
-95.3515
11
202.463
21
-95.2271
0
LINE
8
BLACK
6
CONTINUOUS
10
202.463
20
-95.2271
11
202.339
21
-95.0756
0
LINE
8
BLACK
6
CONTINUOUS
10
202.339
20
-95.0756
11
202.246
21
-94.9027
0
LINE
8
BLACK
6
CONTINUOUS
10
202.246
20
-94.9027
11
202.189
21
-94.7151
0
LINE
8
BLACK
6
CONTINUOUS
10
202.189
20
-94.7151
11
202.17
21
-94.52
0
LINE
8
BLACK
6
CONTINUOUS
10
202.17
20
-94.52
11
202.189
21
-94.3249
0
LINE
8
BLACK
6
CONTINUOUS
10
202.189
20
-94.3249
11
202.246
21
-94.1373
0
LINE
8
BLACK
6
CONTINUOUS
10
202.246
20
-94.1373
11
202.339
21
-93.9644
0
LINE
8
BLACK
6
CONTINUOUS
10
202.339
20
-93.9644
11
202.463
21
-93.8129
0
LINE
8
BLACK
6
CONTINUOUS
10
202.463
20
-93.8129
11
202.614
21
-93.6885
0
LINE
8
BLACK
6
CONTINUOUS
10
202.614
20
-93.6885
11
202.787
21
-93.5961
0
LINE
8
BLACK
6
CONTINUOUS
10
202.787
20
-93.5961
11
202.975
21
-93.5392
0
LINE
8
BLACK
6
CONTINUOUS
10
202.975
20
-93.5392
11
203.17
21
-93.52
0
LINE
8
BLACK
6
CONTINUOUS
10
203.17
20
-93.52
11
203.365
21
-93.5392
0
LINE
8
BLACK
6
CONTINUOUS
10
200.785
20
-93.5392
11
200.973
21
-93.5961
0
LINE
8
BLACK
6
CONTINUOUS
10
200.973
20
-93.5961
11
201.146
21
-93.6885
0
LINE
8
BLACK
6
CONTINUOUS
10
201.146
20
-93.6885
11
201.297
21
-93.8129
0
LINE
8
BLACK
6
CONTINUOUS
10
201.297
20
-93.8129
11
201.421
21
-93.9644
0
LINE
8
BLACK
6
CONTINUOUS
10
201.421
20
-93.9644
11
201.514
21
-94.1373
0
LINE
8
BLACK
6
CONTINUOUS
10
201.514
20
-94.1373
11
201.571
21
-94.3249
0
LINE
8
BLACK
6
CONTINUOUS
10
201.571
20
-94.3249
11
201.59
21
-94.52
0
LINE
8
BLACK
6
CONTINUOUS
10
201.59
20
-94.52
11
201.571
21
-94.7151
0
LINE
8
BLACK
6
CONTINUOUS
10
201.571
20
-94.7151
11
201.514
21
-94.9027
0
LINE
8
BLACK
6
CONTINUOUS
10
201.514
20
-94.9027
11
201.421
21
-95.0756
0
LINE
8
BLACK
6
CONTINUOUS
10
201.421
20
-95.0756
11
201.297
21
-95.2271
0
LINE
8
BLACK
6
CONTINUOUS
10
201.297
20
-95.2271
11
201.146
21
-95.3515
0
LINE
8
BLACK
6
CONTINUOUS
10
201.146
20
-95.3515
11
200.973
21
-95.4439
0
LINE
8
BLACK
6
CONTINUOUS
10
200.973
20
-95.4439
11
200.785
21
-95.5008
0
LINE
8
BLACK
6
CONTINUOUS
10
200.785
20
-95.5008
11
200.59
21
-95.52
0
LINE
8
BLACK
6
CONTINUOUS
10
200.59
20
-95.52
11
200.395
21
-95.5008
0
LINE
8
BLACK
6
CONTINUOUS
10
200.395
20
-95.5008
11
200.207
21
-95.4439
0
LINE
8
BLACK
6
CONTINUOUS
10
200.207
20
-95.4439
11
200.034
21
-95.3515
0
LINE
8
BLACK
6
CONTINUOUS
10
200.034
20
-95.3515
11
199.883
21
-95.2271
0
LINE
8
BLACK
6
CONTINUOUS
10
199.883
20
-95.2271
11
199.759
21
-95.0756
0
LINE
8
BLACK
6
CONTINUOUS
10
199.759
20
-95.0756
11
199.666
21
-94.9027
0
LINE
8
BLACK
6
CONTINUOUS
10
199.666
20
-94.9027
11
199.609
21
-94.7151
0
LINE
8
BLACK
6
CONTINUOUS
10
199.609
20
-94.7151
11
199.59
21
-94.52
0
LINE
8
BLACK
6
CONTINUOUS
10
199.59
20
-94.52
11
199.609
21
-94.3249
0
LINE
8
BLACK
6
CONTINUOUS
10
199.609
20
-94.3249
11
199.666
21
-94.1373
0
LINE
8
BLACK
6
CONTINUOUS
10
199.666
20
-94.1373
11
199.759
21
-93.9644
0
LINE
8
BLACK
6
CONTINUOUS
10
199.759
20
-93.9644
11
199.883
21
-93.8129
0
LINE
8
BLACK
6
CONTINUOUS
10
199.883
20
-93.8129
11
200.034
21
-93.6885
0
LINE
8
BLACK
6
CONTINUOUS
10
200.034
20
-93.6885
11
200.207
21
-93.5961
0
LINE
8
BLACK
6
CONTINUOUS
10
200.207
20
-93.5961
11
200.395
21
-93.5392
0
LINE
8
BLACK
6
CONTINUOUS
10
200.395
20
-93.5392
11
200.59
21
-93.52
0
LINE
8
BLACK
6
CONTINUOUS
10
200.59
20
-93.52
11
200.785
21
-93.5392
0
LINE
8
BLACK
6
CONTINUOUS
10
198.185
20
-93.5192
11
198.373
21
-93.5761
0
LINE
8
BLACK
6
CONTINUOUS
10
198.373
20
-93.5761
11
198.546
21
-93.6685
0
LINE
8
BLACK
6
CONTINUOUS
10
198.546
20
-93.6685
11
198.697
21
-93.7929
0
LINE
8
BLACK
6
CONTINUOUS
10
198.697
20
-93.7929
11
198.821
21
-93.9444
0
LINE
8
BLACK
6
CONTINUOUS
10
198.821
20
-93.9444
11
198.914
21
-94.1173
0
LINE
8
BLACK
6
CONTINUOUS
10
198.914
20
-94.1173
11
198.971
21
-94.3049
0
LINE
8
BLACK
6
CONTINUOUS
10
198.971
20
-94.3049
11
198.99
21
-94.5
0
LINE
8
BLACK
6
CONTINUOUS
10
198.99
20
-94.5
11
198.971
21
-94.6951
0
LINE
8
BLACK
6
CONTINUOUS
10
198.971
20
-94.6951
11
198.914
21
-94.8827
0
LINE
8
BLACK
6
CONTINUOUS
10
198.914
20
-94.8827
11
198.821
21
-95.0556
0
LINE
8
BLACK
6
CONTINUOUS
10
198.821
20
-95.0556
11
198.697
21
-95.2071
0
LINE
8
BLACK
6
CONTINUOUS
10
198.697
20
-95.2071
11
198.546
21
-95.3315
0
LINE
8
BLACK
6
CONTINUOUS
10
198.546
20
-95.3315
11
198.373
21
-95.4239
0
LINE
8
BLACK
6
CONTINUOUS
10
198.373
20
-95.4239
11
198.185
21
-95.4808
0
LINE
8
BLACK
6
CONTINUOUS
10
198.185
20
-95.4808
11
197.99
21
-95.5
0
LINE
8
BLACK
6
CONTINUOUS
10
197.99
20
-95.5
11
197.795
21
-95.4808
0
LINE
8
BLACK
6
CONTINUOUS
10
197.795
20
-95.4808
11
197.607
21
-95.4239
0
LINE
8
BLACK
6
CONTINUOUS
10
197.607
20
-95.4239
11
197.434
21
-95.3315
0
LINE
8
BLACK
6
CONTINUOUS
10
197.434
20
-95.3315
11
197.283
21
-95.2071
0
LINE
8
BLACK
6
CONTINUOUS
10
197.283
20
-95.2071
11
197.159
21
-95.0556
0
LINE
8
BLACK
6
CONTINUOUS
10
197.159
20
-95.0556
11
197.066
21
-94.8827
0
LINE
8
BLACK
6
CONTINUOUS
10
197.066
20
-94.8827
11
197.009
21
-94.6951
0
LINE
8
BLACK
6
CONTINUOUS
10
197.009
20
-94.6951
11
196.99
21
-94.5
0
LINE
8
BLACK
6
CONTINUOUS
10
196.99
20
-94.5
11
197.009
21
-94.3049
0
LINE
8
BLACK
6
CONTINUOUS
10
197.009
20
-94.3049
11
197.066
21
-94.1173
0
LINE
8
BLACK
6
CONTINUOUS
10
197.066
20
-94.1173
11
197.159
21
-93.9444
0
LINE
8
BLACK
6
CONTINUOUS
10
197.159
20
-93.9444
11
197.283
21
-93.7929
0
LINE
8
BLACK
6
CONTINUOUS
10
197.283
20
-93.7929
11
197.434
21
-93.6685
0
LINE
8
BLACK
6
CONTINUOUS
10
197.434
20
-93.6685
11
197.607
21
-93.5761
0
LINE
8
BLACK
6
CONTINUOUS
10
197.607
20
-93.5761
11
197.795
21
-93.5192
0
LINE
8
BLACK
6
CONTINUOUS
10
197.795
20
-93.5192
11
197.99
21
-93.5
0
LINE
8
BLACK
6
CONTINUOUS
10
197.99
20
-93.5
11
198.185
21
-93.5192
0
LINE
8
BLACK
6
CONTINUOUS
10
195.595
20
-93.5192
11
195.783
21
-93.5761
0
LINE
8
BLACK
6
CONTINUOUS
10
195.783
20
-93.5761
11
195.956
21
-93.6685
0
LINE
8
BLACK
6
CONTINUOUS
10
195.956
20
-93.6685
11
196.107
21
-93.7929
0
LINE
8
BLACK
6
CONTINUOUS
10
196.107
20
-93.7929
11
196.231
21
-93.9444
0
LINE
8
BLACK
6
CONTINUOUS
10
196.231
20
-93.9444
11
196.324
21
-94.1173
0
LINE
8
BLACK
6
CONTINUOUS
10
196.324
20
-94.1173
11
196.381
21
-94.3049
0
LINE
8
BLACK
6
CONTINUOUS
10
196.381
20
-94.3049
11
196.4
21
-94.5
0
LINE
8
BLACK
6
CONTINUOUS
10
196.4
20
-94.5
11
196.381
21
-94.6951
0
LINE
8
BLACK
6
CONTINUOUS
10
196.381
20
-94.6951
11
196.324
21
-94.8827
0
LINE
8
BLACK
6
CONTINUOUS
10
196.324
20
-94.8827
11
196.231
21
-95.0556
0
LINE
8
BLACK
6
CONTINUOUS
10
196.231
20
-95.0556
11
196.107
21
-95.2071
0
LINE
8
BLACK
6
CONTINUOUS
10
196.107
20
-95.2071
11
195.956
21
-95.3315
0
LINE
8
BLACK
6
CONTINUOUS
10
195.956
20
-95.3315
11
195.783
21
-95.4239
0
LINE
8
BLACK
6
CONTINUOUS
10
195.783
20
-95.4239
11
195.595
21
-95.4808
0
LINE
8
BLACK
6
CONTINUOUS
10
195.595
20
-95.4808
11
195.4
21
-95.5
0
LINE
8
BLACK
6
CONTINUOUS
10
195.4
20
-95.5
11
195.205
21
-95.4808
0
LINE
8
BLACK
6
CONTINUOUS
10
195.205
20
-95.4808
11
195.017
21
-95.4239
0
LINE
8
BLACK
6
CONTINUOUS
10
195.017
20
-95.4239
11
194.844
21
-95.3315
0
LINE
8
BLACK
6
CONTINUOUS
10
194.844
20
-95.3315
11
194.693
21
-95.2071
0
LINE
8
BLACK
6
CONTINUOUS
10
194.693
20
-95.2071
11
194.569
21
-95.0556
0
LINE
8
BLACK
6
CONTINUOUS
10
194.569
20
-95.0556
11
194.476
21
-94.8827
0
LINE
8
BLACK
6
CONTINUOUS
10
194.476
20
-94.8827
11
194.419
21
-94.6951
0
LINE
8
BLACK
6
CONTINUOUS
10
194.419
20
-94.6951
11
194.4
21
-94.5
0
LINE
8
BLACK
6
CONTINUOUS
10
194.4
20
-94.5
11
194.419
21
-94.3049
0
LINE
8
BLACK
6
CONTINUOUS
10
194.419
20
-94.3049
11
194.476
21
-94.1173
0
LINE
8
BLACK
6
CONTINUOUS
10
194.476
20
-94.1173
11
194.569
21
-93.9444
0
LINE
8
BLACK
6
CONTINUOUS
10
194.569
20
-93.9444
11
194.693
21
-93.7929
0
LINE
8
BLACK
6
CONTINUOUS
10
194.693
20
-93.7929
11
194.844
21
-93.6685
0
LINE
8
BLACK
6
CONTINUOUS
10
194.844
20
-93.6685
11
195.017
21
-93.5761
0
LINE
8
BLACK
6
CONTINUOUS
10
195.017
20
-93.5761
11
195.205
21
-93.5192
0
LINE
8
BLACK
6
CONTINUOUS
10
195.205
20
-93.5192
11
195.4
21
-93.5
0
LINE
8
BLACK
6
CONTINUOUS
10
195.4
20
-93.5
11
195.595
21
-93.5192
0
LINE
8
BLACK
6
CONTINUOUS
10
118.302
20
-86.2087
11
118.489
21
-86.2656
0
LINE
8
BLACK
6
CONTINUOUS
10
118.489
20
-86.2656
11
118.662
21
-86.358
0
LINE
8
BLACK
6
CONTINUOUS
10
118.662
20
-86.358
11
118.814
21
-86.4824
0
LINE
8
BLACK
6
CONTINUOUS
10
118.814
20
-86.4824
11
118.938
21
-86.6339
0
LINE
8
BLACK
6
CONTINUOUS
10
118.938
20
-86.6339
11
119.031
21
-86.8068
0
LINE
8
BLACK
6
CONTINUOUS
10
119.031
20
-86.8068
11
119.088
21
-86.9944
0
LINE
8
BLACK
6
CONTINUOUS
10
119.088
20
-86.9944
11
119.107
21
-87.1895
0
LINE
8
BLACK
6
CONTINUOUS
10
119.107
20
-87.1895
11
119.088
21
-87.3846
0
LINE
8
BLACK
6
CONTINUOUS
10
119.088
20
-87.3846
11
119.031
21
-87.5722
0
LINE
8
BLACK
6
CONTINUOUS
10
119.031
20
-87.5722
11
118.938
21
-87.745
0
LINE
8
BLACK
6
CONTINUOUS
10
118.938
20
-87.745
11
118.814
21
-87.8966
0
LINE
8
BLACK
6
CONTINUOUS
10
118.814
20
-87.8966
11
118.662
21
-88.0209
0
LINE
8
BLACK
6
CONTINUOUS
10
118.662
20
-88.0209
11
118.489
21
-88.1134
0
LINE
8
BLACK
6
CONTINUOUS
10
118.489
20
-88.1134
11
118.302
21
-88.1703
0
LINE
8
BLACK
6
CONTINUOUS
10
118.302
20
-88.1703
11
118.107
21
-88.1895
0
LINE
8
BLACK
6
CONTINUOUS
10
118.107
20
-88.1895
11
117.912
21
-88.1703
0
LINE
8
BLACK
6
CONTINUOUS
10
117.912
20
-88.1703
11
117.724
21
-88.1134
0
LINE
8
BLACK
6
CONTINUOUS
10
117.724
20
-88.1134
11
117.551
21
-88.0209
0
LINE
8
BLACK
6
CONTINUOUS
10
117.551
20
-88.0209
11
117.4
21
-87.8966
0
LINE
8
BLACK
6
CONTINUOUS
10
117.4
20
-87.8966
11
117.275
21
-87.745
0
LINE
8
BLACK
6
CONTINUOUS
10
117.275
20
-87.745
11
117.183
21
-87.5722
0
LINE
8
BLACK
6
CONTINUOUS
10
117.183
20
-87.5722
11
117.126
21
-87.3846
0
LINE
8
BLACK
6
CONTINUOUS
10
117.126
20
-87.3846
11
117.107
21
-87.1895
0
LINE
8
BLACK
6
CONTINUOUS
10
117.107
20
-87.1895
11
117.126
21
-86.9944
0
LINE
8
BLACK
6
CONTINUOUS
10
117.126
20
-86.9944
11
117.183
21
-86.8068
0
LINE
8
BLACK
6
CONTINUOUS
10
117.183
20
-86.8068
11
117.275
21
-86.6339
0
LINE
8
BLACK
6
CONTINUOUS
10
117.275
20
-86.6339
11
117.4
21
-86.4824
0
LINE
8
BLACK
6
CONTINUOUS
10
117.4
20
-86.4824
11
117.551
21
-86.358
0
LINE
8
BLACK
6
CONTINUOUS
10
117.551
20
-86.358
11
117.724
21
-86.2656
0
LINE
8
BLACK
6
CONTINUOUS
10
117.724
20
-86.2656
11
117.912
21
-86.2087
0
LINE
8
BLACK
6
CONTINUOUS
10
117.912
20
-86.2087
11
118.107
21
-86.1895
0
LINE
8
BLACK
6
CONTINUOUS
10
118.107
20
-86.1895
11
118.302
21
-86.2087
0
LINE
8
BLACK
6
CONTINUOUS
10
116.517
20
-88.1895
11
114.517
21
-88.1895
0
LINE
8
BLACK
6
CONTINUOUS
10
114.517
20
-88.1895
11
114.517
21
-86.1895
0
LINE
8
BLACK
6
CONTINUOUS
10
114.517
20
-86.1895
11
116.517
21
-86.1895
0
LINE
8
BLACK
6
CONTINUOUS
10
116.517
20
-86.1895
11
116.517
21
-88.1895
0
LINE
8
BLACK
6
CONTINUOUS
10
120.902
20
-86.1887
11
121.089
21
-86.2456
0
LINE
8
BLACK
6
CONTINUOUS
10
121.089
20
-86.2456
11
121.262
21
-86.338
0
LINE
8
BLACK
6
CONTINUOUS
10
121.262
20
-86.338
11
121.414
21
-86.4624
0
LINE
8
BLACK
6
CONTINUOUS
10
121.414
20
-86.4624
11
121.538
21
-86.6139
0
LINE
8
BLACK
6
CONTINUOUS
10
121.538
20
-86.6139
11
121.631
21
-86.7868
0
LINE
8
BLACK
6
CONTINUOUS
10
121.631
20
-86.7868
11
121.688
21
-86.9744
0
LINE
8
BLACK
6
CONTINUOUS
10
121.688
20
-86.9744
11
121.707
21
-87.1695
0
LINE
8
BLACK
6
CONTINUOUS
10
121.707
20
-87.1695
11
121.688
21
-87.3646
0
LINE
8
BLACK
6
CONTINUOUS
10
121.688
20
-87.3646
11
121.631
21
-87.5522
0
LINE
8
BLACK
6
CONTINUOUS
10
121.631
20
-87.5522
11
121.538
21
-87.725
0
LINE
8
BLACK
6
CONTINUOUS
10
121.538
20
-87.725
11
121.414
21
-87.8766
0
LINE
8
BLACK
6
CONTINUOUS
10
121.414
20
-87.8766
11
121.262
21
-88.0009
0
LINE
8
BLACK
6
CONTINUOUS
10
121.262
20
-88.0009
11
121.089
21
-88.0934
0
LINE
8
BLACK
6
CONTINUOUS
10
121.089
20
-88.0934
11
120.902
21
-88.1503
0
LINE
8
BLACK
6
CONTINUOUS
10
120.902
20
-88.1503
11
120.707
21
-88.1695
0
LINE
8
BLACK
6
CONTINUOUS
10
120.707
20
-88.1695
11
120.512
21
-88.1503
0
LINE
8
BLACK
6
CONTINUOUS
10
120.512
20
-88.1503
11
120.324
21
-88.0934
0
LINE
8
BLACK
6
CONTINUOUS
10
120.324
20
-88.0934
11
120.151
21
-88.0009
0
LINE
8
BLACK
6
CONTINUOUS
10
120.151
20
-88.0009
11
120
21
-87.8766
0
LINE
8
BLACK
6
CONTINUOUS
10
120
20
-87.8766
11
119.875
21
-87.725
0
LINE
8
BLACK
6
CONTINUOUS
10
119.875
20
-87.725
11
119.783
21
-87.5522
0
LINE
8
BLACK
6
CONTINUOUS
10
119.783
20
-87.5522
11
119.726
21
-87.3646
0
LINE
8
BLACK
6
CONTINUOUS
10
119.726
20
-87.3646
11
119.707
21
-87.1695
0
LINE
8
BLACK
6
CONTINUOUS
10
119.707
20
-87.1695
11
119.726
21
-86.9744
0
LINE
8
BLACK
6
CONTINUOUS
10
119.726
20
-86.9744
11
119.783
21
-86.7868
0
LINE
8
BLACK
6
CONTINUOUS
10
119.783
20
-86.7868
11
119.875
21
-86.6139
0
LINE
8
BLACK
6
CONTINUOUS
10
119.875
20
-86.6139
11
120
21
-86.4624
0
LINE
8
BLACK
6
CONTINUOUS
10
120
20
-86.4624
11
120.151
21
-86.338
0
LINE
8
BLACK
6
CONTINUOUS
10
120.151
20
-86.338
11
120.324
21
-86.2456
0
LINE
8
BLACK
6
CONTINUOUS
10
120.324
20
-86.2456
11
120.512
21
-86.1887
0
LINE
8
BLACK
6
CONTINUOUS
10
120.512
20
-86.1887
11
120.707
21
-86.1695
0
LINE
8
BLACK
6
CONTINUOUS
10
120.707
20
-86.1695
11
120.902
21
-86.1887
0
LINE
8
BLACK
6
CONTINUOUS
10
157.395
20
-84.1192
11
157.583
21
-84.1761
0
LINE
8
BLACK
6
CONTINUOUS
10
157.583
20
-84.1761
11
157.756
21
-84.2685
0
LINE
8
BLACK
6
CONTINUOUS
10
157.756
20
-84.2685
11
157.907
21
-84.3929
0
LINE
8
BLACK
6
CONTINUOUS
10
157.907
20
-84.3929
11
158.031
21
-84.5444
0
LINE
8
BLACK
6
CONTINUOUS
10
158.031
20
-84.5444
11
158.124
21
-84.7173
0
LINE
8
BLACK
6
CONTINUOUS
10
158.124
20
-84.7173
11
158.181
21
-84.9049
0
LINE
8
BLACK
6
CONTINUOUS
10
158.181
20
-84.9049
11
158.2
21
-85.1
0
LINE
8
BLACK
6
CONTINUOUS
10
158.2
20
-85.1
11
158.181
21
-85.2951
0
LINE
8
BLACK
6
CONTINUOUS
10
158.181
20
-85.2951
11
158.124
21
-85.4827
0
LINE
8
BLACK
6
CONTINUOUS
10
158.124
20
-85.4827
11
158.031
21
-85.6556
0
LINE
8
BLACK
6
CONTINUOUS
10
158.031
20
-85.6556
11
157.907
21
-85.8071
0
LINE
8
BLACK
6
CONTINUOUS
10
157.907
20
-85.8071
11
157.756
21
-85.9315
0
LINE
8
BLACK
6
CONTINUOUS
10
157.756
20
-85.9315
11
157.583
21
-86.0239
0
LINE
8
BLACK
6
CONTINUOUS
10
157.583
20
-86.0239
11
157.395
21
-86.0808
0
LINE
8
BLACK
6
CONTINUOUS
10
157.395
20
-86.0808
11
157.2
21
-86.1
0
LINE
8
BLACK
6
CONTINUOUS
10
157.2
20
-86.1
11
157.005
21
-86.0808
0
LINE
8
BLACK
6
CONTINUOUS
10
157.005
20
-86.0808
11
156.817
21
-86.0239
0
LINE
8
BLACK
6
CONTINUOUS
10
156.817
20
-86.0239
11
156.644
21
-85.9315
0
LINE
8
BLACK
6
CONTINUOUS
10
156.644
20
-85.9315
11
156.493
21
-85.8071
0
LINE
8
BLACK
6
CONTINUOUS
10
156.493
20
-85.8071
11
156.369
21
-85.6556
0
LINE
8
BLACK
6
CONTINUOUS
10
156.369
20
-85.6556
11
156.276
21
-85.4827
0
LINE
8
BLACK
6
CONTINUOUS
10
156.276
20
-85.4827
11
156.219
21
-85.2951
0
LINE
8
BLACK
6
CONTINUOUS
10
156.219
20
-85.2951
11
156.2
21
-85.1
0
LINE
8
BLACK
6
CONTINUOUS
10
156.2
20
-85.1
11
156.219
21
-84.9049
0
LINE
8
BLACK
6
CONTINUOUS
10
156.219
20
-84.9049
11
156.276
21
-84.7173
0
LINE
8
BLACK
6
CONTINUOUS
10
156.276
20
-84.7173
11
156.369
21
-84.5444
0
LINE
8
BLACK
6
CONTINUOUS
10
156.369
20
-84.5444
11
156.493
21
-84.3929
0
LINE
8
BLACK
6
CONTINUOUS
10
156.493
20
-84.3929
11
156.644
21
-84.2685
0
LINE
8
BLACK
6
CONTINUOUS
10
156.644
20
-84.2685
11
156.817
21
-84.1761
0
LINE
8
BLACK
6
CONTINUOUS
10
156.817
20
-84.1761
11
157.005
21
-84.1192
0
LINE
8
BLACK
6
CONTINUOUS
10
157.005
20
-84.1192
11
157.2
21
-84.1
0
LINE
8
BLACK
6
CONTINUOUS
10
157.2
20
-84.1
11
157.395
21
-84.1192
0
LINE
8
BLACK
6
CONTINUOUS
10
170.778
20
-83.9737
11
170.966
21
-84.0306
0
LINE
8
BLACK
6
CONTINUOUS
10
170.966
20
-84.0306
11
171.139
21
-84.123
0
LINE
8
BLACK
6
CONTINUOUS
10
171.139
20
-84.123
11
171.29
21
-84.2474
0
LINE
8
BLACK
6
CONTINUOUS
10
171.29
20
-84.2474
11
171.415
21
-84.3989
0
LINE
8
BLACK
6
CONTINUOUS
10
171.415
20
-84.3989
11
171.507
21
-84.5718
0
LINE
8
BLACK
6
CONTINUOUS
10
171.507
20
-84.5718
11
171.564
21
-84.7594
0
LINE
8
BLACK
6
CONTINUOUS
10
171.564
20
-84.7594
11
171.583
21
-84.9545
0
LINE
8
BLACK
6
CONTINUOUS
10
171.583
20
-84.9545
11
171.564
21
-85.1496
0
LINE
8
BLACK
6
CONTINUOUS
10
171.564
20
-85.1496
11
171.507
21
-85.3372
0
LINE
8
BLACK
6
CONTINUOUS
10
171.507
20
-85.3372
11
171.415
21
-85.5101
0
LINE
8
BLACK
6
CONTINUOUS
10
171.415
20
-85.5101
11
171.29
21
-85.6616
0
LINE
8
BLACK
6
CONTINUOUS
10
171.29
20
-85.6616
11
171.139
21
-85.786
0
LINE
8
BLACK
6
CONTINUOUS
10
171.139
20
-85.786
11
170.966
21
-85.8784
0
LINE
8
BLACK
6
CONTINUOUS
10
170.966
20
-85.8784
11
170.778
21
-85.9353
0
LINE
8
BLACK
6
CONTINUOUS
10
170.778
20
-85.9353
11
170.583
21
-85.9545
0
LINE
8
BLACK
6
CONTINUOUS
10
170.583
20
-85.9545
11
170.388
21
-85.9353
0
LINE
8
BLACK
6
CONTINUOUS
10
170.388
20
-85.9353
11
170.201
21
-85.8784
0
LINE
8
BLACK
6
CONTINUOUS
10
170.201
20
-85.8784
11
170.028
21
-85.786
0
LINE
8
BLACK
6
CONTINUOUS
10
170.028
20
-85.786
11
169.876
21
-85.6616
0
LINE
8
BLACK
6
CONTINUOUS
10
169.876
20
-85.6616
11
169.752
21
-85.5101
0
LINE
8
BLACK
6
CONTINUOUS
10
169.752
20
-85.5101
11
169.659
21
-85.3372
0
LINE
8
BLACK
6
CONTINUOUS
10
169.659
20
-85.3372
11
169.603
21
-85.1496
0
LINE
8
BLACK
6
CONTINUOUS
10
169.603
20
-85.1496
11
169.583
21
-84.9545
0
LINE
8
BLACK
6
CONTINUOUS
10
169.583
20
-84.9545
11
169.603
21
-84.7594
0
LINE
8
BLACK
6
CONTINUOUS
10
169.603
20
-84.7594
11
169.659
21
-84.5718
0
LINE
8
BLACK
6
CONTINUOUS
10
169.659
20
-84.5718
11
169.752
21
-84.3989
0
LINE
8
BLACK
6
CONTINUOUS
10
169.752
20
-84.3989
11
169.876
21
-84.2474
0
LINE
8
BLACK
6
CONTINUOUS
10
169.876
20
-84.2474
11
170.028
21
-84.123
0
LINE
8
BLACK
6
CONTINUOUS
10
170.028
20
-84.123
11
170.201
21
-84.0306
0
LINE
8
BLACK
6
CONTINUOUS
10
170.201
20
-84.0306
11
170.388
21
-83.9737
0
LINE
8
BLACK
6
CONTINUOUS
10
170.388
20
-83.9737
11
170.583
21
-83.9545
0
LINE
8
BLACK
6
CONTINUOUS
10
170.583
20
-83.9545
11
170.778
21
-83.9737
0
LINE
8
BLACK
6
CONTINUOUS
10
157.454
20
-79.4692
11
157.641
21
-79.5261
0
LINE
8
BLACK
6
CONTINUOUS
10
157.641
20
-79.5261
11
157.814
21
-79.6185
0
LINE
8
BLACK
6
CONTINUOUS
10
157.814
20
-79.6185
11
157.966
21
-79.7429
0
LINE
8
BLACK
6
CONTINUOUS
10
157.966
20
-79.7429
11
158.09
21
-79.8944
0
LINE
8
BLACK
6
CONTINUOUS
10
158.09
20
-79.8944
11
158.182
21
-80.0673
0
LINE
8
BLACK
6
CONTINUOUS
10
158.182
20
-80.0673
11
158.239
21
-80.2549
0
LINE
8
BLACK
6
CONTINUOUS
10
158.239
20
-80.2549
11
158.258
21
-80.45
0
LINE
8
BLACK
6
CONTINUOUS
10
158.258
20
-80.45
11
158.239
21
-80.6451
0
LINE
8
BLACK
6
CONTINUOUS
10
158.239
20
-80.6451
11
158.182
21
-80.8327
0
LINE
8
BLACK
6
CONTINUOUS
10
158.182
20
-80.8327
11
158.09
21
-81.0056
0
LINE
8
BLACK
6
CONTINUOUS
10
158.09
20
-81.0056
11
157.966
21
-81.1571
0
LINE
8
BLACK
6
CONTINUOUS
10
157.966
20
-81.1571
11
157.814
21
-81.2815
0
LINE
8
BLACK
6
CONTINUOUS
10
157.814
20
-81.2815
11
157.641
21
-81.3739
0
LINE
8
BLACK
6
CONTINUOUS
10
157.641
20
-81.3739
11
157.454
21
-81.4308
0
LINE
8
BLACK
6
CONTINUOUS
10
157.454
20
-81.4308
11
157.258
21
-81.45
0
LINE
8
BLACK
6
CONTINUOUS
10
157.258
20
-81.45
11
157.063
21
-81.4308
0
LINE
8
BLACK
6
CONTINUOUS
10
157.063
20
-81.4308
11
156.876
21
-81.3739
0
LINE
8
BLACK
6
CONTINUOUS
10
156.876
20
-81.3739
11
156.703
21
-81.2815
0
LINE
8
BLACK
6
CONTINUOUS
10
156.703
20
-81.2815
11
156.551
21
-81.1571
0
LINE
8
BLACK
6
CONTINUOUS
10
156.551
20
-81.1571
11
156.427
21
-81.0056
0
LINE
8
BLACK
6
CONTINUOUS
10
156.427
20
-81.0056
11
156.335
21
-80.8327
0
LINE
8
BLACK
6
CONTINUOUS
10
156.335
20
-80.8327
11
156.278
21
-80.6451
0
LINE
8
BLACK
6
CONTINUOUS
10
156.278
20
-80.6451
11
156.258
21
-80.45
0
LINE
8
BLACK
6
CONTINUOUS
10
156.258
20
-80.45
11
156.278
21
-80.2549
0
LINE
8
BLACK
6
CONTINUOUS
10
156.278
20
-80.2549
11
156.335
21
-80.0673
0
LINE
8
BLACK
6
CONTINUOUS
10
156.335
20
-80.0673
11
156.427
21
-79.8944
0
LINE
8
BLACK
6
CONTINUOUS
10
156.427
20
-79.8944
11
156.551
21
-79.7429
0
LINE
8
BLACK
6
CONTINUOUS
10
156.551
20
-79.7429
11
156.703
21
-79.6185
0
LINE
8
BLACK
6
CONTINUOUS
10
156.703
20
-79.6185
11
156.876
21
-79.5261
0
LINE
8
BLACK
6
CONTINUOUS
10
156.876
20
-79.5261
11
157.063
21
-79.4692
0
LINE
8
BLACK
6
CONTINUOUS
10
157.063
20
-79.4692
11
157.258
21
-79.45
0
LINE
8
BLACK
6
CONTINUOUS
10
157.258
20
-79.45
11
157.454
21
-79.4692
0
LINE
8
BLACK
6
CONTINUOUS
10
170.837
20
-79.3237
11
171.024
21
-79.3806
0
LINE
8
BLACK
6
CONTINUOUS
10
171.024
20
-79.3806
11
171.197
21
-79.473
0
LINE
8
BLACK
6
CONTINUOUS
10
171.197
20
-79.473
11
171.349
21
-79.5974
0
LINE
8
BLACK
6
CONTINUOUS
10
171.349
20
-79.5974
11
171.473
21
-79.7489
0
LINE
8
BLACK
6
CONTINUOUS
10
171.473
20
-79.7489
11
171.566
21
-79.9218
0
LINE
8
BLACK
6
CONTINUOUS
10
171.566
20
-79.9218
11
171.623
21
-80.1094
0
LINE
8
BLACK
6
CONTINUOUS
10
171.623
20
-80.1094
11
171.642
21
-80.3045
0
LINE
8
BLACK
6
CONTINUOUS
10
171.642
20
-80.3045
11
171.623
21
-80.4996
0
LINE
8
BLACK
6
CONTINUOUS
10
171.623
20
-80.4996
11
171.566
21
-80.6872
0
LINE
8
BLACK
6
CONTINUOUS
10
171.566
20
-80.6872
11
171.473
21
-80.86
0
LINE
8
BLACK
6
CONTINUOUS
10
171.473
20
-80.86
11
171.349
21
-81.0116
0
LINE
8
BLACK
6
CONTINUOUS
10
171.349
20
-81.0116
11
171.197
21
-81.1359
0
LINE
8
BLACK
6
CONTINUOUS
10
171.197
20
-81.1359
11
171.024
21
-81.2284
0
LINE
8
BLACK
6
CONTINUOUS
10
171.024
20
-81.2284
11
170.837
21
-81.2853
0
LINE
8
BLACK
6
CONTINUOUS
10
170.837
20
-81.2853
11
170.642
21
-81.3045
0
LINE
8
BLACK
6
CONTINUOUS
10
170.642
20
-81.3045
11
170.447
21
-81.2853
0
LINE
8
BLACK
6
CONTINUOUS
10
170.447
20
-81.2853
11
170.259
21
-81.2284
0
LINE
8
BLACK
6
CONTINUOUS
10
170.259
20
-81.2284
11
170.086
21
-81.1359
0
LINE
8
BLACK
6
CONTINUOUS
10
170.086
20
-81.1359
11
169.935
21
-81.0116
0
LINE
8
BLACK
6
CONTINUOUS
10
169.935
20
-81.0116
11
169.81
21
-80.86
0
LINE
8
BLACK
6
CONTINUOUS
10
169.81
20
-80.86
11
169.718
21
-80.6872
0
LINE
8
BLACK
6
CONTINUOUS
10
169.718
20
-80.6872
11
169.661
21
-80.4996
0
LINE
8
BLACK
6
CONTINUOUS
10
169.661
20
-80.4996
11
169.642
21
-80.3045
0
LINE
8
BLACK
6
CONTINUOUS
10
169.642
20
-80.3045
11
169.661
21
-80.1094
0
LINE
8
BLACK
6
CONTINUOUS
10
169.661
20
-80.1094
11
169.718
21
-79.9218
0
LINE
8
BLACK
6
CONTINUOUS
10
169.718
20
-79.9218
11
169.81
21
-79.7489
0
LINE
8
BLACK
6
CONTINUOUS
10
169.81
20
-79.7489
11
169.935
21
-79.5974
0
LINE
8
BLACK
6
CONTINUOUS
10
169.935
20
-79.5974
11
170.086
21
-79.473
0
LINE
8
BLACK
6
CONTINUOUS
10
170.086
20
-79.473
11
170.259
21
-79.3806
0
LINE
8
BLACK
6
CONTINUOUS
10
170.259
20
-79.3806
11
170.447
21
-79.3237
0
LINE
8
BLACK
6
CONTINUOUS
10
170.447
20
-79.3237
11
170.642
21
-79.3045
0
LINE
8
BLACK
6
CONTINUOUS
10
170.642
20
-79.3045
11
170.837
21
-79.3237
0
LINE
8
BLACK
6
CONTINUOUS
10
112.912
20
-76.2647
11
113.099
21
-76.3216
0
LINE
8
BLACK
6
CONTINUOUS
10
113.099
20
-76.3216
11
113.272
21
-76.414
0
LINE
8
BLACK
6
CONTINUOUS
10
113.272
20
-76.414
11
113.424
21
-76.5384
0
LINE
8
BLACK
6
CONTINUOUS
10
113.424
20
-76.5384
11
113.548
21
-76.6899
0
LINE
8
BLACK
6
CONTINUOUS
10
113.548
20
-76.6899
11
113.641
21
-76.8628
0
LINE
8
BLACK
6
CONTINUOUS
10
113.641
20
-76.8628
11
113.697
21
-77.0504
0
LINE
8
BLACK
6
CONTINUOUS
10
113.697
20
-77.0504
11
113.717
21
-77.2455
0
LINE
8
BLACK
6
CONTINUOUS
10
113.717
20
-77.2455
11
113.697
21
-77.4406
0
LINE
8
BLACK
6
CONTINUOUS
10
113.697
20
-77.4406
11
113.641
21
-77.6282
0
LINE
8
BLACK
6
CONTINUOUS
10
113.641
20
-77.6282
11
113.548
21
-77.8011
0
LINE
8
BLACK
6
CONTINUOUS
10
113.548
20
-77.8011
11
113.424
21
-77.9526
0
LINE
8
BLACK
6
CONTINUOUS
10
113.424
20
-77.9526
11
113.272
21
-78.077
0
LINE
8
BLACK
6
CONTINUOUS
10
113.272
20
-78.077
11
113.099
21
-78.1694
0
LINE
8
BLACK
6
CONTINUOUS
10
113.099
20
-78.1694
11
112.912
21
-78.2263
0
LINE
8
BLACK
6
CONTINUOUS
10
112.912
20
-78.2263
11
112.717
21
-78.2455
0
LINE
8
BLACK
6
CONTINUOUS
10
112.717
20
-78.2455
11
112.522
21
-78.2263
0
LINE
8
BLACK
6
CONTINUOUS
10
112.522
20
-78.2263
11
112.334
21
-78.1694
0
LINE
8
BLACK
6
CONTINUOUS
10
112.334
20
-78.1694
11
112.161
21
-78.077
0
LINE
8
BLACK
6
CONTINUOUS
10
112.161
20
-78.077
11
112.01
21
-77.9526
0
LINE
8
BLACK
6
CONTINUOUS
10
112.01
20
-77.9526
11
111.885
21
-77.8011
0
LINE
8
BLACK
6
CONTINUOUS
10
111.885
20
-77.8011
11
111.793
21
-77.6282
0
LINE
8
BLACK
6
CONTINUOUS
10
111.793
20
-77.6282
11
111.736
21
-77.4406
0
LINE
8
BLACK
6
CONTINUOUS
10
111.736
20
-77.4406
11
111.717
21
-77.2455
0
LINE
8
BLACK
6
CONTINUOUS
10
111.717
20
-77.2455
11
111.736
21
-77.0504
0
LINE
8
BLACK
6
CONTINUOUS
10
111.736
20
-77.0504
11
111.793
21
-76.8628
0
LINE
8
BLACK
6
CONTINUOUS
10
111.793
20
-76.8628
11
111.885
21
-76.6899
0
LINE
8
BLACK
6
CONTINUOUS
10
111.885
20
-76.6899
11
112.01
21
-76.5384
0
LINE
8
BLACK
6
CONTINUOUS
10
112.01
20
-76.5384
11
112.161
21
-76.414
0
LINE
8
BLACK
6
CONTINUOUS
10
112.161
20
-76.414
11
112.334
21
-76.3216
0
LINE
8
BLACK
6
CONTINUOUS
10
112.334
20
-76.3216
11
112.522
21
-76.2647
0
LINE
8
BLACK
6
CONTINUOUS
10
112.522
20
-76.2647
11
112.717
21
-76.2455
0
LINE
8
BLACK
6
CONTINUOUS
10
112.717
20
-76.2455
11
112.912
21
-76.2647
0
LINE
8
BLACK
6
CONTINUOUS
10
205.015
20
-76.1192
11
205.203
21
-76.1761
0
LINE
8
BLACK
6
CONTINUOUS
10
205.203
20
-76.1761
11
205.376
21
-76.2685
0
LINE
8
BLACK
6
CONTINUOUS
10
205.376
20
-76.2685
11
205.527
21
-76.3929
0
LINE
8
BLACK
6
CONTINUOUS
10
205.527
20
-76.3929
11
205.651
21
-76.5444
0
LINE
8
BLACK
6
CONTINUOUS
10
205.651
20
-76.5444
11
205.744
21
-76.7173
0
LINE
8
BLACK
6
CONTINUOUS
10
205.744
20
-76.7173
11
205.801
21
-76.9049
0
LINE
8
BLACK
6
CONTINUOUS
10
205.801
20
-76.9049
11
205.82
21
-77.1
0
LINE
8
BLACK
6
CONTINUOUS
10
205.82
20
-77.1
11
205.801
21
-77.2951
0
LINE
8
BLACK
6
CONTINUOUS
10
205.801
20
-77.2951
11
205.744
21
-77.4827
0
LINE
8
BLACK
6
CONTINUOUS
10
205.744
20
-77.4827
11
205.651
21
-77.6556
0
LINE
8
BLACK
6
CONTINUOUS
10
205.651
20
-77.6556
11
205.527
21
-77.8071
0
LINE
8
BLACK
6
CONTINUOUS
10
205.527
20
-77.8071
11
205.376
21
-77.9315
0
LINE
8
BLACK
6
CONTINUOUS
10
205.376
20
-77.9315
11
205.203
21
-78.0239
0
LINE
8
BLACK
6
CONTINUOUS
10
205.203
20
-78.0239
11
205.015
21
-78.0808
0
LINE
8
BLACK
6
CONTINUOUS
10
205.015
20
-78.0808
11
204.82
21
-78.1
0
LINE
8
BLACK
6
CONTINUOUS
10
204.82
20
-78.1
11
204.625
21
-78.0808
0
LINE
8
BLACK
6
CONTINUOUS
10
204.625
20
-78.0808
11
204.437
21
-78.0239
0
LINE
8
BLACK
6
CONTINUOUS
10
204.437
20
-78.0239
11
204.264
21
-77.9315
0
LINE
8
BLACK
6
CONTINUOUS
10
204.264
20
-77.9315
11
204.113
21
-77.8071
0
LINE
8
BLACK
6
CONTINUOUS
10
204.113
20
-77.8071
11
203.989
21
-77.6556
0
LINE
8
BLACK
6
CONTINUOUS
10
203.989
20
-77.6556
11
203.896
21
-77.4827
0
LINE
8
BLACK
6
CONTINUOUS
10
203.896
20
-77.4827
11
203.839
21
-77.2951
0
LINE
8
BLACK
6
CONTINUOUS
10
203.839
20
-77.2951
11
203.82
21
-77.1
0
LINE
8
BLACK
6
CONTINUOUS
10
203.82
20
-77.1
11
203.839
21
-76.9049
0
LINE
8
BLACK
6
CONTINUOUS
10
203.839
20
-76.9049
11
203.896
21
-76.7173
0
LINE
8
BLACK
6
CONTINUOUS
10
203.896
20
-76.7173
11
203.989
21
-76.5444
0
LINE
8
BLACK
6
CONTINUOUS
10
203.989
20
-76.5444
11
204.113
21
-76.3929
0
LINE
8
BLACK
6
CONTINUOUS
10
204.113
20
-76.3929
11
204.264
21
-76.2685
0
LINE
8
BLACK
6
CONTINUOUS
10
204.264
20
-76.2685
11
204.437
21
-76.1761
0
LINE
8
BLACK
6
CONTINUOUS
10
204.437
20
-76.1761
11
204.625
21
-76.1192
0
LINE
8
BLACK
6
CONTINUOUS
10
204.625
20
-76.1192
11
204.82
21
-76.1
0
LINE
8
BLACK
6
CONTINUOUS
10
204.82
20
-76.1
11
205.015
21
-76.1192
0
LINE
8
BLACK
6
CONTINUOUS
10
202.425
20
-76.1192
11
202.613
21
-76.1761
0
LINE
8
BLACK
6
CONTINUOUS
10
202.613
20
-76.1761
11
202.786
21
-76.2685
0
LINE
8
BLACK
6
CONTINUOUS
10
202.786
20
-76.2685
11
202.937
21
-76.3929
0
LINE
8
BLACK
6
CONTINUOUS
10
202.937
20
-76.3929
11
203.061
21
-76.5444
0
LINE
8
BLACK
6
CONTINUOUS
10
203.061
20
-76.5444
11
203.154
21
-76.7173
0
LINE
8
BLACK
6
CONTINUOUS
10
203.154
20
-76.7173
11
203.211
21
-76.9049
0
LINE
8
BLACK
6
CONTINUOUS
10
203.211
20
-76.9049
11
203.23
21
-77.1
0
LINE
8
BLACK
6
CONTINUOUS
10
203.23
20
-77.1
11
203.211
21
-77.2951
0
LINE
8
BLACK
6
CONTINUOUS
10
203.211
20
-77.2951
11
203.154
21
-77.4827
0
LINE
8
BLACK
6
CONTINUOUS
10
203.154
20
-77.4827
11
203.061
21
-77.6556
0
LINE
8
BLACK
6
CONTINUOUS
10
203.061
20
-77.6556
11
202.937
21
-77.8071
0
LINE
8
BLACK
6
CONTINUOUS
10
202.937
20
-77.8071
11
202.786
21
-77.9315
0
LINE
8
BLACK
6
CONTINUOUS
10
202.786
20
-77.9315
11
202.613
21
-78.0239
0
LINE
8
BLACK
6
CONTINUOUS
10
202.613
20
-78.0239
11
202.425
21
-78.0808
0
LINE
8
BLACK
6
CONTINUOUS
10
202.425
20
-78.0808
11
202.23
21
-78.1
0
LINE
8
BLACK
6
CONTINUOUS
10
202.23
20
-78.1
11
202.035
21
-78.0808
0
LINE
8
BLACK
6
CONTINUOUS
10
202.035
20
-78.0808
11
201.847
21
-78.0239
0
LINE
8
BLACK
6
CONTINUOUS
10
201.847
20
-78.0239
11
201.674
21
-77.9315
0
LINE
8
BLACK
6
CONTINUOUS
10
201.674
20
-77.9315
11
201.523
21
-77.8071
0
LINE
8
BLACK
6
CONTINUOUS
10
201.523
20
-77.8071
11
201.399
21
-77.6556
0
LINE
8
BLACK
6
CONTINUOUS
10
201.399
20
-77.6556
11
201.306
21
-77.4827
0
LINE
8
BLACK
6
CONTINUOUS
10
201.306
20
-77.4827
11
201.249
21
-77.2951
0
LINE
8
BLACK
6
CONTINUOUS
10
201.249
20
-77.2951
11
201.23
21
-77.1
0
LINE
8
BLACK
6
CONTINUOUS
10
201.23
20
-77.1
11
201.249
21
-76.9049
0
LINE
8
BLACK
6
CONTINUOUS
10
201.249
20
-76.9049
11
201.306
21
-76.7173
0
LINE
8
BLACK
6
CONTINUOUS
10
201.306
20
-76.7173
11
201.399
21
-76.5444
0
LINE
8
BLACK
6
CONTINUOUS
10
201.399
20
-76.5444
11
201.523
21
-76.3929
0
LINE
8
BLACK
6
CONTINUOUS
10
201.523
20
-76.3929
11
201.674
21
-76.2685
0
LINE
8
BLACK
6
CONTINUOUS
10
201.674
20
-76.2685
11
201.847
21
-76.1761
0
LINE
8
BLACK
6
CONTINUOUS
10
201.847
20
-76.1761
11
202.035
21
-76.1192
0
LINE
8
BLACK
6
CONTINUOUS
10
202.035
20
-76.1192
11
202.23
21
-76.1
0
LINE
8
BLACK
6
CONTINUOUS
10
202.23
20
-76.1
11
202.425
21
-76.1192
0
LINE
8
BLACK
6
CONTINUOUS
10
126.295
20
-76.1192
11
126.483
21
-76.1761
0
LINE
8
BLACK
6
CONTINUOUS
10
126.483
20
-76.1761
11
126.656
21
-76.2685
0
LINE
8
BLACK
6
CONTINUOUS
10
126.656
20
-76.2685
11
126.807
21
-76.3929
0
LINE
8
BLACK
6
CONTINUOUS
10
126.807
20
-76.3929
11
126.931
21
-76.5444
0
LINE
8
BLACK
6
CONTINUOUS
10
126.931
20
-76.5444
11
127.024
21
-76.7173
0
LINE
8
BLACK
6
CONTINUOUS
10
127.024
20
-76.7173
11
127.081
21
-76.9049
0
LINE
8
BLACK
6
CONTINUOUS
10
127.081
20
-76.9049
11
127.1
21
-77.1
0
LINE
8
BLACK
6
CONTINUOUS
10
127.1
20
-77.1
11
127.081
21
-77.2951
0
LINE
8
BLACK
6
CONTINUOUS
10
127.081
20
-77.2951
11
127.024
21
-77.4827
0
LINE
8
BLACK
6
CONTINUOUS
10
127.024
20
-77.4827
11
126.931
21
-77.6556
0
LINE
8
BLACK
6
CONTINUOUS
10
126.931
20
-77.6556
11
126.807
21
-77.8071
0
LINE
8
BLACK
6
CONTINUOUS
10
126.807
20
-77.8071
11
126.656
21
-77.9315
0
LINE
8
BLACK
6
CONTINUOUS
10
126.656
20
-77.9315
11
126.483
21
-78.0239
0
LINE
8
BLACK
6
CONTINUOUS
10
126.483
20
-78.0239
11
126.295
21
-78.0808
0
LINE
8
BLACK
6
CONTINUOUS
10
126.295
20
-78.0808
11
126.1
21
-78.1
0
LINE
8
BLACK
6
CONTINUOUS
10
126.1
20
-78.1
11
125.905
21
-78.0808
0
LINE
8
BLACK
6
CONTINUOUS
10
125.905
20
-78.0808
11
125.717
21
-78.0239
0
LINE
8
BLACK
6
CONTINUOUS
10
125.717
20
-78.0239
11
125.544
21
-77.9315
0
LINE
8
BLACK
6
CONTINUOUS
10
125.544
20
-77.9315
11
125.393
21
-77.8071
0
LINE
8
BLACK
6
CONTINUOUS
10
125.393
20
-77.8071
11
125.269
21
-77.6556
0
LINE
8
BLACK
6
CONTINUOUS
10
125.269
20
-77.6556
11
125.176
21
-77.4827
0
LINE
8
BLACK
6
CONTINUOUS
10
125.176
20
-77.4827
11
125.119
21
-77.2951
0
LINE
8
BLACK
6
CONTINUOUS
10
125.119
20
-77.2951
11
125.1
21
-77.1
0
LINE
8
BLACK
6
CONTINUOUS
10
125.1
20
-77.1
11
125.119
21
-76.9049
0
LINE
8
BLACK
6
CONTINUOUS
10
125.119
20
-76.9049
11
125.176
21
-76.7173
0
LINE
8
BLACK
6
CONTINUOUS
10
125.176
20
-76.7173
11
125.269
21
-76.5444
0
LINE
8
BLACK
6
CONTINUOUS
10
125.269
20
-76.5444
11
125.393
21
-76.3929
0
LINE
8
BLACK
6
CONTINUOUS
10
125.393
20
-76.3929
11
125.544
21
-76.2685
0
LINE
8
BLACK
6
CONTINUOUS
10
125.544
20
-76.2685
11
125.717
21
-76.1761
0
LINE
8
BLACK
6
CONTINUOUS
10
125.717
20
-76.1761
11
125.905
21
-76.1192
0
LINE
8
BLACK
6
CONTINUOUS
10
125.905
20
-76.1192
11
126.1
21
-76.1
0
LINE
8
BLACK
6
CONTINUOUS
10
126.1
20
-76.1
11
126.295
21
-76.1192
0
LINE
8
BLACK
6
CONTINUOUS
10
210.195
20
-76.0992
11
210.383
21
-76.1561
0
LINE
8
BLACK
6
CONTINUOUS
10
210.383
20
-76.1561
11
210.556
21
-76.2485
0
LINE
8
BLACK
6
CONTINUOUS
10
210.556
20
-76.2485
11
210.707
21
-76.3729
0
LINE
8
BLACK
6
CONTINUOUS
10
210.707
20
-76.3729
11
210.831
21
-76.5244
0
LINE
8
BLACK
6
CONTINUOUS
10
210.831
20
-76.5244
11
210.924
21
-76.6973
0
LINE
8
BLACK
6
CONTINUOUS
10
210.924
20
-76.6973
11
210.981
21
-76.8849
0
LINE
8
BLACK
6
CONTINUOUS
10
210.981
20
-76.8849
11
211
21
-77.08
0
LINE
8
BLACK
6
CONTINUOUS
10
211
20
-77.08
11
210.981
21
-77.2751
0
LINE
8
BLACK
6
CONTINUOUS
10
210.981
20
-77.2751
11
210.924
21
-77.4627
0
LINE
8
BLACK
6
CONTINUOUS
10
210.924
20
-77.4627
11
210.831
21
-77.6356
0
LINE
8
BLACK
6
CONTINUOUS
10
210.831
20
-77.6356
11
210.707
21
-77.7871
0
LINE
8
BLACK
6
CONTINUOUS
10
210.707
20
-77.7871
11
210.556
21
-77.9115
0
LINE
8
BLACK
6
CONTINUOUS
10
210.556
20
-77.9115
11
210.383
21
-78.0039
0
LINE
8
BLACK
6
CONTINUOUS
10
210.383
20
-78.0039
11
210.195
21
-78.0608
0
LINE
8
BLACK
6
CONTINUOUS
10
210.195
20
-78.0608
11
210
21
-78.08
0
LINE
8
BLACK
6
CONTINUOUS
10
210
20
-78.08
11
209.805
21
-78.0608
0
LINE
8
BLACK
6
CONTINUOUS
10
209.805
20
-78.0608
11
209.617
21
-78.0039
0
LINE
8
BLACK
6
CONTINUOUS
10
209.617
20
-78.0039
11
209.444
21
-77.9115
0
LINE
8
BLACK
6
CONTINUOUS
10
209.444
20
-77.9115
11
209.293
21
-77.7871
0
LINE
8
BLACK
6
CONTINUOUS
10
209.293
20
-77.7871
11
209.169
21
-77.6356
0
LINE
8
BLACK
6
CONTINUOUS
10
209.169
20
-77.6356
11
209.076
21
-77.4627
0
LINE
8
BLACK
6
CONTINUOUS
10
209.076
20
-77.4627
11
209.019
21
-77.2751
0
LINE
8
BLACK
6
CONTINUOUS
10
209.019
20
-77.2751
11
209
21
-77.08
0
LINE
8
BLACK
6
CONTINUOUS
10
209
20
-77.08
11
209.019
21
-76.8849
0
LINE
8
BLACK
6
CONTINUOUS
10
209.019
20
-76.8849
11
209.076
21
-76.6973
0
LINE
8
BLACK
6
CONTINUOUS
10
209.076
20
-76.6973
11
209.169
21
-76.5244
0
LINE
8
BLACK
6
CONTINUOUS
10
209.169
20
-76.5244
11
209.293
21
-76.3729
0
LINE
8
BLACK
6
CONTINUOUS
10
209.293
20
-76.3729
11
209.444
21
-76.2485
0
LINE
8
BLACK
6
CONTINUOUS
10
209.444
20
-76.2485
11
209.617
21
-76.1561
0
LINE
8
BLACK
6
CONTINUOUS
10
209.617
20
-76.1561
11
209.805
21
-76.0992
0
LINE
8
BLACK
6
CONTINUOUS
10
209.805
20
-76.0992
11
210
21
-76.08
0
LINE
8
BLACK
6
CONTINUOUS
10
210
20
-76.08
11
210.195
21
-76.0992
0
LINE
8
BLACK
6
CONTINUOUS
10
207.615
20
-76.0992
11
207.803
21
-76.1561
0
LINE
8
BLACK
6
CONTINUOUS
10
207.803
20
-76.1561
11
207.976
21
-76.2485
0
LINE
8
BLACK
6
CONTINUOUS
10
207.976
20
-76.2485
11
208.127
21
-76.3729
0
LINE
8
BLACK
6
CONTINUOUS
10
208.127
20
-76.3729
11
208.251
21
-76.5244
0
LINE
8
BLACK
6
CONTINUOUS
10
208.251
20
-76.5244
11
208.344
21
-76.6973
0
LINE
8
BLACK
6
CONTINUOUS
10
208.344
20
-76.6973
11
208.401
21
-76.8849
0
LINE
8
BLACK
6
CONTINUOUS
10
208.401
20
-76.8849
11
208.42
21
-77.08
0
LINE
8
BLACK
6
CONTINUOUS
10
208.42
20
-77.08
11
208.401
21
-77.2751
0
LINE
8
BLACK
6
CONTINUOUS
10
208.401
20
-77.2751
11
208.344
21
-77.4627
0
LINE
8
BLACK
6
CONTINUOUS
10
208.344
20
-77.4627
11
208.251
21
-77.6356
0
LINE
8
BLACK
6
CONTINUOUS
10
208.251
20
-77.6356
11
208.127
21
-77.7871
0
LINE
8
BLACK
6
CONTINUOUS
10
208.127
20
-77.7871
11
207.976
21
-77.9115
0
LINE
8
BLACK
6
CONTINUOUS
10
207.976
20
-77.9115
11
207.803
21
-78.0039
0
LINE
8
BLACK
6
CONTINUOUS
10
207.803
20
-78.0039
11
207.615
21
-78.0608
0
LINE
8
BLACK
6
CONTINUOUS
10
207.615
20
-78.0608
11
207.42
21
-78.08
0
LINE
8
BLACK
6
CONTINUOUS
10
207.42
20
-78.08
11
207.225
21
-78.0608
0
LINE
8
BLACK
6
CONTINUOUS
10
207.225
20
-78.0608
11
207.037
21
-78.0039
0
LINE
8
BLACK
6
CONTINUOUS
10
207.037
20
-78.0039
11
206.864
21
-77.9115
0
LINE
8
BLACK
6
CONTINUOUS
10
206.864
20
-77.9115
11
206.713
21
-77.7871
0
LINE
8
BLACK
6
CONTINUOUS
10
206.713
20
-77.7871
11
206.589
21
-77.6356
0
LINE
8
BLACK
6
CONTINUOUS
10
206.589
20
-77.6356
11
206.496
21
-77.4627
0
LINE
8
BLACK
6
CONTINUOUS
10
206.496
20
-77.4627
11
206.439
21
-77.2751
0
LINE
8
BLACK
6
CONTINUOUS
10
206.439
20
-77.2751
11
206.42
21
-77.08
0
LINE
8
BLACK
6
CONTINUOUS
10
206.42
20
-77.08
11
206.439
21
-76.8849
0
LINE
8
BLACK
6
CONTINUOUS
10
206.439
20
-76.8849
11
206.496
21
-76.6973
0
LINE
8
BLACK
6
CONTINUOUS
10
206.496
20
-76.6973
11
206.589
21
-76.5244
0
LINE
8
BLACK
6
CONTINUOUS
10
206.589
20
-76.5244
11
206.713
21
-76.3729
0
LINE
8
BLACK
6
CONTINUOUS
10
206.713
20
-76.3729
11
206.864
21
-76.2485
0
LINE
8
BLACK
6
CONTINUOUS
10
206.864
20
-76.2485
11
207.037
21
-76.1561
0
LINE
8
BLACK
6
CONTINUOUS
10
207.037
20
-76.1561
11
207.225
21
-76.0992
0
LINE
8
BLACK
6
CONTINUOUS
10
207.225
20
-76.0992
11
207.42
21
-76.08
0
LINE
8
BLACK
6
CONTINUOUS
10
207.42
20
-76.08
11
207.615
21
-76.0992
0
LINE
8
BLACK
6
CONTINUOUS
10
166.667
20
-72.6688
11
166.825
21
-72.7243
0
LINE
8
BLACK
6
CONTINUOUS
10
166.825
20
-72.7243
11
166.968
21
-72.8136
0
LINE
8
BLACK
6
CONTINUOUS
10
166.968
20
-72.8136
11
167.086
21
-72.9324
0
LINE
8
BLACK
6
CONTINUOUS
10
167.086
20
-72.9324
11
167.176
21
-73.0746
0
LINE
8
BLACK
6
CONTINUOUS
10
167.176
20
-73.0746
11
167.231
21
-73.2331
0
LINE
8
BLACK
6
CONTINUOUS
10
167.231
20
-73.2331
11
167.25
21
-73.4
0
LINE
8
BLACK
6
CONTINUOUS
10
167.25
20
-73.4
11
167.231
21
-73.5669
0
LINE
8
BLACK
6
CONTINUOUS
10
167.231
20
-73.5669
11
167.176
21
-73.7254
0
LINE
8
BLACK
6
CONTINUOUS
10
167.176
20
-73.7254
11
167.086
21
-73.8676
0
LINE
8
BLACK
6
CONTINUOUS
10
167.086
20
-73.8676
11
166.968
21
-73.9864
0
LINE
8
BLACK
6
CONTINUOUS
10
166.968
20
-73.9864
11
166.825
21
-74.0757
0
LINE
8
BLACK
6
CONTINUOUS
10
166.825
20
-74.0757
11
166.667
21
-74.1312
0
LINE
8
BLACK
6
CONTINUOUS
10
166.667
20
-74.1312
11
166.5
21
-74.15
0
LINE
8
BLACK
6
CONTINUOUS
10
166.5
20
-74.15
11
166.333
21
-74.1312
0
LINE
8
BLACK
6
CONTINUOUS
10
166.333
20
-74.1312
11
166.175
21
-74.0757
0
LINE
8
BLACK
6
CONTINUOUS
10
166.175
20
-74.0757
11
166.032
21
-73.9864
0
LINE
8
BLACK
6
CONTINUOUS
10
166.032
20
-73.9864
11
165.914
21
-73.8676
0
LINE
8
BLACK
6
CONTINUOUS
10
165.914
20
-73.8676
11
165.824
21
-73.7254
0
LINE
8
BLACK
6
CONTINUOUS
10
165.824
20
-73.7254
11
165.769
21
-73.5669
0
LINE
8
BLACK
6
CONTINUOUS
10
165.769
20
-73.5669
11
165.75
21
-73.4
0
LINE
8
BLACK
6
CONTINUOUS
10
165.75
20
-73.4
11
165.769
21
-73.2331
0
LINE
8
BLACK
6
CONTINUOUS
10
165.769
20
-73.2331
11
165.824
21
-73.0746
0
LINE
8
BLACK
6
CONTINUOUS
10
165.824
20
-73.0746
11
165.914
21
-72.9324
0
LINE
8
BLACK
6
CONTINUOUS
10
165.914
20
-72.9324
11
166.032
21
-72.8136
0
LINE
8
BLACK
6
CONTINUOUS
10
166.032
20
-72.8136
11
166.175
21
-72.7243
0
LINE
8
BLACK
6
CONTINUOUS
10
166.175
20
-72.7243
11
166.333
21
-72.6688
0
LINE
8
BLACK
6
CONTINUOUS
10
166.333
20
-72.6688
11
166.5
21
-72.65
0
LINE
8
BLACK
6
CONTINUOUS
10
166.5
20
-72.65
11
166.667
21
-72.6688
0
LINE
8
BLACK
6
CONTINUOUS
10
163.267
20
-72.6688
11
163.425
21
-72.7243
0
LINE
8
BLACK
6
CONTINUOUS
10
163.425
20
-72.7243
11
163.568
21
-72.8136
0
LINE
8
BLACK
6
CONTINUOUS
10
163.568
20
-72.8136
11
163.686
21
-72.9324
0
LINE
8
BLACK
6
CONTINUOUS
10
163.686
20
-72.9324
11
163.776
21
-73.0746
0
LINE
8
BLACK
6
CONTINUOUS
10
163.776
20
-73.0746
11
163.831
21
-73.2331
0
LINE
8
BLACK
6
CONTINUOUS
10
163.831
20
-73.2331
11
163.85
21
-73.4
0
LINE
8
BLACK
6
CONTINUOUS
10
163.85
20
-73.4
11
163.831
21
-73.5669
0
LINE
8
BLACK
6
CONTINUOUS
10
163.831
20
-73.5669
11
163.776
21
-73.7254
0
LINE
8
BLACK
6
CONTINUOUS
10
163.776
20
-73.7254
11
163.686
21
-73.8676
0
LINE
8
BLACK
6
CONTINUOUS
10
163.686
20
-73.8676
11
163.568
21
-73.9864
0
LINE
8
BLACK
6
CONTINUOUS
10
163.568
20
-73.9864
11
163.425
21
-74.0757
0
LINE
8
BLACK
6
CONTINUOUS
10
163.425
20
-74.0757
11
163.267
21
-74.1312
0
LINE
8
BLACK
6
CONTINUOUS
10
163.267
20
-74.1312
11
163.1
21
-74.15
0
LINE
8
BLACK
6
CONTINUOUS
10
163.1
20
-74.15
11
162.933
21
-74.1312
0
LINE
8
BLACK
6
CONTINUOUS
10
162.933
20
-74.1312
11
162.775
21
-74.0757
0
LINE
8
BLACK
6
CONTINUOUS
10
162.775
20
-74.0757
11
162.632
21
-73.9864
0
LINE
8
BLACK
6
CONTINUOUS
10
162.632
20
-73.9864
11
162.514
21
-73.8676
0
LINE
8
BLACK
6
CONTINUOUS
10
162.514
20
-73.8676
11
162.424
21
-73.7254
0
LINE
8
BLACK
6
CONTINUOUS
10
162.424
20
-73.7254
11
162.369
21
-73.5669
0
LINE
8
BLACK
6
CONTINUOUS
10
162.369
20
-73.5669
11
162.35
21
-73.4
0
LINE
8
BLACK
6
CONTINUOUS
10
162.35
20
-73.4
11
162.369
21
-73.2331
0
LINE
8
BLACK
6
CONTINUOUS
10
162.369
20
-73.2331
11
162.424
21
-73.0746
0
LINE
8
BLACK
6
CONTINUOUS
10
162.424
20
-73.0746
11
162.514
21
-72.9324
0
LINE
8
BLACK
6
CONTINUOUS
10
162.514
20
-72.9324
11
162.632
21
-72.8136
0
LINE
8
BLACK
6
CONTINUOUS
10
162.632
20
-72.8136
11
162.775
21
-72.7243
0
LINE
8
BLACK
6
CONTINUOUS
10
162.775
20
-72.7243
11
162.933
21
-72.6688
0
LINE
8
BLACK
6
CONTINUOUS
10
162.933
20
-72.6688
11
163.1
21
-72.65
0
LINE
8
BLACK
6
CONTINUOUS
10
163.1
20
-72.65
11
163.267
21
-72.6688
0
LINE
8
BLACK
6
CONTINUOUS
10
112.97
20
-71.6147
11
113.158
21
-71.6716
0
LINE
8
BLACK
6
CONTINUOUS
10
113.158
20
-71.6716
11
113.331
21
-71.764
0
LINE
8
BLACK
6
CONTINUOUS
10
113.331
20
-71.764
11
113.482
21
-71.8884
0
LINE
8
BLACK
6
CONTINUOUS
10
113.482
20
-71.8884
11
113.607
21
-72.0399
0
LINE
8
BLACK
6
CONTINUOUS
10
113.607
20
-72.0399
11
113.699
21
-72.2128
0
LINE
8
BLACK
6
CONTINUOUS
10
113.699
20
-72.2128
11
113.756
21
-72.4004
0
LINE
8
BLACK
6
CONTINUOUS
10
113.756
20
-72.4004
11
113.775
21
-72.5955
0
LINE
8
BLACK
6
CONTINUOUS
10
113.775
20
-72.5955
11
113.756
21
-72.7906
0
LINE
8
BLACK
6
CONTINUOUS
10
113.756
20
-72.7906
11
113.699
21
-72.9782
0
LINE
8
BLACK
6
CONTINUOUS
10
113.699
20
-72.9782
11
113.607
21
-73.1511
0
LINE
8
BLACK
6
CONTINUOUS
10
113.607
20
-73.1511
11
113.482
21
-73.3026
0
LINE
8
BLACK
6
CONTINUOUS
10
113.482
20
-73.3026
11
113.331
21
-73.427
0
LINE
8
BLACK
6
CONTINUOUS
10
113.331
20
-73.427
11
113.158
21
-73.5194
0
LINE
8
BLACK
6
CONTINUOUS
10
113.158
20
-73.5194
11
112.97
21
-73.5763
0
LINE
8
BLACK
6
CONTINUOUS
10
112.97
20
-73.5763
11
112.775
21
-73.5955
0
LINE
8
BLACK
6
CONTINUOUS
10
112.775
20
-73.5955
11
112.58
21
-73.5763
0
LINE
8
BLACK
6
CONTINUOUS
10
112.58
20
-73.5763
11
112.392
21
-73.5194
0
LINE
8
BLACK
6
CONTINUOUS
10
112.392
20
-73.5194
11
112.219
21
-73.427
0
LINE
8
BLACK
6
CONTINUOUS
10
112.219
20
-73.427
11
112.068
21
-73.3026
0
LINE
8
BLACK
6
CONTINUOUS
10
112.068
20
-73.3026
11
111.944
21
-73.1511
0
LINE
8
BLACK
6
CONTINUOUS
10
111.944
20
-73.1511
11
111.851
21
-72.9782
0
LINE
8
BLACK
6
CONTINUOUS
10
111.851
20
-72.9782
11
111.794
21
-72.7906
0
LINE
8
BLACK
6
CONTINUOUS
10
111.794
20
-72.7906
11
111.775
21
-72.5955
0
LINE
8
BLACK
6
CONTINUOUS
10
111.775
20
-72.5955
11
111.794
21
-72.4004
0
LINE
8
BLACK
6
CONTINUOUS
10
111.794
20
-72.4004
11
111.851
21
-72.2128
0
LINE
8
BLACK
6
CONTINUOUS
10
111.851
20
-72.2128
11
111.944
21
-72.0399
0
LINE
8
BLACK
6
CONTINUOUS
10
111.944
20
-72.0399
11
112.068
21
-71.8884
0
LINE
8
BLACK
6
CONTINUOUS
10
112.068
20
-71.8884
11
112.219
21
-71.764
0
LINE
8
BLACK
6
CONTINUOUS
10
112.219
20
-71.764
11
112.392
21
-71.6716
0
LINE
8
BLACK
6
CONTINUOUS
10
112.392
20
-71.6716
11
112.58
21
-71.6147
0
LINE
8
BLACK
6
CONTINUOUS
10
112.58
20
-71.6147
11
112.775
21
-71.5955
0
LINE
8
BLACK
6
CONTINUOUS
10
112.775
20
-71.5955
11
112.97
21
-71.6147
0
LINE
8
BLACK
6
CONTINUOUS
10
126.354
20
-71.4692
11
126.541
21
-71.5261
0
LINE
8
BLACK
6
CONTINUOUS
10
126.541
20
-71.5261
11
126.714
21
-71.6185
0
LINE
8
BLACK
6
CONTINUOUS
10
126.714
20
-71.6185
11
126.866
21
-71.7429
0
LINE
8
BLACK
6
CONTINUOUS
10
126.866
20
-71.7429
11
126.99
21
-71.8944
0
LINE
8
BLACK
6
CONTINUOUS
10
126.99
20
-71.8944
11
127.082
21
-72.0673
0
LINE
8
BLACK
6
CONTINUOUS
10
127.082
20
-72.0673
11
127.139
21
-72.2549
0
LINE
8
BLACK
6
CONTINUOUS
10
127.139
20
-72.2549
11
127.158
21
-72.45
0
LINE
8
BLACK
6
CONTINUOUS
10
127.158
20
-72.45
11
127.139
21
-72.6451
0
LINE
8
BLACK
6
CONTINUOUS
10
127.139
20
-72.6451
11
127.082
21
-72.8327
0
LINE
8
BLACK
6
CONTINUOUS
10
127.082
20
-72.8327
11
126.99
21
-73.0056
0
LINE
8
BLACK
6
CONTINUOUS
10
126.99
20
-73.0056
11
126.866
21
-73.1571
0
LINE
8
BLACK
6
CONTINUOUS
10
126.866
20
-73.1571
11
126.714
21
-73.2815
0
LINE
8
BLACK
6
CONTINUOUS
10
126.714
20
-73.2815
11
126.541
21
-73.3739
0
LINE
8
BLACK
6
CONTINUOUS
10
126.541
20
-73.3739
11
126.354
21
-73.4308
0
LINE
8
BLACK
6
CONTINUOUS
10
126.354
20
-73.4308
11
126.158
21
-73.45
0
LINE
8
BLACK
6
CONTINUOUS
10
126.158
20
-73.45
11
125.963
21
-73.4308
0
LINE
8
BLACK
6
CONTINUOUS
10
125.963
20
-73.4308
11
125.776
21
-73.3739
0
LINE
8
BLACK
6
CONTINUOUS
10
125.776
20
-73.3739
11
125.603
21
-73.2815
0
LINE
8
BLACK
6
CONTINUOUS
10
125.603
20
-73.2815
11
125.451
21
-73.1571
0
LINE
8
BLACK
6
CONTINUOUS
10
125.451
20
-73.1571
11
125.327
21
-73.0056
0
LINE
8
BLACK
6
CONTINUOUS
10
125.327
20
-73.0056
11
125.235
21
-72.8327
0
LINE
8
BLACK
6
CONTINUOUS
10
125.235
20
-72.8327
11
125.178
21
-72.6451
0
LINE
8
BLACK
6
CONTINUOUS
10
125.178
20
-72.6451
11
125.158
21
-72.45
0
LINE
8
BLACK
6
CONTINUOUS
10
125.158
20
-72.45
11
125.178
21
-72.2549
0
LINE
8
BLACK
6
CONTINUOUS
10
125.178
20
-72.2549
11
125.235
21
-72.0673
0
LINE
8
BLACK
6
CONTINUOUS
10
125.235
20
-72.0673
11
125.327
21
-71.8944
0
LINE
8
BLACK
6
CONTINUOUS
10
125.327
20
-71.8944
11
125.451
21
-71.7429
0
LINE
8
BLACK
6
CONTINUOUS
10
125.451
20
-71.7429
11
125.603
21
-71.6185
0
LINE
8
BLACK
6
CONTINUOUS
10
125.603
20
-71.6185
11
125.776
21
-71.5261
0
LINE
8
BLACK
6
CONTINUOUS
10
125.776
20
-71.5261
11
125.963
21
-71.4692
0
LINE
8
BLACK
6
CONTINUOUS
10
125.963
20
-71.4692
11
126.158
21
-71.45
0
LINE
8
BLACK
6
CONTINUOUS
10
126.158
20
-71.45
11
126.354
21
-71.4692
0
LINE
8
BLACK
6
CONTINUOUS
10
151.108
20
-70.4152
11
151.227
21
-70.4921
0
LINE
8
BLACK
6
CONTINUOUS
10
151.227
20
-70.4921
11
151.321
21
-70.5997
0
LINE
8
BLACK
6
CONTINUOUS
10
151.321
20
-70.5997
11
151.38
21
-70.7291
0
LINE
8
BLACK
6
CONTINUOUS
10
151.38
20
-70.7291
11
151.4
21
-70.87
0
LINE
8
BLACK
6
CONTINUOUS
10
151.4
20
-70.87
11
151.38
21
-71.0109
0
LINE
8
BLACK
6
CONTINUOUS
10
151.38
20
-71.0109
11
151.321
21
-71.1403
0
LINE
8
BLACK
6
CONTINUOUS
10
151.321
20
-71.1403
11
151.227
21
-71.2479
0
LINE
8
BLACK
6
CONTINUOUS
10
151.227
20
-71.2479
11
151.108
21
-71.3248
0
LINE
8
BLACK
6
CONTINUOUS
10
151.108
20
-71.3248
11
150.971
21
-71.3649
0
LINE
8
BLACK
6
CONTINUOUS
10
150.971
20
-71.3649
11
150.829
21
-71.3649
0
LINE
8
BLACK
6
CONTINUOUS
10
150.829
20
-71.3649
11
150.692
21
-71.3248
0
LINE
8
BLACK
6
CONTINUOUS
10
150.692
20
-71.3248
11
150.573
21
-71.2479
0
LINE
8
BLACK
6
CONTINUOUS
10
150.573
20
-71.2479
11
150.479
21
-71.1403
0
LINE
8
BLACK
6
CONTINUOUS
10
150.479
20
-71.1403
11
150.42
21
-71.0109
0
LINE
8
BLACK
6
CONTINUOUS
10
150.42
20
-71.0109
11
150.4
21
-70.87
0
LINE
8
BLACK
6
CONTINUOUS
10
150.4
20
-70.87
11
150.42
21
-70.7291
0
LINE
8
BLACK
6
CONTINUOUS
10
150.42
20
-70.7291
11
150.479
21
-70.5997
0
LINE
8
BLACK
6
CONTINUOUS
10
150.479
20
-70.5997
11
150.573
21
-70.4921
0
LINE
8
BLACK
6
CONTINUOUS
10
150.573
20
-70.4921
11
150.692
21
-70.4152
0
LINE
8
BLACK
6
CONTINUOUS
10
150.692
20
-70.4152
11
150.829
21
-70.3751
0
LINE
8
BLACK
6
CONTINUOUS
10
150.829
20
-70.3751
11
150.971
21
-70.3751
0
LINE
8
BLACK
6
CONTINUOUS
10
150.971
20
-70.3751
11
151.108
21
-70.4152
0
LINE
8
BLACK
6
CONTINUOUS
10
151.4
20
-70.1
11
150.4
21
-70.1
0
LINE
8
BLACK
6
CONTINUOUS
10
150.4
20
-70.1
11
150.4
21
-69.1
0
LINE
8
BLACK
6
CONTINUOUS
10
150.4
20
-69.1
11
151.4
21
-69.1
0
LINE
8
BLACK
6
CONTINUOUS
10
151.4
20
-69.1
11
151.4
21
-70.1
  0
ENDSEC
  0
EOF
