%TF.GenerationSoftware,KiCad,Pcbnew,(7.0.0)*%
%TF.CreationDate,2024-01-25T16:52:26+01:00*%
%TF.ProjectId,Sensorbox,53656e73-6f72-4626-9f78-2e6b69636164,rev?*%
%TF.SameCoordinates,PX62b48e0PY7ffbac0*%
%TF.FileFunction,Legend,Top*%
%TF.FilePolarity,Positive*%
%FSLAX46Y46*%
G04 Gerber Fmt 4.6, Leading zero omitted, Abs format (unit mm)*
G04 Created by KiCad (PCBNEW (7.0.0)) date 2024-01-25 16:52:26*
%MOMM*%
%LPD*%
G01*
G04 APERTURE LIST*
%ADD10C,0.150000*%
%ADD11C,0.100000*%
%ADD12C,0.120000*%
%ADD13C,0.200000*%
G04 APERTURE END LIST*
D10*
%TO.C,H104*%
X3285714Y8832620D02*
X3285714Y9832620D01*
X3285714Y9356429D02*
X3857142Y9356429D01*
X3857142Y8832620D02*
X3857142Y9832620D01*
X4857142Y8832620D02*
X4285714Y8832620D01*
X4571428Y8832620D02*
X4571428Y9832620D01*
X4571428Y9832620D02*
X4476190Y9689762D01*
X4476190Y9689762D02*
X4380952Y9594524D01*
X4380952Y9594524D02*
X4285714Y9546905D01*
X5476190Y9832620D02*
X5571428Y9832620D01*
X5571428Y9832620D02*
X5666666Y9785000D01*
X5666666Y9785000D02*
X5714285Y9737381D01*
X5714285Y9737381D02*
X5761904Y9642143D01*
X5761904Y9642143D02*
X5809523Y9451667D01*
X5809523Y9451667D02*
X5809523Y9213572D01*
X5809523Y9213572D02*
X5761904Y9023096D01*
X5761904Y9023096D02*
X5714285Y8927858D01*
X5714285Y8927858D02*
X5666666Y8880239D01*
X5666666Y8880239D02*
X5571428Y8832620D01*
X5571428Y8832620D02*
X5476190Y8832620D01*
X5476190Y8832620D02*
X5380952Y8880239D01*
X5380952Y8880239D02*
X5333333Y8927858D01*
X5333333Y8927858D02*
X5285714Y9023096D01*
X5285714Y9023096D02*
X5238095Y9213572D01*
X5238095Y9213572D02*
X5238095Y9451667D01*
X5238095Y9451667D02*
X5285714Y9642143D01*
X5285714Y9642143D02*
X5333333Y9737381D01*
X5333333Y9737381D02*
X5380952Y9785000D01*
X5380952Y9785000D02*
X5476190Y9832620D01*
X6666666Y9499286D02*
X6666666Y8832620D01*
X6428571Y9880239D02*
X6190476Y9165953D01*
X6190476Y9165953D02*
X6809523Y9165953D01*
%TO.C,H103*%
X98185714Y2032620D02*
X98185714Y3032620D01*
X98185714Y2556429D02*
X98757142Y2556429D01*
X98757142Y2032620D02*
X98757142Y3032620D01*
X99757142Y2032620D02*
X99185714Y2032620D01*
X99471428Y2032620D02*
X99471428Y3032620D01*
X99471428Y3032620D02*
X99376190Y2889762D01*
X99376190Y2889762D02*
X99280952Y2794524D01*
X99280952Y2794524D02*
X99185714Y2746905D01*
X100376190Y3032620D02*
X100471428Y3032620D01*
X100471428Y3032620D02*
X100566666Y2985000D01*
X100566666Y2985000D02*
X100614285Y2937381D01*
X100614285Y2937381D02*
X100661904Y2842143D01*
X100661904Y2842143D02*
X100709523Y2651667D01*
X100709523Y2651667D02*
X100709523Y2413572D01*
X100709523Y2413572D02*
X100661904Y2223096D01*
X100661904Y2223096D02*
X100614285Y2127858D01*
X100614285Y2127858D02*
X100566666Y2080239D01*
X100566666Y2080239D02*
X100471428Y2032620D01*
X100471428Y2032620D02*
X100376190Y2032620D01*
X100376190Y2032620D02*
X100280952Y2080239D01*
X100280952Y2080239D02*
X100233333Y2127858D01*
X100233333Y2127858D02*
X100185714Y2223096D01*
X100185714Y2223096D02*
X100138095Y2413572D01*
X100138095Y2413572D02*
X100138095Y2651667D01*
X100138095Y2651667D02*
X100185714Y2842143D01*
X100185714Y2842143D02*
X100233333Y2937381D01*
X100233333Y2937381D02*
X100280952Y2985000D01*
X100280952Y2985000D02*
X100376190Y3032620D01*
X101042857Y3032620D02*
X101661904Y3032620D01*
X101661904Y3032620D02*
X101328571Y2651667D01*
X101328571Y2651667D02*
X101471428Y2651667D01*
X101471428Y2651667D02*
X101566666Y2604048D01*
X101566666Y2604048D02*
X101614285Y2556429D01*
X101614285Y2556429D02*
X101661904Y2461191D01*
X101661904Y2461191D02*
X101661904Y2223096D01*
X101661904Y2223096D02*
X101614285Y2127858D01*
X101614285Y2127858D02*
X101566666Y2080239D01*
X101566666Y2080239D02*
X101471428Y2032620D01*
X101471428Y2032620D02*
X101185714Y2032620D01*
X101185714Y2032620D02*
X101090476Y2080239D01*
X101090476Y2080239D02*
X101042857Y2127858D01*
%TO.C,H102*%
X3285714Y68832620D02*
X3285714Y69832620D01*
X3285714Y69356429D02*
X3857142Y69356429D01*
X3857142Y68832620D02*
X3857142Y69832620D01*
X4857142Y68832620D02*
X4285714Y68832620D01*
X4571428Y68832620D02*
X4571428Y69832620D01*
X4571428Y69832620D02*
X4476190Y69689762D01*
X4476190Y69689762D02*
X4380952Y69594524D01*
X4380952Y69594524D02*
X4285714Y69546905D01*
X5476190Y69832620D02*
X5571428Y69832620D01*
X5571428Y69832620D02*
X5666666Y69785000D01*
X5666666Y69785000D02*
X5714285Y69737381D01*
X5714285Y69737381D02*
X5761904Y69642143D01*
X5761904Y69642143D02*
X5809523Y69451667D01*
X5809523Y69451667D02*
X5809523Y69213572D01*
X5809523Y69213572D02*
X5761904Y69023096D01*
X5761904Y69023096D02*
X5714285Y68927858D01*
X5714285Y68927858D02*
X5666666Y68880239D01*
X5666666Y68880239D02*
X5571428Y68832620D01*
X5571428Y68832620D02*
X5476190Y68832620D01*
X5476190Y68832620D02*
X5380952Y68880239D01*
X5380952Y68880239D02*
X5333333Y68927858D01*
X5333333Y68927858D02*
X5285714Y69023096D01*
X5285714Y69023096D02*
X5238095Y69213572D01*
X5238095Y69213572D02*
X5238095Y69451667D01*
X5238095Y69451667D02*
X5285714Y69642143D01*
X5285714Y69642143D02*
X5333333Y69737381D01*
X5333333Y69737381D02*
X5380952Y69785000D01*
X5380952Y69785000D02*
X5476190Y69832620D01*
X6190476Y69737381D02*
X6238095Y69785000D01*
X6238095Y69785000D02*
X6333333Y69832620D01*
X6333333Y69832620D02*
X6571428Y69832620D01*
X6571428Y69832620D02*
X6666666Y69785000D01*
X6666666Y69785000D02*
X6714285Y69737381D01*
X6714285Y69737381D02*
X6761904Y69642143D01*
X6761904Y69642143D02*
X6761904Y69546905D01*
X6761904Y69546905D02*
X6714285Y69404048D01*
X6714285Y69404048D02*
X6142857Y68832620D01*
X6142857Y68832620D02*
X6761904Y68832620D01*
%TO.C,H101*%
X103285714Y68832620D02*
X103285714Y69832620D01*
X103285714Y69356429D02*
X103857142Y69356429D01*
X103857142Y68832620D02*
X103857142Y69832620D01*
X104857142Y68832620D02*
X104285714Y68832620D01*
X104571428Y68832620D02*
X104571428Y69832620D01*
X104571428Y69832620D02*
X104476190Y69689762D01*
X104476190Y69689762D02*
X104380952Y69594524D01*
X104380952Y69594524D02*
X104285714Y69546905D01*
X105476190Y69832620D02*
X105571428Y69832620D01*
X105571428Y69832620D02*
X105666666Y69785000D01*
X105666666Y69785000D02*
X105714285Y69737381D01*
X105714285Y69737381D02*
X105761904Y69642143D01*
X105761904Y69642143D02*
X105809523Y69451667D01*
X105809523Y69451667D02*
X105809523Y69213572D01*
X105809523Y69213572D02*
X105761904Y69023096D01*
X105761904Y69023096D02*
X105714285Y68927858D01*
X105714285Y68927858D02*
X105666666Y68880239D01*
X105666666Y68880239D02*
X105571428Y68832620D01*
X105571428Y68832620D02*
X105476190Y68832620D01*
X105476190Y68832620D02*
X105380952Y68880239D01*
X105380952Y68880239D02*
X105333333Y68927858D01*
X105333333Y68927858D02*
X105285714Y69023096D01*
X105285714Y69023096D02*
X105238095Y69213572D01*
X105238095Y69213572D02*
X105238095Y69451667D01*
X105238095Y69451667D02*
X105285714Y69642143D01*
X105285714Y69642143D02*
X105333333Y69737381D01*
X105333333Y69737381D02*
X105380952Y69785000D01*
X105380952Y69785000D02*
X105476190Y69832620D01*
X106761904Y68832620D02*
X106190476Y68832620D01*
X106476190Y68832620D02*
X106476190Y69832620D01*
X106476190Y69832620D02*
X106380952Y69689762D01*
X106380952Y69689762D02*
X106285714Y69594524D01*
X106285714Y69594524D02*
X106190476Y69546905D01*
%TO.C,R104*%
X24580952Y51032620D02*
X24247619Y51508810D01*
X24009524Y51032620D02*
X24009524Y52032620D01*
X24009524Y52032620D02*
X24390476Y52032620D01*
X24390476Y52032620D02*
X24485714Y51985000D01*
X24485714Y51985000D02*
X24533333Y51937381D01*
X24533333Y51937381D02*
X24580952Y51842143D01*
X24580952Y51842143D02*
X24580952Y51699286D01*
X24580952Y51699286D02*
X24533333Y51604048D01*
X24533333Y51604048D02*
X24485714Y51556429D01*
X24485714Y51556429D02*
X24390476Y51508810D01*
X24390476Y51508810D02*
X24009524Y51508810D01*
X25533333Y51032620D02*
X24961905Y51032620D01*
X25247619Y51032620D02*
X25247619Y52032620D01*
X25247619Y52032620D02*
X25152381Y51889762D01*
X25152381Y51889762D02*
X25057143Y51794524D01*
X25057143Y51794524D02*
X24961905Y51746905D01*
X26152381Y52032620D02*
X26247619Y52032620D01*
X26247619Y52032620D02*
X26342857Y51985000D01*
X26342857Y51985000D02*
X26390476Y51937381D01*
X26390476Y51937381D02*
X26438095Y51842143D01*
X26438095Y51842143D02*
X26485714Y51651667D01*
X26485714Y51651667D02*
X26485714Y51413572D01*
X26485714Y51413572D02*
X26438095Y51223096D01*
X26438095Y51223096D02*
X26390476Y51127858D01*
X26390476Y51127858D02*
X26342857Y51080239D01*
X26342857Y51080239D02*
X26247619Y51032620D01*
X26247619Y51032620D02*
X26152381Y51032620D01*
X26152381Y51032620D02*
X26057143Y51080239D01*
X26057143Y51080239D02*
X26009524Y51127858D01*
X26009524Y51127858D02*
X25961905Y51223096D01*
X25961905Y51223096D02*
X25914286Y51413572D01*
X25914286Y51413572D02*
X25914286Y51651667D01*
X25914286Y51651667D02*
X25961905Y51842143D01*
X25961905Y51842143D02*
X26009524Y51937381D01*
X26009524Y51937381D02*
X26057143Y51985000D01*
X26057143Y51985000D02*
X26152381Y52032620D01*
X27342857Y51699286D02*
X27342857Y51032620D01*
X27104762Y52080239D02*
X26866667Y51365953D01*
X26866667Y51365953D02*
X27485714Y51365953D01*
%TO.C,R106*%
X47180952Y43282620D02*
X46847619Y43758810D01*
X46609524Y43282620D02*
X46609524Y44282620D01*
X46609524Y44282620D02*
X46990476Y44282620D01*
X46990476Y44282620D02*
X47085714Y44235000D01*
X47085714Y44235000D02*
X47133333Y44187381D01*
X47133333Y44187381D02*
X47180952Y44092143D01*
X47180952Y44092143D02*
X47180952Y43949286D01*
X47180952Y43949286D02*
X47133333Y43854048D01*
X47133333Y43854048D02*
X47085714Y43806429D01*
X47085714Y43806429D02*
X46990476Y43758810D01*
X46990476Y43758810D02*
X46609524Y43758810D01*
X48133333Y43282620D02*
X47561905Y43282620D01*
X47847619Y43282620D02*
X47847619Y44282620D01*
X47847619Y44282620D02*
X47752381Y44139762D01*
X47752381Y44139762D02*
X47657143Y44044524D01*
X47657143Y44044524D02*
X47561905Y43996905D01*
X48752381Y44282620D02*
X48847619Y44282620D01*
X48847619Y44282620D02*
X48942857Y44235000D01*
X48942857Y44235000D02*
X48990476Y44187381D01*
X48990476Y44187381D02*
X49038095Y44092143D01*
X49038095Y44092143D02*
X49085714Y43901667D01*
X49085714Y43901667D02*
X49085714Y43663572D01*
X49085714Y43663572D02*
X49038095Y43473096D01*
X49038095Y43473096D02*
X48990476Y43377858D01*
X48990476Y43377858D02*
X48942857Y43330239D01*
X48942857Y43330239D02*
X48847619Y43282620D01*
X48847619Y43282620D02*
X48752381Y43282620D01*
X48752381Y43282620D02*
X48657143Y43330239D01*
X48657143Y43330239D02*
X48609524Y43377858D01*
X48609524Y43377858D02*
X48561905Y43473096D01*
X48561905Y43473096D02*
X48514286Y43663572D01*
X48514286Y43663572D02*
X48514286Y43901667D01*
X48514286Y43901667D02*
X48561905Y44092143D01*
X48561905Y44092143D02*
X48609524Y44187381D01*
X48609524Y44187381D02*
X48657143Y44235000D01*
X48657143Y44235000D02*
X48752381Y44282620D01*
X49942857Y44282620D02*
X49752381Y44282620D01*
X49752381Y44282620D02*
X49657143Y44235000D01*
X49657143Y44235000D02*
X49609524Y44187381D01*
X49609524Y44187381D02*
X49514286Y44044524D01*
X49514286Y44044524D02*
X49466667Y43854048D01*
X49466667Y43854048D02*
X49466667Y43473096D01*
X49466667Y43473096D02*
X49514286Y43377858D01*
X49514286Y43377858D02*
X49561905Y43330239D01*
X49561905Y43330239D02*
X49657143Y43282620D01*
X49657143Y43282620D02*
X49847619Y43282620D01*
X49847619Y43282620D02*
X49942857Y43330239D01*
X49942857Y43330239D02*
X49990476Y43377858D01*
X49990476Y43377858D02*
X50038095Y43473096D01*
X50038095Y43473096D02*
X50038095Y43711191D01*
X50038095Y43711191D02*
X49990476Y43806429D01*
X49990476Y43806429D02*
X49942857Y43854048D01*
X49942857Y43854048D02*
X49847619Y43901667D01*
X49847619Y43901667D02*
X49657143Y43901667D01*
X49657143Y43901667D02*
X49561905Y43854048D01*
X49561905Y43854048D02*
X49514286Y43806429D01*
X49514286Y43806429D02*
X49466667Y43711191D01*
D11*
%TO.C,SW101*%
X8644761Y53239287D02*
X8692380Y53382144D01*
X8692380Y53382144D02*
X8692380Y53620239D01*
X8692380Y53620239D02*
X8644761Y53715477D01*
X8644761Y53715477D02*
X8597142Y53763096D01*
X8597142Y53763096D02*
X8501904Y53810715D01*
X8501904Y53810715D02*
X8406666Y53810715D01*
X8406666Y53810715D02*
X8311428Y53763096D01*
X8311428Y53763096D02*
X8263809Y53715477D01*
X8263809Y53715477D02*
X8216190Y53620239D01*
X8216190Y53620239D02*
X8168571Y53429763D01*
X8168571Y53429763D02*
X8120952Y53334525D01*
X8120952Y53334525D02*
X8073333Y53286906D01*
X8073333Y53286906D02*
X7978095Y53239287D01*
X7978095Y53239287D02*
X7882857Y53239287D01*
X7882857Y53239287D02*
X7787619Y53286906D01*
X7787619Y53286906D02*
X7740000Y53334525D01*
X7740000Y53334525D02*
X7692380Y53429763D01*
X7692380Y53429763D02*
X7692380Y53667858D01*
X7692380Y53667858D02*
X7740000Y53810715D01*
X7692380Y54144049D02*
X8692380Y54382144D01*
X8692380Y54382144D02*
X7978095Y54572620D01*
X7978095Y54572620D02*
X8692380Y54763096D01*
X8692380Y54763096D02*
X7692380Y55001191D01*
X8692380Y55905953D02*
X8692380Y55334525D01*
X8692380Y55620239D02*
X7692380Y55620239D01*
X7692380Y55620239D02*
X7835238Y55525001D01*
X7835238Y55525001D02*
X7930476Y55429763D01*
X7930476Y55429763D02*
X7978095Y55334525D01*
X7692380Y56525001D02*
X7692380Y56620239D01*
X7692380Y56620239D02*
X7740000Y56715477D01*
X7740000Y56715477D02*
X7787619Y56763096D01*
X7787619Y56763096D02*
X7882857Y56810715D01*
X7882857Y56810715D02*
X8073333Y56858334D01*
X8073333Y56858334D02*
X8311428Y56858334D01*
X8311428Y56858334D02*
X8501904Y56810715D01*
X8501904Y56810715D02*
X8597142Y56763096D01*
X8597142Y56763096D02*
X8644761Y56715477D01*
X8644761Y56715477D02*
X8692380Y56620239D01*
X8692380Y56620239D02*
X8692380Y56525001D01*
X8692380Y56525001D02*
X8644761Y56429763D01*
X8644761Y56429763D02*
X8597142Y56382144D01*
X8597142Y56382144D02*
X8501904Y56334525D01*
X8501904Y56334525D02*
X8311428Y56286906D01*
X8311428Y56286906D02*
X8073333Y56286906D01*
X8073333Y56286906D02*
X7882857Y56334525D01*
X7882857Y56334525D02*
X7787619Y56382144D01*
X7787619Y56382144D02*
X7740000Y56429763D01*
X7740000Y56429763D02*
X7692380Y56525001D01*
X8692380Y57810715D02*
X8692380Y57239287D01*
X8692380Y57525001D02*
X7692380Y57525001D01*
X7692380Y57525001D02*
X7835238Y57429763D01*
X7835238Y57429763D02*
X7930476Y57334525D01*
X7930476Y57334525D02*
X7978095Y57239287D01*
D10*
%TO.C,C104*%
X40480952Y15327858D02*
X40433333Y15280239D01*
X40433333Y15280239D02*
X40290476Y15232620D01*
X40290476Y15232620D02*
X40195238Y15232620D01*
X40195238Y15232620D02*
X40052381Y15280239D01*
X40052381Y15280239D02*
X39957143Y15375477D01*
X39957143Y15375477D02*
X39909524Y15470715D01*
X39909524Y15470715D02*
X39861905Y15661191D01*
X39861905Y15661191D02*
X39861905Y15804048D01*
X39861905Y15804048D02*
X39909524Y15994524D01*
X39909524Y15994524D02*
X39957143Y16089762D01*
X39957143Y16089762D02*
X40052381Y16185000D01*
X40052381Y16185000D02*
X40195238Y16232620D01*
X40195238Y16232620D02*
X40290476Y16232620D01*
X40290476Y16232620D02*
X40433333Y16185000D01*
X40433333Y16185000D02*
X40480952Y16137381D01*
X41433333Y15232620D02*
X40861905Y15232620D01*
X41147619Y15232620D02*
X41147619Y16232620D01*
X41147619Y16232620D02*
X41052381Y16089762D01*
X41052381Y16089762D02*
X40957143Y15994524D01*
X40957143Y15994524D02*
X40861905Y15946905D01*
X42052381Y16232620D02*
X42147619Y16232620D01*
X42147619Y16232620D02*
X42242857Y16185000D01*
X42242857Y16185000D02*
X42290476Y16137381D01*
X42290476Y16137381D02*
X42338095Y16042143D01*
X42338095Y16042143D02*
X42385714Y15851667D01*
X42385714Y15851667D02*
X42385714Y15613572D01*
X42385714Y15613572D02*
X42338095Y15423096D01*
X42338095Y15423096D02*
X42290476Y15327858D01*
X42290476Y15327858D02*
X42242857Y15280239D01*
X42242857Y15280239D02*
X42147619Y15232620D01*
X42147619Y15232620D02*
X42052381Y15232620D01*
X42052381Y15232620D02*
X41957143Y15280239D01*
X41957143Y15280239D02*
X41909524Y15327858D01*
X41909524Y15327858D02*
X41861905Y15423096D01*
X41861905Y15423096D02*
X41814286Y15613572D01*
X41814286Y15613572D02*
X41814286Y15851667D01*
X41814286Y15851667D02*
X41861905Y16042143D01*
X41861905Y16042143D02*
X41909524Y16137381D01*
X41909524Y16137381D02*
X41957143Y16185000D01*
X41957143Y16185000D02*
X42052381Y16232620D01*
X43242857Y15899286D02*
X43242857Y15232620D01*
X43004762Y16280239D02*
X42766667Y15565953D01*
X42766667Y15565953D02*
X43385714Y15565953D01*
D11*
%TO.C,SB103*%
X17785714Y8280239D02*
X17928571Y8232620D01*
X17928571Y8232620D02*
X18166666Y8232620D01*
X18166666Y8232620D02*
X18261904Y8280239D01*
X18261904Y8280239D02*
X18309523Y8327858D01*
X18309523Y8327858D02*
X18357142Y8423096D01*
X18357142Y8423096D02*
X18357142Y8518334D01*
X18357142Y8518334D02*
X18309523Y8613572D01*
X18309523Y8613572D02*
X18261904Y8661191D01*
X18261904Y8661191D02*
X18166666Y8708810D01*
X18166666Y8708810D02*
X17976190Y8756429D01*
X17976190Y8756429D02*
X17880952Y8804048D01*
X17880952Y8804048D02*
X17833333Y8851667D01*
X17833333Y8851667D02*
X17785714Y8946905D01*
X17785714Y8946905D02*
X17785714Y9042143D01*
X17785714Y9042143D02*
X17833333Y9137381D01*
X17833333Y9137381D02*
X17880952Y9185000D01*
X17880952Y9185000D02*
X17976190Y9232620D01*
X17976190Y9232620D02*
X18214285Y9232620D01*
X18214285Y9232620D02*
X18357142Y9185000D01*
X19119047Y8756429D02*
X19261904Y8708810D01*
X19261904Y8708810D02*
X19309523Y8661191D01*
X19309523Y8661191D02*
X19357142Y8565953D01*
X19357142Y8565953D02*
X19357142Y8423096D01*
X19357142Y8423096D02*
X19309523Y8327858D01*
X19309523Y8327858D02*
X19261904Y8280239D01*
X19261904Y8280239D02*
X19166666Y8232620D01*
X19166666Y8232620D02*
X18785714Y8232620D01*
X18785714Y8232620D02*
X18785714Y9232620D01*
X18785714Y9232620D02*
X19119047Y9232620D01*
X19119047Y9232620D02*
X19214285Y9185000D01*
X19214285Y9185000D02*
X19261904Y9137381D01*
X19261904Y9137381D02*
X19309523Y9042143D01*
X19309523Y9042143D02*
X19309523Y8946905D01*
X19309523Y8946905D02*
X19261904Y8851667D01*
X19261904Y8851667D02*
X19214285Y8804048D01*
X19214285Y8804048D02*
X19119047Y8756429D01*
X19119047Y8756429D02*
X18785714Y8756429D01*
X20309523Y8232620D02*
X19738095Y8232620D01*
X20023809Y8232620D02*
X20023809Y9232620D01*
X20023809Y9232620D02*
X19928571Y9089762D01*
X19928571Y9089762D02*
X19833333Y8994524D01*
X19833333Y8994524D02*
X19738095Y8946905D01*
X20928571Y9232620D02*
X21023809Y9232620D01*
X21023809Y9232620D02*
X21119047Y9185000D01*
X21119047Y9185000D02*
X21166666Y9137381D01*
X21166666Y9137381D02*
X21214285Y9042143D01*
X21214285Y9042143D02*
X21261904Y8851667D01*
X21261904Y8851667D02*
X21261904Y8613572D01*
X21261904Y8613572D02*
X21214285Y8423096D01*
X21214285Y8423096D02*
X21166666Y8327858D01*
X21166666Y8327858D02*
X21119047Y8280239D01*
X21119047Y8280239D02*
X21023809Y8232620D01*
X21023809Y8232620D02*
X20928571Y8232620D01*
X20928571Y8232620D02*
X20833333Y8280239D01*
X20833333Y8280239D02*
X20785714Y8327858D01*
X20785714Y8327858D02*
X20738095Y8423096D01*
X20738095Y8423096D02*
X20690476Y8613572D01*
X20690476Y8613572D02*
X20690476Y8851667D01*
X20690476Y8851667D02*
X20738095Y9042143D01*
X20738095Y9042143D02*
X20785714Y9137381D01*
X20785714Y9137381D02*
X20833333Y9185000D01*
X20833333Y9185000D02*
X20928571Y9232620D01*
X21595238Y9232620D02*
X22214285Y9232620D01*
X22214285Y9232620D02*
X21880952Y8851667D01*
X21880952Y8851667D02*
X22023809Y8851667D01*
X22023809Y8851667D02*
X22119047Y8804048D01*
X22119047Y8804048D02*
X22166666Y8756429D01*
X22166666Y8756429D02*
X22214285Y8661191D01*
X22214285Y8661191D02*
X22214285Y8423096D01*
X22214285Y8423096D02*
X22166666Y8327858D01*
X22166666Y8327858D02*
X22119047Y8280239D01*
X22119047Y8280239D02*
X22023809Y8232620D01*
X22023809Y8232620D02*
X21738095Y8232620D01*
X21738095Y8232620D02*
X21642857Y8280239D01*
X21642857Y8280239D02*
X21595238Y8327858D01*
%TO.C,SW102*%
X52476102Y58685763D02*
X52618959Y58638144D01*
X52618959Y58638144D02*
X52857054Y58638144D01*
X52857054Y58638144D02*
X52952292Y58685763D01*
X52952292Y58685763D02*
X52999911Y58733382D01*
X52999911Y58733382D02*
X53047530Y58828620D01*
X53047530Y58828620D02*
X53047530Y58923858D01*
X53047530Y58923858D02*
X52999911Y59019096D01*
X52999911Y59019096D02*
X52952292Y59066715D01*
X52952292Y59066715D02*
X52857054Y59114334D01*
X52857054Y59114334D02*
X52666578Y59161953D01*
X52666578Y59161953D02*
X52571340Y59209572D01*
X52571340Y59209572D02*
X52523721Y59257191D01*
X52523721Y59257191D02*
X52476102Y59352429D01*
X52476102Y59352429D02*
X52476102Y59447667D01*
X52476102Y59447667D02*
X52523721Y59542905D01*
X52523721Y59542905D02*
X52571340Y59590524D01*
X52571340Y59590524D02*
X52666578Y59638144D01*
X52666578Y59638144D02*
X52904673Y59638144D01*
X52904673Y59638144D02*
X53047530Y59590524D01*
X53380864Y59638144D02*
X53618959Y58638144D01*
X53618959Y58638144D02*
X53809435Y59352429D01*
X53809435Y59352429D02*
X53999911Y58638144D01*
X53999911Y58638144D02*
X54238007Y59638144D01*
X55142768Y58638144D02*
X54571340Y58638144D01*
X54857054Y58638144D02*
X54857054Y59638144D01*
X54857054Y59638144D02*
X54761816Y59495286D01*
X54761816Y59495286D02*
X54666578Y59400048D01*
X54666578Y59400048D02*
X54571340Y59352429D01*
X55761816Y59638144D02*
X55857054Y59638144D01*
X55857054Y59638144D02*
X55952292Y59590524D01*
X55952292Y59590524D02*
X55999911Y59542905D01*
X55999911Y59542905D02*
X56047530Y59447667D01*
X56047530Y59447667D02*
X56095149Y59257191D01*
X56095149Y59257191D02*
X56095149Y59019096D01*
X56095149Y59019096D02*
X56047530Y58828620D01*
X56047530Y58828620D02*
X55999911Y58733382D01*
X55999911Y58733382D02*
X55952292Y58685763D01*
X55952292Y58685763D02*
X55857054Y58638144D01*
X55857054Y58638144D02*
X55761816Y58638144D01*
X55761816Y58638144D02*
X55666578Y58685763D01*
X55666578Y58685763D02*
X55618959Y58733382D01*
X55618959Y58733382D02*
X55571340Y58828620D01*
X55571340Y58828620D02*
X55523721Y59019096D01*
X55523721Y59019096D02*
X55523721Y59257191D01*
X55523721Y59257191D02*
X55571340Y59447667D01*
X55571340Y59447667D02*
X55618959Y59542905D01*
X55618959Y59542905D02*
X55666578Y59590524D01*
X55666578Y59590524D02*
X55761816Y59638144D01*
X56476102Y59542905D02*
X56523721Y59590524D01*
X56523721Y59590524D02*
X56618959Y59638144D01*
X56618959Y59638144D02*
X56857054Y59638144D01*
X56857054Y59638144D02*
X56952292Y59590524D01*
X56952292Y59590524D02*
X56999911Y59542905D01*
X56999911Y59542905D02*
X57047530Y59447667D01*
X57047530Y59447667D02*
X57047530Y59352429D01*
X57047530Y59352429D02*
X56999911Y59209572D01*
X56999911Y59209572D02*
X56428483Y58638144D01*
X56428483Y58638144D02*
X57047530Y58638144D01*
D10*
%TO.C,C102*%
X24972142Y37143453D02*
X25019761Y37095834D01*
X25019761Y37095834D02*
X25067380Y36952977D01*
X25067380Y36952977D02*
X25067380Y36857739D01*
X25067380Y36857739D02*
X25019761Y36714882D01*
X25019761Y36714882D02*
X24924523Y36619644D01*
X24924523Y36619644D02*
X24829285Y36572025D01*
X24829285Y36572025D02*
X24638809Y36524406D01*
X24638809Y36524406D02*
X24495952Y36524406D01*
X24495952Y36524406D02*
X24305476Y36572025D01*
X24305476Y36572025D02*
X24210238Y36619644D01*
X24210238Y36619644D02*
X24115000Y36714882D01*
X24115000Y36714882D02*
X24067380Y36857739D01*
X24067380Y36857739D02*
X24067380Y36952977D01*
X24067380Y36952977D02*
X24115000Y37095834D01*
X24115000Y37095834D02*
X24162619Y37143453D01*
X25067380Y38095834D02*
X25067380Y37524406D01*
X25067380Y37810120D02*
X24067380Y37810120D01*
X24067380Y37810120D02*
X24210238Y37714882D01*
X24210238Y37714882D02*
X24305476Y37619644D01*
X24305476Y37619644D02*
X24353095Y37524406D01*
X24067380Y38714882D02*
X24067380Y38810120D01*
X24067380Y38810120D02*
X24115000Y38905358D01*
X24115000Y38905358D02*
X24162619Y38952977D01*
X24162619Y38952977D02*
X24257857Y39000596D01*
X24257857Y39000596D02*
X24448333Y39048215D01*
X24448333Y39048215D02*
X24686428Y39048215D01*
X24686428Y39048215D02*
X24876904Y39000596D01*
X24876904Y39000596D02*
X24972142Y38952977D01*
X24972142Y38952977D02*
X25019761Y38905358D01*
X25019761Y38905358D02*
X25067380Y38810120D01*
X25067380Y38810120D02*
X25067380Y38714882D01*
X25067380Y38714882D02*
X25019761Y38619644D01*
X25019761Y38619644D02*
X24972142Y38572025D01*
X24972142Y38572025D02*
X24876904Y38524406D01*
X24876904Y38524406D02*
X24686428Y38476787D01*
X24686428Y38476787D02*
X24448333Y38476787D01*
X24448333Y38476787D02*
X24257857Y38524406D01*
X24257857Y38524406D02*
X24162619Y38572025D01*
X24162619Y38572025D02*
X24115000Y38619644D01*
X24115000Y38619644D02*
X24067380Y38714882D01*
X24162619Y39429168D02*
X24115000Y39476787D01*
X24115000Y39476787D02*
X24067380Y39572025D01*
X24067380Y39572025D02*
X24067380Y39810120D01*
X24067380Y39810120D02*
X24115000Y39905358D01*
X24115000Y39905358D02*
X24162619Y39952977D01*
X24162619Y39952977D02*
X24257857Y40000596D01*
X24257857Y40000596D02*
X24353095Y40000596D01*
X24353095Y40000596D02*
X24495952Y39952977D01*
X24495952Y39952977D02*
X25067380Y39381549D01*
X25067380Y39381549D02*
X25067380Y40000596D01*
%TO.C,U103*%
X48607380Y13548215D02*
X49416904Y13548215D01*
X49416904Y13548215D02*
X49512142Y13595834D01*
X49512142Y13595834D02*
X49559761Y13643453D01*
X49559761Y13643453D02*
X49607380Y13738691D01*
X49607380Y13738691D02*
X49607380Y13929167D01*
X49607380Y13929167D02*
X49559761Y14024405D01*
X49559761Y14024405D02*
X49512142Y14072024D01*
X49512142Y14072024D02*
X49416904Y14119643D01*
X49416904Y14119643D02*
X48607380Y14119643D01*
X49607380Y15119643D02*
X49607380Y14548215D01*
X49607380Y14833929D02*
X48607380Y14833929D01*
X48607380Y14833929D02*
X48750238Y14738691D01*
X48750238Y14738691D02*
X48845476Y14643453D01*
X48845476Y14643453D02*
X48893095Y14548215D01*
X48607380Y15738691D02*
X48607380Y15833929D01*
X48607380Y15833929D02*
X48655000Y15929167D01*
X48655000Y15929167D02*
X48702619Y15976786D01*
X48702619Y15976786D02*
X48797857Y16024405D01*
X48797857Y16024405D02*
X48988333Y16072024D01*
X48988333Y16072024D02*
X49226428Y16072024D01*
X49226428Y16072024D02*
X49416904Y16024405D01*
X49416904Y16024405D02*
X49512142Y15976786D01*
X49512142Y15976786D02*
X49559761Y15929167D01*
X49559761Y15929167D02*
X49607380Y15833929D01*
X49607380Y15833929D02*
X49607380Y15738691D01*
X49607380Y15738691D02*
X49559761Y15643453D01*
X49559761Y15643453D02*
X49512142Y15595834D01*
X49512142Y15595834D02*
X49416904Y15548215D01*
X49416904Y15548215D02*
X49226428Y15500596D01*
X49226428Y15500596D02*
X48988333Y15500596D01*
X48988333Y15500596D02*
X48797857Y15548215D01*
X48797857Y15548215D02*
X48702619Y15595834D01*
X48702619Y15595834D02*
X48655000Y15643453D01*
X48655000Y15643453D02*
X48607380Y15738691D01*
X48607380Y16405358D02*
X48607380Y17024405D01*
X48607380Y17024405D02*
X48988333Y16691072D01*
X48988333Y16691072D02*
X48988333Y16833929D01*
X48988333Y16833929D02*
X49035952Y16929167D01*
X49035952Y16929167D02*
X49083571Y16976786D01*
X49083571Y16976786D02*
X49178809Y17024405D01*
X49178809Y17024405D02*
X49416904Y17024405D01*
X49416904Y17024405D02*
X49512142Y16976786D01*
X49512142Y16976786D02*
X49559761Y16929167D01*
X49559761Y16929167D02*
X49607380Y16833929D01*
X49607380Y16833929D02*
X49607380Y16548215D01*
X49607380Y16548215D02*
X49559761Y16452977D01*
X49559761Y16452977D02*
X49512142Y16405358D01*
D11*
%TO.C,SB105*%
X105984285Y8139762D02*
X105841428Y8187381D01*
X105841428Y8187381D02*
X105603333Y8187381D01*
X105603333Y8187381D02*
X105508095Y8139762D01*
X105508095Y8139762D02*
X105460476Y8092143D01*
X105460476Y8092143D02*
X105412857Y7996905D01*
X105412857Y7996905D02*
X105412857Y7901667D01*
X105412857Y7901667D02*
X105460476Y7806429D01*
X105460476Y7806429D02*
X105508095Y7758810D01*
X105508095Y7758810D02*
X105603333Y7711191D01*
X105603333Y7711191D02*
X105793809Y7663572D01*
X105793809Y7663572D02*
X105889047Y7615953D01*
X105889047Y7615953D02*
X105936666Y7568334D01*
X105936666Y7568334D02*
X105984285Y7473096D01*
X105984285Y7473096D02*
X105984285Y7377858D01*
X105984285Y7377858D02*
X105936666Y7282620D01*
X105936666Y7282620D02*
X105889047Y7235000D01*
X105889047Y7235000D02*
X105793809Y7187381D01*
X105793809Y7187381D02*
X105555714Y7187381D01*
X105555714Y7187381D02*
X105412857Y7235000D01*
X104650952Y7663572D02*
X104508095Y7711191D01*
X104508095Y7711191D02*
X104460476Y7758810D01*
X104460476Y7758810D02*
X104412857Y7854048D01*
X104412857Y7854048D02*
X104412857Y7996905D01*
X104412857Y7996905D02*
X104460476Y8092143D01*
X104460476Y8092143D02*
X104508095Y8139762D01*
X104508095Y8139762D02*
X104603333Y8187381D01*
X104603333Y8187381D02*
X104984285Y8187381D01*
X104984285Y8187381D02*
X104984285Y7187381D01*
X104984285Y7187381D02*
X104650952Y7187381D01*
X104650952Y7187381D02*
X104555714Y7235000D01*
X104555714Y7235000D02*
X104508095Y7282620D01*
X104508095Y7282620D02*
X104460476Y7377858D01*
X104460476Y7377858D02*
X104460476Y7473096D01*
X104460476Y7473096D02*
X104508095Y7568334D01*
X104508095Y7568334D02*
X104555714Y7615953D01*
X104555714Y7615953D02*
X104650952Y7663572D01*
X104650952Y7663572D02*
X104984285Y7663572D01*
X103460476Y8187381D02*
X104031904Y8187381D01*
X103746190Y8187381D02*
X103746190Y7187381D01*
X103746190Y7187381D02*
X103841428Y7330239D01*
X103841428Y7330239D02*
X103936666Y7425477D01*
X103936666Y7425477D02*
X104031904Y7473096D01*
X102841428Y7187381D02*
X102746190Y7187381D01*
X102746190Y7187381D02*
X102650952Y7235000D01*
X102650952Y7235000D02*
X102603333Y7282620D01*
X102603333Y7282620D02*
X102555714Y7377858D01*
X102555714Y7377858D02*
X102508095Y7568334D01*
X102508095Y7568334D02*
X102508095Y7806429D01*
X102508095Y7806429D02*
X102555714Y7996905D01*
X102555714Y7996905D02*
X102603333Y8092143D01*
X102603333Y8092143D02*
X102650952Y8139762D01*
X102650952Y8139762D02*
X102746190Y8187381D01*
X102746190Y8187381D02*
X102841428Y8187381D01*
X102841428Y8187381D02*
X102936666Y8139762D01*
X102936666Y8139762D02*
X102984285Y8092143D01*
X102984285Y8092143D02*
X103031904Y7996905D01*
X103031904Y7996905D02*
X103079523Y7806429D01*
X103079523Y7806429D02*
X103079523Y7568334D01*
X103079523Y7568334D02*
X103031904Y7377858D01*
X103031904Y7377858D02*
X102984285Y7282620D01*
X102984285Y7282620D02*
X102936666Y7235000D01*
X102936666Y7235000D02*
X102841428Y7187381D01*
X101603333Y7187381D02*
X102079523Y7187381D01*
X102079523Y7187381D02*
X102127142Y7663572D01*
X102127142Y7663572D02*
X102079523Y7615953D01*
X102079523Y7615953D02*
X101984285Y7568334D01*
X101984285Y7568334D02*
X101746190Y7568334D01*
X101746190Y7568334D02*
X101650952Y7615953D01*
X101650952Y7615953D02*
X101603333Y7663572D01*
X101603333Y7663572D02*
X101555714Y7758810D01*
X101555714Y7758810D02*
X101555714Y7996905D01*
X101555714Y7996905D02*
X101603333Y8092143D01*
X101603333Y8092143D02*
X101650952Y8139762D01*
X101650952Y8139762D02*
X101746190Y8187381D01*
X101746190Y8187381D02*
X101984285Y8187381D01*
X101984285Y8187381D02*
X102079523Y8139762D01*
X102079523Y8139762D02*
X102127142Y8092143D01*
D10*
%TO.C,J101*%
X46114285Y66927620D02*
X46114285Y66213334D01*
X46114285Y66213334D02*
X46066666Y66070477D01*
X46066666Y66070477D02*
X45971428Y65975239D01*
X45971428Y65975239D02*
X45828571Y65927620D01*
X45828571Y65927620D02*
X45733333Y65927620D01*
X47114285Y65927620D02*
X46542857Y65927620D01*
X46828571Y65927620D02*
X46828571Y66927620D01*
X46828571Y66927620D02*
X46733333Y66784762D01*
X46733333Y66784762D02*
X46638095Y66689524D01*
X46638095Y66689524D02*
X46542857Y66641905D01*
X47733333Y66927620D02*
X47828571Y66927620D01*
X47828571Y66927620D02*
X47923809Y66880000D01*
X47923809Y66880000D02*
X47971428Y66832381D01*
X47971428Y66832381D02*
X48019047Y66737143D01*
X48019047Y66737143D02*
X48066666Y66546667D01*
X48066666Y66546667D02*
X48066666Y66308572D01*
X48066666Y66308572D02*
X48019047Y66118096D01*
X48019047Y66118096D02*
X47971428Y66022858D01*
X47971428Y66022858D02*
X47923809Y65975239D01*
X47923809Y65975239D02*
X47828571Y65927620D01*
X47828571Y65927620D02*
X47733333Y65927620D01*
X47733333Y65927620D02*
X47638095Y65975239D01*
X47638095Y65975239D02*
X47590476Y66022858D01*
X47590476Y66022858D02*
X47542857Y66118096D01*
X47542857Y66118096D02*
X47495238Y66308572D01*
X47495238Y66308572D02*
X47495238Y66546667D01*
X47495238Y66546667D02*
X47542857Y66737143D01*
X47542857Y66737143D02*
X47590476Y66832381D01*
X47590476Y66832381D02*
X47638095Y66880000D01*
X47638095Y66880000D02*
X47733333Y66927620D01*
X49019047Y65927620D02*
X48447619Y65927620D01*
X48733333Y65927620D02*
X48733333Y66927620D01*
X48733333Y66927620D02*
X48638095Y66784762D01*
X48638095Y66784762D02*
X48542857Y66689524D01*
X48542857Y66689524D02*
X48447619Y66641905D01*
D11*
%TO.C,SB104*%
X78514285Y8019762D02*
X78371428Y8067381D01*
X78371428Y8067381D02*
X78133333Y8067381D01*
X78133333Y8067381D02*
X78038095Y8019762D01*
X78038095Y8019762D02*
X77990476Y7972143D01*
X77990476Y7972143D02*
X77942857Y7876905D01*
X77942857Y7876905D02*
X77942857Y7781667D01*
X77942857Y7781667D02*
X77990476Y7686429D01*
X77990476Y7686429D02*
X78038095Y7638810D01*
X78038095Y7638810D02*
X78133333Y7591191D01*
X78133333Y7591191D02*
X78323809Y7543572D01*
X78323809Y7543572D02*
X78419047Y7495953D01*
X78419047Y7495953D02*
X78466666Y7448334D01*
X78466666Y7448334D02*
X78514285Y7353096D01*
X78514285Y7353096D02*
X78514285Y7257858D01*
X78514285Y7257858D02*
X78466666Y7162620D01*
X78466666Y7162620D02*
X78419047Y7115000D01*
X78419047Y7115000D02*
X78323809Y7067381D01*
X78323809Y7067381D02*
X78085714Y7067381D01*
X78085714Y7067381D02*
X77942857Y7115000D01*
X77180952Y7543572D02*
X77038095Y7591191D01*
X77038095Y7591191D02*
X76990476Y7638810D01*
X76990476Y7638810D02*
X76942857Y7734048D01*
X76942857Y7734048D02*
X76942857Y7876905D01*
X76942857Y7876905D02*
X76990476Y7972143D01*
X76990476Y7972143D02*
X77038095Y8019762D01*
X77038095Y8019762D02*
X77133333Y8067381D01*
X77133333Y8067381D02*
X77514285Y8067381D01*
X77514285Y8067381D02*
X77514285Y7067381D01*
X77514285Y7067381D02*
X77180952Y7067381D01*
X77180952Y7067381D02*
X77085714Y7115000D01*
X77085714Y7115000D02*
X77038095Y7162620D01*
X77038095Y7162620D02*
X76990476Y7257858D01*
X76990476Y7257858D02*
X76990476Y7353096D01*
X76990476Y7353096D02*
X77038095Y7448334D01*
X77038095Y7448334D02*
X77085714Y7495953D01*
X77085714Y7495953D02*
X77180952Y7543572D01*
X77180952Y7543572D02*
X77514285Y7543572D01*
X75990476Y8067381D02*
X76561904Y8067381D01*
X76276190Y8067381D02*
X76276190Y7067381D01*
X76276190Y7067381D02*
X76371428Y7210239D01*
X76371428Y7210239D02*
X76466666Y7305477D01*
X76466666Y7305477D02*
X76561904Y7353096D01*
X75371428Y7067381D02*
X75276190Y7067381D01*
X75276190Y7067381D02*
X75180952Y7115000D01*
X75180952Y7115000D02*
X75133333Y7162620D01*
X75133333Y7162620D02*
X75085714Y7257858D01*
X75085714Y7257858D02*
X75038095Y7448334D01*
X75038095Y7448334D02*
X75038095Y7686429D01*
X75038095Y7686429D02*
X75085714Y7876905D01*
X75085714Y7876905D02*
X75133333Y7972143D01*
X75133333Y7972143D02*
X75180952Y8019762D01*
X75180952Y8019762D02*
X75276190Y8067381D01*
X75276190Y8067381D02*
X75371428Y8067381D01*
X75371428Y8067381D02*
X75466666Y8019762D01*
X75466666Y8019762D02*
X75514285Y7972143D01*
X75514285Y7972143D02*
X75561904Y7876905D01*
X75561904Y7876905D02*
X75609523Y7686429D01*
X75609523Y7686429D02*
X75609523Y7448334D01*
X75609523Y7448334D02*
X75561904Y7257858D01*
X75561904Y7257858D02*
X75514285Y7162620D01*
X75514285Y7162620D02*
X75466666Y7115000D01*
X75466666Y7115000D02*
X75371428Y7067381D01*
X74180952Y7400715D02*
X74180952Y8067381D01*
X74419047Y7019762D02*
X74657142Y7734048D01*
X74657142Y7734048D02*
X74038095Y7734048D01*
D10*
%TO.C,R103*%
X51967380Y43280953D02*
X51491190Y42947620D01*
X51967380Y42709525D02*
X50967380Y42709525D01*
X50967380Y42709525D02*
X50967380Y43090477D01*
X50967380Y43090477D02*
X51015000Y43185715D01*
X51015000Y43185715D02*
X51062619Y43233334D01*
X51062619Y43233334D02*
X51157857Y43280953D01*
X51157857Y43280953D02*
X51300714Y43280953D01*
X51300714Y43280953D02*
X51395952Y43233334D01*
X51395952Y43233334D02*
X51443571Y43185715D01*
X51443571Y43185715D02*
X51491190Y43090477D01*
X51491190Y43090477D02*
X51491190Y42709525D01*
X51967380Y44233334D02*
X51967380Y43661906D01*
X51967380Y43947620D02*
X50967380Y43947620D01*
X50967380Y43947620D02*
X51110238Y43852382D01*
X51110238Y43852382D02*
X51205476Y43757144D01*
X51205476Y43757144D02*
X51253095Y43661906D01*
X50967380Y44852382D02*
X50967380Y44947620D01*
X50967380Y44947620D02*
X51015000Y45042858D01*
X51015000Y45042858D02*
X51062619Y45090477D01*
X51062619Y45090477D02*
X51157857Y45138096D01*
X51157857Y45138096D02*
X51348333Y45185715D01*
X51348333Y45185715D02*
X51586428Y45185715D01*
X51586428Y45185715D02*
X51776904Y45138096D01*
X51776904Y45138096D02*
X51872142Y45090477D01*
X51872142Y45090477D02*
X51919761Y45042858D01*
X51919761Y45042858D02*
X51967380Y44947620D01*
X51967380Y44947620D02*
X51967380Y44852382D01*
X51967380Y44852382D02*
X51919761Y44757144D01*
X51919761Y44757144D02*
X51872142Y44709525D01*
X51872142Y44709525D02*
X51776904Y44661906D01*
X51776904Y44661906D02*
X51586428Y44614287D01*
X51586428Y44614287D02*
X51348333Y44614287D01*
X51348333Y44614287D02*
X51157857Y44661906D01*
X51157857Y44661906D02*
X51062619Y44709525D01*
X51062619Y44709525D02*
X51015000Y44757144D01*
X51015000Y44757144D02*
X50967380Y44852382D01*
X50967380Y45519049D02*
X50967380Y46138096D01*
X50967380Y46138096D02*
X51348333Y45804763D01*
X51348333Y45804763D02*
X51348333Y45947620D01*
X51348333Y45947620D02*
X51395952Y46042858D01*
X51395952Y46042858D02*
X51443571Y46090477D01*
X51443571Y46090477D02*
X51538809Y46138096D01*
X51538809Y46138096D02*
X51776904Y46138096D01*
X51776904Y46138096D02*
X51872142Y46090477D01*
X51872142Y46090477D02*
X51919761Y46042858D01*
X51919761Y46042858D02*
X51967380Y45947620D01*
X51967380Y45947620D02*
X51967380Y45661906D01*
X51967380Y45661906D02*
X51919761Y45566668D01*
X51919761Y45566668D02*
X51872142Y45519049D01*
%TO.C,R105*%
X47180952Y48432620D02*
X46847619Y48908810D01*
X46609524Y48432620D02*
X46609524Y49432620D01*
X46609524Y49432620D02*
X46990476Y49432620D01*
X46990476Y49432620D02*
X47085714Y49385000D01*
X47085714Y49385000D02*
X47133333Y49337381D01*
X47133333Y49337381D02*
X47180952Y49242143D01*
X47180952Y49242143D02*
X47180952Y49099286D01*
X47180952Y49099286D02*
X47133333Y49004048D01*
X47133333Y49004048D02*
X47085714Y48956429D01*
X47085714Y48956429D02*
X46990476Y48908810D01*
X46990476Y48908810D02*
X46609524Y48908810D01*
X48133333Y48432620D02*
X47561905Y48432620D01*
X47847619Y48432620D02*
X47847619Y49432620D01*
X47847619Y49432620D02*
X47752381Y49289762D01*
X47752381Y49289762D02*
X47657143Y49194524D01*
X47657143Y49194524D02*
X47561905Y49146905D01*
X48752381Y49432620D02*
X48847619Y49432620D01*
X48847619Y49432620D02*
X48942857Y49385000D01*
X48942857Y49385000D02*
X48990476Y49337381D01*
X48990476Y49337381D02*
X49038095Y49242143D01*
X49038095Y49242143D02*
X49085714Y49051667D01*
X49085714Y49051667D02*
X49085714Y48813572D01*
X49085714Y48813572D02*
X49038095Y48623096D01*
X49038095Y48623096D02*
X48990476Y48527858D01*
X48990476Y48527858D02*
X48942857Y48480239D01*
X48942857Y48480239D02*
X48847619Y48432620D01*
X48847619Y48432620D02*
X48752381Y48432620D01*
X48752381Y48432620D02*
X48657143Y48480239D01*
X48657143Y48480239D02*
X48609524Y48527858D01*
X48609524Y48527858D02*
X48561905Y48623096D01*
X48561905Y48623096D02*
X48514286Y48813572D01*
X48514286Y48813572D02*
X48514286Y49051667D01*
X48514286Y49051667D02*
X48561905Y49242143D01*
X48561905Y49242143D02*
X48609524Y49337381D01*
X48609524Y49337381D02*
X48657143Y49385000D01*
X48657143Y49385000D02*
X48752381Y49432620D01*
X49990476Y49432620D02*
X49514286Y49432620D01*
X49514286Y49432620D02*
X49466667Y48956429D01*
X49466667Y48956429D02*
X49514286Y49004048D01*
X49514286Y49004048D02*
X49609524Y49051667D01*
X49609524Y49051667D02*
X49847619Y49051667D01*
X49847619Y49051667D02*
X49942857Y49004048D01*
X49942857Y49004048D02*
X49990476Y48956429D01*
X49990476Y48956429D02*
X50038095Y48861191D01*
X50038095Y48861191D02*
X50038095Y48623096D01*
X50038095Y48623096D02*
X49990476Y48527858D01*
X49990476Y48527858D02*
X49942857Y48480239D01*
X49942857Y48480239D02*
X49847619Y48432620D01*
X49847619Y48432620D02*
X49609524Y48432620D01*
X49609524Y48432620D02*
X49514286Y48480239D01*
X49514286Y48480239D02*
X49466667Y48527858D01*
D11*
%TO.C,SB102*%
X97175714Y58880239D02*
X97318571Y58832620D01*
X97318571Y58832620D02*
X97556666Y58832620D01*
X97556666Y58832620D02*
X97651904Y58880239D01*
X97651904Y58880239D02*
X97699523Y58927858D01*
X97699523Y58927858D02*
X97747142Y59023096D01*
X97747142Y59023096D02*
X97747142Y59118334D01*
X97747142Y59118334D02*
X97699523Y59213572D01*
X97699523Y59213572D02*
X97651904Y59261191D01*
X97651904Y59261191D02*
X97556666Y59308810D01*
X97556666Y59308810D02*
X97366190Y59356429D01*
X97366190Y59356429D02*
X97270952Y59404048D01*
X97270952Y59404048D02*
X97223333Y59451667D01*
X97223333Y59451667D02*
X97175714Y59546905D01*
X97175714Y59546905D02*
X97175714Y59642143D01*
X97175714Y59642143D02*
X97223333Y59737381D01*
X97223333Y59737381D02*
X97270952Y59785000D01*
X97270952Y59785000D02*
X97366190Y59832620D01*
X97366190Y59832620D02*
X97604285Y59832620D01*
X97604285Y59832620D02*
X97747142Y59785000D01*
X98509047Y59356429D02*
X98651904Y59308810D01*
X98651904Y59308810D02*
X98699523Y59261191D01*
X98699523Y59261191D02*
X98747142Y59165953D01*
X98747142Y59165953D02*
X98747142Y59023096D01*
X98747142Y59023096D02*
X98699523Y58927858D01*
X98699523Y58927858D02*
X98651904Y58880239D01*
X98651904Y58880239D02*
X98556666Y58832620D01*
X98556666Y58832620D02*
X98175714Y58832620D01*
X98175714Y58832620D02*
X98175714Y59832620D01*
X98175714Y59832620D02*
X98509047Y59832620D01*
X98509047Y59832620D02*
X98604285Y59785000D01*
X98604285Y59785000D02*
X98651904Y59737381D01*
X98651904Y59737381D02*
X98699523Y59642143D01*
X98699523Y59642143D02*
X98699523Y59546905D01*
X98699523Y59546905D02*
X98651904Y59451667D01*
X98651904Y59451667D02*
X98604285Y59404048D01*
X98604285Y59404048D02*
X98509047Y59356429D01*
X98509047Y59356429D02*
X98175714Y59356429D01*
X99699523Y58832620D02*
X99128095Y58832620D01*
X99413809Y58832620D02*
X99413809Y59832620D01*
X99413809Y59832620D02*
X99318571Y59689762D01*
X99318571Y59689762D02*
X99223333Y59594524D01*
X99223333Y59594524D02*
X99128095Y59546905D01*
X100318571Y59832620D02*
X100413809Y59832620D01*
X100413809Y59832620D02*
X100509047Y59785000D01*
X100509047Y59785000D02*
X100556666Y59737381D01*
X100556666Y59737381D02*
X100604285Y59642143D01*
X100604285Y59642143D02*
X100651904Y59451667D01*
X100651904Y59451667D02*
X100651904Y59213572D01*
X100651904Y59213572D02*
X100604285Y59023096D01*
X100604285Y59023096D02*
X100556666Y58927858D01*
X100556666Y58927858D02*
X100509047Y58880239D01*
X100509047Y58880239D02*
X100413809Y58832620D01*
X100413809Y58832620D02*
X100318571Y58832620D01*
X100318571Y58832620D02*
X100223333Y58880239D01*
X100223333Y58880239D02*
X100175714Y58927858D01*
X100175714Y58927858D02*
X100128095Y59023096D01*
X100128095Y59023096D02*
X100080476Y59213572D01*
X100080476Y59213572D02*
X100080476Y59451667D01*
X100080476Y59451667D02*
X100128095Y59642143D01*
X100128095Y59642143D02*
X100175714Y59737381D01*
X100175714Y59737381D02*
X100223333Y59785000D01*
X100223333Y59785000D02*
X100318571Y59832620D01*
X101032857Y59737381D02*
X101080476Y59785000D01*
X101080476Y59785000D02*
X101175714Y59832620D01*
X101175714Y59832620D02*
X101413809Y59832620D01*
X101413809Y59832620D02*
X101509047Y59785000D01*
X101509047Y59785000D02*
X101556666Y59737381D01*
X101556666Y59737381D02*
X101604285Y59642143D01*
X101604285Y59642143D02*
X101604285Y59546905D01*
X101604285Y59546905D02*
X101556666Y59404048D01*
X101556666Y59404048D02*
X100985238Y58832620D01*
X100985238Y58832620D02*
X101604285Y58832620D01*
D10*
%TO.C,C107*%
X62180952Y42727858D02*
X62133333Y42680239D01*
X62133333Y42680239D02*
X61990476Y42632620D01*
X61990476Y42632620D02*
X61895238Y42632620D01*
X61895238Y42632620D02*
X61752381Y42680239D01*
X61752381Y42680239D02*
X61657143Y42775477D01*
X61657143Y42775477D02*
X61609524Y42870715D01*
X61609524Y42870715D02*
X61561905Y43061191D01*
X61561905Y43061191D02*
X61561905Y43204048D01*
X61561905Y43204048D02*
X61609524Y43394524D01*
X61609524Y43394524D02*
X61657143Y43489762D01*
X61657143Y43489762D02*
X61752381Y43585000D01*
X61752381Y43585000D02*
X61895238Y43632620D01*
X61895238Y43632620D02*
X61990476Y43632620D01*
X61990476Y43632620D02*
X62133333Y43585000D01*
X62133333Y43585000D02*
X62180952Y43537381D01*
X63133333Y42632620D02*
X62561905Y42632620D01*
X62847619Y42632620D02*
X62847619Y43632620D01*
X62847619Y43632620D02*
X62752381Y43489762D01*
X62752381Y43489762D02*
X62657143Y43394524D01*
X62657143Y43394524D02*
X62561905Y43346905D01*
X63752381Y43632620D02*
X63847619Y43632620D01*
X63847619Y43632620D02*
X63942857Y43585000D01*
X63942857Y43585000D02*
X63990476Y43537381D01*
X63990476Y43537381D02*
X64038095Y43442143D01*
X64038095Y43442143D02*
X64085714Y43251667D01*
X64085714Y43251667D02*
X64085714Y43013572D01*
X64085714Y43013572D02*
X64038095Y42823096D01*
X64038095Y42823096D02*
X63990476Y42727858D01*
X63990476Y42727858D02*
X63942857Y42680239D01*
X63942857Y42680239D02*
X63847619Y42632620D01*
X63847619Y42632620D02*
X63752381Y42632620D01*
X63752381Y42632620D02*
X63657143Y42680239D01*
X63657143Y42680239D02*
X63609524Y42727858D01*
X63609524Y42727858D02*
X63561905Y42823096D01*
X63561905Y42823096D02*
X63514286Y43013572D01*
X63514286Y43013572D02*
X63514286Y43251667D01*
X63514286Y43251667D02*
X63561905Y43442143D01*
X63561905Y43442143D02*
X63609524Y43537381D01*
X63609524Y43537381D02*
X63657143Y43585000D01*
X63657143Y43585000D02*
X63752381Y43632620D01*
X64419048Y43632620D02*
X65085714Y43632620D01*
X65085714Y43632620D02*
X64657143Y42632620D01*
%TO.C,RV101*%
X56252380Y17152381D02*
X55776190Y16819048D01*
X56252380Y16580953D02*
X55252380Y16580953D01*
X55252380Y16580953D02*
X55252380Y16961905D01*
X55252380Y16961905D02*
X55300000Y17057143D01*
X55300000Y17057143D02*
X55347619Y17104762D01*
X55347619Y17104762D02*
X55442857Y17152381D01*
X55442857Y17152381D02*
X55585714Y17152381D01*
X55585714Y17152381D02*
X55680952Y17104762D01*
X55680952Y17104762D02*
X55728571Y17057143D01*
X55728571Y17057143D02*
X55776190Y16961905D01*
X55776190Y16961905D02*
X55776190Y16580953D01*
X55252380Y17438096D02*
X56252380Y17771429D01*
X56252380Y17771429D02*
X55252380Y18104762D01*
X56252380Y18961905D02*
X56252380Y18390477D01*
X56252380Y18676191D02*
X55252380Y18676191D01*
X55252380Y18676191D02*
X55395238Y18580953D01*
X55395238Y18580953D02*
X55490476Y18485715D01*
X55490476Y18485715D02*
X55538095Y18390477D01*
X55252380Y19580953D02*
X55252380Y19676191D01*
X55252380Y19676191D02*
X55300000Y19771429D01*
X55300000Y19771429D02*
X55347619Y19819048D01*
X55347619Y19819048D02*
X55442857Y19866667D01*
X55442857Y19866667D02*
X55633333Y19914286D01*
X55633333Y19914286D02*
X55871428Y19914286D01*
X55871428Y19914286D02*
X56061904Y19866667D01*
X56061904Y19866667D02*
X56157142Y19819048D01*
X56157142Y19819048D02*
X56204761Y19771429D01*
X56204761Y19771429D02*
X56252380Y19676191D01*
X56252380Y19676191D02*
X56252380Y19580953D01*
X56252380Y19580953D02*
X56204761Y19485715D01*
X56204761Y19485715D02*
X56157142Y19438096D01*
X56157142Y19438096D02*
X56061904Y19390477D01*
X56061904Y19390477D02*
X55871428Y19342858D01*
X55871428Y19342858D02*
X55633333Y19342858D01*
X55633333Y19342858D02*
X55442857Y19390477D01*
X55442857Y19390477D02*
X55347619Y19438096D01*
X55347619Y19438096D02*
X55300000Y19485715D01*
X55300000Y19485715D02*
X55252380Y19580953D01*
X56252380Y20866667D02*
X56252380Y20295239D01*
X56252380Y20580953D02*
X55252380Y20580953D01*
X55252380Y20580953D02*
X55395238Y20485715D01*
X55395238Y20485715D02*
X55490476Y20390477D01*
X55490476Y20390477D02*
X55538095Y20295239D01*
%TO.C,C103*%
X32480952Y17627858D02*
X32433333Y17580239D01*
X32433333Y17580239D02*
X32290476Y17532620D01*
X32290476Y17532620D02*
X32195238Y17532620D01*
X32195238Y17532620D02*
X32052381Y17580239D01*
X32052381Y17580239D02*
X31957143Y17675477D01*
X31957143Y17675477D02*
X31909524Y17770715D01*
X31909524Y17770715D02*
X31861905Y17961191D01*
X31861905Y17961191D02*
X31861905Y18104048D01*
X31861905Y18104048D02*
X31909524Y18294524D01*
X31909524Y18294524D02*
X31957143Y18389762D01*
X31957143Y18389762D02*
X32052381Y18485000D01*
X32052381Y18485000D02*
X32195238Y18532620D01*
X32195238Y18532620D02*
X32290476Y18532620D01*
X32290476Y18532620D02*
X32433333Y18485000D01*
X32433333Y18485000D02*
X32480952Y18437381D01*
X33433333Y17532620D02*
X32861905Y17532620D01*
X33147619Y17532620D02*
X33147619Y18532620D01*
X33147619Y18532620D02*
X33052381Y18389762D01*
X33052381Y18389762D02*
X32957143Y18294524D01*
X32957143Y18294524D02*
X32861905Y18246905D01*
X34052381Y18532620D02*
X34147619Y18532620D01*
X34147619Y18532620D02*
X34242857Y18485000D01*
X34242857Y18485000D02*
X34290476Y18437381D01*
X34290476Y18437381D02*
X34338095Y18342143D01*
X34338095Y18342143D02*
X34385714Y18151667D01*
X34385714Y18151667D02*
X34385714Y17913572D01*
X34385714Y17913572D02*
X34338095Y17723096D01*
X34338095Y17723096D02*
X34290476Y17627858D01*
X34290476Y17627858D02*
X34242857Y17580239D01*
X34242857Y17580239D02*
X34147619Y17532620D01*
X34147619Y17532620D02*
X34052381Y17532620D01*
X34052381Y17532620D02*
X33957143Y17580239D01*
X33957143Y17580239D02*
X33909524Y17627858D01*
X33909524Y17627858D02*
X33861905Y17723096D01*
X33861905Y17723096D02*
X33814286Y17913572D01*
X33814286Y17913572D02*
X33814286Y18151667D01*
X33814286Y18151667D02*
X33861905Y18342143D01*
X33861905Y18342143D02*
X33909524Y18437381D01*
X33909524Y18437381D02*
X33957143Y18485000D01*
X33957143Y18485000D02*
X34052381Y18532620D01*
X34719048Y18532620D02*
X35338095Y18532620D01*
X35338095Y18532620D02*
X35004762Y18151667D01*
X35004762Y18151667D02*
X35147619Y18151667D01*
X35147619Y18151667D02*
X35242857Y18104048D01*
X35242857Y18104048D02*
X35290476Y18056429D01*
X35290476Y18056429D02*
X35338095Y17961191D01*
X35338095Y17961191D02*
X35338095Y17723096D01*
X35338095Y17723096D02*
X35290476Y17627858D01*
X35290476Y17627858D02*
X35242857Y17580239D01*
X35242857Y17580239D02*
X35147619Y17532620D01*
X35147619Y17532620D02*
X34861905Y17532620D01*
X34861905Y17532620D02*
X34766667Y17580239D01*
X34766667Y17580239D02*
X34719048Y17627858D01*
%TO.C,U102*%
X37785714Y25557620D02*
X37785714Y24748096D01*
X37785714Y24748096D02*
X37833333Y24652858D01*
X37833333Y24652858D02*
X37880952Y24605239D01*
X37880952Y24605239D02*
X37976190Y24557620D01*
X37976190Y24557620D02*
X38166666Y24557620D01*
X38166666Y24557620D02*
X38261904Y24605239D01*
X38261904Y24605239D02*
X38309523Y24652858D01*
X38309523Y24652858D02*
X38357142Y24748096D01*
X38357142Y24748096D02*
X38357142Y25557620D01*
X39357142Y24557620D02*
X38785714Y24557620D01*
X39071428Y24557620D02*
X39071428Y25557620D01*
X39071428Y25557620D02*
X38976190Y25414762D01*
X38976190Y25414762D02*
X38880952Y25319524D01*
X38880952Y25319524D02*
X38785714Y25271905D01*
X39976190Y25557620D02*
X40071428Y25557620D01*
X40071428Y25557620D02*
X40166666Y25510000D01*
X40166666Y25510000D02*
X40214285Y25462381D01*
X40214285Y25462381D02*
X40261904Y25367143D01*
X40261904Y25367143D02*
X40309523Y25176667D01*
X40309523Y25176667D02*
X40309523Y24938572D01*
X40309523Y24938572D02*
X40261904Y24748096D01*
X40261904Y24748096D02*
X40214285Y24652858D01*
X40214285Y24652858D02*
X40166666Y24605239D01*
X40166666Y24605239D02*
X40071428Y24557620D01*
X40071428Y24557620D02*
X39976190Y24557620D01*
X39976190Y24557620D02*
X39880952Y24605239D01*
X39880952Y24605239D02*
X39833333Y24652858D01*
X39833333Y24652858D02*
X39785714Y24748096D01*
X39785714Y24748096D02*
X39738095Y24938572D01*
X39738095Y24938572D02*
X39738095Y25176667D01*
X39738095Y25176667D02*
X39785714Y25367143D01*
X39785714Y25367143D02*
X39833333Y25462381D01*
X39833333Y25462381D02*
X39880952Y25510000D01*
X39880952Y25510000D02*
X39976190Y25557620D01*
X40690476Y25462381D02*
X40738095Y25510000D01*
X40738095Y25510000D02*
X40833333Y25557620D01*
X40833333Y25557620D02*
X41071428Y25557620D01*
X41071428Y25557620D02*
X41166666Y25510000D01*
X41166666Y25510000D02*
X41214285Y25462381D01*
X41214285Y25462381D02*
X41261904Y25367143D01*
X41261904Y25367143D02*
X41261904Y25271905D01*
X41261904Y25271905D02*
X41214285Y25129048D01*
X41214285Y25129048D02*
X40642857Y24557620D01*
X40642857Y24557620D02*
X41261904Y24557620D01*
D11*
%TO.C,UB101*%
X68685714Y60692620D02*
X68685714Y59883096D01*
X68685714Y59883096D02*
X68733333Y59787858D01*
X68733333Y59787858D02*
X68780952Y59740239D01*
X68780952Y59740239D02*
X68876190Y59692620D01*
X68876190Y59692620D02*
X69066666Y59692620D01*
X69066666Y59692620D02*
X69161904Y59740239D01*
X69161904Y59740239D02*
X69209523Y59787858D01*
X69209523Y59787858D02*
X69257142Y59883096D01*
X69257142Y59883096D02*
X69257142Y60692620D01*
X70066666Y60216429D02*
X70209523Y60168810D01*
X70209523Y60168810D02*
X70257142Y60121191D01*
X70257142Y60121191D02*
X70304761Y60025953D01*
X70304761Y60025953D02*
X70304761Y59883096D01*
X70304761Y59883096D02*
X70257142Y59787858D01*
X70257142Y59787858D02*
X70209523Y59740239D01*
X70209523Y59740239D02*
X70114285Y59692620D01*
X70114285Y59692620D02*
X69733333Y59692620D01*
X69733333Y59692620D02*
X69733333Y60692620D01*
X69733333Y60692620D02*
X70066666Y60692620D01*
X70066666Y60692620D02*
X70161904Y60645000D01*
X70161904Y60645000D02*
X70209523Y60597381D01*
X70209523Y60597381D02*
X70257142Y60502143D01*
X70257142Y60502143D02*
X70257142Y60406905D01*
X70257142Y60406905D02*
X70209523Y60311667D01*
X70209523Y60311667D02*
X70161904Y60264048D01*
X70161904Y60264048D02*
X70066666Y60216429D01*
X70066666Y60216429D02*
X69733333Y60216429D01*
X71257142Y59692620D02*
X70685714Y59692620D01*
X70971428Y59692620D02*
X70971428Y60692620D01*
X70971428Y60692620D02*
X70876190Y60549762D01*
X70876190Y60549762D02*
X70780952Y60454524D01*
X70780952Y60454524D02*
X70685714Y60406905D01*
X71876190Y60692620D02*
X71971428Y60692620D01*
X71971428Y60692620D02*
X72066666Y60645000D01*
X72066666Y60645000D02*
X72114285Y60597381D01*
X72114285Y60597381D02*
X72161904Y60502143D01*
X72161904Y60502143D02*
X72209523Y60311667D01*
X72209523Y60311667D02*
X72209523Y60073572D01*
X72209523Y60073572D02*
X72161904Y59883096D01*
X72161904Y59883096D02*
X72114285Y59787858D01*
X72114285Y59787858D02*
X72066666Y59740239D01*
X72066666Y59740239D02*
X71971428Y59692620D01*
X71971428Y59692620D02*
X71876190Y59692620D01*
X71876190Y59692620D02*
X71780952Y59740239D01*
X71780952Y59740239D02*
X71733333Y59787858D01*
X71733333Y59787858D02*
X71685714Y59883096D01*
X71685714Y59883096D02*
X71638095Y60073572D01*
X71638095Y60073572D02*
X71638095Y60311667D01*
X71638095Y60311667D02*
X71685714Y60502143D01*
X71685714Y60502143D02*
X71733333Y60597381D01*
X71733333Y60597381D02*
X71780952Y60645000D01*
X71780952Y60645000D02*
X71876190Y60692620D01*
X73161904Y59692620D02*
X72590476Y59692620D01*
X72876190Y59692620D02*
X72876190Y60692620D01*
X72876190Y60692620D02*
X72780952Y60549762D01*
X72780952Y60549762D02*
X72685714Y60454524D01*
X72685714Y60454524D02*
X72590476Y60406905D01*
D10*
%TO.C,R101*%
X60180952Y63332620D02*
X59847619Y63808810D01*
X59609524Y63332620D02*
X59609524Y64332620D01*
X59609524Y64332620D02*
X59990476Y64332620D01*
X59990476Y64332620D02*
X60085714Y64285000D01*
X60085714Y64285000D02*
X60133333Y64237381D01*
X60133333Y64237381D02*
X60180952Y64142143D01*
X60180952Y64142143D02*
X60180952Y63999286D01*
X60180952Y63999286D02*
X60133333Y63904048D01*
X60133333Y63904048D02*
X60085714Y63856429D01*
X60085714Y63856429D02*
X59990476Y63808810D01*
X59990476Y63808810D02*
X59609524Y63808810D01*
X61133333Y63332620D02*
X60561905Y63332620D01*
X60847619Y63332620D02*
X60847619Y64332620D01*
X60847619Y64332620D02*
X60752381Y64189762D01*
X60752381Y64189762D02*
X60657143Y64094524D01*
X60657143Y64094524D02*
X60561905Y64046905D01*
X61752381Y64332620D02*
X61847619Y64332620D01*
X61847619Y64332620D02*
X61942857Y64285000D01*
X61942857Y64285000D02*
X61990476Y64237381D01*
X61990476Y64237381D02*
X62038095Y64142143D01*
X62038095Y64142143D02*
X62085714Y63951667D01*
X62085714Y63951667D02*
X62085714Y63713572D01*
X62085714Y63713572D02*
X62038095Y63523096D01*
X62038095Y63523096D02*
X61990476Y63427858D01*
X61990476Y63427858D02*
X61942857Y63380239D01*
X61942857Y63380239D02*
X61847619Y63332620D01*
X61847619Y63332620D02*
X61752381Y63332620D01*
X61752381Y63332620D02*
X61657143Y63380239D01*
X61657143Y63380239D02*
X61609524Y63427858D01*
X61609524Y63427858D02*
X61561905Y63523096D01*
X61561905Y63523096D02*
X61514286Y63713572D01*
X61514286Y63713572D02*
X61514286Y63951667D01*
X61514286Y63951667D02*
X61561905Y64142143D01*
X61561905Y64142143D02*
X61609524Y64237381D01*
X61609524Y64237381D02*
X61657143Y64285000D01*
X61657143Y64285000D02*
X61752381Y64332620D01*
X63038095Y63332620D02*
X62466667Y63332620D01*
X62752381Y63332620D02*
X62752381Y64332620D01*
X62752381Y64332620D02*
X62657143Y64189762D01*
X62657143Y64189762D02*
X62561905Y64094524D01*
X62561905Y64094524D02*
X62466667Y64046905D01*
%TO.C,U101*%
X27985714Y67632620D02*
X27985714Y66823096D01*
X27985714Y66823096D02*
X28033333Y66727858D01*
X28033333Y66727858D02*
X28080952Y66680239D01*
X28080952Y66680239D02*
X28176190Y66632620D01*
X28176190Y66632620D02*
X28366666Y66632620D01*
X28366666Y66632620D02*
X28461904Y66680239D01*
X28461904Y66680239D02*
X28509523Y66727858D01*
X28509523Y66727858D02*
X28557142Y66823096D01*
X28557142Y66823096D02*
X28557142Y67632620D01*
X29557142Y66632620D02*
X28985714Y66632620D01*
X29271428Y66632620D02*
X29271428Y67632620D01*
X29271428Y67632620D02*
X29176190Y67489762D01*
X29176190Y67489762D02*
X29080952Y67394524D01*
X29080952Y67394524D02*
X28985714Y67346905D01*
X30176190Y67632620D02*
X30271428Y67632620D01*
X30271428Y67632620D02*
X30366666Y67585000D01*
X30366666Y67585000D02*
X30414285Y67537381D01*
X30414285Y67537381D02*
X30461904Y67442143D01*
X30461904Y67442143D02*
X30509523Y67251667D01*
X30509523Y67251667D02*
X30509523Y67013572D01*
X30509523Y67013572D02*
X30461904Y66823096D01*
X30461904Y66823096D02*
X30414285Y66727858D01*
X30414285Y66727858D02*
X30366666Y66680239D01*
X30366666Y66680239D02*
X30271428Y66632620D01*
X30271428Y66632620D02*
X30176190Y66632620D01*
X30176190Y66632620D02*
X30080952Y66680239D01*
X30080952Y66680239D02*
X30033333Y66727858D01*
X30033333Y66727858D02*
X29985714Y66823096D01*
X29985714Y66823096D02*
X29938095Y67013572D01*
X29938095Y67013572D02*
X29938095Y67251667D01*
X29938095Y67251667D02*
X29985714Y67442143D01*
X29985714Y67442143D02*
X30033333Y67537381D01*
X30033333Y67537381D02*
X30080952Y67585000D01*
X30080952Y67585000D02*
X30176190Y67632620D01*
X31461904Y66632620D02*
X30890476Y66632620D01*
X31176190Y66632620D02*
X31176190Y67632620D01*
X31176190Y67632620D02*
X31080952Y67489762D01*
X31080952Y67489762D02*
X30985714Y67394524D01*
X30985714Y67394524D02*
X30890476Y67346905D01*
%TO.C,C101*%
X26972142Y37180953D02*
X27019761Y37133334D01*
X27019761Y37133334D02*
X27067380Y36990477D01*
X27067380Y36990477D02*
X27067380Y36895239D01*
X27067380Y36895239D02*
X27019761Y36752382D01*
X27019761Y36752382D02*
X26924523Y36657144D01*
X26924523Y36657144D02*
X26829285Y36609525D01*
X26829285Y36609525D02*
X26638809Y36561906D01*
X26638809Y36561906D02*
X26495952Y36561906D01*
X26495952Y36561906D02*
X26305476Y36609525D01*
X26305476Y36609525D02*
X26210238Y36657144D01*
X26210238Y36657144D02*
X26115000Y36752382D01*
X26115000Y36752382D02*
X26067380Y36895239D01*
X26067380Y36895239D02*
X26067380Y36990477D01*
X26067380Y36990477D02*
X26115000Y37133334D01*
X26115000Y37133334D02*
X26162619Y37180953D01*
X27067380Y38133334D02*
X27067380Y37561906D01*
X27067380Y37847620D02*
X26067380Y37847620D01*
X26067380Y37847620D02*
X26210238Y37752382D01*
X26210238Y37752382D02*
X26305476Y37657144D01*
X26305476Y37657144D02*
X26353095Y37561906D01*
X26067380Y38752382D02*
X26067380Y38847620D01*
X26067380Y38847620D02*
X26115000Y38942858D01*
X26115000Y38942858D02*
X26162619Y38990477D01*
X26162619Y38990477D02*
X26257857Y39038096D01*
X26257857Y39038096D02*
X26448333Y39085715D01*
X26448333Y39085715D02*
X26686428Y39085715D01*
X26686428Y39085715D02*
X26876904Y39038096D01*
X26876904Y39038096D02*
X26972142Y38990477D01*
X26972142Y38990477D02*
X27019761Y38942858D01*
X27019761Y38942858D02*
X27067380Y38847620D01*
X27067380Y38847620D02*
X27067380Y38752382D01*
X27067380Y38752382D02*
X27019761Y38657144D01*
X27019761Y38657144D02*
X26972142Y38609525D01*
X26972142Y38609525D02*
X26876904Y38561906D01*
X26876904Y38561906D02*
X26686428Y38514287D01*
X26686428Y38514287D02*
X26448333Y38514287D01*
X26448333Y38514287D02*
X26257857Y38561906D01*
X26257857Y38561906D02*
X26162619Y38609525D01*
X26162619Y38609525D02*
X26115000Y38657144D01*
X26115000Y38657144D02*
X26067380Y38752382D01*
X27067380Y40038096D02*
X27067380Y39466668D01*
X27067380Y39752382D02*
X26067380Y39752382D01*
X26067380Y39752382D02*
X26210238Y39657144D01*
X26210238Y39657144D02*
X26305476Y39561906D01*
X26305476Y39561906D02*
X26353095Y39466668D01*
%TO.C,J102*%
X31914285Y16932620D02*
X31914285Y16218334D01*
X31914285Y16218334D02*
X31866666Y16075477D01*
X31866666Y16075477D02*
X31771428Y15980239D01*
X31771428Y15980239D02*
X31628571Y15932620D01*
X31628571Y15932620D02*
X31533333Y15932620D01*
X32914285Y15932620D02*
X32342857Y15932620D01*
X32628571Y15932620D02*
X32628571Y16932620D01*
X32628571Y16932620D02*
X32533333Y16789762D01*
X32533333Y16789762D02*
X32438095Y16694524D01*
X32438095Y16694524D02*
X32342857Y16646905D01*
X33533333Y16932620D02*
X33628571Y16932620D01*
X33628571Y16932620D02*
X33723809Y16885000D01*
X33723809Y16885000D02*
X33771428Y16837381D01*
X33771428Y16837381D02*
X33819047Y16742143D01*
X33819047Y16742143D02*
X33866666Y16551667D01*
X33866666Y16551667D02*
X33866666Y16313572D01*
X33866666Y16313572D02*
X33819047Y16123096D01*
X33819047Y16123096D02*
X33771428Y16027858D01*
X33771428Y16027858D02*
X33723809Y15980239D01*
X33723809Y15980239D02*
X33628571Y15932620D01*
X33628571Y15932620D02*
X33533333Y15932620D01*
X33533333Y15932620D02*
X33438095Y15980239D01*
X33438095Y15980239D02*
X33390476Y16027858D01*
X33390476Y16027858D02*
X33342857Y16123096D01*
X33342857Y16123096D02*
X33295238Y16313572D01*
X33295238Y16313572D02*
X33295238Y16551667D01*
X33295238Y16551667D02*
X33342857Y16742143D01*
X33342857Y16742143D02*
X33390476Y16837381D01*
X33390476Y16837381D02*
X33438095Y16885000D01*
X33438095Y16885000D02*
X33533333Y16932620D01*
X34247619Y16837381D02*
X34295238Y16885000D01*
X34295238Y16885000D02*
X34390476Y16932620D01*
X34390476Y16932620D02*
X34628571Y16932620D01*
X34628571Y16932620D02*
X34723809Y16885000D01*
X34723809Y16885000D02*
X34771428Y16837381D01*
X34771428Y16837381D02*
X34819047Y16742143D01*
X34819047Y16742143D02*
X34819047Y16646905D01*
X34819047Y16646905D02*
X34771428Y16504048D01*
X34771428Y16504048D02*
X34200000Y15932620D01*
X34200000Y15932620D02*
X34819047Y15932620D01*
D11*
%TO.C,SB101*%
X84119271Y41782601D02*
X84071652Y41639744D01*
X84071652Y41639744D02*
X84071652Y41401649D01*
X84071652Y41401649D02*
X84119271Y41306411D01*
X84119271Y41306411D02*
X84166890Y41258792D01*
X84166890Y41258792D02*
X84262128Y41211173D01*
X84262128Y41211173D02*
X84357366Y41211173D01*
X84357366Y41211173D02*
X84452604Y41258792D01*
X84452604Y41258792D02*
X84500223Y41306411D01*
X84500223Y41306411D02*
X84547842Y41401649D01*
X84547842Y41401649D02*
X84595461Y41592125D01*
X84595461Y41592125D02*
X84643080Y41687363D01*
X84643080Y41687363D02*
X84690699Y41734982D01*
X84690699Y41734982D02*
X84785937Y41782601D01*
X84785937Y41782601D02*
X84881175Y41782601D01*
X84881175Y41782601D02*
X84976413Y41734982D01*
X84976413Y41734982D02*
X85024033Y41687363D01*
X85024033Y41687363D02*
X85071652Y41592125D01*
X85071652Y41592125D02*
X85071652Y41354030D01*
X85071652Y41354030D02*
X85024033Y41211173D01*
X84595461Y40449268D02*
X84547842Y40306411D01*
X84547842Y40306411D02*
X84500223Y40258792D01*
X84500223Y40258792D02*
X84404985Y40211173D01*
X84404985Y40211173D02*
X84262128Y40211173D01*
X84262128Y40211173D02*
X84166890Y40258792D01*
X84166890Y40258792D02*
X84119271Y40306411D01*
X84119271Y40306411D02*
X84071652Y40401649D01*
X84071652Y40401649D02*
X84071652Y40782601D01*
X84071652Y40782601D02*
X85071652Y40782601D01*
X85071652Y40782601D02*
X85071652Y40449268D01*
X85071652Y40449268D02*
X85024033Y40354030D01*
X85024033Y40354030D02*
X84976413Y40306411D01*
X84976413Y40306411D02*
X84881175Y40258792D01*
X84881175Y40258792D02*
X84785937Y40258792D01*
X84785937Y40258792D02*
X84690699Y40306411D01*
X84690699Y40306411D02*
X84643080Y40354030D01*
X84643080Y40354030D02*
X84595461Y40449268D01*
X84595461Y40449268D02*
X84595461Y40782601D01*
X84071652Y39258792D02*
X84071652Y39830220D01*
X84071652Y39544506D02*
X85071652Y39544506D01*
X85071652Y39544506D02*
X84928794Y39639744D01*
X84928794Y39639744D02*
X84833556Y39734982D01*
X84833556Y39734982D02*
X84785937Y39830220D01*
X85071652Y38639744D02*
X85071652Y38544506D01*
X85071652Y38544506D02*
X85024033Y38449268D01*
X85024033Y38449268D02*
X84976413Y38401649D01*
X84976413Y38401649D02*
X84881175Y38354030D01*
X84881175Y38354030D02*
X84690699Y38306411D01*
X84690699Y38306411D02*
X84452604Y38306411D01*
X84452604Y38306411D02*
X84262128Y38354030D01*
X84262128Y38354030D02*
X84166890Y38401649D01*
X84166890Y38401649D02*
X84119271Y38449268D01*
X84119271Y38449268D02*
X84071652Y38544506D01*
X84071652Y38544506D02*
X84071652Y38639744D01*
X84071652Y38639744D02*
X84119271Y38734982D01*
X84119271Y38734982D02*
X84166890Y38782601D01*
X84166890Y38782601D02*
X84262128Y38830220D01*
X84262128Y38830220D02*
X84452604Y38877839D01*
X84452604Y38877839D02*
X84690699Y38877839D01*
X84690699Y38877839D02*
X84881175Y38830220D01*
X84881175Y38830220D02*
X84976413Y38782601D01*
X84976413Y38782601D02*
X85024033Y38734982D01*
X85024033Y38734982D02*
X85071652Y38639744D01*
X84071652Y37354030D02*
X84071652Y37925458D01*
X84071652Y37639744D02*
X85071652Y37639744D01*
X85071652Y37639744D02*
X84928794Y37734982D01*
X84928794Y37734982D02*
X84833556Y37830220D01*
X84833556Y37830220D02*
X84785937Y37925458D01*
D10*
%TO.C,JP101*%
X43020339Y27207771D02*
X43734625Y27207771D01*
X43734625Y27207771D02*
X43877482Y27160152D01*
X43877482Y27160152D02*
X43972720Y27064914D01*
X43972720Y27064914D02*
X44020339Y26922057D01*
X44020339Y26922057D02*
X44020339Y26826819D01*
X44020339Y27683962D02*
X43020339Y27683962D01*
X43020339Y27683962D02*
X43020339Y28064914D01*
X43020339Y28064914D02*
X43067959Y28160152D01*
X43067959Y28160152D02*
X43115578Y28207771D01*
X43115578Y28207771D02*
X43210816Y28255390D01*
X43210816Y28255390D02*
X43353673Y28255390D01*
X43353673Y28255390D02*
X43448911Y28207771D01*
X43448911Y28207771D02*
X43496530Y28160152D01*
X43496530Y28160152D02*
X43544149Y28064914D01*
X43544149Y28064914D02*
X43544149Y27683962D01*
X44020339Y29207771D02*
X44020339Y28636343D01*
X44020339Y28922057D02*
X43020339Y28922057D01*
X43020339Y28922057D02*
X43163197Y28826819D01*
X43163197Y28826819D02*
X43258435Y28731581D01*
X43258435Y28731581D02*
X43306054Y28636343D01*
X43020339Y29826819D02*
X43020339Y29922057D01*
X43020339Y29922057D02*
X43067959Y30017295D01*
X43067959Y30017295D02*
X43115578Y30064914D01*
X43115578Y30064914D02*
X43210816Y30112533D01*
X43210816Y30112533D02*
X43401292Y30160152D01*
X43401292Y30160152D02*
X43639387Y30160152D01*
X43639387Y30160152D02*
X43829863Y30112533D01*
X43829863Y30112533D02*
X43925101Y30064914D01*
X43925101Y30064914D02*
X43972720Y30017295D01*
X43972720Y30017295D02*
X44020339Y29922057D01*
X44020339Y29922057D02*
X44020339Y29826819D01*
X44020339Y29826819D02*
X43972720Y29731581D01*
X43972720Y29731581D02*
X43925101Y29683962D01*
X43925101Y29683962D02*
X43829863Y29636343D01*
X43829863Y29636343D02*
X43639387Y29588724D01*
X43639387Y29588724D02*
X43401292Y29588724D01*
X43401292Y29588724D02*
X43210816Y29636343D01*
X43210816Y29636343D02*
X43115578Y29683962D01*
X43115578Y29683962D02*
X43067959Y29731581D01*
X43067959Y29731581D02*
X43020339Y29826819D01*
X44020339Y31112533D02*
X44020339Y30541105D01*
X44020339Y30826819D02*
X43020339Y30826819D01*
X43020339Y30826819D02*
X43163197Y30731581D01*
X43163197Y30731581D02*
X43258435Y30636343D01*
X43258435Y30636343D02*
X43306054Y30541105D01*
X45820339Y26679200D02*
X45820339Y26107772D01*
X45820339Y26393486D02*
X44820339Y26393486D01*
X44820339Y26393486D02*
X44963197Y26298248D01*
X44963197Y26298248D02*
X45058435Y26203010D01*
X45058435Y26203010D02*
X45106054Y26107772D01*
X44820339Y31260153D02*
X44820339Y31879200D01*
X44820339Y31879200D02*
X45201292Y31545867D01*
X45201292Y31545867D02*
X45201292Y31688724D01*
X45201292Y31688724D02*
X45248911Y31783962D01*
X45248911Y31783962D02*
X45296530Y31831581D01*
X45296530Y31831581D02*
X45391768Y31879200D01*
X45391768Y31879200D02*
X45629863Y31879200D01*
X45629863Y31879200D02*
X45725101Y31831581D01*
X45725101Y31831581D02*
X45772720Y31783962D01*
X45772720Y31783962D02*
X45820339Y31688724D01*
X45820339Y31688724D02*
X45820339Y31403010D01*
X45820339Y31403010D02*
X45772720Y31307772D01*
X45772720Y31307772D02*
X45725101Y31260153D01*
%TO.C,R107*%
X65180952Y62082620D02*
X64847619Y62558810D01*
X64609524Y62082620D02*
X64609524Y63082620D01*
X64609524Y63082620D02*
X64990476Y63082620D01*
X64990476Y63082620D02*
X65085714Y63035000D01*
X65085714Y63035000D02*
X65133333Y62987381D01*
X65133333Y62987381D02*
X65180952Y62892143D01*
X65180952Y62892143D02*
X65180952Y62749286D01*
X65180952Y62749286D02*
X65133333Y62654048D01*
X65133333Y62654048D02*
X65085714Y62606429D01*
X65085714Y62606429D02*
X64990476Y62558810D01*
X64990476Y62558810D02*
X64609524Y62558810D01*
X66133333Y62082620D02*
X65561905Y62082620D01*
X65847619Y62082620D02*
X65847619Y63082620D01*
X65847619Y63082620D02*
X65752381Y62939762D01*
X65752381Y62939762D02*
X65657143Y62844524D01*
X65657143Y62844524D02*
X65561905Y62796905D01*
X66752381Y63082620D02*
X66847619Y63082620D01*
X66847619Y63082620D02*
X66942857Y63035000D01*
X66942857Y63035000D02*
X66990476Y62987381D01*
X66990476Y62987381D02*
X67038095Y62892143D01*
X67038095Y62892143D02*
X67085714Y62701667D01*
X67085714Y62701667D02*
X67085714Y62463572D01*
X67085714Y62463572D02*
X67038095Y62273096D01*
X67038095Y62273096D02*
X66990476Y62177858D01*
X66990476Y62177858D02*
X66942857Y62130239D01*
X66942857Y62130239D02*
X66847619Y62082620D01*
X66847619Y62082620D02*
X66752381Y62082620D01*
X66752381Y62082620D02*
X66657143Y62130239D01*
X66657143Y62130239D02*
X66609524Y62177858D01*
X66609524Y62177858D02*
X66561905Y62273096D01*
X66561905Y62273096D02*
X66514286Y62463572D01*
X66514286Y62463572D02*
X66514286Y62701667D01*
X66514286Y62701667D02*
X66561905Y62892143D01*
X66561905Y62892143D02*
X66609524Y62987381D01*
X66609524Y62987381D02*
X66657143Y63035000D01*
X66657143Y63035000D02*
X66752381Y63082620D01*
X67419048Y63082620D02*
X68085714Y63082620D01*
X68085714Y63082620D02*
X67657143Y62082620D01*
%TO.C,C106*%
X46472142Y16180953D02*
X46519761Y16133334D01*
X46519761Y16133334D02*
X46567380Y15990477D01*
X46567380Y15990477D02*
X46567380Y15895239D01*
X46567380Y15895239D02*
X46519761Y15752382D01*
X46519761Y15752382D02*
X46424523Y15657144D01*
X46424523Y15657144D02*
X46329285Y15609525D01*
X46329285Y15609525D02*
X46138809Y15561906D01*
X46138809Y15561906D02*
X45995952Y15561906D01*
X45995952Y15561906D02*
X45805476Y15609525D01*
X45805476Y15609525D02*
X45710238Y15657144D01*
X45710238Y15657144D02*
X45615000Y15752382D01*
X45615000Y15752382D02*
X45567380Y15895239D01*
X45567380Y15895239D02*
X45567380Y15990477D01*
X45567380Y15990477D02*
X45615000Y16133334D01*
X45615000Y16133334D02*
X45662619Y16180953D01*
X46567380Y17133334D02*
X46567380Y16561906D01*
X46567380Y16847620D02*
X45567380Y16847620D01*
X45567380Y16847620D02*
X45710238Y16752382D01*
X45710238Y16752382D02*
X45805476Y16657144D01*
X45805476Y16657144D02*
X45853095Y16561906D01*
X45567380Y17752382D02*
X45567380Y17847620D01*
X45567380Y17847620D02*
X45615000Y17942858D01*
X45615000Y17942858D02*
X45662619Y17990477D01*
X45662619Y17990477D02*
X45757857Y18038096D01*
X45757857Y18038096D02*
X45948333Y18085715D01*
X45948333Y18085715D02*
X46186428Y18085715D01*
X46186428Y18085715D02*
X46376904Y18038096D01*
X46376904Y18038096D02*
X46472142Y17990477D01*
X46472142Y17990477D02*
X46519761Y17942858D01*
X46519761Y17942858D02*
X46567380Y17847620D01*
X46567380Y17847620D02*
X46567380Y17752382D01*
X46567380Y17752382D02*
X46519761Y17657144D01*
X46519761Y17657144D02*
X46472142Y17609525D01*
X46472142Y17609525D02*
X46376904Y17561906D01*
X46376904Y17561906D02*
X46186428Y17514287D01*
X46186428Y17514287D02*
X45948333Y17514287D01*
X45948333Y17514287D02*
X45757857Y17561906D01*
X45757857Y17561906D02*
X45662619Y17609525D01*
X45662619Y17609525D02*
X45615000Y17657144D01*
X45615000Y17657144D02*
X45567380Y17752382D01*
X45567380Y18942858D02*
X45567380Y18752382D01*
X45567380Y18752382D02*
X45615000Y18657144D01*
X45615000Y18657144D02*
X45662619Y18609525D01*
X45662619Y18609525D02*
X45805476Y18514287D01*
X45805476Y18514287D02*
X45995952Y18466668D01*
X45995952Y18466668D02*
X46376904Y18466668D01*
X46376904Y18466668D02*
X46472142Y18514287D01*
X46472142Y18514287D02*
X46519761Y18561906D01*
X46519761Y18561906D02*
X46567380Y18657144D01*
X46567380Y18657144D02*
X46567380Y18847620D01*
X46567380Y18847620D02*
X46519761Y18942858D01*
X46519761Y18942858D02*
X46472142Y18990477D01*
X46472142Y18990477D02*
X46376904Y19038096D01*
X46376904Y19038096D02*
X46138809Y19038096D01*
X46138809Y19038096D02*
X46043571Y18990477D01*
X46043571Y18990477D02*
X45995952Y18942858D01*
X45995952Y18942858D02*
X45948333Y18847620D01*
X45948333Y18847620D02*
X45948333Y18657144D01*
X45948333Y18657144D02*
X45995952Y18561906D01*
X45995952Y18561906D02*
X46043571Y18514287D01*
X46043571Y18514287D02*
X46138809Y18466668D01*
%TO.C,R102*%
X25567380Y58780953D02*
X25091190Y58447620D01*
X25567380Y58209525D02*
X24567380Y58209525D01*
X24567380Y58209525D02*
X24567380Y58590477D01*
X24567380Y58590477D02*
X24615000Y58685715D01*
X24615000Y58685715D02*
X24662619Y58733334D01*
X24662619Y58733334D02*
X24757857Y58780953D01*
X24757857Y58780953D02*
X24900714Y58780953D01*
X24900714Y58780953D02*
X24995952Y58733334D01*
X24995952Y58733334D02*
X25043571Y58685715D01*
X25043571Y58685715D02*
X25091190Y58590477D01*
X25091190Y58590477D02*
X25091190Y58209525D01*
X25567380Y59733334D02*
X25567380Y59161906D01*
X25567380Y59447620D02*
X24567380Y59447620D01*
X24567380Y59447620D02*
X24710238Y59352382D01*
X24710238Y59352382D02*
X24805476Y59257144D01*
X24805476Y59257144D02*
X24853095Y59161906D01*
X24567380Y60352382D02*
X24567380Y60447620D01*
X24567380Y60447620D02*
X24615000Y60542858D01*
X24615000Y60542858D02*
X24662619Y60590477D01*
X24662619Y60590477D02*
X24757857Y60638096D01*
X24757857Y60638096D02*
X24948333Y60685715D01*
X24948333Y60685715D02*
X25186428Y60685715D01*
X25186428Y60685715D02*
X25376904Y60638096D01*
X25376904Y60638096D02*
X25472142Y60590477D01*
X25472142Y60590477D02*
X25519761Y60542858D01*
X25519761Y60542858D02*
X25567380Y60447620D01*
X25567380Y60447620D02*
X25567380Y60352382D01*
X25567380Y60352382D02*
X25519761Y60257144D01*
X25519761Y60257144D02*
X25472142Y60209525D01*
X25472142Y60209525D02*
X25376904Y60161906D01*
X25376904Y60161906D02*
X25186428Y60114287D01*
X25186428Y60114287D02*
X24948333Y60114287D01*
X24948333Y60114287D02*
X24757857Y60161906D01*
X24757857Y60161906D02*
X24662619Y60209525D01*
X24662619Y60209525D02*
X24615000Y60257144D01*
X24615000Y60257144D02*
X24567380Y60352382D01*
X24662619Y61066668D02*
X24615000Y61114287D01*
X24615000Y61114287D02*
X24567380Y61209525D01*
X24567380Y61209525D02*
X24567380Y61447620D01*
X24567380Y61447620D02*
X24615000Y61542858D01*
X24615000Y61542858D02*
X24662619Y61590477D01*
X24662619Y61590477D02*
X24757857Y61638096D01*
X24757857Y61638096D02*
X24853095Y61638096D01*
X24853095Y61638096D02*
X24995952Y61590477D01*
X24995952Y61590477D02*
X25567380Y61019049D01*
X25567380Y61019049D02*
X25567380Y61638096D01*
%TO.C,C105*%
X54812142Y19443453D02*
X54859761Y19395834D01*
X54859761Y19395834D02*
X54907380Y19252977D01*
X54907380Y19252977D02*
X54907380Y19157739D01*
X54907380Y19157739D02*
X54859761Y19014882D01*
X54859761Y19014882D02*
X54764523Y18919644D01*
X54764523Y18919644D02*
X54669285Y18872025D01*
X54669285Y18872025D02*
X54478809Y18824406D01*
X54478809Y18824406D02*
X54335952Y18824406D01*
X54335952Y18824406D02*
X54145476Y18872025D01*
X54145476Y18872025D02*
X54050238Y18919644D01*
X54050238Y18919644D02*
X53955000Y19014882D01*
X53955000Y19014882D02*
X53907380Y19157739D01*
X53907380Y19157739D02*
X53907380Y19252977D01*
X53907380Y19252977D02*
X53955000Y19395834D01*
X53955000Y19395834D02*
X54002619Y19443453D01*
X54907380Y20395834D02*
X54907380Y19824406D01*
X54907380Y20110120D02*
X53907380Y20110120D01*
X53907380Y20110120D02*
X54050238Y20014882D01*
X54050238Y20014882D02*
X54145476Y19919644D01*
X54145476Y19919644D02*
X54193095Y19824406D01*
X53907380Y21014882D02*
X53907380Y21110120D01*
X53907380Y21110120D02*
X53955000Y21205358D01*
X53955000Y21205358D02*
X54002619Y21252977D01*
X54002619Y21252977D02*
X54097857Y21300596D01*
X54097857Y21300596D02*
X54288333Y21348215D01*
X54288333Y21348215D02*
X54526428Y21348215D01*
X54526428Y21348215D02*
X54716904Y21300596D01*
X54716904Y21300596D02*
X54812142Y21252977D01*
X54812142Y21252977D02*
X54859761Y21205358D01*
X54859761Y21205358D02*
X54907380Y21110120D01*
X54907380Y21110120D02*
X54907380Y21014882D01*
X54907380Y21014882D02*
X54859761Y20919644D01*
X54859761Y20919644D02*
X54812142Y20872025D01*
X54812142Y20872025D02*
X54716904Y20824406D01*
X54716904Y20824406D02*
X54526428Y20776787D01*
X54526428Y20776787D02*
X54288333Y20776787D01*
X54288333Y20776787D02*
X54097857Y20824406D01*
X54097857Y20824406D02*
X54002619Y20872025D01*
X54002619Y20872025D02*
X53955000Y20919644D01*
X53955000Y20919644D02*
X53907380Y21014882D01*
X53907380Y22252977D02*
X53907380Y21776787D01*
X53907380Y21776787D02*
X54383571Y21729168D01*
X54383571Y21729168D02*
X54335952Y21776787D01*
X54335952Y21776787D02*
X54288333Y21872025D01*
X54288333Y21872025D02*
X54288333Y22110120D01*
X54288333Y22110120D02*
X54335952Y22205358D01*
X54335952Y22205358D02*
X54383571Y22252977D01*
X54383571Y22252977D02*
X54478809Y22300596D01*
X54478809Y22300596D02*
X54716904Y22300596D01*
X54716904Y22300596D02*
X54812142Y22252977D01*
X54812142Y22252977D02*
X54859761Y22205358D01*
X54859761Y22205358D02*
X54907380Y22110120D01*
X54907380Y22110120D02*
X54907380Y21872025D01*
X54907380Y21872025D02*
X54859761Y21776787D01*
X54859761Y21776787D02*
X54812142Y21729168D01*
D12*
%TO.C,R104*%
X25572936Y53935000D02*
X26027064Y53935000D01*
X25572936Y52465000D02*
X26027064Y52465000D01*
%TO.C,R106*%
X48527064Y44565000D02*
X48072936Y44565000D01*
X48527064Y46035000D02*
X48072936Y46035000D01*
D11*
%TO.C,SW101*%
X9015000Y53255000D02*
X21885000Y53255000D01*
X21885000Y53255000D02*
X21885000Y68935000D01*
X21885000Y68935000D02*
X9015000Y68935000D01*
X9015000Y68935000D02*
X9015000Y53255000D01*
D12*
%TO.C,C104*%
X41861252Y16665000D02*
X41338748Y16665000D01*
X41861252Y18135000D02*
X41338748Y18135000D01*
D11*
%TO.C,SB103*%
X7136816Y9790524D02*
X22336816Y9790524D01*
X22336816Y9790524D02*
X22336816Y48870524D01*
X22336816Y48870524D02*
X7136816Y48870524D01*
X7136816Y48870524D02*
X7136816Y9790524D01*
%TO.C,SW102*%
X52491816Y58315524D02*
X68171816Y58315524D01*
X68171816Y58315524D02*
X68171816Y45445524D01*
X68171816Y45445524D02*
X52491816Y45445524D01*
X52491816Y45445524D02*
X52491816Y58315524D01*
D12*
%TO.C,C102*%
X25235000Y42423752D02*
X25235000Y41901248D01*
X23765000Y42423752D02*
X23765000Y41901248D01*
%TO.C,U103*%
X47290000Y22255000D02*
X47290000Y18655000D01*
X51740000Y20455000D02*
G75*
G03*
X47301522Y22293478I-2600000J0D01*
G01*
X47301522Y18616522D02*
G75*
G03*
X51740000Y20455000I1838478J1838478D01*
G01*
D11*
%TO.C,SB105*%
X85630000Y8700000D02*
X106030000Y8700000D01*
X106030000Y8700000D02*
X106030000Y42470000D01*
X106030000Y42470000D02*
X85630000Y42470000D01*
X85630000Y42470000D02*
X85630000Y8700000D01*
D12*
%TO.C,J101*%
X46290000Y65360000D02*
X47400000Y65360000D01*
X46290000Y64600000D02*
X46290000Y65360000D01*
X46290000Y63840000D02*
X46290000Y62635000D01*
X46290000Y63840000D02*
X46836529Y63840000D01*
X46290000Y62635000D02*
X47092470Y62635000D01*
X47707530Y62635000D02*
X48510000Y62635000D01*
X47963471Y63840000D02*
X48510000Y63840000D01*
X48510000Y63840000D02*
X48510000Y62635000D01*
D11*
%TO.C,SB104*%
X84200000Y14300000D02*
G75*
G03*
X84200000Y14300000I-8100000J0D01*
G01*
D12*
%TO.C,R103*%
X51971816Y48457588D02*
X51971816Y48003460D01*
X50501816Y48457588D02*
X50501816Y48003460D01*
%TO.C,R105*%
X48072936Y48035000D02*
X48527064Y48035000D01*
X48072936Y46565000D02*
X48527064Y46565000D01*
D11*
%TO.C,SB102*%
X97502759Y58530000D02*
X107662759Y58530000D01*
X107662759Y58530000D02*
X107662759Y45730000D01*
X107662759Y45730000D02*
X97502759Y45730000D01*
X97502759Y45730000D02*
X97502759Y58530000D01*
D12*
%TO.C,C107*%
X59029207Y43928485D02*
X59551711Y43928485D01*
X59029207Y42458485D02*
X59551711Y42458485D01*
%TO.C,RV101*%
X57015000Y13815000D02*
X66785000Y13815000D01*
X57015000Y13815000D02*
X57015000Y23585000D01*
X66785000Y13815000D02*
X66785000Y23585000D01*
X57015000Y23585000D02*
X66785000Y23585000D01*
%TO.C,C103*%
X37438748Y18035000D02*
X37961252Y18035000D01*
X37438748Y16565000D02*
X37961252Y16565000D01*
%TO.C,U102*%
X34380000Y23925000D02*
X34380000Y19284000D01*
X34380000Y23925000D02*
X44620000Y23925000D01*
X34380000Y22415000D02*
X44620000Y22415000D01*
X34380000Y19284000D02*
X44620000Y19284000D01*
X37650000Y23925000D02*
X37650000Y22415000D01*
X41351000Y23925000D02*
X41351000Y22415000D01*
X44620000Y23925000D02*
X44620000Y19284000D01*
D11*
%TO.C,UB101*%
X68900000Y59380000D02*
X96100000Y59380000D01*
X96100000Y59380000D02*
X96100000Y42970000D01*
X96100000Y42970000D02*
X68900000Y42970000D01*
X68900000Y42970000D02*
X68900000Y59380000D01*
D12*
%TO.C,R101*%
X59750000Y62950000D02*
X62800000Y62950000D01*
X59750000Y58650000D02*
X62800000Y58650000D01*
X59771766Y62965525D02*
G75*
G03*
X59750000Y58650001I1528234J-2165525D01*
G01*
X62844513Y58681751D02*
G75*
G03*
X62800000Y62950000I-1544513J2118249D01*
G01*
D13*
%TO.C,U101*%
X28500000Y66300000D02*
X28500000Y58300000D01*
X28500000Y66300000D02*
X45500000Y66300000D01*
X28500000Y42300000D02*
X28500000Y41300000D01*
X28500000Y41300000D02*
X31000000Y41300000D01*
X45500000Y66300000D02*
X45500000Y58300000D01*
X45500000Y41300000D02*
X43000000Y41300000D01*
X45500000Y41300000D02*
X45500000Y42300000D01*
D12*
%TO.C,C101*%
X27335000Y42423752D02*
X27335000Y41901248D01*
X25865000Y42423752D02*
X25865000Y41901248D01*
%TO.C,J102*%
X31650000Y15150000D02*
X31650000Y13850000D01*
X31950000Y14850000D02*
X33950000Y14850000D01*
X31950000Y350000D02*
X31950000Y14850000D01*
X33350000Y15150000D02*
X31650000Y15150000D01*
X39150000Y14850000D02*
X41150000Y14850000D01*
X41150000Y14850000D02*
X41150000Y13550000D01*
X41150000Y8950000D02*
X41150000Y350000D01*
X41150000Y350000D02*
X31950000Y350000D01*
D11*
%TO.C,SB101*%
X83512959Y24223485D02*
X47162959Y24223485D01*
X47162959Y24223485D02*
X47162959Y41943485D01*
X47162959Y41943485D02*
X83512959Y41943485D01*
X83512959Y41943485D02*
X83512959Y24223485D01*
D12*
%TO.C,JP101*%
X45752959Y26943485D02*
X45152959Y26943485D01*
X44452959Y27593485D02*
X44452959Y30393485D01*
X46452959Y30393485D02*
X46452959Y27593485D01*
X45152959Y31043485D02*
X45752959Y31043485D01*
X44452959Y27643485D02*
G75*
G03*
X45152959Y26943485I699999J-1D01*
G01*
X45752959Y26943485D02*
G75*
G03*
X46452959Y27643485I1J699999D01*
G01*
X45152959Y31043485D02*
G75*
G03*
X44452959Y30343485I0J-700000D01*
G01*
X46452959Y30343485D02*
G75*
G03*
X45752959Y31043485I-700000J0D01*
G01*
%TO.C,R107*%
X66072936Y61535000D02*
X66527064Y61535000D01*
X66072936Y60065000D02*
X66527064Y60065000D01*
%TO.C,C106*%
X45205000Y20963748D02*
X45205000Y21486252D01*
X46675000Y20963748D02*
X46675000Y21486252D01*
%TO.C,R102*%
X25635000Y56327064D02*
X25635000Y55872936D01*
X24165000Y56327064D02*
X24165000Y55872936D01*
%TO.C,C105*%
X52205000Y20238748D02*
X52205000Y20761252D01*
X53675000Y20238748D02*
X53675000Y20761252D01*
%TD*%
M02*
