  0
SECTION
  2
HEADER
  9
$ANGBASE
  50
0.0
  9
$ANGDIR
  70
1
  9
$MEASUREMENT
  70
1
  0
ENDSEC
  0
SECTION
  2
TABLES
  0
TABLE
  2
LTYPE
  70
4
  0
LTYPE
  5
40F
  2
CONTINUOUS
  70
0
  3
Solid line
  72
65
  73
0
  40
0.0
  0
LTYPE
  5
410
  2
DASHDOT
 70
0
  3
Dash Dot ____ _ ____ _
 72
65
 73
4
 40
2.0
 49
1.25
 49
-0.25
 49
0.25
 49
-0.25
  0
LTYPE
  5
411
  2
DASHED
 70
0
  3
Dashed __ __ __ __ __
 72
65
 73
2
 40
0.75
 49
0.5
 49
-0.25
  0
LTYPE
  5
43B
  2
DOTTED
 70
0
  3
Dotted .  .  .  .
 72
65
 73
2
 40
0.2
 49
0.0
 49
-0.2
  0
ENDTAB
  0
TABLE
  2
STYLE
  70
4
  0
STYLE
  2
KICAD
  70
0
  40
0
  41
1
  42
1
  50
0
  71
0
  3
isocp.shx
  0
STYLE
  2
KICADB
  70
0
  40
0
  41
1
  42
1
  50
0
  71
0
  3
isocp.shx
  0
STYLE
  2
KICADI
  70
0
  40
0
  41
1
  42
1
  50
15
  71
0
  3
isocp.shx
  0
STYLE
  2
KICADBI
  70
0
  40
0
  41
1
  42
1
  50
15
  71
0
  3
isocp.shx
  0
ENDTAB
  0
TABLE
  2
LAYER
  70
1
  0
LAYER
  2
BLACK
  70
0
  62
7
  6
CONTINUOUS
  0
ENDTAB
  0
ENDSEC
  0
SECTION
  2
ENTITIES
0
LINE
8
BLACK
6
CONTINUOUS
10
105.25
20
6.5803
11
105.494
21
6.52169
0
LINE
8
BLACK
6
CONTINUOUS
10
105.494
20
6.52169
11
105.726
21
6.42561
0
LINE
8
BLACK
6
CONTINUOUS
10
105.726
20
6.42561
11
105.94
21
6.29443
0
LINE
8
BLACK
6
CONTINUOUS
10
105.94
20
6.29443
11
106.131
21
6.13137
0
LINE
8
BLACK
6
CONTINUOUS
10
106.131
20
6.13137
11
106.294
21
5.94046
0
LINE
8
BLACK
6
CONTINUOUS
10
106.294
20
5.94046
11
106.426
21
5.72638
0
LINE
8
BLACK
6
CONTINUOUS
10
106.426
20
5.72638
11
106.522
21
5.49443
0
LINE
8
BLACK
6
CONTINUOUS
10
106.522
20
5.49443
11
106.58
21
5.25029
0
LINE
8
BLACK
6
CONTINUOUS
10
106.58
20
5.25029
11
106.6
21
5
0
LINE
8
BLACK
6
CONTINUOUS
10
106.6
20
5
11
106.58
21
4.7497
0
LINE
8
BLACK
6
CONTINUOUS
10
106.58
20
4.7497
11
106.522
21
4.50557
0
LINE
8
BLACK
6
CONTINUOUS
10
106.522
20
4.50557
11
106.426
21
4.27361
0
LINE
8
BLACK
6
CONTINUOUS
10
106.426
20
4.27361
11
106.294
21
4.05954
0
LINE
8
BLACK
6
CONTINUOUS
10
106.294
20
4.05954
11
106.131
21
3.86863
0
LINE
8
BLACK
6
CONTINUOUS
10
106.131
20
3.86863
11
105.94
21
3.70557
0
LINE
8
BLACK
6
CONTINUOUS
10
105.94
20
3.70557
11
105.726
21
3.57439
0
LINE
8
BLACK
6
CONTINUOUS
10
105.726
20
3.57439
11
105.494
21
3.47831
0
LINE
8
BLACK
6
CONTINUOUS
10
105.494
20
3.47831
11
105.25
21
3.4197
0
LINE
8
BLACK
6
CONTINUOUS
10
105.25
20
3.4197
11
105
21
3.4
0
LINE
8
BLACK
6
CONTINUOUS
10
105
20
3.4
11
104.75
21
3.4197
0
LINE
8
BLACK
6
CONTINUOUS
10
104.75
20
3.4197
11
104.506
21
3.47831
0
LINE
8
BLACK
6
CONTINUOUS
10
104.506
20
3.47831
11
104.274
21
3.57439
0
LINE
8
BLACK
6
CONTINUOUS
10
104.274
20
3.57439
11
104.06
21
3.70557
0
LINE
8
BLACK
6
CONTINUOUS
10
104.06
20
3.70557
11
103.869
21
3.86863
0
LINE
8
BLACK
6
CONTINUOUS
10
103.869
20
3.86863
11
103.706
21
4.05954
0
LINE
8
BLACK
6
CONTINUOUS
10
103.706
20
4.05954
11
103.574
21
4.27361
0
LINE
8
BLACK
6
CONTINUOUS
10
103.574
20
4.27361
11
103.478
21
4.50557
0
LINE
8
BLACK
6
CONTINUOUS
10
103.478
20
4.50557
11
103.42
21
4.7497
0
LINE
8
BLACK
6
CONTINUOUS
10
103.42
20
4.7497
11
103.4
21
5
0
LINE
8
BLACK
6
CONTINUOUS
10
103.4
20
5
11
103.42
21
5.25029
0
LINE
8
BLACK
6
CONTINUOUS
10
103.42
20
5.25029
11
103.478
21
5.49443
0
LINE
8
BLACK
6
CONTINUOUS
10
103.478
20
5.49443
11
103.574
21
5.72638
0
LINE
8
BLACK
6
CONTINUOUS
10
103.574
20
5.72638
11
103.706
21
5.94046
0
LINE
8
BLACK
6
CONTINUOUS
10
103.706
20
5.94046
11
103.869
21
6.13137
0
LINE
8
BLACK
6
CONTINUOUS
10
103.869
20
6.13137
11
104.06
21
6.29443
0
LINE
8
BLACK
6
CONTINUOUS
10
104.06
20
6.29443
11
104.274
21
6.42561
0
LINE
8
BLACK
6
CONTINUOUS
10
104.274
20
6.42561
11
104.506
21
6.52169
0
LINE
8
BLACK
6
CONTINUOUS
10
104.506
20
6.52169
11
104.75
21
6.5803
0
LINE
8
BLACK
6
CONTINUOUS
10
104.75
20
6.5803
11
105
21
6.6
0
LINE
8
BLACK
6
CONTINUOUS
10
105
20
6.6
11
105.25
21
6.5803
0
LINE
8
BLACK
6
CONTINUOUS
10
5.25029
20
6.5803
11
5.49443
21
6.52169
0
LINE
8
BLACK
6
CONTINUOUS
10
5.49443
20
6.52169
11
5.72638
21
6.42561
0
LINE
8
BLACK
6
CONTINUOUS
10
5.72638
20
6.42561
11
5.94046
21
6.29443
0
LINE
8
BLACK
6
CONTINUOUS
10
5.94046
20
6.29443
11
6.13137
21
6.13137
0
LINE
8
BLACK
6
CONTINUOUS
10
6.13137
20
6.13137
11
6.29443
21
5.94046
0
LINE
8
BLACK
6
CONTINUOUS
10
6.29443
20
5.94046
11
6.42561
21
5.72638
0
LINE
8
BLACK
6
CONTINUOUS
10
6.42561
20
5.72638
11
6.52169
21
5.49443
0
LINE
8
BLACK
6
CONTINUOUS
10
6.52169
20
5.49443
11
6.5803
21
5.25029
0
LINE
8
BLACK
6
CONTINUOUS
10
6.5803
20
5.25029
11
6.6
21
5
0
LINE
8
BLACK
6
CONTINUOUS
10
6.6
20
5
11
6.5803
21
4.7497
0
LINE
8
BLACK
6
CONTINUOUS
10
6.5803
20
4.7497
11
6.52169
21
4.50557
0
LINE
8
BLACK
6
CONTINUOUS
10
6.52169
20
4.50557
11
6.42561
21
4.27361
0
LINE
8
BLACK
6
CONTINUOUS
10
6.42561
20
4.27361
11
6.29443
21
4.05954
0
LINE
8
BLACK
6
CONTINUOUS
10
6.29443
20
4.05954
11
6.13137
21
3.86863
0
LINE
8
BLACK
6
CONTINUOUS
10
6.13137
20
3.86863
11
5.94046
21
3.70557
0
LINE
8
BLACK
6
CONTINUOUS
10
5.94046
20
3.70557
11
5.72638
21
3.57439
0
LINE
8
BLACK
6
CONTINUOUS
10
5.72638
20
3.57439
11
5.49443
21
3.47831
0
LINE
8
BLACK
6
CONTINUOUS
10
5.49443
20
3.47831
11
5.25029
21
3.4197
0
LINE
8
BLACK
6
CONTINUOUS
10
5.25029
20
3.4197
11
5
21
3.4
0
LINE
8
BLACK
6
CONTINUOUS
10
5
20
3.4
11
4.7497
21
3.4197
0
LINE
8
BLACK
6
CONTINUOUS
10
4.7497
20
3.4197
11
4.50557
21
3.47831
0
LINE
8
BLACK
6
CONTINUOUS
10
4.50557
20
3.47831
11
4.27361
21
3.57439
0
LINE
8
BLACK
6
CONTINUOUS
10
4.27361
20
3.57439
11
4.05954
21
3.70557
0
LINE
8
BLACK
6
CONTINUOUS
10
4.05954
20
3.70557
11
3.86863
21
3.86863
0
LINE
8
BLACK
6
CONTINUOUS
10
3.86863
20
3.86863
11
3.70557
21
4.05954
0
LINE
8
BLACK
6
CONTINUOUS
10
3.70557
20
4.05954
11
3.57439
21
4.27361
0
LINE
8
BLACK
6
CONTINUOUS
10
3.57439
20
4.27361
11
3.47831
21
4.50557
0
LINE
8
BLACK
6
CONTINUOUS
10
3.47831
20
4.50557
11
3.4197
21
4.7497
0
LINE
8
BLACK
6
CONTINUOUS
10
3.4197
20
4.7497
11
3.4
21
5
0
LINE
8
BLACK
6
CONTINUOUS
10
3.4
20
5
11
3.4197
21
5.25029
0
LINE
8
BLACK
6
CONTINUOUS
10
3.4197
20
5.25029
11
3.47831
21
5.49443
0
LINE
8
BLACK
6
CONTINUOUS
10
3.47831
20
5.49443
11
3.57439
21
5.72638
0
LINE
8
BLACK
6
CONTINUOUS
10
3.57439
20
5.72638
11
3.70557
21
5.94046
0
LINE
8
BLACK
6
CONTINUOUS
10
3.70557
20
5.94046
11
3.86863
21
6.13137
0
LINE
8
BLACK
6
CONTINUOUS
10
3.86863
20
6.13137
11
4.05954
21
6.29443
0
LINE
8
BLACK
6
CONTINUOUS
10
4.05954
20
6.29443
11
4.27361
21
6.42561
0
LINE
8
BLACK
6
CONTINUOUS
10
4.27361
20
6.42561
11
4.50557
21
6.52169
0
LINE
8
BLACK
6
CONTINUOUS
10
4.50557
20
6.52169
11
4.7497
21
6.5803
0
LINE
8
BLACK
6
CONTINUOUS
10
4.7497
20
6.5803
11
5
21
6.6
0
LINE
8
BLACK
6
CONTINUOUS
10
5
20
6.6
11
5.25029
21
6.5803
0
LINE
8
BLACK
6
CONTINUOUS
10
37.7512
20
8.84487
11
37.9494
21
8.80414
0
LINE
8
BLACK
6
CONTINUOUS
10
37.9494
20
8.80414
11
38.1353
21
8.72435
0
LINE
8
BLACK
6
CONTINUOUS
10
38.1353
20
8.72435
11
38.3014
21
8.60876
0
LINE
8
BLACK
6
CONTINUOUS
10
38.3014
20
8.60876
11
38.4408
21
8.46211
0
LINE
8
BLACK
6
CONTINUOUS
10
38.4408
20
8.46211
11
38.5478
21
8.29039
0
LINE
8
BLACK
6
CONTINUOUS
10
38.5478
20
8.29039
11
38.6181
21
8.10065
0
LINE
8
BLACK
6
CONTINUOUS
10
38.6181
20
8.10065
11
38.6487
21
7.90065
0
LINE
8
BLACK
6
CONTINUOUS
10
38.6487
20
7.90065
11
38.6385
21
7.69857
0
LINE
8
BLACK
6
CONTINUOUS
10
38.6385
20
7.69857
11
38.5878
21
7.50269
0
LINE
8
BLACK
6
CONTINUOUS
10
38.5878
20
7.50269
11
38.4986
21
7.32104
0
LINE
8
BLACK
6
CONTINUOUS
10
38.4986
20
7.32104
11
38.3748
21
7.16103
0
LINE
8
BLACK
6
CONTINUOUS
10
38.3748
20
7.16103
11
38.2213
21
7.02924
0
LINE
8
BLACK
6
CONTINUOUS
10
38.2213
20
7.02924
11
38.0444
21
6.93104
0
LINE
8
BLACK
6
CONTINUOUS
10
38.0444
20
6.93104
11
37.8513
21
6.87047
0
LINE
8
BLACK
6
CONTINUOUS
10
37.8513
20
6.87047
11
37.65
21
6.85
0
LINE
8
BLACK
6
CONTINUOUS
10
37.65
20
6.85
11
35.45
21
6.85
0
LINE
8
BLACK
6
CONTINUOUS
10
35.45
20
6.85
11
35.3488
21
6.85513
0
LINE
8
BLACK
6
CONTINUOUS
10
35.3488
20
6.85513
11
35.1506
21
6.89586
0
LINE
8
BLACK
6
CONTINUOUS
10
35.1506
20
6.89586
11
34.9647
21
6.97565
0
LINE
8
BLACK
6
CONTINUOUS
10
34.9647
20
6.97565
11
34.7986
21
7.09124
0
LINE
8
BLACK
6
CONTINUOUS
10
34.7986
20
7.09124
11
34.6592
21
7.23789
0
LINE
8
BLACK
6
CONTINUOUS
10
34.6592
20
7.23789
11
34.5522
21
7.40961
0
LINE
8
BLACK
6
CONTINUOUS
10
34.5522
20
7.40961
11
34.4819
21
7.59935
0
LINE
8
BLACK
6
CONTINUOUS
10
34.4819
20
7.59935
11
34.4513
21
7.79935
0
LINE
8
BLACK
6
CONTINUOUS
10
34.4513
20
7.79935
11
34.4615
21
8.00143
0
LINE
8
BLACK
6
CONTINUOUS
10
34.4615
20
8.00143
11
34.5122
21
8.19731
0
LINE
8
BLACK
6
CONTINUOUS
10
34.5122
20
8.19731
11
34.6014
21
8.37896
0
LINE
8
BLACK
6
CONTINUOUS
10
34.6014
20
8.37896
11
34.7252
21
8.53897
0
LINE
8
BLACK
6
CONTINUOUS
10
34.7252
20
8.53897
11
34.8787
21
8.67076
0
LINE
8
BLACK
6
CONTINUOUS
10
34.8787
20
8.67076
11
35.0556
21
8.76896
0
LINE
8
BLACK
6
CONTINUOUS
10
35.0556
20
8.76896
11
35.2487
21
8.82953
0
LINE
8
BLACK
6
CONTINUOUS
10
35.2487
20
8.82953
11
35.45
21
8.85
0
LINE
8
BLACK
6
CONTINUOUS
10
35.45
20
8.85
11
37.65
21
8.85
0
LINE
8
BLACK
6
CONTINUOUS
10
37.65
20
8.85
11
37.7512
21
8.84487
0
LINE
8
BLACK
6
CONTINUOUS
10
41.5014
20
13.3385
11
41.6973
21
13.2878
0
LINE
8
BLACK
6
CONTINUOUS
10
41.6973
20
13.2878
11
41.879
21
13.1986
0
LINE
8
BLACK
6
CONTINUOUS
10
41.879
20
13.1986
11
42.039
21
13.0748
0
LINE
8
BLACK
6
CONTINUOUS
10
42.039
20
13.0748
11
42.1708
21
12.9213
0
LINE
8
BLACK
6
CONTINUOUS
10
42.1708
20
12.9213
11
42.269
21
12.7444
0
LINE
8
BLACK
6
CONTINUOUS
10
42.269
20
12.7444
11
42.3295
21
12.5513
0
LINE
8
BLACK
6
CONTINUOUS
10
42.3295
20
12.5513
11
42.35
21
12.35
0
LINE
8
BLACK
6
CONTINUOUS
10
42.35
20
12.35
11
42.35
21
10.15
0
LINE
8
BLACK
6
CONTINUOUS
10
42.35
20
10.15
11
42.3449
21
10.0488
0
LINE
8
BLACK
6
CONTINUOUS
10
42.3449
20
10.0488
11
42.3041
21
9.85064
0
LINE
8
BLACK
6
CONTINUOUS
10
42.3041
20
9.85064
11
42.2243
21
9.6647
0
LINE
8
BLACK
6
CONTINUOUS
10
42.2243
20
9.6647
11
42.1088
21
9.49863
0
LINE
8
BLACK
6
CONTINUOUS
10
42.1088
20
9.49863
11
41.9621
21
9.35922
0
LINE
8
BLACK
6
CONTINUOUS
10
41.9621
20
9.35922
11
41.7904
21
9.2522
0
LINE
8
BLACK
6
CONTINUOUS
10
41.7904
20
9.2522
11
41.6007
21
9.18192
0
LINE
8
BLACK
6
CONTINUOUS
10
41.6007
20
9.18192
11
41.4006
21
9.15128
0
LINE
8
BLACK
6
CONTINUOUS
10
41.4006
20
9.15128
11
41.1986
21
9.16153
0
LINE
8
BLACK
6
CONTINUOUS
10
41.1986
20
9.16153
11
41.0027
21
9.21225
0
LINE
8
BLACK
6
CONTINUOUS
10
41.0027
20
9.21225
11
40.821
21
9.30136
0
LINE
8
BLACK
6
CONTINUOUS
10
40.821
20
9.30136
11
40.661
21
9.42521
0
LINE
8
BLACK
6
CONTINUOUS
10
40.661
20
9.42521
11
40.5292
21
9.57873
0
LINE
8
BLACK
6
CONTINUOUS
10
40.5292
20
9.57873
11
40.431
21
9.75564
0
LINE
8
BLACK
6
CONTINUOUS
10
40.431
20
9.75564
11
40.3705
21
9.9487
0
LINE
8
BLACK
6
CONTINUOUS
10
40.3705
20
9.9487
11
40.35
21
10.15
0
LINE
8
BLACK
6
CONTINUOUS
10
40.35
20
10.15
11
40.35
21
12.35
0
LINE
8
BLACK
6
CONTINUOUS
10
40.35
20
12.35
11
40.3551
21
12.4512
0
LINE
8
BLACK
6
CONTINUOUS
10
40.3551
20
12.4512
11
40.3959
21
12.6494
0
LINE
8
BLACK
6
CONTINUOUS
10
40.3959
20
12.6494
11
40.4757
21
12.8353
0
LINE
8
BLACK
6
CONTINUOUS
10
40.4757
20
12.8353
11
40.5912
21
13.0014
0
LINE
8
BLACK
6
CONTINUOUS
10
40.5912
20
13.0014
11
40.7379
21
13.1408
0
LINE
8
BLACK
6
CONTINUOUS
10
40.7379
20
13.1408
11
40.9096
21
13.2478
0
LINE
8
BLACK
6
CONTINUOUS
10
40.9096
20
13.2478
11
41.0993
21
13.3181
0
LINE
8
BLACK
6
CONTINUOUS
10
41.0993
20
13.3181
11
41.2994
21
13.3487
0
LINE
8
BLACK
6
CONTINUOUS
10
41.2994
20
13.3487
11
41.5014
21
13.3385
0
LINE
8
BLACK
6
CONTINUOUS
10
104.122
20
13.6882
11
104.36
21
13.6146
0
LINE
8
BLACK
6
CONTINUOUS
10
104.36
20
13.6146
11
104.585
21
13.5063
0
LINE
8
BLACK
6
CONTINUOUS
10
104.585
20
13.5063
11
104.791
21
13.3657
0
LINE
8
BLACK
6
CONTINUOUS
10
104.791
20
13.3657
11
104.974
21
13.1959
0
LINE
8
BLACK
6
CONTINUOUS
10
104.974
20
13.1959
11
105.13
21
13.0008
0
LINE
8
BLACK
6
CONTINUOUS
10
105.13
20
13.0008
11
105.255
21
12.7846
0
LINE
8
BLACK
6
CONTINUOUS
10
105.255
20
12.7846
11
105.346
21
12.5522
0
LINE
8
BLACK
6
CONTINUOUS
10
105.346
20
12.5522
11
105.401
21
12.3089
0
LINE
8
BLACK
6
CONTINUOUS
10
105.401
20
12.3089
11
105.42
21
12.06
0
LINE
8
BLACK
6
CONTINUOUS
10
105.42
20
12.06
11
105.401
21
11.8111
0
LINE
8
BLACK
6
CONTINUOUS
10
105.401
20
11.8111
11
105.346
21
11.5678
0
LINE
8
BLACK
6
CONTINUOUS
10
105.346
20
11.5678
11
105.255
21
11.3354
0
LINE
8
BLACK
6
CONTINUOUS
10
105.255
20
11.3354
11
105.13
21
11.1192
0
LINE
8
BLACK
6
CONTINUOUS
10
105.13
20
11.1192
11
104.974
21
10.9241
0
LINE
8
BLACK
6
CONTINUOUS
10
104.974
20
10.9241
11
104.791
21
10.7543
0
LINE
8
BLACK
6
CONTINUOUS
10
104.791
20
10.7543
11
104.585
21
10.6137
0
LINE
8
BLACK
6
CONTINUOUS
10
104.585
20
10.6137
11
104.36
21
10.5054
0
LINE
8
BLACK
6
CONTINUOUS
10
104.36
20
10.5054
11
104.122
21
10.4318
0
LINE
8
BLACK
6
CONTINUOUS
10
104.122
20
10.4318
11
103.875
21
10.3946
0
LINE
8
BLACK
6
CONTINUOUS
10
103.875
20
10.3946
11
103.625
21
10.3946
0
LINE
8
BLACK
6
CONTINUOUS
10
103.625
20
10.3946
11
103.378
21
10.4318
0
LINE
8
BLACK
6
CONTINUOUS
10
103.378
20
10.4318
11
103.14
21
10.5054
0
LINE
8
BLACK
6
CONTINUOUS
10
103.14
20
10.5054
11
102.915
21
10.6137
0
LINE
8
BLACK
6
CONTINUOUS
10
102.915
20
10.6137
11
102.709
21
10.7543
0
LINE
8
BLACK
6
CONTINUOUS
10
102.709
20
10.7543
11
102.526
21
10.9241
0
LINE
8
BLACK
6
CONTINUOUS
10
102.526
20
10.9241
11
102.37
21
11.1192
0
LINE
8
BLACK
6
CONTINUOUS
10
102.37
20
11.1192
11
102.245
21
11.3354
0
LINE
8
BLACK
6
CONTINUOUS
10
102.245
20
11.3354
11
102.154
21
11.5678
0
LINE
8
BLACK
6
CONTINUOUS
10
102.154
20
11.5678
11
102.099
21
11.8111
0
LINE
8
BLACK
6
CONTINUOUS
10
102.099
20
11.8111
11
102.08
21
12.06
0
LINE
8
BLACK
6
CONTINUOUS
10
102.08
20
12.06
11
102.099
21
12.3089
0
LINE
8
BLACK
6
CONTINUOUS
10
102.099
20
12.3089
11
102.154
21
12.5522
0
LINE
8
BLACK
6
CONTINUOUS
10
102.154
20
12.5522
11
102.245
21
12.7846
0
LINE
8
BLACK
6
CONTINUOUS
10
102.245
20
12.7846
11
102.37
21
13.0008
0
LINE
8
BLACK
6
CONTINUOUS
10
102.37
20
13.0008
11
102.526
21
13.1959
0
LINE
8
BLACK
6
CONTINUOUS
10
102.526
20
13.1959
11
102.709
21
13.3657
0
LINE
8
BLACK
6
CONTINUOUS
10
102.709
20
13.3657
11
102.915
21
13.5063
0
LINE
8
BLACK
6
CONTINUOUS
10
102.915
20
13.5063
11
103.14
21
13.6146
0
LINE
8
BLACK
6
CONTINUOUS
10
103.14
20
13.6146
11
103.378
21
13.6882
0
LINE
8
BLACK
6
CONTINUOUS
10
103.378
20
13.6882
11
103.625
21
13.7254
0
LINE
8
BLACK
6
CONTINUOUS
10
103.625
20
13.7254
11
103.875
21
13.7254
0
LINE
8
BLACK
6
CONTINUOUS
10
103.875
20
13.7254
11
104.122
21
13.6882
0
LINE
8
BLACK
6
CONTINUOUS
10
88.5716
20
13.7282
11
88.8101
21
13.6546
0
LINE
8
BLACK
6
CONTINUOUS
10
88.8101
20
13.6546
11
89.035
21
13.5463
0
LINE
8
BLACK
6
CONTINUOUS
10
89.035
20
13.5463
11
89.2412
21
13.4057
0
LINE
8
BLACK
6
CONTINUOUS
10
89.2412
20
13.4057
11
89.4242
21
13.2359
0
LINE
8
BLACK
6
CONTINUOUS
10
89.4242
20
13.2359
11
89.5798
21
13.0408
0
LINE
8
BLACK
6
CONTINUOUS
10
89.5798
20
13.0408
11
89.7046
21
12.8246
0
LINE
8
BLACK
6
CONTINUOUS
10
89.7046
20
12.8246
11
89.7958
21
12.5922
0
LINE
8
BLACK
6
CONTINUOUS
10
89.7958
20
12.5922
11
89.8514
21
12.3489
0
LINE
8
BLACK
6
CONTINUOUS
10
89.8514
20
12.3489
11
89.87
21
12.1
0
LINE
8
BLACK
6
CONTINUOUS
10
89.87
20
12.1
11
89.8514
21
11.8511
0
LINE
8
BLACK
6
CONTINUOUS
10
89.8514
20
11.8511
11
89.7958
21
11.6077
0
LINE
8
BLACK
6
CONTINUOUS
10
89.7958
20
11.6077
11
89.7046
21
11.3754
0
LINE
8
BLACK
6
CONTINUOUS
10
89.7046
20
11.3754
11
89.5798
21
11.1592
0
LINE
8
BLACK
6
CONTINUOUS
10
89.5798
20
11.1592
11
89.4242
21
10.9641
0
LINE
8
BLACK
6
CONTINUOUS
10
89.4242
20
10.9641
11
89.2412
21
10.7943
0
LINE
8
BLACK
6
CONTINUOUS
10
89.2412
20
10.7943
11
89.035
21
10.6537
0
LINE
8
BLACK
6
CONTINUOUS
10
89.035
20
10.6537
11
88.8101
21
10.5454
0
LINE
8
BLACK
6
CONTINUOUS
10
88.8101
20
10.5454
11
88.5716
21
10.4718
0
LINE
8
BLACK
6
CONTINUOUS
10
88.5716
20
10.4718
11
88.3248
21
10.4346
0
LINE
8
BLACK
6
CONTINUOUS
10
88.3248
20
10.4346
11
88.0752
21
10.4346
0
LINE
8
BLACK
6
CONTINUOUS
10
88.0752
20
10.4346
11
87.8284
21
10.4718
0
LINE
8
BLACK
6
CONTINUOUS
10
87.8284
20
10.4718
11
87.5899
21
10.5454
0
LINE
8
BLACK
6
CONTINUOUS
10
87.5899
20
10.5454
11
87.365
21
10.6537
0
LINE
8
BLACK
6
CONTINUOUS
10
87.365
20
10.6537
11
87.1588
21
10.7943
0
LINE
8
BLACK
6
CONTINUOUS
10
87.1588
20
10.7943
11
86.9758
21
10.9641
0
LINE
8
BLACK
6
CONTINUOUS
10
86.9758
20
10.9641
11
86.8202
21
11.1592
0
LINE
8
BLACK
6
CONTINUOUS
10
86.8202
20
11.1592
11
86.6954
21
11.3754
0
LINE
8
BLACK
6
CONTINUOUS
10
86.6954
20
11.3754
11
86.6042
21
11.6077
0
LINE
8
BLACK
6
CONTINUOUS
10
86.6042
20
11.6077
11
86.5486
21
11.8511
0
LINE
8
BLACK
6
CONTINUOUS
10
86.5486
20
11.8511
11
86.53
21
12.1
0
LINE
8
BLACK
6
CONTINUOUS
10
86.53
20
12.1
11
86.5486
21
12.3489
0
LINE
8
BLACK
6
CONTINUOUS
10
86.5486
20
12.3489
11
86.6042
21
12.5922
0
LINE
8
BLACK
6
CONTINUOUS
10
86.6042
20
12.5922
11
86.6954
21
12.8246
0
LINE
8
BLACK
6
CONTINUOUS
10
86.6954
20
12.8246
11
86.8202
21
13.0408
0
LINE
8
BLACK
6
CONTINUOUS
10
86.8202
20
13.0408
11
86.9758
21
13.2359
0
LINE
8
BLACK
6
CONTINUOUS
10
86.9758
20
13.2359
11
87.1588
21
13.4057
0
LINE
8
BLACK
6
CONTINUOUS
10
87.1588
20
13.4057
11
87.365
21
13.5463
0
LINE
8
BLACK
6
CONTINUOUS
10
87.365
20
13.5463
11
87.5899
21
13.6546
0
LINE
8
BLACK
6
CONTINUOUS
10
87.5899
20
13.6546
11
87.8284
21
13.7282
0
LINE
8
BLACK
6
CONTINUOUS
10
87.8284
20
13.7282
11
88.0752
21
13.7654
0
LINE
8
BLACK
6
CONTINUOUS
10
88.0752
20
13.7654
11
88.3248
21
13.7654
0
LINE
8
BLACK
6
CONTINUOUS
10
88.3248
20
13.7654
11
88.5716
21
13.7282
0
LINE
8
BLACK
6
CONTINUOUS
10
38.85
20
13.15
11
34.25
21
13.15
0
LINE
8
BLACK
6
CONTINUOUS
10
34.25
20
13.15
11
34.25
21
15.15
0
LINE
8
BLACK
6
CONTINUOUS
10
34.25
20
15.15
11
38.85
21
15.15
0
LINE
8
BLACK
6
CONTINUOUS
10
38.85
20
15.15
11
38.85
21
13.15
0
LINE
8
BLACK
6
CONTINUOUS
10
64.6002
20
16.7469
11
64.7524
21
16.6937
0
LINE
8
BLACK
6
CONTINUOUS
10
64.7524
20
16.6937
11
64.8889
21
16.6079
0
LINE
8
BLACK
6
CONTINUOUS
10
64.8889
20
16.6079
11
65.0029
21
16.4939
0
LINE
8
BLACK
6
CONTINUOUS
10
65.0029
20
16.4939
11
65.0887
21
16.3574
0
LINE
8
BLACK
6
CONTINUOUS
10
65.0887
20
16.3574
11
65.1419
21
16.2052
0
LINE
8
BLACK
6
CONTINUOUS
10
65.1419
20
16.2052
11
65.16
21
16.045
0
LINE
8
BLACK
6
CONTINUOUS
10
65.16
20
16.045
11
65.1419
21
15.8848
0
LINE
8
BLACK
6
CONTINUOUS
10
65.1419
20
15.8848
11
65.0887
21
15.7326
0
LINE
8
BLACK
6
CONTINUOUS
10
65.0887
20
15.7326
11
65.0029
21
15.5961
0
LINE
8
BLACK
6
CONTINUOUS
10
65.0029
20
15.5961
11
64.8889
21
15.4821
0
LINE
8
BLACK
6
CONTINUOUS
10
64.8889
20
15.4821
11
64.7524
21
15.3963
0
LINE
8
BLACK
6
CONTINUOUS
10
64.7524
20
15.3963
11
64.6002
21
15.3431
0
LINE
8
BLACK
6
CONTINUOUS
10
64.6002
20
15.3431
11
64.44
21
15.325
0
LINE
8
BLACK
6
CONTINUOUS
10
64.44
20
15.325
11
64.2798
21
15.3431
0
LINE
8
BLACK
6
CONTINUOUS
10
64.2798
20
15.3431
11
64.1276
21
15.3963
0
LINE
8
BLACK
6
CONTINUOUS
10
64.1276
20
15.3963
11
63.9911
21
15.4821
0
LINE
8
BLACK
6
CONTINUOUS
10
63.9911
20
15.4821
11
63.8771
21
15.5961
0
LINE
8
BLACK
6
CONTINUOUS
10
63.8771
20
15.5961
11
63.7913
21
15.7326
0
LINE
8
BLACK
6
CONTINUOUS
10
63.7913
20
15.7326
11
63.7381
21
15.8848
0
LINE
8
BLACK
6
CONTINUOUS
10
63.7381
20
15.8848
11
63.72
21
16.045
0
LINE
8
BLACK
6
CONTINUOUS
10
63.72
20
16.045
11
63.7381
21
16.2052
0
LINE
8
BLACK
6
CONTINUOUS
10
63.7381
20
16.2052
11
63.7913
21
16.3574
0
LINE
8
BLACK
6
CONTINUOUS
10
63.7913
20
16.3574
11
63.8771
21
16.4939
0
LINE
8
BLACK
6
CONTINUOUS
10
63.8771
20
16.4939
11
63.9911
21
16.6079
0
LINE
8
BLACK
6
CONTINUOUS
10
63.9911
20
16.6079
11
64.1276
21
16.6937
0
LINE
8
BLACK
6
CONTINUOUS
10
64.1276
20
16.6937
11
64.2798
21
16.7469
0
LINE
8
BLACK
6
CONTINUOUS
10
64.2798
20
16.7469
11
64.44
21
16.765
0
LINE
8
BLACK
6
CONTINUOUS
10
64.44
20
16.765
11
64.6002
21
16.7469
0
LINE
8
BLACK
6
CONTINUOUS
10
59.5202
20
16.7469
11
59.6724
21
16.6937
0
LINE
8
BLACK
6
CONTINUOUS
10
59.6724
20
16.6937
11
59.8089
21
16.6079
0
LINE
8
BLACK
6
CONTINUOUS
10
59.8089
20
16.6079
11
59.9229
21
16.4939
0
LINE
8
BLACK
6
CONTINUOUS
10
59.9229
20
16.4939
11
60.0087
21
16.3574
0
LINE
8
BLACK
6
CONTINUOUS
10
60.0087
20
16.3574
11
60.0619
21
16.2052
0
LINE
8
BLACK
6
CONTINUOUS
10
60.0619
20
16.2052
11
60.08
21
16.045
0
LINE
8
BLACK
6
CONTINUOUS
10
60.08
20
16.045
11
60.0619
21
15.8848
0
LINE
8
BLACK
6
CONTINUOUS
10
60.0619
20
15.8848
11
60.0087
21
15.7326
0
LINE
8
BLACK
6
CONTINUOUS
10
60.0087
20
15.7326
11
59.9229
21
15.5961
0
LINE
8
BLACK
6
CONTINUOUS
10
59.9229
20
15.5961
11
59.8089
21
15.4821
0
LINE
8
BLACK
6
CONTINUOUS
10
59.8089
20
15.4821
11
59.6724
21
15.3963
0
LINE
8
BLACK
6
CONTINUOUS
10
59.6724
20
15.3963
11
59.5202
21
15.3431
0
LINE
8
BLACK
6
CONTINUOUS
10
59.5202
20
15.3431
11
59.36
21
15.325
0
LINE
8
BLACK
6
CONTINUOUS
10
59.36
20
15.325
11
59.1998
21
15.3431
0
LINE
8
BLACK
6
CONTINUOUS
10
59.1998
20
15.3431
11
59.0476
21
15.3963
0
LINE
8
BLACK
6
CONTINUOUS
10
59.0476
20
15.3963
11
58.9111
21
15.4821
0
LINE
8
BLACK
6
CONTINUOUS
10
58.9111
20
15.4821
11
58.7971
21
15.5961
0
LINE
8
BLACK
6
CONTINUOUS
10
58.7971
20
15.5961
11
58.7113
21
15.7326
0
LINE
8
BLACK
6
CONTINUOUS
10
58.7113
20
15.7326
11
58.6581
21
15.8848
0
LINE
8
BLACK
6
CONTINUOUS
10
58.6581
20
15.8848
11
58.64
21
16.045
0
LINE
8
BLACK
6
CONTINUOUS
10
58.64
20
16.045
11
58.6581
21
16.2052
0
LINE
8
BLACK
6
CONTINUOUS
10
58.6581
20
16.2052
11
58.7113
21
16.3574
0
LINE
8
BLACK
6
CONTINUOUS
10
58.7113
20
16.3574
11
58.7971
21
16.4939
0
LINE
8
BLACK
6
CONTINUOUS
10
58.7971
20
16.4939
11
58.9111
21
16.6079
0
LINE
8
BLACK
6
CONTINUOUS
10
58.9111
20
16.6079
11
59.0476
21
16.6937
0
LINE
8
BLACK
6
CONTINUOUS
10
59.0476
20
16.6937
11
59.1998
21
16.7469
0
LINE
8
BLACK
6
CONTINUOUS
10
59.1998
20
16.7469
11
59.36
21
16.765
0
LINE
8
BLACK
6
CONTINUOUS
10
59.36
20
16.765
11
59.5202
21
16.7469
0
LINE
8
BLACK
6
CONTINUOUS
10
96.3137
20
28.7152
11
96.8042
21
28.6355
0
LINE
8
BLACK
6
CONTINUOUS
10
96.8042
20
28.6355
11
97.2867
21
28.5166
0
LINE
8
BLACK
6
CONTINUOUS
10
97.2867
20
28.5166
11
97.758
21
28.3592
0
LINE
8
BLACK
6
CONTINUOUS
10
97.758
20
28.3592
11
98.2151
21
28.1645
0
LINE
8
BLACK
6
CONTINUOUS
10
98.2151
20
28.1645
11
98.6551
21
27.9336
0
LINE
8
BLACK
6
CONTINUOUS
10
98.6551
20
27.9336
11
99.0751
21
27.668
0
LINE
8
BLACK
6
CONTINUOUS
10
99.0751
20
27.668
11
99.4723
21
27.3695
0
LINE
8
BLACK
6
CONTINUOUS
10
99.4723
20
27.3695
11
99.8442
21
27.04
0
LINE
8
BLACK
6
CONTINUOUS
10
99.8442
20
27.04
11
100.188
21
26.6816
0
LINE
8
BLACK
6
CONTINUOUS
10
100.188
20
26.6816
11
100.503
21
26.2967
0
LINE
8
BLACK
6
CONTINUOUS
10
100.503
20
26.2967
11
100.785
21
25.8878
0
LINE
8
BLACK
6
CONTINUOUS
10
100.785
20
25.8878
11
101.033
21
25.4574
0
LINE
8
BLACK
6
CONTINUOUS
10
101.033
20
25.4574
11
101.246
21
25.0085
0
LINE
8
BLACK
6
CONTINUOUS
10
101.246
20
25.0085
11
101.423
21
24.5439
0
LINE
8
BLACK
6
CONTINUOUS
10
101.423
20
24.5439
11
101.561
21
24.0666
0
LINE
8
BLACK
6
CONTINUOUS
10
101.561
20
24.0666
11
101.66
21
23.5798
0
LINE
8
BLACK
6
CONTINUOUS
10
101.66
20
23.5798
11
101.72
21
23.0865
0
LINE
8
BLACK
6
CONTINUOUS
10
101.72
20
23.0865
11
101.74
21
22.59
0
LINE
8
BLACK
6
CONTINUOUS
10
101.74
20
22.59
11
101.72
21
22.0935
0
LINE
8
BLACK
6
CONTINUOUS
10
101.72
20
22.0935
11
101.66
21
21.6002
0
LINE
8
BLACK
6
CONTINUOUS
10
101.66
20
21.6002
11
101.561
21
21.1134
0
LINE
8
BLACK
6
CONTINUOUS
10
101.561
20
21.1134
11
101.423
21
20.6361
0
LINE
8
BLACK
6
CONTINUOUS
10
101.423
20
20.6361
11
101.246
21
20.1715
0
LINE
8
BLACK
6
CONTINUOUS
10
101.246
20
20.1715
11
101.033
21
19.7226
0
LINE
8
BLACK
6
CONTINUOUS
10
101.033
20
19.7226
11
100.785
21
19.2922
0
LINE
8
BLACK
6
CONTINUOUS
10
100.785
20
19.2922
11
100.503
21
18.8833
0
LINE
8
BLACK
6
CONTINUOUS
10
100.503
20
18.8833
11
100.188
21
18.4984
0
LINE
8
BLACK
6
CONTINUOUS
10
100.188
20
18.4984
11
99.8442
21
18.14
0
LINE
8
BLACK
6
CONTINUOUS
10
99.8442
20
18.14
11
99.4723
21
17.8105
0
LINE
8
BLACK
6
CONTINUOUS
10
99.4723
20
17.8105
11
99.0751
21
17.512
0
LINE
8
BLACK
6
CONTINUOUS
10
99.0751
20
17.512
11
98.6551
21
17.2464
0
LINE
8
BLACK
6
CONTINUOUS
10
98.6551
20
17.2464
11
98.2151
21
17.0155
0
LINE
8
BLACK
6
CONTINUOUS
10
98.2151
20
17.0155
11
97.758
21
16.8208
0
LINE
8
BLACK
6
CONTINUOUS
10
97.758
20
16.8208
11
97.2867
21
16.6634
0
LINE
8
BLACK
6
CONTINUOUS
10
97.2867
20
16.6634
11
96.8042
21
16.5445
0
LINE
8
BLACK
6
CONTINUOUS
10
96.8042
20
16.5445
11
96.3137
21
16.4648
0
LINE
8
BLACK
6
CONTINUOUS
10
96.3137
20
16.4648
11
95.8184
21
16.4248
0
LINE
8
BLACK
6
CONTINUOUS
10
95.8184
20
16.4248
11
95.3216
21
16.4248
0
LINE
8
BLACK
6
CONTINUOUS
10
95.3216
20
16.4248
11
94.8263
21
16.4648
0
LINE
8
BLACK
6
CONTINUOUS
10
94.8263
20
16.4648
11
94.3358
21
16.5445
0
LINE
8
BLACK
6
CONTINUOUS
10
94.3358
20
16.5445
11
93.8533
21
16.6634
0
LINE
8
BLACK
6
CONTINUOUS
10
93.8533
20
16.6634
11
93.382
21
16.8208
0
LINE
8
BLACK
6
CONTINUOUS
10
93.382
20
16.8208
11
92.9249
21
17.0155
0
LINE
8
BLACK
6
CONTINUOUS
10
92.9249
20
17.0155
11
92.4849
21
17.2464
0
LINE
8
BLACK
6
CONTINUOUS
10
92.4849
20
17.2464
11
92.0649
21
17.512
0
LINE
8
BLACK
6
CONTINUOUS
10
92.0649
20
17.512
11
91.6677
21
17.8105
0
LINE
8
BLACK
6
CONTINUOUS
10
91.6677
20
17.8105
11
91.2958
21
18.14
0
LINE
8
BLACK
6
CONTINUOUS
10
91.2958
20
18.14
11
90.9515
21
18.4984
0
LINE
8
BLACK
6
CONTINUOUS
10
90.9515
20
18.4984
11
90.6373
21
18.8833
0
LINE
8
BLACK
6
CONTINUOUS
10
90.6373
20
18.8833
11
90.355
21
19.2922
0
LINE
8
BLACK
6
CONTINUOUS
10
90.355
20
19.2922
11
90.1066
21
19.7226
0
LINE
8
BLACK
6
CONTINUOUS
10
90.1066
20
19.7226
11
89.8935
21
20.1715
0
LINE
8
BLACK
6
CONTINUOUS
10
89.8935
20
20.1715
11
89.7173
21
20.6361
0
LINE
8
BLACK
6
CONTINUOUS
10
89.7173
20
20.6361
11
89.5791
21
21.1134
0
LINE
8
BLACK
6
CONTINUOUS
10
89.5791
20
21.1134
11
89.4797
21
21.6002
0
LINE
8
BLACK
6
CONTINUOUS
10
89.4797
20
21.6002
11
89.4198
21
22.0935
0
LINE
8
BLACK
6
CONTINUOUS
10
89.4198
20
22.0935
11
89.3998
21
22.59
0
LINE
8
BLACK
6
CONTINUOUS
10
89.3998
20
22.59
11
89.4198
21
23.0865
0
LINE
8
BLACK
6
CONTINUOUS
10
89.4198
20
23.0865
11
89.4797
21
23.5798
0
LINE
8
BLACK
6
CONTINUOUS
10
89.4797
20
23.5798
11
89.5791
21
24.0666
0
LINE
8
BLACK
6
CONTINUOUS
10
89.5791
20
24.0666
11
89.7173
21
24.5439
0
LINE
8
BLACK
6
CONTINUOUS
10
89.7173
20
24.5439
11
89.8935
21
25.0085
0
LINE
8
BLACK
6
CONTINUOUS
10
89.8935
20
25.0085
11
90.1066
21
25.4574
0
LINE
8
BLACK
6
CONTINUOUS
10
90.1066
20
25.4574
11
90.355
21
25.8878
0
LINE
8
BLACK
6
CONTINUOUS
10
90.355
20
25.8878
11
90.6373
21
26.2967
0
LINE
8
BLACK
6
CONTINUOUS
10
90.6373
20
26.2967
11
90.9515
21
26.6816
0
LINE
8
BLACK
6
CONTINUOUS
10
90.9515
20
26.6816
11
91.2958
21
27.04
0
LINE
8
BLACK
6
CONTINUOUS
10
91.2958
20
27.04
11
91.6677
21
27.3695
0
LINE
8
BLACK
6
CONTINUOUS
10
91.6677
20
27.3695
11
92.0649
21
27.668
0
LINE
8
BLACK
6
CONTINUOUS
10
92.0649
20
27.668
11
92.4849
21
27.9336
0
LINE
8
BLACK
6
CONTINUOUS
10
92.4849
20
27.9336
11
92.9249
21
28.1645
0
LINE
8
BLACK
6
CONTINUOUS
10
92.9249
20
28.1645
11
93.382
21
28.3592
0
LINE
8
BLACK
6
CONTINUOUS
10
93.382
20
28.3592
11
93.8533
21
28.5166
0
LINE
8
BLACK
6
CONTINUOUS
10
93.8533
20
28.5166
11
94.3358
21
28.6355
0
LINE
8
BLACK
6
CONTINUOUS
10
94.3358
20
28.6355
11
94.8263
21
28.7152
0
LINE
8
BLACK
6
CONTINUOUS
10
94.8263
20
28.7152
11
95.3216
21
28.7552
0
LINE
8
BLACK
6
CONTINUOUS
10
95.3216
20
28.7552
11
95.8184
21
28.7552
0
LINE
8
BLACK
6
CONTINUOUS
10
95.8184
20
28.7552
11
96.3137
21
28.7152
0
LINE
8
BLACK
6
CONTINUOUS
10
49.4365
20
19.7051
11
49.5742
21
19.6665
0
LINE
8
BLACK
6
CONTINUOUS
10
49.5742
20
19.6665
11
49.6963
21
19.5922
0
LINE
8
BLACK
6
CONTINUOUS
10
49.6963
20
19.5922
11
49.7939
21
19.4878
0
LINE
8
BLACK
6
CONTINUOUS
10
49.7939
20
19.4878
11
49.8597
21
19.3608
0
LINE
8
BLACK
6
CONTINUOUS
10
49.8597
20
19.3608
11
49.8888
21
19.2208
0
LINE
8
BLACK
6
CONTINUOUS
10
49.8888
20
19.2208
11
49.879
21
19.0782
0
LINE
8
BLACK
6
CONTINUOUS
10
49.879
20
19.0782
11
49.8311
21
18.9435
0
LINE
8
BLACK
6
CONTINUOUS
10
49.8311
20
18.9435
11
49.7487
21
18.8267
0
LINE
8
BLACK
6
CONTINUOUS
10
49.7487
20
18.8267
11
49.6378
21
18.7364
0
LINE
8
BLACK
6
CONTINUOUS
10
49.6378
20
18.7364
11
49.5066
21
18.6795
0
LINE
8
BLACK
6
CONTINUOUS
10
49.5066
20
18.6795
11
49.365
21
18.66
0
LINE
8
BLACK
6
CONTINUOUS
10
49.365
20
18.66
11
48.915
21
18.66
0
LINE
8
BLACK
6
CONTINUOUS
10
48.915
20
18.66
11
48.8435
21
18.6649
0
LINE
8
BLACK
6
CONTINUOUS
10
48.8435
20
18.6649
11
48.7058
21
18.7035
0
LINE
8
BLACK
6
CONTINUOUS
10
48.7058
20
18.7035
11
48.5837
21
18.7778
0
LINE
8
BLACK
6
CONTINUOUS
10
48.5837
20
18.7778
11
48.4861
21
18.8822
0
LINE
8
BLACK
6
CONTINUOUS
10
48.4861
20
18.8822
11
48.4203
21
19.0092
0
LINE
8
BLACK
6
CONTINUOUS
10
48.4203
20
19.0092
11
48.3912
21
19.1492
0
LINE
8
BLACK
6
CONTINUOUS
10
48.3912
20
19.1492
11
48.401
21
19.2918
0
LINE
8
BLACK
6
CONTINUOUS
10
48.401
20
19.2918
11
48.4489
21
19.4265
0
LINE
8
BLACK
6
CONTINUOUS
10
48.4489
20
19.4265
11
48.5313
21
19.5433
0
LINE
8
BLACK
6
CONTINUOUS
10
48.5313
20
19.5433
11
48.6422
21
19.6336
0
LINE
8
BLACK
6
CONTINUOUS
10
48.6422
20
19.6336
11
48.7734
21
19.6905
0
LINE
8
BLACK
6
CONTINUOUS
10
48.7734
20
19.6905
11
48.915
21
19.71
0
LINE
8
BLACK
6
CONTINUOUS
10
48.915
20
19.71
11
49.365
21
19.71
0
LINE
8
BLACK
6
CONTINUOUS
10
49.365
20
19.71
11
49.4365
21
19.7051
0
LINE
8
BLACK
6
CONTINUOUS
10
73.7551
20
21.5608
11
73.9427
21
21.5039
0
LINE
8
BLACK
6
CONTINUOUS
10
73.9427
20
21.5039
11
74.1156
21
21.4115
0
LINE
8
BLACK
6
CONTINUOUS
10
74.1156
20
21.4115
11
74.2671
21
21.2871
0
LINE
8
BLACK
6
CONTINUOUS
10
74.2671
20
21.2871
11
74.3915
21
21.1356
0
LINE
8
BLACK
6
CONTINUOUS
10
74.3915
20
21.1356
11
74.4839
21
20.9627
0
LINE
8
BLACK
6
CONTINUOUS
10
74.4839
20
20.9627
11
74.5408
21
20.7751
0
LINE
8
BLACK
6
CONTINUOUS
10
74.5408
20
20.7751
11
74.56
21
20.58
0
LINE
8
BLACK
6
CONTINUOUS
10
74.56
20
20.58
11
74.5408
21
20.3849
0
LINE
8
BLACK
6
CONTINUOUS
10
74.5408
20
20.3849
11
74.4839
21
20.1973
0
LINE
8
BLACK
6
CONTINUOUS
10
74.4839
20
20.1973
11
74.3915
21
20.0244
0
LINE
8
BLACK
6
CONTINUOUS
10
74.3915
20
20.0244
11
74.2671
21
19.8729
0
LINE
8
BLACK
6
CONTINUOUS
10
74.2671
20
19.8729
11
74.1156
21
19.7485
0
LINE
8
BLACK
6
CONTINUOUS
10
74.1156
20
19.7485
11
73.9427
21
19.6561
0
LINE
8
BLACK
6
CONTINUOUS
10
73.9427
20
19.6561
11
73.7551
21
19.5992
0
LINE
8
BLACK
6
CONTINUOUS
10
73.7551
20
19.5992
11
73.56
21
19.58
0
LINE
8
BLACK
6
CONTINUOUS
10
73.56
20
19.58
11
73.3649
21
19.5992
0
LINE
8
BLACK
6
CONTINUOUS
10
73.3649
20
19.5992
11
73.1773
21
19.6561
0
LINE
8
BLACK
6
CONTINUOUS
10
73.1773
20
19.6561
11
73.0044
21
19.7485
0
LINE
8
BLACK
6
CONTINUOUS
10
73.0044
20
19.7485
11
72.8529
21
19.8729
0
LINE
8
BLACK
6
CONTINUOUS
10
72.8529
20
19.8729
11
72.7285
21
20.0244
0
LINE
8
BLACK
6
CONTINUOUS
10
72.7285
20
20.0244
11
72.6361
21
20.1973
0
LINE
8
BLACK
6
CONTINUOUS
10
72.6361
20
20.1973
11
72.5792
21
20.3849
0
LINE
8
BLACK
6
CONTINUOUS
10
72.5792
20
20.3849
11
72.56
21
20.58
0
LINE
8
BLACK
6
CONTINUOUS
10
72.56
20
20.58
11
72.5792
21
20.7751
0
LINE
8
BLACK
6
CONTINUOUS
10
72.5792
20
20.7751
11
72.6361
21
20.9627
0
LINE
8
BLACK
6
CONTINUOUS
10
72.6361
20
20.9627
11
72.7285
21
21.1356
0
LINE
8
BLACK
6
CONTINUOUS
10
72.7285
20
21.1356
11
72.8529
21
21.2871
0
LINE
8
BLACK
6
CONTINUOUS
10
72.8529
20
21.2871
11
73.0044
21
21.4115
0
LINE
8
BLACK
6
CONTINUOUS
10
73.0044
20
21.4115
11
73.1773
21
21.5039
0
LINE
8
BLACK
6
CONTINUOUS
10
73.1773
20
21.5039
11
73.3649
21
21.5608
0
LINE
8
BLACK
6
CONTINUOUS
10
73.3649
20
21.5608
11
73.56
21
21.58
0
LINE
8
BLACK
6
CONTINUOUS
10
73.56
20
21.58
11
73.7551
21
21.5608
0
LINE
8
BLACK
6
CONTINUOUS
10
79.75
20
19.6
11
77.75
21
19.6
0
LINE
8
BLACK
6
CONTINUOUS
10
77.75
20
19.6
11
77.75
21
21.6
0
LINE
8
BLACK
6
CONTINUOUS
10
77.75
20
21.6
11
79.75
21
21.6
0
LINE
8
BLACK
6
CONTINUOUS
10
79.75
20
21.6
11
79.75
21
19.6
0
LINE
8
BLACK
6
CONTINUOUS
10
76.3551
20
21.5808
11
76.5427
21
21.5239
0
LINE
8
BLACK
6
CONTINUOUS
10
76.5427
20
21.5239
11
76.7156
21
21.4315
0
LINE
8
BLACK
6
CONTINUOUS
10
76.7156
20
21.4315
11
76.8671
21
21.3071
0
LINE
8
BLACK
6
CONTINUOUS
10
76.8671
20
21.3071
11
76.9915
21
21.1556
0
LINE
8
BLACK
6
CONTINUOUS
10
76.9915
20
21.1556
11
77.0839
21
20.9827
0
LINE
8
BLACK
6
CONTINUOUS
10
77.0839
20
20.9827
11
77.1408
21
20.7951
0
LINE
8
BLACK
6
CONTINUOUS
10
77.1408
20
20.7951
11
77.16
21
20.6
0
LINE
8
BLACK
6
CONTINUOUS
10
77.16
20
20.6
11
77.1408
21
20.4049
0
LINE
8
BLACK
6
CONTINUOUS
10
77.1408
20
20.4049
11
77.0839
21
20.2173
0
LINE
8
BLACK
6
CONTINUOUS
10
77.0839
20
20.2173
11
76.9915
21
20.0444
0
LINE
8
BLACK
6
CONTINUOUS
10
76.9915
20
20.0444
11
76.8671
21
19.8929
0
LINE
8
BLACK
6
CONTINUOUS
10
76.8671
20
19.8929
11
76.7156
21
19.7685
0
LINE
8
BLACK
6
CONTINUOUS
10
76.7156
20
19.7685
11
76.5427
21
19.6761
0
LINE
8
BLACK
6
CONTINUOUS
10
76.5427
20
19.6761
11
76.3551
21
19.6192
0
LINE
8
BLACK
6
CONTINUOUS
10
76.3551
20
19.6192
11
76.16
21
19.6
0
LINE
8
BLACK
6
CONTINUOUS
10
76.16
20
19.6
11
75.9649
21
19.6192
0
LINE
8
BLACK
6
CONTINUOUS
10
75.9649
20
19.6192
11
75.7773
21
19.6761
0
LINE
8
BLACK
6
CONTINUOUS
10
75.7773
20
19.6761
11
75.6044
21
19.7685
0
LINE
8
BLACK
6
CONTINUOUS
10
75.6044
20
19.7685
11
75.4529
21
19.8929
0
LINE
8
BLACK
6
CONTINUOUS
10
75.4529
20
19.8929
11
75.3285
21
20.0444
0
LINE
8
BLACK
6
CONTINUOUS
10
75.3285
20
20.0444
11
75.2361
21
20.2173
0
LINE
8
BLACK
6
CONTINUOUS
10
75.2361
20
20.2173
11
75.1792
21
20.4049
0
LINE
8
BLACK
6
CONTINUOUS
10
75.1792
20
20.4049
11
75.16
21
20.6
0
LINE
8
BLACK
6
CONTINUOUS
10
75.16
20
20.6
11
75.1792
21
20.7951
0
LINE
8
BLACK
6
CONTINUOUS
10
75.1792
20
20.7951
11
75.2361
21
20.9827
0
LINE
8
BLACK
6
CONTINUOUS
10
75.2361
20
20.9827
11
75.3285
21
21.1556
0
LINE
8
BLACK
6
CONTINUOUS
10
75.3285
20
21.1556
11
75.4529
21
21.3071
0
LINE
8
BLACK
6
CONTINUOUS
10
75.4529
20
21.3071
11
75.6044
21
21.4315
0
LINE
8
BLACK
6
CONTINUOUS
10
75.6044
20
21.4315
11
75.7773
21
21.5239
0
LINE
8
BLACK
6
CONTINUOUS
10
75.7773
20
21.5239
11
75.9649
21
21.5808
0
LINE
8
BLACK
6
CONTINUOUS
10
75.9649
20
21.5808
11
76.16
21
21.6
0
LINE
8
BLACK
6
CONTINUOUS
10
76.16
20
21.6
11
76.3551
21
21.5808
0
LINE
8
BLACK
6
CONTINUOUS
10
37.9125
20
19.655
11
36.0075
21
19.655
0
LINE
8
BLACK
6
CONTINUOUS
10
36.0075
20
19.655
11
36.0075
21
21.655
0
LINE
8
BLACK
6
CONTINUOUS
10
36.0075
20
21.655
11
37.9125
21
21.655
0
LINE
8
BLACK
6
CONTINUOUS
10
37.9125
20
21.655
11
37.9125
21
19.655
0
LINE
8
BLACK
6
CONTINUOUS
10
42.1842
20
21.644
11
42.3708
21
21.5957
0
LINE
8
BLACK
6
CONTINUOUS
10
42.3708
20
21.5957
11
42.5438
21
21.5108
0
LINE
8
BLACK
6
CONTINUOUS
10
42.5438
20
21.5108
11
42.6962
21
21.3929
0
LINE
8
BLACK
6
CONTINUOUS
10
42.6962
20
21.3929
11
42.8218
21
21.2466
0
LINE
8
BLACK
6
CONTINUOUS
10
42.8218
20
21.2466
11
42.9153
21
21.0781
0
LINE
8
BLACK
6
CONTINUOUS
10
42.9153
20
21.0781
11
42.973
21
20.8942
0
LINE
8
BLACK
6
CONTINUOUS
10
42.973
20
20.8942
11
42.9925
21
20.7025
0
LINE
8
BLACK
6
CONTINUOUS
10
42.9925
20
20.7025
11
42.9925
21
20.6075
0
LINE
8
BLACK
6
CONTINUOUS
10
42.9925
20
20.6075
11
42.9876
21
20.5111
0
LINE
8
BLACK
6
CONTINUOUS
10
42.9876
20
20.5111
11
42.9488
21
20.3224
0
LINE
8
BLACK
6
CONTINUOUS
10
42.9488
20
20.3224
11
42.8728
21
20.1453
0
LINE
8
BLACK
6
CONTINUOUS
10
42.8728
20
20.1453
11
42.7627
21
19.9871
0
LINE
8
BLACK
6
CONTINUOUS
10
42.7627
20
19.9871
11
42.623
21
19.8543
0
LINE
8
BLACK
6
CONTINUOUS
10
42.623
20
19.8543
11
42.4595
21
19.7523
0
LINE
8
BLACK
6
CONTINUOUS
10
42.4595
20
19.7523
11
42.2787
21
19.6854
0
LINE
8
BLACK
6
CONTINUOUS
10
42.2787
20
19.6854
11
42.0882
21
19.6562
0
LINE
8
BLACK
6
CONTINUOUS
10
42.0882
20
19.6562
11
41.8958
21
19.666
0
LINE
8
BLACK
6
CONTINUOUS
10
41.8958
20
19.666
11
41.7092
21
19.7143
0
LINE
8
BLACK
6
CONTINUOUS
10
41.7092
20
19.7143
11
41.5362
21
19.7992
0
LINE
8
BLACK
6
CONTINUOUS
10
41.5362
20
19.7992
11
41.3838
21
19.9171
0
LINE
8
BLACK
6
CONTINUOUS
10
41.3838
20
19.9171
11
41.2582
21
20.0634
0
LINE
8
BLACK
6
CONTINUOUS
10
41.2582
20
20.0634
11
41.1647
21
20.2319
0
LINE
8
BLACK
6
CONTINUOUS
10
41.1647
20
20.2319
11
41.107
21
20.4158
0
LINE
8
BLACK
6
CONTINUOUS
10
41.107
20
20.4158
11
41.0875
21
20.6075
0
LINE
8
BLACK
6
CONTINUOUS
10
41.0875
20
20.6075
11
41.0875
21
20.7025
0
LINE
8
BLACK
6
CONTINUOUS
10
41.0875
20
20.7025
11
41.0924
21
20.7989
0
LINE
8
BLACK
6
CONTINUOUS
10
41.0924
20
20.7989
11
41.1312
21
20.9876
0
LINE
8
BLACK
6
CONTINUOUS
10
41.1312
20
20.9876
11
41.2072
21
21.1647
0
LINE
8
BLACK
6
CONTINUOUS
10
41.2072
20
21.1647
11
41.3173
21
21.3229
0
LINE
8
BLACK
6
CONTINUOUS
10
41.3173
20
21.3229
11
41.457
21
21.4557
0
LINE
8
BLACK
6
CONTINUOUS
10
41.457
20
21.4557
11
41.6205
21
21.5577
0
LINE
8
BLACK
6
CONTINUOUS
10
41.6205
20
21.5577
11
41.8013
21
21.6246
0
LINE
8
BLACK
6
CONTINUOUS
10
41.8013
20
21.6246
11
41.9918
21
21.6538
0
LINE
8
BLACK
6
CONTINUOUS
10
41.9918
20
21.6538
11
42.1842
21
21.644
0
LINE
8
BLACK
6
CONTINUOUS
10
39.6442
20
21.644
11
39.8308
21
21.5957
0
LINE
8
BLACK
6
CONTINUOUS
10
39.8308
20
21.5957
11
40.0038
21
21.5108
0
LINE
8
BLACK
6
CONTINUOUS
10
40.0038
20
21.5108
11
40.1562
21
21.3929
0
LINE
8
BLACK
6
CONTINUOUS
10
40.1562
20
21.3929
11
40.2818
21
21.2466
0
LINE
8
BLACK
6
CONTINUOUS
10
40.2818
20
21.2466
11
40.3753
21
21.0781
0
LINE
8
BLACK
6
CONTINUOUS
10
40.3753
20
21.0781
11
40.433
21
20.8942
0
LINE
8
BLACK
6
CONTINUOUS
10
40.433
20
20.8942
11
40.4525
21
20.7025
0
LINE
8
BLACK
6
CONTINUOUS
10
40.4525
20
20.7025
11
40.4525
21
20.6075
0
LINE
8
BLACK
6
CONTINUOUS
10
40.4525
20
20.6075
11
40.4476
21
20.5111
0
LINE
8
BLACK
6
CONTINUOUS
10
40.4476
20
20.5111
11
40.4088
21
20.3224
0
LINE
8
BLACK
6
CONTINUOUS
10
40.4088
20
20.3224
11
40.3328
21
20.1453
0
LINE
8
BLACK
6
CONTINUOUS
10
40.3328
20
20.1453
11
40.2227
21
19.9871
0
LINE
8
BLACK
6
CONTINUOUS
10
40.2227
20
19.9871
11
40.083
21
19.8543
0
LINE
8
BLACK
6
CONTINUOUS
10
40.083
20
19.8543
11
39.9195
21
19.7523
0
LINE
8
BLACK
6
CONTINUOUS
10
39.9195
20
19.7523
11
39.7387
21
19.6854
0
LINE
8
BLACK
6
CONTINUOUS
10
39.7387
20
19.6854
11
39.5482
21
19.6562
0
LINE
8
BLACK
6
CONTINUOUS
10
39.5482
20
19.6562
11
39.3558
21
19.666
0
LINE
8
BLACK
6
CONTINUOUS
10
39.3558
20
19.666
11
39.1692
21
19.7143
0
LINE
8
BLACK
6
CONTINUOUS
10
39.1692
20
19.7143
11
38.9962
21
19.7992
0
LINE
8
BLACK
6
CONTINUOUS
10
38.9962
20
19.7992
11
38.8438
21
19.9171
0
LINE
8
BLACK
6
CONTINUOUS
10
38.8438
20
19.9171
11
38.7182
21
20.0634
0
LINE
8
BLACK
6
CONTINUOUS
10
38.7182
20
20.0634
11
38.6247
21
20.2319
0
LINE
8
BLACK
6
CONTINUOUS
10
38.6247
20
20.2319
11
38.567
21
20.4158
0
LINE
8
BLACK
6
CONTINUOUS
10
38.567
20
20.4158
11
38.5475
21
20.6075
0
LINE
8
BLACK
6
CONTINUOUS
10
38.5475
20
20.6075
11
38.5475
21
20.7025
0
LINE
8
BLACK
6
CONTINUOUS
10
38.5475
20
20.7025
11
38.5524
21
20.7989
0
LINE
8
BLACK
6
CONTINUOUS
10
38.5524
20
20.7989
11
38.5912
21
20.9876
0
LINE
8
BLACK
6
CONTINUOUS
10
38.5912
20
20.9876
11
38.6672
21
21.1647
0
LINE
8
BLACK
6
CONTINUOUS
10
38.6672
20
21.1647
11
38.7773
21
21.3229
0
LINE
8
BLACK
6
CONTINUOUS
10
38.7773
20
21.3229
11
38.917
21
21.4557
0
LINE
8
BLACK
6
CONTINUOUS
10
38.917
20
21.4557
11
39.0805
21
21.5577
0
LINE
8
BLACK
6
CONTINUOUS
10
39.0805
20
21.5577
11
39.2613
21
21.6246
0
LINE
8
BLACK
6
CONTINUOUS
10
39.2613
20
21.6246
11
39.4518
21
21.6538
0
LINE
8
BLACK
6
CONTINUOUS
10
39.4518
20
21.6538
11
39.6442
21
21.644
0
LINE
8
BLACK
6
CONTINUOUS
10
49.4365
20
20.9751
11
49.5742
21
20.9365
0
LINE
8
BLACK
6
CONTINUOUS
10
49.5742
20
20.9365
11
49.6963
21
20.8622
0
LINE
8
BLACK
6
CONTINUOUS
10
49.6963
20
20.8622
11
49.7939
21
20.7578
0
LINE
8
BLACK
6
CONTINUOUS
10
49.7939
20
20.7578
11
49.8597
21
20.6308
0
LINE
8
BLACK
6
CONTINUOUS
10
49.8597
20
20.6308
11
49.8888
21
20.4908
0
LINE
8
BLACK
6
CONTINUOUS
10
49.8888
20
20.4908
11
49.879
21
20.3482
0
LINE
8
BLACK
6
CONTINUOUS
10
49.879
20
20.3482
11
49.8311
21
20.2135
0
LINE
8
BLACK
6
CONTINUOUS
10
49.8311
20
20.2135
11
49.7487
21
20.0967
0
LINE
8
BLACK
6
CONTINUOUS
10
49.7487
20
20.0967
11
49.6378
21
20.0064
0
LINE
8
BLACK
6
CONTINUOUS
10
49.6378
20
20.0064
11
49.5066
21
19.9495
0
LINE
8
BLACK
6
CONTINUOUS
10
49.5066
20
19.9495
11
49.365
21
19.93
0
LINE
8
BLACK
6
CONTINUOUS
10
49.365
20
19.93
11
48.915
21
19.93
0
LINE
8
BLACK
6
CONTINUOUS
10
48.915
20
19.93
11
48.8435
21
19.9349
0
LINE
8
BLACK
6
CONTINUOUS
10
48.8435
20
19.9349
11
48.7058
21
19.9735
0
LINE
8
BLACK
6
CONTINUOUS
10
48.7058
20
19.9735
11
48.5837
21
20.0478
0
LINE
8
BLACK
6
CONTINUOUS
10
48.5837
20
20.0478
11
48.4861
21
20.1522
0
LINE
8
BLACK
6
CONTINUOUS
10
48.4861
20
20.1522
11
48.4203
21
20.2792
0
LINE
8
BLACK
6
CONTINUOUS
10
48.4203
20
20.2792
11
48.3912
21
20.4192
0
LINE
8
BLACK
6
CONTINUOUS
10
48.3912
20
20.4192
11
48.401
21
20.5618
0
LINE
8
BLACK
6
CONTINUOUS
10
48.401
20
20.5618
11
48.4489
21
20.6965
0
LINE
8
BLACK
6
CONTINUOUS
10
48.4489
20
20.6965
11
48.5313
21
20.8133
0
LINE
8
BLACK
6
CONTINUOUS
10
48.5313
20
20.8133
11
48.6422
21
20.9036
0
LINE
8
BLACK
6
CONTINUOUS
10
48.6422
20
20.9036
11
48.7734
21
20.9605
0
LINE
8
BLACK
6
CONTINUOUS
10
48.7734
20
20.9605
11
48.915
21
20.98
0
LINE
8
BLACK
6
CONTINUOUS
10
48.915
20
20.98
11
49.365
21
20.98
0
LINE
8
BLACK
6
CONTINUOUS
10
49.365
20
20.98
11
49.4365
21
20.9751
0
LINE
8
BLACK
6
CONTINUOUS
10
62.0602
20
21.8269
11
62.2124
21
21.7737
0
LINE
8
BLACK
6
CONTINUOUS
10
62.2124
20
21.7737
11
62.3489
21
21.6879
0
LINE
8
BLACK
6
CONTINUOUS
10
62.3489
20
21.6879
11
62.4629
21
21.5739
0
LINE
8
BLACK
6
CONTINUOUS
10
62.4629
20
21.5739
11
62.5487
21
21.4374
0
LINE
8
BLACK
6
CONTINUOUS
10
62.5487
20
21.4374
11
62.6019
21
21.2852
0
LINE
8
BLACK
6
CONTINUOUS
10
62.6019
20
21.2852
11
62.62
21
21.125
0
LINE
8
BLACK
6
CONTINUOUS
10
62.62
20
21.125
11
62.6019
21
20.9648
0
LINE
8
BLACK
6
CONTINUOUS
10
62.6019
20
20.9648
11
62.5487
21
20.8126
0
LINE
8
BLACK
6
CONTINUOUS
10
62.5487
20
20.8126
11
62.4629
21
20.6761
0
LINE
8
BLACK
6
CONTINUOUS
10
62.4629
20
20.6761
11
62.3489
21
20.5621
0
LINE
8
BLACK
6
CONTINUOUS
10
62.3489
20
20.5621
11
62.2124
21
20.4763
0
LINE
8
BLACK
6
CONTINUOUS
10
62.2124
20
20.4763
11
62.0602
21
20.4231
0
LINE
8
BLACK
6
CONTINUOUS
10
62.0602
20
20.4231
11
61.9
21
20.405
0
LINE
8
BLACK
6
CONTINUOUS
10
61.9
20
20.405
11
61.7398
21
20.4231
0
LINE
8
BLACK
6
CONTINUOUS
10
61.7398
20
20.4231
11
61.5876
21
20.4763
0
LINE
8
BLACK
6
CONTINUOUS
10
61.5876
20
20.4763
11
61.4511
21
20.5621
0
LINE
8
BLACK
6
CONTINUOUS
10
61.4511
20
20.5621
11
61.3371
21
20.6761
0
LINE
8
BLACK
6
CONTINUOUS
10
61.3371
20
20.6761
11
61.2513
21
20.8126
0
LINE
8
BLACK
6
CONTINUOUS
10
61.2513
20
20.8126
11
61.1981
21
20.9648
0
LINE
8
BLACK
6
CONTINUOUS
10
61.1981
20
20.9648
11
61.18
21
21.125
0
LINE
8
BLACK
6
CONTINUOUS
10
61.18
20
21.125
11
61.1981
21
21.2852
0
LINE
8
BLACK
6
CONTINUOUS
10
61.1981
20
21.2852
11
61.2513
21
21.4374
0
LINE
8
BLACK
6
CONTINUOUS
10
61.2513
20
21.4374
11
61.3371
21
21.5739
0
LINE
8
BLACK
6
CONTINUOUS
10
61.3371
20
21.5739
11
61.4511
21
21.6879
0
LINE
8
BLACK
6
CONTINUOUS
10
61.4511
20
21.6879
11
61.5876
21
21.7737
0
LINE
8
BLACK
6
CONTINUOUS
10
61.5876
20
21.7737
11
61.7398
21
21.8269
0
LINE
8
BLACK
6
CONTINUOUS
10
61.7398
20
21.8269
11
61.9
21
21.845
0
LINE
8
BLACK
6
CONTINUOUS
10
61.9
20
21.845
11
62.0602
21
21.8269
0
LINE
8
BLACK
6
CONTINUOUS
10
49.89
20
21.2
11
48.39
21
21.2
0
LINE
8
BLACK
6
CONTINUOUS
10
48.39
20
21.2
11
48.39
21
22.25
0
LINE
8
BLACK
6
CONTINUOUS
10
48.39
20
22.25
11
49.89
21
22.25
0
LINE
8
BLACK
6
CONTINUOUS
10
49.89
20
22.25
11
49.89
21
21.2
0
LINE
8
BLACK
6
CONTINUOUS
10
82.0203
20
26.5638
11
82.1941
21
26.4864
0
LINE
8
BLACK
6
CONTINUOUS
10
82.1941
20
26.4864
11
82.348
21
26.3746
0
LINE
8
BLACK
6
CONTINUOUS
10
82.348
20
26.3746
11
82.4753
21
26.2332
0
LINE
8
BLACK
6
CONTINUOUS
10
82.4753
20
26.2332
11
82.5704
21
26.0685
0
LINE
8
BLACK
6
CONTINUOUS
10
82.5704
20
26.0685
11
82.6292
21
25.8875
0
LINE
8
BLACK
6
CONTINUOUS
10
82.6292
20
25.8875
11
82.6491
21
25.6983
0
LINE
8
BLACK
6
CONTINUOUS
10
82.6491
20
25.6983
11
82.6292
21
25.5091
0
LINE
8
BLACK
6
CONTINUOUS
10
82.6292
20
25.5091
11
82.5704
21
25.3282
0
LINE
8
BLACK
6
CONTINUOUS
10
82.5704
20
25.3282
11
82.4753
21
25.1634
0
LINE
8
BLACK
6
CONTINUOUS
10
82.4753
20
25.1634
11
82.348
21
25.022
0
LINE
8
BLACK
6
CONTINUOUS
10
82.348
20
25.022
11
82.1941
21
24.9102
0
LINE
8
BLACK
6
CONTINUOUS
10
82.1941
20
24.9102
11
82.0203
21
24.8328
0
LINE
8
BLACK
6
CONTINUOUS
10
82.0203
20
24.8328
11
81.8342
21
24.7932
0
LINE
8
BLACK
6
CONTINUOUS
10
81.8342
20
24.7932
11
81.6439
21
24.7932
0
LINE
8
BLACK
6
CONTINUOUS
10
81.6439
20
24.7932
11
81.4578
21
24.8328
0
LINE
8
BLACK
6
CONTINUOUS
10
81.4578
20
24.8328
11
81.284
21
24.9102
0
LINE
8
BLACK
6
CONTINUOUS
10
81.284
20
24.9102
11
81.1301
21
25.022
0
LINE
8
BLACK
6
CONTINUOUS
10
81.1301
20
25.022
11
81.0028
21
25.1634
0
LINE
8
BLACK
6
CONTINUOUS
10
81.0028
20
25.1634
11
80.9077
21
25.3282
0
LINE
8
BLACK
6
CONTINUOUS
10
80.9077
20
25.3282
11
80.8489
21
25.5091
0
LINE
8
BLACK
6
CONTINUOUS
10
80.8489
20
25.5091
11
80.829
21
25.6983
0
LINE
8
BLACK
6
CONTINUOUS
10
80.829
20
25.6983
11
80.8489
21
25.8875
0
LINE
8
BLACK
6
CONTINUOUS
10
80.8489
20
25.8875
11
80.9077
21
26.0685
0
LINE
8
BLACK
6
CONTINUOUS
10
80.9077
20
26.0685
11
81.0028
21
26.2332
0
LINE
8
BLACK
6
CONTINUOUS
10
81.0028
20
26.2332
11
81.1301
21
26.3746
0
LINE
8
BLACK
6
CONTINUOUS
10
81.1301
20
26.3746
11
81.284
21
26.4864
0
LINE
8
BLACK
6
CONTINUOUS
10
81.284
20
26.4864
11
81.4578
21
26.5638
0
LINE
8
BLACK
6
CONTINUOUS
10
81.4578
20
26.5638
11
81.6439
21
26.6034
0
LINE
8
BLACK
6
CONTINUOUS
10
81.6439
20
26.6034
11
81.8342
21
26.6034
0
LINE
8
BLACK
6
CONTINUOUS
10
81.8342
20
26.6034
11
82.0203
21
26.5638
0
LINE
8
BLACK
6
CONTINUOUS
10
66.9903
20
26.5838
11
67.1641
21
26.5064
0
LINE
8
BLACK
6
CONTINUOUS
10
67.1641
20
26.5064
11
67.318
21
26.3946
0
LINE
8
BLACK
6
CONTINUOUS
10
67.318
20
26.3946
11
67.4453
21
26.2532
0
LINE
8
BLACK
6
CONTINUOUS
10
67.4453
20
26.2532
11
67.5404
21
26.0885
0
LINE
8
BLACK
6
CONTINUOUS
10
67.5404
20
26.0885
11
67.5992
21
25.9075
0
LINE
8
BLACK
6
CONTINUOUS
10
67.5992
20
25.9075
11
67.6191
21
25.7183
0
LINE
8
BLACK
6
CONTINUOUS
10
67.6191
20
25.7183
11
67.5992
21
25.5291
0
LINE
8
BLACK
6
CONTINUOUS
10
67.5992
20
25.5291
11
67.5404
21
25.3482
0
LINE
8
BLACK
6
CONTINUOUS
10
67.5404
20
25.3482
11
67.4453
21
25.1834
0
LINE
8
BLACK
6
CONTINUOUS
10
67.4453
20
25.1834
11
67.318
21
25.042
0
LINE
8
BLACK
6
CONTINUOUS
10
67.318
20
25.042
11
67.1641
21
24.9302
0
LINE
8
BLACK
6
CONTINUOUS
10
67.1641
20
24.9302
11
66.9903
21
24.8528
0
LINE
8
BLACK
6
CONTINUOUS
10
66.9903
20
24.8528
11
66.8042
21
24.8132
0
LINE
8
BLACK
6
CONTINUOUS
10
66.8042
20
24.8132
11
66.6139
21
24.8132
0
LINE
8
BLACK
6
CONTINUOUS
10
66.6139
20
24.8132
11
66.4278
21
24.8528
0
LINE
8
BLACK
6
CONTINUOUS
10
66.4278
20
24.8528
11
66.254
21
24.9302
0
LINE
8
BLACK
6
CONTINUOUS
10
66.254
20
24.9302
11
66.1001
21
25.042
0
LINE
8
BLACK
6
CONTINUOUS
10
66.1001
20
25.042
11
65.9728
21
25.1834
0
LINE
8
BLACK
6
CONTINUOUS
10
65.9728
20
25.1834
11
65.8777
21
25.3482
0
LINE
8
BLACK
6
CONTINUOUS
10
65.8777
20
25.3482
11
65.8189
21
25.5291
0
LINE
8
BLACK
6
CONTINUOUS
10
65.8189
20
25.5291
11
65.799
21
25.7183
0
LINE
8
BLACK
6
CONTINUOUS
10
65.799
20
25.7183
11
65.8189
21
25.9075
0
LINE
8
BLACK
6
CONTINUOUS
10
65.8189
20
25.9075
11
65.8777
21
26.0885
0
LINE
8
BLACK
6
CONTINUOUS
10
65.8777
20
26.0885
11
65.9728
21
26.2532
0
LINE
8
BLACK
6
CONTINUOUS
10
65.9728
20
26.2532
11
66.1001
21
26.3946
0
LINE
8
BLACK
6
CONTINUOUS
10
66.1001
20
26.3946
11
66.254
21
26.5064
0
LINE
8
BLACK
6
CONTINUOUS
10
66.254
20
26.5064
11
66.4278
21
26.5838
0
LINE
8
BLACK
6
CONTINUOUS
10
66.4278
20
26.5838
11
66.6139
21
26.6234
0
LINE
8
BLACK
6
CONTINUOUS
10
66.6139
20
26.6234
11
66.8042
21
26.6234
0
LINE
8
BLACK
6
CONTINUOUS
10
66.8042
20
26.6234
11
66.9903
21
26.5838
0
LINE
8
BLACK
6
CONTINUOUS
10
48.8903
20
26.6638
11
49.0641
21
26.5864
0
LINE
8
BLACK
6
CONTINUOUS
10
49.0641
20
26.5864
11
49.218
21
26.4746
0
LINE
8
BLACK
6
CONTINUOUS
10
49.218
20
26.4746
11
49.3453
21
26.3332
0
LINE
8
BLACK
6
CONTINUOUS
10
49.3453
20
26.3332
11
49.4404
21
26.1685
0
LINE
8
BLACK
6
CONTINUOUS
10
49.4404
20
26.1685
11
49.4992
21
25.9875
0
LINE
8
BLACK
6
CONTINUOUS
10
49.4992
20
25.9875
11
49.5191
21
25.7983
0
LINE
8
BLACK
6
CONTINUOUS
10
49.5191
20
25.7983
11
49.4992
21
25.6091
0
LINE
8
BLACK
6
CONTINUOUS
10
49.4992
20
25.6091
11
49.4404
21
25.4282
0
LINE
8
BLACK
6
CONTINUOUS
10
49.4404
20
25.4282
11
49.3453
21
25.2634
0
LINE
8
BLACK
6
CONTINUOUS
10
49.3453
20
25.2634
11
49.218
21
25.122
0
LINE
8
BLACK
6
CONTINUOUS
10
49.218
20
25.122
11
49.0641
21
25.0102
0
LINE
8
BLACK
6
CONTINUOUS
10
49.0641
20
25.0102
11
48.8903
21
24.9328
0
LINE
8
BLACK
6
CONTINUOUS
10
48.8903
20
24.9328
11
48.7042
21
24.8932
0
LINE
8
BLACK
6
CONTINUOUS
10
48.7042
20
24.8932
11
48.5139
21
24.8932
0
LINE
8
BLACK
6
CONTINUOUS
10
48.5139
20
24.8932
11
48.3278
21
24.9328
0
LINE
8
BLACK
6
CONTINUOUS
10
48.3278
20
24.9328
11
48.154
21
25.0102
0
LINE
8
BLACK
6
CONTINUOUS
10
48.154
20
25.0102
11
48.0001
21
25.122
0
LINE
8
BLACK
6
CONTINUOUS
10
48.0001
20
25.122
11
47.8728
21
25.2634
0
LINE
8
BLACK
6
CONTINUOUS
10
47.8728
20
25.2634
11
47.7777
21
25.4282
0
LINE
8
BLACK
6
CONTINUOUS
10
47.7777
20
25.4282
11
47.7189
21
25.6091
0
LINE
8
BLACK
6
CONTINUOUS
10
47.7189
20
25.6091
11
47.699
21
25.7983
0
LINE
8
BLACK
6
CONTINUOUS
10
47.699
20
25.7983
11
47.7189
21
25.9875
0
LINE
8
BLACK
6
CONTINUOUS
10
47.7189
20
25.9875
11
47.7777
21
26.1685
0
LINE
8
BLACK
6
CONTINUOUS
10
47.7777
20
26.1685
11
47.8728
21
26.3332
0
LINE
8
BLACK
6
CONTINUOUS
10
47.8728
20
26.3332
11
48.0001
21
26.4746
0
LINE
8
BLACK
6
CONTINUOUS
10
48.0001
20
26.4746
11
48.154
21
26.5864
0
LINE
8
BLACK
6
CONTINUOUS
10
48.154
20
26.5864
11
48.3278
21
26.6638
0
LINE
8
BLACK
6
CONTINUOUS
10
48.3278
20
26.6638
11
48.5139
21
26.7034
0
LINE
8
BLACK
6
CONTINUOUS
10
48.5139
20
26.7034
11
48.7042
21
26.7034
0
LINE
8
BLACK
6
CONTINUOUS
10
48.7042
20
26.7034
11
48.8903
21
26.6638
0
LINE
8
BLACK
6
CONTINUOUS
10
72.3156
20
38.6392
11
72.779
21
38.5814
0
LINE
8
BLACK
6
CONTINUOUS
10
72.779
20
38.5814
11
73.2361
21
38.4856
0
LINE
8
BLACK
6
CONTINUOUS
10
73.2361
20
38.4856
11
73.6836
21
38.3523
0
LINE
8
BLACK
6
CONTINUOUS
10
73.6836
20
38.3523
11
74.1187
21
38.1826
0
LINE
8
BLACK
6
CONTINUOUS
10
74.1187
20
38.1826
11
74.5382
21
37.9775
0
LINE
8
BLACK
6
CONTINUOUS
10
74.5382
20
37.9775
11
74.9394
21
37.7384
0
LINE
8
BLACK
6
CONTINUOUS
10
74.9394
20
37.7384
11
75.3194
21
37.4671
0
LINE
8
BLACK
6
CONTINUOUS
10
75.3194
20
37.4671
11
75.6758
21
37.1653
0
LINE
8
BLACK
6
CONTINUOUS
10
75.6758
20
37.1653
11
76.006
21
36.8351
0
LINE
8
BLACK
6
CONTINUOUS
10
76.006
20
36.8351
11
76.3078
21
36.4787
0
LINE
8
BLACK
6
CONTINUOUS
10
76.3078
20
36.4787
11
76.5791
21
36.0986
0
LINE
8
BLACK
6
CONTINUOUS
10
76.5791
20
36.0986
11
76.8182
21
35.6975
0
LINE
8
BLACK
6
CONTINUOUS
10
76.8182
20
35.6975
11
77.0233
21
35.278
0
LINE
8
BLACK
6
CONTINUOUS
10
77.0233
20
35.278
11
77.193
21
34.8429
0
LINE
8
BLACK
6
CONTINUOUS
10
77.193
20
34.8429
11
77.3263
21
34.3953
0
LINE
8
BLACK
6
CONTINUOUS
10
77.3263
20
34.3953
11
77.4221
21
33.9383
0
LINE
8
BLACK
6
CONTINUOUS
10
77.4221
20
33.9383
11
77.4799
21
33.4749
0
LINE
8
BLACK
6
CONTINUOUS
10
77.4799
20
33.4749
11
77.4992
21
33.0083
0
LINE
8
BLACK
6
CONTINUOUS
10
77.4992
20
33.0083
11
77.4799
21
32.5417
0
LINE
8
BLACK
6
CONTINUOUS
10
77.4799
20
32.5417
11
77.4221
21
32.0783
0
LINE
8
BLACK
6
CONTINUOUS
10
77.4221
20
32.0783
11
77.3263
21
31.6213
0
LINE
8
BLACK
6
CONTINUOUS
10
77.3263
20
31.6213
11
77.193
21
31.1737
0
LINE
8
BLACK
6
CONTINUOUS
10
77.193
20
31.1737
11
77.0233
21
30.7387
0
LINE
8
BLACK
6
CONTINUOUS
10
77.0233
20
30.7387
11
76.8182
21
30.3191
0
LINE
8
BLACK
6
CONTINUOUS
10
76.8182
20
30.3191
11
76.5791
21
29.918
0
LINE
8
BLACK
6
CONTINUOUS
10
76.5791
20
29.918
11
76.3078
21
29.5379
0
LINE
8
BLACK
6
CONTINUOUS
10
76.3078
20
29.5379
11
76.006
21
29.1816
0
LINE
8
BLACK
6
CONTINUOUS
10
76.006
20
29.1816
11
75.6758
21
28.8514
0
LINE
8
BLACK
6
CONTINUOUS
10
75.6758
20
28.8514
11
75.3194
21
28.5496
0
LINE
8
BLACK
6
CONTINUOUS
10
75.3194
20
28.5496
11
74.9394
21
28.2782
0
LINE
8
BLACK
6
CONTINUOUS
10
74.9394
20
28.2782
11
74.5382
21
28.0392
0
LINE
8
BLACK
6
CONTINUOUS
10
74.5382
20
28.0392
11
74.1187
21
27.8341
0
LINE
8
BLACK
6
CONTINUOUS
10
74.1187
20
27.8341
11
73.6836
21
27.6643
0
LINE
8
BLACK
6
CONTINUOUS
10
73.6836
20
27.6643
11
73.2361
21
27.5311
0
LINE
8
BLACK
6
CONTINUOUS
10
73.2361
20
27.5311
11
72.779
21
27.4352
0
LINE
8
BLACK
6
CONTINUOUS
10
72.779
20
27.4352
11
72.3156
21
27.3775
0
LINE
8
BLACK
6
CONTINUOUS
10
72.3156
20
27.3775
11
71.849
21
27.3582
0
LINE
8
BLACK
6
CONTINUOUS
10
71.849
20
27.3582
11
71.3824
21
27.3775
0
LINE
8
BLACK
6
CONTINUOUS
10
71.3824
20
27.3775
11
70.919
21
27.4352
0
LINE
8
BLACK
6
CONTINUOUS
10
70.919
20
27.4352
11
70.462
21
27.5311
0
LINE
8
BLACK
6
CONTINUOUS
10
70.462
20
27.5311
11
70.0144
21
27.6643
0
LINE
8
BLACK
6
CONTINUOUS
10
70.0144
20
27.6643
11
69.5794
21
27.8341
0
LINE
8
BLACK
6
CONTINUOUS
10
69.5794
20
27.8341
11
69.1599
21
28.0392
0
LINE
8
BLACK
6
CONTINUOUS
10
69.1599
20
28.0392
11
68.7587
21
28.2782
0
LINE
8
BLACK
6
CONTINUOUS
10
68.7587
20
28.2782
11
68.3786
21
28.5496
0
LINE
8
BLACK
6
CONTINUOUS
10
68.3786
20
28.5496
11
68.0223
21
28.8514
0
LINE
8
BLACK
6
CONTINUOUS
10
68.0223
20
28.8514
11
67.6921
21
29.1816
0
LINE
8
BLACK
6
CONTINUOUS
10
67.6921
20
29.1816
11
67.3903
21
29.5379
0
LINE
8
BLACK
6
CONTINUOUS
10
67.3903
20
29.5379
11
67.1189
21
29.918
0
LINE
8
BLACK
6
CONTINUOUS
10
67.1189
20
29.918
11
66.8799
21
30.3191
0
LINE
8
BLACK
6
CONTINUOUS
10
66.8799
20
30.3191
11
66.6748
21
30.7387
0
LINE
8
BLACK
6
CONTINUOUS
10
66.6748
20
30.7387
11
66.505
21
31.1737
0
LINE
8
BLACK
6
CONTINUOUS
10
66.505
20
31.1737
11
66.3718
21
31.6213
0
LINE
8
BLACK
6
CONTINUOUS
10
66.3718
20
31.6213
11
66.276
21
32.0783
0
LINE
8
BLACK
6
CONTINUOUS
10
66.276
20
32.0783
11
66.2182
21
32.5417
0
LINE
8
BLACK
6
CONTINUOUS
10
66.2182
20
32.5417
11
66.1989
21
33.0083
0
LINE
8
BLACK
6
CONTINUOUS
10
66.1989
20
33.0083
11
66.2182
21
33.4749
0
LINE
8
BLACK
6
CONTINUOUS
10
66.2182
20
33.4749
11
66.276
21
33.9383
0
LINE
8
BLACK
6
CONTINUOUS
10
66.276
20
33.9383
11
66.3718
21
34.3953
0
LINE
8
BLACK
6
CONTINUOUS
10
66.3718
20
34.3953
11
66.505
21
34.8429
0
LINE
8
BLACK
6
CONTINUOUS
10
66.505
20
34.8429
11
66.6748
21
35.278
0
LINE
8
BLACK
6
CONTINUOUS
10
66.6748
20
35.278
11
66.8799
21
35.6975
0
LINE
8
BLACK
6
CONTINUOUS
10
66.8799
20
35.6975
11
67.1189
21
36.0986
0
LINE
8
BLACK
6
CONTINUOUS
10
67.1189
20
36.0986
11
67.3903
21
36.4787
0
LINE
8
BLACK
6
CONTINUOUS
10
67.3903
20
36.4787
11
67.6921
21
36.8351
0
LINE
8
BLACK
6
CONTINUOUS
10
67.6921
20
36.8351
11
68.0223
21
37.1653
0
LINE
8
BLACK
6
CONTINUOUS
10
68.0223
20
37.1653
11
68.3786
21
37.4671
0
LINE
8
BLACK
6
CONTINUOUS
10
68.3786
20
37.4671
11
68.7587
21
37.7384
0
LINE
8
BLACK
6
CONTINUOUS
10
68.7587
20
37.7384
11
69.1599
21
37.9775
0
LINE
8
BLACK
6
CONTINUOUS
10
69.1599
20
37.9775
11
69.5794
21
38.1826
0
LINE
8
BLACK
6
CONTINUOUS
10
69.5794
20
38.1826
11
70.0144
21
38.3523
0
LINE
8
BLACK
6
CONTINUOUS
10
70.0144
20
38.3523
11
70.462
21
38.4856
0
LINE
8
BLACK
6
CONTINUOUS
10
70.462
20
38.4856
11
70.919
21
38.5814
0
LINE
8
BLACK
6
CONTINUOUS
10
70.919
20
38.5814
11
71.3824
21
38.6392
0
LINE
8
BLACK
6
CONTINUOUS
10
71.3824
20
38.6392
11
71.849
21
38.6585
0
LINE
8
BLACK
6
CONTINUOUS
10
71.849
20
38.6585
11
72.3156
21
38.6392
0
LINE
8
BLACK
6
CONTINUOUS
10
105.375
20
30.325
11
97.665
21
30.325
0
LINE
8
BLACK
6
CONTINUOUS
10
97.665
20
30.325
11
97.665
21
38.035
0
LINE
8
BLACK
6
CONTINUOUS
10
97.665
20
38.035
11
105.375
21
38.035
0
LINE
8
BLACK
6
CONTINUOUS
10
105.375
20
38.035
11
105.375
21
30.325
0
LINE
8
BLACK
6
CONTINUOUS
10
88.4616
20
41.5182
11
88.7001
21
41.4446
0
LINE
8
BLACK
6
CONTINUOUS
10
88.7001
20
41.4446
11
88.925
21
41.3363
0
LINE
8
BLACK
6
CONTINUOUS
10
88.925
20
41.3363
11
89.1312
21
41.1957
0
LINE
8
BLACK
6
CONTINUOUS
10
89.1312
20
41.1957
11
89.3142
21
41.0259
0
LINE
8
BLACK
6
CONTINUOUS
10
89.3142
20
41.0259
11
89.4698
21
40.8308
0
LINE
8
BLACK
6
CONTINUOUS
10
89.4698
20
40.8308
11
89.5946
21
40.6146
0
LINE
8
BLACK
6
CONTINUOUS
10
89.5946
20
40.6146
11
89.6858
21
40.3822
0
LINE
8
BLACK
6
CONTINUOUS
10
89.6858
20
40.3822
11
89.7414
21
40.1389
0
LINE
8
BLACK
6
CONTINUOUS
10
89.7414
20
40.1389
11
89.76
21
39.89
0
LINE
8
BLACK
6
CONTINUOUS
10
89.76
20
39.89
11
89.7414
21
39.6411
0
LINE
8
BLACK
6
CONTINUOUS
10
89.7414
20
39.6411
11
89.6858
21
39.3977
0
LINE
8
BLACK
6
CONTINUOUS
10
89.6858
20
39.3977
11
89.5946
21
39.1654
0
LINE
8
BLACK
6
CONTINUOUS
10
89.5946
20
39.1654
11
89.4698
21
38.9492
0
LINE
8
BLACK
6
CONTINUOUS
10
89.4698
20
38.9492
11
89.3142
21
38.7541
0
LINE
8
BLACK
6
CONTINUOUS
10
89.3142
20
38.7541
11
89.1312
21
38.5843
0
LINE
8
BLACK
6
CONTINUOUS
10
89.1312
20
38.5843
11
88.925
21
38.4437
0
LINE
8
BLACK
6
CONTINUOUS
10
88.925
20
38.4437
11
88.7001
21
38.3354
0
LINE
8
BLACK
6
CONTINUOUS
10
88.7001
20
38.3354
11
88.4616
21
38.2618
0
LINE
8
BLACK
6
CONTINUOUS
10
88.4616
20
38.2618
11
88.2148
21
38.2246
0
LINE
8
BLACK
6
CONTINUOUS
10
88.2148
20
38.2246
11
87.9652
21
38.2246
0
LINE
8
BLACK
6
CONTINUOUS
10
87.9652
20
38.2246
11
87.7184
21
38.2618
0
LINE
8
BLACK
6
CONTINUOUS
10
87.7184
20
38.2618
11
87.4799
21
38.3354
0
LINE
8
BLACK
6
CONTINUOUS
10
87.4799
20
38.3354
11
87.255
21
38.4437
0
LINE
8
BLACK
6
CONTINUOUS
10
87.255
20
38.4437
11
87.0488
21
38.5843
0
LINE
8
BLACK
6
CONTINUOUS
10
87.0488
20
38.5843
11
86.8658
21
38.7541
0
LINE
8
BLACK
6
CONTINUOUS
10
86.8658
20
38.7541
11
86.7102
21
38.9492
0
LINE
8
BLACK
6
CONTINUOUS
10
86.7102
20
38.9492
11
86.5854
21
39.1654
0
LINE
8
BLACK
6
CONTINUOUS
10
86.5854
20
39.1654
11
86.4942
21
39.3977
0
LINE
8
BLACK
6
CONTINUOUS
10
86.4942
20
39.3977
11
86.4386
21
39.6411
0
LINE
8
BLACK
6
CONTINUOUS
10
86.4386
20
39.6411
11
86.42
21
39.89
0
LINE
8
BLACK
6
CONTINUOUS
10
86.42
20
39.89
11
86.4386
21
40.1389
0
LINE
8
BLACK
6
CONTINUOUS
10
86.4386
20
40.1389
11
86.4942
21
40.3822
0
LINE
8
BLACK
6
CONTINUOUS
10
86.4942
20
40.3822
11
86.5854
21
40.6146
0
LINE
8
BLACK
6
CONTINUOUS
10
86.5854
20
40.6146
11
86.7102
21
40.8308
0
LINE
8
BLACK
6
CONTINUOUS
10
86.7102
20
40.8308
11
86.8658
21
41.0259
0
LINE
8
BLACK
6
CONTINUOUS
10
86.8658
20
41.0259
11
87.0488
21
41.1957
0
LINE
8
BLACK
6
CONTINUOUS
10
87.0488
20
41.1957
11
87.255
21
41.3363
0
LINE
8
BLACK
6
CONTINUOUS
10
87.255
20
41.3363
11
87.4799
21
41.4446
0
LINE
8
BLACK
6
CONTINUOUS
10
87.4799
20
41.4446
11
87.7184
21
41.5182
0
LINE
8
BLACK
6
CONTINUOUS
10
87.7184
20
41.5182
11
87.9652
21
41.5554
0
LINE
8
BLACK
6
CONTINUOUS
10
87.9652
20
41.5554
11
88.2148
21
41.5554
0
LINE
8
BLACK
6
CONTINUOUS
10
88.2148
20
41.5554
11
88.4616
21
41.5182
0
LINE
8
BLACK
6
CONTINUOUS
10
103.432
20
41.6482
11
103.67
21
41.5746
0
LINE
8
BLACK
6
CONTINUOUS
10
103.67
20
41.5746
11
103.895
21
41.4663
0
LINE
8
BLACK
6
CONTINUOUS
10
103.895
20
41.4663
11
104.101
21
41.3257
0
LINE
8
BLACK
6
CONTINUOUS
10
104.101
20
41.3257
11
104.284
21
41.1559
0
LINE
8
BLACK
6
CONTINUOUS
10
104.284
20
41.1559
11
104.44
21
40.9608
0
LINE
8
BLACK
6
CONTINUOUS
10
104.44
20
40.9608
11
104.565
21
40.7446
0
LINE
8
BLACK
6
CONTINUOUS
10
104.565
20
40.7446
11
104.656
21
40.5123
0
LINE
8
BLACK
6
CONTINUOUS
10
104.656
20
40.5123
11
104.711
21
40.2689
0
LINE
8
BLACK
6
CONTINUOUS
10
104.711
20
40.2689
11
104.73
21
40.02
0
LINE
8
BLACK
6
CONTINUOUS
10
104.73
20
40.02
11
104.711
21
39.7711
0
LINE
8
BLACK
6
CONTINUOUS
10
104.711
20
39.7711
11
104.656
21
39.5277
0
LINE
8
BLACK
6
CONTINUOUS
10
104.656
20
39.5277
11
104.565
21
39.2954
0
LINE
8
BLACK
6
CONTINUOUS
10
104.565
20
39.2954
11
104.44
21
39.0792
0
LINE
8
BLACK
6
CONTINUOUS
10
104.44
20
39.0792
11
104.284
21
38.8841
0
LINE
8
BLACK
6
CONTINUOUS
10
104.284
20
38.8841
11
104.101
21
38.7143
0
LINE
8
BLACK
6
CONTINUOUS
10
104.101
20
38.7143
11
103.895
21
38.5737
0
LINE
8
BLACK
6
CONTINUOUS
10
103.895
20
38.5737
11
103.67
21
38.4654
0
LINE
8
BLACK
6
CONTINUOUS
10
103.67
20
38.4654
11
103.432
21
38.3918
0
LINE
8
BLACK
6
CONTINUOUS
10
103.432
20
38.3918
11
103.185
21
38.3546
0
LINE
8
BLACK
6
CONTINUOUS
10
103.185
20
38.3546
11
102.935
21
38.3546
0
LINE
8
BLACK
6
CONTINUOUS
10
102.935
20
38.3546
11
102.688
21
38.3918
0
LINE
8
BLACK
6
CONTINUOUS
10
102.688
20
38.3918
11
102.45
21
38.4654
0
LINE
8
BLACK
6
CONTINUOUS
10
102.45
20
38.4654
11
102.225
21
38.5737
0
LINE
8
BLACK
6
CONTINUOUS
10
102.225
20
38.5737
11
102.019
21
38.7143
0
LINE
8
BLACK
6
CONTINUOUS
10
102.019
20
38.7143
11
101.836
21
38.8841
0
LINE
8
BLACK
6
CONTINUOUS
10
101.836
20
38.8841
11
101.68
21
39.0792
0
LINE
8
BLACK
6
CONTINUOUS
10
101.68
20
39.0792
11
101.555
21
39.2954
0
LINE
8
BLACK
6
CONTINUOUS
10
101.555
20
39.2954
11
101.464
21
39.5277
0
LINE
8
BLACK
6
CONTINUOUS
10
101.464
20
39.5277
11
101.409
21
39.7711
0
LINE
8
BLACK
6
CONTINUOUS
10
101.409
20
39.7711
11
101.39
21
40.02
0
LINE
8
BLACK
6
CONTINUOUS
10
101.39
20
40.02
11
101.409
21
40.2689
0
LINE
8
BLACK
6
CONTINUOUS
10
101.409
20
40.2689
11
101.464
21
40.5123
0
LINE
8
BLACK
6
CONTINUOUS
10
101.464
20
40.5123
11
101.555
21
40.7446
0
LINE
8
BLACK
6
CONTINUOUS
10
101.555
20
40.7446
11
101.68
21
40.9608
0
LINE
8
BLACK
6
CONTINUOUS
10
101.68
20
40.9608
11
101.836
21
41.1559
0
LINE
8
BLACK
6
CONTINUOUS
10
101.836
20
41.1559
11
102.019
21
41.3257
0
LINE
8
BLACK
6
CONTINUOUS
10
102.019
20
41.3257
11
102.225
21
41.4663
0
LINE
8
BLACK
6
CONTINUOUS
10
102.225
20
41.4663
11
102.45
21
41.5746
0
LINE
8
BLACK
6
CONTINUOUS
10
102.45
20
41.5746
11
102.688
21
41.6482
0
LINE
8
BLACK
6
CONTINUOUS
10
102.688
20
41.6482
11
102.935
21
41.6854
0
LINE
8
BLACK
6
CONTINUOUS
10
102.935
20
41.6854
11
103.185
21
41.6854
0
LINE
8
BLACK
6
CONTINUOUS
10
103.185
20
41.6854
11
103.432
21
41.6482
0
LINE
8
BLACK
6
CONTINUOUS
10
99.7751
20
41.3808
11
99.9627
21
41.3239
0
LINE
8
BLACK
6
CONTINUOUS
10
99.9627
20
41.3239
11
100.136
21
41.2315
0
LINE
8
BLACK
6
CONTINUOUS
10
100.136
20
41.2315
11
100.287
21
41.1071
0
LINE
8
BLACK
6
CONTINUOUS
10
100.287
20
41.1071
11
100.411
21
40.9556
0
LINE
8
BLACK
6
CONTINUOUS
10
100.411
20
40.9556
11
100.504
21
40.7827
0
LINE
8
BLACK
6
CONTINUOUS
10
100.504
20
40.7827
11
100.561
21
40.5951
0
LINE
8
BLACK
6
CONTINUOUS
10
100.561
20
40.5951
11
100.58
21
40.4
0
LINE
8
BLACK
6
CONTINUOUS
10
100.58
20
40.4
11
100.561
21
40.2049
0
LINE
8
BLACK
6
CONTINUOUS
10
100.561
20
40.2049
11
100.504
21
40.0173
0
LINE
8
BLACK
6
CONTINUOUS
10
100.504
20
40.0173
11
100.411
21
39.8444
0
LINE
8
BLACK
6
CONTINUOUS
10
100.411
20
39.8444
11
100.287
21
39.6929
0
LINE
8
BLACK
6
CONTINUOUS
10
100.287
20
39.6929
11
100.136
21
39.5685
0
LINE
8
BLACK
6
CONTINUOUS
10
100.136
20
39.5685
11
99.9627
21
39.4761
0
LINE
8
BLACK
6
CONTINUOUS
10
99.9627
20
39.4761
11
99.7751
21
39.4192
0
LINE
8
BLACK
6
CONTINUOUS
10
99.7751
20
39.4192
11
99.58
21
39.4
0
LINE
8
BLACK
6
CONTINUOUS
10
99.58
20
39.4
11
99.3849
21
39.4192
0
LINE
8
BLACK
6
CONTINUOUS
10
99.3849
20
39.4192
11
99.1973
21
39.4761
0
LINE
8
BLACK
6
CONTINUOUS
10
99.1973
20
39.4761
11
99.0244
21
39.5685
0
LINE
8
BLACK
6
CONTINUOUS
10
99.0244
20
39.5685
11
98.8729
21
39.6929
0
LINE
8
BLACK
6
CONTINUOUS
10
98.8729
20
39.6929
11
98.7485
21
39.8444
0
LINE
8
BLACK
6
CONTINUOUS
10
98.7485
20
39.8444
11
98.6561
21
40.0173
0
LINE
8
BLACK
6
CONTINUOUS
10
98.6561
20
40.0173
11
98.5992
21
40.2049
0
LINE
8
BLACK
6
CONTINUOUS
10
98.5992
20
40.2049
11
98.58
21
40.4
0
LINE
8
BLACK
6
CONTINUOUS
10
98.58
20
40.4
11
98.5992
21
40.5951
0
LINE
8
BLACK
6
CONTINUOUS
10
98.5992
20
40.5951
11
98.6561
21
40.7827
0
LINE
8
BLACK
6
CONTINUOUS
10
98.6561
20
40.7827
11
98.7485
21
40.9556
0
LINE
8
BLACK
6
CONTINUOUS
10
98.7485
20
40.9556
11
98.8729
21
41.1071
0
LINE
8
BLACK
6
CONTINUOUS
10
98.8729
20
41.1071
11
99.0244
21
41.2315
0
LINE
8
BLACK
6
CONTINUOUS
10
99.0244
20
41.2315
11
99.1973
21
41.3239
0
LINE
8
BLACK
6
CONTINUOUS
10
99.1973
20
41.3239
11
99.3849
21
41.3808
0
LINE
8
BLACK
6
CONTINUOUS
10
99.3849
20
41.3808
11
99.58
21
41.4
0
LINE
8
BLACK
6
CONTINUOUS
10
99.58
20
41.4
11
99.7751
21
41.3808
0
LINE
8
BLACK
6
CONTINUOUS
10
97.1951
20
41.3808
11
97.3827
21
41.3239
0
LINE
8
BLACK
6
CONTINUOUS
10
97.3827
20
41.3239
11
97.5556
21
41.2315
0
LINE
8
BLACK
6
CONTINUOUS
10
97.5556
20
41.2315
11
97.7071
21
41.1071
0
LINE
8
BLACK
6
CONTINUOUS
10
97.7071
20
41.1071
11
97.8315
21
40.9556
0
LINE
8
BLACK
6
CONTINUOUS
10
97.8315
20
40.9556
11
97.9239
21
40.7827
0
LINE
8
BLACK
6
CONTINUOUS
10
97.9239
20
40.7827
11
97.9808
21
40.5951
0
LINE
8
BLACK
6
CONTINUOUS
10
97.9808
20
40.5951
11
98
21
40.4
0
LINE
8
BLACK
6
CONTINUOUS
10
98
20
40.4
11
97.9808
21
40.2049
0
LINE
8
BLACK
6
CONTINUOUS
10
97.9808
20
40.2049
11
97.9239
21
40.0173
0
LINE
8
BLACK
6
CONTINUOUS
10
97.9239
20
40.0173
11
97.8315
21
39.8444
0
LINE
8
BLACK
6
CONTINUOUS
10
97.8315
20
39.8444
11
97.7071
21
39.6929
0
LINE
8
BLACK
6
CONTINUOUS
10
97.7071
20
39.6929
11
97.5556
21
39.5685
0
LINE
8
BLACK
6
CONTINUOUS
10
97.5556
20
39.5685
11
97.3827
21
39.4761
0
LINE
8
BLACK
6
CONTINUOUS
10
97.3827
20
39.4761
11
97.1951
21
39.4192
0
LINE
8
BLACK
6
CONTINUOUS
10
97.1951
20
39.4192
11
97
21
39.4
0
LINE
8
BLACK
6
CONTINUOUS
10
97
20
39.4
11
96.8049
21
39.4192
0
LINE
8
BLACK
6
CONTINUOUS
10
96.8049
20
39.4192
11
96.6173
21
39.4761
0
LINE
8
BLACK
6
CONTINUOUS
10
96.6173
20
39.4761
11
96.4444
21
39.5685
0
LINE
8
BLACK
6
CONTINUOUS
10
96.4444
20
39.5685
11
96.2929
21
39.6929
0
LINE
8
BLACK
6
CONTINUOUS
10
96.2929
20
39.6929
11
96.1685
21
39.8444
0
LINE
8
BLACK
6
CONTINUOUS
10
96.1685
20
39.8444
11
96.0761
21
40.0173
0
LINE
8
BLACK
6
CONTINUOUS
10
96.0761
20
40.0173
11
96.0192
21
40.2049
0
LINE
8
BLACK
6
CONTINUOUS
10
96.0192
20
40.2049
11
96
21
40.4
0
LINE
8
BLACK
6
CONTINUOUS
10
96
20
40.4
11
96.0192
21
40.5951
0
LINE
8
BLACK
6
CONTINUOUS
10
96.0192
20
40.5951
11
96.0761
21
40.7827
0
LINE
8
BLACK
6
CONTINUOUS
10
96.0761
20
40.7827
11
96.1685
21
40.9556
0
LINE
8
BLACK
6
CONTINUOUS
10
96.1685
20
40.9556
11
96.2929
21
41.1071
0
LINE
8
BLACK
6
CONTINUOUS
10
96.2929
20
41.1071
11
96.4444
21
41.2315
0
LINE
8
BLACK
6
CONTINUOUS
10
96.4444
20
41.2315
11
96.6173
21
41.3239
0
LINE
8
BLACK
6
CONTINUOUS
10
96.6173
20
41.3239
11
96.8049
21
41.3808
0
LINE
8
BLACK
6
CONTINUOUS
10
96.8049
20
41.3808
11
97
21
41.4
0
LINE
8
BLACK
6
CONTINUOUS
10
97
20
41.4
11
97.1951
21
41.3808
0
LINE
8
BLACK
6
CONTINUOUS
10
94.5951
20
41.4008
11
94.7827
21
41.3439
0
LINE
8
BLACK
6
CONTINUOUS
10
94.7827
20
41.3439
11
94.9556
21
41.2515
0
LINE
8
BLACK
6
CONTINUOUS
10
94.9556
20
41.2515
11
95.1071
21
41.1271
0
LINE
8
BLACK
6
CONTINUOUS
10
95.1071
20
41.1271
11
95.2315
21
40.9756
0
LINE
8
BLACK
6
CONTINUOUS
10
95.2315
20
40.9756
11
95.3239
21
40.8027
0
LINE
8
BLACK
6
CONTINUOUS
10
95.3239
20
40.8027
11
95.3808
21
40.6151
0
LINE
8
BLACK
6
CONTINUOUS
10
95.3808
20
40.6151
11
95.4
21
40.42
0
LINE
8
BLACK
6
CONTINUOUS
10
95.4
20
40.42
11
95.3808
21
40.2249
0
LINE
8
BLACK
6
CONTINUOUS
10
95.3808
20
40.2249
11
95.3239
21
40.0373
0
LINE
8
BLACK
6
CONTINUOUS
10
95.3239
20
40.0373
11
95.2315
21
39.8644
0
LINE
8
BLACK
6
CONTINUOUS
10
95.2315
20
39.8644
11
95.1071
21
39.7129
0
LINE
8
BLACK
6
CONTINUOUS
10
95.1071
20
39.7129
11
94.9556
21
39.5885
0
LINE
8
BLACK
6
CONTINUOUS
10
94.9556
20
39.5885
11
94.7827
21
39.4961
0
LINE
8
BLACK
6
CONTINUOUS
10
94.7827
20
39.4961
11
94.5951
21
39.4392
0
LINE
8
BLACK
6
CONTINUOUS
10
94.5951
20
39.4392
11
94.4
21
39.42
0
LINE
8
BLACK
6
CONTINUOUS
10
94.4
20
39.42
11
94.2049
21
39.4392
0
LINE
8
BLACK
6
CONTINUOUS
10
94.2049
20
39.4392
11
94.0173
21
39.4961
0
LINE
8
BLACK
6
CONTINUOUS
10
94.0173
20
39.4961
11
93.8444
21
39.5885
0
LINE
8
BLACK
6
CONTINUOUS
10
93.8444
20
39.5885
11
93.6929
21
39.7129
0
LINE
8
BLACK
6
CONTINUOUS
10
93.6929
20
39.7129
11
93.5685
21
39.8644
0
LINE
8
BLACK
6
CONTINUOUS
10
93.5685
20
39.8644
11
93.4761
21
40.0373
0
LINE
8
BLACK
6
CONTINUOUS
10
93.4761
20
40.0373
11
93.4192
21
40.2249
0
LINE
8
BLACK
6
CONTINUOUS
10
93.4192
20
40.2249
11
93.4
21
40.42
0
LINE
8
BLACK
6
CONTINUOUS
10
93.4
20
40.42
11
93.4192
21
40.6151
0
LINE
8
BLACK
6
CONTINUOUS
10
93.4192
20
40.6151
11
93.4761
21
40.8027
0
LINE
8
BLACK
6
CONTINUOUS
10
93.4761
20
40.8027
11
93.5685
21
40.9756
0
LINE
8
BLACK
6
CONTINUOUS
10
93.5685
20
40.9756
11
93.6929
21
41.1271
0
LINE
8
BLACK
6
CONTINUOUS
10
93.6929
20
41.1271
11
93.8444
21
41.2515
0
LINE
8
BLACK
6
CONTINUOUS
10
93.8444
20
41.2515
11
94.0173
21
41.3439
0
LINE
8
BLACK
6
CONTINUOUS
10
94.0173
20
41.3439
11
94.2049
21
41.4008
0
LINE
8
BLACK
6
CONTINUOUS
10
94.2049
20
41.4008
11
94.4
21
41.42
0
LINE
8
BLACK
6
CONTINUOUS
10
94.4
20
41.42
11
94.5951
21
41.4008
0
LINE
8
BLACK
6
CONTINUOUS
10
92.0051
20
41.4008
11
92.1927
21
41.3439
0
LINE
8
BLACK
6
CONTINUOUS
10
92.1927
20
41.3439
11
92.3656
21
41.2515
0
LINE
8
BLACK
6
CONTINUOUS
10
92.3656
20
41.2515
11
92.5171
21
41.1271
0
LINE
8
BLACK
6
CONTINUOUS
10
92.5171
20
41.1271
11
92.6415
21
40.9756
0
LINE
8
BLACK
6
CONTINUOUS
10
92.6415
20
40.9756
11
92.7339
21
40.8027
0
LINE
8
BLACK
6
CONTINUOUS
10
92.7339
20
40.8027
11
92.7908
21
40.6151
0
LINE
8
BLACK
6
CONTINUOUS
10
92.7908
20
40.6151
11
92.81
21
40.42
0
LINE
8
BLACK
6
CONTINUOUS
10
92.81
20
40.42
11
92.7908
21
40.2249
0
LINE
8
BLACK
6
CONTINUOUS
10
92.7908
20
40.2249
11
92.7339
21
40.0373
0
LINE
8
BLACK
6
CONTINUOUS
10
92.7339
20
40.0373
11
92.6415
21
39.8644
0
LINE
8
BLACK
6
CONTINUOUS
10
92.6415
20
39.8644
11
92.5171
21
39.7129
0
LINE
8
BLACK
6
CONTINUOUS
10
92.5171
20
39.7129
11
92.3656
21
39.5885
0
LINE
8
BLACK
6
CONTINUOUS
10
92.3656
20
39.5885
11
92.1927
21
39.4961
0
LINE
8
BLACK
6
CONTINUOUS
10
92.1927
20
39.4961
11
92.0051
21
39.4392
0
LINE
8
BLACK
6
CONTINUOUS
10
92.0051
20
39.4392
11
91.81
21
39.42
0
LINE
8
BLACK
6
CONTINUOUS
10
91.81
20
39.42
11
91.6149
21
39.4392
0
LINE
8
BLACK
6
CONTINUOUS
10
91.6149
20
39.4392
11
91.4273
21
39.4961
0
LINE
8
BLACK
6
CONTINUOUS
10
91.4273
20
39.4961
11
91.2544
21
39.5885
0
LINE
8
BLACK
6
CONTINUOUS
10
91.2544
20
39.5885
11
91.1029
21
39.7129
0
LINE
8
BLACK
6
CONTINUOUS
10
91.1029
20
39.7129
11
90.9785
21
39.8644
0
LINE
8
BLACK
6
CONTINUOUS
10
90.9785
20
39.8644
11
90.8861
21
40.0373
0
LINE
8
BLACK
6
CONTINUOUS
10
90.8861
20
40.0373
11
90.8292
21
40.2249
0
LINE
8
BLACK
6
CONTINUOUS
10
90.8292
20
40.2249
11
90.81
21
40.42
0
LINE
8
BLACK
6
CONTINUOUS
10
90.81
20
40.42
11
90.8292
21
40.6151
0
LINE
8
BLACK
6
CONTINUOUS
10
90.8292
20
40.6151
11
90.8861
21
40.8027
0
LINE
8
BLACK
6
CONTINUOUS
10
90.8861
20
40.8027
11
90.9785
21
40.9756
0
LINE
8
BLACK
6
CONTINUOUS
10
90.9785
20
40.9756
11
91.1029
21
41.1271
0
LINE
8
BLACK
6
CONTINUOUS
10
91.1029
20
41.1271
11
91.2544
21
41.2515
0
LINE
8
BLACK
6
CONTINUOUS
10
91.2544
20
41.2515
11
91.4273
21
41.3439
0
LINE
8
BLACK
6
CONTINUOUS
10
91.4273
20
41.3439
11
91.6149
21
41.4008
0
LINE
8
BLACK
6
CONTINUOUS
10
91.6149
20
41.4008
11
91.81
21
41.42
0
LINE
8
BLACK
6
CONTINUOUS
10
91.81
20
41.42
11
92.0051
21
41.4008
0
LINE
8
BLACK
6
CONTINUOUS
10
81.9803
20
41.3038
11
82.1541
21
41.2264
0
LINE
8
BLACK
6
CONTINUOUS
10
82.1541
20
41.2264
11
82.308
21
41.1146
0
LINE
8
BLACK
6
CONTINUOUS
10
82.308
20
41.1146
11
82.4353
21
40.9732
0
LINE
8
BLACK
6
CONTINUOUS
10
82.4353
20
40.9732
11
82.5304
21
40.8085
0
LINE
8
BLACK
6
CONTINUOUS
10
82.5304
20
40.8085
11
82.5892
21
40.6275
0
LINE
8
BLACK
6
CONTINUOUS
10
82.5892
20
40.6275
11
82.6091
21
40.4383
0
LINE
8
BLACK
6
CONTINUOUS
10
82.6091
20
40.4383
11
82.5892
21
40.2491
0
LINE
8
BLACK
6
CONTINUOUS
10
82.5892
20
40.2491
11
82.5304
21
40.0682
0
LINE
8
BLACK
6
CONTINUOUS
10
82.5304
20
40.0682
11
82.4353
21
39.9034
0
LINE
8
BLACK
6
CONTINUOUS
10
82.4353
20
39.9034
11
82.308
21
39.762
0
LINE
8
BLACK
6
CONTINUOUS
10
82.308
20
39.762
11
82.1541
21
39.6502
0
LINE
8
BLACK
6
CONTINUOUS
10
82.1541
20
39.6502
11
81.9803
21
39.5728
0
LINE
8
BLACK
6
CONTINUOUS
10
81.9803
20
39.5728
11
81.7942
21
39.5332
0
LINE
8
BLACK
6
CONTINUOUS
10
81.7942
20
39.5332
11
81.6039
21
39.5332
0
LINE
8
BLACK
6
CONTINUOUS
10
81.6039
20
39.5332
11
81.4178
21
39.5728
0
LINE
8
BLACK
6
CONTINUOUS
10
81.4178
20
39.5728
11
81.244
21
39.6502
0
LINE
8
BLACK
6
CONTINUOUS
10
81.244
20
39.6502
11
81.0901
21
39.762
0
LINE
8
BLACK
6
CONTINUOUS
10
81.0901
20
39.762
11
80.9628
21
39.9034
0
LINE
8
BLACK
6
CONTINUOUS
10
80.9628
20
39.9034
11
80.8677
21
40.0682
0
LINE
8
BLACK
6
CONTINUOUS
10
80.8677
20
40.0682
11
80.8089
21
40.2491
0
LINE
8
BLACK
6
CONTINUOUS
10
80.8089
20
40.2491
11
80.789
21
40.4383
0
LINE
8
BLACK
6
CONTINUOUS
10
80.789
20
40.4383
11
80.8089
21
40.6275
0
LINE
8
BLACK
6
CONTINUOUS
10
80.8089
20
40.6275
11
80.8677
21
40.8085
0
LINE
8
BLACK
6
CONTINUOUS
10
80.8677
20
40.8085
11
80.9628
21
40.9732
0
LINE
8
BLACK
6
CONTINUOUS
10
80.9628
20
40.9732
11
81.0901
21
41.1146
0
LINE
8
BLACK
6
CONTINUOUS
10
81.0901
20
41.1146
11
81.244
21
41.2264
0
LINE
8
BLACK
6
CONTINUOUS
10
81.244
20
41.2264
11
81.4178
21
41.3038
0
LINE
8
BLACK
6
CONTINUOUS
10
81.4178
20
41.3038
11
81.6039
21
41.3434
0
LINE
8
BLACK
6
CONTINUOUS
10
81.6039
20
41.3434
11
81.7942
21
41.3434
0
LINE
8
BLACK
6
CONTINUOUS
10
81.7942
20
41.3434
11
81.9803
21
41.3038
0
LINE
8
BLACK
6
CONTINUOUS
10
67.0003
20
41.3438
11
67.1741
21
41.2664
0
LINE
8
BLACK
6
CONTINUOUS
10
67.1741
20
41.2664
11
67.328
21
41.1546
0
LINE
8
BLACK
6
CONTINUOUS
10
67.328
20
41.1546
11
67.4553
21
41.0132
0
LINE
8
BLACK
6
CONTINUOUS
10
67.4553
20
41.0132
11
67.5504
21
40.8485
0
LINE
8
BLACK
6
CONTINUOUS
10
67.5504
20
40.8485
11
67.6092
21
40.6675
0
LINE
8
BLACK
6
CONTINUOUS
10
67.6092
20
40.6675
11
67.6291
21
40.4783
0
LINE
8
BLACK
6
CONTINUOUS
10
67.6291
20
40.4783
11
67.6092
21
40.2891
0
LINE
8
BLACK
6
CONTINUOUS
10
67.6092
20
40.2891
11
67.5504
21
40.1082
0
LINE
8
BLACK
6
CONTINUOUS
10
67.5504
20
40.1082
11
67.4553
21
39.9434
0
LINE
8
BLACK
6
CONTINUOUS
10
67.4553
20
39.9434
11
67.328
21
39.802
0
LINE
8
BLACK
6
CONTINUOUS
10
67.328
20
39.802
11
67.1741
21
39.6902
0
LINE
8
BLACK
6
CONTINUOUS
10
67.1741
20
39.6902
11
67.0003
21
39.6128
0
LINE
8
BLACK
6
CONTINUOUS
10
67.0003
20
39.6128
11
66.8142
21
39.5732
0
LINE
8
BLACK
6
CONTINUOUS
10
66.8142
20
39.5732
11
66.6239
21
39.5732
0
LINE
8
BLACK
6
CONTINUOUS
10
66.6239
20
39.5732
11
66.4378
21
39.6128
0
LINE
8
BLACK
6
CONTINUOUS
10
66.4378
20
39.6128
11
66.264
21
39.6902
0
LINE
8
BLACK
6
CONTINUOUS
10
66.264
20
39.6902
11
66.1101
21
39.802
0
LINE
8
BLACK
6
CONTINUOUS
10
66.1101
20
39.802
11
65.9828
21
39.9434
0
LINE
8
BLACK
6
CONTINUOUS
10
65.9828
20
39.9434
11
65.8877
21
40.1082
0
LINE
8
BLACK
6
CONTINUOUS
10
65.8877
20
40.1082
11
65.8289
21
40.2891
0
LINE
8
BLACK
6
CONTINUOUS
10
65.8289
20
40.2891
11
65.809
21
40.4783
0
LINE
8
BLACK
6
CONTINUOUS
10
65.809
20
40.4783
11
65.8289
21
40.6675
0
LINE
8
BLACK
6
CONTINUOUS
10
65.8289
20
40.6675
11
65.8877
21
40.8485
0
LINE
8
BLACK
6
CONTINUOUS
10
65.8877
20
40.8485
11
65.9828
21
41.0132
0
LINE
8
BLACK
6
CONTINUOUS
10
65.9828
20
41.0132
11
66.1101
21
41.1546
0
LINE
8
BLACK
6
CONTINUOUS
10
66.1101
20
41.1546
11
66.264
21
41.2664
0
LINE
8
BLACK
6
CONTINUOUS
10
66.264
20
41.2664
11
66.4378
21
41.3438
0
LINE
8
BLACK
6
CONTINUOUS
10
66.4378
20
41.3438
11
66.6239
21
41.3834
0
LINE
8
BLACK
6
CONTINUOUS
10
66.6239
20
41.3834
11
66.8142
21
41.3834
0
LINE
8
BLACK
6
CONTINUOUS
10
66.8142
20
41.3834
11
67.0003
21
41.3438
0
LINE
8
BLACK
6
CONTINUOUS
10
48.8903
20
41.3538
11
49.0641
21
41.2764
0
LINE
8
BLACK
6
CONTINUOUS
10
49.0641
20
41.2764
11
49.218
21
41.1646
0
LINE
8
BLACK
6
CONTINUOUS
10
49.218
20
41.1646
11
49.3453
21
41.0232
0
LINE
8
BLACK
6
CONTINUOUS
10
49.3453
20
41.0232
11
49.4404
21
40.8585
0
LINE
8
BLACK
6
CONTINUOUS
10
49.4404
20
40.8585
11
49.4992
21
40.6775
0
LINE
8
BLACK
6
CONTINUOUS
10
49.4992
20
40.6775
11
49.5191
21
40.4883
0
LINE
8
BLACK
6
CONTINUOUS
10
49.5191
20
40.4883
11
49.4992
21
40.2991
0
LINE
8
BLACK
6
CONTINUOUS
10
49.4992
20
40.2991
11
49.4404
21
40.1182
0
LINE
8
BLACK
6
CONTINUOUS
10
49.4404
20
40.1182
11
49.3453
21
39.9534
0
LINE
8
BLACK
6
CONTINUOUS
10
49.3453
20
39.9534
11
49.218
21
39.812
0
LINE
8
BLACK
6
CONTINUOUS
10
49.218
20
39.812
11
49.0641
21
39.7002
0
LINE
8
BLACK
6
CONTINUOUS
10
49.0641
20
39.7002
11
48.8903
21
39.6228
0
LINE
8
BLACK
6
CONTINUOUS
10
48.8903
20
39.6228
11
48.7042
21
39.5832
0
LINE
8
BLACK
6
CONTINUOUS
10
48.7042
20
39.5832
11
48.5139
21
39.5832
0
LINE
8
BLACK
6
CONTINUOUS
10
48.5139
20
39.5832
11
48.3278
21
39.6228
0
LINE
8
BLACK
6
CONTINUOUS
10
48.3278
20
39.6228
11
48.154
21
39.7002
0
LINE
8
BLACK
6
CONTINUOUS
10
48.154
20
39.7002
11
48.0001
21
39.812
0
LINE
8
BLACK
6
CONTINUOUS
10
48.0001
20
39.812
11
47.8728
21
39.9534
0
LINE
8
BLACK
6
CONTINUOUS
10
47.8728
20
39.9534
11
47.7777
21
40.1182
0
LINE
8
BLACK
6
CONTINUOUS
10
47.7777
20
40.1182
11
47.7189
21
40.2991
0
LINE
8
BLACK
6
CONTINUOUS
10
47.7189
20
40.2991
11
47.699
21
40.4883
0
LINE
8
BLACK
6
CONTINUOUS
10
47.699
20
40.4883
11
47.7189
21
40.6775
0
LINE
8
BLACK
6
CONTINUOUS
10
47.7189
20
40.6775
11
47.7777
21
40.8585
0
LINE
8
BLACK
6
CONTINUOUS
10
47.7777
20
40.8585
11
47.8728
21
41.0232
0
LINE
8
BLACK
6
CONTINUOUS
10
47.8728
20
41.0232
11
48.0001
21
41.1646
0
LINE
8
BLACK
6
CONTINUOUS
10
48.0001
20
41.1646
11
48.154
21
41.2764
0
LINE
8
BLACK
6
CONTINUOUS
10
48.154
20
41.2764
11
48.3278
21
41.3538
0
LINE
8
BLACK
6
CONTINUOUS
10
48.3278
20
41.3538
11
48.5139
21
41.3934
0
LINE
8
BLACK
6
CONTINUOUS
10
48.5139
20
41.3934
11
48.7042
21
41.3934
0
LINE
8
BLACK
6
CONTINUOUS
10
48.7042
20
41.3934
11
48.8903
21
41.3538
0
LINE
8
BLACK
6
CONTINUOUS
10
71.1501
20
46.5291
11
71.394
21
46.4705
0
LINE
8
BLACK
6
CONTINUOUS
10
71.394
20
46.4705
11
71.6258
21
46.3745
0
LINE
8
BLACK
6
CONTINUOUS
10
71.6258
20
46.3745
11
71.8397
21
46.2434
0
LINE
8
BLACK
6
CONTINUOUS
10
71.8397
20
46.2434
11
72.0305
21
46.0805
0
LINE
8
BLACK
6
CONTINUOUS
10
72.0305
20
46.0805
11
72.1934
21
45.8897
0
LINE
8
BLACK
6
CONTINUOUS
10
72.1934
20
45.8897
11
72.3245
21
45.6758
0
LINE
8
BLACK
6
CONTINUOUS
10
72.3245
20
45.6758
11
72.4205
21
45.444
0
LINE
8
BLACK
6
CONTINUOUS
10
72.4205
20
45.444
11
72.4791
21
45.2001
0
LINE
8
BLACK
6
CONTINUOUS
10
72.4791
20
45.2001
11
72.4988
21
44.95
0
LINE
8
BLACK
6
CONTINUOUS
10
72.4988
20
44.95
11
72.4791
21
44.6999
0
LINE
8
BLACK
6
CONTINUOUS
10
72.4791
20
44.6999
11
72.4205
21
44.456
0
LINE
8
BLACK
6
CONTINUOUS
10
72.4205
20
44.456
11
72.3245
21
44.2242
0
LINE
8
BLACK
6
CONTINUOUS
10
72.3245
20
44.2242
11
72.1934
21
44.0103
0
LINE
8
BLACK
6
CONTINUOUS
10
72.1934
20
44.0103
11
72.0305
21
43.8195
0
LINE
8
BLACK
6
CONTINUOUS
10
72.0305
20
43.8195
11
71.8397
21
43.6566
0
LINE
8
BLACK
6
CONTINUOUS
10
71.8397
20
43.6566
11
71.6258
21
43.5255
0
LINE
8
BLACK
6
CONTINUOUS
10
71.6258
20
43.5255
11
71.394
21
43.4295
0
LINE
8
BLACK
6
CONTINUOUS
10
71.394
20
43.4295
11
71.1501
21
43.3709
0
LINE
8
BLACK
6
CONTINUOUS
10
71.1501
20
43.3709
11
70.9
21
43.3512
0
LINE
8
BLACK
6
CONTINUOUS
10
70.9
20
43.3512
11
70.6499
21
43.3709
0
LINE
8
BLACK
6
CONTINUOUS
10
70.6499
20
43.3709
11
70.4059
21
43.4295
0
LINE
8
BLACK
6
CONTINUOUS
10
70.4059
20
43.4295
11
70.1742
21
43.5255
0
LINE
8
BLACK
6
CONTINUOUS
10
70.1742
20
43.5255
11
69.9603
21
43.6566
0
LINE
8
BLACK
6
CONTINUOUS
10
69.9603
20
43.6566
11
69.7695
21
43.8195
0
LINE
8
BLACK
6
CONTINUOUS
10
69.7695
20
43.8195
11
69.6066
21
44.0103
0
LINE
8
BLACK
6
CONTINUOUS
10
69.6066
20
44.0103
11
69.4755
21
44.2242
0
LINE
8
BLACK
6
CONTINUOUS
10
69.4755
20
44.2242
11
69.3795
21
44.456
0
LINE
8
BLACK
6
CONTINUOUS
10
69.3795
20
44.456
11
69.3209
21
44.6999
0
LINE
8
BLACK
6
CONTINUOUS
10
69.3209
20
44.6999
11
69.3012
21
44.95
0
LINE
8
BLACK
6
CONTINUOUS
10
69.3012
20
44.95
11
69.3209
21
45.2001
0
LINE
8
BLACK
6
CONTINUOUS
10
69.3209
20
45.2001
11
69.3795
21
45.444
0
LINE
8
BLACK
6
CONTINUOUS
10
69.3795
20
45.444
11
69.4755
21
45.6758
0
LINE
8
BLACK
6
CONTINUOUS
10
69.4755
20
45.6758
11
69.6066
21
45.8897
0
LINE
8
BLACK
6
CONTINUOUS
10
69.6066
20
45.8897
11
69.7695
21
46.0805
0
LINE
8
BLACK
6
CONTINUOUS
10
69.7695
20
46.0805
11
69.9603
21
46.2434
0
LINE
8
BLACK
6
CONTINUOUS
10
69.9603
20
46.2434
11
70.1742
21
46.3745
0
LINE
8
BLACK
6
CONTINUOUS
10
70.1742
20
46.3745
11
70.4059
21
46.4705
0
LINE
8
BLACK
6
CONTINUOUS
10
70.4059
20
46.4705
11
70.6499
21
46.5291
0
LINE
8
BLACK
6
CONTINUOUS
10
70.6499
20
46.5291
11
70.9
21
46.5488
0
LINE
8
BLACK
6
CONTINUOUS
10
70.9
20
46.5488
11
71.1501
21
46.5291
0
LINE
8
BLACK
6
CONTINUOUS
10
93.5401
20
46.7791
11
93.784
21
46.7205
0
LINE
8
BLACK
6
CONTINUOUS
10
93.784
20
46.7205
11
94.0158
21
46.6245
0
LINE
8
BLACK
6
CONTINUOUS
10
94.0158
20
46.6245
11
94.2297
21
46.4934
0
LINE
8
BLACK
6
CONTINUOUS
10
94.2297
20
46.4934
11
94.4205
21
46.3305
0
LINE
8
BLACK
6
CONTINUOUS
10
94.4205
20
46.3305
11
94.5834
21
46.1397
0
LINE
8
BLACK
6
CONTINUOUS
10
94.5834
20
46.1397
11
94.7145
21
45.9258
0
LINE
8
BLACK
6
CONTINUOUS
10
94.7145
20
45.9258
11
94.8105
21
45.694
0
LINE
8
BLACK
6
CONTINUOUS
10
94.8105
20
45.694
11
94.8691
21
45.4501
0
LINE
8
BLACK
6
CONTINUOUS
10
94.8691
20
45.4501
11
94.8888
21
45.2
0
LINE
8
BLACK
6
CONTINUOUS
10
94.8888
20
45.2
11
94.8691
21
44.9499
0
LINE
8
BLACK
6
CONTINUOUS
10
94.8691
20
44.9499
11
94.8105
21
44.706
0
LINE
8
BLACK
6
CONTINUOUS
10
94.8105
20
44.706
11
94.7145
21
44.4742
0
LINE
8
BLACK
6
CONTINUOUS
10
94.7145
20
44.4742
11
94.5834
21
44.2603
0
LINE
8
BLACK
6
CONTINUOUS
10
94.5834
20
44.2603
11
94.4205
21
44.0695
0
LINE
8
BLACK
6
CONTINUOUS
10
94.4205
20
44.0695
11
94.2297
21
43.9066
0
LINE
8
BLACK
6
CONTINUOUS
10
94.2297
20
43.9066
11
94.0158
21
43.7755
0
LINE
8
BLACK
6
CONTINUOUS
10
94.0158
20
43.7755
11
93.784
21
43.6795
0
LINE
8
BLACK
6
CONTINUOUS
10
93.784
20
43.6795
11
93.5401
21
43.6209
0
LINE
8
BLACK
6
CONTINUOUS
10
93.5401
20
43.6209
11
93.29
21
43.6012
0
LINE
8
BLACK
6
CONTINUOUS
10
93.29
20
43.6012
11
93.0399
21
43.6209
0
LINE
8
BLACK
6
CONTINUOUS
10
93.0399
20
43.6209
11
92.7959
21
43.6795
0
LINE
8
BLACK
6
CONTINUOUS
10
92.7959
20
43.6795
11
92.5642
21
43.7755
0
LINE
8
BLACK
6
CONTINUOUS
10
92.5642
20
43.7755
11
92.3503
21
43.9066
0
LINE
8
BLACK
6
CONTINUOUS
10
92.3503
20
43.9066
11
92.1595
21
44.0695
0
LINE
8
BLACK
6
CONTINUOUS
10
92.1595
20
44.0695
11
91.9966
21
44.2603
0
LINE
8
BLACK
6
CONTINUOUS
10
91.9966
20
44.2603
11
91.8655
21
44.4742
0
LINE
8
BLACK
6
CONTINUOUS
10
91.8655
20
44.4742
11
91.7695
21
44.706
0
LINE
8
BLACK
6
CONTINUOUS
10
91.7695
20
44.706
11
91.7109
21
44.9499
0
LINE
8
BLACK
6
CONTINUOUS
10
91.7109
20
44.9499
11
91.6912
21
45.2
0
LINE
8
BLACK
6
CONTINUOUS
10
91.6912
20
45.2
11
91.7109
21
45.4501
0
LINE
8
BLACK
6
CONTINUOUS
10
91.7109
20
45.4501
11
91.7695
21
45.694
0
LINE
8
BLACK
6
CONTINUOUS
10
91.7695
20
45.694
11
91.8655
21
45.9258
0
LINE
8
BLACK
6
CONTINUOUS
10
91.8655
20
45.9258
11
91.9966
21
46.1397
0
LINE
8
BLACK
6
CONTINUOUS
10
91.9966
20
46.1397
11
92.1595
21
46.3305
0
LINE
8
BLACK
6
CONTINUOUS
10
92.1595
20
46.3305
11
92.3503
21
46.4934
0
LINE
8
BLACK
6
CONTINUOUS
10
92.3503
20
46.4934
11
92.5642
21
46.6245
0
LINE
8
BLACK
6
CONTINUOUS
10
92.5642
20
46.6245
11
92.7959
21
46.7205
0
LINE
8
BLACK
6
CONTINUOUS
10
92.7959
20
46.7205
11
93.0399
21
46.7791
0
LINE
8
BLACK
6
CONTINUOUS
10
93.0399
20
46.7791
11
93.29
21
46.7988
0
LINE
8
BLACK
6
CONTINUOUS
10
93.29
20
46.7988
11
93.5401
21
46.7791
0
LINE
8
BLACK
6
CONTINUOUS
10
14.8019
20
47.9913
11
14.9895
21
47.9344
0
LINE
8
BLACK
6
CONTINUOUS
10
14.9895
20
47.9344
11
15.1624
21
47.842
0
LINE
8
BLACK
6
CONTINUOUS
10
15.1624
20
47.842
11
15.3139
21
47.7176
0
LINE
8
BLACK
6
CONTINUOUS
10
15.3139
20
47.7176
11
15.4383
21
47.5661
0
LINE
8
BLACK
6
CONTINUOUS
10
15.4383
20
47.5661
11
15.5307
21
47.3932
0
LINE
8
BLACK
6
CONTINUOUS
10
15.5307
20
47.3932
11
15.5876
21
47.2056
0
LINE
8
BLACK
6
CONTINUOUS
10
15.5876
20
47.2056
11
15.6068
21
47.0105
0
LINE
8
BLACK
6
CONTINUOUS
10
15.6068
20
47.0105
11
15.5876
21
46.8154
0
LINE
8
BLACK
6
CONTINUOUS
10
15.5876
20
46.8154
11
15.5307
21
46.6278
0
LINE
8
BLACK
6
CONTINUOUS
10
15.5307
20
46.6278
11
15.4383
21
46.455
0
LINE
8
BLACK
6
CONTINUOUS
10
15.4383
20
46.455
11
15.3139
21
46.3034
0
LINE
8
BLACK
6
CONTINUOUS
10
15.3139
20
46.3034
11
15.1624
21
46.1791
0
LINE
8
BLACK
6
CONTINUOUS
10
15.1624
20
46.1791
11
14.9895
21
46.0866
0
LINE
8
BLACK
6
CONTINUOUS
10
14.9895
20
46.0866
11
14.8019
21
46.0297
0
LINE
8
BLACK
6
CONTINUOUS
10
14.8019
20
46.0297
11
14.6068
21
46.0105
0
LINE
8
BLACK
6
CONTINUOUS
10
14.6068
20
46.0105
11
14.4117
21
46.0297
0
LINE
8
BLACK
6
CONTINUOUS
10
14.4117
20
46.0297
11
14.2241
21
46.0866
0
LINE
8
BLACK
6
CONTINUOUS
10
14.2241
20
46.0866
11
14.0512
21
46.1791
0
LINE
8
BLACK
6
CONTINUOUS
10
14.0512
20
46.1791
11
13.8997
21
46.3034
0
LINE
8
BLACK
6
CONTINUOUS
10
13.8997
20
46.3034
11
13.7753
21
46.455
0
LINE
8
BLACK
6
CONTINUOUS
10
13.7753
20
46.455
11
13.6829
21
46.6278
0
LINE
8
BLACK
6
CONTINUOUS
10
13.6829
20
46.6278
11
13.626
21
46.8154
0
LINE
8
BLACK
6
CONTINUOUS
10
13.626
20
46.8154
11
13.6068
21
47.0105
0
LINE
8
BLACK
6
CONTINUOUS
10
13.6068
20
47.0105
11
13.626
21
47.2056
0
LINE
8
BLACK
6
CONTINUOUS
10
13.626
20
47.2056
11
13.6829
21
47.3932
0
LINE
8
BLACK
6
CONTINUOUS
10
13.6829
20
47.3932
11
13.7753
21
47.5661
0
LINE
8
BLACK
6
CONTINUOUS
10
13.7753
20
47.5661
11
13.8997
21
47.7176
0
LINE
8
BLACK
6
CONTINUOUS
10
13.8997
20
47.7176
11
14.0512
21
47.842
0
LINE
8
BLACK
6
CONTINUOUS
10
14.0512
20
47.842
11
14.2241
21
47.9344
0
LINE
8
BLACK
6
CONTINUOUS
10
14.2241
20
47.9344
11
14.4117
21
47.9913
0
LINE
8
BLACK
6
CONTINUOUS
10
14.4117
20
47.9913
11
14.6068
21
48.0105
0
LINE
8
BLACK
6
CONTINUOUS
10
14.6068
20
48.0105
11
14.8019
21
47.9913
0
LINE
8
BLACK
6
CONTINUOUS
10
13.0168
20
46.0105
11
11.0168
21
46.0105
0
LINE
8
BLACK
6
CONTINUOUS
10
11.0168
20
46.0105
11
11.0168
21
48.0105
0
LINE
8
BLACK
6
CONTINUOUS
10
11.0168
20
48.0105
11
13.0168
21
48.0105
0
LINE
8
BLACK
6
CONTINUOUS
10
13.0168
20
48.0105
11
13.0168
21
46.0105
0
LINE
8
BLACK
6
CONTINUOUS
10
17.4019
20
48.0113
11
17.5895
21
47.9544
0
LINE
8
BLACK
6
CONTINUOUS
10
17.5895
20
47.9544
11
17.7624
21
47.862
0
LINE
8
BLACK
6
CONTINUOUS
10
17.7624
20
47.862
11
17.9139
21
47.7376
0
LINE
8
BLACK
6
CONTINUOUS
10
17.9139
20
47.7376
11
18.0383
21
47.5861
0
LINE
8
BLACK
6
CONTINUOUS
10
18.0383
20
47.5861
11
18.1307
21
47.4132
0
LINE
8
BLACK
6
CONTINUOUS
10
18.1307
20
47.4132
11
18.1876
21
47.2256
0
LINE
8
BLACK
6
CONTINUOUS
10
18.1876
20
47.2256
11
18.2068
21
47.0305
0
LINE
8
BLACK
6
CONTINUOUS
10
18.2068
20
47.0305
11
18.1876
21
46.8354
0
LINE
8
BLACK
6
CONTINUOUS
10
18.1876
20
46.8354
11
18.1307
21
46.6478
0
LINE
8
BLACK
6
CONTINUOUS
10
18.1307
20
46.6478
11
18.0383
21
46.475
0
LINE
8
BLACK
6
CONTINUOUS
10
18.0383
20
46.475
11
17.9139
21
46.3234
0
LINE
8
BLACK
6
CONTINUOUS
10
17.9139
20
46.3234
11
17.7624
21
46.1991
0
LINE
8
BLACK
6
CONTINUOUS
10
17.7624
20
46.1991
11
17.5895
21
46.1066
0
LINE
8
BLACK
6
CONTINUOUS
10
17.5895
20
46.1066
11
17.4019
21
46.0497
0
LINE
8
BLACK
6
CONTINUOUS
10
17.4019
20
46.0497
11
17.2068
21
46.0305
0
LINE
8
BLACK
6
CONTINUOUS
10
17.2068
20
46.0305
11
17.0117
21
46.0497
0
LINE
8
BLACK
6
CONTINUOUS
10
17.0117
20
46.0497
11
16.8241
21
46.1066
0
LINE
8
BLACK
6
CONTINUOUS
10
16.8241
20
46.1066
11
16.6512
21
46.1991
0
LINE
8
BLACK
6
CONTINUOUS
10
16.6512
20
46.1991
11
16.4997
21
46.3234
0
LINE
8
BLACK
6
CONTINUOUS
10
16.4997
20
46.3234
11
16.3753
21
46.475
0
LINE
8
BLACK
6
CONTINUOUS
10
16.3753
20
46.475
11
16.2829
21
46.6478
0
LINE
8
BLACK
6
CONTINUOUS
10
16.2829
20
46.6478
11
16.226
21
46.8354
0
LINE
8
BLACK
6
CONTINUOUS
10
16.226
20
46.8354
11
16.2068
21
47.0305
0
LINE
8
BLACK
6
CONTINUOUS
10
16.2068
20
47.0305
11
16.226
21
47.2256
0
LINE
8
BLACK
6
CONTINUOUS
10
16.226
20
47.2256
11
16.2829
21
47.4132
0
LINE
8
BLACK
6
CONTINUOUS
10
16.2829
20
47.4132
11
16.3753
21
47.5861
0
LINE
8
BLACK
6
CONTINUOUS
10
16.3753
20
47.5861
11
16.4997
21
47.7376
0
LINE
8
BLACK
6
CONTINUOUS
10
16.4997
20
47.7376
11
16.6512
21
47.862
0
LINE
8
BLACK
6
CONTINUOUS
10
16.6512
20
47.862
11
16.8241
21
47.9544
0
LINE
8
BLACK
6
CONTINUOUS
10
16.8241
20
47.9544
11
17.0117
21
48.0113
0
LINE
8
BLACK
6
CONTINUOUS
10
17.0117
20
48.0113
11
17.2068
21
48.0305
0
LINE
8
BLACK
6
CONTINUOUS
10
17.2068
20
48.0305
11
17.4019
21
48.0113
0
LINE
8
BLACK
6
CONTINUOUS
10
105.64
20
49.4091
11
105.884
21
49.3505
0
LINE
8
BLACK
6
CONTINUOUS
10
105.884
20
49.3505
11
106.116
21
49.2545
0
LINE
8
BLACK
6
CONTINUOUS
10
106.116
20
49.2545
11
106.33
21
49.1234
0
LINE
8
BLACK
6
CONTINUOUS
10
106.33
20
49.1234
11
106.521
21
48.9605
0
LINE
8
BLACK
6
CONTINUOUS
10
106.521
20
48.9605
11
106.683
21
48.7697
0
LINE
8
BLACK
6
CONTINUOUS
10
106.683
20
48.7697
11
106.815
21
48.5558
0
LINE
8
BLACK
6
CONTINUOUS
10
106.815
20
48.5558
11
106.911
21
48.324
0
LINE
8
BLACK
6
CONTINUOUS
10
106.911
20
48.324
11
106.969
21
48.0801
0
LINE
8
BLACK
6
CONTINUOUS
10
106.969
20
48.0801
11
106.989
21
47.83
0
LINE
8
BLACK
6
CONTINUOUS
10
106.989
20
47.83
11
106.969
21
47.5799
0
LINE
8
BLACK
6
CONTINUOUS
10
106.969
20
47.5799
11
106.911
21
47.3359
0
LINE
8
BLACK
6
CONTINUOUS
10
106.911
20
47.3359
11
106.815
21
47.1042
0
LINE
8
BLACK
6
CONTINUOUS
10
106.815
20
47.1042
11
106.683
21
46.8903
0
LINE
8
BLACK
6
CONTINUOUS
10
106.683
20
46.8903
11
106.521
21
46.6995
0
LINE
8
BLACK
6
CONTINUOUS
10
106.521
20
46.6995
11
106.33
21
46.5366
0
LINE
8
BLACK
6
CONTINUOUS
10
106.33
20
46.5366
11
106.116
21
46.4055
0
LINE
8
BLACK
6
CONTINUOUS
10
106.116
20
46.4055
11
105.884
21
46.3095
0
LINE
8
BLACK
6
CONTINUOUS
10
105.884
20
46.3095
11
105.64
21
46.2509
0
LINE
8
BLACK
6
CONTINUOUS
10
105.64
20
46.2509
11
105.39
21
46.2312
0
LINE
8
BLACK
6
CONTINUOUS
10
105.39
20
46.2312
11
105.14
21
46.2509
0
LINE
8
BLACK
6
CONTINUOUS
10
105.14
20
46.2509
11
104.896
21
46.3095
0
LINE
8
BLACK
6
CONTINUOUS
10
104.896
20
46.3095
11
104.664
21
46.4055
0
LINE
8
BLACK
6
CONTINUOUS
10
104.664
20
46.4055
11
104.45
21
46.5366
0
LINE
8
BLACK
6
CONTINUOUS
10
104.45
20
46.5366
11
104.259
21
46.6995
0
LINE
8
BLACK
6
CONTINUOUS
10
104.259
20
46.6995
11
104.097
21
46.8903
0
LINE
8
BLACK
6
CONTINUOUS
10
104.097
20
46.8903
11
103.965
21
47.1042
0
LINE
8
BLACK
6
CONTINUOUS
10
103.965
20
47.1042
11
103.869
21
47.3359
0
LINE
8
BLACK
6
CONTINUOUS
10
103.869
20
47.3359
11
103.811
21
47.5799
0
LINE
8
BLACK
6
CONTINUOUS
10
103.811
20
47.5799
11
103.791
21
47.83
0
LINE
8
BLACK
6
CONTINUOUS
10
103.791
20
47.83
11
103.811
21
48.0801
0
LINE
8
BLACK
6
CONTINUOUS
10
103.811
20
48.0801
11
103.869
21
48.324
0
LINE
8
BLACK
6
CONTINUOUS
10
103.869
20
48.324
11
103.965
21
48.5558
0
LINE
8
BLACK
6
CONTINUOUS
10
103.965
20
48.5558
11
104.097
21
48.7697
0
LINE
8
BLACK
6
CONTINUOUS
10
104.097
20
48.7697
11
104.259
21
48.9605
0
LINE
8
BLACK
6
CONTINUOUS
10
104.259
20
48.9605
11
104.45
21
49.1234
0
LINE
8
BLACK
6
CONTINUOUS
10
104.45
20
49.1234
11
104.664
21
49.2545
0
LINE
8
BLACK
6
CONTINUOUS
10
104.664
20
49.2545
11
104.896
21
49.3505
0
LINE
8
BLACK
6
CONTINUOUS
10
104.896
20
49.3505
11
105.14
21
49.4091
0
LINE
8
BLACK
6
CONTINUOUS
10
105.14
20
49.4091
11
105.39
21
49.4288
0
LINE
8
BLACK
6
CONTINUOUS
10
105.39
20
49.4288
11
105.64
21
49.4091
0
LINE
8
BLACK
6
CONTINUOUS
10
53.8951
20
50.0808
11
54.0827
21
50.0239
0
LINE
8
BLACK
6
CONTINUOUS
10
54.0827
20
50.0239
11
54.2556
21
49.9315
0
LINE
8
BLACK
6
CONTINUOUS
10
54.2556
20
49.9315
11
54.4071
21
49.8071
0
LINE
8
BLACK
6
CONTINUOUS
10
54.4071
20
49.8071
11
54.5315
21
49.6556
0
LINE
8
BLACK
6
CONTINUOUS
10
54.5315
20
49.6556
11
54.6239
21
49.4827
0
LINE
8
BLACK
6
CONTINUOUS
10
54.6239
20
49.4827
11
54.6808
21
49.2951
0
LINE
8
BLACK
6
CONTINUOUS
10
54.6808
20
49.2951
11
54.7
21
49.1
0
LINE
8
BLACK
6
CONTINUOUS
10
54.7
20
49.1
11
54.6808
21
48.9049
0
LINE
8
BLACK
6
CONTINUOUS
10
54.6808
20
48.9049
11
54.6239
21
48.7173
0
LINE
8
BLACK
6
CONTINUOUS
10
54.6239
20
48.7173
11
54.5315
21
48.5444
0
LINE
8
BLACK
6
CONTINUOUS
10
54.5315
20
48.5444
11
54.4071
21
48.3929
0
LINE
8
BLACK
6
CONTINUOUS
10
54.4071
20
48.3929
11
54.2556
21
48.2685
0
LINE
8
BLACK
6
CONTINUOUS
10
54.2556
20
48.2685
11
54.0827
21
48.1761
0
LINE
8
BLACK
6
CONTINUOUS
10
54.0827
20
48.1761
11
53.8951
21
48.1192
0
LINE
8
BLACK
6
CONTINUOUS
10
53.8951
20
48.1192
11
53.7
21
48.1
0
LINE
8
BLACK
6
CONTINUOUS
10
53.7
20
48.1
11
53.5049
21
48.1192
0
LINE
8
BLACK
6
CONTINUOUS
10
53.5049
20
48.1192
11
53.3173
21
48.1761
0
LINE
8
BLACK
6
CONTINUOUS
10
53.3173
20
48.1761
11
53.1444
21
48.2685
0
LINE
8
BLACK
6
CONTINUOUS
10
53.1444
20
48.2685
11
52.9929
21
48.3929
0
LINE
8
BLACK
6
CONTINUOUS
10
52.9929
20
48.3929
11
52.8685
21
48.5444
0
LINE
8
BLACK
6
CONTINUOUS
10
52.8685
20
48.5444
11
52.7761
21
48.7173
0
LINE
8
BLACK
6
CONTINUOUS
10
52.7761
20
48.7173
11
52.7192
21
48.9049
0
LINE
8
BLACK
6
CONTINUOUS
10
52.7192
20
48.9049
11
52.7
21
49.1
0
LINE
8
BLACK
6
CONTINUOUS
10
52.7
20
49.1
11
52.7192
21
49.2951
0
LINE
8
BLACK
6
CONTINUOUS
10
52.7192
20
49.2951
11
52.7761
21
49.4827
0
LINE
8
BLACK
6
CONTINUOUS
10
52.7761
20
49.4827
11
52.8685
21
49.6556
0
LINE
8
BLACK
6
CONTINUOUS
10
52.8685
20
49.6556
11
52.9929
21
49.8071
0
LINE
8
BLACK
6
CONTINUOUS
10
52.9929
20
49.8071
11
53.1444
21
49.9315
0
LINE
8
BLACK
6
CONTINUOUS
10
53.1444
20
49.9315
11
53.3173
21
50.0239
0
LINE
8
BLACK
6
CONTINUOUS
10
53.3173
20
50.0239
11
53.5049
21
50.0808
0
LINE
8
BLACK
6
CONTINUOUS
10
53.5049
20
50.0808
11
53.7
21
50.1
0
LINE
8
BLACK
6
CONTINUOUS
10
53.7
20
50.1
11
53.8951
21
50.0808
0
LINE
8
BLACK
6
CONTINUOUS
10
67.2785
20
50.2263
11
67.4661
21
50.1694
0
LINE
8
BLACK
6
CONTINUOUS
10
67.4661
20
50.1694
11
67.6389
21
50.077
0
LINE
8
BLACK
6
CONTINUOUS
10
67.6389
20
50.077
11
67.7905
21
49.9526
0
LINE
8
BLACK
6
CONTINUOUS
10
67.7905
20
49.9526
11
67.9148
21
49.8011
0
LINE
8
BLACK
6
CONTINUOUS
10
67.9148
20
49.8011
11
68.0073
21
49.6282
0
LINE
8
BLACK
6
CONTINUOUS
10
68.0073
20
49.6282
11
68.0642
21
49.4406
0
LINE
8
BLACK
6
CONTINUOUS
10
68.0642
20
49.4406
11
68.0834
21
49.2455
0
LINE
8
BLACK
6
CONTINUOUS
10
68.0834
20
49.2455
11
68.0642
21
49.0504
0
LINE
8
BLACK
6
CONTINUOUS
10
68.0642
20
49.0504
11
68.0073
21
48.8628
0
LINE
8
BLACK
6
CONTINUOUS
10
68.0073
20
48.8628
11
67.9148
21
48.6899
0
LINE
8
BLACK
6
CONTINUOUS
10
67.9148
20
48.6899
11
67.7905
21
48.5384
0
LINE
8
BLACK
6
CONTINUOUS
10
67.7905
20
48.5384
11
67.6389
21
48.414
0
LINE
8
BLACK
6
CONTINUOUS
10
67.6389
20
48.414
11
67.4661
21
48.3216
0
LINE
8
BLACK
6
CONTINUOUS
10
67.4661
20
48.3216
11
67.2785
21
48.2647
0
LINE
8
BLACK
6
CONTINUOUS
10
67.2785
20
48.2647
11
67.0834
21
48.2455
0
LINE
8
BLACK
6
CONTINUOUS
10
67.0834
20
48.2455
11
66.8883
21
48.2647
0
LINE
8
BLACK
6
CONTINUOUS
10
66.8883
20
48.2647
11
66.7007
21
48.3216
0
LINE
8
BLACK
6
CONTINUOUS
10
66.7007
20
48.3216
11
66.5278
21
48.414
0
LINE
8
BLACK
6
CONTINUOUS
10
66.5278
20
48.414
11
66.3763
21
48.5384
0
LINE
8
BLACK
6
CONTINUOUS
10
66.3763
20
48.5384
11
66.2519
21
48.6899
0
LINE
8
BLACK
6
CONTINUOUS
10
66.2519
20
48.6899
11
66.1595
21
48.8628
0
LINE
8
BLACK
6
CONTINUOUS
10
66.1595
20
48.8628
11
66.1026
21
49.0504
0
LINE
8
BLACK
6
CONTINUOUS
10
66.1026
20
49.0504
11
66.0834
21
49.2455
0
LINE
8
BLACK
6
CONTINUOUS
10
66.0834
20
49.2455
11
66.1026
21
49.4406
0
LINE
8
BLACK
6
CONTINUOUS
10
66.1026
20
49.4406
11
66.1595
21
49.6282
0
LINE
8
BLACK
6
CONTINUOUS
10
66.1595
20
49.6282
11
66.2519
21
49.8011
0
LINE
8
BLACK
6
CONTINUOUS
10
66.2519
20
49.8011
11
66.3763
21
49.9526
0
LINE
8
BLACK
6
CONTINUOUS
10
66.3763
20
49.9526
11
66.5278
21
50.077
0
LINE
8
BLACK
6
CONTINUOUS
10
66.5278
20
50.077
11
66.7007
21
50.1694
0
LINE
8
BLACK
6
CONTINUOUS
10
66.7007
20
50.1694
11
66.8883
21
50.2263
0
LINE
8
BLACK
6
CONTINUOUS
10
66.8883
20
50.2263
11
67.0834
21
50.2455
0
LINE
8
BLACK
6
CONTINUOUS
10
67.0834
20
50.2455
11
67.2785
21
50.2263
0
LINE
8
BLACK
6
CONTINUOUS
10
53.9535
20
54.7308
11
54.1411
21
54.6739
0
LINE
8
BLACK
6
CONTINUOUS
10
54.1411
20
54.6739
11
54.314
21
54.5815
0
LINE
8
BLACK
6
CONTINUOUS
10
54.314
20
54.5815
11
54.4655
21
54.4571
0
LINE
8
BLACK
6
CONTINUOUS
10
54.4655
20
54.4571
11
54.5899
21
54.3056
0
LINE
8
BLACK
6
CONTINUOUS
10
54.5899
20
54.3056
11
54.6823
21
54.1327
0
LINE
8
BLACK
6
CONTINUOUS
10
54.6823
20
54.1327
11
54.7392
21
53.9451
0
LINE
8
BLACK
6
CONTINUOUS
10
54.7392
20
53.9451
11
54.7584
21
53.75
0
LINE
8
BLACK
6
CONTINUOUS
10
54.7584
20
53.75
11
54.7392
21
53.5549
0
LINE
8
BLACK
6
CONTINUOUS
10
54.7392
20
53.5549
11
54.6823
21
53.3673
0
LINE
8
BLACK
6
CONTINUOUS
10
54.6823
20
53.3673
11
54.5899
21
53.1944
0
LINE
8
BLACK
6
CONTINUOUS
10
54.5899
20
53.1944
11
54.4655
21
53.0429
0
LINE
8
BLACK
6
CONTINUOUS
10
54.4655
20
53.0429
11
54.314
21
52.9185
0
LINE
8
BLACK
6
CONTINUOUS
10
54.314
20
52.9185
11
54.1411
21
52.8261
0
LINE
8
BLACK
6
CONTINUOUS
10
54.1411
20
52.8261
11
53.9535
21
52.7692
0
LINE
8
BLACK
6
CONTINUOUS
10
53.9535
20
52.7692
11
53.7584
21
52.75
0
LINE
8
BLACK
6
CONTINUOUS
10
53.7584
20
52.75
11
53.5634
21
52.7692
0
LINE
8
BLACK
6
CONTINUOUS
10
53.5634
20
52.7692
11
53.3758
21
52.8261
0
LINE
8
BLACK
6
CONTINUOUS
10
53.3758
20
52.8261
11
53.2029
21
52.9185
0
LINE
8
BLACK
6
CONTINUOUS
10
53.2029
20
52.9185
11
53.0513
21
53.0429
0
LINE
8
BLACK
6
CONTINUOUS
10
53.0513
20
53.0429
11
52.927
21
53.1944
0
LINE
8
BLACK
6
CONTINUOUS
10
52.927
20
53.1944
11
52.8346
21
53.3673
0
LINE
8
BLACK
6
CONTINUOUS
10
52.8346
20
53.3673
11
52.7777
21
53.5549
0
LINE
8
BLACK
6
CONTINUOUS
10
52.7777
20
53.5549
11
52.7584
21
53.75
0
LINE
8
BLACK
6
CONTINUOUS
10
52.7584
20
53.75
11
52.7777
21
53.9451
0
LINE
8
BLACK
6
CONTINUOUS
10
52.7777
20
53.9451
11
52.8346
21
54.1327
0
LINE
8
BLACK
6
CONTINUOUS
10
52.8346
20
54.1327
11
52.927
21
54.3056
0
LINE
8
BLACK
6
CONTINUOUS
10
52.927
20
54.3056
11
53.0513
21
54.4571
0
LINE
8
BLACK
6
CONTINUOUS
10
53.0513
20
54.4571
11
53.2029
21
54.5815
0
LINE
8
BLACK
6
CONTINUOUS
10
53.2029
20
54.5815
11
53.3758
21
54.6739
0
LINE
8
BLACK
6
CONTINUOUS
10
53.3758
20
54.6739
11
53.5634
21
54.7308
0
LINE
8
BLACK
6
CONTINUOUS
10
53.5634
20
54.7308
11
53.7584
21
54.75
0
LINE
8
BLACK
6
CONTINUOUS
10
53.7584
20
54.75
11
53.9535
21
54.7308
0
LINE
8
BLACK
6
CONTINUOUS
10
67.3369
20
54.8763
11
67.5245
21
54.8194
0
LINE
8
BLACK
6
CONTINUOUS
10
67.5245
20
54.8194
11
67.6974
21
54.727
0
LINE
8
BLACK
6
CONTINUOUS
10
67.6974
20
54.727
11
67.8489
21
54.6026
0
LINE
8
BLACK
6
CONTINUOUS
10
67.8489
20
54.6026
11
67.9733
21
54.4511
0
LINE
8
BLACK
6
CONTINUOUS
10
67.9733
20
54.4511
11
68.0657
21
54.2782
0
LINE
8
BLACK
6
CONTINUOUS
10
68.0657
20
54.2782
11
68.1226
21
54.0906
0
LINE
8
BLACK
6
CONTINUOUS
10
68.1226
20
54.0906
11
68.1418
21
53.8955
0
LINE
8
BLACK
6
CONTINUOUS
10
68.1418
20
53.8955
11
68.1226
21
53.7004
0
LINE
8
BLACK
6
CONTINUOUS
10
68.1226
20
53.7004
11
68.0657
21
53.5128
0
LINE
8
BLACK
6
CONTINUOUS
10
68.0657
20
53.5128
11
67.9733
21
53.34
0
LINE
8
BLACK
6
CONTINUOUS
10
67.9733
20
53.34
11
67.8489
21
53.1884
0
LINE
8
BLACK
6
CONTINUOUS
10
67.8489
20
53.1884
11
67.6974
21
53.0641
0
LINE
8
BLACK
6
CONTINUOUS
10
67.6974
20
53.0641
11
67.5245
21
52.9716
0
LINE
8
BLACK
6
CONTINUOUS
10
67.5245
20
52.9716
11
67.3369
21
52.9147
0
LINE
8
BLACK
6
CONTINUOUS
10
67.3369
20
52.9147
11
67.1418
21
52.8955
0
LINE
8
BLACK
6
CONTINUOUS
10
67.1418
20
52.8955
11
66.9467
21
52.9147
0
LINE
8
BLACK
6
CONTINUOUS
10
66.9467
20
52.9147
11
66.7591
21
52.9716
0
LINE
8
BLACK
6
CONTINUOUS
10
66.7591
20
52.9716
11
66.5862
21
53.0641
0
LINE
8
BLACK
6
CONTINUOUS
10
66.5862
20
53.0641
11
66.4347
21
53.1884
0
LINE
8
BLACK
6
CONTINUOUS
10
66.4347
20
53.1884
11
66.3103
21
53.34
0
LINE
8
BLACK
6
CONTINUOUS
10
66.3103
20
53.34
11
66.2179
21
53.5128
0
LINE
8
BLACK
6
CONTINUOUS
10
66.2179
20
53.5128
11
66.161
21
53.7004
0
LINE
8
BLACK
6
CONTINUOUS
10
66.161
20
53.7004
11
66.1418
21
53.8955
0
LINE
8
BLACK
6
CONTINUOUS
10
66.1418
20
53.8955
11
66.161
21
54.0906
0
LINE
8
BLACK
6
CONTINUOUS
10
66.161
20
54.0906
11
66.2179
21
54.2782
0
LINE
8
BLACK
6
CONTINUOUS
10
66.2179
20
54.2782
11
66.3103
21
54.4511
0
LINE
8
BLACK
6
CONTINUOUS
10
66.3103
20
54.4511
11
66.4347
21
54.6026
0
LINE
8
BLACK
6
CONTINUOUS
10
66.4347
20
54.6026
11
66.5862
21
54.727
0
LINE
8
BLACK
6
CONTINUOUS
10
66.5862
20
54.727
11
66.7591
21
54.8194
0
LINE
8
BLACK
6
CONTINUOUS
10
66.7591
20
54.8194
11
66.9467
21
54.8763
0
LINE
8
BLACK
6
CONTINUOUS
10
66.9467
20
54.8763
11
67.1418
21
54.8955
0
LINE
8
BLACK
6
CONTINUOUS
10
67.1418
20
54.8955
11
67.3369
21
54.8763
0
LINE
8
BLACK
6
CONTINUOUS
10
18.4256
20
55.444
11
18.6132
21
55.3871
0
LINE
8
BLACK
6
CONTINUOUS
10
18.6132
20
55.3871
11
18.7861
21
55.2947
0
LINE
8
BLACK
6
CONTINUOUS
10
18.7861
20
55.2947
11
18.9376
21
55.1703
0
LINE
8
BLACK
6
CONTINUOUS
10
18.9376
20
55.1703
11
19.062
21
55.0188
0
LINE
8
BLACK
6
CONTINUOUS
10
19.062
20
55.0188
11
19.1544
21
54.8459
0
LINE
8
BLACK
6
CONTINUOUS
10
19.1544
20
54.8459
11
19.2113
21
54.6583
0
LINE
8
BLACK
6
CONTINUOUS
10
19.2113
20
54.6583
11
19.2305
21
54.4632
0
LINE
8
BLACK
6
CONTINUOUS
10
19.2305
20
54.4632
11
19.2113
21
54.2681
0
LINE
8
BLACK
6
CONTINUOUS
10
19.2113
20
54.2681
11
19.1544
21
54.0805
0
LINE
8
BLACK
6
CONTINUOUS
10
19.1544
20
54.0805
11
19.062
21
53.9076
0
LINE
8
BLACK
6
CONTINUOUS
10
19.062
20
53.9076
11
18.9376
21
53.7561
0
LINE
8
BLACK
6
CONTINUOUS
10
18.9376
20
53.7561
11
18.7861
21
53.6317
0
LINE
8
BLACK
6
CONTINUOUS
10
18.7861
20
53.6317
11
18.6132
21
53.5393
0
LINE
8
BLACK
6
CONTINUOUS
10
18.6132
20
53.5393
11
18.4256
21
53.4824
0
LINE
8
BLACK
6
CONTINUOUS
10
18.4256
20
53.4824
11
18.2305
21
53.4632
0
LINE
8
BLACK
6
CONTINUOUS
10
18.2305
20
53.4632
11
18.0354
21
53.4824
0
LINE
8
BLACK
6
CONTINUOUS
10
18.0354
20
53.4824
11
17.8478
21
53.5393
0
LINE
8
BLACK
6
CONTINUOUS
10
17.8478
20
53.5393
11
17.675
21
53.6317
0
LINE
8
BLACK
6
CONTINUOUS
10
17.675
20
53.6317
11
17.5234
21
53.7561
0
LINE
8
BLACK
6
CONTINUOUS
10
17.5234
20
53.7561
11
17.3991
21
53.9076
0
LINE
8
BLACK
6
CONTINUOUS
10
17.3991
20
53.9076
11
17.3066
21
54.0805
0
LINE
8
BLACK
6
CONTINUOUS
10
17.3066
20
54.0805
11
17.2497
21
54.2681
0
LINE
8
BLACK
6
CONTINUOUS
10
17.2497
20
54.2681
11
17.2305
21
54.4632
0
LINE
8
BLACK
6
CONTINUOUS
10
17.2305
20
54.4632
11
17.2497
21
54.6583
0
LINE
8
BLACK
6
CONTINUOUS
10
17.2497
20
54.6583
11
17.3066
21
54.8459
0
LINE
8
BLACK
6
CONTINUOUS
10
17.3066
20
54.8459
11
17.3991
21
55.0188
0
LINE
8
BLACK
6
CONTINUOUS
10
17.3991
20
55.0188
11
17.5234
21
55.1703
0
LINE
8
BLACK
6
CONTINUOUS
10
17.5234
20
55.1703
11
17.675
21
55.2947
0
LINE
8
BLACK
6
CONTINUOUS
10
17.675
20
55.2947
11
17.8478
21
55.3871
0
LINE
8
BLACK
6
CONTINUOUS
10
17.8478
20
55.3871
11
18.0354
21
55.444
0
LINE
8
BLACK
6
CONTINUOUS
10
18.0354
20
55.444
11
18.2305
21
55.4632
0
LINE
8
BLACK
6
CONTINUOUS
10
18.2305
20
55.4632
11
18.4256
21
55.444
0
LINE
8
BLACK
6
CONTINUOUS
10
13.7756
20
55.5024
11
13.9632
21
55.4455
0
LINE
8
BLACK
6
CONTINUOUS
10
13.9632
20
55.4455
11
14.1361
21
55.3531
0
LINE
8
BLACK
6
CONTINUOUS
10
14.1361
20
55.3531
11
14.2876
21
55.2287
0
LINE
8
BLACK
6
CONTINUOUS
10
14.2876
20
55.2287
11
14.412
21
55.0772
0
LINE
8
BLACK
6
CONTINUOUS
10
14.412
20
55.0772
11
14.5044
21
54.9043
0
LINE
8
BLACK
6
CONTINUOUS
10
14.5044
20
54.9043
11
14.5613
21
54.7167
0
LINE
8
BLACK
6
CONTINUOUS
10
14.5613
20
54.7167
11
14.5805
21
54.5216
0
LINE
8
BLACK
6
CONTINUOUS
10
14.5805
20
54.5216
11
14.5613
21
54.3265
0
LINE
8
BLACK
6
CONTINUOUS
10
14.5613
20
54.3265
11
14.5044
21
54.1389
0
LINE
8
BLACK
6
CONTINUOUS
10
14.5044
20
54.1389
11
14.412
21
53.9661
0
LINE
8
BLACK
6
CONTINUOUS
10
14.412
20
53.9661
11
14.2876
21
53.8145
0
LINE
8
BLACK
6
CONTINUOUS
10
14.2876
20
53.8145
11
14.1361
21
53.6902
0
LINE
8
BLACK
6
CONTINUOUS
10
14.1361
20
53.6902
11
13.9632
21
53.5977
0
LINE
8
BLACK
6
CONTINUOUS
10
13.9632
20
53.5977
11
13.7756
21
53.5408
0
LINE
8
BLACK
6
CONTINUOUS
10
13.7756
20
53.5408
11
13.5805
21
53.5216
0
LINE
8
BLACK
6
CONTINUOUS
10
13.5805
20
53.5216
11
13.3854
21
53.5408
0
LINE
8
BLACK
6
CONTINUOUS
10
13.3854
20
53.5408
11
13.1978
21
53.5977
0
LINE
8
BLACK
6
CONTINUOUS
10
13.1978
20
53.5977
11
13.0249
21
53.6902
0
LINE
8
BLACK
6
CONTINUOUS
10
13.0249
20
53.6902
11
12.8734
21
53.8145
0
LINE
8
BLACK
6
CONTINUOUS
10
12.8734
20
53.8145
11
12.749
21
53.9661
0
LINE
8
BLACK
6
CONTINUOUS
10
12.749
20
53.9661
11
12.6566
21
54.1389
0
LINE
8
BLACK
6
CONTINUOUS
10
12.6566
20
54.1389
11
12.5997
21
54.3265
0
LINE
8
BLACK
6
CONTINUOUS
10
12.5997
20
54.3265
11
12.5805
21
54.5216
0
LINE
8
BLACK
6
CONTINUOUS
10
12.5805
20
54.5216
11
12.5997
21
54.7167
0
LINE
8
BLACK
6
CONTINUOUS
10
12.5997
20
54.7167
11
12.6566
21
54.9043
0
LINE
8
BLACK
6
CONTINUOUS
10
12.6566
20
54.9043
11
12.749
21
55.0772
0
LINE
8
BLACK
6
CONTINUOUS
10
12.749
20
55.0772
11
12.8734
21
55.2287
0
LINE
8
BLACK
6
CONTINUOUS
10
12.8734
20
55.2287
11
13.0249
21
55.3531
0
LINE
8
BLACK
6
CONTINUOUS
10
13.0249
20
55.3531
11
13.1978
21
55.4455
0
LINE
8
BLACK
6
CONTINUOUS
10
13.1978
20
55.4455
11
13.3854
21
55.5024
0
LINE
8
BLACK
6
CONTINUOUS
10
13.3854
20
55.5024
11
13.5805
21
55.5216
0
LINE
8
BLACK
6
CONTINUOUS
10
13.5805
20
55.5216
11
13.7756
21
55.5024
0
LINE
8
BLACK
6
CONTINUOUS
10
101.515
20
58.0808
11
101.703
21
58.0239
0
LINE
8
BLACK
6
CONTINUOUS
10
101.703
20
58.0239
11
101.876
21
57.9315
0
LINE
8
BLACK
6
CONTINUOUS
10
101.876
20
57.9315
11
102.027
21
57.8071
0
LINE
8
BLACK
6
CONTINUOUS
10
102.027
20
57.8071
11
102.151
21
57.6556
0
LINE
8
BLACK
6
CONTINUOUS
10
102.151
20
57.6556
11
102.244
21
57.4827
0
LINE
8
BLACK
6
CONTINUOUS
10
102.244
20
57.4827
11
102.301
21
57.2951
0
LINE
8
BLACK
6
CONTINUOUS
10
102.301
20
57.2951
11
102.32
21
57.1
0
LINE
8
BLACK
6
CONTINUOUS
10
102.32
20
57.1
11
102.301
21
56.9049
0
LINE
8
BLACK
6
CONTINUOUS
10
102.301
20
56.9049
11
102.244
21
56.7173
0
LINE
8
BLACK
6
CONTINUOUS
10
102.244
20
56.7173
11
102.151
21
56.5444
0
LINE
8
BLACK
6
CONTINUOUS
10
102.151
20
56.5444
11
102.027
21
56.3929
0
LINE
8
BLACK
6
CONTINUOUS
10
102.027
20
56.3929
11
101.876
21
56.2685
0
LINE
8
BLACK
6
CONTINUOUS
10
101.876
20
56.2685
11
101.703
21
56.1761
0
LINE
8
BLACK
6
CONTINUOUS
10
101.703
20
56.1761
11
101.515
21
56.1192
0
LINE
8
BLACK
6
CONTINUOUS
10
101.515
20
56.1192
11
101.32
21
56.1
0
LINE
8
BLACK
6
CONTINUOUS
10
101.32
20
56.1
11
101.125
21
56.1192
0
LINE
8
BLACK
6
CONTINUOUS
10
101.125
20
56.1192
11
100.937
21
56.1761
0
LINE
8
BLACK
6
CONTINUOUS
10
100.937
20
56.1761
11
100.764
21
56.2685
0
LINE
8
BLACK
6
CONTINUOUS
10
100.764
20
56.2685
11
100.613
21
56.3929
0
LINE
8
BLACK
6
CONTINUOUS
10
100.613
20
56.3929
11
100.489
21
56.5444
0
LINE
8
BLACK
6
CONTINUOUS
10
100.489
20
56.5444
11
100.396
21
56.7173
0
LINE
8
BLACK
6
CONTINUOUS
10
100.396
20
56.7173
11
100.339
21
56.9049
0
LINE
8
BLACK
6
CONTINUOUS
10
100.339
20
56.9049
11
100.32
21
57.1
0
LINE
8
BLACK
6
CONTINUOUS
10
100.32
20
57.1
11
100.339
21
57.2951
0
LINE
8
BLACK
6
CONTINUOUS
10
100.339
20
57.2951
11
100.396
21
57.4827
0
LINE
8
BLACK
6
CONTINUOUS
10
100.396
20
57.4827
11
100.489
21
57.6556
0
LINE
8
BLACK
6
CONTINUOUS
10
100.489
20
57.6556
11
100.613
21
57.8071
0
LINE
8
BLACK
6
CONTINUOUS
10
100.613
20
57.8071
11
100.764
21
57.9315
0
LINE
8
BLACK
6
CONTINUOUS
10
100.764
20
57.9315
11
100.937
21
58.0239
0
LINE
8
BLACK
6
CONTINUOUS
10
100.937
20
58.0239
11
101.125
21
58.0808
0
LINE
8
BLACK
6
CONTINUOUS
10
101.125
20
58.0808
11
101.32
21
58.1
0
LINE
8
BLACK
6
CONTINUOUS
10
101.32
20
58.1
11
101.515
21
58.0808
0
LINE
8
BLACK
6
CONTINUOUS
10
98.9251
20
58.0808
11
99.1127
21
58.0239
0
LINE
8
BLACK
6
CONTINUOUS
10
99.1127
20
58.0239
11
99.2856
21
57.9315
0
LINE
8
BLACK
6
CONTINUOUS
10
99.2856
20
57.9315
11
99.4371
21
57.8071
0
LINE
8
BLACK
6
CONTINUOUS
10
99.4371
20
57.8071
11
99.5615
21
57.6556
0
LINE
8
BLACK
6
CONTINUOUS
10
99.5615
20
57.6556
11
99.6539
21
57.4827
0
LINE
8
BLACK
6
CONTINUOUS
10
99.6539
20
57.4827
11
99.7108
21
57.2951
0
LINE
8
BLACK
6
CONTINUOUS
10
99.7108
20
57.2951
11
99.73
21
57.1
0
LINE
8
BLACK
6
CONTINUOUS
10
99.73
20
57.1
11
99.7108
21
56.9049
0
LINE
8
BLACK
6
CONTINUOUS
10
99.7108
20
56.9049
11
99.6539
21
56.7173
0
LINE
8
BLACK
6
CONTINUOUS
10
99.6539
20
56.7173
11
99.5615
21
56.5444
0
LINE
8
BLACK
6
CONTINUOUS
10
99.5615
20
56.5444
11
99.4371
21
56.3929
0
LINE
8
BLACK
6
CONTINUOUS
10
99.4371
20
56.3929
11
99.2856
21
56.2685
0
LINE
8
BLACK
6
CONTINUOUS
10
99.2856
20
56.2685
11
99.1127
21
56.1761
0
LINE
8
BLACK
6
CONTINUOUS
10
99.1127
20
56.1761
11
98.9251
21
56.1192
0
LINE
8
BLACK
6
CONTINUOUS
10
98.9251
20
56.1192
11
98.73
21
56.1
0
LINE
8
BLACK
6
CONTINUOUS
10
98.73
20
56.1
11
98.5349
21
56.1192
0
LINE
8
BLACK
6
CONTINUOUS
10
98.5349
20
56.1192
11
98.3473
21
56.1761
0
LINE
8
BLACK
6
CONTINUOUS
10
98.3473
20
56.1761
11
98.1744
21
56.2685
0
LINE
8
BLACK
6
CONTINUOUS
10
98.1744
20
56.2685
11
98.0229
21
56.3929
0
LINE
8
BLACK
6
CONTINUOUS
10
98.0229
20
56.3929
11
97.8985
21
56.5444
0
LINE
8
BLACK
6
CONTINUOUS
10
97.8985
20
56.5444
11
97.8061
21
56.7173
0
LINE
8
BLACK
6
CONTINUOUS
10
97.8061
20
56.7173
11
97.7492
21
56.9049
0
LINE
8
BLACK
6
CONTINUOUS
10
97.7492
20
56.9049
11
97.73
21
57.1
0
LINE
8
BLACK
6
CONTINUOUS
10
97.73
20
57.1
11
97.7492
21
57.2951
0
LINE
8
BLACK
6
CONTINUOUS
10
97.7492
20
57.2951
11
97.8061
21
57.4827
0
LINE
8
BLACK
6
CONTINUOUS
10
97.8061
20
57.4827
11
97.8985
21
57.6556
0
LINE
8
BLACK
6
CONTINUOUS
10
97.8985
20
57.6556
11
98.0229
21
57.8071
0
LINE
8
BLACK
6
CONTINUOUS
10
98.0229
20
57.8071
11
98.1744
21
57.9315
0
LINE
8
BLACK
6
CONTINUOUS
10
98.1744
20
57.9315
11
98.3473
21
58.0239
0
LINE
8
BLACK
6
CONTINUOUS
10
98.3473
20
58.0239
11
98.5349
21
58.0808
0
LINE
8
BLACK
6
CONTINUOUS
10
98.5349
20
58.0808
11
98.73
21
58.1
0
LINE
8
BLACK
6
CONTINUOUS
10
98.73
20
58.1
11
98.9251
21
58.0808
0
LINE
8
BLACK
6
CONTINUOUS
10
106.695
20
58.1008
11
106.883
21
58.0439
0
LINE
8
BLACK
6
CONTINUOUS
10
106.883
20
58.0439
11
107.056
21
57.9515
0
LINE
8
BLACK
6
CONTINUOUS
10
107.056
20
57.9515
11
107.207
21
57.8271
0
LINE
8
BLACK
6
CONTINUOUS
10
107.207
20
57.8271
11
107.331
21
57.6756
0
LINE
8
BLACK
6
CONTINUOUS
10
107.331
20
57.6756
11
107.424
21
57.5027
0
LINE
8
BLACK
6
CONTINUOUS
10
107.424
20
57.5027
11
107.481
21
57.3151
0
LINE
8
BLACK
6
CONTINUOUS
10
107.481
20
57.3151
11
107.5
21
57.12
0
LINE
8
BLACK
6
CONTINUOUS
10
107.5
20
57.12
11
107.481
21
56.9249
0
LINE
8
BLACK
6
CONTINUOUS
10
107.481
20
56.9249
11
107.424
21
56.7373
0
LINE
8
BLACK
6
CONTINUOUS
10
107.424
20
56.7373
11
107.331
21
56.5644
0
LINE
8
BLACK
6
CONTINUOUS
10
107.331
20
56.5644
11
107.207
21
56.4129
0
LINE
8
BLACK
6
CONTINUOUS
10
107.207
20
56.4129
11
107.056
21
56.2885
0
LINE
8
BLACK
6
CONTINUOUS
10
107.056
20
56.2885
11
106.883
21
56.1961
0
LINE
8
BLACK
6
CONTINUOUS
10
106.883
20
56.1961
11
106.695
21
56.1392
0
LINE
8
BLACK
6
CONTINUOUS
10
106.695
20
56.1392
11
106.5
21
56.12
0
LINE
8
BLACK
6
CONTINUOUS
10
106.5
20
56.12
11
106.305
21
56.1392
0
LINE
8
BLACK
6
CONTINUOUS
10
106.305
20
56.1392
11
106.117
21
56.1961
0
LINE
8
BLACK
6
CONTINUOUS
10
106.117
20
56.1961
11
105.944
21
56.2885
0
LINE
8
BLACK
6
CONTINUOUS
10
105.944
20
56.2885
11
105.793
21
56.4129
0
LINE
8
BLACK
6
CONTINUOUS
10
105.793
20
56.4129
11
105.669
21
56.5644
0
LINE
8
BLACK
6
CONTINUOUS
10
105.669
20
56.5644
11
105.576
21
56.7373
0
LINE
8
BLACK
6
CONTINUOUS
10
105.576
20
56.7373
11
105.519
21
56.9249
0
LINE
8
BLACK
6
CONTINUOUS
10
105.519
20
56.9249
11
105.5
21
57.12
0
LINE
8
BLACK
6
CONTINUOUS
10
105.5
20
57.12
11
105.519
21
57.3151
0
LINE
8
BLACK
6
CONTINUOUS
10
105.519
20
57.3151
11
105.576
21
57.5027
0
LINE
8
BLACK
6
CONTINUOUS
10
105.576
20
57.5027
11
105.669
21
57.6756
0
LINE
8
BLACK
6
CONTINUOUS
10
105.669
20
57.6756
11
105.793
21
57.8271
0
LINE
8
BLACK
6
CONTINUOUS
10
105.793
20
57.8271
11
105.944
21
57.9515
0
LINE
8
BLACK
6
CONTINUOUS
10
105.944
20
57.9515
11
106.117
21
58.0439
0
LINE
8
BLACK
6
CONTINUOUS
10
106.117
20
58.0439
11
106.305
21
58.1008
0
LINE
8
BLACK
6
CONTINUOUS
10
106.305
20
58.1008
11
106.5
21
58.12
0
LINE
8
BLACK
6
CONTINUOUS
10
106.5
20
58.12
11
106.695
21
58.1008
0
LINE
8
BLACK
6
CONTINUOUS
10
104.115
20
58.1008
11
104.303
21
58.0439
0
LINE
8
BLACK
6
CONTINUOUS
10
104.303
20
58.0439
11
104.476
21
57.9515
0
LINE
8
BLACK
6
CONTINUOUS
10
104.476
20
57.9515
11
104.627
21
57.8271
0
LINE
8
BLACK
6
CONTINUOUS
10
104.627
20
57.8271
11
104.751
21
57.6756
0
LINE
8
BLACK
6
CONTINUOUS
10
104.751
20
57.6756
11
104.844
21
57.5027
0
LINE
8
BLACK
6
CONTINUOUS
10
104.844
20
57.5027
11
104.901
21
57.3151
0
LINE
8
BLACK
6
CONTINUOUS
10
104.901
20
57.3151
11
104.92
21
57.12
0
LINE
8
BLACK
6
CONTINUOUS
10
104.92
20
57.12
11
104.901
21
56.9249
0
LINE
8
BLACK
6
CONTINUOUS
10
104.901
20
56.9249
11
104.844
21
56.7373
0
LINE
8
BLACK
6
CONTINUOUS
10
104.844
20
56.7373
11
104.751
21
56.5644
0
LINE
8
BLACK
6
CONTINUOUS
10
104.751
20
56.5644
11
104.627
21
56.4129
0
LINE
8
BLACK
6
CONTINUOUS
10
104.627
20
56.4129
11
104.476
21
56.2885
0
LINE
8
BLACK
6
CONTINUOUS
10
104.476
20
56.2885
11
104.303
21
56.1961
0
LINE
8
BLACK
6
CONTINUOUS
10
104.303
20
56.1961
11
104.115
21
56.1392
0
LINE
8
BLACK
6
CONTINUOUS
10
104.115
20
56.1392
11
103.92
21
56.12
0
LINE
8
BLACK
6
CONTINUOUS
10
103.92
20
56.12
11
103.725
21
56.1392
0
LINE
8
BLACK
6
CONTINUOUS
10
103.725
20
56.1392
11
103.537
21
56.1961
0
LINE
8
BLACK
6
CONTINUOUS
10
103.537
20
56.1961
11
103.364
21
56.2885
0
LINE
8
BLACK
6
CONTINUOUS
10
103.364
20
56.2885
11
103.213
21
56.4129
0
LINE
8
BLACK
6
CONTINUOUS
10
103.213
20
56.4129
11
103.089
21
56.5644
0
LINE
8
BLACK
6
CONTINUOUS
10
103.089
20
56.5644
11
102.996
21
56.7373
0
LINE
8
BLACK
6
CONTINUOUS
10
102.996
20
56.7373
11
102.939
21
56.9249
0
LINE
8
BLACK
6
CONTINUOUS
10
102.939
20
56.9249
11
102.92
21
57.12
0
LINE
8
BLACK
6
CONTINUOUS
10
102.92
20
57.12
11
102.939
21
57.3151
0
LINE
8
BLACK
6
CONTINUOUS
10
102.939
20
57.3151
11
102.996
21
57.5027
0
LINE
8
BLACK
6
CONTINUOUS
10
102.996
20
57.5027
11
103.089
21
57.6756
0
LINE
8
BLACK
6
CONTINUOUS
10
103.089
20
57.6756
11
103.213
21
57.8271
0
LINE
8
BLACK
6
CONTINUOUS
10
103.213
20
57.8271
11
103.364
21
57.9515
0
LINE
8
BLACK
6
CONTINUOUS
10
103.364
20
57.9515
11
103.537
21
58.0439
0
LINE
8
BLACK
6
CONTINUOUS
10
103.537
20
58.0439
11
103.725
21
58.1008
0
LINE
8
BLACK
6
CONTINUOUS
10
103.725
20
58.1008
11
103.92
21
58.12
0
LINE
8
BLACK
6
CONTINUOUS
10
103.92
20
58.12
11
104.115
21
58.1008
0
LINE
8
BLACK
6
CONTINUOUS
10
63.1669
20
61.5312
11
63.3254
21
61.4757
0
LINE
8
BLACK
6
CONTINUOUS
10
63.3254
20
61.4757
11
63.4676
21
61.3864
0
LINE
8
BLACK
6
CONTINUOUS
10
63.4676
20
61.3864
11
63.5864
21
61.2676
0
LINE
8
BLACK
6
CONTINUOUS
10
63.5864
20
61.2676
11
63.6757
21
61.1254
0
LINE
8
BLACK
6
CONTINUOUS
10
63.6757
20
61.1254
11
63.7312
21
60.9669
0
LINE
8
BLACK
6
CONTINUOUS
10
63.7312
20
60.9669
11
63.75
21
60.8
0
LINE
8
BLACK
6
CONTINUOUS
10
63.75
20
60.8
11
63.7312
21
60.6331
0
LINE
8
BLACK
6
CONTINUOUS
10
63.7312
20
60.6331
11
63.6757
21
60.4746
0
LINE
8
BLACK
6
CONTINUOUS
10
63.6757
20
60.4746
11
63.5864
21
60.3324
0
LINE
8
BLACK
6
CONTINUOUS
10
63.5864
20
60.3324
11
63.4676
21
60.2136
0
LINE
8
BLACK
6
CONTINUOUS
10
63.4676
20
60.2136
11
63.3254
21
60.1243
0
LINE
8
BLACK
6
CONTINUOUS
10
63.3254
20
60.1243
11
63.1669
21
60.0688
0
LINE
8
BLACK
6
CONTINUOUS
10
63.1669
20
60.0688
11
63
21
60.05
0
LINE
8
BLACK
6
CONTINUOUS
10
63
20
60.05
11
62.8331
21
60.0688
0
LINE
8
BLACK
6
CONTINUOUS
10
62.8331
20
60.0688
11
62.6746
21
60.1243
0
LINE
8
BLACK
6
CONTINUOUS
10
62.6746
20
60.1243
11
62.5324
21
60.2136
0
LINE
8
BLACK
6
CONTINUOUS
10
62.5324
20
60.2136
11
62.4136
21
60.3324
0
LINE
8
BLACK
6
CONTINUOUS
10
62.4136
20
60.3324
11
62.3243
21
60.4746
0
LINE
8
BLACK
6
CONTINUOUS
10
62.3243
20
60.4746
11
62.2688
21
60.6331
0
LINE
8
BLACK
6
CONTINUOUS
10
62.2688
20
60.6331
11
62.25
21
60.8
0
LINE
8
BLACK
6
CONTINUOUS
10
62.25
20
60.8
11
62.2688
21
60.9669
0
LINE
8
BLACK
6
CONTINUOUS
10
62.2688
20
60.9669
11
62.3243
21
61.1254
0
LINE
8
BLACK
6
CONTINUOUS
10
62.3243
20
61.1254
11
62.4136
21
61.2676
0
LINE
8
BLACK
6
CONTINUOUS
10
62.4136
20
61.2676
11
62.5324
21
61.3864
0
LINE
8
BLACK
6
CONTINUOUS
10
62.5324
20
61.3864
11
62.6746
21
61.4757
0
LINE
8
BLACK
6
CONTINUOUS
10
62.6746
20
61.4757
11
62.8331
21
61.5312
0
LINE
8
BLACK
6
CONTINUOUS
10
62.8331
20
61.5312
11
63
21
61.55
0
LINE
8
BLACK
6
CONTINUOUS
10
63
20
61.55
11
63.1669
21
61.5312
0
LINE
8
BLACK
6
CONTINUOUS
10
59.7669
20
61.5312
11
59.9254
21
61.4757
0
LINE
8
BLACK
6
CONTINUOUS
10
59.9254
20
61.4757
11
60.0676
21
61.3864
0
LINE
8
BLACK
6
CONTINUOUS
10
60.0676
20
61.3864
11
60.1864
21
61.2676
0
LINE
8
BLACK
6
CONTINUOUS
10
60.1864
20
61.2676
11
60.2757
21
61.1254
0
LINE
8
BLACK
6
CONTINUOUS
10
60.2757
20
61.1254
11
60.3312
21
60.9669
0
LINE
8
BLACK
6
CONTINUOUS
10
60.3312
20
60.9669
11
60.35
21
60.8
0
LINE
8
BLACK
6
CONTINUOUS
10
60.35
20
60.8
11
60.3312
21
60.6331
0
LINE
8
BLACK
6
CONTINUOUS
10
60.3312
20
60.6331
11
60.2757
21
60.4746
0
LINE
8
BLACK
6
CONTINUOUS
10
60.2757
20
60.4746
11
60.1864
21
60.3324
0
LINE
8
BLACK
6
CONTINUOUS
10
60.1864
20
60.3324
11
60.0676
21
60.2136
0
LINE
8
BLACK
6
CONTINUOUS
10
60.0676
20
60.2136
11
59.9254
21
60.1243
0
LINE
8
BLACK
6
CONTINUOUS
10
59.9254
20
60.1243
11
59.7669
21
60.0688
0
LINE
8
BLACK
6
CONTINUOUS
10
59.7669
20
60.0688
11
59.6
21
60.05
0
LINE
8
BLACK
6
CONTINUOUS
10
59.6
20
60.05
11
59.4331
21
60.0688
0
LINE
8
BLACK
6
CONTINUOUS
10
59.4331
20
60.0688
11
59.2746
21
60.1243
0
LINE
8
BLACK
6
CONTINUOUS
10
59.2746
20
60.1243
11
59.1324
21
60.2136
0
LINE
8
BLACK
6
CONTINUOUS
10
59.1324
20
60.2136
11
59.0136
21
60.3324
0
LINE
8
BLACK
6
CONTINUOUS
10
59.0136
20
60.3324
11
58.9243
21
60.4746
0
LINE
8
BLACK
6
CONTINUOUS
10
58.9243
20
60.4746
11
58.8688
21
60.6331
0
LINE
8
BLACK
6
CONTINUOUS
10
58.8688
20
60.6331
11
58.85
21
60.8
0
LINE
8
BLACK
6
CONTINUOUS
10
58.85
20
60.8
11
58.8688
21
60.9669
0
LINE
8
BLACK
6
CONTINUOUS
10
58.8688
20
60.9669
11
58.9243
21
61.1254
0
LINE
8
BLACK
6
CONTINUOUS
10
58.9243
20
61.1254
11
59.0136
21
61.2676
0
LINE
8
BLACK
6
CONTINUOUS
10
59.0136
20
61.2676
11
59.1324
21
61.3864
0
LINE
8
BLACK
6
CONTINUOUS
10
59.1324
20
61.3864
11
59.2746
21
61.4757
0
LINE
8
BLACK
6
CONTINUOUS
10
59.2746
20
61.4757
11
59.4331
21
61.5312
0
LINE
8
BLACK
6
CONTINUOUS
10
59.4331
20
61.5312
11
59.6
21
61.55
0
LINE
8
BLACK
6
CONTINUOUS
10
59.6
20
61.55
11
59.7669
21
61.5312
0
LINE
8
BLACK
6
CONTINUOUS
10
47.6077
20
63.7848
11
47.7274
21
63.7079
0
LINE
8
BLACK
6
CONTINUOUS
10
47.7274
20
63.7079
11
47.8206
21
63.6003
0
LINE
8
BLACK
6
CONTINUOUS
10
47.8206
20
63.6003
11
47.8797
21
63.4709
0
LINE
8
BLACK
6
CONTINUOUS
10
47.8797
20
63.4709
11
47.9
21
63.33
0
LINE
8
BLACK
6
CONTINUOUS
10
47.9
20
63.33
11
47.8797
21
63.1891
0
LINE
8
BLACK
6
CONTINUOUS
10
47.8797
20
63.1891
11
47.8206
21
63.0597
0
LINE
8
BLACK
6
CONTINUOUS
10
47.8206
20
63.0597
11
47.7274
21
62.9521
0
LINE
8
BLACK
6
CONTINUOUS
10
47.7274
20
62.9521
11
47.6077
21
62.8752
0
LINE
8
BLACK
6
CONTINUOUS
10
47.6077
20
62.8752
11
47.4712
21
62.8351
0
LINE
8
BLACK
6
CONTINUOUS
10
47.4712
20
62.8351
11
47.3288
21
62.8351
0
LINE
8
BLACK
6
CONTINUOUS
10
47.3288
20
62.8351
11
47.1923
21
62.8752
0
LINE
8
BLACK
6
CONTINUOUS
10
47.1923
20
62.8752
11
47.0726
21
62.9521
0
LINE
8
BLACK
6
CONTINUOUS
10
47.0726
20
62.9521
11
46.9794
21
63.0597
0
LINE
8
BLACK
6
CONTINUOUS
10
46.9794
20
63.0597
11
46.9203
21
63.1891
0
LINE
8
BLACK
6
CONTINUOUS
10
46.9203
20
63.1891
11
46.9
21
63.33
0
LINE
8
BLACK
6
CONTINUOUS
10
46.9
20
63.33
11
46.9203
21
63.4709
0
LINE
8
BLACK
6
CONTINUOUS
10
46.9203
20
63.4709
11
46.9794
21
63.6003
0
LINE
8
BLACK
6
CONTINUOUS
10
46.9794
20
63.6003
11
47.0726
21
63.7079
0
LINE
8
BLACK
6
CONTINUOUS
10
47.0726
20
63.7079
11
47.1923
21
63.7848
0
LINE
8
BLACK
6
CONTINUOUS
10
47.1923
20
63.7848
11
47.3288
21
63.8249
0
LINE
8
BLACK
6
CONTINUOUS
10
47.3288
20
63.8249
11
47.4712
21
63.8249
0
LINE
8
BLACK
6
CONTINUOUS
10
47.4712
20
63.8249
11
47.6077
21
63.7848
0
LINE
8
BLACK
6
CONTINUOUS
10
105.25
20
66.5803
11
105.494
21
66.5217
0
LINE
8
BLACK
6
CONTINUOUS
10
105.494
20
66.5217
11
105.726
21
66.4256
0
LINE
8
BLACK
6
CONTINUOUS
10
105.726
20
66.4256
11
105.94
21
66.2944
0
LINE
8
BLACK
6
CONTINUOUS
10
105.94
20
66.2944
11
106.131
21
66.1314
0
LINE
8
BLACK
6
CONTINUOUS
10
106.131
20
66.1314
11
106.294
21
65.9405
0
LINE
8
BLACK
6
CONTINUOUS
10
106.294
20
65.9405
11
106.426
21
65.7264
0
LINE
8
BLACK
6
CONTINUOUS
10
106.426
20
65.7264
11
106.522
21
65.4944
0
LINE
8
BLACK
6
CONTINUOUS
10
106.522
20
65.4944
11
106.58
21
65.2503
0
LINE
8
BLACK
6
CONTINUOUS
10
106.58
20
65.2503
11
106.6
21
65
0
LINE
8
BLACK
6
CONTINUOUS
10
106.6
20
65
11
106.58
21
64.7497
0
LINE
8
BLACK
6
CONTINUOUS
10
106.58
20
64.7497
11
106.522
21
64.5056
0
LINE
8
BLACK
6
CONTINUOUS
10
106.522
20
64.5056
11
106.426
21
64.2736
0
LINE
8
BLACK
6
CONTINUOUS
10
106.426
20
64.2736
11
106.294
21
64.0595
0
LINE
8
BLACK
6
CONTINUOUS
10
106.294
20
64.0595
11
106.131
21
63.8686
0
LINE
8
BLACK
6
CONTINUOUS
10
106.131
20
63.8686
11
105.94
21
63.7056
0
LINE
8
BLACK
6
CONTINUOUS
10
105.94
20
63.7056
11
105.726
21
63.5744
0
LINE
8
BLACK
6
CONTINUOUS
10
105.726
20
63.5744
11
105.494
21
63.4783
0
LINE
8
BLACK
6
CONTINUOUS
10
105.494
20
63.4783
11
105.25
21
63.4197
0
LINE
8
BLACK
6
CONTINUOUS
10
105.25
20
63.4197
11
105
21
63.4
0
LINE
8
BLACK
6
CONTINUOUS
10
105
20
63.4
11
104.75
21
63.4197
0
LINE
8
BLACK
6
CONTINUOUS
10
104.75
20
63.4197
11
104.506
21
63.4783
0
LINE
8
BLACK
6
CONTINUOUS
10
104.506
20
63.4783
11
104.274
21
63.5744
0
LINE
8
BLACK
6
CONTINUOUS
10
104.274
20
63.5744
11
104.06
21
63.7056
0
LINE
8
BLACK
6
CONTINUOUS
10
104.06
20
63.7056
11
103.869
21
63.8686
0
LINE
8
BLACK
6
CONTINUOUS
10
103.869
20
63.8686
11
103.706
21
64.0595
0
LINE
8
BLACK
6
CONTINUOUS
10
103.706
20
64.0595
11
103.574
21
64.2736
0
LINE
8
BLACK
6
CONTINUOUS
10
103.574
20
64.2736
11
103.478
21
64.5056
0
LINE
8
BLACK
6
CONTINUOUS
10
103.478
20
64.5056
11
103.42
21
64.7497
0
LINE
8
BLACK
6
CONTINUOUS
10
103.42
20
64.7497
11
103.4
21
65
0
LINE
8
BLACK
6
CONTINUOUS
10
103.4
20
65
11
103.42
21
65.2503
0
LINE
8
BLACK
6
CONTINUOUS
10
103.42
20
65.2503
11
103.478
21
65.4944
0
LINE
8
BLACK
6
CONTINUOUS
10
103.478
20
65.4944
11
103.574
21
65.7264
0
LINE
8
BLACK
6
CONTINUOUS
10
103.574
20
65.7264
11
103.706
21
65.9405
0
LINE
8
BLACK
6
CONTINUOUS
10
103.706
20
65.9405
11
103.869
21
66.1314
0
LINE
8
BLACK
6
CONTINUOUS
10
103.869
20
66.1314
11
104.06
21
66.2944
0
LINE
8
BLACK
6
CONTINUOUS
10
104.06
20
66.2944
11
104.274
21
66.4256
0
LINE
8
BLACK
6
CONTINUOUS
10
104.274
20
66.4256
11
104.506
21
66.5217
0
LINE
8
BLACK
6
CONTINUOUS
10
104.506
20
66.5217
11
104.75
21
66.5803
0
LINE
8
BLACK
6
CONTINUOUS
10
104.75
20
66.5803
11
105
21
66.6
0
LINE
8
BLACK
6
CONTINUOUS
10
105
20
66.6
11
105.25
21
66.5803
0
LINE
8
BLACK
6
CONTINUOUS
10
5.25029
20
66.5803
11
5.49443
21
66.5217
0
LINE
8
BLACK
6
CONTINUOUS
10
5.49443
20
66.5217
11
5.72638
21
66.4256
0
LINE
8
BLACK
6
CONTINUOUS
10
5.72638
20
66.4256
11
5.94046
21
66.2944
0
LINE
8
BLACK
6
CONTINUOUS
10
5.94046
20
66.2944
11
6.13137
21
66.1314
0
LINE
8
BLACK
6
CONTINUOUS
10
6.13137
20
66.1314
11
6.29443
21
65.9405
0
LINE
8
BLACK
6
CONTINUOUS
10
6.29443
20
65.9405
11
6.42561
21
65.7264
0
LINE
8
BLACK
6
CONTINUOUS
10
6.42561
20
65.7264
11
6.52169
21
65.4944
0
LINE
8
BLACK
6
CONTINUOUS
10
6.52169
20
65.4944
11
6.5803
21
65.2503
0
LINE
8
BLACK
6
CONTINUOUS
10
6.5803
20
65.2503
11
6.6
21
65
0
LINE
8
BLACK
6
CONTINUOUS
10
6.6
20
65
11
6.5803
21
64.7497
0
LINE
8
BLACK
6
CONTINUOUS
10
6.5803
20
64.7497
11
6.52169
21
64.5056
0
LINE
8
BLACK
6
CONTINUOUS
10
6.52169
20
64.5056
11
6.42561
21
64.2736
0
LINE
8
BLACK
6
CONTINUOUS
10
6.42561
20
64.2736
11
6.29443
21
64.0595
0
LINE
8
BLACK
6
CONTINUOUS
10
6.29443
20
64.0595
11
6.13137
21
63.8686
0
LINE
8
BLACK
6
CONTINUOUS
10
6.13137
20
63.8686
11
5.94046
21
63.7056
0
LINE
8
BLACK
6
CONTINUOUS
10
5.94046
20
63.7056
11
5.72638
21
63.5744
0
LINE
8
BLACK
6
CONTINUOUS
10
5.72638
20
63.5744
11
5.49443
21
63.4783
0
LINE
8
BLACK
6
CONTINUOUS
10
5.49443
20
63.4783
11
5.25029
21
63.4197
0
LINE
8
BLACK
6
CONTINUOUS
10
5.25029
20
63.4197
11
5
21
63.4
0
LINE
8
BLACK
6
CONTINUOUS
10
5
20
63.4
11
4.7497
21
63.4197
0
LINE
8
BLACK
6
CONTINUOUS
10
4.7497
20
63.4197
11
4.50557
21
63.4783
0
LINE
8
BLACK
6
CONTINUOUS
10
4.50557
20
63.4783
11
4.27361
21
63.5744
0
LINE
8
BLACK
6
CONTINUOUS
10
4.27361
20
63.5744
11
4.05954
21
63.7056
0
LINE
8
BLACK
6
CONTINUOUS
10
4.05954
20
63.7056
11
3.86863
21
63.8686
0
LINE
8
BLACK
6
CONTINUOUS
10
3.86863
20
63.8686
11
3.70557
21
64.0595
0
LINE
8
BLACK
6
CONTINUOUS
10
3.70557
20
64.0595
11
3.57439
21
64.2736
0
LINE
8
BLACK
6
CONTINUOUS
10
3.57439
20
64.2736
11
3.47831
21
64.5056
0
LINE
8
BLACK
6
CONTINUOUS
10
3.47831
20
64.5056
11
3.4197
21
64.7497
0
LINE
8
BLACK
6
CONTINUOUS
10
3.4197
20
64.7497
11
3.4
21
65
0
LINE
8
BLACK
6
CONTINUOUS
10
3.4
20
65
11
3.4197
21
65.2503
0
LINE
8
BLACK
6
CONTINUOUS
10
3.4197
20
65.2503
11
3.47831
21
65.4944
0
LINE
8
BLACK
6
CONTINUOUS
10
3.47831
20
65.4944
11
3.57439
21
65.7264
0
LINE
8
BLACK
6
CONTINUOUS
10
3.57439
20
65.7264
11
3.70557
21
65.9405
0
LINE
8
BLACK
6
CONTINUOUS
10
3.70557
20
65.9405
11
3.86863
21
66.1314
0
LINE
8
BLACK
6
CONTINUOUS
10
3.86863
20
66.1314
11
4.05954
21
66.2944
0
LINE
8
BLACK
6
CONTINUOUS
10
4.05954
20
66.2944
11
4.27361
21
66.4256
0
LINE
8
BLACK
6
CONTINUOUS
10
4.27361
20
66.4256
11
4.50557
21
66.5217
0
LINE
8
BLACK
6
CONTINUOUS
10
4.50557
20
66.5217
11
4.7497
21
66.5803
0
LINE
8
BLACK
6
CONTINUOUS
10
4.7497
20
66.5803
11
5
21
66.6
0
LINE
8
BLACK
6
CONTINUOUS
10
5
20
66.6
11
5.25029
21
66.5803
0
LINE
8
BLACK
6
CONTINUOUS
10
47.9
20
64.1
11
46.9
21
64.1
0
LINE
8
BLACK
6
CONTINUOUS
10
46.9
20
64.1
11
46.9
21
65.1
0
LINE
8
BLACK
6
CONTINUOUS
10
46.9
20
65.1
11
47.9
21
65.1
0
LINE
8
BLACK
6
CONTINUOUS
10
47.9
20
65.1
11
47.9
21
64.1
0
LINE
8
BLACK
6
CONTINUOUS
10
18.2801
20
68.8273
11
18.4677
21
68.7704
0
LINE
8
BLACK
6
CONTINUOUS
10
18.4677
20
68.7704
11
18.6406
21
68.678
0
LINE
8
BLACK
6
CONTINUOUS
10
18.6406
20
68.678
11
18.7921
21
68.5537
0
LINE
8
BLACK
6
CONTINUOUS
10
18.7921
20
68.5537
11
18.9165
21
68.4021
0
LINE
8
BLACK
6
CONTINUOUS
10
18.9165
20
68.4021
11
19.0089
21
68.2292
0
LINE
8
BLACK
6
CONTINUOUS
10
19.0089
20
68.2292
11
19.0658
21
68.0416
0
LINE
8
BLACK
6
CONTINUOUS
10
19.0658
20
68.0416
11
19.085
21
67.8466
0
LINE
8
BLACK
6
CONTINUOUS
10
19.085
20
67.8466
11
19.0658
21
67.6515
0
LINE
8
BLACK
6
CONTINUOUS
10
19.0658
20
67.6515
11
19.0089
21
67.4639
0
LINE
8
BLACK
6
CONTINUOUS
10
19.0089
20
67.4639
11
18.9165
21
67.291
0
LINE
8
BLACK
6
CONTINUOUS
10
18.9165
20
67.291
11
18.7921
21
67.1395
0
LINE
8
BLACK
6
CONTINUOUS
10
18.7921
20
67.1395
11
18.6406
21
67.0151
0
LINE
8
BLACK
6
CONTINUOUS
10
18.6406
20
67.0151
11
18.4677
21
66.9227
0
LINE
8
BLACK
6
CONTINUOUS
10
18.4677
20
66.9227
11
18.2801
21
66.8658
0
LINE
8
BLACK
6
CONTINUOUS
10
18.2801
20
66.8658
11
18.085
21
66.8466
0
LINE
8
BLACK
6
CONTINUOUS
10
18.085
20
66.8466
11
17.8899
21
66.8658
0
LINE
8
BLACK
6
CONTINUOUS
10
17.8899
20
66.8658
11
17.7023
21
66.9227
0
LINE
8
BLACK
6
CONTINUOUS
10
17.7023
20
66.9227
11
17.5294
21
67.0151
0
LINE
8
BLACK
6
CONTINUOUS
10
17.5294
20
67.0151
11
17.3779
21
67.1395
0
LINE
8
BLACK
6
CONTINUOUS
10
17.3779
20
67.1395
11
17.2535
21
67.291
0
LINE
8
BLACK
6
CONTINUOUS
10
17.2535
20
67.291
11
17.1611
21
67.4639
0
LINE
8
BLACK
6
CONTINUOUS
10
17.1611
20
67.4639
11
17.1042
21
67.6515
0
LINE
8
BLACK
6
CONTINUOUS
10
17.1042
20
67.6515
11
17.085
21
67.8466
0
LINE
8
BLACK
6
CONTINUOUS
10
17.085
20
67.8466
11
17.1042
21
68.0416
0
LINE
8
BLACK
6
CONTINUOUS
10
17.1042
20
68.0416
11
17.1611
21
68.2292
0
LINE
8
BLACK
6
CONTINUOUS
10
17.1611
20
68.2292
11
17.2535
21
68.4021
0
LINE
8
BLACK
6
CONTINUOUS
10
17.2535
20
68.4021
11
17.3779
21
68.5537
0
LINE
8
BLACK
6
CONTINUOUS
10
17.3779
20
68.5537
11
17.5294
21
68.678
0
LINE
8
BLACK
6
CONTINUOUS
10
17.5294
20
68.678
11
17.7023
21
68.7704
0
LINE
8
BLACK
6
CONTINUOUS
10
17.7023
20
68.7704
11
17.8899
21
68.8273
0
LINE
8
BLACK
6
CONTINUOUS
10
17.8899
20
68.8273
11
18.085
21
68.8466
0
LINE
8
BLACK
6
CONTINUOUS
10
18.085
20
68.8466
11
18.2801
21
68.8273
0
LINE
8
BLACK
6
CONTINUOUS
10
13.6301
20
68.8858
11
13.8177
21
68.8289
0
LINE
8
BLACK
6
CONTINUOUS
10
13.8177
20
68.8289
11
13.9906
21
68.7365
0
LINE
8
BLACK
6
CONTINUOUS
10
13.9906
20
68.7365
11
14.1421
21
68.6121
0
LINE
8
BLACK
6
CONTINUOUS
10
14.1421
20
68.6121
11
14.2665
21
68.4606
0
LINE
8
BLACK
6
CONTINUOUS
10
14.2665
20
68.4606
11
14.3589
21
68.2877
0
LINE
8
BLACK
6
CONTINUOUS
10
14.3589
20
68.2877
11
14.4158
21
68.1001
0
LINE
8
BLACK
6
CONTINUOUS
10
14.4158
20
68.1001
11
14.435
21
67.905
0
LINE
8
BLACK
6
CONTINUOUS
10
14.435
20
67.905
11
14.4158
21
67.7099
0
LINE
8
BLACK
6
CONTINUOUS
10
14.4158
20
67.7099
11
14.3589
21
67.5223
0
LINE
8
BLACK
6
CONTINUOUS
10
14.3589
20
67.5223
11
14.2665
21
67.3494
0
LINE
8
BLACK
6
CONTINUOUS
10
14.2665
20
67.3494
11
14.1421
21
67.1979
0
LINE
8
BLACK
6
CONTINUOUS
10
14.1421
20
67.1979
11
13.9906
21
67.0735
0
LINE
8
BLACK
6
CONTINUOUS
10
13.9906
20
67.0735
11
13.8177
21
66.9811
0
LINE
8
BLACK
6
CONTINUOUS
10
13.8177
20
66.9811
11
13.6301
21
66.9242
0
LINE
8
BLACK
6
CONTINUOUS
10
13.6301
20
66.9242
11
13.435
21
66.905
0
LINE
8
BLACK
6
CONTINUOUS
10
13.435
20
66.905
11
13.2399
21
66.9242
0
LINE
8
BLACK
6
CONTINUOUS
10
13.2399
20
66.9242
11
13.0523
21
66.9811
0
LINE
8
BLACK
6
CONTINUOUS
10
13.0523
20
66.9811
11
12.8794
21
67.0735
0
LINE
8
BLACK
6
CONTINUOUS
10
12.8794
20
67.0735
11
12.7279
21
67.1979
0
LINE
8
BLACK
6
CONTINUOUS
10
12.7279
20
67.1979
11
12.6035
21
67.3494
0
LINE
8
BLACK
6
CONTINUOUS
10
12.6035
20
67.3494
11
12.5111
21
67.5223
0
LINE
8
BLACK
6
CONTINUOUS
10
12.5111
20
67.5223
11
12.4542
21
67.7099
0
LINE
8
BLACK
6
CONTINUOUS
10
12.4542
20
67.7099
11
12.435
21
67.905
0
LINE
8
BLACK
6
CONTINUOUS
10
12.435
20
67.905
11
12.4542
21
68.1001
0
LINE
8
BLACK
6
CONTINUOUS
10
12.4542
20
68.1001
11
12.5111
21
68.2877
0
LINE
8
BLACK
6
CONTINUOUS
10
12.5111
20
68.2877
11
12.6035
21
68.4606
0
LINE
8
BLACK
6
CONTINUOUS
10
12.6035
20
68.4606
11
12.7279
21
68.6121
0
LINE
8
BLACK
6
CONTINUOUS
10
12.7279
20
68.6121
11
12.8794
21
68.7365
0
LINE
8
BLACK
6
CONTINUOUS
10
12.8794
20
68.7365
11
13.0523
21
68.8289
0
LINE
8
BLACK
6
CONTINUOUS
10
13.0523
20
68.8289
11
13.2399
21
68.8858
0
LINE
8
BLACK
6
CONTINUOUS
10
13.2399
20
68.8858
11
13.435
21
68.905
0
LINE
8
BLACK
6
CONTINUOUS
10
13.435
20
68.905
11
13.6301
21
68.8858
  0
ENDSEC
  0
EOF
