%TF.GenerationSoftware,KiCad,Pcbnew,(7.0.0)*%
%TF.CreationDate,2024-01-25T16:52:26+01:00*%
%TF.ProjectId,Sensorbox,53656e73-6f72-4626-9f78-2e6b69636164,rev?*%
%TF.SameCoordinates,PX62b48e0PY7ffbac0*%
%TF.FileFunction,Copper,L2,Bot*%
%TF.FilePolarity,Positive*%
%FSLAX46Y46*%
G04 Gerber Fmt 4.6, Leading zero omitted, Abs format (unit mm)*
G04 Created by KiCad (PCBNEW (7.0.0)) date 2024-01-25 16:52:26*
%MOMM*%
%LPD*%
G01*
G04 APERTURE LIST*
%TA.AperFunction,ComponentPad*%
%ADD10C,2.000000*%
%TD*%
%TA.AperFunction,ComponentPad*%
%ADD11R,2.000000X2.000000*%
%TD*%
%TA.AperFunction,ComponentPad*%
%ADD12R,1.500000X1.050000*%
%TD*%
%TA.AperFunction,ComponentPad*%
%ADD13O,1.500000X1.050000*%
%TD*%
%TA.AperFunction,ComponentPad*%
%ADD14R,1.000000X1.000000*%
%TD*%
%TA.AperFunction,ComponentPad*%
%ADD15O,1.000000X1.000000*%
%TD*%
%TA.AperFunction,ComponentPad*%
%ADD16C,1.440000*%
%TD*%
%TA.AperFunction,ComponentPad*%
%ADD17R,1.905000X2.000000*%
%TD*%
%TA.AperFunction,ComponentPad*%
%ADD18O,1.905000X2.000000*%
%TD*%
%TA.AperFunction,ComponentPad*%
%ADD19C,1.500000*%
%TD*%
%TA.AperFunction,ComponentPad*%
%ADD20R,4.600000X2.000000*%
%TD*%
%TA.AperFunction,ComponentPad*%
%ADD21O,4.200000X2.000000*%
%TD*%
%TA.AperFunction,ComponentPad*%
%ADD22O,2.000000X4.200000*%
%TD*%
%TA.AperFunction,ViaPad*%
%ADD23C,1.000000*%
%TD*%
%TA.AperFunction,Conductor*%
%ADD24C,1.000000*%
%TD*%
G04 APERTURE END LIST*
D10*
%TO.P,SW101,1,1*%
%TO.N,GND*%
X13580505Y54521625D03*
%TO.P,SW101,2,2*%
X13435000Y67905000D03*
%TO.P,SW101,3,K*%
%TO.N,Net-(SW101-A)*%
X18230524Y54463184D03*
%TO.P,SW101,4,A*%
X18085019Y67846559D03*
%TD*%
%TO.P,SB103,1,VIN*%
%TO.N,+5V*%
X17206816Y47030524D03*
%TO.P,SB103,2,OUT*%
%TO.N,Data_DHT22*%
X14606816Y47010524D03*
D11*
%TO.P,SB103,3,GND*%
%TO.N,GND*%
X12016815Y47010523D03*
%TD*%
D10*
%TO.P,SW102,1,1*%
%TO.N,GND*%
X53758441Y53750019D03*
%TO.P,SW102,2,2*%
X67141816Y53895524D03*
%TO.P,SW102,3,K*%
%TO.N,Net-(SW102-A)*%
X53700000Y49100000D03*
%TO.P,SW102,4,A*%
X67083375Y49245505D03*
%TD*%
D12*
%TO.P,U103,1,GND*%
%TO.N,GND*%
X49139999Y21724999D03*
D13*
%TO.P,U103,2,VI*%
%TO.N,+5V*%
X49139999Y20454999D03*
%TO.P,U103,3,VO*%
%TO.N,+3V3*%
X49139999Y19184999D03*
%TD*%
D10*
%TO.P,SB105,1,VCC*%
%TO.N,+5V*%
X99580000Y40400000D03*
%TO.P,SB105,2,GND*%
%TO.N,GND*%
X97000000Y40400000D03*
%TO.P,SB105,3,D0*%
%TO.N,unconnected-(SB105-D0-Pad3)*%
X94400000Y40420000D03*
%TO.P,SB105,4,A0*%
%TO.N,Net-(SB105-A0)*%
X91810000Y40420000D03*
%TD*%
D14*
%TO.P,J101,1,Pin_1*%
%TO.N,Net-(J101-Pin_1)*%
X47399999Y64599999D03*
D15*
%TO.P,J101,2,Pin_2*%
%TO.N,Net-(J101-Pin_2)*%
X47399999Y63329999D03*
%TD*%
D10*
%TO.P,SB104,1,Data*%
%TO.N,Data_SR602*%
X73560000Y20580000D03*
%TO.P,SB104,2,VIN*%
%TO.N,+5V*%
X76160000Y20600000D03*
D11*
%TO.P,SB104,3,GND*%
%TO.N,GND*%
X78749999Y20599999D03*
%TD*%
D10*
%TO.P,SB102,1,VIN*%
%TO.N,+3V3*%
X106500000Y57120000D03*
%TO.P,SB102,2,GND*%
%TO.N,GND*%
X103920000Y57120000D03*
%TO.P,SB102,3,SCL*%
%TO.N,SCL*%
X101320000Y57100000D03*
%TO.P,SB102,4,SDA*%
%TO.N,SDA*%
X98730000Y57100000D03*
%TD*%
D16*
%TO.P,RV101,1,1*%
%TO.N,Net-(SB101-R-GN)*%
X64440000Y16045000D03*
%TO.P,RV101,2,2*%
%TO.N,Net-(SB101-R-GN2)*%
X61900000Y21125000D03*
%TO.P,RV101,3,3*%
%TO.N,unconnected-(RV101-Pad3)*%
X59360000Y16045000D03*
%TD*%
D17*
%TO.P,U102,1,VI*%
%TO.N,VCC*%
X36959999Y20654999D03*
D18*
%TO.P,U102,2,GND*%
%TO.N,GND*%
X39499999Y20654999D03*
%TO.P,U102,3,VO*%
%TO.N,+5V*%
X42039999Y20654999D03*
%TD*%
D19*
%TO.P,R101,1*%
%TO.N,+5V*%
X59600000Y60800000D03*
%TO.P,R101,2*%
%TO.N,Net-(UB101-A1)*%
X63000000Y60800000D03*
%TD*%
D20*
%TO.P,J102,1*%
%TO.N,VCC*%
X36549999Y14149999D03*
D21*
%TO.P,J102,2*%
%TO.N,GND*%
X36549999Y7849999D03*
D22*
%TO.P,J102,3,MountPin*%
X41349999Y11249999D03*
%TD*%
D23*
%TO.N,+3V3*%
X53200000Y46300000D03*
X21600000Y43200000D03*
X22700000Y53200000D03*
%TO.N,+5V*%
X93800000Y60700000D03*
%TO.N,SDA*%
X98700000Y55300000D03*
X86300000Y55300000D03*
%TD*%
D24*
%TO.N,+3V3*%
X106500000Y53200000D02*
X102300000Y49000000D01*
X45100000Y35100000D02*
X50500000Y35100000D01*
X49100000Y13400000D02*
X49140000Y13440000D01*
X21600000Y52100000D02*
X22700000Y53200000D01*
X84700000Y47500000D02*
X84700000Y13600000D01*
X45800000Y19900000D02*
X45100000Y20600000D01*
X22800000Y35100000D02*
X21600000Y36300000D01*
X49140000Y13440000D02*
X49140000Y19185000D01*
X45100000Y35100000D02*
X22800000Y35100000D01*
X51300000Y35900000D02*
X53200000Y37800000D01*
X106500000Y57120000D02*
X106500000Y53200000D01*
X82900000Y11800000D02*
X50700000Y11800000D01*
X21600000Y36300000D02*
X21600000Y43200000D01*
X53200000Y37800000D02*
X53200000Y46300000D01*
X46515000Y19185000D02*
X45800000Y19900000D01*
X50700000Y11800000D02*
X49100000Y13400000D01*
X50500000Y35100000D02*
X51300000Y35900000D01*
X49140000Y19185000D02*
X46515000Y19185000D01*
X102300000Y49000000D02*
X86200000Y49000000D01*
X45100000Y20600000D02*
X45100000Y35100000D01*
X21600000Y43200000D02*
X21600000Y52100000D01*
X84700000Y13600000D02*
X82900000Y11800000D01*
X86200000Y49000000D02*
X84700000Y47500000D01*
%TO.N,+5V*%
X71000000Y24200000D02*
X74900000Y24200000D01*
X74900000Y24200000D02*
X76140000Y22960000D01*
X42040000Y22560000D02*
X42040000Y20655000D01*
X57645000Y20455000D02*
X59700000Y18400000D01*
X60400000Y62900000D02*
X59600000Y62100000D01*
X93800000Y61700000D02*
X92600000Y62900000D01*
X17206816Y47030524D02*
X17206816Y24793184D01*
X76160000Y22960000D02*
X76160000Y20600000D01*
X59700000Y18400000D02*
X67600000Y18400000D01*
X59600000Y62100000D02*
X59600000Y60800000D01*
X76140000Y22960000D02*
X76160000Y22960000D01*
X92600000Y62900000D02*
X60400000Y62900000D01*
X57455000Y20455000D02*
X49140000Y20455000D01*
X17206816Y24793184D02*
X18300000Y23700000D01*
X69500000Y22700000D02*
X71000000Y24200000D01*
X59600000Y60800000D02*
X59600000Y22600000D01*
X59600000Y22600000D02*
X57455000Y20455000D01*
X49140000Y20455000D02*
X57645000Y20455000D01*
X40900000Y23700000D02*
X42040000Y22560000D01*
X69500000Y20300000D02*
X69500000Y22700000D01*
X67600000Y18400000D02*
X69500000Y20300000D01*
X93800000Y60700000D02*
X93800000Y61700000D01*
X18300000Y23700000D02*
X40900000Y23700000D01*
%TO.N,SDA*%
X86300000Y55300000D02*
X98700000Y55300000D01*
%TD*%
%TA.AperFunction,Conductor*%
%TO.N,GND*%
G36*
X109937500Y69982887D02*
G01*
X109982887Y69937500D01*
X109999500Y69875500D01*
X109999500Y124500D01*
X109982887Y62500D01*
X109937500Y17113D01*
X109875500Y500D01*
X124500Y500D01*
X62500Y17113D01*
X17113Y62500D01*
X500Y124500D01*
X500Y4932235D01*
X3145788Y4932235D01*
X3146282Y4927738D01*
X3146283Y4927733D01*
X3174917Y4667494D01*
X3174918Y4667487D01*
X3175414Y4662982D01*
X3176559Y4658602D01*
X3176561Y4658592D01*
X3208830Y4535162D01*
X3243928Y4400912D01*
X3245693Y4396758D01*
X3245696Y4396750D01*
X3348099Y4155777D01*
X3349870Y4151610D01*
X3352226Y4147749D01*
X3352229Y4147744D01*
X3488618Y3924263D01*
X3490982Y3920390D01*
X3664255Y3712180D01*
X3667630Y3709156D01*
X3667631Y3709155D01*
X3772330Y3615344D01*
X3865998Y3531418D01*
X4091910Y3381956D01*
X4337176Y3266980D01*
X4596569Y3188940D01*
X4864561Y3149500D01*
X5065369Y3149500D01*
X5067631Y3149500D01*
X5270156Y3164323D01*
X5534553Y3223220D01*
X5787558Y3319986D01*
X6023777Y3452559D01*
X6238177Y3618112D01*
X6426186Y3813119D01*
X6583799Y4033421D01*
X6707656Y4274325D01*
X6795118Y4530695D01*
X6844319Y4797067D01*
X6849259Y4932235D01*
X103145788Y4932235D01*
X103146282Y4927738D01*
X103146283Y4927733D01*
X103174917Y4667494D01*
X103174918Y4667487D01*
X103175414Y4662982D01*
X103176559Y4658602D01*
X103176561Y4658592D01*
X103208830Y4535162D01*
X103243928Y4400912D01*
X103245693Y4396758D01*
X103245696Y4396750D01*
X103348099Y4155777D01*
X103349870Y4151610D01*
X103352226Y4147749D01*
X103352229Y4147744D01*
X103488618Y3924263D01*
X103490982Y3920390D01*
X103664255Y3712180D01*
X103667630Y3709156D01*
X103667631Y3709155D01*
X103772330Y3615344D01*
X103865998Y3531418D01*
X104091910Y3381956D01*
X104337176Y3266980D01*
X104596569Y3188940D01*
X104864561Y3149500D01*
X105065369Y3149500D01*
X105067631Y3149500D01*
X105270156Y3164323D01*
X105534553Y3223220D01*
X105787558Y3319986D01*
X106023777Y3452559D01*
X106238177Y3618112D01*
X106426186Y3813119D01*
X106583799Y4033421D01*
X106707656Y4274325D01*
X106795118Y4530695D01*
X106844319Y4797067D01*
X106854212Y5067765D01*
X106824586Y5337018D01*
X106756072Y5599088D01*
X106650130Y5848390D01*
X106509018Y6079610D01*
X106335745Y6287820D01*
X106266110Y6350213D01*
X106137382Y6465554D01*
X106137378Y6465558D01*
X106134002Y6468582D01*
X105908090Y6618044D01*
X105903996Y6619964D01*
X105903991Y6619966D01*
X105666929Y6731096D01*
X105666925Y6731098D01*
X105662824Y6733020D01*
X105658477Y6734328D01*
X105658474Y6734329D01*
X105407772Y6809754D01*
X105407771Y6809755D01*
X105403431Y6811060D01*
X105398957Y6811719D01*
X105398950Y6811720D01*
X105139913Y6849842D01*
X105139907Y6849843D01*
X105135439Y6850500D01*
X104932369Y6850500D01*
X104930120Y6850336D01*
X104930109Y6850335D01*
X104734363Y6836008D01*
X104734359Y6836008D01*
X104729844Y6835677D01*
X104725426Y6834693D01*
X104725420Y6834692D01*
X104469877Y6777768D01*
X104469861Y6777764D01*
X104465447Y6776780D01*
X104461216Y6775162D01*
X104461210Y6775160D01*
X104216673Y6681633D01*
X104216663Y6681629D01*
X104212442Y6680014D01*
X104208494Y6677799D01*
X104208489Y6677796D01*
X103980176Y6549660D01*
X103980171Y6549657D01*
X103976223Y6547441D01*
X103972639Y6544675D01*
X103972635Y6544671D01*
X103765407Y6384657D01*
X103765394Y6384646D01*
X103761823Y6381888D01*
X103758685Y6378634D01*
X103758678Y6378627D01*
X103576958Y6190143D01*
X103576952Y6190136D01*
X103573814Y6186881D01*
X103571189Y6183213D01*
X103571179Y6183200D01*
X103418834Y5970260D01*
X103418830Y5970255D01*
X103416201Y5966579D01*
X103414132Y5962556D01*
X103414129Y5962550D01*
X103294416Y5729707D01*
X103294411Y5729696D01*
X103292344Y5725675D01*
X103290884Y5721398D01*
X103290879Y5721384D01*
X103206348Y5473605D01*
X103206344Y5473593D01*
X103204882Y5469305D01*
X103204057Y5464841D01*
X103204057Y5464839D01*
X103156504Y5207394D01*
X103156502Y5207381D01*
X103155681Y5202933D01*
X103155515Y5198407D01*
X103155515Y5198401D01*
X103150576Y5063238D01*
X103145788Y4932235D01*
X6849259Y4932235D01*
X6854212Y5067765D01*
X6824586Y5337018D01*
X6756072Y5599088D01*
X6650130Y5848390D01*
X6509018Y6079610D01*
X6335745Y6287820D01*
X6266110Y6350213D01*
X6137382Y6465554D01*
X6137378Y6465558D01*
X6134002Y6468582D01*
X5908090Y6618044D01*
X5903996Y6619964D01*
X5903991Y6619966D01*
X5666929Y6731096D01*
X5666925Y6731098D01*
X5662824Y6733020D01*
X5658477Y6734328D01*
X5658474Y6734329D01*
X5407772Y6809754D01*
X5407771Y6809755D01*
X5403431Y6811060D01*
X5398957Y6811719D01*
X5398950Y6811720D01*
X5139913Y6849842D01*
X5139907Y6849843D01*
X5135439Y6850500D01*
X4932369Y6850500D01*
X4930120Y6850336D01*
X4930109Y6850335D01*
X4734363Y6836008D01*
X4734359Y6836008D01*
X4729844Y6835677D01*
X4725426Y6834693D01*
X4725420Y6834692D01*
X4469877Y6777768D01*
X4469861Y6777764D01*
X4465447Y6776780D01*
X4461216Y6775162D01*
X4461210Y6775160D01*
X4216673Y6681633D01*
X4216663Y6681629D01*
X4212442Y6680014D01*
X4208494Y6677799D01*
X4208489Y6677796D01*
X3980176Y6549660D01*
X3980171Y6549657D01*
X3976223Y6547441D01*
X3972639Y6544675D01*
X3972635Y6544671D01*
X3765407Y6384657D01*
X3765394Y6384646D01*
X3761823Y6381888D01*
X3758685Y6378634D01*
X3758678Y6378627D01*
X3576958Y6190143D01*
X3576952Y6190136D01*
X3573814Y6186881D01*
X3571189Y6183213D01*
X3571179Y6183200D01*
X3418834Y5970260D01*
X3418830Y5970255D01*
X3416201Y5966579D01*
X3414132Y5962556D01*
X3414129Y5962550D01*
X3294416Y5729707D01*
X3294411Y5729696D01*
X3292344Y5725675D01*
X3290884Y5721398D01*
X3290879Y5721384D01*
X3206348Y5473605D01*
X3206344Y5473593D01*
X3204882Y5469305D01*
X3204057Y5464841D01*
X3204057Y5464839D01*
X3156504Y5207394D01*
X3156502Y5207381D01*
X3155681Y5202933D01*
X3155515Y5198407D01*
X3155515Y5198401D01*
X3150576Y5063238D01*
X3145788Y4932235D01*
X500Y4932235D01*
X500Y7586680D01*
X33973199Y7586680D01*
X33990072Y7485568D01*
X33992581Y7475659D01*
X34069967Y7250240D01*
X34074070Y7240886D01*
X34187504Y7031277D01*
X34193096Y7022719D01*
X34339486Y6834638D01*
X34346399Y6827128D01*
X34521747Y6665708D01*
X34529820Y6659425D01*
X34729338Y6529073D01*
X34738328Y6524208D01*
X34956585Y6428473D01*
X34966252Y6425154D01*
X35197287Y6366647D01*
X35207381Y6364963D01*
X35385390Y6350213D01*
X35390527Y6350000D01*
X36283674Y6350000D01*
X36296549Y6353451D01*
X36300000Y6366326D01*
X36800000Y6366326D01*
X36803450Y6353451D01*
X36816326Y6350000D01*
X37709473Y6350000D01*
X37714609Y6350213D01*
X37892618Y6364963D01*
X37902712Y6366647D01*
X38133747Y6425154D01*
X38143414Y6428473D01*
X38361671Y6524208D01*
X38370661Y6529073D01*
X38570179Y6659425D01*
X38578252Y6665708D01*
X38753600Y6827128D01*
X38760513Y6834638D01*
X38906903Y7022719D01*
X38912495Y7031277D01*
X39025929Y7240886D01*
X39030032Y7250240D01*
X39107418Y7475659D01*
X39109927Y7485568D01*
X39126800Y7586680D01*
X39126233Y7597637D01*
X39115516Y7600000D01*
X36816326Y7600000D01*
X36803450Y7596550D01*
X36800000Y7583674D01*
X36800000Y6366326D01*
X36300000Y6366326D01*
X36300000Y7583674D01*
X36296549Y7596550D01*
X36283674Y7600000D01*
X33984484Y7600000D01*
X33973766Y7597637D01*
X33973199Y7586680D01*
X500Y7586680D01*
X500Y8113321D01*
X33973199Y8113321D01*
X33973766Y8102364D01*
X33984484Y8100000D01*
X36283674Y8100000D01*
X36296549Y8103451D01*
X36300000Y8116326D01*
X36800000Y8116326D01*
X36803450Y8103451D01*
X36816326Y8100000D01*
X39115516Y8100000D01*
X39126233Y8102364D01*
X39126800Y8113321D01*
X39109927Y8214433D01*
X39107418Y8224342D01*
X39030032Y8449761D01*
X39025929Y8459115D01*
X38912495Y8668724D01*
X38906903Y8677282D01*
X38760513Y8865363D01*
X38753600Y8872873D01*
X38578252Y9034293D01*
X38570179Y9040576D01*
X38370661Y9170928D01*
X38361671Y9175793D01*
X38143414Y9271528D01*
X38133747Y9274847D01*
X37902712Y9333354D01*
X37892618Y9335038D01*
X37714609Y9349788D01*
X37709473Y9350000D01*
X36816326Y9350000D01*
X36803450Y9346550D01*
X36800000Y9333674D01*
X36800000Y8116326D01*
X36300000Y8116326D01*
X36300000Y9333674D01*
X36296549Y9346550D01*
X36283674Y9350000D01*
X35390527Y9350000D01*
X35385390Y9349788D01*
X35207381Y9335038D01*
X35197287Y9333354D01*
X34966252Y9274847D01*
X34956585Y9271528D01*
X34738328Y9175793D01*
X34729338Y9170928D01*
X34529820Y9040576D01*
X34521747Y9034293D01*
X34346399Y8872873D01*
X34339486Y8865363D01*
X34193096Y8677282D01*
X34187504Y8668724D01*
X34074070Y8459115D01*
X34069967Y8449761D01*
X33992581Y8224342D01*
X33990072Y8214433D01*
X33973199Y8113321D01*
X500Y8113321D01*
X500Y10090527D01*
X39850000Y10090527D01*
X39850212Y10085391D01*
X39864962Y9907382D01*
X39866646Y9897288D01*
X39925153Y9666253D01*
X39928472Y9656586D01*
X40024207Y9438329D01*
X40029072Y9429339D01*
X40159424Y9229821D01*
X40165707Y9221748D01*
X40327127Y9046400D01*
X40334637Y9039487D01*
X40522718Y8893097D01*
X40531276Y8887505D01*
X40740885Y8774071D01*
X40750239Y8769968D01*
X40975658Y8692582D01*
X40985567Y8690073D01*
X41086679Y8673200D01*
X41097636Y8673767D01*
X41100000Y8684484D01*
X41600000Y8684484D01*
X41602363Y8673767D01*
X41613320Y8673200D01*
X41714432Y8690073D01*
X41724341Y8692582D01*
X41949760Y8769968D01*
X41959114Y8774071D01*
X42168723Y8887505D01*
X42177281Y8893097D01*
X42365362Y9039487D01*
X42372872Y9046400D01*
X42534292Y9221748D01*
X42540575Y9229821D01*
X42670927Y9429339D01*
X42675792Y9438329D01*
X42771527Y9656586D01*
X42774846Y9666253D01*
X42833353Y9897288D01*
X42835037Y9907382D01*
X42849787Y10085391D01*
X42850000Y10090527D01*
X42850000Y10983674D01*
X42846549Y10996550D01*
X42833674Y11000000D01*
X41616326Y11000000D01*
X41603450Y10996550D01*
X41600000Y10983674D01*
X41600000Y8684484D01*
X41100000Y8684484D01*
X41100000Y10983674D01*
X41096549Y10996550D01*
X41083674Y11000000D01*
X39866326Y11000000D01*
X39853450Y10996550D01*
X39850000Y10983674D01*
X39850000Y10090527D01*
X500Y10090527D01*
X500Y11516326D01*
X39850000Y11516326D01*
X39853450Y11503451D01*
X39866326Y11500000D01*
X41083674Y11500000D01*
X41096549Y11503451D01*
X41100000Y11516326D01*
X41600000Y11516326D01*
X41603450Y11503451D01*
X41616326Y11500000D01*
X42833674Y11500000D01*
X42846549Y11503451D01*
X42850000Y11516326D01*
X42850000Y12409473D01*
X42849787Y12414610D01*
X42835037Y12592619D01*
X42833353Y12602713D01*
X42774846Y12833748D01*
X42771527Y12843415D01*
X42675792Y13061672D01*
X42670927Y13070662D01*
X42540575Y13270180D01*
X42534292Y13278253D01*
X42372872Y13453601D01*
X42365362Y13460514D01*
X42177281Y13606904D01*
X42168723Y13612496D01*
X41959114Y13725930D01*
X41949760Y13730033D01*
X41724341Y13807419D01*
X41714432Y13809928D01*
X41613320Y13826801D01*
X41602363Y13826234D01*
X41600000Y13815516D01*
X41600000Y11516326D01*
X41100000Y11516326D01*
X41100000Y13815516D01*
X41097636Y13826234D01*
X41086679Y13826801D01*
X40985567Y13809928D01*
X40975658Y13807419D01*
X40750239Y13730033D01*
X40740885Y13725930D01*
X40531276Y13612496D01*
X40522718Y13606904D01*
X40334637Y13460514D01*
X40327127Y13453601D01*
X40165707Y13278253D01*
X40159424Y13270180D01*
X40029072Y13070662D01*
X40024207Y13061672D01*
X39928472Y12843415D01*
X39925153Y12833748D01*
X39866646Y12602713D01*
X39864962Y12592619D01*
X39850212Y12414610D01*
X39850000Y12409473D01*
X39850000Y11516326D01*
X500Y11516326D01*
X500Y13105422D01*
X33749500Y13105422D01*
X33749501Y13102128D01*
X33749853Y13098850D01*
X33749854Y13098839D01*
X33755079Y13050232D01*
X33755080Y13050227D01*
X33755909Y13042517D01*
X33758619Y13035251D01*
X33758620Y13035247D01*
X33781202Y12974703D01*
X33806204Y12907669D01*
X33811518Y12900570D01*
X33811519Y12900569D01*
X33879174Y12810193D01*
X33892454Y12792454D01*
X34007669Y12706204D01*
X34142517Y12655909D01*
X34202127Y12649500D01*
X38897872Y12649501D01*
X38957483Y12655909D01*
X39092331Y12706204D01*
X39207546Y12792454D01*
X39293796Y12907669D01*
X39344091Y13042517D01*
X39350500Y13102127D01*
X39350499Y15197872D01*
X39344091Y15257483D01*
X39293796Y15392331D01*
X39207546Y15507546D01*
X39092331Y15593796D01*
X38957483Y15644091D01*
X38949770Y15644921D01*
X38949767Y15644921D01*
X38901180Y15650145D01*
X38901169Y15650146D01*
X38897873Y15650500D01*
X38894550Y15650500D01*
X34205439Y15650500D01*
X34205420Y15650500D01*
X34202128Y15650499D01*
X34198850Y15650147D01*
X34198838Y15650146D01*
X34150231Y15644921D01*
X34150225Y15644920D01*
X34142517Y15644091D01*
X34135252Y15641382D01*
X34135246Y15641380D01*
X34015980Y15596896D01*
X34015978Y15596896D01*
X34007669Y15593796D01*
X34000572Y15588484D01*
X34000568Y15588481D01*
X33899550Y15512859D01*
X33899546Y15512856D01*
X33892454Y15507546D01*
X33887144Y15500454D01*
X33887141Y15500450D01*
X33811519Y15399432D01*
X33811516Y15399428D01*
X33806204Y15392331D01*
X33803104Y15384022D01*
X33803104Y15384020D01*
X33758620Y15264753D01*
X33758619Y15264750D01*
X33755909Y15257483D01*
X33755079Y15249773D01*
X33755079Y15249768D01*
X33749855Y15201181D01*
X33749854Y15201169D01*
X33749500Y15197873D01*
X33749500Y15194552D01*
X33749500Y15194551D01*
X33749500Y13105440D01*
X33749500Y13105422D01*
X500Y13105422D01*
X500Y19610422D01*
X35507000Y19610422D01*
X35507001Y19607128D01*
X35507353Y19603850D01*
X35507354Y19603839D01*
X35512579Y19555232D01*
X35512580Y19555227D01*
X35513409Y19547517D01*
X35516119Y19540251D01*
X35516120Y19540247D01*
X35536592Y19485359D01*
X35563704Y19412669D01*
X35569018Y19405570D01*
X35569019Y19405569D01*
X35631070Y19322679D01*
X35649954Y19297454D01*
X35765169Y19211204D01*
X35900017Y19160909D01*
X35959627Y19154500D01*
X37960372Y19154501D01*
X38019983Y19160909D01*
X38154831Y19211204D01*
X38270046Y19297454D01*
X38356296Y19412669D01*
X38367908Y19443805D01*
X38400019Y19491621D01*
X38450273Y19519772D01*
X38507823Y19522180D01*
X38560253Y19498325D01*
X38698787Y19390499D01*
X38707345Y19384907D01*
X38910031Y19275220D01*
X38919386Y19271117D01*
X39137357Y19196287D01*
X39147268Y19193776D01*
X39236679Y19178856D01*
X39247636Y19179423D01*
X39250000Y19190140D01*
X39250000Y22119860D01*
X39247636Y22130578D01*
X39236679Y22131145D01*
X39147268Y22116225D01*
X39137357Y22113714D01*
X38919386Y22038884D01*
X38910031Y22034781D01*
X38707345Y21925094D01*
X38698781Y21919498D01*
X38560252Y21811676D01*
X38507823Y21787821D01*
X38450273Y21790229D01*
X38400020Y21818380D01*
X38367908Y21866196D01*
X38356296Y21897331D01*
X38270046Y22012546D01*
X38236169Y22037906D01*
X38161931Y22093481D01*
X38161930Y22093482D01*
X38154831Y22098796D01*
X38039880Y22141670D01*
X38027252Y22146380D01*
X38027250Y22146381D01*
X38019983Y22149091D01*
X38012270Y22149921D01*
X38012267Y22149921D01*
X37963680Y22155145D01*
X37963669Y22155146D01*
X37960373Y22155500D01*
X37957050Y22155500D01*
X35962939Y22155500D01*
X35962920Y22155500D01*
X35959628Y22155499D01*
X35956350Y22155147D01*
X35956338Y22155146D01*
X35907731Y22149921D01*
X35907725Y22149920D01*
X35900017Y22149091D01*
X35892752Y22146382D01*
X35892746Y22146380D01*
X35773480Y22101896D01*
X35773478Y22101896D01*
X35765169Y22098796D01*
X35758072Y22093484D01*
X35758068Y22093481D01*
X35657050Y22017859D01*
X35657046Y22017856D01*
X35649954Y22012546D01*
X35644644Y22005454D01*
X35644641Y22005450D01*
X35569019Y21904432D01*
X35569016Y21904428D01*
X35563704Y21897331D01*
X35560604Y21889022D01*
X35560604Y21889020D01*
X35516120Y21769753D01*
X35516119Y21769750D01*
X35513409Y21762483D01*
X35512579Y21754773D01*
X35512579Y21754768D01*
X35507355Y21706181D01*
X35507354Y21706169D01*
X35507000Y21702873D01*
X35507000Y21699552D01*
X35507000Y21699551D01*
X35507000Y19610440D01*
X35507000Y19610422D01*
X500Y19610422D01*
X500Y45966006D01*
X10516816Y45966006D01*
X10517169Y45959410D01*
X10522389Y45910857D01*
X10525927Y45895883D01*
X10570363Y45776747D01*
X10578778Y45761335D01*
X10654314Y45660432D01*
X10666723Y45648023D01*
X10767626Y45572487D01*
X10783038Y45564072D01*
X10902174Y45519636D01*
X10917148Y45516098D01*
X10965701Y45510878D01*
X10972298Y45510524D01*
X11750490Y45510524D01*
X11763365Y45513975D01*
X11766816Y45526850D01*
X12266816Y45526850D01*
X12270266Y45513975D01*
X12283142Y45510524D01*
X13061334Y45510524D01*
X13067930Y45510878D01*
X13116483Y45516098D01*
X13131457Y45519636D01*
X13250593Y45564072D01*
X13266005Y45572487D01*
X13366908Y45648023D01*
X13379317Y45660432D01*
X13454853Y45761335D01*
X13463269Y45776748D01*
X13468520Y45790826D01*
X13500632Y45838646D01*
X13550885Y45866796D01*
X13608436Y45869205D01*
X13660863Y45845352D01*
X13783307Y45750050D01*
X14002006Y45631696D01*
X14237202Y45550953D01*
X14482481Y45510024D01*
X14726017Y45510024D01*
X14731151Y45510024D01*
X14976430Y45550953D01*
X15211626Y45631696D01*
X15430325Y45750050D01*
X15626560Y45902786D01*
X15794980Y46085739D01*
X15809539Y46108025D01*
X15854331Y46149259D01*
X15913351Y46164205D01*
X15972370Y46149258D01*
X16011550Y46113187D01*
X16012698Y46114079D01*
X16015844Y46110037D01*
X16018652Y46105739D01*
X16022126Y46101965D01*
X16022127Y46101964D01*
X16173546Y45937479D01*
X16197833Y45898571D01*
X16206316Y45853496D01*
X16206316Y24807462D01*
X16206276Y24804321D01*
X16204566Y24736819D01*
X16204059Y24716821D01*
X16205167Y24710636D01*
X16205168Y24710630D01*
X16214464Y24658764D01*
X16215773Y24649436D01*
X16221105Y24597004D01*
X16221106Y24596999D01*
X16221742Y24590746D01*
X16223623Y24584749D01*
X16223626Y24584737D01*
X16230848Y24561718D01*
X16234588Y24546482D01*
X16238847Y24522720D01*
X16238851Y24522706D01*
X16239958Y24516531D01*
X16246783Y24499445D01*
X16261836Y24461759D01*
X16264995Y24452886D01*
X16282657Y24396596D01*
X16285707Y24391101D01*
X16297419Y24370000D01*
X16304153Y24355821D01*
X16313106Y24333406D01*
X16313108Y24333401D01*
X16315439Y24327567D01*
X16318898Y24322318D01*
X16318901Y24322313D01*
X16347896Y24278317D01*
X16352777Y24270261D01*
X16378352Y24224185D01*
X16378354Y24224182D01*
X16381407Y24218682D01*
X16385505Y24213909D01*
X16401220Y24195603D01*
X16410671Y24183068D01*
X16423949Y24162921D01*
X16423954Y24162915D01*
X16427414Y24157665D01*
X16431860Y24153219D01*
X16431861Y24153218D01*
X16469116Y24115963D01*
X16475521Y24109053D01*
X16513950Y24064289D01*
X16538014Y24045662D01*
X16549784Y24035295D01*
X17582450Y23002629D01*
X17584643Y23000380D01*
X17640603Y22941510D01*
X17640605Y22941508D01*
X17644941Y22936947D01*
X17650105Y22933353D01*
X17650107Y22933351D01*
X17693348Y22903254D01*
X17700869Y22897583D01*
X17741715Y22864278D01*
X17741724Y22864273D01*
X17746593Y22860302D01*
X17771923Y22847071D01*
X17773556Y22846218D01*
X17786980Y22838085D01*
X17811951Y22820705D01*
X17866163Y22797441D01*
X17874673Y22793399D01*
X17926951Y22766091D01*
X17956199Y22757723D01*
X17970975Y22752462D01*
X17998942Y22740460D01*
X18056718Y22728587D01*
X18065866Y22726342D01*
X18122582Y22710113D01*
X18152916Y22707804D01*
X18168463Y22705623D01*
X18192095Y22700766D01*
X18192102Y22700766D01*
X18198259Y22699500D01*
X18257242Y22699500D01*
X18266657Y22699142D01*
X18325477Y22694663D01*
X18355652Y22698507D01*
X18371318Y22699500D01*
X40434217Y22699500D01*
X40481670Y22690061D01*
X40521898Y22663181D01*
X41003181Y22181898D01*
X41030061Y22141670D01*
X41039500Y22094217D01*
X41039500Y21809394D01*
X41031017Y21764319D01*
X41006730Y21725411D01*
X40892919Y21601781D01*
X40892911Y21601771D01*
X40889449Y21598010D01*
X40886651Y21593729D01*
X40886642Y21593716D01*
X40873507Y21573611D01*
X40828715Y21532379D01*
X40769698Y21517436D01*
X40710681Y21532382D01*
X40665891Y21573616D01*
X40652957Y21593413D01*
X40646685Y21601472D01*
X40490591Y21771034D01*
X40483081Y21777947D01*
X40301212Y21919502D01*
X40292654Y21925094D01*
X40089968Y22034781D01*
X40080613Y22038884D01*
X39862642Y22113714D01*
X39852731Y22116225D01*
X39763320Y22131145D01*
X39752363Y22130578D01*
X39750000Y22119860D01*
X39750000Y19190140D01*
X39752363Y19179423D01*
X39763320Y19178856D01*
X39852731Y19193776D01*
X39862642Y19196287D01*
X40080613Y19271117D01*
X40089968Y19275220D01*
X40292654Y19384907D01*
X40301212Y19390499D01*
X40483081Y19532054D01*
X40490591Y19538967D01*
X40646679Y19708523D01*
X40652960Y19716593D01*
X40665891Y19736385D01*
X40710683Y19777619D01*
X40769701Y19792565D01*
X40828719Y19777619D01*
X40873510Y19736386D01*
X40886644Y19716283D01*
X40889449Y19711990D01*
X40892914Y19708226D01*
X40892918Y19708221D01*
X40937757Y19659513D01*
X41052537Y19534829D01*
X41056583Y19531680D01*
X41056584Y19531679D01*
X41102382Y19496033D01*
X41242561Y19386928D01*
X41454336Y19272321D01*
X41682087Y19194134D01*
X41919601Y19154500D01*
X42155266Y19154500D01*
X42160399Y19154500D01*
X42397913Y19194134D01*
X42625664Y19272321D01*
X42837439Y19386928D01*
X43027463Y19534829D01*
X43190551Y19711990D01*
X43322255Y19913578D01*
X43418983Y20134095D01*
X43478095Y20367524D01*
X43493000Y20547400D01*
X43493000Y20762600D01*
X43478095Y20942476D01*
X43418983Y21175905D01*
X43322255Y21396422D01*
X43206488Y21573616D01*
X43193352Y21593723D01*
X43193350Y21593725D01*
X43190551Y21598010D01*
X43187083Y21601777D01*
X43187081Y21601780D01*
X43073270Y21725411D01*
X43048983Y21764319D01*
X43040500Y21809394D01*
X43040500Y22545763D01*
X43040540Y22548904D01*
X43040990Y22566660D01*
X43042756Y22636364D01*
X43032345Y22694446D01*
X43031042Y22703740D01*
X43025074Y22762438D01*
X43015966Y22791464D01*
X43012223Y22806716D01*
X43007967Y22830467D01*
X43007965Y22830471D01*
X43006858Y22836653D01*
X43004492Y22842576D01*
X42984976Y22891435D01*
X42981816Y22900311D01*
X42979532Y22907588D01*
X42964159Y22956588D01*
X42949396Y22983186D01*
X42942660Y22997369D01*
X42941457Y23000380D01*
X42931377Y23025617D01*
X42898917Y23074869D01*
X42894036Y23082927D01*
X42868463Y23129000D01*
X42868462Y23129001D01*
X42865409Y23134502D01*
X42845591Y23157587D01*
X42836140Y23170121D01*
X42831072Y23177811D01*
X42819402Y23195519D01*
X42777692Y23237229D01*
X42771287Y23244140D01*
X42736960Y23284126D01*
X42732866Y23288895D01*
X42727896Y23292742D01*
X42727891Y23292747D01*
X42708805Y23307521D01*
X42697026Y23317895D01*
X41617566Y24397354D01*
X41615373Y24399603D01*
X41559390Y24458497D01*
X41559389Y24458498D01*
X41555059Y24463053D01*
X41549897Y24466646D01*
X41506642Y24496753D01*
X41499119Y24502425D01*
X41458280Y24535725D01*
X41458277Y24535727D01*
X41453407Y24539698D01*
X41426437Y24553787D01*
X41413024Y24561913D01*
X41388049Y24579295D01*
X41333817Y24602568D01*
X41325351Y24606589D01*
X41273049Y24633909D01*
X41243802Y24642278D01*
X41229021Y24647541D01*
X41206841Y24657059D01*
X41206835Y24657061D01*
X41201058Y24659540D01*
X41194905Y24660805D01*
X41194891Y24660809D01*
X41143273Y24671417D01*
X41134126Y24673662D01*
X41083465Y24688158D01*
X41083453Y24688161D01*
X41077418Y24689887D01*
X41071154Y24690365D01*
X41071149Y24690365D01*
X41047075Y24692198D01*
X41031533Y24694378D01*
X41007902Y24699234D01*
X41007901Y24699235D01*
X41001741Y24700500D01*
X40995452Y24700500D01*
X40942759Y24700500D01*
X40933344Y24700858D01*
X40880794Y24704860D01*
X40880789Y24704860D01*
X40874524Y24705337D01*
X40868290Y24704544D01*
X40868284Y24704543D01*
X40844349Y24701494D01*
X40828683Y24700500D01*
X18765782Y24700500D01*
X18718329Y24709939D01*
X18678101Y24736819D01*
X18243635Y25171285D01*
X18216755Y25211513D01*
X18207316Y25258966D01*
X18207316Y43200000D01*
X20594659Y43200000D01*
X20595256Y43193939D01*
X20598903Y43156910D01*
X20599500Y43144756D01*
X20599500Y36314278D01*
X20599460Y36311138D01*
X20597243Y36223637D01*
X20598351Y36217452D01*
X20598352Y36217446D01*
X20607648Y36165580D01*
X20608957Y36156252D01*
X20614289Y36103820D01*
X20614290Y36103815D01*
X20614926Y36097562D01*
X20616807Y36091565D01*
X20616810Y36091553D01*
X20624032Y36068534D01*
X20627772Y36053298D01*
X20632031Y36029536D01*
X20632035Y36029522D01*
X20633142Y36023347D01*
X20635471Y36017517D01*
X20655020Y35968575D01*
X20658179Y35959702D01*
X20675841Y35903412D01*
X20678891Y35897917D01*
X20690603Y35876816D01*
X20697337Y35862637D01*
X20706290Y35840222D01*
X20706292Y35840217D01*
X20708623Y35834383D01*
X20712082Y35829134D01*
X20712085Y35829129D01*
X20741080Y35785133D01*
X20745961Y35777077D01*
X20771536Y35731001D01*
X20771538Y35730998D01*
X20774591Y35725498D01*
X20778689Y35720725D01*
X20794404Y35702419D01*
X20803855Y35689884D01*
X20817133Y35669737D01*
X20817138Y35669731D01*
X20820598Y35664481D01*
X20825045Y35660034D01*
X20862300Y35622779D01*
X20868705Y35615869D01*
X20907134Y35571105D01*
X20931198Y35552478D01*
X20942968Y35542111D01*
X22082450Y34402629D01*
X22084643Y34400380D01*
X22144941Y34336947D01*
X22173405Y34317136D01*
X22193352Y34303252D01*
X22200875Y34297579D01*
X22241712Y34264281D01*
X22241717Y34264278D01*
X22246593Y34260302D01*
X22252168Y34257390D01*
X22273556Y34246218D01*
X22286980Y34238085D01*
X22311951Y34220705D01*
X22366163Y34197441D01*
X22374673Y34193399D01*
X22426951Y34166091D01*
X22456195Y34157724D01*
X22470979Y34152461D01*
X22498942Y34140460D01*
X22556727Y34128586D01*
X22565869Y34126343D01*
X22622582Y34110114D01*
X22628857Y34109637D01*
X22628858Y34109636D01*
X22632331Y34109372D01*
X22652915Y34107805D01*
X22668459Y34105624D01*
X22692096Y34100766D01*
X22692100Y34100766D01*
X22698259Y34099500D01*
X22757244Y34099500D01*
X22766660Y34099142D01*
X22825476Y34094663D01*
X22855651Y34098507D01*
X22871317Y34099500D01*
X43975500Y34099500D01*
X44037500Y34082887D01*
X44082887Y34037500D01*
X44099500Y33975500D01*
X44099500Y20614278D01*
X44099460Y20611138D01*
X44097243Y20523637D01*
X44098351Y20517452D01*
X44098352Y20517446D01*
X44107648Y20465580D01*
X44108957Y20456252D01*
X44114289Y20403820D01*
X44114290Y20403815D01*
X44114926Y20397562D01*
X44116807Y20391565D01*
X44116810Y20391553D01*
X44124032Y20368534D01*
X44127772Y20353298D01*
X44132031Y20329536D01*
X44132035Y20329522D01*
X44133142Y20323347D01*
X44135471Y20317517D01*
X44155020Y20268575D01*
X44158179Y20259702D01*
X44170066Y20221819D01*
X44175841Y20203412D01*
X44178891Y20197917D01*
X44190603Y20176816D01*
X44197337Y20162637D01*
X44206290Y20140222D01*
X44206292Y20140217D01*
X44208623Y20134383D01*
X44212082Y20129134D01*
X44212085Y20129129D01*
X44241080Y20085133D01*
X44245961Y20077077D01*
X44271536Y20031001D01*
X44271538Y20030998D01*
X44274591Y20025498D01*
X44278689Y20020725D01*
X44294404Y20002419D01*
X44303855Y19989884D01*
X44317133Y19969737D01*
X44317138Y19969731D01*
X44320598Y19964481D01*
X44325045Y19960034D01*
X44362300Y19922779D01*
X44368705Y19915869D01*
X44407134Y19871105D01*
X44431198Y19852478D01*
X44442968Y19842111D01*
X45020595Y19264485D01*
X45020598Y19264481D01*
X45797450Y18487629D01*
X45799643Y18485380D01*
X45855603Y18426510D01*
X45855605Y18426508D01*
X45859941Y18421947D01*
X45865105Y18418353D01*
X45865107Y18418351D01*
X45908348Y18388254D01*
X45915869Y18382583D01*
X45956715Y18349278D01*
X45956724Y18349273D01*
X45961593Y18345302D01*
X45988556Y18331218D01*
X46001980Y18323085D01*
X46026951Y18305705D01*
X46081163Y18282441D01*
X46089673Y18278399D01*
X46141951Y18251091D01*
X46171199Y18242723D01*
X46185975Y18237462D01*
X46213942Y18225460D01*
X46271718Y18213587D01*
X46280866Y18211342D01*
X46337582Y18195113D01*
X46367916Y18192804D01*
X46383463Y18190623D01*
X46407095Y18185766D01*
X46407102Y18185766D01*
X46413259Y18184500D01*
X46472242Y18184500D01*
X46481657Y18184142D01*
X46540477Y18179663D01*
X46570652Y18183507D01*
X46586318Y18184500D01*
X48015500Y18184500D01*
X48077500Y18167887D01*
X48122887Y18122500D01*
X48139500Y18060500D01*
X48139500Y13701140D01*
X48136288Y13673102D01*
X48131833Y13653910D01*
X48130261Y13647838D01*
X48111842Y13583466D01*
X48111839Y13583452D01*
X48110113Y13577418D01*
X48109636Y13571156D01*
X48109635Y13571150D01*
X48108890Y13561362D01*
X48106039Y13542754D01*
X48103819Y13533188D01*
X48103817Y13533176D01*
X48102397Y13527054D01*
X48102237Y13520773D01*
X48102237Y13520766D01*
X48100540Y13453817D01*
X48100222Y13447547D01*
X48095140Y13380793D01*
X48094663Y13374524D01*
X48095455Y13368301D01*
X48095456Y13368282D01*
X48096697Y13358540D01*
X48097650Y13339748D01*
X48097401Y13329930D01*
X48097402Y13329917D01*
X48097243Y13323637D01*
X48098351Y13317454D01*
X48098352Y13317444D01*
X48110165Y13251535D01*
X48111116Y13245327D01*
X48112725Y13232698D01*
X48120370Y13172672D01*
X48122401Y13166728D01*
X48122405Y13166714D01*
X48125581Y13157424D01*
X48130299Y13139204D01*
X48132031Y13129540D01*
X48132033Y13129531D01*
X48133142Y13123347D01*
X48153034Y13073548D01*
X48160305Y13055345D01*
X48162485Y13049457D01*
X48184146Y12986087D01*
X48184150Y12986078D01*
X48186184Y12980128D01*
X48189375Y12974707D01*
X48189377Y12974703D01*
X48194352Y12966252D01*
X48202646Y12949345D01*
X48208623Y12934383D01*
X48212080Y12929138D01*
X48212084Y12929130D01*
X48248938Y12873210D01*
X48252260Y12867881D01*
X48289410Y12804773D01*
X48293622Y12800111D01*
X48293626Y12800106D01*
X48300202Y12792829D01*
X48311733Y12777932D01*
X48320598Y12764481D01*
X48325048Y12760031D01*
X48372383Y12712696D01*
X48376712Y12708143D01*
X48425821Y12653787D01*
X48438804Y12644254D01*
X48453090Y12631989D01*
X49982450Y11102629D01*
X49984643Y11100380D01*
X50040603Y11041510D01*
X50040605Y11041508D01*
X50044941Y11036947D01*
X50050105Y11033353D01*
X50050107Y11033351D01*
X50093348Y11003254D01*
X50100869Y10997583D01*
X50141715Y10964278D01*
X50141724Y10964273D01*
X50146593Y10960302D01*
X50173556Y10946218D01*
X50186980Y10938085D01*
X50211951Y10920705D01*
X50266163Y10897441D01*
X50274675Y10893398D01*
X50311886Y10873960D01*
X50326951Y10866091D01*
X50356199Y10857723D01*
X50370975Y10852462D01*
X50398942Y10840460D01*
X50456718Y10828587D01*
X50465866Y10826342D01*
X50522582Y10810113D01*
X50552916Y10807804D01*
X50568463Y10805623D01*
X50592095Y10800766D01*
X50592102Y10800766D01*
X50598259Y10799500D01*
X50657242Y10799500D01*
X50666657Y10799142D01*
X50725477Y10794663D01*
X50755652Y10798507D01*
X50771318Y10799500D01*
X82885722Y10799500D01*
X82888862Y10799461D01*
X82976363Y10797243D01*
X83034458Y10807656D01*
X83043739Y10808958D01*
X83102438Y10814926D01*
X83131464Y10824034D01*
X83146713Y10827776D01*
X83176653Y10833142D01*
X83231423Y10855020D01*
X83240303Y10858182D01*
X83296588Y10875841D01*
X83323194Y10890610D01*
X83337362Y10897338D01*
X83365617Y10908623D01*
X83414891Y10941098D01*
X83422910Y10945957D01*
X83474502Y10974591D01*
X83485961Y10984430D01*
X83497583Y10994406D01*
X83510125Y11003863D01*
X83535519Y11020598D01*
X83577238Y11062319D01*
X83584122Y11068699D01*
X83628895Y11107134D01*
X83647520Y11131198D01*
X83657879Y11142960D01*
X84614919Y12100000D01*
X86535424Y12100000D01*
X86555918Y11839603D01*
X86557053Y11834874D01*
X86557054Y11834870D01*
X86615756Y11590355D01*
X86615758Y11590347D01*
X86616894Y11585618D01*
X86716852Y11344298D01*
X86719399Y11340141D01*
X86719400Y11340140D01*
X86840227Y11142968D01*
X86853330Y11121587D01*
X86856494Y11117882D01*
X86856498Y11117877D01*
X87019800Y10926675D01*
X87022967Y10922967D01*
X87026674Y10919801D01*
X87217876Y10756499D01*
X87217879Y10756497D01*
X87221587Y10753330D01*
X87444298Y10616852D01*
X87685618Y10516894D01*
X87939603Y10455918D01*
X88200000Y10435424D01*
X88460397Y10455918D01*
X88714382Y10516894D01*
X88955702Y10616852D01*
X89178413Y10753330D01*
X89377033Y10922967D01*
X89546670Y11121587D01*
X89683148Y11344298D01*
X89783106Y11585618D01*
X89844082Y11839603D01*
X89861428Y12060000D01*
X102085424Y12060000D01*
X102105918Y11799603D01*
X102107053Y11794874D01*
X102107054Y11794870D01*
X102165756Y11550355D01*
X102165758Y11550347D01*
X102166894Y11545618D01*
X102266852Y11304298D01*
X102269399Y11300141D01*
X102269400Y11300140D01*
X102391813Y11100380D01*
X102403330Y11081587D01*
X102406494Y11077882D01*
X102406498Y11077877D01*
X102569800Y10886675D01*
X102572967Y10882967D01*
X102583513Y10873960D01*
X102767876Y10716499D01*
X102767879Y10716497D01*
X102771587Y10713330D01*
X102994298Y10576852D01*
X103235618Y10476894D01*
X103489603Y10415918D01*
X103750000Y10395424D01*
X104010397Y10415918D01*
X104264382Y10476894D01*
X104505702Y10576852D01*
X104728413Y10713330D01*
X104927033Y10882967D01*
X105096670Y11081587D01*
X105233148Y11304298D01*
X105333106Y11545618D01*
X105394082Y11799603D01*
X105414576Y12060000D01*
X105394082Y12320397D01*
X105333106Y12574382D01*
X105233148Y12815702D01*
X105096670Y13038413D01*
X105089684Y13046592D01*
X104930199Y13233326D01*
X104927033Y13237033D01*
X104888223Y13270180D01*
X104732123Y13403502D01*
X104732118Y13403506D01*
X104728413Y13406670D01*
X104724257Y13409217D01*
X104724254Y13409219D01*
X104509860Y13540600D01*
X104509859Y13540601D01*
X104505702Y13543148D01*
X104264382Y13643106D01*
X104259653Y13644242D01*
X104259645Y13644244D01*
X104015130Y13702946D01*
X104015126Y13702947D01*
X104010397Y13704082D01*
X104005544Y13704464D01*
X103754854Y13724194D01*
X103750000Y13724576D01*
X103745146Y13724194D01*
X103494455Y13704464D01*
X103494453Y13704464D01*
X103489603Y13704082D01*
X103484875Y13702948D01*
X103484869Y13702946D01*
X103240354Y13644244D01*
X103240342Y13644241D01*
X103235618Y13643106D01*
X103231121Y13641244D01*
X103231117Y13641242D01*
X102998802Y13545014D01*
X102998797Y13545012D01*
X102994298Y13543148D01*
X102990145Y13540604D01*
X102990139Y13540600D01*
X102775745Y13409219D01*
X102775736Y13409213D01*
X102771587Y13406670D01*
X102767887Y13403511D01*
X102767876Y13403502D01*
X102576674Y13240200D01*
X102576667Y13240194D01*
X102572967Y13237033D01*
X102569806Y13233333D01*
X102569800Y13233326D01*
X102406498Y13042124D01*
X102406489Y13042113D01*
X102403330Y13038413D01*
X102400787Y13034264D01*
X102400781Y13034255D01*
X102269400Y12819861D01*
X102269396Y12819855D01*
X102266852Y12815702D01*
X102264988Y12811203D01*
X102264986Y12811198D01*
X102178629Y12602713D01*
X102166894Y12574382D01*
X102165759Y12569658D01*
X102165756Y12569646D01*
X102107054Y12325131D01*
X102107052Y12325125D01*
X102105918Y12320397D01*
X102085424Y12060000D01*
X89861428Y12060000D01*
X89864576Y12100000D01*
X89844082Y12360397D01*
X89783106Y12614382D01*
X89683148Y12855702D01*
X89546670Y13078413D01*
X89539346Y13086988D01*
X89380199Y13273326D01*
X89377033Y13277033D01*
X89373325Y13280200D01*
X89182123Y13443502D01*
X89182118Y13443506D01*
X89178413Y13446670D01*
X89174257Y13449217D01*
X89174254Y13449219D01*
X88959860Y13580600D01*
X88959859Y13580601D01*
X88955702Y13583148D01*
X88714382Y13683106D01*
X88709653Y13684242D01*
X88709645Y13684244D01*
X88465130Y13742946D01*
X88465126Y13742947D01*
X88460397Y13744082D01*
X88455544Y13744464D01*
X88204854Y13764194D01*
X88200000Y13764576D01*
X88195146Y13764194D01*
X87944455Y13744464D01*
X87944453Y13744464D01*
X87939603Y13744082D01*
X87934875Y13742948D01*
X87934869Y13742946D01*
X87690354Y13684244D01*
X87690342Y13684241D01*
X87685618Y13683106D01*
X87681121Y13681244D01*
X87681117Y13681242D01*
X87448802Y13585014D01*
X87448797Y13585012D01*
X87444298Y13583148D01*
X87440145Y13580604D01*
X87440139Y13580600D01*
X87225745Y13449219D01*
X87225736Y13449213D01*
X87221587Y13446670D01*
X87217887Y13443511D01*
X87217876Y13443502D01*
X87026674Y13280200D01*
X87026667Y13280194D01*
X87022967Y13277033D01*
X87019806Y13273333D01*
X87019800Y13273326D01*
X86856498Y13082124D01*
X86856489Y13082113D01*
X86853330Y13078413D01*
X86850787Y13074264D01*
X86850781Y13074255D01*
X86719400Y12859861D01*
X86719396Y12859855D01*
X86716852Y12855702D01*
X86714988Y12851203D01*
X86714986Y12851198D01*
X86626953Y12638667D01*
X86616894Y12614382D01*
X86615759Y12609658D01*
X86615756Y12609646D01*
X86557054Y12365131D01*
X86557052Y12365125D01*
X86555918Y12360397D01*
X86535424Y12100000D01*
X84614919Y12100000D01*
X85397409Y12882490D01*
X85399579Y12884606D01*
X85463053Y12944941D01*
X85496763Y12993376D01*
X85502405Y13000859D01*
X85539697Y13046592D01*
X85553781Y13073557D01*
X85561909Y13086975D01*
X85579295Y13111951D01*
X85602568Y13166185D01*
X85606595Y13174664D01*
X85633909Y13226951D01*
X85642275Y13256192D01*
X85647539Y13270981D01*
X85659540Y13298942D01*
X85671421Y13356762D01*
X85673650Y13365845D01*
X85689886Y13422582D01*
X85692195Y13452918D01*
X85694376Y13468461D01*
X85699234Y13492099D01*
X85699233Y13492099D01*
X85700500Y13498259D01*
X85700500Y13557244D01*
X85700858Y13566660D01*
X85701677Y13577418D01*
X85705337Y13625476D01*
X85701493Y13655652D01*
X85700500Y13671317D01*
X85700500Y22590000D01*
X89468717Y22590000D01*
X89468818Y22587494D01*
X89487809Y22116225D01*
X89488502Y22099051D01*
X89488801Y22096581D01*
X89488802Y22096580D01*
X89536015Y21707738D01*
X89547727Y21611285D01*
X89548224Y21608848D01*
X89548226Y21608839D01*
X89642126Y21148886D01*
X89646009Y21129867D01*
X89646697Y21127489D01*
X89646702Y21127472D01*
X89782017Y20660312D01*
X89782023Y20660293D01*
X89782711Y20657919D01*
X89783592Y20655596D01*
X89783593Y20655593D01*
X89955082Y20203412D01*
X89956945Y20198501D01*
X89958004Y20196268D01*
X89958011Y20196253D01*
X90166510Y19756850D01*
X90166515Y19756839D01*
X90167582Y19754592D01*
X90168831Y19752428D01*
X90168833Y19752425D01*
X90405401Y19342679D01*
X90413256Y19329073D01*
X90414668Y19327026D01*
X90414674Y19327018D01*
X90655489Y18978137D01*
X90692373Y18924701D01*
X91003124Y18544101D01*
X91343493Y18189740D01*
X91345368Y18188079D01*
X91345370Y18188077D01*
X91368160Y18167887D01*
X91711272Y17863916D01*
X91713260Y17862422D01*
X91713270Y17862414D01*
X92102086Y17570238D01*
X92102092Y17570234D01*
X92104076Y17568743D01*
X92106168Y17567420D01*
X92106174Y17567416D01*
X92375028Y17397403D01*
X92519358Y17306134D01*
X92954425Y17077793D01*
X92956729Y17076812D01*
X92956734Y17076809D01*
X93135942Y17000456D01*
X93406455Y16885201D01*
X93872517Y16729607D01*
X94349587Y16612020D01*
X94834572Y16533202D01*
X95324326Y16493665D01*
X95813189Y16493665D01*
X95815674Y16493665D01*
X96305428Y16533202D01*
X96790413Y16612020D01*
X97267483Y16729607D01*
X97733545Y16885201D01*
X98185575Y17077793D01*
X98620642Y17306134D01*
X99035924Y17568743D01*
X99428728Y17863916D01*
X99796507Y18189740D01*
X100136876Y18544101D01*
X100447627Y18924701D01*
X100726744Y19329073D01*
X100972418Y19754592D01*
X101183055Y20198501D01*
X101357289Y20657919D01*
X101493991Y21129867D01*
X101592273Y21611285D01*
X101651498Y22099051D01*
X101671283Y22590000D01*
X101651498Y23080949D01*
X101592273Y23568715D01*
X101493991Y24050133D01*
X101451855Y24195603D01*
X101357982Y24519689D01*
X101357980Y24519693D01*
X101357289Y24522081D01*
X101183055Y24981499D01*
X101162219Y25025409D01*
X100973489Y25423151D01*
X100973488Y25423152D01*
X100972418Y25425408D01*
X100726744Y25850927D01*
X100447627Y26255299D01*
X100136876Y26635899D01*
X99796507Y26990260D01*
X99428728Y27316084D01*
X99426742Y27317577D01*
X99426729Y27317587D01*
X99037913Y27609763D01*
X99037902Y27609771D01*
X99035924Y27611257D01*
X99033826Y27612584D01*
X99033825Y27612585D01*
X98622749Y27872534D01*
X98622741Y27872539D01*
X98620642Y27873866D01*
X98315108Y28034223D01*
X98187788Y28101046D01*
X98187778Y28101051D01*
X98185575Y28102207D01*
X98183281Y28103185D01*
X98183265Y28103192D01*
X97735841Y28293821D01*
X97735835Y28293823D01*
X97733545Y28294799D01*
X97600732Y28339139D01*
X97269833Y28449609D01*
X97269820Y28449613D01*
X97267483Y28450393D01*
X97254708Y28453542D01*
X96792833Y28567384D01*
X96792821Y28567387D01*
X96790413Y28567980D01*
X96787952Y28568380D01*
X96787947Y28568381D01*
X96307887Y28646399D01*
X96307871Y28646401D01*
X96305428Y28646798D01*
X96302967Y28646997D01*
X96302948Y28646999D01*
X95818149Y28686136D01*
X95818129Y28686137D01*
X95815674Y28686335D01*
X95324326Y28686335D01*
X95321871Y28686137D01*
X95321850Y28686136D01*
X94837051Y28646999D01*
X94837029Y28646997D01*
X94834572Y28646798D01*
X94832131Y28646402D01*
X94832112Y28646399D01*
X94352052Y28568381D01*
X94352042Y28568380D01*
X94349587Y28567980D01*
X94347183Y28567388D01*
X94347166Y28567384D01*
X93874926Y28450987D01*
X93874920Y28450986D01*
X93872517Y28450393D01*
X93870185Y28449615D01*
X93870166Y28449609D01*
X93408812Y28295586D01*
X93406455Y28294799D01*
X93404172Y28293827D01*
X93404158Y28293821D01*
X92956734Y28103192D01*
X92956708Y28103180D01*
X92954425Y28102207D01*
X92952225Y28101053D01*
X92952201Y28101041D01*
X92521566Y27875025D01*
X92521553Y27875018D01*
X92519359Y27873866D01*
X92517265Y27872543D01*
X92517260Y27872539D01*
X92181489Y27660210D01*
X92104076Y27611257D01*
X92102108Y27609779D01*
X92102086Y27609763D01*
X91713270Y27317587D01*
X91713245Y27317567D01*
X91711272Y27316084D01*
X91709410Y27314435D01*
X91709396Y27314423D01*
X91345370Y26991924D01*
X91345354Y26991910D01*
X91343493Y26990260D01*
X91341762Y26988459D01*
X91341759Y26988455D01*
X91004850Y26637697D01*
X91004838Y26637684D01*
X91003124Y26635899D01*
X91001553Y26633976D01*
X91001546Y26633967D01*
X90693952Y26257233D01*
X90692373Y26255299D01*
X90690966Y26253261D01*
X90690955Y26253246D01*
X90414674Y25852983D01*
X90414661Y25852964D01*
X90413256Y25850927D01*
X90412013Y25848775D01*
X90412006Y25848763D01*
X90168833Y25427576D01*
X90168826Y25427563D01*
X90167582Y25425408D01*
X90166520Y25423172D01*
X90166510Y25423151D01*
X89958011Y24983748D01*
X89958000Y24983725D01*
X89956945Y24981499D01*
X89956067Y24979186D01*
X89956061Y24979170D01*
X89783593Y24524408D01*
X89783589Y24524397D01*
X89782711Y24522081D01*
X89782025Y24519715D01*
X89782017Y24519689D01*
X89646702Y24052529D01*
X89646696Y24052506D01*
X89646009Y24050133D01*
X89645512Y24047702D01*
X89645510Y24047691D01*
X89548226Y23571162D01*
X89548223Y23571149D01*
X89547727Y23568715D01*
X89547426Y23566244D01*
X89547426Y23566238D01*
X89498532Y23163553D01*
X89488502Y23080949D01*
X89488402Y23078470D01*
X89488401Y23078456D01*
X89473301Y22703756D01*
X89468717Y22590000D01*
X85700500Y22590000D01*
X85700500Y30380000D01*
X97679459Y30380000D01*
X97679500Y30379901D01*
X97679617Y30379617D01*
X97680000Y30379459D01*
X97680099Y30379500D01*
X105249901Y30379500D01*
X105250000Y30379459D01*
X105250383Y30379617D01*
X105250500Y30379901D01*
X105250541Y30380000D01*
X105250500Y30380099D01*
X105250500Y37939901D01*
X105250541Y37940000D01*
X105250383Y37940383D01*
X105250099Y37940500D01*
X105250000Y37940541D01*
X105249901Y37940500D01*
X97680099Y37940500D01*
X97680000Y37940541D01*
X97679901Y37940500D01*
X97679617Y37940383D01*
X97679459Y37940000D01*
X97679500Y37939901D01*
X97679500Y30380099D01*
X97679459Y30380000D01*
X85700500Y30380000D01*
X85700500Y39890000D01*
X86425424Y39890000D01*
X86425806Y39885146D01*
X86443594Y39659125D01*
X86445918Y39629603D01*
X86447053Y39624874D01*
X86447054Y39624870D01*
X86505756Y39380355D01*
X86505758Y39380347D01*
X86506894Y39375618D01*
X86606852Y39134298D01*
X86609399Y39130141D01*
X86609400Y39130140D01*
X86725655Y38940429D01*
X86743330Y38911587D01*
X86746494Y38907882D01*
X86746498Y38907877D01*
X86909800Y38716675D01*
X86912967Y38712967D01*
X86916674Y38709801D01*
X87107876Y38546499D01*
X87107879Y38546497D01*
X87111587Y38543330D01*
X87334298Y38406852D01*
X87575618Y38306894D01*
X87829603Y38245918D01*
X88090000Y38225424D01*
X88350397Y38245918D01*
X88604382Y38306894D01*
X88845702Y38406852D01*
X89068413Y38543330D01*
X89267033Y38712967D01*
X89436670Y38911587D01*
X89573148Y39134298D01*
X89673106Y39375618D01*
X89734082Y39629603D01*
X89754576Y39890000D01*
X89734082Y40150397D01*
X89673106Y40404382D01*
X89666637Y40420000D01*
X90304357Y40420000D01*
X90304781Y40414883D01*
X90324467Y40177299D01*
X90324468Y40177291D01*
X90324892Y40172179D01*
X90326149Y40167212D01*
X90326151Y40167205D01*
X90380811Y39951361D01*
X90385937Y39931119D01*
X90387997Y39926423D01*
X90483766Y39708090D01*
X90483769Y39708084D01*
X90485827Y39703393D01*
X90488627Y39699107D01*
X90488631Y39699100D01*
X90582105Y39556028D01*
X90621836Y39495215D01*
X90625310Y39491441D01*
X90625311Y39491440D01*
X90786784Y39316033D01*
X90786787Y39316030D01*
X90790256Y39312262D01*
X90986491Y39159526D01*
X91205190Y39041172D01*
X91440386Y38960429D01*
X91685665Y38919500D01*
X91929201Y38919500D01*
X91934335Y38919500D01*
X92179614Y38960429D01*
X92414810Y39041172D01*
X92633509Y39159526D01*
X92829744Y39312262D01*
X92998164Y39495215D01*
X93001186Y39499842D01*
X93001331Y39499976D01*
X93004118Y39503555D01*
X93004715Y39503091D01*
X93045978Y39541080D01*
X93105000Y39556028D01*
X93164022Y39541080D01*
X93205284Y39503091D01*
X93205882Y39503555D01*
X93208668Y39499976D01*
X93208813Y39499842D01*
X93211836Y39495215D01*
X93215310Y39491441D01*
X93215311Y39491440D01*
X93376784Y39316033D01*
X93376787Y39316030D01*
X93380256Y39312262D01*
X93576491Y39159526D01*
X93795190Y39041172D01*
X94030386Y38960429D01*
X94275665Y38919500D01*
X94519201Y38919500D01*
X94524335Y38919500D01*
X94769614Y38960429D01*
X95004810Y39041172D01*
X95223509Y39159526D01*
X95245641Y39176752D01*
X96135749Y39176752D01*
X96143855Y39165561D01*
X96172717Y39143097D01*
X96181279Y39137504D01*
X96390885Y39024071D01*
X96400239Y39019968D01*
X96625656Y38942583D01*
X96635568Y38940072D01*
X96870643Y38900845D01*
X96880839Y38900000D01*
X97119161Y38900000D01*
X97129356Y38900845D01*
X97364431Y38940072D01*
X97374343Y38942583D01*
X97599760Y39019968D01*
X97609114Y39024071D01*
X97818723Y39137505D01*
X97827281Y39143097D01*
X97856146Y39165563D01*
X97864250Y39176750D01*
X97857589Y39188858D01*
X97011542Y40034905D01*
X97000000Y40041569D01*
X96988457Y40034905D01*
X96142408Y39188857D01*
X96135749Y39176752D01*
X95245641Y39176752D01*
X95419744Y39312262D01*
X95588164Y39495215D01*
X95594671Y39505176D01*
X95633497Y39542964D01*
X95684731Y39560591D01*
X95738590Y39554690D01*
X95769625Y39535678D01*
X95776164Y39533471D01*
X95786345Y39539900D01*
X96634904Y40388458D01*
X96641568Y40400001D01*
X97358431Y40400001D01*
X97365095Y40388458D01*
X98213653Y39539900D01*
X98223834Y39533471D01*
X98239338Y39538704D01*
X98293060Y39544417D01*
X98344113Y39526743D01*
X98382805Y39489038D01*
X98391836Y39475215D01*
X98395310Y39471441D01*
X98395311Y39471440D01*
X98556784Y39296033D01*
X98556787Y39296030D01*
X98560256Y39292262D01*
X98756491Y39139526D01*
X98975190Y39021172D01*
X99210386Y38940429D01*
X99455665Y38899500D01*
X99699201Y38899500D01*
X99704335Y38899500D01*
X99949614Y38940429D01*
X100184810Y39021172D01*
X100403509Y39139526D01*
X100599744Y39292262D01*
X100768164Y39475215D01*
X100904173Y39683393D01*
X101004063Y39911119D01*
X101031636Y40020000D01*
X101385424Y40020000D01*
X101405918Y39759603D01*
X101407053Y39754874D01*
X101407054Y39754870D01*
X101465756Y39510355D01*
X101465758Y39510347D01*
X101466894Y39505618D01*
X101566852Y39264298D01*
X101569399Y39260141D01*
X101569400Y39260140D01*
X101644808Y39137085D01*
X101703330Y39041587D01*
X101706494Y39037882D01*
X101706498Y39037877D01*
X101869800Y38846675D01*
X101872967Y38842967D01*
X101876674Y38839801D01*
X102067876Y38676499D01*
X102067879Y38676497D01*
X102071587Y38673330D01*
X102294298Y38536852D01*
X102535618Y38436894D01*
X102789603Y38375918D01*
X103050000Y38355424D01*
X103310397Y38375918D01*
X103564382Y38436894D01*
X103805702Y38536852D01*
X104028413Y38673330D01*
X104227033Y38842967D01*
X104396670Y39041587D01*
X104533148Y39264298D01*
X104633106Y39505618D01*
X104694082Y39759603D01*
X104714576Y40020000D01*
X104694082Y40280397D01*
X104633106Y40534382D01*
X104533148Y40775702D01*
X104396670Y40998413D01*
X104381982Y41015610D01*
X104230199Y41193326D01*
X104227033Y41197033D01*
X104187715Y41230614D01*
X104032123Y41363502D01*
X104032118Y41363506D01*
X104028413Y41366670D01*
X104024257Y41369217D01*
X104024254Y41369219D01*
X103809860Y41500600D01*
X103809859Y41500601D01*
X103805702Y41503148D01*
X103564382Y41603106D01*
X103559653Y41604242D01*
X103559645Y41604244D01*
X103315130Y41662946D01*
X103315126Y41662947D01*
X103310397Y41664082D01*
X103305544Y41664464D01*
X103054854Y41684194D01*
X103050000Y41684576D01*
X103045146Y41684194D01*
X102794455Y41664464D01*
X102794453Y41664464D01*
X102789603Y41664082D01*
X102784875Y41662948D01*
X102784869Y41662946D01*
X102540354Y41604244D01*
X102540342Y41604241D01*
X102535618Y41603106D01*
X102531121Y41601244D01*
X102531117Y41601242D01*
X102298802Y41505014D01*
X102298797Y41505012D01*
X102294298Y41503148D01*
X102290145Y41500604D01*
X102290139Y41500600D01*
X102075745Y41369219D01*
X102075736Y41369213D01*
X102071587Y41366670D01*
X102067887Y41363511D01*
X102067876Y41363502D01*
X101876674Y41200200D01*
X101876667Y41200194D01*
X101872967Y41197033D01*
X101869806Y41193333D01*
X101869800Y41193326D01*
X101706498Y41002124D01*
X101706489Y41002113D01*
X101703330Y40998413D01*
X101700787Y40994264D01*
X101700781Y40994255D01*
X101569400Y40779861D01*
X101569396Y40779855D01*
X101566852Y40775702D01*
X101564988Y40771203D01*
X101564986Y40771198D01*
X101498217Y40610003D01*
X101466894Y40534382D01*
X101465759Y40529658D01*
X101465756Y40529646D01*
X101407054Y40285131D01*
X101407052Y40285125D01*
X101405918Y40280397D01*
X101405536Y40275547D01*
X101405536Y40275545D01*
X101394516Y40135525D01*
X101385424Y40020000D01*
X101031636Y40020000D01*
X101065108Y40152179D01*
X101085643Y40400000D01*
X101065108Y40647821D01*
X101004063Y40888881D01*
X100904173Y41116607D01*
X100900203Y41122683D01*
X100801828Y41273258D01*
X100768164Y41324785D01*
X100729606Y41366670D01*
X100603215Y41503968D01*
X100603211Y41503971D01*
X100599744Y41507738D01*
X100451333Y41623251D01*
X100407559Y41657322D01*
X100407557Y41657324D01*
X100403509Y41660474D01*
X100398997Y41662916D01*
X100189316Y41776390D01*
X100189310Y41776393D01*
X100184810Y41778828D01*
X100179969Y41780490D01*
X100179962Y41780493D01*
X99954465Y41857906D01*
X99954461Y41857907D01*
X99949614Y41859571D01*
X99940768Y41861048D01*
X99709398Y41899656D01*
X99709387Y41899657D01*
X99704335Y41900500D01*
X99455665Y41900500D01*
X99450613Y41899657D01*
X99450601Y41899656D01*
X99215443Y41860415D01*
X99215441Y41860415D01*
X99210386Y41859571D01*
X99205541Y41857908D01*
X99205534Y41857906D01*
X98980037Y41780493D01*
X98980026Y41780489D01*
X98975190Y41778828D01*
X98970693Y41776395D01*
X98970683Y41776390D01*
X98761002Y41662916D01*
X98760995Y41662912D01*
X98756491Y41660474D01*
X98752448Y41657328D01*
X98752440Y41657322D01*
X98581108Y41523968D01*
X98560256Y41507738D01*
X98556793Y41503977D01*
X98556784Y41503968D01*
X98395305Y41328555D01*
X98395296Y41328545D01*
X98391836Y41324785D01*
X98389037Y41320502D01*
X98389027Y41320488D01*
X98382802Y41310960D01*
X98344111Y41273258D01*
X98293061Y41255585D01*
X98239341Y41261297D01*
X98223835Y41266531D01*
X98213653Y41260102D01*
X97365095Y40411543D01*
X97358431Y40400001D01*
X96641568Y40400001D01*
X96634904Y40411543D01*
X95786345Y41260102D01*
X95776164Y41266531D01*
X95754975Y41259379D01*
X95701253Y41253669D01*
X95650202Y41271343D01*
X95611513Y41309046D01*
X95588164Y41344785D01*
X95584521Y41348742D01*
X95423215Y41523968D01*
X95423211Y41523971D01*
X95419744Y41527738D01*
X95297029Y41623251D01*
X96135748Y41623251D01*
X96142408Y41611145D01*
X96988457Y40765096D01*
X96999999Y40758432D01*
X97011542Y40765096D01*
X97857590Y41611145D01*
X97864250Y41623251D01*
X97856143Y41634441D01*
X97827286Y41656901D01*
X97818719Y41662497D01*
X97609114Y41775930D01*
X97599760Y41780033D01*
X97374343Y41857418D01*
X97364431Y41859929D01*
X97129356Y41899156D01*
X97119161Y41900000D01*
X96880839Y41900000D01*
X96870643Y41899156D01*
X96635568Y41859929D01*
X96625656Y41857418D01*
X96400239Y41780033D01*
X96390885Y41775930D01*
X96181276Y41662496D01*
X96172717Y41656904D01*
X96143854Y41634440D01*
X96135748Y41623251D01*
X95297029Y41623251D01*
X95246606Y41662497D01*
X95227559Y41677322D01*
X95227557Y41677324D01*
X95223509Y41680474D01*
X95216635Y41684194D01*
X95009316Y41796390D01*
X95009310Y41796393D01*
X95004810Y41798828D01*
X94999969Y41800490D01*
X94999962Y41800493D01*
X94774465Y41877906D01*
X94774461Y41877907D01*
X94769614Y41879571D01*
X94760768Y41881048D01*
X94529398Y41919656D01*
X94529387Y41919657D01*
X94524335Y41920500D01*
X94275665Y41920500D01*
X94270613Y41919657D01*
X94270601Y41919656D01*
X94035443Y41880415D01*
X94035441Y41880415D01*
X94030386Y41879571D01*
X94025541Y41877908D01*
X94025534Y41877906D01*
X93800037Y41800493D01*
X93800026Y41800489D01*
X93795190Y41798828D01*
X93790693Y41796395D01*
X93790683Y41796390D01*
X93581002Y41682916D01*
X93580995Y41682912D01*
X93576491Y41680474D01*
X93572448Y41677328D01*
X93572440Y41677322D01*
X93386947Y41532946D01*
X93380256Y41527738D01*
X93376793Y41523977D01*
X93376784Y41523968D01*
X93215311Y41348561D01*
X93215305Y41348554D01*
X93211836Y41344785D01*
X93209034Y41340498D01*
X93209029Y41340490D01*
X93208808Y41340150D01*
X93208658Y41340013D01*
X93205882Y41336445D01*
X93205286Y41336909D01*
X93164017Y41298918D01*
X93105000Y41283973D01*
X93045983Y41298918D01*
X93004713Y41336909D01*
X93004118Y41336445D01*
X93001341Y41340013D01*
X93001192Y41340150D01*
X93000970Y41340490D01*
X92998164Y41344785D01*
X92994521Y41348742D01*
X92833215Y41523968D01*
X92833211Y41523971D01*
X92829744Y41527738D01*
X92656606Y41662497D01*
X92637559Y41677322D01*
X92637557Y41677324D01*
X92633509Y41680474D01*
X92626635Y41684194D01*
X92419316Y41796390D01*
X92419310Y41796393D01*
X92414810Y41798828D01*
X92409969Y41800490D01*
X92409962Y41800493D01*
X92184465Y41877906D01*
X92184461Y41877907D01*
X92179614Y41879571D01*
X92170768Y41881048D01*
X91939398Y41919656D01*
X91939387Y41919657D01*
X91934335Y41920500D01*
X91685665Y41920500D01*
X91680613Y41919657D01*
X91680601Y41919656D01*
X91445443Y41880415D01*
X91445441Y41880415D01*
X91440386Y41879571D01*
X91435541Y41877908D01*
X91435534Y41877906D01*
X91210037Y41800493D01*
X91210026Y41800489D01*
X91205190Y41798828D01*
X91200693Y41796395D01*
X91200683Y41796390D01*
X90991002Y41682916D01*
X90990995Y41682912D01*
X90986491Y41680474D01*
X90982448Y41677328D01*
X90982440Y41677322D01*
X90796947Y41532946D01*
X90790256Y41527738D01*
X90786793Y41523977D01*
X90786784Y41523968D01*
X90625311Y41348561D01*
X90625305Y41348554D01*
X90621836Y41344785D01*
X90619031Y41340494D01*
X90619028Y41340488D01*
X90488631Y41140901D01*
X90488624Y41140889D01*
X90485827Y41136607D01*
X90483772Y41131923D01*
X90483766Y41131911D01*
X90387997Y40913578D01*
X90385937Y40908881D01*
X90384679Y40903916D01*
X90384678Y40903911D01*
X90326151Y40672796D01*
X90326149Y40672787D01*
X90324892Y40667821D01*
X90324468Y40662712D01*
X90324467Y40662702D01*
X90306010Y40439945D01*
X90304357Y40420000D01*
X89666637Y40420000D01*
X89573148Y40645702D01*
X89436670Y40868413D01*
X89423433Y40883911D01*
X89270199Y41063326D01*
X89267033Y41067033D01*
X89248709Y41082683D01*
X89072123Y41233502D01*
X89072118Y41233506D01*
X89068413Y41236670D01*
X89064257Y41239217D01*
X89064254Y41239219D01*
X88849860Y41370600D01*
X88849859Y41370601D01*
X88845702Y41373148D01*
X88604382Y41473106D01*
X88599653Y41474242D01*
X88599645Y41474244D01*
X88355130Y41532946D01*
X88355126Y41532947D01*
X88350397Y41534082D01*
X88345544Y41534464D01*
X88094854Y41554194D01*
X88090000Y41554576D01*
X88085146Y41554194D01*
X87834455Y41534464D01*
X87834453Y41534464D01*
X87829603Y41534082D01*
X87824875Y41532948D01*
X87824869Y41532946D01*
X87580354Y41474244D01*
X87580342Y41474241D01*
X87575618Y41473106D01*
X87571121Y41471244D01*
X87571117Y41471242D01*
X87338802Y41375014D01*
X87338797Y41375012D01*
X87334298Y41373148D01*
X87330145Y41370604D01*
X87330139Y41370600D01*
X87115745Y41239219D01*
X87115736Y41239213D01*
X87111587Y41236670D01*
X87107887Y41233511D01*
X87107876Y41233502D01*
X86916674Y41070200D01*
X86916667Y41070194D01*
X86912967Y41067033D01*
X86909806Y41063333D01*
X86909800Y41063326D01*
X86746498Y40872124D01*
X86746489Y40872113D01*
X86743330Y40868413D01*
X86740787Y40864264D01*
X86740781Y40864255D01*
X86609400Y40649861D01*
X86609396Y40649855D01*
X86606852Y40645702D01*
X86604988Y40641203D01*
X86604986Y40641198D01*
X86509860Y40411543D01*
X86506894Y40404382D01*
X86505759Y40399658D01*
X86505756Y40399646D01*
X86447054Y40155131D01*
X86447052Y40155125D01*
X86445918Y40150397D01*
X86445536Y40145547D01*
X86445536Y40145545D01*
X86430633Y39956188D01*
X86425424Y39890000D01*
X85700500Y39890000D01*
X85700500Y45190000D01*
X91685774Y45190000D01*
X91705525Y44939044D01*
X91706660Y44934315D01*
X91706661Y44934311D01*
X91763152Y44699004D01*
X91763154Y44698996D01*
X91764290Y44694267D01*
X91860624Y44461697D01*
X91992154Y44247060D01*
X91995318Y44243355D01*
X91995322Y44243350D01*
X92017367Y44217539D01*
X92155641Y44055641D01*
X92159348Y44052475D01*
X92343349Y43895323D01*
X92343352Y43895321D01*
X92347060Y43892154D01*
X92561697Y43760624D01*
X92794267Y43664290D01*
X93039044Y43605525D01*
X93290000Y43585774D01*
X93540956Y43605525D01*
X93785733Y43664290D01*
X94018303Y43760624D01*
X94232940Y43892154D01*
X94424359Y44055641D01*
X94587846Y44247060D01*
X94719376Y44461697D01*
X94815710Y44694267D01*
X94874475Y44939044D01*
X94894226Y45190000D01*
X94874475Y45440956D01*
X94815710Y45685733D01*
X94719376Y45918303D01*
X94587846Y46132940D01*
X94573909Y46149258D01*
X94429266Y46318614D01*
X94424359Y46324359D01*
X94395330Y46349152D01*
X94236650Y46484678D01*
X94236645Y46484682D01*
X94232940Y46487846D01*
X94228784Y46490393D01*
X94228781Y46490395D01*
X94022461Y46616828D01*
X94022460Y46616829D01*
X94018303Y46619376D01*
X93785733Y46715710D01*
X93781004Y46716846D01*
X93780996Y46716848D01*
X93545689Y46773339D01*
X93545685Y46773340D01*
X93540956Y46774475D01*
X93536103Y46774857D01*
X93294854Y46793844D01*
X93290000Y46794226D01*
X93285146Y46793844D01*
X93043896Y46774857D01*
X93043894Y46774857D01*
X93039044Y46774475D01*
X93034316Y46773341D01*
X93034310Y46773339D01*
X92799003Y46716848D01*
X92798991Y46716845D01*
X92794267Y46715710D01*
X92789770Y46713848D01*
X92789766Y46713846D01*
X92566201Y46621242D01*
X92566197Y46621240D01*
X92561697Y46619376D01*
X92557544Y46616832D01*
X92557538Y46616828D01*
X92351218Y46490395D01*
X92351209Y46490389D01*
X92347060Y46487846D01*
X92343360Y46484687D01*
X92343349Y46484678D01*
X92159348Y46327526D01*
X92159341Y46327520D01*
X92155641Y46324359D01*
X92152480Y46320659D01*
X92152474Y46320652D01*
X91995322Y46136651D01*
X91995313Y46136640D01*
X91992154Y46132940D01*
X91989611Y46128791D01*
X91989605Y46128782D01*
X91863172Y45922462D01*
X91863168Y45922456D01*
X91860624Y45918303D01*
X91858760Y45913803D01*
X91858758Y45913799D01*
X91801990Y45776748D01*
X91764290Y45685733D01*
X91763155Y45681009D01*
X91763152Y45680997D01*
X91706661Y45445690D01*
X91706659Y45445684D01*
X91705525Y45440956D01*
X91685774Y45190000D01*
X85700500Y45190000D01*
X85700500Y47034217D01*
X85709939Y47081670D01*
X85736819Y47121898D01*
X86454921Y47840000D01*
X103810201Y47840000D01*
X103810583Y47835146D01*
X103817812Y47743288D01*
X103829439Y47595562D01*
X103830574Y47590833D01*
X103830575Y47590829D01*
X103885540Y47361880D01*
X103885542Y47361872D01*
X103886678Y47357143D01*
X103888542Y47352643D01*
X103978646Y47135112D01*
X103978650Y47135104D01*
X103980510Y47130614D01*
X103983052Y47126466D01*
X103983053Y47126464D01*
X104106075Y46925708D01*
X104106078Y46925703D01*
X104108623Y46921551D01*
X104111788Y46917845D01*
X104111789Y46917844D01*
X104167030Y46853166D01*
X104267864Y46735105D01*
X104454310Y46575864D01*
X104458464Y46573319D01*
X104458466Y46573317D01*
X104510154Y46541643D01*
X104663373Y46447751D01*
X104667867Y46445890D01*
X104667870Y46445888D01*
X104734316Y46418366D01*
X104889902Y46353919D01*
X105128321Y46296680D01*
X105372759Y46277442D01*
X105617197Y46296680D01*
X105855616Y46353919D01*
X106082145Y46447751D01*
X106291208Y46575864D01*
X106477654Y46735105D01*
X106636895Y46921551D01*
X106765008Y47130614D01*
X106858840Y47357143D01*
X106916079Y47595562D01*
X106935317Y47840000D01*
X106916079Y48084438D01*
X106858840Y48322857D01*
X106782534Y48507074D01*
X106766871Y48544889D01*
X106766869Y48544892D01*
X106765008Y48549386D01*
X106636895Y48758449D01*
X106477654Y48944895D01*
X106291208Y49104136D01*
X106287056Y49106681D01*
X106287051Y49106684D01*
X106086295Y49229706D01*
X106086293Y49229707D01*
X106082145Y49232249D01*
X106077655Y49234109D01*
X106077647Y49234113D01*
X105860116Y49324217D01*
X105855616Y49326081D01*
X105850887Y49327217D01*
X105850879Y49327219D01*
X105621930Y49382184D01*
X105621926Y49382185D01*
X105617197Y49383320D01*
X105612344Y49383702D01*
X105377613Y49402176D01*
X105372759Y49402558D01*
X105367905Y49402176D01*
X105133173Y49383702D01*
X105133171Y49383702D01*
X105128321Y49383320D01*
X105123593Y49382186D01*
X105123587Y49382184D01*
X104894638Y49327219D01*
X104894626Y49327216D01*
X104889902Y49326081D01*
X104885405Y49324219D01*
X104885401Y49324217D01*
X104667870Y49234113D01*
X104667856Y49234107D01*
X104663373Y49232249D01*
X104659228Y49229710D01*
X104659222Y49229706D01*
X104458466Y49106684D01*
X104458455Y49106677D01*
X104454310Y49104136D01*
X104450609Y49100976D01*
X104450602Y49100970D01*
X104271564Y48948056D01*
X104271557Y48948050D01*
X104267864Y48944895D01*
X104264709Y48941202D01*
X104264703Y48941195D01*
X104111789Y48762157D01*
X104111783Y48762150D01*
X104108623Y48758449D01*
X104106082Y48754304D01*
X104106075Y48754293D01*
X103983053Y48553537D01*
X103983049Y48553531D01*
X103980510Y48549386D01*
X103978652Y48544903D01*
X103978646Y48544889D01*
X103888542Y48327358D01*
X103886678Y48322857D01*
X103885543Y48318133D01*
X103885540Y48318121D01*
X103830575Y48089172D01*
X103830573Y48089166D01*
X103829439Y48084438D01*
X103829057Y48079588D01*
X103829057Y48079586D01*
X103812326Y47867003D01*
X103810201Y47840000D01*
X86454921Y47840000D01*
X86578102Y47963181D01*
X86618330Y47990061D01*
X86665783Y47999500D01*
X102285722Y47999500D01*
X102288862Y47999461D01*
X102376363Y47997243D01*
X102434458Y48007656D01*
X102443739Y48008958D01*
X102502438Y48014926D01*
X102531464Y48024034D01*
X102546713Y48027776D01*
X102576653Y48033142D01*
X102631423Y48055020D01*
X102640303Y48058182D01*
X102640612Y48058279D01*
X102696588Y48075841D01*
X102723194Y48090610D01*
X102737362Y48097338D01*
X102765617Y48108623D01*
X102814891Y48141098D01*
X102822910Y48145957D01*
X102874502Y48174591D01*
X102885961Y48184430D01*
X102897583Y48194406D01*
X102910125Y48203863D01*
X102935519Y48220598D01*
X102977238Y48262319D01*
X102984122Y48268699D01*
X103028895Y48307134D01*
X103047524Y48331202D01*
X103057884Y48342965D01*
X107197389Y52482471D01*
X107199559Y52484587D01*
X107263053Y52544941D01*
X107296752Y52593359D01*
X107302428Y52600887D01*
X107312320Y52613018D01*
X107339698Y52646593D01*
X107353782Y52673556D01*
X107361919Y52686987D01*
X107375704Y52706792D01*
X107375703Y52706792D01*
X107379295Y52711951D01*
X107402568Y52766185D01*
X107406598Y52774669D01*
X107428425Y52816452D01*
X107433909Y52826951D01*
X107442278Y52856203D01*
X107447538Y52870977D01*
X107459540Y52898942D01*
X107471416Y52956738D01*
X107473649Y52965838D01*
X107489887Y53022582D01*
X107492197Y53052923D01*
X107494378Y53068472D01*
X107500500Y53098259D01*
X107500500Y53157241D01*
X107500858Y53166656D01*
X107502167Y53183851D01*
X107505337Y53225476D01*
X107501493Y53255652D01*
X107500500Y53271317D01*
X107500500Y55942972D01*
X107508983Y55988047D01*
X107533270Y56026955D01*
X107628905Y56130843D01*
X107688164Y56195215D01*
X107824173Y56403393D01*
X107924063Y56631119D01*
X107985108Y56872179D01*
X108005643Y57120000D01*
X107985108Y57367821D01*
X107924063Y57608881D01*
X107824173Y57836607D01*
X107808066Y57861260D01*
X107733374Y57975585D01*
X107688164Y58044785D01*
X107541626Y58203968D01*
X107523215Y58223968D01*
X107523211Y58223971D01*
X107519744Y58227738D01*
X107371333Y58343251D01*
X107327559Y58377322D01*
X107327557Y58377324D01*
X107323509Y58380474D01*
X107318997Y58382916D01*
X107109316Y58496390D01*
X107109310Y58496393D01*
X107104810Y58498828D01*
X107099969Y58500490D01*
X107099962Y58500493D01*
X106874465Y58577906D01*
X106874461Y58577907D01*
X106869614Y58579571D01*
X106860768Y58581048D01*
X106629398Y58619656D01*
X106629387Y58619657D01*
X106624335Y58620500D01*
X106375665Y58620500D01*
X106370613Y58619657D01*
X106370601Y58619656D01*
X106135443Y58580415D01*
X106135441Y58580415D01*
X106130386Y58579571D01*
X106125541Y58577908D01*
X106125534Y58577906D01*
X105900037Y58500493D01*
X105900026Y58500489D01*
X105895190Y58498828D01*
X105890693Y58496395D01*
X105890683Y58496390D01*
X105681002Y58382916D01*
X105680995Y58382912D01*
X105676491Y58380474D01*
X105672448Y58377328D01*
X105672440Y58377322D01*
X105484304Y58230889D01*
X105480256Y58227738D01*
X105476793Y58223977D01*
X105476784Y58223968D01*
X105315305Y58048555D01*
X105315296Y58048545D01*
X105311836Y58044785D01*
X105309037Y58040502D01*
X105309027Y58040488D01*
X105302802Y58030960D01*
X105264111Y57993258D01*
X105213061Y57975585D01*
X105159341Y57981297D01*
X105143835Y57986531D01*
X105133653Y57980102D01*
X104285095Y57131543D01*
X104278431Y57120001D01*
X104285095Y57108458D01*
X105133653Y56259900D01*
X105143834Y56253471D01*
X105159338Y56258704D01*
X105213060Y56264417D01*
X105264113Y56246743D01*
X105302805Y56209038D01*
X105311836Y56195215D01*
X105315310Y56191441D01*
X105315311Y56191440D01*
X105466730Y56026955D01*
X105491017Y55988047D01*
X105499500Y55942972D01*
X105499500Y53665783D01*
X105490061Y53618330D01*
X105463181Y53578102D01*
X101921899Y50036819D01*
X101881671Y50009939D01*
X101834218Y50000500D01*
X86214237Y50000500D01*
X86211096Y50000540D01*
X86129923Y50002597D01*
X86129920Y50002597D01*
X86123636Y50002756D01*
X86117453Y50001648D01*
X86117441Y50001647D01*
X86065581Y49992352D01*
X86056254Y49991043D01*
X86003815Y49985710D01*
X86003813Y49985710D01*
X85997562Y49985074D01*
X85991573Y49983196D01*
X85991563Y49983193D01*
X85968526Y49975965D01*
X85953289Y49972226D01*
X85929538Y49967969D01*
X85929525Y49967966D01*
X85923347Y49966858D01*
X85917520Y49964531D01*
X85917504Y49964526D01*
X85868567Y49944979D01*
X85859697Y49941821D01*
X85809411Y49926043D01*
X85809396Y49926037D01*
X85803412Y49924159D01*
X85797922Y49921113D01*
X85797915Y49921109D01*
X85776809Y49909395D01*
X85762640Y49902666D01*
X85740223Y49893711D01*
X85740213Y49893707D01*
X85734383Y49891377D01*
X85729140Y49887922D01*
X85729131Y49887917D01*
X85685123Y49858914D01*
X85677073Y49854037D01*
X85625498Y49825409D01*
X85620729Y49821316D01*
X85620726Y49821313D01*
X85602414Y49805593D01*
X85589887Y49796148D01*
X85569731Y49782864D01*
X85569719Y49782855D01*
X85564481Y49779402D01*
X85560039Y49774961D01*
X85560035Y49774957D01*
X85522774Y49737697D01*
X85515868Y49731296D01*
X85475873Y49696960D01*
X85475869Y49696957D01*
X85471105Y49692866D01*
X85467260Y49687900D01*
X85467260Y49687899D01*
X85452480Y49668806D01*
X85442108Y49657031D01*
X84002645Y48217567D01*
X84000397Y48215375D01*
X83936947Y48155059D01*
X83933359Y48149905D01*
X83933352Y48149896D01*
X83903244Y48106639D01*
X83897574Y48099119D01*
X83864274Y48058279D01*
X83864271Y48058276D01*
X83860302Y48053407D01*
X83857396Y48047845D01*
X83857388Y48047832D01*
X83846210Y48026434D01*
X83838082Y48013018D01*
X83824300Y47993216D01*
X83824295Y47993208D01*
X83820705Y47988049D01*
X83818228Y47982279D01*
X83818225Y47982272D01*
X83797439Y47933835D01*
X83793399Y47925329D01*
X83775880Y47891789D01*
X83766091Y47873049D01*
X83764363Y47867011D01*
X83764360Y47867003D01*
X83757720Y47843799D01*
X83752459Y47829022D01*
X83742942Y47806843D01*
X83740460Y47801058D01*
X83739194Y47794903D01*
X83739192Y47794893D01*
X83728587Y47743288D01*
X83726342Y47734141D01*
X83711842Y47683466D01*
X83711839Y47683453D01*
X83710113Y47677418D01*
X83709636Y47671158D01*
X83709635Y47671151D01*
X83707801Y47647071D01*
X83705622Y47631537D01*
X83700766Y47607903D01*
X83699500Y47601741D01*
X83699500Y47595450D01*
X83699500Y47542759D01*
X83699142Y47533344D01*
X83695140Y47480795D01*
X83695140Y47480790D01*
X83694663Y47474524D01*
X83695456Y47468291D01*
X83695457Y47468285D01*
X83698506Y47444349D01*
X83699500Y47428683D01*
X83699500Y14065783D01*
X83690061Y14018330D01*
X83663181Y13978102D01*
X82521899Y12836819D01*
X82481671Y12809939D01*
X82434218Y12800500D01*
X51165782Y12800500D01*
X51118329Y12809939D01*
X51078101Y12836819D01*
X50176819Y13738101D01*
X50149939Y13778329D01*
X50140500Y13825782D01*
X50140500Y18469076D01*
X50147748Y18510850D01*
X50168647Y18547741D01*
X50177383Y18558387D01*
X50221798Y18612506D01*
X50317023Y18790659D01*
X50375662Y18983967D01*
X50395462Y19185000D01*
X50392063Y19219508D01*
X50382329Y19318346D01*
X50394520Y19385344D01*
X50440252Y19435801D01*
X50505732Y19454500D01*
X57179217Y19454500D01*
X57226670Y19445061D01*
X57266898Y19418181D01*
X58982432Y17702648D01*
X58984625Y17700399D01*
X59044941Y17636947D01*
X59050100Y17633356D01*
X59050104Y17633353D01*
X59093362Y17603245D01*
X59100871Y17597584D01*
X59146593Y17560302D01*
X59152171Y17557389D01*
X59152170Y17557389D01*
X59173556Y17546218D01*
X59186980Y17538085D01*
X59211951Y17520705D01*
X59266163Y17497441D01*
X59274637Y17493418D01*
X59276851Y17492262D01*
X59323521Y17449780D01*
X59343238Y17389826D01*
X59330890Y17327932D01*
X59289676Y17280134D01*
X59230273Y17258813D01*
X59152641Y17252021D01*
X59152634Y17252020D01*
X59147253Y17251549D01*
X59142028Y17250150D01*
X59142028Y17250149D01*
X58946202Y17197679D01*
X58946190Y17197675D01*
X58940970Y17196276D01*
X58936065Y17193990D01*
X58936060Y17193987D01*
X58752329Y17108311D01*
X58752325Y17108309D01*
X58747419Y17106021D01*
X58742986Y17102918D01*
X58742979Y17102913D01*
X58576916Y16986635D01*
X58576911Y16986632D01*
X58572481Y16983529D01*
X58568657Y16979706D01*
X58568651Y16979700D01*
X58425300Y16836349D01*
X58425294Y16836343D01*
X58421471Y16832519D01*
X58418368Y16828089D01*
X58418365Y16828084D01*
X58302087Y16662021D01*
X58302082Y16662014D01*
X58298979Y16657581D01*
X58296691Y16652675D01*
X58296689Y16652671D01*
X58211013Y16468940D01*
X58211010Y16468935D01*
X58208724Y16464030D01*
X58207325Y16458810D01*
X58207321Y16458798D01*
X58154851Y16262972D01*
X58153451Y16257747D01*
X58134838Y16045000D01*
X58153451Y15832253D01*
X58154851Y15827029D01*
X58207321Y15631203D01*
X58207324Y15631195D01*
X58208724Y15625970D01*
X58211012Y15621063D01*
X58211013Y15621061D01*
X58261469Y15512859D01*
X58298979Y15432419D01*
X58302086Y15427982D01*
X58302087Y15427980D01*
X58327049Y15392331D01*
X58421471Y15257481D01*
X58572481Y15106471D01*
X58747419Y14983979D01*
X58940970Y14893724D01*
X59147253Y14838451D01*
X59360000Y14819838D01*
X59572747Y14838451D01*
X59779030Y14893724D01*
X59972581Y14983979D01*
X60147519Y15106471D01*
X60298529Y15257481D01*
X60421021Y15432419D01*
X60511276Y15625970D01*
X60566549Y15832253D01*
X60585162Y16045000D01*
X60566549Y16257747D01*
X60511276Y16464030D01*
X60421021Y16657581D01*
X60298529Y16832519D01*
X60147519Y16983529D01*
X60088280Y17025008D01*
X59977020Y17102913D01*
X59977018Y17102914D01*
X59972581Y17106021D01*
X59850136Y17163119D01*
X59799741Y17206160D01*
X59778712Y17269011D01*
X59793057Y17333715D01*
X59838677Y17381789D01*
X59902542Y17399500D01*
X63897458Y17399500D01*
X63961323Y17381789D01*
X64006943Y17333715D01*
X64021288Y17269011D01*
X64000259Y17206160D01*
X63949863Y17163118D01*
X63832329Y17108311D01*
X63832325Y17108309D01*
X63827419Y17106021D01*
X63822986Y17102918D01*
X63822979Y17102913D01*
X63656916Y16986635D01*
X63656911Y16986632D01*
X63652481Y16983529D01*
X63648657Y16979706D01*
X63648651Y16979700D01*
X63505300Y16836349D01*
X63505294Y16836343D01*
X63501471Y16832519D01*
X63498368Y16828089D01*
X63498365Y16828084D01*
X63382087Y16662021D01*
X63382082Y16662014D01*
X63378979Y16657581D01*
X63376691Y16652675D01*
X63376689Y16652671D01*
X63291013Y16468940D01*
X63291010Y16468935D01*
X63288724Y16464030D01*
X63287325Y16458810D01*
X63287321Y16458798D01*
X63234851Y16262972D01*
X63233451Y16257747D01*
X63214838Y16045000D01*
X63233451Y15832253D01*
X63234851Y15827029D01*
X63287321Y15631203D01*
X63287324Y15631195D01*
X63288724Y15625970D01*
X63291012Y15621063D01*
X63291013Y15621061D01*
X63341469Y15512859D01*
X63378979Y15432419D01*
X63382086Y15427982D01*
X63382087Y15427980D01*
X63407049Y15392331D01*
X63501471Y15257481D01*
X63652481Y15106471D01*
X63827419Y14983979D01*
X64020970Y14893724D01*
X64227253Y14838451D01*
X64440000Y14819838D01*
X64652747Y14838451D01*
X64859030Y14893724D01*
X65052581Y14983979D01*
X65227519Y15106471D01*
X65378529Y15257481D01*
X65501021Y15432419D01*
X65591276Y15625970D01*
X65646549Y15832253D01*
X65665162Y16045000D01*
X65646549Y16257747D01*
X65591276Y16464030D01*
X65501021Y16657581D01*
X65378529Y16832519D01*
X65227519Y16983529D01*
X65168280Y17025008D01*
X65057020Y17102913D01*
X65057018Y17102914D01*
X65052581Y17106021D01*
X64930136Y17163119D01*
X64879741Y17206160D01*
X64858712Y17269011D01*
X64873057Y17333715D01*
X64918677Y17381789D01*
X64982542Y17399500D01*
X67585722Y17399500D01*
X67588862Y17399461D01*
X67676363Y17397243D01*
X67734458Y17407656D01*
X67743739Y17408958D01*
X67802438Y17414926D01*
X67831464Y17424034D01*
X67846713Y17427776D01*
X67876653Y17433142D01*
X67931423Y17455020D01*
X67940303Y17458182D01*
X67996588Y17475841D01*
X68023194Y17490610D01*
X68037362Y17497338D01*
X68065617Y17508623D01*
X68114891Y17541098D01*
X68122910Y17545957D01*
X68174502Y17574591D01*
X68185961Y17584430D01*
X68197583Y17594406D01*
X68210125Y17603863D01*
X68235519Y17620598D01*
X68277238Y17662319D01*
X68284122Y17668699D01*
X68328895Y17707134D01*
X68347520Y17731198D01*
X68357879Y17742960D01*
X70197409Y19582490D01*
X70199579Y19584606D01*
X70263053Y19644941D01*
X70296748Y19693352D01*
X70302422Y19700877D01*
X70335721Y19741715D01*
X70335723Y19741719D01*
X70339698Y19746593D01*
X70353782Y19773556D01*
X70361919Y19786987D01*
X70379295Y19811951D01*
X70402568Y19866185D01*
X70406598Y19874669D01*
X70407228Y19875874D01*
X70433909Y19926951D01*
X70442278Y19956203D01*
X70447538Y19970977D01*
X70459540Y19998942D01*
X70471416Y20056738D01*
X70473649Y20065838D01*
X70489887Y20122582D01*
X70492197Y20152923D01*
X70494378Y20168472D01*
X70497439Y20183366D01*
X70500500Y20198259D01*
X70500500Y20257242D01*
X70500858Y20266657D01*
X70501051Y20269199D01*
X70505337Y20325477D01*
X70501493Y20355653D01*
X70500500Y20371318D01*
X70500500Y22234217D01*
X70509939Y22281670D01*
X70536819Y22321898D01*
X71378102Y23163181D01*
X71418330Y23190061D01*
X71465783Y23199500D01*
X74434217Y23199500D01*
X74481670Y23190061D01*
X74521898Y23163181D01*
X75123181Y22561899D01*
X75150061Y22521671D01*
X75159500Y22474218D01*
X75159500Y21777028D01*
X75151017Y21731953D01*
X75126730Y21693045D01*
X74975305Y21528555D01*
X74975296Y21528545D01*
X74971836Y21524785D01*
X74969038Y21520504D01*
X74969029Y21520491D01*
X74957273Y21502497D01*
X74912482Y21461266D01*
X74853467Y21446321D01*
X74794451Y21461265D01*
X74755263Y21497337D01*
X74754118Y21496445D01*
X74750971Y21500488D01*
X74748164Y21504785D01*
X74716853Y21538798D01*
X74583215Y21683968D01*
X74583211Y21683971D01*
X74579744Y21687738D01*
X74420509Y21811676D01*
X74387559Y21837322D01*
X74387557Y21837324D01*
X74383509Y21840474D01*
X74378997Y21842916D01*
X74169316Y21956390D01*
X74169310Y21956393D01*
X74164810Y21958828D01*
X74159969Y21960490D01*
X74159962Y21960493D01*
X73934465Y22037906D01*
X73934461Y22037907D01*
X73929614Y22039571D01*
X73887533Y22046593D01*
X73689398Y22079656D01*
X73689387Y22079657D01*
X73684335Y22080500D01*
X73435665Y22080500D01*
X73430613Y22079657D01*
X73430601Y22079656D01*
X73195443Y22040415D01*
X73195441Y22040415D01*
X73190386Y22039571D01*
X73185541Y22037908D01*
X73185534Y22037906D01*
X72960037Y21960493D01*
X72960026Y21960489D01*
X72955190Y21958828D01*
X72950693Y21956395D01*
X72950683Y21956390D01*
X72741002Y21842916D01*
X72740995Y21842912D01*
X72736491Y21840474D01*
X72732448Y21837328D01*
X72732440Y21837322D01*
X72555433Y21699551D01*
X72540256Y21687738D01*
X72536793Y21683977D01*
X72536784Y21683968D01*
X72375311Y21508561D01*
X72375305Y21508554D01*
X72371836Y21504785D01*
X72369031Y21500494D01*
X72369028Y21500488D01*
X72238631Y21300901D01*
X72238624Y21300889D01*
X72235827Y21296607D01*
X72233772Y21291923D01*
X72233766Y21291911D01*
X72143165Y21085359D01*
X72135937Y21068881D01*
X72134679Y21063916D01*
X72134678Y21063911D01*
X72076151Y20832796D01*
X72076149Y20832787D01*
X72074892Y20827821D01*
X72074468Y20822712D01*
X72074467Y20822702D01*
X72057197Y20614278D01*
X72054357Y20580000D01*
X72054781Y20574883D01*
X72074467Y20337299D01*
X72074468Y20337291D01*
X72074892Y20332179D01*
X72076149Y20327212D01*
X72076151Y20327205D01*
X72126380Y20128857D01*
X72135937Y20091119D01*
X72146478Y20067088D01*
X72233766Y19868090D01*
X72233769Y19868084D01*
X72235827Y19863393D01*
X72238627Y19859107D01*
X72238631Y19859100D01*
X72358769Y19675215D01*
X72371836Y19655215D01*
X72375310Y19651441D01*
X72375311Y19651440D01*
X72536784Y19476033D01*
X72536787Y19476030D01*
X72540256Y19472262D01*
X72736491Y19319526D01*
X72955190Y19201172D01*
X73190386Y19120429D01*
X73435665Y19079500D01*
X73679201Y19079500D01*
X73684335Y19079500D01*
X73929614Y19120429D01*
X74164810Y19201172D01*
X74383509Y19319526D01*
X74579744Y19472262D01*
X74748164Y19655215D01*
X74762723Y19677501D01*
X74807515Y19718735D01*
X74866535Y19733681D01*
X74925554Y19718734D01*
X74964734Y19682663D01*
X74965882Y19683555D01*
X74969028Y19679512D01*
X74971836Y19675215D01*
X74975310Y19671441D01*
X74975311Y19671440D01*
X75136784Y19496033D01*
X75136787Y19496030D01*
X75140256Y19492262D01*
X75336491Y19339526D01*
X75555190Y19221172D01*
X75790386Y19140429D01*
X76035665Y19099500D01*
X76279201Y19099500D01*
X76284335Y19099500D01*
X76529614Y19140429D01*
X76764810Y19221172D01*
X76983509Y19339526D01*
X77105952Y19434828D01*
X77158378Y19458680D01*
X77215927Y19456273D01*
X77266180Y19428124D01*
X77298294Y19380307D01*
X77303548Y19366221D01*
X77311962Y19350811D01*
X77387498Y19249908D01*
X77399907Y19237499D01*
X77500810Y19161963D01*
X77516222Y19153548D01*
X77635358Y19109112D01*
X77650332Y19105574D01*
X77698885Y19100354D01*
X77705482Y19100000D01*
X78483674Y19100000D01*
X78496549Y19103451D01*
X78500000Y19116326D01*
X79000000Y19116326D01*
X79003450Y19103451D01*
X79016326Y19100000D01*
X79794518Y19100000D01*
X79801114Y19100354D01*
X79849667Y19105574D01*
X79864641Y19109112D01*
X79983777Y19153548D01*
X79999189Y19161963D01*
X80100092Y19237499D01*
X80112501Y19249908D01*
X80188037Y19350811D01*
X80196452Y19366223D01*
X80240888Y19485359D01*
X80244426Y19500333D01*
X80249646Y19548886D01*
X80250000Y19555482D01*
X80250000Y20333674D01*
X80246549Y20346550D01*
X80233674Y20350000D01*
X79016326Y20350000D01*
X79003450Y20346550D01*
X79000000Y20333674D01*
X79000000Y19116326D01*
X78500000Y19116326D01*
X78500000Y20866326D01*
X79000000Y20866326D01*
X79003450Y20853451D01*
X79016326Y20850000D01*
X80233674Y20850000D01*
X80246549Y20853451D01*
X80250000Y20866326D01*
X80250000Y21644518D01*
X80249646Y21651115D01*
X80244426Y21699668D01*
X80240888Y21714642D01*
X80196452Y21833778D01*
X80188037Y21849190D01*
X80112501Y21950093D01*
X80100092Y21962502D01*
X79999189Y22038038D01*
X79983777Y22046453D01*
X79864641Y22090889D01*
X79849667Y22094427D01*
X79801114Y22099647D01*
X79794518Y22100000D01*
X79016326Y22100000D01*
X79003450Y22096550D01*
X79000000Y22083674D01*
X79000000Y20866326D01*
X78500000Y20866326D01*
X78500000Y22083674D01*
X78496549Y22096550D01*
X78483674Y22100000D01*
X77705482Y22100000D01*
X77698885Y22099647D01*
X77650332Y22094427D01*
X77635358Y22090889D01*
X77516222Y22046453D01*
X77500810Y22038038D01*
X77399907Y21962502D01*
X77387497Y21950092D01*
X77383766Y21945107D01*
X77336010Y21906624D01*
X77275653Y21895735D01*
X77217460Y21915104D01*
X77175668Y21959992D01*
X77160500Y22019419D01*
X77160500Y22931499D01*
X77160659Y22937779D01*
X77162704Y22978102D01*
X77164369Y23010936D01*
X77153278Y23083331D01*
X77152484Y23089565D01*
X77145710Y23156182D01*
X77145074Y23162438D01*
X77143190Y23168443D01*
X77140251Y23177811D01*
X77135994Y23196151D01*
X77133556Y23212071D01*
X77108105Y23280791D01*
X77106102Y23286650D01*
X77084159Y23356588D01*
X77076339Y23370677D01*
X77068480Y23387781D01*
X77062886Y23402887D01*
X77024136Y23465054D01*
X77020959Y23470451D01*
X76985409Y23534502D01*
X76974920Y23546720D01*
X76963773Y23561900D01*
X76961069Y23566238D01*
X76955252Y23575571D01*
X76904789Y23628658D01*
X76900577Y23633319D01*
X76856958Y23684129D01*
X76856955Y23684132D01*
X76852866Y23688895D01*
X76847896Y23692743D01*
X76847892Y23692746D01*
X76840128Y23698756D01*
X76826156Y23711379D01*
X76819395Y23718492D01*
X76819393Y23718494D01*
X76815059Y23723053D01*
X76809895Y23726648D01*
X76809893Y23726649D01*
X76754937Y23764899D01*
X76749889Y23768606D01*
X76740278Y23776045D01*
X76728505Y23786415D01*
X75617567Y24897353D01*
X75615374Y24899602D01*
X75559390Y24958497D01*
X75559389Y24958498D01*
X75555059Y24963053D01*
X75549897Y24966646D01*
X75506642Y24996753D01*
X75499119Y25002425D01*
X75458280Y25035725D01*
X75458277Y25035727D01*
X75453407Y25039698D01*
X75426437Y25053787D01*
X75413024Y25061913D01*
X75388049Y25079295D01*
X75333817Y25102568D01*
X75325351Y25106589D01*
X75273049Y25133909D01*
X75243802Y25142278D01*
X75229021Y25147541D01*
X75206841Y25157059D01*
X75206835Y25157061D01*
X75201058Y25159540D01*
X75194905Y25160805D01*
X75194891Y25160809D01*
X75143273Y25171417D01*
X75134126Y25173662D01*
X75083465Y25188158D01*
X75083453Y25188161D01*
X75077418Y25189887D01*
X75071154Y25190365D01*
X75071149Y25190365D01*
X75047075Y25192198D01*
X75031533Y25194378D01*
X75007902Y25199234D01*
X75007901Y25199235D01*
X75001741Y25200500D01*
X74995452Y25200500D01*
X74942759Y25200500D01*
X74933344Y25200858D01*
X74880794Y25204860D01*
X74880789Y25204860D01*
X74874524Y25205337D01*
X74868290Y25204544D01*
X74868284Y25204543D01*
X74844349Y25201494D01*
X74828683Y25200500D01*
X71014237Y25200500D01*
X71011096Y25200540D01*
X70929923Y25202597D01*
X70929920Y25202597D01*
X70923636Y25202756D01*
X70917453Y25201648D01*
X70917441Y25201647D01*
X70865581Y25192352D01*
X70856254Y25191043D01*
X70803815Y25185710D01*
X70803813Y25185710D01*
X70797562Y25185074D01*
X70791573Y25183196D01*
X70791563Y25183193D01*
X70768526Y25175965D01*
X70753289Y25172226D01*
X70729538Y25167969D01*
X70729525Y25167966D01*
X70723347Y25166858D01*
X70717520Y25164531D01*
X70717504Y25164526D01*
X70668567Y25144979D01*
X70659697Y25141821D01*
X70609411Y25126043D01*
X70609396Y25126037D01*
X70603412Y25124159D01*
X70597922Y25121113D01*
X70597915Y25121109D01*
X70576809Y25109395D01*
X70562640Y25102666D01*
X70540223Y25093711D01*
X70540213Y25093707D01*
X70534383Y25091377D01*
X70529140Y25087922D01*
X70529131Y25087917D01*
X70485123Y25058914D01*
X70477073Y25054037D01*
X70425498Y25025409D01*
X70420729Y25021316D01*
X70420726Y25021313D01*
X70402414Y25005593D01*
X70389887Y24996148D01*
X70369731Y24982864D01*
X70369719Y24982855D01*
X70364481Y24979402D01*
X70360039Y24974961D01*
X70360035Y24974957D01*
X70322774Y24937697D01*
X70315868Y24931296D01*
X70275873Y24896960D01*
X70275869Y24896957D01*
X70271105Y24892866D01*
X70267260Y24887900D01*
X70267260Y24887899D01*
X70252480Y24868806D01*
X70242108Y24857031D01*
X68802645Y23417567D01*
X68800397Y23415375D01*
X68736947Y23355059D01*
X68733359Y23349905D01*
X68733352Y23349896D01*
X68703244Y23306639D01*
X68697574Y23299119D01*
X68664274Y23258279D01*
X68664271Y23258276D01*
X68660302Y23253407D01*
X68657396Y23247845D01*
X68657388Y23247832D01*
X68646210Y23226434D01*
X68638082Y23213018D01*
X68624300Y23193216D01*
X68624295Y23193208D01*
X68620705Y23188049D01*
X68618228Y23182279D01*
X68618225Y23182272D01*
X68597439Y23133835D01*
X68593399Y23125329D01*
X68569968Y23080471D01*
X68566091Y23073049D01*
X68564363Y23067011D01*
X68564360Y23067003D01*
X68557720Y23043799D01*
X68552459Y23029022D01*
X68542942Y23006843D01*
X68540460Y23001058D01*
X68539194Y22994903D01*
X68539192Y22994893D01*
X68528587Y22943288D01*
X68526342Y22934141D01*
X68511842Y22883466D01*
X68511839Y22883453D01*
X68510113Y22877418D01*
X68509636Y22871158D01*
X68509635Y22871151D01*
X68507801Y22847071D01*
X68505622Y22831537D01*
X68500766Y22807903D01*
X68499500Y22801741D01*
X68499500Y22795450D01*
X68499500Y22742759D01*
X68499142Y22733344D01*
X68495140Y22680795D01*
X68495140Y22680790D01*
X68494663Y22674524D01*
X68495456Y22668291D01*
X68495457Y22668285D01*
X68498506Y22644349D01*
X68499500Y22628683D01*
X68499500Y20765782D01*
X68490061Y20718329D01*
X68463181Y20678101D01*
X67221899Y19436819D01*
X67181671Y19409939D01*
X67134218Y19400500D01*
X60165782Y19400500D01*
X60118329Y19409939D01*
X60078101Y19436819D01*
X59052600Y20462320D01*
X59020506Y20517907D01*
X59020506Y20582095D01*
X59052597Y20637678D01*
X59539919Y21125000D01*
X60674838Y21125000D01*
X60675310Y21119605D01*
X60691254Y20937357D01*
X60693451Y20912253D01*
X60694851Y20907029D01*
X60747321Y20711203D01*
X60747324Y20711195D01*
X60748724Y20705970D01*
X60838979Y20512419D01*
X60842086Y20507982D01*
X60842087Y20507980D01*
X60915020Y20403820D01*
X60961471Y20337481D01*
X61112481Y20186471D01*
X61287419Y20063979D01*
X61480970Y19973724D01*
X61687253Y19918451D01*
X61900000Y19899838D01*
X62112747Y19918451D01*
X62319030Y19973724D01*
X62512581Y20063979D01*
X62687519Y20186471D01*
X62838529Y20337481D01*
X62961021Y20512419D01*
X63051276Y20705970D01*
X63106549Y20912253D01*
X63125162Y21125000D01*
X63106549Y21337747D01*
X63056433Y21524785D01*
X63052678Y21538798D01*
X63052677Y21538800D01*
X63051276Y21544030D01*
X62961021Y21737581D01*
X62838529Y21912519D01*
X62687519Y22063529D01*
X62556677Y22155145D01*
X62517020Y22182913D01*
X62517018Y22182914D01*
X62512581Y22186021D01*
X62319030Y22276276D01*
X62313805Y22277676D01*
X62313797Y22277679D01*
X62148765Y22321898D01*
X62112747Y22331549D01*
X62107359Y22332021D01*
X62107356Y22332021D01*
X61905395Y22349690D01*
X61900000Y22350162D01*
X61894605Y22349690D01*
X61692643Y22332021D01*
X61692638Y22332021D01*
X61687253Y22331549D01*
X61682028Y22330150D01*
X61682028Y22330149D01*
X61486202Y22277679D01*
X61486190Y22277675D01*
X61480970Y22276276D01*
X61476065Y22273990D01*
X61476060Y22273987D01*
X61292329Y22188311D01*
X61292325Y22188309D01*
X61287419Y22186021D01*
X61282986Y22182918D01*
X61282979Y22182913D01*
X61116916Y22066635D01*
X61116911Y22066632D01*
X61112481Y22063529D01*
X61108657Y22059706D01*
X61108651Y22059700D01*
X60965300Y21916349D01*
X60965294Y21916343D01*
X60961471Y21912519D01*
X60958368Y21908089D01*
X60958365Y21908084D01*
X60842087Y21742021D01*
X60842082Y21742014D01*
X60838979Y21737581D01*
X60836691Y21732675D01*
X60836689Y21732671D01*
X60751013Y21548940D01*
X60751010Y21548935D01*
X60748724Y21544030D01*
X60747325Y21538810D01*
X60747321Y21538798D01*
X60707915Y21391728D01*
X60693451Y21337747D01*
X60692979Y21332362D01*
X60692979Y21332357D01*
X60679292Y21175905D01*
X60674838Y21125000D01*
X59539919Y21125000D01*
X60297390Y21882472D01*
X60299560Y21884588D01*
X60363053Y21944941D01*
X60366650Y21950109D01*
X60396752Y21993359D01*
X60402428Y22000887D01*
X60411935Y22012546D01*
X60439698Y22046593D01*
X60453782Y22073556D01*
X60461919Y22086987D01*
X60468596Y22096580D01*
X60479295Y22111951D01*
X60502568Y22166185D01*
X60506598Y22174669D01*
X60510375Y22181898D01*
X60533909Y22226951D01*
X60542275Y22256192D01*
X60547539Y22270981D01*
X60559540Y22298942D01*
X60571421Y22356762D01*
X60573650Y22365845D01*
X60589886Y22422582D01*
X60592195Y22452918D01*
X60594376Y22468461D01*
X60599234Y22492099D01*
X60599233Y22492099D01*
X60600500Y22498259D01*
X60600500Y22557244D01*
X60600858Y22566660D01*
X60600894Y22567139D01*
X60605337Y22625476D01*
X60601493Y22655652D01*
X60600500Y22671317D01*
X60600500Y25703485D01*
X65832881Y25703485D01*
X65833560Y25697025D01*
X65851433Y25526968D01*
X65851434Y25526961D01*
X65852113Y25520506D01*
X65908968Y25345525D01*
X65912215Y25339901D01*
X65912216Y25339899D01*
X65996232Y25194378D01*
X66000961Y25186188D01*
X66005305Y25181363D01*
X66005307Y25181361D01*
X66055116Y25126043D01*
X66124072Y25049460D01*
X66129322Y25045646D01*
X66129325Y25045643D01*
X66197449Y24996148D01*
X66272920Y24941315D01*
X66278853Y24938674D01*
X66278854Y24938673D01*
X66428565Y24872017D01*
X66441000Y24866481D01*
X66447358Y24865130D01*
X66447360Y24865129D01*
X66459296Y24862592D01*
X66620966Y24828228D01*
X66798449Y24828228D01*
X66804952Y24828228D01*
X66984918Y24866481D01*
X67152998Y24941315D01*
X67301846Y25049460D01*
X67424957Y25186188D01*
X67516950Y25345525D01*
X67573805Y25520506D01*
X67590935Y25683485D01*
X80862881Y25683485D01*
X80863560Y25677025D01*
X80881433Y25506968D01*
X80881434Y25506961D01*
X80882113Y25500506D01*
X80884120Y25494327D01*
X80884121Y25494326D01*
X80934297Y25339899D01*
X80938968Y25325525D01*
X80942215Y25319901D01*
X80942216Y25319899D01*
X81018276Y25188158D01*
X81030961Y25166188D01*
X81035305Y25161363D01*
X81035307Y25161361D01*
X81060025Y25133909D01*
X81154072Y25029460D01*
X81159322Y25025646D01*
X81159325Y25025643D01*
X81277779Y24939581D01*
X81302920Y24921315D01*
X81308853Y24918674D01*
X81308854Y24918673D01*
X81458565Y24852017D01*
X81471000Y24846481D01*
X81477358Y24845130D01*
X81477360Y24845129D01*
X81513612Y24837424D01*
X81650966Y24808228D01*
X81828449Y24808228D01*
X81834952Y24808228D01*
X82014918Y24846481D01*
X82182998Y24921315D01*
X82331846Y25029460D01*
X82454957Y25166188D01*
X82546950Y25325525D01*
X82603805Y25500506D01*
X82623037Y25683485D01*
X82603805Y25866464D01*
X82546950Y26041445D01*
X82454957Y26200782D01*
X82331846Y26337510D01*
X82326596Y26341325D01*
X82326592Y26341328D01*
X82188252Y26441838D01*
X82188250Y26441840D01*
X82182998Y26445655D01*
X82177067Y26448296D01*
X82177063Y26448298D01*
X82020856Y26517846D01*
X82020849Y26517849D01*
X82014918Y26520489D01*
X82008565Y26521840D01*
X82008557Y26521842D01*
X81841314Y26557390D01*
X81841311Y26557391D01*
X81834952Y26558742D01*
X81650966Y26558742D01*
X81644607Y26557391D01*
X81644603Y26557390D01*
X81477360Y26521842D01*
X81477349Y26521839D01*
X81471000Y26520489D01*
X81465071Y26517850D01*
X81465061Y26517846D01*
X81308854Y26448298D01*
X81308846Y26448294D01*
X81302920Y26445655D01*
X81297671Y26441842D01*
X81297665Y26441838D01*
X81159325Y26341328D01*
X81159316Y26341321D01*
X81154072Y26337510D01*
X81149728Y26332687D01*
X81149725Y26332683D01*
X81035307Y26205610D01*
X81035302Y26205604D01*
X81030961Y26200782D01*
X81027716Y26195162D01*
X81027712Y26195156D01*
X80942216Y26047072D01*
X80942213Y26047067D01*
X80938968Y26041445D01*
X80936962Y26035273D01*
X80936960Y26035267D01*
X80888611Y25886464D01*
X80882113Y25866464D01*
X80881434Y25860012D01*
X80881433Y25860003D01*
X80865662Y25709945D01*
X80862881Y25683485D01*
X67590935Y25683485D01*
X67593037Y25703485D01*
X67573805Y25886464D01*
X67516950Y26061445D01*
X67424957Y26220782D01*
X67301846Y26357510D01*
X67296596Y26361325D01*
X67296592Y26361328D01*
X67158252Y26461838D01*
X67158250Y26461840D01*
X67152998Y26465655D01*
X67147067Y26468296D01*
X67147063Y26468298D01*
X66990856Y26537846D01*
X66990849Y26537849D01*
X66984918Y26540489D01*
X66978565Y26541840D01*
X66978557Y26541842D01*
X66811314Y26577390D01*
X66811311Y26577391D01*
X66804952Y26578742D01*
X66620966Y26578742D01*
X66614607Y26577391D01*
X66614603Y26577390D01*
X66447360Y26541842D01*
X66447349Y26541839D01*
X66441000Y26540489D01*
X66435071Y26537850D01*
X66435061Y26537846D01*
X66278854Y26468298D01*
X66278846Y26468294D01*
X66272920Y26465655D01*
X66267671Y26461842D01*
X66267665Y26461838D01*
X66129325Y26361328D01*
X66129316Y26361321D01*
X66124072Y26357510D01*
X66119728Y26352687D01*
X66119725Y26352683D01*
X66005307Y26225610D01*
X66005302Y26225604D01*
X66000961Y26220782D01*
X65997716Y26215162D01*
X65997712Y26215156D01*
X65912216Y26067072D01*
X65912213Y26067067D01*
X65908968Y26061445D01*
X65906962Y26055273D01*
X65906960Y26055267D01*
X65854121Y25892645D01*
X65852113Y25886464D01*
X65851434Y25880012D01*
X65851433Y25880003D01*
X65833978Y25713926D01*
X65832881Y25703485D01*
X60600500Y25703485D01*
X60600500Y33008315D01*
X66183703Y33008315D01*
X66183809Y33005752D01*
X66202909Y32543939D01*
X66202910Y32543920D01*
X66203016Y32541372D01*
X66260823Y32077618D01*
X66356729Y31620222D01*
X66357455Y31617781D01*
X66357458Y31617772D01*
X66489345Y31174768D01*
X66489349Y31174755D01*
X66490078Y31172308D01*
X66659961Y30736936D01*
X66661082Y30734643D01*
X66661089Y30734627D01*
X66834701Y30379500D01*
X66865216Y30317080D01*
X66866515Y30314900D01*
X66866521Y30314889D01*
X67103137Y29917797D01*
X67103144Y29917786D01*
X67104442Y29915608D01*
X67376004Y29535262D01*
X67678047Y29178640D01*
X68008508Y28848179D01*
X68365130Y28546136D01*
X68745476Y28274574D01*
X69146948Y28035348D01*
X69384529Y27919202D01*
X69564494Y27831222D01*
X69564499Y27831220D01*
X69566804Y27830093D01*
X70002176Y27660210D01*
X70450090Y27526861D01*
X70907486Y27430955D01*
X71371240Y27373148D01*
X71838183Y27353835D01*
X72305126Y27373148D01*
X72768880Y27430955D01*
X73226276Y27526861D01*
X73674190Y27660210D01*
X74109562Y27830093D01*
X74529418Y28035348D01*
X74930890Y28274574D01*
X75311236Y28546136D01*
X75667858Y28848179D01*
X75998319Y29178640D01*
X76300362Y29535262D01*
X76571924Y29915608D01*
X76811150Y30317080D01*
X77016405Y30736936D01*
X77186288Y31172308D01*
X77319637Y31620222D01*
X77415543Y32077618D01*
X77473350Y32541372D01*
X77492663Y33008315D01*
X77473350Y33475258D01*
X77415543Y33939012D01*
X77319637Y34396408D01*
X77186288Y34844322D01*
X77016405Y35279694D01*
X76811150Y35699550D01*
X76809844Y35701742D01*
X76573228Y36098834D01*
X76573225Y36098839D01*
X76571924Y36101022D01*
X76300362Y36481368D01*
X75998319Y36837990D01*
X75667858Y37168451D01*
X75638457Y37193352D01*
X75429309Y37370491D01*
X75311236Y37470494D01*
X75033951Y37668472D01*
X74932966Y37740574D01*
X74932962Y37740577D01*
X74930890Y37742056D01*
X74928712Y37743354D01*
X74928701Y37743361D01*
X74531609Y37979977D01*
X74531598Y37979983D01*
X74529418Y37981282D01*
X74527115Y37982408D01*
X74111871Y38185409D01*
X74111855Y38185416D01*
X74109562Y38186537D01*
X74009903Y38225424D01*
X73676584Y38355486D01*
X73676580Y38355488D01*
X73674190Y38356420D01*
X73671743Y38357149D01*
X73671730Y38357153D01*
X73228726Y38489040D01*
X73228717Y38489043D01*
X73226276Y38489769D01*
X73223782Y38490292D01*
X73223774Y38490294D01*
X72771393Y38585148D01*
X72771394Y38585148D01*
X72768880Y38585675D01*
X72766341Y38585992D01*
X72766332Y38585993D01*
X72307670Y38643165D01*
X72307667Y38643166D01*
X72305126Y38643482D01*
X72302578Y38643588D01*
X72302559Y38643589D01*
X71840746Y38662689D01*
X71838183Y38662795D01*
X71835620Y38662689D01*
X71373806Y38643589D01*
X71373785Y38643588D01*
X71371240Y38643482D01*
X71368700Y38643166D01*
X71368695Y38643165D01*
X70910033Y38585993D01*
X70910020Y38585991D01*
X70907486Y38585675D01*
X70904975Y38585149D01*
X70904972Y38585148D01*
X70452591Y38490294D01*
X70452577Y38490291D01*
X70450090Y38489769D01*
X70447654Y38489044D01*
X70447639Y38489040D01*
X70004635Y38357153D01*
X70004614Y38357147D01*
X70002176Y38356420D01*
X69999792Y38355490D01*
X69999781Y38355486D01*
X69569194Y38187470D01*
X69569185Y38187467D01*
X69566804Y38186537D01*
X69564519Y38185421D01*
X69564494Y38185409D01*
X69149250Y37982408D01*
X69149238Y37982402D01*
X69146948Y37981282D01*
X69144776Y37979989D01*
X69144756Y37979977D01*
X68747664Y37743361D01*
X68747642Y37743348D01*
X68745476Y37742056D01*
X68743414Y37740585D01*
X68743399Y37740574D01*
X68367219Y37471986D01*
X68367211Y37471981D01*
X68365130Y37470494D01*
X68363172Y37468836D01*
X68363166Y37468831D01*
X68010475Y37170118D01*
X68010460Y37170106D01*
X68008508Y37168451D01*
X68006697Y37166641D01*
X68006685Y37166629D01*
X67679869Y36839813D01*
X67679857Y36839801D01*
X67678047Y36837990D01*
X67676392Y36836038D01*
X67676380Y36836023D01*
X67377667Y36483332D01*
X67376004Y36481368D01*
X67374517Y36479287D01*
X67374512Y36479279D01*
X67105924Y36103099D01*
X67105913Y36103084D01*
X67104442Y36101022D01*
X67103150Y36098856D01*
X67103137Y36098834D01*
X66866521Y35701742D01*
X66866509Y35701722D01*
X66865216Y35699550D01*
X66864096Y35697260D01*
X66864090Y35697248D01*
X66661089Y35282004D01*
X66661077Y35281979D01*
X66659961Y35279694D01*
X66659031Y35277313D01*
X66659028Y35277304D01*
X66491012Y34846717D01*
X66491008Y34846706D01*
X66490078Y34844322D01*
X66489351Y34841884D01*
X66489345Y34841863D01*
X66357458Y34398859D01*
X66357454Y34398844D01*
X66356729Y34396408D01*
X66356207Y34393921D01*
X66356204Y34393907D01*
X66290990Y34082887D01*
X66260823Y33939012D01*
X66260507Y33936478D01*
X66260505Y33936465D01*
X66203333Y33477803D01*
X66203016Y33475258D01*
X66202910Y33472713D01*
X66202909Y33472692D01*
X66183809Y33010878D01*
X66183703Y33008315D01*
X60600500Y33008315D01*
X60600500Y40473485D01*
X65842881Y40473485D01*
X65843560Y40467025D01*
X65861433Y40296968D01*
X65861434Y40296961D01*
X65862113Y40290506D01*
X65864120Y40284327D01*
X65864121Y40284326D01*
X65914297Y40129899D01*
X65918968Y40115525D01*
X65922215Y40109901D01*
X65922216Y40109899D01*
X65976921Y40015146D01*
X66010961Y39956188D01*
X66015305Y39951363D01*
X66015307Y39951361D01*
X66051541Y39911119D01*
X66134072Y39819460D01*
X66139322Y39815646D01*
X66139325Y39815643D01*
X66259029Y39728673D01*
X66282920Y39711315D01*
X66288853Y39708674D01*
X66288854Y39708673D01*
X66438565Y39642017D01*
X66451000Y39636481D01*
X66457358Y39635130D01*
X66457360Y39635129D01*
X66483358Y39629603D01*
X66630966Y39598228D01*
X66808449Y39598228D01*
X66814952Y39598228D01*
X66994918Y39636481D01*
X67162998Y39711315D01*
X67311846Y39819460D01*
X67434957Y39956188D01*
X67526950Y40115525D01*
X67583805Y40290506D01*
X67598833Y40433485D01*
X80822881Y40433485D01*
X80823560Y40427025D01*
X80841433Y40256968D01*
X80841434Y40256961D01*
X80842113Y40250506D01*
X80844120Y40244327D01*
X80844121Y40244326D01*
X80875677Y40147205D01*
X80898968Y40075525D01*
X80902215Y40069901D01*
X80902216Y40069899D01*
X80982340Y39931119D01*
X80990961Y39916188D01*
X80995305Y39911363D01*
X80995307Y39911361D01*
X81063484Y39835643D01*
X81114072Y39779460D01*
X81119322Y39775646D01*
X81119325Y39775643D01*
X81224677Y39699100D01*
X81262920Y39671315D01*
X81268853Y39668674D01*
X81268854Y39668673D01*
X81418565Y39602017D01*
X81431000Y39596481D01*
X81437358Y39595130D01*
X81437360Y39595129D01*
X81473612Y39587424D01*
X81610966Y39558228D01*
X81788449Y39558228D01*
X81794952Y39558228D01*
X81974918Y39596481D01*
X82142998Y39671315D01*
X82291846Y39779460D01*
X82414957Y39916188D01*
X82506950Y40075525D01*
X82563805Y40250506D01*
X82583037Y40433485D01*
X82563805Y40616464D01*
X82506950Y40791445D01*
X82414957Y40950782D01*
X82291846Y41087510D01*
X82286596Y41091325D01*
X82286592Y41091328D01*
X82148252Y41191838D01*
X82148250Y41191840D01*
X82142998Y41195655D01*
X82137067Y41198296D01*
X82137063Y41198298D01*
X81980856Y41267846D01*
X81980849Y41267849D01*
X81974918Y41270489D01*
X81968565Y41271840D01*
X81968557Y41271842D01*
X81801314Y41307390D01*
X81801311Y41307391D01*
X81794952Y41308742D01*
X81610966Y41308742D01*
X81604607Y41307391D01*
X81604603Y41307390D01*
X81437360Y41271842D01*
X81437349Y41271839D01*
X81431000Y41270489D01*
X81425071Y41267850D01*
X81425061Y41267846D01*
X81268854Y41198298D01*
X81268846Y41198294D01*
X81262920Y41195655D01*
X81257671Y41191842D01*
X81257665Y41191838D01*
X81119325Y41091328D01*
X81119316Y41091321D01*
X81114072Y41087510D01*
X81109728Y41082687D01*
X81109725Y41082683D01*
X80995307Y40955610D01*
X80995302Y40955604D01*
X80990961Y40950782D01*
X80987716Y40945162D01*
X80987712Y40945156D01*
X80902216Y40797072D01*
X80902213Y40797067D01*
X80898968Y40791445D01*
X80896962Y40785273D01*
X80896960Y40785267D01*
X80844121Y40622645D01*
X80842113Y40616464D01*
X80841434Y40610012D01*
X80841433Y40610003D01*
X80832988Y40529646D01*
X80822881Y40433485D01*
X67598833Y40433485D01*
X67603037Y40473485D01*
X67583805Y40656464D01*
X67526950Y40831445D01*
X67434957Y40990782D01*
X67311846Y41127510D01*
X67306596Y41131325D01*
X67306592Y41131328D01*
X67168252Y41231838D01*
X67168250Y41231840D01*
X67162998Y41235655D01*
X67157067Y41238296D01*
X67157063Y41238298D01*
X67000856Y41307846D01*
X67000849Y41307849D01*
X66994918Y41310489D01*
X66988565Y41311840D01*
X66988557Y41311842D01*
X66821314Y41347390D01*
X66821311Y41347391D01*
X66814952Y41348742D01*
X66630966Y41348742D01*
X66624607Y41347391D01*
X66624603Y41347390D01*
X66457360Y41311842D01*
X66457349Y41311839D01*
X66451000Y41310489D01*
X66445071Y41307850D01*
X66445061Y41307846D01*
X66288854Y41238298D01*
X66288846Y41238294D01*
X66282920Y41235655D01*
X66277671Y41231842D01*
X66277665Y41231838D01*
X66139325Y41131328D01*
X66139316Y41131321D01*
X66134072Y41127510D01*
X66129728Y41122687D01*
X66129725Y41122683D01*
X66015307Y40995610D01*
X66015302Y40995604D01*
X66010961Y40990782D01*
X66007716Y40985162D01*
X66007712Y40985156D01*
X65922216Y40837072D01*
X65922213Y40837067D01*
X65918968Y40831445D01*
X65916962Y40825273D01*
X65916960Y40825267D01*
X65866512Y40670003D01*
X65862113Y40656464D01*
X65861434Y40650012D01*
X65861433Y40650003D01*
X65848784Y40529646D01*
X65842881Y40473485D01*
X60600500Y40473485D01*
X60600500Y44950000D01*
X69304554Y44950000D01*
X69324305Y44699044D01*
X69325440Y44694315D01*
X69325441Y44694311D01*
X69381932Y44459004D01*
X69381934Y44458996D01*
X69383070Y44454267D01*
X69479404Y44221697D01*
X69481951Y44217540D01*
X69481952Y44217539D01*
X69583103Y44052475D01*
X69610934Y44007060D01*
X69614098Y44003355D01*
X69614102Y44003350D01*
X69706366Y43895323D01*
X69774421Y43815641D01*
X69778128Y43812475D01*
X69962129Y43655323D01*
X69962132Y43655321D01*
X69965840Y43652154D01*
X70180477Y43520624D01*
X70413047Y43424290D01*
X70657824Y43365525D01*
X70908780Y43345774D01*
X71159736Y43365525D01*
X71404513Y43424290D01*
X71637083Y43520624D01*
X71851720Y43652154D01*
X72043139Y43815641D01*
X72206626Y44007060D01*
X72338156Y44221697D01*
X72434490Y44454267D01*
X72493255Y44699044D01*
X72513006Y44950000D01*
X72493255Y45200956D01*
X72434490Y45445733D01*
X72338156Y45678303D01*
X72206626Y45892940D01*
X72200907Y45899636D01*
X72066469Y46057043D01*
X72043139Y46084359D01*
X72008341Y46114079D01*
X71855430Y46244678D01*
X71855425Y46244682D01*
X71851720Y46247846D01*
X71847564Y46250393D01*
X71847561Y46250395D01*
X71641241Y46376828D01*
X71641240Y46376829D01*
X71637083Y46379376D01*
X71404513Y46475710D01*
X71399784Y46476846D01*
X71399776Y46476848D01*
X71164469Y46533339D01*
X71164465Y46533340D01*
X71159736Y46534475D01*
X71154883Y46534857D01*
X70913634Y46553844D01*
X70908780Y46554226D01*
X70903926Y46553844D01*
X70662676Y46534857D01*
X70662674Y46534857D01*
X70657824Y46534475D01*
X70653096Y46533341D01*
X70653090Y46533339D01*
X70417783Y46476848D01*
X70417771Y46476845D01*
X70413047Y46475710D01*
X70408550Y46473848D01*
X70408546Y46473846D01*
X70184981Y46381242D01*
X70184977Y46381240D01*
X70180477Y46379376D01*
X70176324Y46376832D01*
X70176318Y46376828D01*
X69969998Y46250395D01*
X69969989Y46250389D01*
X69965840Y46247846D01*
X69962140Y46244687D01*
X69962129Y46244678D01*
X69778128Y46087526D01*
X69778121Y46087520D01*
X69774421Y46084359D01*
X69771260Y46080659D01*
X69771254Y46080652D01*
X69614102Y45896651D01*
X69614093Y45896640D01*
X69610934Y45892940D01*
X69608391Y45888791D01*
X69608385Y45888782D01*
X69481952Y45682462D01*
X69481948Y45682456D01*
X69479404Y45678303D01*
X69477540Y45673803D01*
X69477538Y45673799D01*
X69411337Y45513975D01*
X69383070Y45445733D01*
X69381935Y45441009D01*
X69381932Y45440997D01*
X69325441Y45205690D01*
X69325439Y45205684D01*
X69324305Y45200956D01*
X69304554Y44950000D01*
X60600500Y44950000D01*
X60600500Y49245505D01*
X65577732Y49245505D01*
X65578156Y49240388D01*
X65597842Y49002804D01*
X65597843Y49002796D01*
X65598267Y48997684D01*
X65599524Y48992717D01*
X65599526Y48992710D01*
X65657911Y48762157D01*
X65659312Y48756624D01*
X65661372Y48751928D01*
X65757141Y48533595D01*
X65757144Y48533589D01*
X65759202Y48528898D01*
X65762002Y48524612D01*
X65762006Y48524605D01*
X65861038Y48373026D01*
X65895211Y48320720D01*
X65898685Y48316946D01*
X65898686Y48316945D01*
X66060159Y48141538D01*
X66060162Y48141535D01*
X66063631Y48137767D01*
X66259866Y47985031D01*
X66322722Y47951015D01*
X66466790Y47873049D01*
X66478565Y47866677D01*
X66713761Y47785934D01*
X66959040Y47745005D01*
X67202576Y47745005D01*
X67207710Y47745005D01*
X67452989Y47785934D01*
X67688185Y47866677D01*
X67906884Y47985031D01*
X68103119Y48137767D01*
X68271539Y48320720D01*
X68407548Y48528898D01*
X68507438Y48756624D01*
X68568483Y48997684D01*
X68589018Y49245505D01*
X68568483Y49493326D01*
X68507438Y49734386D01*
X68423369Y49926043D01*
X68409608Y49957416D01*
X68409607Y49957418D01*
X68407548Y49962112D01*
X68404447Y49966858D01*
X68274346Y50165993D01*
X68271539Y50170290D01*
X68103119Y50353243D01*
X67941768Y50478828D01*
X67910934Y50502827D01*
X67910932Y50502829D01*
X67906884Y50505979D01*
X67902372Y50508421D01*
X67692691Y50621895D01*
X67692685Y50621898D01*
X67688185Y50624333D01*
X67683344Y50625995D01*
X67683337Y50625998D01*
X67457840Y50703411D01*
X67457836Y50703412D01*
X67452989Y50705076D01*
X67444143Y50706553D01*
X67212773Y50745161D01*
X67212762Y50745162D01*
X67207710Y50746005D01*
X66959040Y50746005D01*
X66953988Y50745162D01*
X66953976Y50745161D01*
X66718818Y50705920D01*
X66718816Y50705920D01*
X66713761Y50705076D01*
X66708916Y50703413D01*
X66708909Y50703411D01*
X66483412Y50625998D01*
X66483401Y50625994D01*
X66478565Y50624333D01*
X66474068Y50621900D01*
X66474058Y50621895D01*
X66264377Y50508421D01*
X66264370Y50508417D01*
X66259866Y50505979D01*
X66255823Y50502833D01*
X66255815Y50502827D01*
X66067679Y50356394D01*
X66063631Y50353243D01*
X66060168Y50349482D01*
X66060159Y50349473D01*
X65898686Y50174066D01*
X65898680Y50174059D01*
X65895211Y50170290D01*
X65892406Y50165999D01*
X65892403Y50165993D01*
X65762006Y49966406D01*
X65761999Y49966394D01*
X65759202Y49962112D01*
X65757147Y49957428D01*
X65757141Y49957416D01*
X65677108Y49774957D01*
X65659312Y49734386D01*
X65658054Y49729421D01*
X65658053Y49729416D01*
X65599526Y49498301D01*
X65599524Y49498292D01*
X65598267Y49493326D01*
X65597843Y49488217D01*
X65597842Y49488207D01*
X65584254Y49324217D01*
X65577732Y49245505D01*
X60600500Y49245505D01*
X60600500Y52672276D01*
X66277565Y52672276D01*
X66285671Y52661085D01*
X66314533Y52638621D01*
X66323095Y52633028D01*
X66532701Y52519595D01*
X66542055Y52515492D01*
X66767472Y52438107D01*
X66777384Y52435596D01*
X67012459Y52396369D01*
X67022655Y52395524D01*
X67260977Y52395524D01*
X67271172Y52396369D01*
X67506247Y52435596D01*
X67516159Y52438107D01*
X67741576Y52515492D01*
X67750930Y52519595D01*
X67960539Y52633029D01*
X67969097Y52638621D01*
X67997962Y52661087D01*
X68006066Y52672274D01*
X67999405Y52684382D01*
X67153358Y53530429D01*
X67141816Y53537093D01*
X67130273Y53530429D01*
X66284224Y52684381D01*
X66277565Y52672276D01*
X60600500Y52672276D01*
X60600500Y53890407D01*
X65637099Y53890407D01*
X65656778Y53652906D01*
X65658462Y53642812D01*
X65716969Y53411777D01*
X65720288Y53402110D01*
X65816024Y53183851D01*
X65820886Y53174868D01*
X65910815Y53037220D01*
X65918779Y53029500D01*
X65928161Y53035424D01*
X66776720Y53883982D01*
X66783384Y53895524D01*
X67500247Y53895524D01*
X67506911Y53883982D01*
X68355469Y53035424D01*
X68364850Y53029500D01*
X68372818Y53037225D01*
X68462740Y53174860D01*
X68467608Y53183855D01*
X68563343Y53402110D01*
X68566662Y53411777D01*
X68625169Y53642812D01*
X68626853Y53652906D01*
X68646533Y53890407D01*
X68646533Y53900641D01*
X68626853Y54138143D01*
X68625169Y54148237D01*
X68566662Y54379272D01*
X68563343Y54388939D01*
X68467608Y54607194D01*
X68462740Y54616189D01*
X68372818Y54753825D01*
X68364850Y54761550D01*
X68355469Y54755626D01*
X67506911Y53907067D01*
X67500247Y53895524D01*
X66783384Y53895524D01*
X66776720Y53907067D01*
X65928161Y54755626D01*
X65918780Y54761550D01*
X65910813Y54753825D01*
X65820888Y54616186D01*
X65816023Y54607196D01*
X65720288Y54388939D01*
X65716969Y54379272D01*
X65658462Y54148237D01*
X65656778Y54138143D01*
X65637099Y53900641D01*
X65637099Y53890407D01*
X60600500Y53890407D01*
X60600500Y55118775D01*
X66277564Y55118775D01*
X66284224Y55106669D01*
X67130273Y54260620D01*
X67141816Y54253956D01*
X67153358Y54260620D01*
X67999406Y55106669D01*
X68006066Y55118775D01*
X67997959Y55129965D01*
X67969102Y55152425D01*
X67960535Y55158021D01*
X67750930Y55271454D01*
X67741576Y55275557D01*
X67670375Y55300000D01*
X85294659Y55300000D01*
X85296100Y55285363D01*
X85296537Y55266947D01*
X85295949Y55255349D01*
X85295949Y55255344D01*
X85295631Y55249064D01*
X85296582Y55242852D01*
X85296583Y55242845D01*
X85306450Y55178436D01*
X85307283Y55171816D01*
X85311406Y55129964D01*
X85313976Y55103868D01*
X85315744Y55098038D01*
X85319282Y55086377D01*
X85323189Y55069166D01*
X85325490Y55054147D01*
X85325493Y55054135D01*
X85326444Y55047929D01*
X85349950Y54984460D01*
X85350022Y54984267D01*
X85352400Y54977202D01*
X85371186Y54915273D01*
X85374055Y54909905D01*
X85374057Y54909901D01*
X85381487Y54896001D01*
X85388409Y54880618D01*
X85397114Y54857113D01*
X85400440Y54851776D01*
X85400441Y54851775D01*
X85431147Y54802511D01*
X85435271Y54795376D01*
X85461216Y54746837D01*
X85461220Y54746830D01*
X85464090Y54741462D01*
X85467954Y54736754D01*
X85480221Y54721806D01*
X85489599Y54708733D01*
X85501419Y54689769D01*
X85501421Y54689766D01*
X85504748Y54684429D01*
X85546639Y54640360D01*
X85552605Y54633607D01*
X85573357Y54608320D01*
X85589117Y54589117D01*
X85611540Y54570715D01*
X85622730Y54560312D01*
X85644941Y54536947D01*
X85650097Y54533358D01*
X85650101Y54533355D01*
X85691893Y54504267D01*
X85699719Y54498347D01*
X85736331Y54468301D01*
X85741462Y54464090D01*
X85770201Y54448729D01*
X85782577Y54441150D01*
X85811951Y54420705D01*
X85817727Y54418227D01*
X85817733Y54418223D01*
X85861248Y54399549D01*
X85870789Y54394964D01*
X85915273Y54371186D01*
X85949877Y54360690D01*
X85962773Y54355982D01*
X85998942Y54340460D01*
X86005103Y54339194D01*
X86005106Y54339193D01*
X86021093Y54335908D01*
X86047994Y54330380D01*
X86059013Y54327583D01*
X86103868Y54313976D01*
X86143405Y54310083D01*
X86156207Y54308142D01*
X86192095Y54300766D01*
X86192102Y54300766D01*
X86198259Y54299500D01*
X86244756Y54299500D01*
X86256909Y54298904D01*
X86300000Y54294659D01*
X86343090Y54298904D01*
X86355244Y54299500D01*
X98644756Y54299500D01*
X98656909Y54298904D01*
X98700000Y54294659D01*
X98747899Y54299377D01*
X98749558Y54299500D01*
X98750742Y54299500D01*
X98799663Y54304475D01*
X98896132Y54313976D01*
X98897663Y54314441D01*
X98902438Y54314926D01*
X98994607Y54343846D01*
X98995474Y54344113D01*
X99084727Y54371186D01*
X99087834Y54372849D01*
X99088884Y54373229D01*
X99090578Y54373957D01*
X99096588Y54375841D01*
X99177893Y54420970D01*
X99179380Y54421780D01*
X99258538Y54464090D01*
X99263027Y54467776D01*
X99267617Y54470575D01*
X99268999Y54471538D01*
X99274502Y54474591D01*
X99342285Y54532783D01*
X99344358Y54534522D01*
X99406165Y54585245D01*
X99406165Y54585246D01*
X99410883Y54589117D01*
X99414752Y54593833D01*
X99419056Y54598136D01*
X99419369Y54597823D01*
X99419904Y54598370D01*
X99419789Y54598480D01*
X99424114Y54603031D01*
X99428895Y54607134D01*
X99481383Y54674944D01*
X99483559Y54677673D01*
X99532043Y54736750D01*
X99532046Y54736754D01*
X99535910Y54741462D01*
X99538783Y54746837D01*
X99542168Y54751903D01*
X99542246Y54751851D01*
X99549080Y54762400D01*
X99553448Y54768042D01*
X99589648Y54841845D01*
X99591581Y54845619D01*
X99628814Y54915273D01*
X99630996Y54922470D01*
X99638332Y54941093D01*
X99643060Y54950729D01*
X99662767Y55026844D01*
X99664145Y55031745D01*
X99667267Y55042037D01*
X99686024Y55103868D01*
X99687112Y55114927D01*
X99690475Y55133860D01*
X99694063Y55147715D01*
X99697864Y55222682D01*
X99698296Y55228480D01*
X99705341Y55300000D01*
X99703899Y55314632D01*
X99703462Y55333059D01*
X99704369Y55350936D01*
X99693545Y55421588D01*
X99692714Y55428199D01*
X99687114Y55485058D01*
X99686024Y55496132D01*
X99680714Y55513636D01*
X99676809Y55530833D01*
X99673556Y55552071D01*
X99649963Y55615771D01*
X99647593Y55622818D01*
X99630582Y55678899D01*
X99630581Y55678901D01*
X99628814Y55684727D01*
X99618512Y55704000D01*
X99611588Y55719390D01*
X99605072Y55736985D01*
X99605070Y55736988D01*
X99602886Y55742887D01*
X99599556Y55748228D01*
X99598830Y55749710D01*
X99586158Y55804209D01*
X99598733Y55858730D01*
X99633992Y55902170D01*
X99749744Y55992262D01*
X99918164Y56175215D01*
X99921186Y56179842D01*
X99921331Y56179976D01*
X99924118Y56183555D01*
X99924715Y56183091D01*
X99965978Y56221080D01*
X100025000Y56236028D01*
X100084022Y56221080D01*
X100125284Y56183091D01*
X100125882Y56183555D01*
X100128668Y56179976D01*
X100128813Y56179842D01*
X100131836Y56175215D01*
X100135310Y56171441D01*
X100135311Y56171440D01*
X100296784Y55996033D01*
X100296787Y55996030D01*
X100300256Y55992262D01*
X100496491Y55839526D01*
X100715190Y55721172D01*
X100950386Y55640429D01*
X101195665Y55599500D01*
X101439201Y55599500D01*
X101444335Y55599500D01*
X101689614Y55640429D01*
X101924810Y55721172D01*
X102143509Y55839526D01*
X102217033Y55896752D01*
X103055749Y55896752D01*
X103063855Y55885561D01*
X103092717Y55863097D01*
X103101279Y55857504D01*
X103310885Y55744071D01*
X103320239Y55739968D01*
X103545656Y55662583D01*
X103555568Y55660072D01*
X103790643Y55620845D01*
X103800839Y55620000D01*
X104039161Y55620000D01*
X104049356Y55620845D01*
X104284431Y55660072D01*
X104294343Y55662583D01*
X104519760Y55739968D01*
X104529114Y55744071D01*
X104738723Y55857505D01*
X104747281Y55863097D01*
X104776146Y55885563D01*
X104784250Y55896750D01*
X104777589Y55908858D01*
X103931542Y56754905D01*
X103920000Y56761569D01*
X103908457Y56754905D01*
X103062408Y55908857D01*
X103055749Y55896752D01*
X102217033Y55896752D01*
X102339744Y55992262D01*
X102508164Y56175215D01*
X102531513Y56210955D01*
X102570203Y56248659D01*
X102621256Y56266334D01*
X102674978Y56260622D01*
X102696164Y56253471D01*
X102706345Y56259900D01*
X103554904Y57108458D01*
X103561568Y57120001D01*
X103554904Y57131543D01*
X102706345Y57980102D01*
X102696164Y57986531D01*
X102689627Y57984325D01*
X102658585Y57965310D01*
X102604726Y57959410D01*
X102553493Y57977039D01*
X102514669Y58014828D01*
X102508164Y58024785D01*
X102339744Y58207738D01*
X102165637Y58343251D01*
X103055748Y58343251D01*
X103062408Y58331145D01*
X103908457Y57485096D01*
X103920000Y57478432D01*
X103931542Y57485096D01*
X104777590Y58331145D01*
X104784250Y58343251D01*
X104776143Y58354441D01*
X104747286Y58376901D01*
X104738719Y58382497D01*
X104529114Y58495930D01*
X104519760Y58500033D01*
X104294343Y58577418D01*
X104284431Y58579929D01*
X104049356Y58619156D01*
X104039161Y58620000D01*
X103800839Y58620000D01*
X103790643Y58619156D01*
X103555568Y58579929D01*
X103545656Y58577418D01*
X103320239Y58500033D01*
X103310885Y58495930D01*
X103101276Y58382496D01*
X103092717Y58376904D01*
X103063854Y58354440D01*
X103055748Y58343251D01*
X102165637Y58343251D01*
X102147559Y58357322D01*
X102147557Y58357324D01*
X102143509Y58360474D01*
X102113155Y58376901D01*
X101929316Y58476390D01*
X101929310Y58476393D01*
X101924810Y58478828D01*
X101919969Y58480490D01*
X101919962Y58480493D01*
X101694465Y58557906D01*
X101694461Y58557907D01*
X101689614Y58559571D01*
X101680768Y58561048D01*
X101449398Y58599656D01*
X101449387Y58599657D01*
X101444335Y58600500D01*
X101195665Y58600500D01*
X101190613Y58599657D01*
X101190601Y58599656D01*
X100955443Y58560415D01*
X100955441Y58560415D01*
X100950386Y58559571D01*
X100945541Y58557908D01*
X100945534Y58557906D01*
X100720037Y58480493D01*
X100720026Y58480489D01*
X100715190Y58478828D01*
X100710693Y58476395D01*
X100710683Y58476390D01*
X100501002Y58362916D01*
X100500995Y58362912D01*
X100496491Y58360474D01*
X100492448Y58357328D01*
X100492440Y58357322D01*
X100321108Y58223968D01*
X100300256Y58207738D01*
X100296793Y58203977D01*
X100296784Y58203968D01*
X100135311Y58028561D01*
X100135305Y58028554D01*
X100131836Y58024785D01*
X100129034Y58020498D01*
X100129029Y58020490D01*
X100128808Y58020150D01*
X100128658Y58020013D01*
X100125882Y58016445D01*
X100125286Y58016909D01*
X100084017Y57978918D01*
X100025000Y57963973D01*
X99965983Y57978918D01*
X99924713Y58016909D01*
X99924118Y58016445D01*
X99921341Y58020013D01*
X99921192Y58020150D01*
X99920970Y58020490D01*
X99918164Y58024785D01*
X99749744Y58207738D01*
X99575637Y58343251D01*
X99557559Y58357322D01*
X99557557Y58357324D01*
X99553509Y58360474D01*
X99523155Y58376901D01*
X99339316Y58476390D01*
X99339310Y58476393D01*
X99334810Y58478828D01*
X99329969Y58480490D01*
X99329962Y58480493D01*
X99104465Y58557906D01*
X99104461Y58557907D01*
X99099614Y58559571D01*
X99090768Y58561048D01*
X98859398Y58599656D01*
X98859387Y58599657D01*
X98854335Y58600500D01*
X98605665Y58600500D01*
X98600613Y58599657D01*
X98600601Y58599656D01*
X98365443Y58560415D01*
X98365441Y58560415D01*
X98360386Y58559571D01*
X98355541Y58557908D01*
X98355534Y58557906D01*
X98130037Y58480493D01*
X98130026Y58480489D01*
X98125190Y58478828D01*
X98120693Y58476395D01*
X98120683Y58476390D01*
X97911002Y58362916D01*
X97910995Y58362912D01*
X97906491Y58360474D01*
X97902448Y58357328D01*
X97902440Y58357322D01*
X97731108Y58223968D01*
X97710256Y58207738D01*
X97706793Y58203977D01*
X97706784Y58203968D01*
X97545311Y58028561D01*
X97545305Y58028554D01*
X97541836Y58024785D01*
X97539031Y58020494D01*
X97539028Y58020488D01*
X97408631Y57820901D01*
X97408624Y57820889D01*
X97405827Y57816607D01*
X97403772Y57811923D01*
X97403766Y57811911D01*
X97307997Y57593578D01*
X97305937Y57588881D01*
X97304679Y57583916D01*
X97304678Y57583911D01*
X97246151Y57352796D01*
X97246149Y57352787D01*
X97244892Y57347821D01*
X97244468Y57342712D01*
X97244467Y57342702D01*
X97226971Y57131543D01*
X97224357Y57100000D01*
X97224781Y57094883D01*
X97244467Y56857299D01*
X97244468Y56857291D01*
X97244892Y56852179D01*
X97246149Y56847212D01*
X97246151Y56847205D01*
X97269525Y56754905D01*
X97305937Y56611119D01*
X97307997Y56606423D01*
X97365947Y56474310D01*
X97375967Y56414260D01*
X97356200Y56356678D01*
X97311408Y56315445D01*
X97252391Y56300500D01*
X86355244Y56300500D01*
X86343090Y56301097D01*
X86300000Y56305341D01*
X86293938Y56304744D01*
X86293936Y56304744D01*
X86252129Y56300627D01*
X86250429Y56300500D01*
X86249258Y56300500D01*
X86246148Y56300184D01*
X86246131Y56300183D01*
X86200579Y56295552D01*
X86200195Y56295513D01*
X86107277Y56286360D01*
X86107272Y56286360D01*
X86103868Y56286024D01*
X86102336Y56285560D01*
X86097562Y56285074D01*
X86091559Y56283191D01*
X86091556Y56283190D01*
X86005558Y56256208D01*
X86004433Y56255861D01*
X85980692Y56248659D01*
X85915273Y56228814D01*
X85912160Y56227151D01*
X85911082Y56226759D01*
X85909407Y56226041D01*
X85903412Y56224159D01*
X85897919Y56221111D01*
X85897909Y56221106D01*
X85822183Y56179076D01*
X85820463Y56178139D01*
X85746834Y56138782D01*
X85746830Y56138780D01*
X85741462Y56135910D01*
X85736974Y56132229D01*
X85732373Y56129421D01*
X85730985Y56128456D01*
X85725498Y56125409D01*
X85720731Y56121318D01*
X85720727Y56121314D01*
X85657733Y56067236D01*
X85655631Y56065471D01*
X85589117Y56010883D01*
X85585258Y56006183D01*
X85580945Y56001869D01*
X85580650Y56002164D01*
X85580107Y56001609D01*
X85580205Y56001516D01*
X85575875Y55996962D01*
X85571105Y55992866D01*
X85567261Y55987901D01*
X85567258Y55987897D01*
X85518636Y55925083D01*
X85516435Y55922322D01*
X85467953Y55863246D01*
X85467949Y55863242D01*
X85464090Y55858538D01*
X85461219Y55853168D01*
X85457836Y55848104D01*
X85457759Y55848155D01*
X85450940Y55837628D01*
X85450401Y55836932D01*
X85450396Y55836926D01*
X85446552Y55831958D01*
X85443788Y55826325D01*
X85443784Y55826317D01*
X85410356Y55758168D01*
X85408386Y55754324D01*
X85374059Y55690104D01*
X85374057Y55690098D01*
X85371186Y55684727D01*
X85369419Y55678904D01*
X85369412Y55678886D01*
X85368994Y55677506D01*
X85361675Y55658928D01*
X85359712Y55654926D01*
X85359706Y55654913D01*
X85356940Y55649271D01*
X85355365Y55643189D01*
X85355363Y55643183D01*
X85337240Y55573189D01*
X85335860Y55568279D01*
X85315745Y55501966D01*
X85315743Y55501960D01*
X85313976Y55496132D01*
X85313379Y55490078D01*
X85313377Y55490065D01*
X85312884Y55485058D01*
X85309526Y55466155D01*
X85307512Y55458376D01*
X85307509Y55458359D01*
X85305937Y55452285D01*
X85305619Y55446022D01*
X85305618Y55446013D01*
X85302135Y55377347D01*
X85301697Y55371479D01*
X85296099Y55314623D01*
X85294659Y55300000D01*
X67670375Y55300000D01*
X67516159Y55352942D01*
X67506247Y55355453D01*
X67271172Y55394680D01*
X67260977Y55395524D01*
X67022655Y55395524D01*
X67012459Y55394680D01*
X66777384Y55355453D01*
X66767472Y55352942D01*
X66542055Y55275557D01*
X66532701Y55271454D01*
X66323092Y55158020D01*
X66314533Y55152428D01*
X66285670Y55129964D01*
X66277564Y55118775D01*
X60600500Y55118775D01*
X60600500Y60009583D01*
X60606239Y60046871D01*
X60622925Y60080707D01*
X60636243Y60099727D01*
X60687102Y60172361D01*
X60779575Y60370670D01*
X60836207Y60582023D01*
X60855277Y60800000D01*
X60836207Y61017977D01*
X60779575Y61229330D01*
X60687102Y61427638D01*
X60622925Y61519293D01*
X60606239Y61553129D01*
X60600500Y61590416D01*
X60600500Y61634217D01*
X60609939Y61681670D01*
X60636816Y61721896D01*
X60778103Y61863184D01*
X60818329Y61890061D01*
X60865782Y61899500D01*
X62031663Y61899500D01*
X62087958Y61885985D01*
X62131981Y61848385D01*
X62154136Y61794898D01*
X62149594Y61737182D01*
X62119344Y61687819D01*
X62042231Y61610707D01*
X62042225Y61610701D01*
X62038402Y61606877D01*
X62035299Y61602447D01*
X62035296Y61602442D01*
X61916006Y61432078D01*
X61916001Y61432071D01*
X61912898Y61427638D01*
X61910610Y61422732D01*
X61910608Y61422728D01*
X61822712Y61234237D01*
X61822707Y61234226D01*
X61820425Y61229330D01*
X61819025Y61224108D01*
X61819024Y61224103D01*
X61765194Y61023210D01*
X61765191Y61023198D01*
X61763793Y61017977D01*
X61763321Y61012588D01*
X61763320Y61012579D01*
X61745467Y60808513D01*
X61744723Y60800000D01*
X61745195Y60794605D01*
X61763320Y60587422D01*
X61763321Y60587415D01*
X61763793Y60582023D01*
X61765192Y60576801D01*
X61765194Y60576791D01*
X61814398Y60393162D01*
X61820425Y60370670D01*
X61822709Y60365771D01*
X61822712Y60365764D01*
X61910611Y60177264D01*
X61910614Y60177258D01*
X61912898Y60172361D01*
X61915997Y60167934D01*
X61915999Y60167932D01*
X62035296Y59997558D01*
X62035299Y59997554D01*
X62038402Y59993123D01*
X62193123Y59838402D01*
X62197555Y59835299D01*
X62197557Y59835297D01*
X62285017Y59774057D01*
X62372361Y59712898D01*
X62377261Y59710613D01*
X62377263Y59710612D01*
X62411474Y59694659D01*
X62570670Y59620425D01*
X62728522Y59578129D01*
X62776790Y59565195D01*
X62776791Y59565195D01*
X62782023Y59563793D01*
X63000000Y59544723D01*
X63217977Y59563793D01*
X63429330Y59620425D01*
X63627639Y59712898D01*
X63806877Y59838402D01*
X63961598Y59993123D01*
X64087102Y60172361D01*
X64179575Y60370670D01*
X64236207Y60582023D01*
X64255277Y60800000D01*
X64236207Y61017977D01*
X64179575Y61229330D01*
X64087102Y61427638D01*
X63961598Y61606877D01*
X63880656Y61687819D01*
X63850406Y61737182D01*
X63845864Y61794898D01*
X63868019Y61848385D01*
X63912042Y61885985D01*
X63968337Y61899500D01*
X92134217Y61899500D01*
X92181670Y61890061D01*
X92221898Y61863181D01*
X92763181Y61321898D01*
X92790061Y61281670D01*
X92799500Y61234217D01*
X92799500Y60755244D01*
X92798903Y60743091D01*
X92794659Y60700000D01*
X92795256Y60693939D01*
X92795256Y60693937D01*
X92799373Y60652131D01*
X92799500Y60650430D01*
X92799500Y60649258D01*
X92799816Y60646143D01*
X92799817Y60646138D01*
X92804434Y60600724D01*
X92804338Y60600715D01*
X92804474Y60600337D01*
X92813378Y60509932D01*
X92813976Y60503868D01*
X92814440Y60502337D01*
X92814926Y60497562D01*
X92816805Y60491571D01*
X92816806Y60491570D01*
X92843762Y60405655D01*
X92844108Y60404531D01*
X92869415Y60321106D01*
X92869420Y60321092D01*
X92871186Y60315273D01*
X92872845Y60312170D01*
X92873237Y60311090D01*
X92873961Y60309401D01*
X92875841Y60303412D01*
X92878886Y60297925D01*
X92878890Y60297917D01*
X92920911Y60222209D01*
X92921844Y60220496D01*
X92964090Y60141462D01*
X92967771Y60136977D01*
X92970582Y60132371D01*
X92971540Y60130994D01*
X92974591Y60125498D01*
X92978682Y60120733D01*
X93032778Y60057719D01*
X93034535Y60055624D01*
X93089117Y59989117D01*
X93093823Y59985255D01*
X93098133Y59980945D01*
X93097824Y59980637D01*
X93098377Y59980096D01*
X93098483Y59980206D01*
X93103039Y59975874D01*
X93107134Y59971105D01*
X93112099Y59967262D01*
X93112102Y59967259D01*
X93174941Y59918618D01*
X93177704Y59916415D01*
X93241462Y59864090D01*
X93246838Y59861217D01*
X93251902Y59857833D01*
X93251850Y59857756D01*
X93262383Y59850933D01*
X93268042Y59846552D01*
X93341026Y59810753D01*
X93341808Y59810369D01*
X93345654Y59808399D01*
X93415273Y59771186D01*
X93422470Y59769003D01*
X93441090Y59761668D01*
X93450729Y59756940D01*
X93477433Y59750026D01*
X93526819Y59737239D01*
X93531733Y59735858D01*
X93603868Y59713976D01*
X93614815Y59712898D01*
X93614927Y59712887D01*
X93633857Y59709526D01*
X93647715Y59705937D01*
X93722676Y59702136D01*
X93728481Y59701704D01*
X93800000Y59694659D01*
X93806061Y59695256D01*
X93806065Y59695256D01*
X93814621Y59696099D01*
X93833057Y59696538D01*
X93850936Y59695631D01*
X93921596Y59706457D01*
X93928180Y59707284D01*
X93996132Y59713976D01*
X94013629Y59719285D01*
X94030834Y59723191D01*
X94052071Y59726444D01*
X94115760Y59750033D01*
X94122778Y59752395D01*
X94184727Y59771186D01*
X94197669Y59778105D01*
X94204000Y59781488D01*
X94219386Y59788411D01*
X94242887Y59797114D01*
X94297494Y59831152D01*
X94304628Y59835275D01*
X94310478Y59838402D01*
X94358538Y59864090D01*
X94378197Y59880225D01*
X94391259Y59889596D01*
X94415571Y59904748D01*
X94459649Y59946650D01*
X94466394Y59952607D01*
X94484248Y59967259D01*
X94510883Y59989117D01*
X94529287Y60011543D01*
X94539698Y60022741D01*
X94563053Y60044941D01*
X94595747Y60091915D01*
X94601650Y60099718D01*
X94635910Y60141462D01*
X94651270Y60170202D01*
X94658847Y60182574D01*
X94679295Y60211951D01*
X94700456Y60261265D01*
X94705031Y60270780D01*
X94728814Y60315273D01*
X94739308Y60349871D01*
X94744011Y60362760D01*
X94759540Y60398942D01*
X94769621Y60448002D01*
X94772412Y60458999D01*
X94786024Y60503868D01*
X94789918Y60543414D01*
X94791855Y60556199D01*
X94800500Y60598259D01*
X94800500Y60644756D01*
X94801097Y60656910D01*
X94804744Y60693939D01*
X94805341Y60700000D01*
X94801096Y60743091D01*
X94800500Y60755244D01*
X94800500Y61685762D01*
X94800540Y61688903D01*
X94801763Y61737182D01*
X94802756Y61776363D01*
X94792349Y61834428D01*
X94791042Y61843747D01*
X94790570Y61848385D01*
X94785074Y61902438D01*
X94775966Y61931464D01*
X94772223Y61946716D01*
X94767967Y61970467D01*
X94767965Y61970471D01*
X94766858Y61976653D01*
X94746075Y62028683D01*
X94744976Y62031435D01*
X94741816Y62040311D01*
X94733039Y62068285D01*
X94724159Y62096588D01*
X94709396Y62123186D01*
X94702660Y62137369D01*
X94693708Y62159780D01*
X94691377Y62165617D01*
X94658917Y62214869D01*
X94654036Y62222927D01*
X94628463Y62269000D01*
X94628462Y62269001D01*
X94625409Y62274502D01*
X94605591Y62297587D01*
X94596140Y62310121D01*
X94579402Y62335519D01*
X94537691Y62377230D01*
X94531287Y62384140D01*
X94516653Y62401186D01*
X94492866Y62428895D01*
X94487896Y62432742D01*
X94487891Y62432747D01*
X94468805Y62447521D01*
X94457026Y62457895D01*
X93317566Y63597354D01*
X93315373Y63599603D01*
X93259390Y63658497D01*
X93259389Y63658498D01*
X93255059Y63663053D01*
X93226596Y63682864D01*
X93206642Y63696753D01*
X93199119Y63702425D01*
X93158280Y63735725D01*
X93158277Y63735727D01*
X93153407Y63739698D01*
X93126437Y63753787D01*
X93113024Y63761913D01*
X93088049Y63779295D01*
X93033817Y63802568D01*
X93025351Y63806589D01*
X92973049Y63833909D01*
X92943802Y63842278D01*
X92929021Y63847541D01*
X92906841Y63857059D01*
X92906835Y63857061D01*
X92901058Y63859540D01*
X92894905Y63860805D01*
X92894891Y63860809D01*
X92843273Y63871417D01*
X92834126Y63873662D01*
X92783465Y63888158D01*
X92783453Y63888161D01*
X92777418Y63889887D01*
X92771154Y63890365D01*
X92771149Y63890365D01*
X92747075Y63892198D01*
X92731533Y63894378D01*
X92707902Y63899234D01*
X92707901Y63899235D01*
X92701741Y63900500D01*
X92695452Y63900500D01*
X92642759Y63900500D01*
X92633344Y63900858D01*
X92580794Y63904860D01*
X92580789Y63904860D01*
X92574524Y63905337D01*
X92568290Y63904544D01*
X92568284Y63904543D01*
X92544349Y63901494D01*
X92528683Y63900500D01*
X60414278Y63900500D01*
X60411137Y63900540D01*
X60329924Y63902598D01*
X60329921Y63902598D01*
X60323637Y63902757D01*
X60311267Y63900540D01*
X60265578Y63892352D01*
X60256254Y63891045D01*
X60203821Y63885712D01*
X60203807Y63885710D01*
X60197562Y63885074D01*
X60191568Y63883194D01*
X60191565Y63883193D01*
X60168526Y63875965D01*
X60153292Y63872226D01*
X60129533Y63867967D01*
X60129532Y63867967D01*
X60123347Y63866858D01*
X60117511Y63864528D01*
X60117504Y63864525D01*
X60068568Y63844979D01*
X60059698Y63841821D01*
X60009411Y63826043D01*
X60009396Y63826037D01*
X60003412Y63824159D01*
X59997923Y63821113D01*
X59997915Y63821109D01*
X59976818Y63809399D01*
X59962642Y63802667D01*
X59940227Y63793714D01*
X59940213Y63793708D01*
X59934383Y63791378D01*
X59929139Y63787923D01*
X59929135Y63787920D01*
X59885122Y63758913D01*
X59877065Y63754033D01*
X59825498Y63725409D01*
X59820734Y63721320D01*
X59820719Y63721309D01*
X59802405Y63705587D01*
X59789883Y63696145D01*
X59769732Y63682864D01*
X59769721Y63682856D01*
X59764482Y63679402D01*
X59760038Y63674959D01*
X59760034Y63674955D01*
X59722781Y63637703D01*
X59715875Y63631302D01*
X59675875Y63596962D01*
X59675869Y63596957D01*
X59671105Y63592866D01*
X59667260Y63587900D01*
X59667260Y63587899D01*
X59652480Y63568805D01*
X59642108Y63557030D01*
X58902646Y62817568D01*
X58900398Y62815376D01*
X58836947Y62755059D01*
X58833359Y62749905D01*
X58833352Y62749896D01*
X58803244Y62706639D01*
X58797574Y62699119D01*
X58764274Y62658279D01*
X58764271Y62658276D01*
X58760302Y62653407D01*
X58757396Y62647845D01*
X58757388Y62647832D01*
X58746210Y62626434D01*
X58738082Y62613018D01*
X58724300Y62593216D01*
X58724295Y62593208D01*
X58720705Y62588049D01*
X58718228Y62582279D01*
X58718225Y62582272D01*
X58697439Y62533835D01*
X58693399Y62525329D01*
X58677082Y62494090D01*
X58666091Y62473049D01*
X58664363Y62467011D01*
X58664360Y62467003D01*
X58657720Y62443799D01*
X58652459Y62429022D01*
X58642942Y62406843D01*
X58640460Y62401058D01*
X58639194Y62394903D01*
X58639192Y62394893D01*
X58628587Y62343288D01*
X58626342Y62334141D01*
X58611842Y62283466D01*
X58611839Y62283453D01*
X58610113Y62277418D01*
X58609636Y62271158D01*
X58609635Y62271151D01*
X58607801Y62247071D01*
X58605622Y62231537D01*
X58603853Y62222927D01*
X58599500Y62201741D01*
X58599500Y62195450D01*
X58599500Y62142759D01*
X58599142Y62133344D01*
X58595140Y62080795D01*
X58595140Y62080790D01*
X58594663Y62074524D01*
X58595456Y62068291D01*
X58595457Y62068285D01*
X58598506Y62044349D01*
X58599500Y62028683D01*
X58599500Y61590416D01*
X58593761Y61553129D01*
X58577075Y61519293D01*
X58516006Y61432078D01*
X58516001Y61432071D01*
X58512898Y61427638D01*
X58510610Y61422732D01*
X58510608Y61422728D01*
X58422712Y61234237D01*
X58422707Y61234226D01*
X58420425Y61229330D01*
X58419025Y61224108D01*
X58419024Y61224103D01*
X58365194Y61023210D01*
X58365191Y61023198D01*
X58363793Y61017977D01*
X58363321Y61012588D01*
X58363320Y61012579D01*
X58345467Y60808513D01*
X58344723Y60800000D01*
X58345195Y60794605D01*
X58363320Y60587422D01*
X58363321Y60587415D01*
X58363793Y60582023D01*
X58365192Y60576801D01*
X58365194Y60576791D01*
X58414398Y60393162D01*
X58420425Y60370670D01*
X58422709Y60365771D01*
X58422712Y60365764D01*
X58510611Y60177264D01*
X58510614Y60177258D01*
X58512898Y60172361D01*
X58515997Y60167934D01*
X58515999Y60167932D01*
X58577075Y60080707D01*
X58593761Y60046871D01*
X58599500Y60009583D01*
X58599500Y23065783D01*
X58590061Y23018330D01*
X58563181Y22978102D01*
X57076899Y21491819D01*
X57036671Y21464939D01*
X56989218Y21455500D01*
X50454887Y21455500D01*
X50407434Y21464939D01*
X50404898Y21466634D01*
X50373674Y21475000D01*
X49477315Y21475000D01*
X49465161Y21475597D01*
X49418414Y21480202D01*
X49418397Y21480203D01*
X49415380Y21480500D01*
X48864620Y21480500D01*
X48861603Y21480203D01*
X48861585Y21480202D01*
X48814839Y21475597D01*
X48802685Y21475000D01*
X47906326Y21475000D01*
X47893450Y21471550D01*
X47890000Y21458674D01*
X47890000Y21155482D01*
X47890353Y21148886D01*
X47895573Y21100333D01*
X47899111Y21085359D01*
X47943547Y20966221D01*
X47954062Y20946964D01*
X47969049Y20894198D01*
X47961459Y20849802D01*
X47962977Y20849341D01*
X47906106Y20661864D01*
X47906104Y20661857D01*
X47904338Y20656033D01*
X47903741Y20649977D01*
X47903740Y20649969D01*
X47893386Y20544834D01*
X47884538Y20455000D01*
X47885135Y20448939D01*
X47885135Y20448938D01*
X47897671Y20321654D01*
X47885480Y20254656D01*
X47839748Y20204199D01*
X47774268Y20185500D01*
X46980782Y20185500D01*
X46933329Y20194939D01*
X46893101Y20221819D01*
X46579403Y20535517D01*
X46579402Y20535519D01*
X46396592Y20718329D01*
X46136818Y20978102D01*
X46109939Y21018329D01*
X46100500Y21065782D01*
X46100500Y21991326D01*
X47890000Y21991326D01*
X47893450Y21978451D01*
X47906326Y21975000D01*
X48873674Y21975000D01*
X48886549Y21978451D01*
X48890000Y21991326D01*
X49390000Y21991326D01*
X49393450Y21978451D01*
X49406326Y21975000D01*
X50373674Y21975000D01*
X50386549Y21978451D01*
X50390000Y21991326D01*
X50390000Y22294518D01*
X50389646Y22301115D01*
X50384426Y22349668D01*
X50380888Y22364642D01*
X50336452Y22483778D01*
X50328037Y22499190D01*
X50252501Y22600093D01*
X50240092Y22612502D01*
X50139189Y22688038D01*
X50123777Y22696453D01*
X50004641Y22740889D01*
X49989667Y22744427D01*
X49941114Y22749647D01*
X49934518Y22750000D01*
X49406326Y22750000D01*
X49393450Y22746550D01*
X49390000Y22733674D01*
X49390000Y21991326D01*
X48890000Y21991326D01*
X48890000Y22733674D01*
X48886549Y22746550D01*
X48873674Y22750000D01*
X48345482Y22750000D01*
X48338885Y22749647D01*
X48290332Y22744427D01*
X48275358Y22740889D01*
X48156222Y22696453D01*
X48140810Y22688038D01*
X48039907Y22612502D01*
X48027498Y22600093D01*
X47951962Y22499190D01*
X47943547Y22483778D01*
X47899111Y22364642D01*
X47895573Y22349668D01*
X47890353Y22301115D01*
X47890000Y22294518D01*
X47890000Y21991326D01*
X46100500Y21991326D01*
X46100500Y25813485D01*
X47722881Y25813485D01*
X47723560Y25807025D01*
X47741433Y25636968D01*
X47741434Y25636961D01*
X47742113Y25630506D01*
X47744120Y25624327D01*
X47744121Y25624326D01*
X47786360Y25494326D01*
X47798968Y25455525D01*
X47802215Y25449901D01*
X47802216Y25449899D01*
X47865724Y25339899D01*
X47890961Y25296188D01*
X48014072Y25159460D01*
X48019322Y25155646D01*
X48019325Y25155643D01*
X48112542Y25087917D01*
X48162920Y25051315D01*
X48168853Y25048674D01*
X48168854Y25048673D01*
X48324964Y24979168D01*
X48331000Y24976481D01*
X48337358Y24975130D01*
X48337360Y24975129D01*
X48373612Y24967424D01*
X48510966Y24938228D01*
X48688449Y24938228D01*
X48694952Y24938228D01*
X48874918Y24976481D01*
X49042998Y25051315D01*
X49191846Y25159460D01*
X49314957Y25296188D01*
X49406950Y25455525D01*
X49463805Y25630506D01*
X49483037Y25813485D01*
X49463805Y25996464D01*
X49406950Y26171445D01*
X49314957Y26330782D01*
X49191846Y26467510D01*
X49186596Y26471325D01*
X49186592Y26471328D01*
X49048252Y26571838D01*
X49048250Y26571840D01*
X49042998Y26575655D01*
X49037067Y26578296D01*
X49037063Y26578298D01*
X48880856Y26647846D01*
X48880849Y26647849D01*
X48874918Y26650489D01*
X48868565Y26651840D01*
X48868557Y26651842D01*
X48701314Y26687390D01*
X48701311Y26687391D01*
X48694952Y26688742D01*
X48510966Y26688742D01*
X48504607Y26687391D01*
X48504603Y26687390D01*
X48337360Y26651842D01*
X48337349Y26651839D01*
X48331000Y26650489D01*
X48325071Y26647850D01*
X48325061Y26647846D01*
X48168854Y26578298D01*
X48168846Y26578294D01*
X48162920Y26575655D01*
X48157671Y26571842D01*
X48157665Y26571838D01*
X48019325Y26471328D01*
X48019316Y26471321D01*
X48014072Y26467510D01*
X48009728Y26462687D01*
X48009725Y26462683D01*
X47895307Y26335610D01*
X47895302Y26335604D01*
X47890961Y26330782D01*
X47887716Y26325162D01*
X47887712Y26325156D01*
X47802216Y26177072D01*
X47802213Y26177067D01*
X47798968Y26171445D01*
X47796962Y26165273D01*
X47796960Y26165267D01*
X47754721Y26035267D01*
X47742113Y25996464D01*
X47741434Y25990012D01*
X47741433Y25990003D01*
X47731201Y25892645D01*
X47722881Y25813485D01*
X46100500Y25813485D01*
X46100500Y33975500D01*
X46117113Y34037500D01*
X46162500Y34082887D01*
X46224500Y34099500D01*
X50485722Y34099500D01*
X50488862Y34099461D01*
X50576363Y34097243D01*
X50634458Y34107656D01*
X50643739Y34108958D01*
X50702438Y34114926D01*
X50731464Y34124034D01*
X50746713Y34127776D01*
X50776653Y34133142D01*
X50831423Y34155020D01*
X50840303Y34158182D01*
X50859994Y34164360D01*
X50896588Y34175841D01*
X50923194Y34190610D01*
X50937362Y34197338D01*
X50965617Y34208623D01*
X51014891Y34241098D01*
X51022910Y34245957D01*
X51074502Y34274591D01*
X51085961Y34284430D01*
X51097583Y34294406D01*
X51110125Y34303863D01*
X51135519Y34320598D01*
X51177231Y34362312D01*
X51184132Y34368707D01*
X51213487Y34393907D01*
X51228895Y34407134D01*
X51247524Y34431202D01*
X51257884Y34442965D01*
X51935516Y35120597D01*
X51935519Y35120598D01*
X53897409Y37082490D01*
X53899579Y37084606D01*
X53963053Y37144941D01*
X53996748Y37193352D01*
X54002422Y37200877D01*
X54035721Y37241715D01*
X54035723Y37241719D01*
X54039698Y37246593D01*
X54053782Y37273556D01*
X54061919Y37286987D01*
X54075704Y37306792D01*
X54075703Y37306792D01*
X54079295Y37311951D01*
X54102568Y37366185D01*
X54106598Y37374669D01*
X54130994Y37421371D01*
X54133909Y37426951D01*
X54142278Y37456203D01*
X54147538Y37470977D01*
X54159540Y37498942D01*
X54171416Y37556738D01*
X54173649Y37565838D01*
X54189887Y37622582D01*
X54192197Y37652923D01*
X54194378Y37668472D01*
X54200500Y37698259D01*
X54200500Y37757242D01*
X54200858Y37766657D01*
X54201051Y37769199D01*
X54205337Y37825477D01*
X54201493Y37855653D01*
X54200500Y37871318D01*
X54200500Y46244756D01*
X54201097Y46256910D01*
X54204744Y46293939D01*
X54205341Y46300000D01*
X54200623Y46347894D01*
X54200500Y46349559D01*
X54200500Y46350742D01*
X54195525Y46399664D01*
X54186024Y46496132D01*
X54185559Y46497664D01*
X54185074Y46502438D01*
X54156189Y46594499D01*
X54155870Y46595533D01*
X54150244Y46614079D01*
X54128814Y46684727D01*
X54127151Y46687837D01*
X54126767Y46688895D01*
X54126042Y46690584D01*
X54124159Y46696588D01*
X54079082Y46777803D01*
X54078160Y46779495D01*
X54038785Y46853159D01*
X54035910Y46858538D01*
X54032226Y46863026D01*
X54029418Y46867630D01*
X54028455Y46869013D01*
X54025409Y46874502D01*
X54021317Y46879269D01*
X54021314Y46879273D01*
X53967221Y46942283D01*
X53965453Y46944389D01*
X53960929Y46949901D01*
X53910883Y47010883D01*
X53906175Y47014747D01*
X53901868Y47019054D01*
X53902175Y47019362D01*
X53901621Y47019903D01*
X53901518Y47019793D01*
X53896961Y47024125D01*
X53892866Y47028895D01*
X53825057Y47081384D01*
X53822294Y47083587D01*
X53763250Y47132043D01*
X53763249Y47132044D01*
X53758538Y47135910D01*
X53753161Y47138784D01*
X53748101Y47142165D01*
X53748153Y47142243D01*
X53737614Y47149070D01*
X53731958Y47153448D01*
X53658190Y47189633D01*
X53654345Y47191603D01*
X53590101Y47225942D01*
X53590094Y47225945D01*
X53584727Y47228814D01*
X53578904Y47230581D01*
X53578898Y47230583D01*
X53577522Y47231000D01*
X53558907Y47238334D01*
X53549271Y47243060D01*
X53543188Y47244635D01*
X53543183Y47244637D01*
X53473188Y47262760D01*
X53468276Y47264140D01*
X53401961Y47284256D01*
X53401959Y47284257D01*
X53396132Y47286024D01*
X53390075Y47286621D01*
X53390064Y47286623D01*
X53385057Y47287116D01*
X53366146Y47290475D01*
X53358377Y47292486D01*
X53358375Y47292487D01*
X53352285Y47294063D01*
X53346007Y47294382D01*
X53346004Y47294382D01*
X53277345Y47297865D01*
X53271477Y47298303D01*
X53206065Y47304744D01*
X53206062Y47304744D01*
X53200000Y47305341D01*
X53185362Y47303900D01*
X53166946Y47303463D01*
X53155348Y47304051D01*
X53155342Y47304051D01*
X53149064Y47304369D01*
X53142852Y47303418D01*
X53142842Y47303417D01*
X53078433Y47293550D01*
X53071814Y47292717D01*
X53009928Y47286621D01*
X53009927Y47286621D01*
X53003868Y47286024D01*
X52998043Y47284258D01*
X52998037Y47284256D01*
X52986370Y47280717D01*
X52969160Y47276810D01*
X52954148Y47274510D01*
X52954137Y47274508D01*
X52947929Y47273556D01*
X52884241Y47249969D01*
X52877190Y47247597D01*
X52821102Y47230583D01*
X52821095Y47230581D01*
X52815273Y47228814D01*
X52809909Y47225948D01*
X52809904Y47225945D01*
X52795999Y47218512D01*
X52780619Y47211593D01*
X52757113Y47202886D01*
X52751778Y47199562D01*
X52751770Y47199557D01*
X52702499Y47168847D01*
X52695365Y47164723D01*
X52646835Y47138783D01*
X52646827Y47138779D01*
X52641462Y47135910D01*
X52636757Y47132050D01*
X52636751Y47132045D01*
X52621805Y47119779D01*
X52608739Y47110405D01*
X52589761Y47098576D01*
X52589758Y47098575D01*
X52584429Y47095252D01*
X52579876Y47090925D01*
X52579872Y47090921D01*
X52540369Y47053371D01*
X52533607Y47047396D01*
X52489117Y47010883D01*
X52485257Y47006181D01*
X52485248Y47006171D01*
X52470711Y46988458D01*
X52460298Y46977258D01*
X52441506Y46959394D01*
X52441501Y46959389D01*
X52436947Y46955059D01*
X52433357Y46949901D01*
X52404267Y46908108D01*
X52398349Y46900286D01*
X52367958Y46863253D01*
X52367952Y46863245D01*
X52364090Y46858538D01*
X52361220Y46853170D01*
X52361218Y46853166D01*
X52348731Y46829805D01*
X52341151Y46817427D01*
X52324298Y46793213D01*
X52324293Y46793205D01*
X52320705Y46788049D01*
X52318227Y46782276D01*
X52318222Y46782266D01*
X52299549Y46738755D01*
X52294960Y46729208D01*
X52274057Y46690099D01*
X52271186Y46684727D01*
X52269419Y46678906D01*
X52269419Y46678903D01*
X52260693Y46650137D01*
X52255985Y46637237D01*
X52242940Y46606840D01*
X52242936Y46606830D01*
X52240460Y46601058D01*
X52239195Y46594905D01*
X52239193Y46594897D01*
X52230379Y46552009D01*
X52227580Y46540983D01*
X52215743Y46501960D01*
X52215741Y46501953D01*
X52213976Y46496132D01*
X52213379Y46490073D01*
X52213379Y46490072D01*
X52210081Y46456592D01*
X52208140Y46443790D01*
X52200766Y46407905D01*
X52200765Y46407899D01*
X52199500Y46401741D01*
X52199500Y46395452D01*
X52199500Y46355244D01*
X52198903Y46343091D01*
X52194659Y46300000D01*
X52195256Y46293939D01*
X52198903Y46256910D01*
X52199500Y46244756D01*
X52199500Y38265782D01*
X52190061Y38218329D01*
X52163181Y38178102D01*
X51412030Y37426951D01*
X50664481Y36679402D01*
X50664479Y36679400D01*
X50121899Y36136819D01*
X50081671Y36109939D01*
X50034218Y36100500D01*
X45201741Y36100500D01*
X45128501Y36100500D01*
X45122221Y36100659D01*
X45055345Y36104051D01*
X45055339Y36104051D01*
X45049064Y36104369D01*
X45042852Y36103418D01*
X45042845Y36103417D01*
X45033143Y36101930D01*
X45014366Y36100500D01*
X23265783Y36100500D01*
X23218330Y36109939D01*
X23178102Y36136819D01*
X22636819Y36678101D01*
X22609939Y36718329D01*
X22600500Y36765782D01*
X22600500Y40493485D01*
X47732881Y40493485D01*
X47733560Y40487025D01*
X47751433Y40316968D01*
X47751434Y40316961D01*
X47752113Y40310506D01*
X47754120Y40304327D01*
X47754121Y40304326D01*
X47804135Y40150397D01*
X47808968Y40135525D01*
X47812215Y40129901D01*
X47812216Y40129899D01*
X47878468Y40015146D01*
X47900961Y39976188D01*
X47905305Y39971363D01*
X47905307Y39971361D01*
X47941541Y39931119D01*
X48024072Y39839460D01*
X48029322Y39835646D01*
X48029325Y39835643D01*
X48165982Y39736356D01*
X48172920Y39731315D01*
X48178853Y39728674D01*
X48178854Y39728673D01*
X48328565Y39662017D01*
X48341000Y39656481D01*
X48347358Y39655130D01*
X48347360Y39655129D01*
X48383612Y39647424D01*
X48520966Y39618228D01*
X48698449Y39618228D01*
X48704952Y39618228D01*
X48884918Y39656481D01*
X49052998Y39731315D01*
X49201846Y39839460D01*
X49324957Y39976188D01*
X49416950Y40135525D01*
X49473805Y40310506D01*
X49493037Y40493485D01*
X49473805Y40676464D01*
X49416950Y40851445D01*
X49324957Y41010782D01*
X49201846Y41147510D01*
X49196596Y41151325D01*
X49196592Y41151328D01*
X49058252Y41251838D01*
X49058250Y41251840D01*
X49052998Y41255655D01*
X49047067Y41258296D01*
X49047063Y41258298D01*
X48890856Y41327846D01*
X48890849Y41327849D01*
X48884918Y41330489D01*
X48878565Y41331840D01*
X48878557Y41331842D01*
X48711314Y41367390D01*
X48711311Y41367391D01*
X48704952Y41368742D01*
X48520966Y41368742D01*
X48514607Y41367391D01*
X48514603Y41367390D01*
X48347360Y41331842D01*
X48347349Y41331839D01*
X48341000Y41330489D01*
X48335071Y41327850D01*
X48335061Y41327846D01*
X48178854Y41258298D01*
X48178846Y41258294D01*
X48172920Y41255655D01*
X48167671Y41251842D01*
X48167665Y41251838D01*
X48029325Y41151328D01*
X48029316Y41151321D01*
X48024072Y41147510D01*
X48019728Y41142687D01*
X48019725Y41142683D01*
X47905307Y41015610D01*
X47905302Y41015604D01*
X47900961Y41010782D01*
X47897716Y41005162D01*
X47897712Y41005156D01*
X47812216Y40857072D01*
X47812213Y40857067D01*
X47808968Y40851445D01*
X47806962Y40845273D01*
X47806960Y40845267D01*
X47782894Y40771198D01*
X47752113Y40676464D01*
X47751434Y40670012D01*
X47751433Y40670003D01*
X47737179Y40534382D01*
X47732881Y40493485D01*
X22600500Y40493485D01*
X22600500Y43144756D01*
X22601097Y43156910D01*
X22604744Y43193939D01*
X22605341Y43200000D01*
X22601096Y43243091D01*
X22600500Y43255244D01*
X22600500Y49100000D01*
X52194357Y49100000D01*
X52194781Y49094883D01*
X52214467Y48857299D01*
X52214468Y48857291D01*
X52214892Y48852179D01*
X52216149Y48847212D01*
X52216151Y48847205D01*
X52239680Y48754293D01*
X52275937Y48611119D01*
X52277997Y48606423D01*
X52373766Y48388090D01*
X52373769Y48388084D01*
X52375827Y48383393D01*
X52378627Y48379107D01*
X52378631Y48379100D01*
X52485598Y48215375D01*
X52511836Y48175215D01*
X52515310Y48171441D01*
X52515311Y48171440D01*
X52676784Y47996033D01*
X52676787Y47996030D01*
X52680256Y47992262D01*
X52876491Y47839526D01*
X53095190Y47721172D01*
X53330386Y47640429D01*
X53575665Y47599500D01*
X53819201Y47599500D01*
X53824335Y47599500D01*
X54069614Y47640429D01*
X54304810Y47721172D01*
X54523509Y47839526D01*
X54719744Y47992262D01*
X54888164Y48175215D01*
X55024173Y48383393D01*
X55124063Y48611119D01*
X55185108Y48852179D01*
X55205643Y49100000D01*
X55185108Y49347821D01*
X55124063Y49588881D01*
X55024173Y49816607D01*
X55021098Y49821313D01*
X54926009Y49966858D01*
X54888164Y50024785D01*
X54758173Y50165993D01*
X54723215Y50203968D01*
X54723211Y50203971D01*
X54719744Y50207738D01*
X54537643Y50349473D01*
X54527559Y50357322D01*
X54527557Y50357324D01*
X54523509Y50360474D01*
X54518997Y50362916D01*
X54309316Y50476390D01*
X54309310Y50476393D01*
X54304810Y50478828D01*
X54299969Y50480490D01*
X54299962Y50480493D01*
X54074465Y50557906D01*
X54074461Y50557907D01*
X54069614Y50559571D01*
X54060768Y50561048D01*
X53829398Y50599656D01*
X53829387Y50599657D01*
X53824335Y50600500D01*
X53575665Y50600500D01*
X53570613Y50599657D01*
X53570601Y50599656D01*
X53335443Y50560415D01*
X53335441Y50560415D01*
X53330386Y50559571D01*
X53325541Y50557908D01*
X53325534Y50557906D01*
X53100037Y50480493D01*
X53100026Y50480489D01*
X53095190Y50478828D01*
X53090693Y50476395D01*
X53090683Y50476390D01*
X52881002Y50362916D01*
X52880995Y50362912D01*
X52876491Y50360474D01*
X52872448Y50357328D01*
X52872440Y50357322D01*
X52684304Y50210889D01*
X52680256Y50207738D01*
X52676793Y50203977D01*
X52676784Y50203968D01*
X52515311Y50028561D01*
X52515305Y50028554D01*
X52511836Y50024785D01*
X52509031Y50020494D01*
X52509028Y50020488D01*
X52378631Y49820901D01*
X52378624Y49820889D01*
X52375827Y49816607D01*
X52373772Y49811923D01*
X52373766Y49811911D01*
X52305830Y49657031D01*
X52275937Y49588881D01*
X52274679Y49583916D01*
X52274678Y49583911D01*
X52216151Y49352796D01*
X52216149Y49352787D01*
X52214892Y49347821D01*
X52214468Y49342712D01*
X52214467Y49342702D01*
X52204886Y49227066D01*
X52194357Y49100000D01*
X22600500Y49100000D01*
X22600500Y51634217D01*
X22609939Y51681670D01*
X22636819Y51721898D01*
X22995715Y52080795D01*
X23368408Y52453490D01*
X23377392Y52461634D01*
X23410883Y52489117D01*
X23441401Y52526305D01*
X23441802Y52526771D01*
X52894190Y52526771D01*
X52902296Y52515580D01*
X52931158Y52493116D01*
X52939720Y52487523D01*
X53149326Y52374090D01*
X53158680Y52369987D01*
X53384097Y52292602D01*
X53394009Y52290091D01*
X53629084Y52250864D01*
X53639280Y52250019D01*
X53877602Y52250019D01*
X53887797Y52250864D01*
X54122872Y52290091D01*
X54132784Y52292602D01*
X54358201Y52369987D01*
X54367555Y52374090D01*
X54577164Y52487524D01*
X54585722Y52493116D01*
X54614587Y52515582D01*
X54622691Y52526769D01*
X54616030Y52538877D01*
X53769983Y53384924D01*
X53758441Y53391588D01*
X53746898Y53384924D01*
X52900849Y52538876D01*
X52894190Y52526771D01*
X23441802Y52526771D01*
X23442507Y52527589D01*
X23443340Y52528420D01*
X23474453Y52566578D01*
X23535910Y52641462D01*
X23536663Y52642872D01*
X23539698Y52646593D01*
X23584458Y52732284D01*
X23584832Y52732990D01*
X23628814Y52815273D01*
X23629839Y52818654D01*
X23630312Y52819666D01*
X23630991Y52821366D01*
X23633909Y52826951D01*
X23659462Y52916259D01*
X23660012Y52918123D01*
X23686024Y53003868D01*
X23686593Y53009647D01*
X23687859Y53014876D01*
X23688157Y53016538D01*
X23689887Y53022582D01*
X23696667Y53111627D01*
X23696905Y53114354D01*
X23701129Y53157241D01*
X23705341Y53200000D01*
X23704743Y53206068D01*
X23704743Y53212156D01*
X23705186Y53212157D01*
X23705176Y53212917D01*
X23705019Y53212912D01*
X23704859Y53219208D01*
X23705337Y53225476D01*
X23694511Y53310482D01*
X23694509Y53310495D01*
X23694112Y53314008D01*
X23690031Y53355446D01*
X23686024Y53396132D01*
X23684254Y53401967D01*
X23683067Y53407936D01*
X23683159Y53407955D01*
X23680532Y53420244D01*
X23679630Y53427328D01*
X23653036Y53505130D01*
X23651727Y53509192D01*
X23645285Y53530429D01*
X23628814Y53584727D01*
X23625265Y53591367D01*
X23617286Y53609721D01*
X23615852Y53613917D01*
X23615850Y53613922D01*
X23613816Y53619872D01*
X23588236Y53663326D01*
X23573942Y53687609D01*
X23571444Y53692060D01*
X23543199Y53744902D01*
X52253724Y53744902D01*
X52273403Y53507401D01*
X52275087Y53497307D01*
X52333594Y53266272D01*
X52336913Y53256605D01*
X52432649Y53038346D01*
X52437511Y53029363D01*
X52527440Y52891715D01*
X52535404Y52883995D01*
X52544786Y52889919D01*
X53393345Y53738477D01*
X53400009Y53750019D01*
X53400008Y53750020D01*
X54116872Y53750020D01*
X54123536Y53738477D01*
X54972094Y52889919D01*
X54981475Y52883995D01*
X54989443Y52891720D01*
X55079365Y53029355D01*
X55084233Y53038350D01*
X55179968Y53256605D01*
X55183287Y53266272D01*
X55241794Y53497307D01*
X55243478Y53507401D01*
X55263158Y53744902D01*
X55263158Y53755136D01*
X55243478Y53992638D01*
X55241794Y54002732D01*
X55183287Y54233767D01*
X55179968Y54243434D01*
X55084233Y54461689D01*
X55079365Y54470684D01*
X54989443Y54608320D01*
X54981475Y54616045D01*
X54972094Y54610121D01*
X54123536Y53761562D01*
X54116872Y53750020D01*
X53400008Y53750020D01*
X53393345Y53761562D01*
X52544786Y54610121D01*
X52535405Y54616045D01*
X52527438Y54608320D01*
X52437513Y54470681D01*
X52432648Y54461691D01*
X52336913Y54243434D01*
X52333594Y54233767D01*
X52275087Y54002732D01*
X52273403Y53992638D01*
X52253724Y53755136D01*
X52253724Y53744902D01*
X23543199Y53744902D01*
X23538781Y53753168D01*
X23538777Y53753173D01*
X23535910Y53758538D01*
X23532048Y53763243D01*
X23532046Y53763247D01*
X23528861Y53767128D01*
X23517858Y53782883D01*
X23513780Y53789809D01*
X23510591Y53795227D01*
X23460269Y53850925D01*
X23456441Y53855371D01*
X23414745Y53906177D01*
X23410883Y53910883D01*
X23406174Y53914748D01*
X23406172Y53914750D01*
X23399523Y53920207D01*
X23386183Y53932928D01*
X23378398Y53941545D01*
X23378389Y53941553D01*
X23374179Y53946213D01*
X23316571Y53988515D01*
X23311307Y53992604D01*
X23267919Y54028211D01*
X23258538Y54035910D01*
X23253161Y54038784D01*
X23242415Y54044528D01*
X23227476Y54053939D01*
X23215240Y54062924D01*
X23215239Y54062925D01*
X23210167Y54066649D01*
X23204446Y54069278D01*
X23204444Y54069279D01*
X23148470Y54094999D01*
X23141792Y54098314D01*
X23090099Y54125943D01*
X23090096Y54125945D01*
X23084727Y54128814D01*
X23078907Y54130580D01*
X23078899Y54130583D01*
X23063807Y54135161D01*
X23048039Y54141143D01*
X23030978Y54148982D01*
X23030973Y54148984D01*
X23025268Y54151605D01*
X22996505Y54158280D01*
X22962598Y54166149D01*
X22954638Y54168278D01*
X22901963Y54184256D01*
X22901955Y54184258D01*
X22896132Y54186024D01*
X22890076Y54186621D01*
X22890074Y54186621D01*
X22870826Y54188517D01*
X22854954Y54191129D01*
X22833180Y54196182D01*
X22833175Y54196183D01*
X22827054Y54197603D01*
X22820769Y54197763D01*
X22820764Y54197763D01*
X22766286Y54199144D01*
X22757279Y54199701D01*
X22706064Y54204744D01*
X22706062Y54204744D01*
X22700000Y54205341D01*
X22693938Y54204744D01*
X22693932Y54204744D01*
X22671129Y54202499D01*
X22655843Y54201942D01*
X22629927Y54202598D01*
X22629923Y54202598D01*
X22623637Y54202757D01*
X22595772Y54197763D01*
X22567331Y54192666D01*
X22557615Y54191319D01*
X22509924Y54186621D01*
X22509919Y54186621D01*
X22503868Y54186024D01*
X22498054Y54184261D01*
X22498037Y54184257D01*
X22472682Y54176565D01*
X22458567Y54173171D01*
X22429531Y54167967D01*
X22429525Y54167966D01*
X22423347Y54166858D01*
X22417521Y54164532D01*
X22417507Y54164527D01*
X22373531Y54146961D01*
X22363535Y54143455D01*
X22355914Y54141143D01*
X22315273Y54128814D01*
X22309906Y54125946D01*
X22309895Y54125941D01*
X22283384Y54111771D01*
X22270936Y54105979D01*
X22240219Y54093709D01*
X22240213Y54093707D01*
X22234383Y54091377D01*
X22229137Y54087921D01*
X22229128Y54087915D01*
X22192571Y54063822D01*
X22182791Y54058002D01*
X22146836Y54038784D01*
X22146824Y54038777D01*
X22141462Y54035910D01*
X22136760Y54032052D01*
X22136749Y54032044D01*
X22110754Y54010711D01*
X22100333Y54003033D01*
X22069731Y53982864D01*
X22069719Y53982855D01*
X22064481Y53979402D01*
X22060039Y53974961D01*
X22060040Y53974961D01*
X22031595Y53946517D01*
X22022584Y53938350D01*
X21993825Y53914748D01*
X21993818Y53914742D01*
X21989117Y53910883D01*
X21985255Y53906177D01*
X21985245Y53906167D01*
X21961644Y53877411D01*
X21953475Y53868398D01*
X20902645Y52817567D01*
X20900397Y52815375D01*
X20836947Y52755059D01*
X20833359Y52749905D01*
X20833352Y52749896D01*
X20803244Y52706639D01*
X20797574Y52699119D01*
X20764274Y52658279D01*
X20764271Y52658276D01*
X20760302Y52653407D01*
X20757396Y52647845D01*
X20757388Y52647832D01*
X20746210Y52626434D01*
X20738082Y52613018D01*
X20724300Y52593216D01*
X20724295Y52593208D01*
X20720705Y52588049D01*
X20718228Y52582279D01*
X20718225Y52582272D01*
X20697439Y52533835D01*
X20693399Y52525329D01*
X20670992Y52482431D01*
X20666091Y52473049D01*
X20664363Y52467011D01*
X20664360Y52467003D01*
X20657720Y52443799D01*
X20652459Y52429022D01*
X20642942Y52406843D01*
X20640460Y52401058D01*
X20639194Y52394903D01*
X20639192Y52394893D01*
X20628587Y52343288D01*
X20626342Y52334141D01*
X20611842Y52283466D01*
X20611839Y52283453D01*
X20610113Y52277418D01*
X20609636Y52271158D01*
X20609635Y52271151D01*
X20607801Y52247071D01*
X20605622Y52231537D01*
X20600766Y52207903D01*
X20599500Y52201741D01*
X20599500Y52195450D01*
X20599500Y52142759D01*
X20599142Y52133344D01*
X20595140Y52080795D01*
X20595140Y52080790D01*
X20594663Y52074524D01*
X20595456Y52068291D01*
X20595457Y52068285D01*
X20598506Y52044349D01*
X20599500Y52028683D01*
X20599500Y43255244D01*
X20598903Y43243091D01*
X20594659Y43200000D01*
X18207316Y43200000D01*
X18207316Y45853496D01*
X18215799Y45898571D01*
X18240086Y45937479D01*
X18371428Y46080155D01*
X18394980Y46105739D01*
X18530989Y46313917D01*
X18630879Y46541643D01*
X18691924Y46782703D01*
X18712459Y47030524D01*
X18691924Y47278345D01*
X18630879Y47519405D01*
X18530989Y47747131D01*
X18504549Y47787600D01*
X18452673Y47867003D01*
X18394980Y47955309D01*
X18364841Y47988049D01*
X18230031Y48134492D01*
X18230027Y48134495D01*
X18226560Y48138262D01*
X18060064Y48267851D01*
X18034375Y48287846D01*
X18034373Y48287848D01*
X18030325Y48290998D01*
X18025813Y48293440D01*
X17816132Y48406914D01*
X17816126Y48406917D01*
X17811626Y48409352D01*
X17806785Y48411014D01*
X17806778Y48411017D01*
X17581281Y48488430D01*
X17581277Y48488431D01*
X17576430Y48490095D01*
X17551842Y48494198D01*
X17336214Y48530180D01*
X17336203Y48530181D01*
X17331151Y48531024D01*
X17082481Y48531024D01*
X17077429Y48530181D01*
X17077417Y48530180D01*
X16842259Y48490939D01*
X16842257Y48490939D01*
X16837202Y48490095D01*
X16832357Y48488432D01*
X16832350Y48488430D01*
X16606853Y48411017D01*
X16606842Y48411013D01*
X16602006Y48409352D01*
X16597509Y48406919D01*
X16597499Y48406914D01*
X16387818Y48293440D01*
X16387811Y48293436D01*
X16383307Y48290998D01*
X16379264Y48287852D01*
X16379256Y48287846D01*
X16191281Y48141538D01*
X16187072Y48138262D01*
X16183609Y48134501D01*
X16183600Y48134492D01*
X16022121Y47959079D01*
X16022112Y47959069D01*
X16018652Y47955309D01*
X16015854Y47951028D01*
X16015845Y47951015D01*
X16004089Y47933021D01*
X15959298Y47891790D01*
X15900283Y47876845D01*
X15841267Y47891789D01*
X15802079Y47927861D01*
X15800934Y47926969D01*
X15797787Y47931012D01*
X15794980Y47935309D01*
X15749208Y47985031D01*
X15630031Y48114492D01*
X15630027Y48114495D01*
X15626560Y48118262D01*
X15430325Y48270998D01*
X15399193Y48287846D01*
X15216132Y48386914D01*
X15216126Y48386917D01*
X15211626Y48389352D01*
X15206785Y48391014D01*
X15206778Y48391017D01*
X14981281Y48468430D01*
X14981277Y48468431D01*
X14976430Y48470095D01*
X14967584Y48471572D01*
X14736214Y48510180D01*
X14736203Y48510181D01*
X14731151Y48511024D01*
X14482481Y48511024D01*
X14477429Y48510181D01*
X14477417Y48510180D01*
X14242259Y48470939D01*
X14242257Y48470939D01*
X14237202Y48470095D01*
X14232357Y48468432D01*
X14232350Y48468430D01*
X14006853Y48391017D01*
X14006842Y48391013D01*
X14002006Y48389352D01*
X13997509Y48386919D01*
X13997499Y48386914D01*
X13787818Y48273440D01*
X13787811Y48273436D01*
X13783307Y48270998D01*
X13779267Y48267855D01*
X13779263Y48267851D01*
X13660865Y48175698D01*
X13608436Y48151844D01*
X13550886Y48154252D01*
X13500633Y48182403D01*
X13468520Y48230221D01*
X13463267Y48244305D01*
X13454853Y48259714D01*
X13379317Y48360617D01*
X13366908Y48373026D01*
X13266005Y48448562D01*
X13250593Y48456977D01*
X13131457Y48501413D01*
X13116483Y48504951D01*
X13067930Y48510171D01*
X13061334Y48510524D01*
X12283142Y48510524D01*
X12270266Y48507074D01*
X12266816Y48494198D01*
X12266816Y45526850D01*
X11766816Y45526850D01*
X11766816Y46744198D01*
X11763365Y46757074D01*
X11750490Y46760524D01*
X10533142Y46760524D01*
X10520266Y46757074D01*
X10516816Y46744198D01*
X10516816Y45966006D01*
X500Y45966006D01*
X500Y47276850D01*
X10516816Y47276850D01*
X10520266Y47263975D01*
X10533142Y47260524D01*
X11750490Y47260524D01*
X11763365Y47263975D01*
X11766816Y47276850D01*
X11766816Y48494198D01*
X11763365Y48507074D01*
X11750490Y48510524D01*
X10972298Y48510524D01*
X10965701Y48510171D01*
X10917148Y48504951D01*
X10902174Y48501413D01*
X10783038Y48456977D01*
X10767626Y48448562D01*
X10666723Y48373026D01*
X10654314Y48360617D01*
X10578778Y48259714D01*
X10570363Y48244302D01*
X10525927Y48125166D01*
X10522389Y48110192D01*
X10517169Y48061639D01*
X10516816Y48055042D01*
X10516816Y47276850D01*
X500Y47276850D01*
X500Y53298377D01*
X12716254Y53298377D01*
X12724360Y53287186D01*
X12753222Y53264722D01*
X12761784Y53259129D01*
X12971390Y53145696D01*
X12980744Y53141593D01*
X13206161Y53064208D01*
X13216073Y53061697D01*
X13451148Y53022470D01*
X13461344Y53021625D01*
X13699666Y53021625D01*
X13709861Y53022470D01*
X13944936Y53061697D01*
X13954848Y53064208D01*
X14180265Y53141593D01*
X14189619Y53145696D01*
X14399228Y53259130D01*
X14407786Y53264722D01*
X14436651Y53287188D01*
X14444755Y53298375D01*
X14438094Y53310483D01*
X13592047Y54156530D01*
X13580505Y54163194D01*
X13568962Y54156530D01*
X12722913Y53310482D01*
X12716254Y53298377D01*
X500Y53298377D01*
X500Y54516508D01*
X12075788Y54516508D01*
X12095467Y54279007D01*
X12097151Y54268913D01*
X12155658Y54037878D01*
X12158977Y54028211D01*
X12254713Y53809952D01*
X12259575Y53800969D01*
X12349504Y53663321D01*
X12357468Y53655601D01*
X12366850Y53661525D01*
X13215409Y54510083D01*
X13222073Y54521625D01*
X13222072Y54521626D01*
X13938936Y54521626D01*
X13945600Y54510083D01*
X14794158Y53661525D01*
X14803539Y53655601D01*
X14811507Y53663326D01*
X14901429Y53800961D01*
X14906297Y53809956D01*
X15002032Y54028211D01*
X15005351Y54037878D01*
X15063858Y54268913D01*
X15065542Y54279007D01*
X15080803Y54463184D01*
X16724881Y54463184D01*
X16725305Y54458067D01*
X16744991Y54220483D01*
X16744992Y54220475D01*
X16745416Y54215363D01*
X16746673Y54210396D01*
X16746675Y54210389D01*
X16802362Y53990488D01*
X16806461Y53974303D01*
X16808521Y53969607D01*
X16904290Y53751274D01*
X16904293Y53751268D01*
X16906351Y53746577D01*
X16909151Y53742291D01*
X16909155Y53742284D01*
X17015901Y53578897D01*
X17042360Y53538399D01*
X17045834Y53534625D01*
X17045835Y53534624D01*
X17207308Y53359217D01*
X17207311Y53359214D01*
X17210780Y53355446D01*
X17407015Y53202710D01*
X17512368Y53145696D01*
X17600023Y53098259D01*
X17625714Y53084356D01*
X17860910Y53003613D01*
X18106189Y52962684D01*
X18349725Y52962684D01*
X18354859Y52962684D01*
X18600138Y53003613D01*
X18835334Y53084356D01*
X19054033Y53202710D01*
X19250268Y53355446D01*
X19418688Y53538399D01*
X19554697Y53746577D01*
X19654587Y53974303D01*
X19715632Y54215363D01*
X19736167Y54463184D01*
X19715632Y54711005D01*
X19654587Y54952065D01*
X19645286Y54973270D01*
X52894189Y54973270D01*
X52900849Y54961164D01*
X53746898Y54115115D01*
X53758441Y54108451D01*
X53769983Y54115115D01*
X54616031Y54961164D01*
X54622691Y54973270D01*
X54614584Y54984460D01*
X54585727Y55006920D01*
X54577160Y55012516D01*
X54367555Y55125949D01*
X54358201Y55130052D01*
X54132784Y55207437D01*
X54122872Y55209948D01*
X53887797Y55249175D01*
X53877602Y55250019D01*
X53639280Y55250019D01*
X53629084Y55249175D01*
X53394009Y55209948D01*
X53384097Y55207437D01*
X53158680Y55130052D01*
X53149326Y55125949D01*
X52939717Y55012515D01*
X52931158Y55006923D01*
X52902295Y54984459D01*
X52894189Y54973270D01*
X19645286Y54973270D01*
X19554697Y55179791D01*
X19513866Y55242287D01*
X19441572Y55352942D01*
X19418688Y55387969D01*
X19387753Y55421573D01*
X19253739Y55567152D01*
X19253735Y55567155D01*
X19250268Y55570922D01*
X19111539Y55678899D01*
X19058083Y55720506D01*
X19058081Y55720508D01*
X19054033Y55723658D01*
X19018501Y55742887D01*
X18839840Y55839574D01*
X18839834Y55839577D01*
X18835334Y55842012D01*
X18830493Y55843674D01*
X18830486Y55843677D01*
X18604989Y55921090D01*
X18604985Y55921091D01*
X18600138Y55922755D01*
X18586187Y55925083D01*
X18359922Y55962840D01*
X18359911Y55962841D01*
X18354859Y55963684D01*
X18106189Y55963684D01*
X18101137Y55962841D01*
X18101125Y55962840D01*
X17865967Y55923599D01*
X17865965Y55923599D01*
X17860910Y55922755D01*
X17856065Y55921092D01*
X17856058Y55921090D01*
X17630561Y55843677D01*
X17630550Y55843673D01*
X17625714Y55842012D01*
X17621217Y55839579D01*
X17621207Y55839574D01*
X17411526Y55726100D01*
X17411519Y55726096D01*
X17407015Y55723658D01*
X17402972Y55720512D01*
X17402964Y55720506D01*
X17214828Y55574073D01*
X17210780Y55570922D01*
X17207317Y55567161D01*
X17207308Y55567152D01*
X17045835Y55391745D01*
X17045829Y55391738D01*
X17042360Y55387969D01*
X17039555Y55383678D01*
X17039552Y55383672D01*
X16909155Y55184085D01*
X16909148Y55184073D01*
X16906351Y55179791D01*
X16904296Y55175107D01*
X16904290Y55175095D01*
X16820670Y54984459D01*
X16806461Y54952065D01*
X16805203Y54947100D01*
X16805202Y54947095D01*
X16746675Y54715980D01*
X16746673Y54715971D01*
X16745416Y54711005D01*
X16744992Y54705896D01*
X16744991Y54705886D01*
X16728767Y54510083D01*
X16724881Y54463184D01*
X15080803Y54463184D01*
X15085222Y54516508D01*
X15085222Y54526742D01*
X15065542Y54764244D01*
X15063858Y54774338D01*
X15005351Y55005373D01*
X15002032Y55015040D01*
X14906297Y55233295D01*
X14901429Y55242290D01*
X14811507Y55379926D01*
X14803539Y55387651D01*
X14794158Y55381727D01*
X13945600Y54533168D01*
X13938936Y54521626D01*
X13222072Y54521626D01*
X13215409Y54533168D01*
X12366850Y55381727D01*
X12357469Y55387651D01*
X12349502Y55379926D01*
X12259577Y55242287D01*
X12254712Y55233297D01*
X12158977Y55015040D01*
X12155658Y55005373D01*
X12097151Y54774338D01*
X12095467Y54764244D01*
X12075788Y54526742D01*
X12075788Y54516508D01*
X500Y54516508D01*
X500Y55744876D01*
X12716253Y55744876D01*
X12722913Y55732770D01*
X13568962Y54886721D01*
X13580505Y54880057D01*
X13592047Y54886721D01*
X14438095Y55732770D01*
X14444755Y55744876D01*
X14436648Y55756066D01*
X14407791Y55778526D01*
X14399224Y55784122D01*
X14189619Y55897555D01*
X14180265Y55901658D01*
X13954848Y55979043D01*
X13944936Y55981554D01*
X13709861Y56020781D01*
X13699666Y56021625D01*
X13461344Y56021625D01*
X13451148Y56020781D01*
X13216073Y55981554D01*
X13206161Y55979043D01*
X12980744Y55901658D01*
X12971390Y55897555D01*
X12761781Y55784121D01*
X12753222Y55778529D01*
X12724359Y55756065D01*
X12716253Y55744876D01*
X500Y55744876D01*
X500Y64932235D01*
X3145788Y64932235D01*
X3146282Y64927738D01*
X3146283Y64927733D01*
X3174917Y64667494D01*
X3174918Y64667487D01*
X3175414Y64662982D01*
X3176559Y64658602D01*
X3176561Y64658592D01*
X3208830Y64535162D01*
X3243928Y64400912D01*
X3245693Y64396758D01*
X3245696Y64396750D01*
X3348099Y64155777D01*
X3349870Y64151610D01*
X3352226Y64147749D01*
X3352229Y64147744D01*
X3451400Y63985247D01*
X3490982Y63920390D01*
X3664255Y63712180D01*
X3667630Y63709156D01*
X3667631Y63709155D01*
X3824271Y63568805D01*
X3865998Y63531418D01*
X4091910Y63381956D01*
X4337176Y63266980D01*
X4596569Y63188940D01*
X4864561Y63149500D01*
X5065369Y63149500D01*
X5067631Y63149500D01*
X5270156Y63164323D01*
X5534553Y63223220D01*
X5787558Y63319986D01*
X5805401Y63330000D01*
X46394659Y63330000D01*
X46395256Y63323938D01*
X46413378Y63139933D01*
X46413379Y63139927D01*
X46413976Y63133868D01*
X46415743Y63128043D01*
X46415744Y63128038D01*
X46469418Y62951101D01*
X46471186Y62945273D01*
X46474055Y62939905D01*
X46474057Y62939901D01*
X46561215Y62776839D01*
X46561219Y62776833D01*
X46564090Y62771462D01*
X46689117Y62619117D01*
X46841462Y62494090D01*
X46846834Y62491219D01*
X46846838Y62491216D01*
X46963433Y62428895D01*
X47015273Y62401186D01*
X47203868Y62343976D01*
X47400000Y62324659D01*
X47596132Y62343976D01*
X47784727Y62401186D01*
X47958538Y62494090D01*
X48110883Y62619117D01*
X48235910Y62771462D01*
X48328814Y62945273D01*
X48386024Y63133868D01*
X48405341Y63330000D01*
X48386024Y63526132D01*
X48328814Y63714727D01*
X48325940Y63720104D01*
X48323611Y63725727D01*
X48325638Y63726567D01*
X48313391Y63784695D01*
X48335038Y63842343D01*
X48334230Y63842784D01*
X48337350Y63848499D01*
X48337773Y63849624D01*
X48343796Y63857669D01*
X48394091Y63992517D01*
X48400500Y64052127D01*
X48400499Y64932235D01*
X103145788Y64932235D01*
X103146282Y64927738D01*
X103146283Y64927733D01*
X103174917Y64667494D01*
X103174918Y64667487D01*
X103175414Y64662982D01*
X103176559Y64658602D01*
X103176561Y64658592D01*
X103208830Y64535162D01*
X103243928Y64400912D01*
X103245693Y64396758D01*
X103245696Y64396750D01*
X103348099Y64155777D01*
X103349870Y64151610D01*
X103352226Y64147749D01*
X103352229Y64147744D01*
X103451400Y63985247D01*
X103490982Y63920390D01*
X103664255Y63712180D01*
X103667630Y63709156D01*
X103667631Y63709155D01*
X103824271Y63568805D01*
X103865998Y63531418D01*
X104091910Y63381956D01*
X104337176Y63266980D01*
X104596569Y63188940D01*
X104864561Y63149500D01*
X105065369Y63149500D01*
X105067631Y63149500D01*
X105270156Y63164323D01*
X105534553Y63223220D01*
X105787558Y63319986D01*
X106023777Y63452559D01*
X106238177Y63618112D01*
X106426186Y63813119D01*
X106583799Y64033421D01*
X106707656Y64274325D01*
X106795118Y64530695D01*
X106844319Y64797067D01*
X106854212Y65067765D01*
X106824586Y65337018D01*
X106756072Y65599088D01*
X106650130Y65848390D01*
X106509018Y66079610D01*
X106335745Y66287820D01*
X106332368Y66290846D01*
X106137382Y66465554D01*
X106137378Y66465558D01*
X106134002Y66468582D01*
X105908090Y66618044D01*
X105903996Y66619964D01*
X105903991Y66619966D01*
X105666929Y66731096D01*
X105666925Y66731098D01*
X105662824Y66733020D01*
X105658477Y66734328D01*
X105658474Y66734329D01*
X105407772Y66809754D01*
X105407771Y66809755D01*
X105403431Y66811060D01*
X105398957Y66811719D01*
X105398950Y66811720D01*
X105139913Y66849842D01*
X105139907Y66849843D01*
X105135439Y66850500D01*
X104932369Y66850500D01*
X104930120Y66850336D01*
X104930109Y66850335D01*
X104734363Y66836008D01*
X104734359Y66836008D01*
X104729844Y66835677D01*
X104725426Y66834693D01*
X104725420Y66834692D01*
X104469877Y66777768D01*
X104469861Y66777764D01*
X104465447Y66776780D01*
X104461216Y66775162D01*
X104461210Y66775160D01*
X104216673Y66681633D01*
X104216663Y66681629D01*
X104212442Y66680014D01*
X104208494Y66677799D01*
X104208489Y66677796D01*
X103980176Y66549660D01*
X103980171Y66549657D01*
X103976223Y66547441D01*
X103972639Y66544675D01*
X103972635Y66544671D01*
X103765407Y66384657D01*
X103765394Y66384646D01*
X103761823Y66381888D01*
X103758685Y66378634D01*
X103758678Y66378627D01*
X103576958Y66190143D01*
X103576952Y66190136D01*
X103573814Y66186881D01*
X103571189Y66183213D01*
X103571179Y66183200D01*
X103418834Y65970260D01*
X103418830Y65970255D01*
X103416201Y65966579D01*
X103414132Y65962556D01*
X103414129Y65962550D01*
X103294416Y65729707D01*
X103294411Y65729696D01*
X103292344Y65725675D01*
X103290884Y65721398D01*
X103290879Y65721384D01*
X103206348Y65473605D01*
X103206344Y65473593D01*
X103204882Y65469305D01*
X103204057Y65464841D01*
X103204057Y65464839D01*
X103156504Y65207394D01*
X103156502Y65207381D01*
X103155681Y65202933D01*
X103155515Y65198407D01*
X103155515Y65198401D01*
X103150576Y65063238D01*
X103145788Y64932235D01*
X48400499Y64932235D01*
X48400499Y65147872D01*
X48394091Y65207483D01*
X48343796Y65342331D01*
X48257546Y65457546D01*
X48142331Y65543796D01*
X48007483Y65594091D01*
X47999770Y65594921D01*
X47999767Y65594921D01*
X47951180Y65600145D01*
X47951169Y65600146D01*
X47947873Y65600500D01*
X47944550Y65600500D01*
X46855439Y65600500D01*
X46855420Y65600500D01*
X46852128Y65600499D01*
X46848850Y65600147D01*
X46848838Y65600146D01*
X46800231Y65594921D01*
X46800225Y65594920D01*
X46792517Y65594091D01*
X46785252Y65591382D01*
X46785246Y65591380D01*
X46665980Y65546896D01*
X46665978Y65546896D01*
X46657669Y65543796D01*
X46650572Y65538484D01*
X46650568Y65538481D01*
X46549550Y65462859D01*
X46549546Y65462856D01*
X46542454Y65457546D01*
X46537144Y65450454D01*
X46537141Y65450450D01*
X46461519Y65349432D01*
X46461516Y65349428D01*
X46456204Y65342331D01*
X46453104Y65334022D01*
X46453104Y65334020D01*
X46408620Y65214753D01*
X46408619Y65214750D01*
X46405909Y65207483D01*
X46405079Y65199773D01*
X46405079Y65199768D01*
X46399855Y65151181D01*
X46399854Y65151169D01*
X46399500Y65147873D01*
X46399500Y65144552D01*
X46399500Y65144551D01*
X46399500Y64055440D01*
X46399500Y64055422D01*
X46399501Y64052128D01*
X46399853Y64048850D01*
X46399854Y64048839D01*
X46405079Y64000232D01*
X46405080Y64000227D01*
X46405909Y63992517D01*
X46408619Y63985251D01*
X46408620Y63985247D01*
X46438425Y63905337D01*
X46456204Y63857669D01*
X46461517Y63850572D01*
X46461519Y63850569D01*
X46462231Y63849618D01*
X46462655Y63848488D01*
X46465770Y63842784D01*
X46464963Y63842344D01*
X46486606Y63784726D01*
X46474375Y63726559D01*
X46476388Y63725725D01*
X46474057Y63720099D01*
X46471186Y63714727D01*
X46469419Y63708904D01*
X46469418Y63708900D01*
X46415744Y63531963D01*
X46415742Y63531956D01*
X46413976Y63526132D01*
X46413379Y63520076D01*
X46413378Y63520068D01*
X46406511Y63450341D01*
X46394659Y63330000D01*
X5805401Y63330000D01*
X6023777Y63452559D01*
X6238177Y63618112D01*
X6426186Y63813119D01*
X6583799Y64033421D01*
X6707656Y64274325D01*
X6795118Y64530695D01*
X6844319Y64797067D01*
X6854212Y65067765D01*
X6824586Y65337018D01*
X6756072Y65599088D01*
X6650130Y65848390D01*
X6509018Y66079610D01*
X6335745Y66287820D01*
X6332368Y66290846D01*
X6137382Y66465554D01*
X6137378Y66465558D01*
X6134002Y66468582D01*
X5908090Y66618044D01*
X5903996Y66619964D01*
X5903991Y66619966D01*
X5772189Y66681752D01*
X12570749Y66681752D01*
X12578855Y66670561D01*
X12607717Y66648097D01*
X12616279Y66642504D01*
X12825885Y66529071D01*
X12835239Y66524968D01*
X13060656Y66447583D01*
X13070568Y66445072D01*
X13305643Y66405845D01*
X13315839Y66405000D01*
X13554161Y66405000D01*
X13564356Y66405845D01*
X13799431Y66445072D01*
X13809343Y66447583D01*
X14034760Y66524968D01*
X14044114Y66529071D01*
X14253723Y66642505D01*
X14262281Y66648097D01*
X14291146Y66670563D01*
X14299250Y66681750D01*
X14292589Y66693858D01*
X13446542Y67539905D01*
X13435000Y67546569D01*
X13423457Y67539905D01*
X12577408Y66693857D01*
X12570749Y66681752D01*
X5772189Y66681752D01*
X5666929Y66731096D01*
X5666925Y66731098D01*
X5662824Y66733020D01*
X5658477Y66734328D01*
X5658474Y66734329D01*
X5407772Y66809754D01*
X5407771Y66809755D01*
X5403431Y66811060D01*
X5398957Y66811719D01*
X5398950Y66811720D01*
X5139913Y66849842D01*
X5139907Y66849843D01*
X5135439Y66850500D01*
X4932369Y66850500D01*
X4930120Y66850336D01*
X4930109Y66850335D01*
X4734363Y66836008D01*
X4734359Y66836008D01*
X4729844Y66835677D01*
X4725426Y66834693D01*
X4725420Y66834692D01*
X4469877Y66777768D01*
X4469861Y66777764D01*
X4465447Y66776780D01*
X4461216Y66775162D01*
X4461210Y66775160D01*
X4216673Y66681633D01*
X4216663Y66681629D01*
X4212442Y66680014D01*
X4208494Y66677799D01*
X4208489Y66677796D01*
X3980176Y66549660D01*
X3980171Y66549657D01*
X3976223Y66547441D01*
X3972639Y66544675D01*
X3972635Y66544671D01*
X3765407Y66384657D01*
X3765394Y66384646D01*
X3761823Y66381888D01*
X3758685Y66378634D01*
X3758678Y66378627D01*
X3576958Y66190143D01*
X3576952Y66190136D01*
X3573814Y66186881D01*
X3571189Y66183213D01*
X3571179Y66183200D01*
X3418834Y65970260D01*
X3418830Y65970255D01*
X3416201Y65966579D01*
X3414132Y65962556D01*
X3414129Y65962550D01*
X3294416Y65729707D01*
X3294411Y65729696D01*
X3292344Y65725675D01*
X3290884Y65721398D01*
X3290879Y65721384D01*
X3206348Y65473605D01*
X3206344Y65473593D01*
X3204882Y65469305D01*
X3204057Y65464841D01*
X3204057Y65464839D01*
X3156504Y65207394D01*
X3156502Y65207381D01*
X3155681Y65202933D01*
X3155515Y65198407D01*
X3155515Y65198401D01*
X3150576Y65063238D01*
X3145788Y64932235D01*
X500Y64932235D01*
X500Y67899883D01*
X11930283Y67899883D01*
X11949962Y67662382D01*
X11951646Y67652288D01*
X12010153Y67421253D01*
X12013472Y67411586D01*
X12109208Y67193327D01*
X12114070Y67184344D01*
X12203999Y67046696D01*
X12211963Y67038976D01*
X12221345Y67044900D01*
X13069904Y67893458D01*
X13076568Y67905000D01*
X13793431Y67905000D01*
X13800095Y67893458D01*
X14648653Y67044900D01*
X14658034Y67038976D01*
X14666002Y67046701D01*
X14755924Y67184336D01*
X14760792Y67193331D01*
X14856527Y67411586D01*
X14859846Y67421253D01*
X14918353Y67652288D01*
X14920037Y67662382D01*
X14935298Y67846559D01*
X16579376Y67846559D01*
X16579800Y67841442D01*
X16599486Y67603858D01*
X16599487Y67603850D01*
X16599911Y67598738D01*
X16601168Y67593771D01*
X16601170Y67593764D01*
X16659697Y67362649D01*
X16660956Y67357678D01*
X16663016Y67352982D01*
X16758785Y67134649D01*
X16758788Y67134643D01*
X16760846Y67129952D01*
X16763646Y67125666D01*
X16763650Y67125659D01*
X16816413Y67044900D01*
X16896855Y66921774D01*
X16900329Y66918000D01*
X16900330Y66917999D01*
X17061803Y66742592D01*
X17061806Y66742589D01*
X17065275Y66738821D01*
X17261510Y66586085D01*
X17366863Y66529071D01*
X17474009Y66471086D01*
X17480209Y66467731D01*
X17715405Y66386988D01*
X17960684Y66346059D01*
X18204220Y66346059D01*
X18209354Y66346059D01*
X18454633Y66386988D01*
X18689829Y66467731D01*
X18908528Y66586085D01*
X19104763Y66738821D01*
X19273183Y66921774D01*
X19409192Y67129952D01*
X19509082Y67357678D01*
X19570127Y67598738D01*
X19590662Y67846559D01*
X19570127Y68094380D01*
X19509082Y68335440D01*
X19409192Y68563166D01*
X19368361Y68625662D01*
X19337759Y68672502D01*
X19273183Y68771344D01*
X19104763Y68954297D01*
X18908528Y69107033D01*
X18869321Y69128251D01*
X18694335Y69222949D01*
X18694329Y69222952D01*
X18689829Y69225387D01*
X18684988Y69227049D01*
X18684981Y69227052D01*
X18459484Y69304465D01*
X18459480Y69304466D01*
X18454633Y69306130D01*
X18445787Y69307607D01*
X18214417Y69346215D01*
X18214406Y69346216D01*
X18209354Y69347059D01*
X17960684Y69347059D01*
X17955632Y69346216D01*
X17955620Y69346215D01*
X17720462Y69306974D01*
X17720460Y69306974D01*
X17715405Y69306130D01*
X17710560Y69304467D01*
X17710553Y69304465D01*
X17485056Y69227052D01*
X17485045Y69227048D01*
X17480209Y69225387D01*
X17475712Y69222954D01*
X17475702Y69222949D01*
X17266021Y69109475D01*
X17266014Y69109471D01*
X17261510Y69107033D01*
X17257467Y69103887D01*
X17257459Y69103881D01*
X17069323Y68957448D01*
X17065275Y68954297D01*
X17061812Y68950536D01*
X17061803Y68950527D01*
X16900330Y68775120D01*
X16900324Y68775113D01*
X16896855Y68771344D01*
X16894050Y68767053D01*
X16894047Y68767047D01*
X16763650Y68567460D01*
X16763643Y68567448D01*
X16760846Y68563166D01*
X16758791Y68558482D01*
X16758785Y68558470D01*
X16688579Y68398415D01*
X16660956Y68335440D01*
X16659698Y68330475D01*
X16659697Y68330470D01*
X16601170Y68099355D01*
X16601168Y68099346D01*
X16599911Y68094380D01*
X16599487Y68089271D01*
X16599486Y68089261D01*
X16583262Y67893458D01*
X16579376Y67846559D01*
X14935298Y67846559D01*
X14939717Y67899883D01*
X14939717Y67910117D01*
X14920037Y68147619D01*
X14918353Y68157713D01*
X14859846Y68388748D01*
X14856527Y68398415D01*
X14760792Y68616670D01*
X14755924Y68625665D01*
X14666002Y68763301D01*
X14658034Y68771026D01*
X14648653Y68765102D01*
X13800095Y67916543D01*
X13793431Y67905000D01*
X13076568Y67905000D01*
X13069904Y67916543D01*
X12221345Y68765102D01*
X12211964Y68771026D01*
X12203997Y68763301D01*
X12114072Y68625662D01*
X12109207Y68616672D01*
X12013472Y68398415D01*
X12010153Y68388748D01*
X11951646Y68157713D01*
X11949962Y68147619D01*
X11930283Y67910117D01*
X11930283Y67899883D01*
X500Y67899883D01*
X500Y69128251D01*
X12570748Y69128251D01*
X12577408Y69116145D01*
X13423457Y68270096D01*
X13435000Y68263432D01*
X13446542Y68270096D01*
X14292590Y69116145D01*
X14299250Y69128251D01*
X14291143Y69139441D01*
X14262286Y69161901D01*
X14253719Y69167497D01*
X14044114Y69280930D01*
X14034760Y69285033D01*
X13809343Y69362418D01*
X13799431Y69364929D01*
X13564356Y69404156D01*
X13554161Y69405000D01*
X13315839Y69405000D01*
X13305643Y69404156D01*
X13070568Y69364929D01*
X13060656Y69362418D01*
X12835239Y69285033D01*
X12825885Y69280930D01*
X12616276Y69167496D01*
X12607717Y69161904D01*
X12578854Y69139440D01*
X12570748Y69128251D01*
X500Y69128251D01*
X500Y69875500D01*
X17113Y69937500D01*
X62500Y69982887D01*
X124500Y69999500D01*
X109875500Y69999500D01*
X109937500Y69982887D01*
G37*
%TD.AperFunction*%
%TD*%
M02*
