M48
; DRILL file {KiCad (7.0.0)} date Tue Feb  6 12:52:23 2024
; FORMAT={-:-/ absolute / metric / decimal}
; #@! TF.CreationDate,2024-02-06T12:52:23+01:00
; #@! TF.GenerationSoftware,Kicad,Pcbnew,(7.0.0)
; #@! TF.FileFunction,Plated,1,2,PTH
FMAT,2
METRIC
; #@! TA.AperFunction,Plated,PTH,ComponentDrill
T1C0.650
; #@! TA.AperFunction,Plated,PTH,ComponentDrill
T2C0.750
; #@! TA.AperFunction,Plated,PTH,ViaDrill
T3C0.800
; #@! TA.AperFunction,Plated,PTH,ComponentDrill
T4C0.800
; #@! TA.AperFunction,Plated,PTH,ComponentDrill
T5C1.000
; #@! TA.AperFunction,Plated,PTH,ComponentDrill
T6C1.100
; #@! TA.AperFunction,Plated,PTH,ComponentDrill
T7C1.200
%
G90
G05
T1
X47.4Y64.6
X47.4Y63.33
T2
X49.14Y21.725
X49.14Y20.455
X49.14Y19.185
T3
X21.6Y43.2
X22.7Y53.2
X53.2Y46.3
X86.3Y55.3
X93.8Y60.7
X98.7Y55.3
T4
X59.36Y16.045
X59.6Y60.8
X61.9Y21.125
X63.0Y60.8
X64.44Y16.045
T6
X36.96Y20.655
X39.5Y20.655
X42.04Y20.655
T7
X12.017Y47.011
X13.435Y67.905
X13.581Y54.522
X14.607Y47.011
X17.207Y47.031
X18.085Y67.847
X18.231Y54.463
X53.7Y49.1
X53.758Y53.75
X67.083Y49.246
X67.142Y53.896
X73.56Y20.58
X76.16Y20.6
X78.75Y20.6
X91.81Y40.42
X94.4Y40.42
X97.0Y40.4
X98.73Y57.1
X99.58Y40.4
X101.32Y57.1
X103.92Y57.12
X106.5Y57.12
T5
G00X35.25Y14.15
M15
G01X37.85Y14.15
M16
G05
G00X35.45Y7.85
M15
G01X37.65Y7.85
M16
G05
G00X41.35Y12.35
M15
G01X41.35Y10.15
M16
G05
T0
M30
