%TF.GenerationSoftware,KiCad,Pcbnew,(7.0.0)*%
%TF.CreationDate,2024-01-25T16:52:26+01:00*%
%TF.ProjectId,Sensorbox,53656e73-6f72-4626-9f78-2e6b69636164,rev?*%
%TF.SameCoordinates,PX62b48e0PY7ffbac0*%
%TF.FileFunction,Paste,Top*%
%TF.FilePolarity,Positive*%
%FSLAX46Y46*%
G04 Gerber Fmt 4.6, Leading zero omitted, Abs format (unit mm)*
G04 Created by KiCad (PCBNEW (7.0.0)) date 2024-01-25 16:52:26*
%MOMM*%
%LPD*%
G01*
G04 APERTURE LIST*
G04 Aperture macros list*
%AMRoundRect*
0 Rectangle with rounded corners*
0 $1 Rounding radius*
0 $2 $3 $4 $5 $6 $7 $8 $9 X,Y pos of 4 corners*
0 Add a 4 corners polygon primitive as box body*
4,1,4,$2,$3,$4,$5,$6,$7,$8,$9,$2,$3,0*
0 Add four circle primitives for the rounded corners*
1,1,$1+$1,$2,$3*
1,1,$1+$1,$4,$5*
1,1,$1+$1,$6,$7*
1,1,$1+$1,$8,$9*
0 Add four rect primitives between the rounded corners*
20,1,$1+$1,$2,$3,$4,$5,0*
20,1,$1+$1,$4,$5,$6,$7,0*
20,1,$1+$1,$6,$7,$8,$9,0*
20,1,$1+$1,$8,$9,$2,$3,0*%
G04 Aperture macros list end*
%ADD10RoundRect,0.250000X-0.350000X-0.450000X0.350000X-0.450000X0.350000X0.450000X-0.350000X0.450000X0*%
%ADD11RoundRect,0.250000X0.350000X0.450000X-0.350000X0.450000X-0.350000X-0.450000X0.350000X-0.450000X0*%
%ADD12RoundRect,0.250000X0.337500X0.475000X-0.337500X0.475000X-0.337500X-0.475000X0.337500X-0.475000X0*%
%ADD13RoundRect,0.250000X-0.475000X0.337500X-0.475000X-0.337500X0.475000X-0.337500X0.475000X0.337500X0*%
%ADD14RoundRect,0.250000X-0.450000X0.350000X-0.450000X-0.350000X0.450000X-0.350000X0.450000X0.350000X0*%
%ADD15RoundRect,0.250000X-0.337500X-0.475000X0.337500X-0.475000X0.337500X0.475000X-0.337500X0.475000X0*%
%ADD16C,2.000000*%
%ADD17R,2.000000X1.200000*%
%ADD18R,1.200000X2.000000*%
%ADD19C,1.800000*%
%ADD20C,1.524000*%
%ADD21R,1.000000X1.000000*%
%ADD22RoundRect,0.250000X0.475000X-0.337500X0.475000X0.337500X-0.475000X0.337500X-0.475000X-0.337500X0*%
G04 APERTURE END LIST*
D10*
%TO.C,R104*%
X24800000Y53200000D03*
X26800000Y53200000D03*
%TD*%
D11*
%TO.C,R106*%
X49300000Y45300000D03*
X47300000Y45300000D03*
%TD*%
D12*
%TO.C,C104*%
X42637500Y17400000D03*
X40562500Y17400000D03*
%TD*%
D13*
%TO.C,C102*%
X24500000Y43200000D03*
X24500000Y41125000D03*
%TD*%
D14*
%TO.C,R103*%
X51236816Y49230524D03*
X51236816Y47230524D03*
%TD*%
D10*
%TO.C,R105*%
X47300000Y47300000D03*
X49300000Y47300000D03*
%TD*%
D15*
%TO.C,C107*%
X58252959Y43193485D03*
X60327959Y43193485D03*
%TD*%
%TO.C,C103*%
X36662500Y17300000D03*
X38737500Y17300000D03*
%TD*%
D16*
%TO.C,UB101*%
X93790000Y57590000D03*
X91260000Y57590000D03*
X88720000Y57570000D03*
X86250000Y57580000D03*
X83690000Y57590000D03*
X81110000Y57550000D03*
X78580000Y57540000D03*
X76000000Y57540000D03*
X73400000Y57520000D03*
X70810000Y57520000D03*
%TD*%
D17*
%TO.C,U101*%
X28999999Y57279999D03*
X28999999Y55279999D03*
X28999999Y53279999D03*
X28999999Y51279999D03*
X28999999Y49279999D03*
X28999999Y47279999D03*
X28999999Y45279999D03*
X28999999Y43279999D03*
D18*
X31999999Y41799999D03*
X33999999Y41799999D03*
X35999999Y41799999D03*
X37999999Y41799999D03*
X39999999Y41799999D03*
X41999999Y41799999D03*
D17*
X44999999Y43279999D03*
X44999999Y45279999D03*
X44999999Y47279999D03*
X44999999Y49279999D03*
X44999999Y51279999D03*
X44999999Y53279999D03*
X44999999Y55279999D03*
X44999999Y57279999D03*
%TD*%
D13*
%TO.C,C101*%
X26600000Y43200000D03*
X26600000Y41125000D03*
%TD*%
D19*
%TO.C,SB101*%
X48642959Y28013485D03*
X48652959Y30593485D03*
X48652959Y33133485D03*
X48672959Y35673485D03*
X48672959Y38223485D03*
D20*
X80802959Y29703485D03*
X78272959Y27183485D03*
D21*
X60379032Y37888314D03*
X60382303Y39592234D03*
X60337841Y27297615D03*
X60299999Y28999999D03*
X63951582Y34771849D03*
X62209190Y34786073D03*
%TD*%
D10*
%TO.C,R107*%
X65300000Y60800000D03*
X67300000Y60800000D03*
%TD*%
D22*
%TO.C,C106*%
X45940000Y20187500D03*
X45940000Y22262500D03*
%TD*%
D14*
%TO.C,R102*%
X24900000Y57100000D03*
X24900000Y55100000D03*
%TD*%
D22*
%TO.C,C105*%
X52940000Y19462500D03*
X52940000Y21537500D03*
%TD*%
M02*
