%TF.GenerationSoftware,KiCad,Pcbnew,(7.0.0)*%
%TF.CreationDate,2024-01-25T16:52:26+01:00*%
%TF.ProjectId,Sensorbox,53656e73-6f72-4626-9f78-2e6b69636164,rev?*%
%TF.SameCoordinates,PX62b48e0PY7ffbac0*%
%TF.FileFunction,Soldermask,Bot*%
%TF.FilePolarity,Negative*%
%FSLAX46Y46*%
G04 Gerber Fmt 4.6, Leading zero omitted, Abs format (unit mm)*
G04 Created by KiCad (PCBNEW (7.0.0)) date 2024-01-25 16:52:26*
%MOMM*%
%LPD*%
G01*
G04 APERTURE LIST*
%ADD10C,3.200000*%
%ADD11C,2.000000*%
%ADD12R,2.000000X2.000000*%
%ADD13R,1.500000X1.050000*%
%ADD14O,1.500000X1.050000*%
%ADD15R,1.000000X1.000000*%
%ADD16O,1.000000X1.000000*%
%ADD17C,1.440000*%
%ADD18R,1.905000X2.000000*%
%ADD19O,1.905000X2.000000*%
%ADD20C,1.500000*%
%ADD21R,4.600000X2.000000*%
%ADD22O,4.200000X2.000000*%
%ADD23O,2.000000X4.200000*%
G04 APERTURE END LIST*
D10*
%TO.C,H104*%
X5000000Y5000000D03*
%TD*%
%TO.C,H103*%
X105000000Y5000000D03*
%TD*%
%TO.C,H102*%
X5000000Y65000000D03*
%TD*%
%TO.C,H101*%
X105000000Y65000000D03*
%TD*%
D11*
%TO.C,SW101*%
X13580505Y54521625D03*
X13435000Y67905000D03*
X18230524Y54463184D03*
X18085019Y67846559D03*
%TD*%
%TO.C,SB103*%
X17206816Y47030524D03*
X14606816Y47010524D03*
D12*
X12016815Y47010523D03*
%TD*%
D11*
%TO.C,SW102*%
X53758441Y53750019D03*
X67141816Y53895524D03*
X53700000Y49100000D03*
X67083375Y49245505D03*
%TD*%
D13*
%TO.C,U103*%
X49139999Y21724999D03*
D14*
X49139999Y20454999D03*
X49139999Y19184999D03*
%TD*%
D11*
%TO.C,SB105*%
X99580000Y40400000D03*
X97000000Y40400000D03*
X94400000Y40420000D03*
X91810000Y40420000D03*
%TD*%
D15*
%TO.C,J101*%
X47399999Y64599999D03*
D16*
X47399999Y63329999D03*
%TD*%
D11*
%TO.C,SB104*%
X73560000Y20580000D03*
X76160000Y20600000D03*
D12*
X78749999Y20599999D03*
%TD*%
D11*
%TO.C,SB102*%
X106500000Y57120000D03*
X103920000Y57120000D03*
X101320000Y57100000D03*
X98730000Y57100000D03*
%TD*%
D17*
%TO.C,RV101*%
X64440000Y16045000D03*
X61900000Y21125000D03*
X59360000Y16045000D03*
%TD*%
D18*
%TO.C,U102*%
X36959999Y20654999D03*
D19*
X39499999Y20654999D03*
X42039999Y20654999D03*
%TD*%
D20*
%TO.C,R101*%
X59600000Y60800000D03*
X63000000Y60800000D03*
%TD*%
D21*
%TO.C,J102*%
X36549999Y14149999D03*
D22*
X36549999Y7849999D03*
D23*
X41349999Y11249999D03*
%TD*%
M02*
